<svg viewBox="0 0 16 16" xmlns="http://www.w3.org/2000/svg" xmlns:xlink="http://www.w3.org/1999/xlink"><defs><path d="m10.899 4.424c.979.842 1.602 2.092 1.602 3.489 0 2.529-2.039 4.586-4.541 4.586-2.213 0-4.059-1.607-4.459-3.725l1.451-.266c.276 1.424 1.517 2.501 3.01 2.501 1.69 0 3.065-1.389 3.065-3.096 0-.931-.416-1.758-1.063-2.326l.937-1.163m-5.982 2.385c-.107.303-.169.619-.185.942l-1.01.032-.139-.003c.016-.497.106-.968.273-1.417l1.062.446m.414-2.438l.657.955c-.252.195-.472.427-.658.689l-.968-.628c.269-.391.594-.732.969-1.016m2.349.29c-.317.027-.626.102-.921.221l-.481-1.057c.434-.183.89-.292 1.361-.326l.041 1.162m.32 10.195c3.787 0 6.857-3.07 6.857-6.857 0-3.788-3.07-6.858-6.857-6.858-3.787 0-6.857 3.07-6.857 6.858 0 3.787 3.07 6.857 6.857 6.857m0-14.857c4.419 0 8 3.582 8 8 0 4.418-3.581 8-8 8-4.418 0-8-3.582-8-8 0-4.418 3.582-8 8-8" id="0"/><mask id="1" fill="#ffffff"><use xlink:href="#0"/></mask></defs><g fill="#000000" fill-rule="evenodd"><use xlink:href="#0"/><g mask="url(#1)"><path d="m0 0h16v16h-16z"/></g></g></svg>