<svg xmlns="http://www.w3.org/2000/svg" width="14" height="14" viewBox="0 0 14 14">
  <g fill="none" fill-rule="evenodd">
    <g fill-rule="nonzero">
      <path fill="#000000" d="M0,7 C0,3.13400675 3.13400675,0 7,0 C10.8659932,0 14,3.13400675 14,7 C14,10.8659932 10.8659932,14 7,14 C3.13400675,14 0,10.8659932 0,7 Z"/>
      <path fill="#FFFFFF" d="M13,6.99999991 C13,4.85640644 11.8564065,2.87564429 10,1.8038475 C8.14359355,0.732050713 5.85640645,0.732050713 4,1.8038475 C2.1435935,2.87564429 1,4.85640644 1,6.99999991 C1,10.3137085 3.6862915,12.9999999 7,12.9999999 C10.3137085,12.9999999 13,10.3137085 13,6.99999991 Z"/>
    </g>
    <circle cx="7" cy="7" r="1" fill="#000000"/>
    <circle cx="10" cy="7" r="1" fill="#000000"/>
    <circle cx="4" cy="7" r="1" fill="#000000"/>
  </g>
</svg>
