<svg viewBox="0 0 16 16" xmlns="http://www.w3.org/2000/svg" xmlns:xlink="http://www.w3.org/1999/xlink"><defs><path d="m12.508 2.439c1.522 1.31 2.492 3.255 2.492 5.428 0 3.932-3.17 7.134-7.06 7.134-3.442 0-6.313-2.5-6.936-5.796l2.258-.412c.429 2.213 2.36 3.89 4.678 3.89 2.63 0 4.769-2.16 4.769-4.816 0-1.449-.648-2.735-1.653-3.618l1.456-1.81m-9.304 3.71c-.167.471-.263.963-.286 1.467l-1.575.049-.216-.006c.024-.774.165-1.505.424-2.204l1.653.694m.644-3.792l1.023 1.485c-.392.305-.735.664-1.024 1.072l-1.506-.977c.418-.607.923-1.137 1.507-1.58m3.654.452c-.494.042-.975.157-1.433.342l-.749-1.643c.675-.284 1.385-.454 2.119-.508l.063 1.809" id="0"/><mask id="1" fill="#ffffff"><use xlink:href="#0"/></mask></defs><g fill="#000000" fill-rule="evenodd"><use xlink:href="#0"/><g mask="url(#1)"><path d="m0 0h16v16h-16z"/></g></g></svg>