<svg xmlns="http://www.w3.org/2000/svg" width="418" height="260" viewBox="0 0 418 260"><g fill="none" fill-rule="evenodd"><path fill="#E5E5E5" fill-rule="nonzero" d="M269.584 126h2.658a16 16 0 0 1 15.82 13.603L292.666 170h-4.046l-4.515-29.798A12 12 0 0 0 272.242 130H270v-2c0-.711-.148-1.388-.416-2zm-23.168 0h-74.832c.268.612.416 1.289.416 2v2h74v-2c0-.711.148-1.388.416-2zm-121.083 44l4.606-30.397A16 16 0 0 1 145.759 126h2.657a4.983 4.983 0 0 0-.416 2v2h-2.242a12 12 0 0 0-11.864 10.202L129.379 170h-4.046zM293 194v56c0 5.523-4.477 10-10 10H135c-5.523 0-10-4.477-10-10v-56h4v56a6 6 0 0 0 6 6h148a6 6 0 0 0 6-6v-56h4z"/><g transform="translate(246 190)"><path fill="#E5E5E5" fill-rule="nonzero" d="M5 0a1 1 0 0 0-1 1v64a1 1 0 0 0 1 1h14a1 1 0 0 0 1-1V1a1 1 0 0 0-1-1H5zm19 4v61a5 5 0 0 1-5 5H5a5 5 0 0 1-5-5V4h24z"/><circle cx="12" cy="12" r="3" fill="#FC6D26"/><circle cx="12" cy="26" r="3" fill="#FDC4A8"/><circle cx="12" cy="40" r="3" fill="#FEE1D3"/><circle cx="12" cy="54" r="3" fill="#FEF0E8"/></g><g transform="translate(246 123)"><path fill="#E5E5E5" fill-rule="nonzero" d="M24 47V5a5 5 0 0 0-5-5H5a5 5 0 0 0-5 5v42h4V5a1 1 0 0 1 1-1h14a1 1 0 0 1 1 1v42h4z"/><circle cx="12" cy="12" r="3" fill="#FEF0E8"/><circle cx="12" cy="26" r="3" fill="#FEE1D3"/><circle cx="12" cy="40" r="3" fill="#FDC4A8"/></g><g transform="translate(148 123)"><path fill="#E5E5E5" fill-rule="nonzero" d="M24 47V5a5 5 0 0 0-5-5H5a5 5 0 0 0-5 5v42h4V5a1 1 0 0 1 1-1h14a1 1 0 0 1 1 1v42h4z"/><circle cx="12" cy="12" r="3" fill="#FEE1D3"/><circle cx="12" cy="26" r="3" fill="#FDC4A8"/><circle cx="12" cy="40" r="3" fill="#FC6D26"/></g><g transform="translate(148 190)"><path fill="#E5E5E5" fill-rule="nonzero" d="M5 0a1 1 0 0 0-1 1v64a1 1 0 0 0 1 1h14a1 1 0 0 0 1-1V1a1 1 0 0 0-1-1H5zm19 4v61a5 5 0 0 1-5 5H5a5 5 0 0 1-5-5V4h24z"/><circle cx="12" cy="12" r="3" fill="#FDC4A8"/><circle cx="12" cy="26" r="3" fill="#FEE1D3"/><circle cx="12" cy="40" r="3" fill="#FEF0E8"/><circle cx="12" cy="54" r="3" fill="#FC6D26"/></g><path fill="#E5E5E5" fill-rule="nonzero" d="M201 170h-76a5 5 0 0 0-5 5v14a5 5 0 0 0 5 5h76v-4h-76a1 1 0 0 1-1-1v-14a1 1 0 0 1 1-1h76v-4zm16 0h76a5 5 0 0 1 5 5v14a5 5 0 0 1-5 5h-76v-4h76a1 1 0 0 0 1-1v-14a1 1 0 0 0-1-1h-76v-4z"/><path fill="#C3B8E3" fill-rule="nonzero" d="M225 202.1V194c0-5.922-3.218-11.093-8-13.86V188a9.956 9.956 0 0 1 2 6.001v8h5c.342 0 .677.034 1 .1zm-32 0V194c0-5.922 3.218-11.093 8-13.86V188a9.956 9.956 0 0 0-2 6.001v8h-5c-.342 0-.677.034-1 .1z"/><path fill="#E1DBF1" fill-rule="nonzero" d="M207 234c-7.732 0-14-6.268-14-14v-13a1 1 0 0 1 1-1h30a1 1 0 0 1 1 1v13c0 7.732-6.268 14-14 14h-4zm0 4h4c9.941 0 18-8.059 18-18v-13a5 5 0 0 0-5-5h-30a5 5 0 0 0-5 5v13c0 9.941 8.059 18 18 18z"/><path fill="#6B4FBB" d="M207 221.465a4 4 0 1 1 4 0V224a2 2 0 1 1-4 0v-2.535z"/><path fill="#E5E5E5" fill-rule="nonzero" d="M206 168a1 1 0 0 0-1 1v26a1 1 0 0 0 1 1h6a1 1 0 0 0 1-1v-26a1 1 0 0 0-1-1h-6zm0-4h6a5 5 0 0 1 5 5v26a5 5 0 0 1-5 5h-6a5 5 0 0 1-5-5v-26a5 5 0 0 1 5-5z"/><g><path fill="#F9F9F9" d="M261.12 65c-.08.99-.12 1.99-.12 3 0 20.435 16.565 37 37 37s37-16.565 37-37c0-1.01-.04-2.01-.12-3-1.527 19.032-17.455 34-36.88 34-19.425 0-35.353-14.968-36.88-34z"/><path fill="#EEE" fill-rule="nonzero" d="M298 101c-21.54 0-39-17.46-39-39s17.46-39 39-39 39 17.46 39 39-17.46 39-39 39zm0-4c19.33 0 35-15.67 35-35s-15.67-35-35-35-35 15.67-35 35 15.67 35 35 35z"/><g fill-rule="nonzero"><path fill="#FEE1D3" d="M298.5 74c-6.423 0-12.261-2.84-17.43-8.407a4 4 0 0 1-.267-5.124C285.996 53.557 291.917 50 298.5 50c6.583 0 12.504 3.557 17.697 10.469a4 4 0 0 1-.267 5.124C310.76 71.16 304.923 74 298.5 74zm0-4c5.246 0 10.05-2.338 14.498-7.128C308.505 56.89 303.694 54 298.5 54c-5.194 0-10.005 2.89-14.498 8.872C288.45 67.662 293.254 70 298.5 70z"/><path fill="#FC6D26" d="M298 70a8 8 0 1 1 0-16 8 8 0 0 1 0 16zm0-4a4 4 0 1 0 0-8 4 4 0 0 0 0 8zm0-1a3 3 0 1 1 0-6 3 3 0 0 1 0 6z"/></g></g><g><path fill="#F9F9F9" d="M2.12 155c-.08.99-.12 1.99-.12 3 0 20.435 16.565 37 37 37s37-16.565 37-37c0-1.01-.04-2.01-.12-3-1.527 19.032-17.455 34-36.88 34-19.425 0-35.353-14.968-36.88-34z"/><path fill="#EEE" fill-rule="nonzero" d="M39 191c-21.54 0-39-17.46-39-39s17.46-39 39-39 39 17.46 39 39-17.46 39-39 39zm0-4c19.33 0 35-15.67 35-35s-15.67-35-35-35-35 15.67-35 35 15.67 35 35 35z"/><path fill="#FEE1D3" fill-rule="nonzero" d="M42 138c5.523 0 10 4.477 10 10v12h-4v-12a6 6 0 0 0-6-6v1.826a1 1 0 0 1-1.65.759l-4.464-3.826a1 1 0 0 1 0-1.518l4.463-3.826a1 1 0 0 1 1.651.76V138z"/><path fill="#FEE1D3" d="M30 158.341a6 6 0 1 1-4 0V144h4v14.341zM28 166a2 2 0 1 0 0-4 2 2 0 0 0 0 4z"/><path fill="#FC6D26" fill-rule="nonzero" d="M28 146a6 6 0 1 1 0-12 6 6 0 0 1 0 12zm0-4a2 2 0 1 0 0-4 2 2 0 0 0 0 4zm22 28a6 6 0 1 1 0-12 6 6 0 0 1 0 12zm0-4a2 2 0 1 0 0-4 2 2 0 0 0 0 4z"/></g><g><path fill="#F9F9F9" d="M106.12 42c-.08.99-.12 1.99-.12 3 0 20.435 16.565 37 37 37s37-16.565 37-37c0-1.01-.04-2.01-.12-3-1.527 19.032-17.455 34-36.88 34-19.425 0-35.353-14.968-36.88-34z"/><path fill="#EEE" fill-rule="nonzero" d="M143 78c-21.54 0-39-17.46-39-39s17.46-39 39-39 39 17.46 39 39-17.46 39-39 39zm0-4c19.33 0 35-15.67 35-35S162.33 4 143 4s-35 15.67-35 35 15.67 35 35 35z"/><path fill="#6B4FBB" fill-rule="nonzero" d="M152 31h-4a5 5 0 0 0-10 0h-4a9 9 0 1 1 18 0zm-18 0h4v3h-4v-3zm14 0h4v3h-4v-3z"/><path fill="#E1DBF2" fill-rule="nonzero" d="M134 37a1 1 0 0 0-1 1v12a1 1 0 0 0 1 1h18a1 1 0 0 0 1-1V38a1 1 0 0 0-1-1h-18zm0-4h18a5 5 0 0 1 5 5v12a5 5 0 0 1-5 5h-18a5 5 0 0 1-5-5V38a5 5 0 0 1 5-5z"/><path fill="#6B4FBB" d="M142 43.732a2 2 0 1 1 2 0V45a1 1 0 0 1-2 0v-1.268z"/></g><g><path fill="#F9F9F9" d="M342.12 180c-.08.99-.12 1.99-.12 3 0 20.435 16.565 37 37 37s37-16.565 37-37c0-1.01-.04-2.01-.12-3-1.527 19.032-17.455 34-36.88 34-19.425 0-35.353-14.968-36.88-34z"/><path fill="#EEE" fill-rule="nonzero" d="M379 216c-21.54 0-39-17.46-39-39s17.46-39 39-39 39 17.46 39 39-17.46 39-39 39zm0-4c19.33 0 35-15.67 35-35s-15.67-35-35-35-35 15.67-35 35 15.67 35 35 35z"/><path fill="#6B4BBE" fill-rule="nonzero" d="M380 166c5.523 0 10 4.477 10 10 0 2.279-.76 4.434-2.141 6.184a3 3 0 0 0 4.712 3.715c2.207-2.8 3.429-6.26 3.429-9.899 0-8.837-7.163-16-16-16v-3.131a1 1 0 0 0-1.555-.833l-9.197 6.132a1 1 0 0 0 0 1.664l9.197 6.132a1 1 0 0 0 1.555-.833V166z"/><path fill="#E1DBF2" fill-rule="nonzero" d="M378 188c-5.523 0-10-4.477-10-10 0-2.25.742-4.38 2.09-6.12a3 3 0 0 0-4.742-3.675A15.941 15.941 0 0 0 362 178c0 8.837 7.163 16 16 16v3.131a1 1 0 0 0 1.555.833l9.197-6.132a1 1 0 0 0 0-1.664l-9.197-6.132a1 1 0 0 0-1.555.833V188z"/></g></g></svg>