<?xml version="1.0" encoding="UTF-8"?>
<svg width="38px" height="38px" viewBox="0 0 38 38" version="1.1" xmlns="http://www.w3.org/2000/svg" xmlns:xlink="http://www.w3.org/1999/xlink">
    <!-- Generator: Sketch 58 (84663) - https://sketch.com -->
    <title>Group 3</title>
    <desc>Created with Sketch.</desc>
    <g id="Page-1" stroke="none" stroke-width="1" fill="none" fill-rule="evenodd">
        <g id="1.4.customer.gitlab&gt;manage-purchases-&gt;-form-&gt;-feedback-confirmation" transform="translate(-701.000000, -157.000000)" fill-rule="nonzero">
            <g id="Group-3" transform="translate(701.000000, 157.000000)">
                <path d="M19,38 C8.507,38 0,29.493 0,19 C0,8.507 8.507,0 19,0 C29.493,0 38,8.507 38,19 C38,29.493 29.493,38 19,38 Z M19,34 C27.284,34 34,27.284 34,19 C34,10.716 27.284,4 19,4 C10.716,4 4,10.716 4,19 C4,27.284 10.716,34 19,34 Z" id="Shape" fill="#B3E6C8"></path>
                <path d="M17.5857864,19.8284271 L23.2426407,14.1715729 C24.0236893,13.3905243 25.2900192,13.3905243 26.0710678,14.1715729 C26.8521164,14.9526215 26.8521164,16.2189514 26.0710678,17 L19,24.0710678 C18.2189514,24.8521164 16.9526215,24.8521164 16.1715729,24.0710678 L11.9289322,19.8284271 C11.1478836,19.0473785 11.1478836,17.7810486 11.9289322,17 C12.7099808,16.2189514 13.9763107,16.2189514 14.7573593,17 L17.5857864,19.8284271 L17.5857864,19.8284271 Z" id="Path" fill="#D8D8D8"></path>
                <path d="M17.5857864,19.8284271 L23.2426407,14.1715729 C24.0236893,13.3905243 25.2900192,13.3905243 26.0710678,14.1715729 C26.8521164,14.9526215 26.8521164,16.2189514 26.0710678,17 L19,24.0710678 C18.2189514,24.8521164 16.9526215,24.8521164 16.1715729,24.0710678 L11.9289322,19.8284271 C11.1478836,19.0473785 11.1478836,17.7810486 11.9289322,17 C12.7099808,16.2189514 13.9763107,16.2189514 14.7573593,17 L17.5857864,19.8284271 Z" id="Path" fill="#1AAA55"></path>
            </g>
        </g>
    </g>
</svg>