<?xml version="1.0" encoding="UTF-8"?>
<svg width="236px" height="197px" viewBox="0 0 236 197" version="1.1" xmlns="http://www.w3.org/2000/svg" xmlns:xlink="http://www.w3.org/1999/xlink">
    <!-- Generator: Sketch 58 (84663) - https://sketch.com -->
    <title>illustrations_no-packages</title>
    <desc>Created with Sketch.</desc>
    <defs>
        <polygon id="path-1" points="0.667764706 0.0825 128.495037 0.0825 128.495037 29.3215909 0.667764706 29.3215909"></polygon>
    </defs>
    <g id="Page-1" stroke="none" stroke-width="1" fill="none" fill-rule="evenodd">
        <g id="1.2.customer.gitlab&gt;manage-purchases-&gt;-cancel-modal--illustration" transform="translate(-623.000000, -208.000000)">
            <g id="illustrations_no-packages" transform="translate(581.000000, 210.000000)">
                <path d="M150,93 C156.078824,86.6850574 167.598195,87.9463669 175.599447,87.6322638 C177.838941,81.3131238 182.63914,75.3157821 189.358313,73.7340733 C194.479722,72.4727637 202.480283,72.7868669 203.759599,79.1046078 C203.759599,79.1046078 203.241518,63 219.647435,63 C236.053352,63 232.561482,80.6835183 232.561482,80.6835183 C240.560661,74.6819793 249.838466,74.0516743 255.920744,82.8948326 C257.519889,85.1061468 256.560402,86.0519541 259.119035,86.6850574 C260.399732,87.3160619 263.919924,86.3688555 265.839589,86.6850574 C269.999439,87.3160619 278,93 278,93 L150,93 Z" id="Path" fill="#FAFAFA" fill-rule="nonzero"></path>
                <g id="Clipped">
                    <mask id="mask-2" fill="white">
                        <use xlink:href="#path-1"></use>
                    </mask>
                    <g id="Path"></g>
                    <path d="M1.31159198,67.5030682 C7.38218021,61.3482955 18.8859449,62.5782955 26.8770465,62.2714773 C29.1135064,56.1126136 33.9065118,50.2673864 40.6165813,48.7251136 C45.7317417,47.4964773 53.7207738,47.8026136 54.9990465,53.9601136 C54.9990465,53.9601136 54.4816668,38.2646591 70.8653567,38.2646591 C87.2490465,38.2646591 83.7612176,55.4982955 83.7612176,55.4982955 C91.7495599,49.6503409 101.015485,49.0353409 107.088833,57.6542045 C108.686501,59.80875 107.727624,60.73125 110.28279,61.3482955 C111.561752,61.9632955 115.077865,61.0401136 116.994929,61.3482955 C121.149143,61.9632955 129.138865,67.5030682 129.138865,67.5030682 L1.31159198,67.5030682 Z" id="Path" fill="#FAFAFA" fill-rule="nonzero" mask="url(#mask-2)"></path>
                </g>
                <g id="Group" transform="translate(88.000000, 41.000000)" stroke="#EEEEEE">
                    <path d="M33.6875,0 L51.21875,89.5073529 M0,30.4117647 C9.64778719,43.7461955 37.4937097,80.5606244 47.4375,94" id="Shape" stroke-width="4"></path>
                    <path d="M98.3486495,16.5456873 C98.6757109,25.0848761 55.6343682,76.3145588 55.9050635,90.6838058" id="Path" stroke-width="4.00000002" transform="translate(77.127148, 53.614747) rotate(1.000000) translate(-77.127148, -53.614747) "></path>
                    <path d="M62.5625,41.4705882 C59.4919683,50.8005907 54.8258624,83.0187175 51.5625,92.6176471 L62.5625,41.4705882 Z M0,67.0441176 C14.8162231,70.2200003 36.8856214,90.7368128 51.7649,94" id="Shape" stroke-width="4"></path>
                </g>
                <g id="Group" transform="translate(86.220464, 61.711573) rotate(-16.000000) translate(-86.220464, -61.711573) translate(62.220464, 32.211573)" fill-rule="nonzero">
                    <path d="M30.4015318,50.8659616 C29.8986484,53.2486248 30.762311,55.0036529 32.0067576,55.9547827 C34.324574,57.7298564 26.2294623,59.2754423 27.7332837,56.771123 C28.5410703,55.4280669 28.70111,53.47673 27.358708,51.4479756 C27.2821373,49.591337 29.7924152,49.1116248 30.4015318,50.8659616" id="Path" fill="#FAFAFA"></path>
                    <path d="M46.9823349,23.1643744 C45.5399081,6.95645857 31.735104,-1.85531693 19.2513174,0.529419925 C6.76615105,2.91346555 -2.8376108,16.1961042 1.7697391,31.7985043 C6.37846866,47.4015956 21.5953472,55.9458658 29.5042058,54.4348413 C37.4109949,52.9245079 48.4261413,39.3715991 46.9823349,23.1643744 Z" id="Path" fill="#FAFAFA"></path>
                    <path d="M28.3217164,50.2731333 C27.818833,52.6557965 28.6824956,54.4108246 29.9269422,55.3619544 C32.2447586,57.1370281 24.1496469,58.682614 25.6534682,56.1782947 C26.4612548,54.8352386 26.6212946,52.8839017 25.2788926,50.8551473 C25.2023218,48.9985087 27.7125998,48.5187965 28.3217164,50.2731333" id="Path" fill="#B5A7DD"></path>
                    <path d="M43.6188356,22.715706 L43.6188247,22.7155843 C42.3271095,8.2011491 30.0670639,-1.08091955 17.5202698,1.3158534 C4.97226388,3.71189827 -3.02260294,16.8623734 1.10335303,30.8345737 C3.15503676,37.7806547 7.55925118,43.7342542 13.2195434,47.8433537 C18.202926,51.4610493 23.6434955,53.1955447 27.2565442,52.5052548 C30.868783,51.8152548 35.291059,48.1969672 38.5967931,42.9966467 C42.3519091,37.0893942 44.2615522,29.9304228 43.6188356,22.715706 Z" id="Path" stroke="#B5A7DD" stroke-width="4.00000002" fill="#F4F1FA"></path>
                </g>
                <g id="Group" transform="translate(70.580102, 90.670746) rotate(-18.000000) translate(-70.580102, -90.670746) translate(46.080102, 62.670746)" fill-rule="nonzero">
                    <path d="M37.9069961,48.003486 C38.1068513,50.4783795 39.3887042,51.9328728 40.7943085,52.4924016 C43.4155885,53.5374663 36.4127144,57.4443027 37.0976486,54.5564572 C37.465594,53.0054205 37.0711777,51.0555258 35.274466,49.4741872 C34.6887976,47.6849633 36.8600724,46.4735903 37.9069961,48.003486" id="Path" fill="#F9F9F9"></path>
                    <path d="M38.233324,52.1582744 C45.3571859,48.4117215 51.9682619,32.231067 45.8996084,17.1307366 C39.8309548,2.03248114 24.0820924,-2.39117631 12.8345787,3.52432434 C1.58775429,9.43844175 -3.7510067,24.9502912 5.16760513,38.5504788 C14.0875954,52.1513581 31.108773,55.9041357 38.233324,52.1582744" id="Path" fill="#F9F9F9"></path>
                    <path d="M35.8375172,48.003486 C36.0373724,50.4783795 37.3192253,51.9328728 38.7248296,52.4924016 C41.3461096,53.5374663 34.3432355,57.4443027 35.0281697,54.5564572 C35.3961151,53.0054205 35.0016988,51.0555258 33.2049871,49.4741872 C32.6193187,47.6849633 34.7905935,46.4735903 35.8375172,48.003486" id="Path" fill="#FC6F2A"></path>
                    <path d="M42.5503515,17.6471574 L42.5503761,17.6472185 C37.1154752,4.1256817 22.7083572,-1.19578173 11.4061997,4.74845824 C0.102939742,10.6922521 -3.73634127,25.611025 4.25109407,37.791241 C8.22193212,43.8458316 14.1547828,48.2651082 20.7552859,50.5529025 C26.5655934,52.5668079 32.2685341,52.6451006 35.52268,50.9341748 C38.7770562,49.2226463 41.9588957,44.4715612 43.6154099,38.5301902 C45.497139,31.7810473 45.2520852,24.3697477 42.5503515,17.6471574 L42.5503515,17.6471574 Z" id="Path" stroke="#FC6F2A" stroke-width="4.00000001" fill="#FDE5D8"></path>
                </g>
                <g id="Group" transform="translate(185.109878, 47.095863) rotate(28.000000) translate(-185.109878, -47.095863) translate(160.609878, 16.595863)" fill-rule="nonzero">
                    <path d="M32.1854508,52.2943581 C31.6825674,54.6770212 32.5462299,56.4320493 33.7906766,57.3831791 C36.108493,59.1582528 28.0133813,60.7038387 29.5172027,58.1995194 C30.3249893,56.8564633 30.485029,54.9051265 29.142627,52.8763721 C29.0660563,51.0197335 31.5763342,50.5400212 32.1854508,52.2943581" id="Path" fill="#F9F9F9"></path>
                    <path d="M31.2881247,55.8632377 C39.1949138,54.3529044 50.2100601,40.7999957 48.7662537,24.5927712 C47.3238269,8.38485543 33.519023,-0.426919993 21.0352364,1.95781684 C8.55007023,4.34186244 -1.0536915,17.624501 3.55365836,33.2269009 C8.16238785,48.8299921 23.3792662,57.3742623 31.2881247,55.8632377" id="Path" fill="#F9F9F9"></path>
                    <path d="M31.2602607,53.3380121 C30.7573773,55.7206753 31.6210398,57.4757034 32.8654865,58.4268332 C35.1833028,60.2019069 27.0881912,61.7474928 28.5920125,59.2431735 C29.3997991,57.9001174 29.5598388,55.9487806 28.2174368,53.9200262 C28.1408661,52.0633876 30.651144,51.5836753 31.2602607,53.3380121" id="Path" fill="#FC6D26"></path>
                    <path d="M46.8710676,23.2539146 C45.4286408,7.04599885 31.6238368,-1.76577659 19.1400503,0.618960247 C6.6548841,3.00300585 -2.94887765,16.2856444 1.65847221,31.8880444 C6.26720172,47.4911355 21.4840801,56.0354057 29.3929386,54.5243811 C37.2997276,53.0140478 48.314874,39.4611391 46.8710676,23.2539146 Z" id="Path" stroke="#FC6D26" stroke-width="3.99999998" fill="#FDE5D8"></path>
                </g>
                <g id="Group" transform="translate(96.000000, 0.000000)" fill-rule="nonzero">
                    <path d="M29.6621102,51.7028443 C29.1854151,54.0889048 30.0041014,55.8464352 31.1837422,56.7989212 C33.3808557,58.5765258 25.7073058,60.1243155 27.132814,57.6164255 C27.8985343,56.2714544 28.0502398,54.3173353 26.7777448,52.2856882 C26.7051616,50.4264023 29.0847141,49.9460061 29.6621102,51.7028443" id="Path" fill="#FAFAFA"></path>
                    <path d="M45.872733,23.8433342 C44.4462838,7.54428412 30.7943942,-1.31703839 18.4488892,1.08110741 C6.10201981,3.4785581 -3.39536211,16.8358827 1.16095263,32.5260122 C5.71863178,48.2168369 20.7669544,56.80915 28.5882074,55.2896292 C36.4074138,53.7708036 47.3005466,40.1416891 45.872733,23.8433342 Z" id="Path" fill="#FAFAFA"></path>
                    <path d="M28.2889759,50.3162897 C27.8122807,52.7023502 28.6309671,54.4598806 29.8106079,55.4123666 C32.0077214,57.1899712 24.3341715,58.7377609 25.7596797,56.2298709 C26.5254,54.8848998 26.6771054,52.9307807 25.4046105,50.8991336 C25.3320273,49.0398477 27.7115797,48.5594515 28.2889759,50.3162897" id="Path" fill="#FDB997"></path>
                    <path d="M43.1318057,22.5789584 L43.1317951,22.5788374 C41.8540548,7.97898133 29.7336773,-1.35230314 17.3350517,1.05616147 C4.93142701,3.46463261 -2.97666904,16.6920405 1.10544491,30.7492118 C3.13496154,37.7362745 7.49078761,43.7238953 13.0879917,47.8558119 C18.0133031,51.49173 23.3888813,53.2344458 26.9556884,52.5414829 C30.5232085,51.8485174 34.8951035,48.2110461 38.1638168,42.9821307 C41.8784329,37.0399109 43.7677061,29.8377012 43.1318057,22.5789584 Z" id="Path" stroke="#FDB997" stroke-width="4" fill="#FDE5D8"></path>
                </g>
                <g id="Group" transform="translate(133.000000, 34.000000)" fill-rule="nonzero">
                    <path d="M21.3403826,51.7139165 C20.0283826,53.7803047 20.2287304,55.7342459 21.0697739,57.0662576 C22.635687,59.5505047 14.4429913,58.1622694 16.7442087,56.3325753 C17.9789913,55.3524812 18.8158609,53.5741518 18.2607304,51.1926341 C18.8402087,49.4191635 21.3800348,49.8495165 21.3403826,51.7139165" id="Path" fill="#F9F9F9"></path>
                    <path d="M19.2381217,54.7560953 C27.2409043,56.1130953 42.411687,47.2290835 46.7421217,31.4712247 C51.0725565,15.7133659 41.1226435,2.57024824 28.487513,0.427507059 C15.8509913,-1.71315176 2.11116522,7.41380118 0.983513043,23.71446 C-0.144834783,40.0158129 11.2346435,53.3997894 19.2381217,54.7560953" id="Path" fill="#F9F9F9"></path>
                    <path d="M19.2534261,50.3256812 C17.9414261,52.3920694 18.1417739,54.3460106 18.9828174,55.6780224 C20.5487304,58.1622694 12.3560348,56.7740341 14.6572522,54.94434 C15.8920348,53.9642459 16.7289043,52.1859165 16.1737739,49.8043988 C16.7532522,48.0309282 19.2930783,48.4612812 19.2534261,50.3256812" id="Path" fill="#B5A7DD"></path>
                    <path d="M43.3133897,29.7158795 C47.1914175,15.6042675 38.8661381,2.56140315 26.1676774,0.40792203 C13.4678988,-1.74345267 1.29442522,7.82379329 0.284554414,22.4218759 C-0.217739221,29.6785618 1.85223837,36.8275081 5.75764278,42.6822517 C9.19575374,47.8364574 13.7277288,51.3795939 17.3842627,51.9992468 C21.04025,52.619178 26.4905062,50.7680553 31.4416239,47.0358297 C37.065645,42.7963593 41.3856595,36.7306254 43.3133897,29.7158795 Z" id="Path" stroke="#B5A7DD" stroke-width="4" fill="#F4F1FA"></path>
                </g>
                <ellipse id="Oval" fill="#F9F9F9" fill-rule="nonzero" cx="144.5" cy="192" rx="80.5" ry="3"></ellipse>
                <g id="Group" transform="translate(101.000000, 112.000000)" fill-rule="nonzero">
                    <path d="M45.8368986,8.18900014 C42.8226056,11.15845 39.8743227,14.1797217 36.994031,17.2506134 C36.178948,18.1196336 36.1000171,19.1459288 36.6045426,19.5604924 C37.157239,20.0146376 38.3450809,19.7872628 39.1887792,18.8877337 C42.0135041,15.8760858 44.9049403,12.9130709 47.8611691,10.0008215 C48.719735,9.15502836 48.8578701,8.09304602 48.3764799,7.63930876 C47.8703053,7.16221078 46.7116444,7.32726781 45.8368986,8.18900014 Z" id="Path" stroke="#E1DCF1" stroke-width="3" fill="#F4F1FA"></path>
                    <path d="M36.3795029,20.2747447 C37.6081906,20.2246001 38.5194708,19.4922998 38.5147307,18.7978289 C38.5101865,18.1373621 37.6369753,17.5138168 36.4310144,17.5630339 C32.2786288,17.7324987 28.1331936,17.8200964 23.9975811,17.825882 C22.7623426,17.8276101 21.7854485,18.5386879 21.7416427,19.2514278 C21.7016549,19.9020479 22.5083109,20.5444248 23.7016546,20.5427586 C27.918621,20.5368559 32.1455592,20.447538 36.3795029,20.2747447 L36.3795029,20.2747447 Z" id="Path" stroke="#E1DCF1" stroke-width="3" fill="#F4F1FA"></path>
                    <path d="M4.66613706,44.0050095 C3.22543179,40.9246023 4.55667816,37.2655258 7.6530312,35.8259698 L78.104171,3.07183742 C81.1944926,1.63508571 84.8677701,2.96786305 86.3083207,6.04793889 L95.2910386,25.2541087 C96.7317442,28.3345158 95.4004978,31.9935923 92.3041447,33.4331483 L21.8530048,66.1872807 C18.7626835,67.6240324 15.0894057,66.2912551 13.6488553,63.2111793 L4.66613706,44.0050095 Z" id="Path" fill="#FAFAFA"></path>
                    <path d="M38.8703331,13.2159152 C39.5184651,13.4350608 40.2220628,13.0888623 40.4418625,12.4426592 C40.4549408,12.4042094 40.4661102,12.3651404 40.4753301,12.3255941 L42.7517882,2.56133348 C42.9536784,1.69537951 42.4640211,0.817912475 41.6195648,0.532385952 C40.9714328,0.313240383 40.267835,0.659438872 40.0480353,1.30564192 C40.034957,1.34409165 40.0237876,1.38316075 40.0145677,1.422707 L37.7381096,11.1869676 C37.5362194,12.0529216 38.0258766,12.9303887 38.8703331,13.2159152 L38.8703331,13.2159152 Z M34.0611903,15.9431362 C34.4211545,15.3627923 34.2410972,14.6013904 33.6590209,14.2424974 C33.6243868,14.2211429 33.588718,14.2015036 33.5521443,14.1836507 L24.5218327,9.77565886 C23.7209698,9.38473136 22.7532911,9.66303159 22.2842907,10.4191663 C21.9243265,10.9995102 22.1043839,11.7609121 22.6864601,12.119805 C22.7210942,12.1411595 22.756763,12.1607989 22.7933367,12.1786517 L31.8236484,16.5866435 C32.6245113,16.977571 33.5921899,16.6992708 34.0611903,15.9431362 Z" id="Shape" stroke="#E1DCF1" stroke-width="3" fill="#F4F1FA"></path>
                    <path d="M1.10907345,41.3761233 L10.0917917,60.582293 C11.2122716,62.9780184 14.069609,64.0145998 16.473414,62.8970231 L86.9245536,30.1428907 C89.3322261,29.023516 90.3697467,26.1791695 89.2481019,23.780954 L80.265384,4.57478427 C79.1449042,2.17905896 76.2875664,1.14247753 73.8837614,2.26005419 L3.43262198,35.0141866 C1.02494947,36.1335613 -0.0125710149,38.9779078 1.10907345,41.3761233 Z" id="Path" stroke="#EEEEEE" stroke-width="4" fill="#FFFFFF"></path>
                    <g transform="translate(34.285714, 14.357143)" fill="#F4F1FA">
                        <path d="M16.9860364,30.7033794 C18.5924641,30.0618365 19.3731054,28.2433722 18.7296475,26.6417256 C18.6995438,26.5667935 18.6665384,26.4930529 18.6307059,26.4206697 L10.43688,9.86881012 C9.55114279,8.07958517 7.43360702,7.27123079 5.57584786,8.01314531 C3.96942021,8.65468808 3.18877893,10.4731524 3.83223675,12.0747991 C3.8623405,12.1497311 3.89534585,12.2234718 3.9311784,12.295855 L12.1250043,28.8477145 C13.0107415,30.6369395 15.1282773,31.4452939 16.9860364,30.7033794 Z" id="Path" stroke="#E1DCF1"></path>
                        <ellipse id="Oval" stroke="#6B4FBB" stroke-linecap="round" cx="3.77142857" cy="3.76020408" rx="3.77142857" ry="3.76020408"></ellipse>
                    </g>
                </g>
            </g>
        </g>
    </g>
</svg>