<?xml version="1.0" encoding="UTF-8"?>
<svg width="204px" height="171px" viewBox="0 0 204 171" version="1.1" xmlns="http://www.w3.org/2000/svg" xmlns:xlink="http://www.w3.org/1999/xlink">
    <!-- Generator: Sketch 58 (84663) - https://sketch.com -->
    <title>illustrations_no-packages</title>
    <desc>Created with Sketch.</desc>
    <defs>
        <polygon id="path-1" points="0.576487516 0.0712230216 110.930968 0.0712230216 110.930968 25.3136037 0.576487516 25.3136037"></polygon>
    </defs>
    <g id="Page-1" stroke="none" stroke-width="1" fill="none" fill-rule="evenodd">
        <g id="1.2.customer.gitlab&gt;manage-purchases-&gt;-cancel-modal--illustration" transform="translate(-636.000000, -212.000000)">
            <g id="illustrations_no-packages" transform="translate(600.000000, 214.000000)">
                <path d="M129.496403,80.2877698 C134.744308,74.8360207 144.68909,75.9249211 151.596645,75.6537529 C153.530021,70.1983802 157.674078,65.0208191 163.474802,63.6553151 C167.896163,62.5664147 174.803122,62.8375829 175.907568,68.2917477 C175.907568,68.2917477 175.460303,54.3884892 189.623685,54.3884892 C203.787066,54.3884892 200.772502,69.654836 200.772502,69.654836 C207.678269,64.4736512 215.687885,63.929503 220.938772,71.5638842 C222.319329,73.4729325 221.490995,74.2894568 223.699886,74.8360207 C224.805524,75.3807729 227.844539,74.5630407 229.501803,74.8360207 C233.093041,75.3807729 240,80.2877698 240,80.2877698 L129.496403,80.2877698 Z" id="Path" fill="#FAFAFA" fill-rule="nonzero"></path>
                <g id="Clipped">
                    <mask id="mask-2" fill="white">
                        <use xlink:href="#path-1"></use>
                    </mask>
                    <g id="Path"></g>
                    <path d="M1.13230962,58.2760301 C6.37310522,52.9625572 16.3044129,54.0244277 23.2032056,53.7595487 C25.1339624,48.4425441 29.2718087,43.3963048 35.0646745,42.0648463 C39.4806403,41.004153 46.3776464,41.2684434 47.4811912,46.5842708 C47.4811912,46.5842708 47.0345325,33.0342381 61.1787252,33.0342381 C75.3229179,33.0342381 72.3118426,47.9121975 72.3118426,47.9121975 C79.2082531,42.8636037 87.207613,42.3326684 92.4507908,49.773414 C93.8300729,51.6334532 93.0022654,52.4298561 95.2081639,52.9625572 C96.3123042,53.4934925 99.3477969,52.696501 101.002816,52.9625572 C104.589188,53.4934925 111.48679,58.2760301 111.48679,58.2760301 L1.13230962,58.2760301 Z" id="Path" fill="#FAFAFA" fill-rule="nonzero" mask="url(#mask-2)"></path>
                </g>
                <g id="Group" transform="translate(75.971223, 35.395683)" stroke="#EEEEEE">
                    <path d="M29.0827338,0 L44.2176259,77.2725349 M0,26.2547609 C8.32902491,37.7664997 32.3686702,69.5487405 40.9532374,81.1510791" id="Shape" stroke-width="4"></path>
                    <path d="M84.9053089,14.2840466 C85.1876641,21.6560082 48.0296704,65.8830724 48.2633642,78.2881776" id="Path" stroke-width="4.00000002" transform="translate(66.584588, 46.286112) rotate(1.000000) translate(-66.584588, -46.286112) "></path>
                    <path d="M54.0107914,35.8019467 C51.3599726,43.8566251 47.3316798,71.6708352 44.5143885,79.9576809 L54.0107914,35.8019467 Z M0,57.8798138 C12.790984,60.621583 31.843702,78.3339391 44.6891223,81.1510791" id="Shape" stroke-width="4"></path>
                </g>
                <g id="Group" transform="translate(74.434933, 53.276178) rotate(-16.000000) translate(-74.434933, -53.276178) translate(53.715509, 27.808552)" fill-rule="nonzero">
                    <path d="M26.2459267,43.9130604 C25.8117828,45.9700358 26.5573908,47.4851679 27.6317332,48.3062872 C29.6327258,49.8387249 22.6441401,51.1730438 23.9424032,49.0110415 C24.6397729,47.8515685 24.7779367,46.1669612 23.6190285,44.4155185 C23.5529242,42.8126651 25.7200707,42.398525 26.2459267,43.9130604" id="Path" fill="#FAFAFA"></path>
                    <path d="M40.5602891,19.9980211 C39.3150285,6.00557575 27.3972121,-1.60171246 16.6198423,0.457053172 C5.84128148,2.51522206 -2.44973594,13.9822483 1.52783232,27.4519462 C5.50659165,40.9222408 18.6434652,48.2985892 25.4712568,46.9941076 C32.2972618,45.6902227 41.8067407,33.9898697 40.5602891,19.9980211 Z" id="Path" fill="#FAFAFA"></path>
                    <path d="M24.4504026,43.4012662 C24.0162587,45.4582416 24.7618667,46.9733737 25.8362091,47.794493 C27.8372017,49.3269307 20.848616,50.6612495 22.1468791,48.4992473 C22.8442488,47.3397743 22.9824126,45.655167 21.8235044,43.9037243 C21.7574001,42.3008708 23.9245466,41.8867307 24.4504026,43.4012662" id="Path" fill="#B5A7DD"></path>
                    <path d="M37.6565487,19.6106814 L37.6565393,19.6105763 C36.5413895,7.08012872 25.9571774,-0.933167955 15.1254128,1.13598855 C4.29260191,3.20451649 -2.60944139,14.5574446 0.952534986,26.6197759 C2.72377274,32.6163925 6.52597224,37.7561907 11.4125555,41.3036147 C15.7147562,44.4268051 20.4116508,45.9242113 23.5308295,45.3282775 C26.649309,44.732594 30.4671013,41.6088925 33.3209725,37.1194072 C36.5627992,32.0196209 38.211412,25.8392139 37.6565487,19.6106814 Z" id="Path" stroke="#B5A7DD" stroke-width="4.00000002" fill="#F4F1FA"></path>
                </g>
                <g id="Group" transform="translate(60.932462, 78.276903) rotate(-18.000000) translate(-60.932462, -78.276903) translate(39.781383, 54.104241)" fill-rule="nonzero">
                    <path d="M32.7254643,41.4418584 C32.8980012,43.5784572 34.0046367,44.8341348 35.2181081,45.3171813 C37.4810836,46.2193953 31.4354369,49.5922038 32.026747,47.0990997 C32.3443977,45.7600753 32.0038944,44.0767129 30.4527764,42.7115286 C29.9471634,41.1668748 31.8216452,40.1210852 32.7254643,41.4418584" id="Path" fill="#F9F9F9"></path>
                    <path d="M33.0071862,45.0287261 C39.1572828,41.7942919 44.8646866,27.8253816 39.6255612,14.7891252 C34.3864358,1.75465998 20.7902956,-2.06432487 11.0802118,3.04258217 C1.37072313,8.14829504 -3.23827917,21.5398197 4.46124184,33.2809889 C12.1619529,45.0227552 26.8564947,48.2625632 33.0071862,45.0287261" id="Path" fill="#F9F9F9"></path>
                    <path d="M30.9388638,41.4418584 C31.1114007,43.5784572 32.2180362,44.8341348 33.4315076,45.3171813 C35.6944831,46.2193953 29.6488364,49.5922038 30.2401465,47.0990997 C30.5577972,45.7600753 30.2172939,44.0767129 28.6661759,42.7115286 C28.1605629,41.1668748 30.0350447,40.1210852 30.9388638,41.4418584" id="Path" fill="#FC6F2A"></path>
                    <path d="M36.7341164,15.234956 L36.7341376,15.2350088 C32.0421369,3.5617396 19.6043372,-1.03232955 9.8470789,4.09938841 C0.0888688419,9.23072126 -3.22561836,22.1102374 3.67000927,32.6255318 C7.09807089,37.8525165 12.2199564,41.6677193 17.9182325,43.6427935 C22.9343253,45.3814169 27.8577273,45.4490077 30.6670619,43.9719494 C33.4765952,42.4943709 36.2235071,38.3927147 37.6535913,33.2634736 C39.2781056,27.4368754 39.0665484,21.0386311 36.7341164,15.234956 L36.7341164,15.234956 Z" id="Path" stroke="#FC6F2A" stroke-width="4.00000001" fill="#FDE5D8"></path>
                </g>
                <g id="Group" transform="translate(159.807089, 40.658299) rotate(28.000000) translate(-159.807089, -40.658299) translate(138.656010, 14.327364)" fill-rule="nonzero">
                    <path d="M27.7860007,45.1462084 C27.3518568,47.2031838 28.0974647,48.7183159 29.1718071,49.5394352 C31.1727997,51.0718729 24.1842141,52.4061917 25.4824771,50.2441894 C26.1798468,49.0847165 26.3180106,47.4001092 25.1591024,45.6486666 C25.0929982,44.0458131 27.2601446,43.631673 27.7860007,45.1462084" id="Path" fill="#F9F9F9"></path>
                    <path d="M27.0113307,48.2272556 C33.8373356,46.9233707 43.3468145,35.2230178 42.1003629,21.2311693 C40.8551024,7.23872411 28.937286,-0.368564023 18.1599163,1.69020159 C7.3813556,3.74837046 -0.909661724,15.2153966 3.0679065,28.6850943 C7.04666577,42.1553889 20.1835392,49.5317372 27.0113307,48.2272556" id="Path" fill="#F9F9F9"></path>
                    <path d="M26.9872754,46.0472047 C26.5531315,48.1041801 27.2987394,49.6193123 28.3730818,50.4404315 C30.3740744,51.9728692 23.3854888,53.307188 24.6837518,51.1451858 C25.3811215,49.9857129 25.5192853,48.3011055 24.3603771,46.5496629 C24.2942729,44.9468094 26.4614193,44.5326693 26.9872754,46.0472047" id="Path" fill="#FC6D26"></path>
                    <path d="M40.464231,20.0753219 C39.2189704,6.0828767 27.3011541,-1.52441144 16.5237844,0.53435417 C5.74522368,2.59252304 -2.54579365,14.0595491 1.43177457,27.5292469 C5.41053386,40.9995415 18.5474072,48.3758898 25.3751988,47.0714082 C32.2012037,45.7675233 41.7106826,34.0671704 40.464231,20.0753219 Z" id="Path" stroke="#FC6D26" stroke-width="3.99999998" fill="#FDE5D8"></path>
                </g>
                <g id="Group" transform="translate(82.877698, 0.000000)" fill-rule="nonzero">
                    <path d="M25.6075772,44.635549 C25.1960418,46.6954574 25.9028214,48.2127498 26.9212163,49.0350399 C28.8180049,50.5696626 22.1933576,51.9058839 23.4240121,49.740799 C24.0850656,48.5796729 24.2160343,46.8926636 23.1174775,45.1387236 C23.0548158,43.5335848 25.1091057,43.1188542 25.6075772,44.635549" id="Path" fill="#FAFAFA"></path>
                    <path d="M39.6023595,20.5841734 C38.3708925,6.51305104 26.5850885,-1.13701156 15.9270986,0.93333014 C5.26793077,3.00307174 -2.93124787,14.534575 1.00226127,28.0800105 C4.9369483,41.6260462 17.928306,49.0438705 24.6804668,47.732054 C31.4308609,46.4208376 40.8350043,34.6546956 39.6023595,20.5841734 Z" id="Path" fill="#FAFAFA"></path>
                    <path d="M24.4221375,43.4385235 C24.0106021,45.4984318 24.7173817,47.0157242 25.7357766,47.8380143 C27.6325652,49.372637 21.0079178,50.7088584 22.2385724,48.5437734 C22.8996259,47.3826473 23.0305946,45.695638 21.9320378,43.9416981 C21.8693761,42.3365592 23.923666,41.9218286 24.4221375,43.4385235" id="Path" fill="#FDB997"></path>
                    <path d="M37.2360912,19.492626 L37.2360821,19.4925215 C36.132997,6.88832921 25.6693617,-1.16745595 14.9655123,0.911794076 C4.25734706,2.99104974 -2.56978622,14.4103947 0.954340928,26.5460821 C2.70644161,32.5780787 6.466867,37.7472478 11.2989857,41.31437 C15.5510531,44.4532921 20.1918399,45.9577949 23.2710979,45.3595536 C26.3509714,44.76131 30.1252692,41.621047 32.94718,37.1068754 C36.1540428,31.9769015 37.78507,25.7591665 37.2360912,19.492626 Z" id="Path" stroke="#FDB997" stroke-width="4" fill="#FDE5D8"></path>
                </g>
                <g id="Group" transform="translate(114.820144, 29.352518)" fill-rule="nonzero">
                    <path d="M18.4233519,44.6451077 C17.29069,46.42904 17.4636522,48.1158957 18.1897329,49.2658339 C19.5416003,51.4105077 12.4687695,50.2120311 14.455432,48.6324391 C15.5214313,47.7863147 16.2439087,46.2510663 15.7646594,44.1950798 C16.2649284,42.6640261 18.457584,43.0355538 18.4233519,44.6451077" id="Path" fill="#F9F9F9"></path>
                    <path d="M16.6084504,47.2714492 C23.5173275,48.44296 36.614406,40.7733095 40.3529109,27.1694026 C44.0914157,13.5654957 35.5015627,2.21891934 24.5935364,0.369070842 C13.684309,-1.47897994 1.82258868,6.40040389 0.849076009,20.4729151 C-0.125037222,34.5460256 9.69897279,46.1005376 16.6084504,47.2714492" id="Path" fill="#F9F9F9"></path>
                    <path d="M16.6216628,43.4466312 C15.4890009,45.2305635 15.6619631,46.9174192 16.3880438,48.0673574 C17.7399112,50.2120311 10.6670804,49.0135546 12.6537429,47.4339626 C13.7197423,46.5878382 14.4422196,45.0525898 13.9629703,42.9966033 C14.4632393,41.4655496 16.6558949,41.8370773 16.6216628,43.4466312" id="Path" fill="#B5A7DD"></path>
                    <path d="M37.3928544,25.6539967 C40.7407921,13.4713101 33.5535005,2.21128329 22.5908007,0.352162903 C11.626963,-1.50513899 1.1174894,6.75435392 0.245658487,19.3570151 C-0.187976306,25.6217799 1.59905471,31.7935321 4.97062686,36.8479871 C7.93878021,41.2976611 11.8512766,44.3564839 15.0079966,44.8914361 C18.1642446,45.4266285 22.8695018,43.828537 27.1438479,40.6064716 C31.999118,36.9464973 35.7286269,31.7098924 37.3928544,25.6539967 Z" id="Path" stroke="#B5A7DD" stroke-width="4" fill="#F4F1FA"></path>
                </g>
                <ellipse id="Oval" fill="#F9F9F9" fill-rule="nonzero" cx="124.748201" cy="165.755396" rx="69.4964029" ry="2.58992806"></ellipse>
                <g id="Group" transform="translate(87.194245, 96.690647)" fill-rule="nonzero">
                    <path d="M39.5714232,7.06964041 C36.9691559,9.63319423 34.4238757,12.2414863 31.937293,14.8926159 C31.2336242,15.6428492 31.1654824,16.5288594 31.601044,16.886756 C32.0781919,17.2788238 33.103667,17.082529 33.8320396,16.3059572 C36.270651,13.7059733 38.7668549,11.1479749 41.3189949,8.63380275 C42.0602029,7.9036216 42.1794562,6.98680232 41.7638675,6.5950867 C41.3268823,6.18320355 40.3265995,6.32569883 39.5714232,7.06964041 Z" id="Path" stroke="#E1DCF1" stroke-width="3" fill="#F4F1FA"></path>
                    <path d="M31.4067651,17.5033767 C32.4675026,17.4600864 33.2542194,16.8278847 33.2501273,16.2283415 C33.2462041,15.6581543 32.4923527,15.1198419 31.4512354,15.1623314 C27.8664422,15.308632 24.2876492,15.3842559 20.7173362,15.3892507 C19.6509432,15.3907425 18.8075814,16.0046227 18.7697635,16.6199376 C18.7352416,17.1816241 19.4316353,17.7361941 20.4618601,17.7347556 C24.1024066,17.7296598 27.7515619,17.6525508 31.4067651,17.5033767 L31.4067651,17.5033767 Z" id="Path" stroke="#E1DCF1" stroke-width="3" fill="#F4F1FA"></path>
                    <path d="M4.02831976,37.9899363 C2.78454543,35.3305919 3.93382287,32.1716769 6.60693341,30.9288948 L67.4280613,2.65194597 C70.0959648,1.41158479 73.2671396,2.56218392 74.5107804,5.22124221 L82.2656449,21.8021082 C83.5094195,24.4614525 82.360142,27.6203675 79.6870314,28.8631496 L18.8659035,57.1400984 C16.1980001,58.3804596 13.0268251,57.2298605 11.7831845,54.5708022 L4.02831976,37.9899363 Z" id="Path" fill="#FAFAFA"></path>
                    <path d="M33.5571221,11.4094232 C34.1166605,11.5986136 34.724083,11.2997372 34.9138382,10.741864 C34.9251288,10.70867 34.9347714,10.6749413 34.942731,10.6408006 L36.9080186,2.21122315 C37.0823123,1.46363699 36.6595866,0.706111489 35.9305595,0.459613771 C35.3710211,0.270423352 34.7635986,0.569299746 34.5738434,1.12717288 C34.5625528,1.16036689 34.5529102,1.19409561 34.5449505,1.22823626 L32.5796629,9.65781379 C32.4053693,10.4053999 32.8280949,11.1629255 33.5571221,11.4094232 L33.5571221,11.4094232 Z M29.4053442,13.7638586 C29.7161046,13.2628423 29.5606594,12.6055169 29.0581476,12.2956813 C29.0282476,12.2772457 28.9974544,12.2602908 28.96588,12.2448783 L21.1699275,8.43941772 C20.478535,8.10192636 19.643129,8.34218554 19.2382366,8.99496372 C18.9274761,9.49598002 19.0829213,10.1533054 19.5854332,10.463141 C19.6153332,10.4815765 19.6461264,10.4985314 19.6777008,10.5139439 L27.4736533,14.3194045 C28.1650457,14.6568959 29.0004517,14.4166367 29.4053442,13.7638586 Z" id="Shape" stroke="#E1DCF1" stroke-width="3" fill="#F4F1FA"></path>
                    <path d="M0.957473481,35.7203942 L8.7123382,52.3012602 C9.67965893,54.3695123 12.146425,55.2644027 14.2216524,54.2995883 L75.0427801,26.0226394 C77.1213462,25.0562728 78.0170475,22.6007218 77.0487211,20.53032 L69.2938567,3.94945405 C68.326536,1.88120198 65.8597696,0.986311533 63.7845422,1.95112592 L2.96341466,30.2280748 C0.884848459,31.1944414 -0.0108526747,33.6499924 0.957473481,35.7203942 Z" id="Path" stroke="#EEEEEE" stroke-width="4" fill="#FFFFFF"></path>
                    <g transform="translate(29.599178, 12.394656)" fill="#F4F1FA">
                        <path d="M14.6642041,26.5065146 C16.0510482,25.9526646 16.7249831,24.3827674 16.1694799,23.0000508 C16.143491,22.9353613 16.1149972,22.8717003 16.0840626,22.8092113 L9.01025612,8.51983608 C8.2455909,6.97518144 6.41750246,6.27732154 4.81368161,6.91782329 C3.42683759,7.47167316 2.75290267,9.04157046 3.30840583,10.424287 C3.33439468,10.4889765 3.3628885,10.5526375 3.39382308,10.6151266 L10.4676296,24.9045017 C11.2322948,26.4491564 13.0603832,27.1470163 14.6642041,26.5065146 Z" id="Path" stroke="#E1DCF1"></path>
                        <ellipse id="Oval" stroke="#6B4FBB" stroke-linecap="round" cx="3.25590956" cy="3.24621935" rx="3.25590956" ry="3.24621935"></ellipse>
                    </g>
                </g>
            </g>
        </g>
    </g>
</svg>