<?xml version="1.0" encoding="UTF-8"?>
<svg width="79px" height="80px" viewBox="0 0 79 80" version="1.1" xmlns="http://www.w3.org/2000/svg" xmlns:xlink="http://www.w3.org/1999/xlink">
    <!-- Generator: Sketch 58 (84663) - https://sketch.com -->
    <title>illustrations_analytics_no-access</title>
    <desc>Created with Sketch.</desc>
    <g id="Page-1" stroke="none" stroke-width="1" fill="none" fill-rule="evenodd">
        <g id="1.5.customer.gitlab&gt;manage-purchases&gt;-Unsubscirbed--emptyStates" transform="translate(-672.000000, -143.000000)" fill-rule="nonzero">
            <g id="empty-state" transform="translate(532.000000, 143.000000)">
                <g id="illustrations_analytics_no-access" transform="translate(140.000000, 0.000000)">
                    <g id="Group" fill="#F0EDF9">
                        <circle id="Oval" opacity="0.5" cx="39.0243902" cy="39.0243902" r="39.0243902"></circle>
                        <circle id="Oval" cx="39.0243902" cy="39.0243902" r="31.2195122"></circle>
                    </g>
                    <circle id="Oval" fill="#FFFFFF" cx="39.0243902" cy="38.3739837" r="22.1138211"></circle>
                    <g id="Group" transform="translate(15.609756, 15.609756)">
                        <path d="M48.1463415,31.6396748 C50.6608086,31.6396748 52.699187,33.6780532 52.699187,36.1925203 L52.699187,62.859187 C52.699187,65.3736541 50.6608086,67.4120325 48.1463415,67.4120325 C45.6318743,67.4120325 43.5934959,65.3736541 43.5934959,62.859187 L43.5934959,36.1925203 C43.5934959,33.6780532 45.6318743,31.6396748 48.1463415,31.6396748 Z" id="Rectangle" fill="#AB9AD9" transform="translate(48.146341, 49.525854) rotate(-45.000000) translate(-48.146341, -49.525854) "></path>
                        <path d="M39.9707317,39.9713821 C30.8279675,49.1154472 16.0019512,49.1154472 6.85723577,39.9713821 C-2.28552846,30.8266667 -2.28552846,16.0026016 6.85723577,6.85788618 C16.0019512,-2.28617886 30.8279675,-2.28617886 39.9707317,6.85788618 C49.1154472,16.0026016 49.1154472,30.8266667 39.9707317,39.9713821 Z M35.5603252,11.2689431 C28.8533333,4.56 17.975935,4.56 11.2676423,11.2689431 C4.56065041,17.9752846 4.56065041,28.8526829 11.2676423,35.5609756 C17.975935,42.2692683 28.8533333,42.2692683 35.561626,35.5609756 C42.2699187,28.8539837 42.2699187,17.9765854 35.5603252,11.2682927 L35.5603252,11.2689431 Z" id="Shape" fill="#6B4FBB"></path>
                        <path d="M25.9147967,23.44 L28.8091057,20.5456911 C29.136758,20.2181461 29.3202993,19.7734851 29.3190845,19.3101923 C29.3178577,18.8468995 29.1319756,18.403212 28.8026016,18.0773984 C28.4768742,17.7478638 28.0331548,17.5618703 27.5698084,17.5606433 C27.1064619,17.5594284 26.6617685,17.7430809 26.3343089,18.0708943 L23.44,20.9652033 L20.5456911,18.0708943 C20.2181461,17.743242 19.7734851,17.5597007 19.3101923,17.5609215 C18.8468995,17.5621423 18.403212,17.7480244 18.0773984,18.0773984 C17.7480636,18.4031005 17.5621974,18.8466804 17.5609705,19.3098669 C17.5597557,19.7730535 17.7432811,20.217607 18.0708943,20.5450407 L20.9652033,23.4393496 L18.0708943,26.3343089 C17.743442,26.6618278 17.5600278,27.106349 17.5612485,27.5694819 C17.5624691,28.0326149 17.7482241,28.476163 18.0773984,28.8019512 C18.4030138,29.1313723 18.846545,29.3173559 19.3097317,29.3187576 C19.7729183,29.3200417 20.2175206,29.1366332 20.5450407,28.8091057 L23.4393496,25.9147967 L26.3343089,28.8091057 C26.6618278,29.136558 27.106349,29.3199722 27.5694819,29.3187576 C28.0326149,29.3175309 28.476163,29.1317759 28.8019512,28.8026016 C29.1315722,28.476961 29.317683,28.0332902 29.3190845,27.5699437 C29.320369,27.1065972 29.1368333,26.661855 28.8091057,26.3343089 L25.9147967,23.44" id="Path" fill="#FB722E"></path>
                    </g>
                </g>
            </g>
        </g>
    </g>
</svg>