<svg xmlns="http://www.w3.org/2000/svg" width="360" height="200" viewBox="0 0 360 200">
  <g fill="none" fill-rule="evenodd" transform="translate(3 11)">
    <rect width="110" height="168" x="6" y="8" fill="#000000" fill-opacity=".02" rx="10"/>
    <g transform="translate(0 2)">
      <rect width="110" height="168" fill="#FFFFFF" rx="10"/>
      <path fill="#EEEEEE" fill-rule="nonzero" d="M2,10.0060501 L2,157.99395 C2,162.420583 5.5808317,166 10.004525,166 L99.995475,166 C104.41397,166 108,162.414302 108,157.99395 L108,10.0060501 C108,5.57941739 104.419168,2 99.995475,2 L10.004525,2 C5.58603016,2 2,5.58569804 2,10.0060501 Z M-2,10.0060501 C-2,3.37647611 3.37697409,-2 10.004525,-2 L99.995475,-2 C106.627954,-2 112,3.36992458 112,10.0060501 L112,157.99395 C112,164.623524 106.623026,170 99.995475,170 L10.004525,170 C3.37204636,170 -2,164.630075 -2,157.99395 L-2,10.0060501 Z"/>
      <g transform="translate(19 80)">
        <rect width="24" height="4" y="10" fill="#F0EDF8" rx="2"/>
        <rect width="14" height="4" x="5" fill="#6B4FBB" rx="2"/>
      </g>
      <g transform="translate(67 80)">
        <rect width="24" height="4" y="10" fill="#F0EDF8" rx="2"/>
        <rect width="14" height="4" x="5" fill="#6B4FBB" rx="2"/>
      </g>
      <g transform="translate(36 40)">
        <rect width="22" height="4" x="8" fill="#FEE1D3" rx="2"/>
        <rect width="38" height="4" y="12" fill="#FB722E" rx="2"/>
      </g>
      <rect width="106" height="4" x="2" y="12" fill="#EEEEEE"/>
      <path fill="#333333" d="M38.048,127.792 C38.84,127.792 39.728,127.36 40.328,126.28 C40.016,123.88 39.032,123.112 37.952,123.112 C36.92,123.112 36.032,123.856 36.032,125.584 C36.032,127.192 36.896,127.792 38.048,127.792 Z M37.496,136.288 C35.48,136.288 33.992,135.424 33.032,134.464 L34.904,132.352 C35.408,132.928 36.368,133.432 37.256,133.432 C38.96,133.432 40.28,132.232 40.4,128.68 C39.608,129.688 38.288,130.288 37.352,130.288 C34.76,130.288 32.816,128.8 32.816,125.584 C32.816,122.416 35.12,120.472 37.88,120.472 C40.832,120.472 43.664,122.68 43.664,128.032 C43.664,133.72 40.688,136.288 37.496,136.288 Z M50.984,136.288 C47.936,136.288 45.68,134.584 45.68,132.112 C45.68,130.264 46.832,129.136 48.272,128.368 L48.272,128.272 C47.096,127.384 46.232,126.28 46.232,124.672 C46.232,122.08 48.272,120.472 51.104,120.472 C53.888,120.472 55.736,122.128 55.736,124.648 C55.736,126.112 54.8,127.288 53.744,127.984 L53.744,128.08 C55.208,128.872 56.384,130.048 56.384,132.064 C56.384,134.464 54.224,136.288 50.984,136.288 Z M51.944,127.12 C52.544,126.424 52.88,125.68 52.88,124.888 C52.88,123.712 52.184,122.92 51.032,122.92 C50.096,122.92 49.328,123.496 49.328,124.672 C49.328,125.92 50.384,126.52 51.944,127.12 Z M51.056,133.84 C52.232,133.84 53.096,133.216 53.096,131.944 C53.096,130.6 51.8,130.096 49.88,129.28 C49.208,129.904 48.704,130.768 48.704,131.704 C48.704,133.048 49.784,133.84 51.056,133.84 Z M61.856,130 C59.6,130 57.968,128.152 57.968,125.008 C57.968,121.888 59.6,120.064 61.856,120.064 C64.112,120.064 65.768,121.888 65.768,125.008 C65.768,128.152 64.112,130 61.856,130 Z M61.856,128.032 C62.648,128.032 63.296,127.24 63.296,125.008 C63.296,122.776 62.648,122.032 61.856,122.032 C61.064,122.032 60.416,122.776 60.416,125.008 C60.416,127.24 61.064,128.032 61.856,128.032 Z M62.384,136.288 L70.832,120.064 L72.872,120.064 L64.424,136.288 L62.384,136.288 Z M73.4,136.288 C71.144,136.288 69.512,134.44 69.512,131.296 C69.512,128.176 71.144,126.352 73.4,126.352 C75.656,126.352 77.312,128.176 77.312,131.296 C77.312,134.44 75.656,136.288 73.4,136.288 Z M73.4,134.32 C74.192,134.32 74.84,133.528 74.84,131.296 C74.84,129.064 74.192,128.32 73.4,128.32 C72.608,128.32 71.96,129.064 71.96,131.296 C71.96,133.528 72.608,134.32 73.4,134.32 Z"/>
    </g>
    <g transform="translate(122)">
      <rect width="110" height="168" x="2" y="2" fill="#FFFFFF" rx="10"/>
      <path fill="#EEEEEE" fill-rule="nonzero" d="M4,12.0060501 C4,9.79813241 4.89620547,7.73734639 6.45708404,6.23577652 C7.25310948,5.46999766 7.27762918,4.20390511 6.51185032,3.40787966 C5.74607145,2.61185422 4.4799789,2.58733452 3.68395346,3.35311338 C1.3471821,5.60109443 0,8.69888187 0,12.0060501 C0,13.1106196 0.8954305,14.0060501 2,14.0060501 C3.1045695,14.0060501 4,13.1106196 4,12.0060501 Z M14.3878855,4 L22.3878855,4 C23.492455,4 24.3878855,3.1045695 24.3878855,2 C24.3878855,0.8954305 23.492455,0 22.3878855,0 L14.3878855,0 C13.283316,0 12.3878855,0.8954305 12.3878855,2 C12.3878855,3.1045695 13.283316,4 14.3878855,4 Z M32.3878855,4 L40.3878855,4 C41.492455,4 42.3878855,3.1045695 42.3878855,2 C42.3878855,0.8954305 41.492455,0 40.3878855,0 L32.3878855,0 C31.283316,0 30.3878855,0.8954305 30.3878855,2 C30.3878855,3.1045695 31.283316,4 32.3878855,4 Z M50.3878855,4 L58.3878855,4 C59.492455,4 60.3878855,3.1045695 60.3878855,2 C60.3878855,0.8954305 59.492455,0 58.3878855,0 L50.3878855,0 C49.283316,0 48.3878855,0.8954305 48.3878855,2 C48.3878855,3.1045695 49.283316,4 50.3878855,4 Z M68.3878855,4 L76.3878855,4 C77.492455,4 78.3878855,3.1045695 78.3878855,2 C78.3878855,0.8954305 77.492455,0 76.3878855,0 L68.3878855,0 C67.283316,0 66.3878855,0.8954305 66.3878855,2 C66.3878855,3.1045695 67.283316,4 68.3878855,4 Z M86.3878855,4 L94.3878855,4 C95.492455,4 96.3878855,3.1045695 96.3878855,2 C96.3878855,0.8954305 95.492455,0 94.3878855,0 L86.3878855,0 C85.283316,0 84.3878855,0.8954305 84.3878855,2 C84.3878855,3.1045695 85.283316,4 86.3878855,4 Z M103.898651,4.22674886 C106.01346,4.74117527 107.828579,6.10693572 108.920218,7.98346663 C109.475637,8.93823513 110.699887,9.26197141 111.654655,8.70655184 C112.609424,8.15113228 112.93316,6.92688296 112.37774,5.97211446 C110.741501,3.15941206 108.0219,1.11308717 104.84408,0.340084011 C103.770807,0.0790109445 102.689106,0.737428969 102.428033,1.81070183 C102.16696,2.88397469 102.825378,3.96567579 103.898651,4.22674886 Z M110,16.7793436 L110,24.7793436 C110,25.8839131 110.895431,26.7793436 112,26.7793436 C113.104569,26.7793436 114,25.8839131 114,24.7793436 L114,16.7793436 C114,15.6747741 113.104569,14.7793436 112,14.7793436 C110.895431,14.7793436 110,15.6747741 110,16.7793436 Z M110,34.7793436 L110,42.7793436 C110,43.8839131 110.895431,44.7793436 112,44.7793436 C113.104569,44.7793436 114,43.8839131 114,42.7793436 L114,34.7793436 C114,33.6747741 113.104569,32.7793436 112,32.7793436 C110.895431,32.7793436 110,33.6747741 110,34.7793436 Z M110,52.7793436 L110,60.7793436 C110,61.8839131 110.895431,62.7793436 112,62.7793436 C113.104569,62.7793436 114,61.8839131 114,60.7793436 L114,52.7793436 C114,51.6747741 113.104569,50.7793436 112,50.7793436 C110.895431,50.7793436 110,51.6747741 110,52.7793436 Z M110,70.7793436 L110,78.7793436 C110,79.8839131 110.895431,80.7793436 112,80.7793436 C113.104569,80.7793436 114,79.8839131 114,78.7793436 L114,70.7793436 C114,69.6747741 113.104569,68.7793436 112,68.7793436 C110.895431,68.7793436 110,69.6747741 110,70.7793436 Z M110,88.7793436 L110,96.7793436 C110,97.8839131 110.895431,98.7793436 112,98.7793436 C113.104569,98.7793436 114,97.8839131 114,96.7793436 L114,88.7793436 C114,87.6747741 113.104569,86.7793436 112,86.7793436 C110.895431,86.7793436 110,87.6747741 110,88.7793436 Z M110,106.779344 L110,114.779344 C110,115.883913 110.895431,116.779344 112,116.779344 C113.104569,116.779344 114,115.883913 114,114.779344 L114,106.779344 C114,105.674774 113.104569,104.779344 112,104.779344 C110.895431,104.779344 110,105.674774 110,106.779344 Z M110,124.779344 L110,132.779344 C110,133.883913 110.895431,134.779344 112,134.779344 C113.104569,134.779344 114,133.883913 114,132.779344 L114,124.779344 C114,123.674774 113.104569,122.779344 112,122.779344 C110.895431,122.779344 110,123.674774 110,124.779344 Z M110,142.779344 L110,150.779344 C110,151.883913 110.895431,152.779344 112,152.779344 C113.104569,152.779344 114,151.883913 114,150.779344 L114,142.779344 C114,141.674774 113.104569,140.779344 112,140.779344 C110.895431,140.779344 110,141.674774 110,142.779344 Z M109.975629,160.624317 C109.805834,162.810284 108.748878,164.804598 107.072914,166.182348 C106.21965,166.883786 106.09657,168.14412 106.798008,168.997384 C107.499445,169.850648 108.75978,169.973727 109.613044,169.27229 C112.121854,167.209887 113.708716,164.215722 113.963616,160.934083 C114.049156,159.832831 113.225758,158.870746 112.124506,158.785207 C111.023253,158.699667 110.061168,159.523065 109.975629,160.624317 Z M98.8267208,168 L90.8267208,168 C89.7221513,168 88.8267208,168.895431 88.8267208,170 C88.8267208,171.104569 89.7221513,172 90.8267208,172 L98.8267208,172 C99.9312903,172 100.826721,171.104569 100.826721,170 C100.826721,168.895431 99.9312903,168 98.8267208,168 Z M80.8267208,168 L72.8267208,168 C71.7221513,168 70.8267208,168.895431 70.8267208,170 C70.8267208,171.104569 71.7221513,172 72.8267208,172 L80.8267208,172 C81.9312903,172 82.8267208,171.104569 82.8267208,170 C82.8267208,168.895431 81.9312903,168 80.8267208,168 Z M62.8267208,168 L54.8267208,168 C53.7221513,168 52.8267208,168.895431 52.8267208,170 C52.8267208,171.104569 53.7221513,172 54.8267208,172 L62.8267208,172 C63.9312903,172 64.8267208,171.104569 64.8267208,170 C64.8267208,168.895431 63.9312903,168 62.8267208,168 Z M44.8267208,168 L36.8267208,168 C35.7221513,168 34.8267208,168.895431 34.8267208,170 C34.8267208,171.104569 35.7221513,172 36.8267208,172 L44.8267208,172 C45.9312903,172 46.8267208,171.104569 46.8267208,170 C46.8267208,168.895431 45.9312903,168 44.8267208,168 Z M26.8267208,168 L18.8267208,168 C17.7221513,168 16.8267208,168.895431 16.8267208,170 C16.8267208,171.104569 17.7221513,172 18.8267208,172 L26.8267208,172 C27.9312903,172 28.8267208,171.104569 28.8267208,170 C28.8267208,168.895431 27.9312903,168 26.8267208,168 Z M9.49247719,167.599137 C7.42889857,166.918812 5.72235624,165.41403 4.78315918,163.456581 C4.30533409,162.460711 3.11066822,162.040753 2.11479826,162.518578 C1.11892831,162.996403 0.698969963,164.191069 1.17679505,165.186939 C2.58559858,168.123129 5.14081155,170.376245 8.24005572,171.398011 C9.28908569,171.743858 10.4198566,171.173815 10.7657032,170.124785 C11.1115499,169.075755 10.5415072,167.944984 9.49247719,167.599137 Z M4,154.435263 L4,146.435263 C4,145.330693 3.1045695,144.435263 2,144.435263 C0.8954305,144.435263 0,145.330693 0,146.435263 L0,154.435263 C0,155.539832 0.8954305,156.435263 2,156.435263 C3.1045695,156.435263 4,155.539832 4,154.435263 Z M4,136.435263 L4,128.435263 C4,127.330693 3.1045695,126.435263 2,126.435263 C0.8954305,126.435263 0,127.330693 0,128.435263 L0,136.435263 C0,137.539832 0.8954305,138.435263 2,138.435263 C3.1045695,138.435263 4,137.539832 4,136.435263 Z M4,118.435263 L4,110.435263 C4,109.330693 3.1045695,108.435263 2,108.435263 C0.8954305,108.435263 0,109.330693 0,110.435263 L0,118.435263 C0,119.539832 0.8954305,120.435263 2,120.435263 C3.1045695,120.435263 4,119.539832 4,118.435263 Z M4,100.435263 L4,92.4352627 C4,91.3306932 3.1045695,90.4352627 2,90.4352627 C0.8954305,90.4352627 0,91.3306932 0,92.4352627 L0,100.435263 C0,101.539832 0.8954305,102.435263 2,102.435263 C3.1045695,102.435263 4,101.539832 4,100.435263 Z M4,82.4352627 L4,74.4352627 C4,73.3306932 3.1045695,72.4352627 2,72.4352627 C0.8954305,72.4352627 0,73.3306932 0,74.4352627 L0,82.4352627 C0,83.5398322 0.8954305,84.4352627 2,84.4352627 C3.1045695,84.4352627 4,83.5398322 4,82.4352627 Z M4,64.4352627 L4,56.4352627 C4,55.3306932 3.1045695,54.4352627 2,54.4352627 C0.8954305,54.4352627 0,55.3306932 0,56.4352627 L0,64.4352627 C0,65.5398322 0.8954305,66.4352627 2,66.4352627 C3.1045695,66.4352627 4,65.5398322 4,64.4352627 Z M4,46.4352627 L4,38.4352627 C4,37.3306932 3.1045695,36.4352627 2,36.4352627 C0.8954305,36.4352627 0,37.3306932 0,38.4352627 L0,46.4352627 C0,47.5398322 0.8954305,48.4352627 2,48.4352627 C3.1045695,48.4352627 4,47.5398322 4,46.4352627 Z M4,28.4352627 L4,20.4352627 C4,19.3306932 3.1045695,18.4352627 2,18.4352627 C0.8954305,18.4352627 0,19.3306932 0,20.4352627 L0,28.4352627 C0,29.5398322 0.8954305,30.4352627 2,30.4352627 C3.1045695,30.4352627 4,29.5398322 4,28.4352627 Z"/>
      <g transform="translate(21 82)">
        <rect width="24" height="4" y="10" fill="#F0EDF8" rx="2"/>
        <rect width="14" height="4" x="5" fill="#C3B8E3" rx="2"/>
      </g>
      <g transform="translate(69 82)">
        <rect width="24" height="4" y="10" fill="#F0EDF8" rx="2"/>
        <rect width="14" height="4" x="5" fill="#C3B8E3" rx="2"/>
      </g>
      <path fill="#FEE1D3" d="M44,44 C44,42.8954305 44.8982606,42 45.9979131,42 L48.0020869,42 C49.1055038,42 50,42.8877296 50,44 C50,45.1045695 49.1017394,46 48.0020869,46 L45.9979131,46 C44.8944962,46 44,45.1122704 44,44 Z M54,44 C54,42.8954305 54.8982606,42 55.9979131,42 L58.0020869,42 C59.1055038,42 60,42.8877296 60,44 C60,45.1045695 59.1017394,46 58.0020869,46 L55.9979131,46 C54.8944962,46 54,45.1122704 54,44 Z M64,44 C64,42.8954305 64.8982606,42 65.9979131,42 L68.0020869,42 C69.1055038,42 70,42.8877296 70,44 C70,45.1045695 69.1017394,46 68.0020869,46 L65.9979131,46 C64.8944962,46 64,45.1122704 64,44 Z M34,56 C34,54.8954305 34.8982606,54 35.9979131,54 L38.0020869,54 C39.1055038,54 40,54.8877296 40,56 C40,57.1045695 39.1017394,58 38.0020869,58 L35.9979131,58 C34.8944962,58 34,57.1122704 34,56 Z M44,56 C44,54.8954305 44.8982606,54 45.9979131,54 L48.0020869,54 C49.1055038,54 50,54.8877296 50,56 C50,57.1045695 49.1017394,58 48.0020869,58 L45.9979131,58 C44.8944962,58 44,57.1122704 44,56 Z M54,56 C54,54.8954305 54.8982606,54 55.9979131,54 L58.0020869,54 C59.1055038,54 60,54.8877296 60,56 C60,57.1045695 59.1017394,58 58.0020869,58 L55.9979131,58 C54.8944962,58 54,57.1122704 54,56 Z M64,56 C64,54.8954305 64.8982606,54 65.9979131,54 L68.0020869,54 C69.1055038,54 70,54.8877296 70,56 C70,57.1045695 69.1017394,58 68.0020869,58 L65.9979131,58 C64.8944962,58 64,57.1122704 64,56 Z M74,56 C74,54.8954305 74.8982606,54 75.9979131,54 L78.0020869,54 C79.1055038,54 80,54.8877296 80,56 C80,57.1045695 79.1017394,58 78.0020869,58 L75.9979131,58 C74.8944962,58 74,57.1122704 74,56 Z"/>
      <rect width="8" height="4" x="8" y="14" fill="#EEEEEE" rx="2"/>
      <rect width="8" height="4" x="21" y="14" fill="#EEEEEE" rx="2"/>
      <rect width="8" height="4" x="34" y="14" fill="#EEEEEE" rx="2"/>
      <rect width="8" height="4" x="47" y="14" fill="#EEEEEE" rx="2"/>
      <rect width="8" height="4" x="60" y="14" fill="#EEEEEE" rx="2"/>
      <rect width="8" height="4" x="73" y="14" fill="#EEEEEE" rx="2"/>
      <rect width="8" height="4" x="86" y="14" fill="#EEEEEE" rx="2"/>
      <rect width="8" height="4" x="99" y="14" fill="#EEEEEE" rx="2"/>
      <path fill="#EEEEEE" d="M46.716,138.288 C43.452,138.288 41.268,135.504 41.268,130.32 C41.268,125.136 43.452,122.472 46.716,122.472 C49.98,122.472 52.164,125.136 52.164,130.32 C52.164,135.504 49.98,138.288 46.716,138.288 Z M46.716,135.552 C47.916,135.552 48.828,134.472 48.828,130.32 C48.828,126.144 47.916,125.208 46.716,125.208 C45.54,125.208 44.604,126.144 44.604,130.32 C44.604,134.472 45.54,135.552 46.716,135.552 Z M57.564,132 C55.308,132 53.676,130.152 53.676,127.008 C53.676,123.888 55.308,122.064 57.564,122.064 C59.82,122.064 61.476,123.888 61.476,127.008 C61.476,130.152 59.82,132 57.564,132 Z M57.564,130.032 C58.356,130.032 59.004,129.24 59.004,127.008 C59.004,124.776 58.356,124.032 57.564,124.032 C56.772,124.032 56.124,124.776 56.124,127.008 C56.124,129.24 56.772,130.032 57.564,130.032 Z M58.092,138.288 L66.54,122.064 L68.58,122.064 L60.132,138.288 L58.092,138.288 Z M69.108,138.288 C66.852,138.288 65.22,136.44 65.22,133.296 C65.22,130.176 66.852,128.352 69.108,128.352 C71.364,128.352 73.02,130.176 73.02,133.296 C73.02,136.44 71.364,138.288 69.108,138.288 Z M69.108,136.32 C69.9,136.32 70.548,135.528 70.548,133.296 C70.548,131.064 69.9,130.32 69.108,130.32 C68.316,130.32 67.668,131.064 67.668,133.296 C67.668,135.528 68.316,136.32 69.108,136.32 Z"/>
    </g>
    <g transform="translate(243)">
      <rect width="110" height="168" x="2" y="2" fill="#FFFFFF" rx="10"/>
      <path fill="#EEEEEE" fill-rule="nonzero" d="M4,12.0060501 C4,9.79813241 4.89620547,7.73734639 6.45708404,6.23577652 C7.25310948,5.46999766 7.27762918,4.20390511 6.51185032,3.40787966 C5.74607145,2.61185422 4.4799789,2.58733452 3.68395346,3.35311338 C1.3471821,5.60109443 0,8.69888187 0,12.0060501 C0,13.1106196 0.8954305,14.0060501 2,14.0060501 C3.1045695,14.0060501 4,13.1106196 4,12.0060501 Z M14.3878855,4 L22.3878855,4 C23.492455,4 24.3878855,3.1045695 24.3878855,2 C24.3878855,0.8954305 23.492455,0 22.3878855,0 L14.3878855,0 C13.283316,0 12.3878855,0.8954305 12.3878855,2 C12.3878855,3.1045695 13.283316,4 14.3878855,4 Z M32.3878855,4 L40.3878855,4 C41.492455,4 42.3878855,3.1045695 42.3878855,2 C42.3878855,0.8954305 41.492455,0 40.3878855,0 L32.3878855,0 C31.283316,0 30.3878855,0.8954305 30.3878855,2 C30.3878855,3.1045695 31.283316,4 32.3878855,4 Z M50.3878855,4 L58.3878855,4 C59.492455,4 60.3878855,3.1045695 60.3878855,2 C60.3878855,0.8954305 59.492455,0 58.3878855,0 L50.3878855,0 C49.283316,0 48.3878855,0.8954305 48.3878855,2 C48.3878855,3.1045695 49.283316,4 50.3878855,4 Z M68.3878855,4 L76.3878855,4 C77.492455,4 78.3878855,3.1045695 78.3878855,2 C78.3878855,0.8954305 77.492455,0 76.3878855,0 L68.3878855,0 C67.283316,0 66.3878855,0.8954305 66.3878855,2 C66.3878855,3.1045695 67.283316,4 68.3878855,4 Z M86.3878855,4 L94.3878855,4 C95.492455,4 96.3878855,3.1045695 96.3878855,2 C96.3878855,0.8954305 95.492455,0 94.3878855,0 L86.3878855,0 C85.283316,0 84.3878855,0.8954305 84.3878855,2 C84.3878855,3.1045695 85.283316,4 86.3878855,4 Z M103.898651,4.22674886 C106.01346,4.74117527 107.828579,6.10693572 108.920218,7.98346663 C109.475637,8.93823513 110.699887,9.26197141 111.654655,8.70655184 C112.609424,8.15113228 112.93316,6.92688296 112.37774,5.97211446 C110.741501,3.15941206 108.0219,1.11308717 104.84408,0.340084011 C103.770807,0.0790109445 102.689106,0.737428969 102.428033,1.81070183 C102.16696,2.88397469 102.825378,3.96567579 103.898651,4.22674886 Z M110,16.7793436 L110,24.7793436 C110,25.8839131 110.895431,26.7793436 112,26.7793436 C113.104569,26.7793436 114,25.8839131 114,24.7793436 L114,16.7793436 C114,15.6747741 113.104569,14.7793436 112,14.7793436 C110.895431,14.7793436 110,15.6747741 110,16.7793436 Z M110,34.7793436 L110,42.7793436 C110,43.8839131 110.895431,44.7793436 112,44.7793436 C113.104569,44.7793436 114,43.8839131 114,42.7793436 L114,34.7793436 C114,33.6747741 113.104569,32.7793436 112,32.7793436 C110.895431,32.7793436 110,33.6747741 110,34.7793436 Z M110,52.7793436 L110,60.7793436 C110,61.8839131 110.895431,62.7793436 112,62.7793436 C113.104569,62.7793436 114,61.8839131 114,60.7793436 L114,52.7793436 C114,51.6747741 113.104569,50.7793436 112,50.7793436 C110.895431,50.7793436 110,51.6747741 110,52.7793436 Z M110,70.7793436 L110,78.7793436 C110,79.8839131 110.895431,80.7793436 112,80.7793436 C113.104569,80.7793436 114,79.8839131 114,78.7793436 L114,70.7793436 C114,69.6747741 113.104569,68.7793436 112,68.7793436 C110.895431,68.7793436 110,69.6747741 110,70.7793436 Z M110,88.7793436 L110,96.7793436 C110,97.8839131 110.895431,98.7793436 112,98.7793436 C113.104569,98.7793436 114,97.8839131 114,96.7793436 L114,88.7793436 C114,87.6747741 113.104569,86.7793436 112,86.7793436 C110.895431,86.7793436 110,87.6747741 110,88.7793436 Z M110,106.779344 L110,114.779344 C110,115.883913 110.895431,116.779344 112,116.779344 C113.104569,116.779344 114,115.883913 114,114.779344 L114,106.779344 C114,105.674774 113.104569,104.779344 112,104.779344 C110.895431,104.779344 110,105.674774 110,106.779344 Z M110,124.779344 L110,132.779344 C110,133.883913 110.895431,134.779344 112,134.779344 C113.104569,134.779344 114,133.883913 114,132.779344 L114,124.779344 C114,123.674774 113.104569,122.779344 112,122.779344 C110.895431,122.779344 110,123.674774 110,124.779344 Z M110,142.779344 L110,150.779344 C110,151.883913 110.895431,152.779344 112,152.779344 C113.104569,152.779344 114,151.883913 114,150.779344 L114,142.779344 C114,141.674774 113.104569,140.779344 112,140.779344 C110.895431,140.779344 110,141.674774 110,142.779344 Z M109.975629,160.624317 C109.805834,162.810284 108.748878,164.804598 107.072914,166.182348 C106.21965,166.883786 106.09657,168.14412 106.798008,168.997384 C107.499445,169.850648 108.75978,169.973727 109.613044,169.27229 C112.121854,167.209887 113.708716,164.215722 113.963616,160.934083 C114.049156,159.832831 113.225758,158.870746 112.124506,158.785207 C111.023253,158.699667 110.061168,159.523065 109.975629,160.624317 Z M98.8267208,168 L90.8267208,168 C89.7221513,168 88.8267208,168.895431 88.8267208,170 C88.8267208,171.104569 89.7221513,172 90.8267208,172 L98.8267208,172 C99.9312903,172 100.826721,171.104569 100.826721,170 C100.826721,168.895431 99.9312903,168 98.8267208,168 Z M80.8267208,168 L72.8267208,168 C71.7221513,168 70.8267208,168.895431 70.8267208,170 C70.8267208,171.104569 71.7221513,172 72.8267208,172 L80.8267208,172 C81.9312903,172 82.8267208,171.104569 82.8267208,170 C82.8267208,168.895431 81.9312903,168 80.8267208,168 Z M62.8267208,168 L54.8267208,168 C53.7221513,168 52.8267208,168.895431 52.8267208,170 C52.8267208,171.104569 53.7221513,172 54.8267208,172 L62.8267208,172 C63.9312903,172 64.8267208,171.104569 64.8267208,170 C64.8267208,168.895431 63.9312903,168 62.8267208,168 Z M44.8267208,168 L36.8267208,168 C35.7221513,168 34.8267208,168.895431 34.8267208,170 C34.8267208,171.104569 35.7221513,172 36.8267208,172 L44.8267208,172 C45.9312903,172 46.8267208,171.104569 46.8267208,170 C46.8267208,168.895431 45.9312903,168 44.8267208,168 Z M26.8267208,168 L18.8267208,168 C17.7221513,168 16.8267208,168.895431 16.8267208,170 C16.8267208,171.104569 17.7221513,172 18.8267208,172 L26.8267208,172 C27.9312903,172 28.8267208,171.104569 28.8267208,170 C28.8267208,168.895431 27.9312903,168 26.8267208,168 Z M9.49247719,167.599137 C7.42889857,166.918812 5.72235624,165.41403 4.78315918,163.456581 C4.30533409,162.460711 3.11066822,162.040753 2.11479826,162.518578 C1.11892831,162.996403 0.698969963,164.191069 1.17679505,165.186939 C2.58559858,168.123129 5.14081155,170.376245 8.24005572,171.398011 C9.28908569,171.743858 10.4198566,171.173815 10.7657032,170.124785 C11.1115499,169.075755 10.5415072,167.944984 9.49247719,167.599137 Z M4,154.435263 L4,146.435263 C4,145.330693 3.1045695,144.435263 2,144.435263 C0.8954305,144.435263 0,145.330693 0,146.435263 L0,154.435263 C0,155.539832 0.8954305,156.435263 2,156.435263 C3.1045695,156.435263 4,155.539832 4,154.435263 Z M4,136.435263 L4,128.435263 C4,127.330693 3.1045695,126.435263 2,126.435263 C0.8954305,126.435263 0,127.330693 0,128.435263 L0,136.435263 C0,137.539832 0.8954305,138.435263 2,138.435263 C3.1045695,138.435263 4,137.539832 4,136.435263 Z M4,118.435263 L4,110.435263 C4,109.330693 3.1045695,108.435263 2,108.435263 C0.8954305,108.435263 0,109.330693 0,110.435263 L0,118.435263 C0,119.539832 0.8954305,120.435263 2,120.435263 C3.1045695,120.435263 4,119.539832 4,118.435263 Z M4,100.435263 L4,92.4352627 C4,91.3306932 3.1045695,90.4352627 2,90.4352627 C0.8954305,90.4352627 0,91.3306932 0,92.4352627 L0,100.435263 C0,101.539832 0.8954305,102.435263 2,102.435263 C3.1045695,102.435263 4,101.539832 4,100.435263 Z M4,82.4352627 L4,74.4352627 C4,73.3306932 3.1045695,72.4352627 2,72.4352627 C0.8954305,72.4352627 0,73.3306932 0,74.4352627 L0,82.4352627 C0,83.5398322 0.8954305,84.4352627 2,84.4352627 C3.1045695,84.4352627 4,83.5398322 4,82.4352627 Z M4,64.4352627 L4,56.4352627 C4,55.3306932 3.1045695,54.4352627 2,54.4352627 C0.8954305,54.4352627 0,55.3306932 0,56.4352627 L0,64.4352627 C0,65.5398322 0.8954305,66.4352627 2,66.4352627 C3.1045695,66.4352627 4,65.5398322 4,64.4352627 Z M4,46.4352627 L4,38.4352627 C4,37.3306932 3.1045695,36.4352627 2,36.4352627 C0.8954305,36.4352627 0,37.3306932 0,38.4352627 L0,46.4352627 C0,47.5398322 0.8954305,48.4352627 2,48.4352627 C3.1045695,48.4352627 4,47.5398322 4,46.4352627 Z M4,28.4352627 L4,20.4352627 C4,19.3306932 3.1045695,18.4352627 2,18.4352627 C0.8954305,18.4352627 0,19.3306932 0,20.4352627 L0,28.4352627 C0,29.5398322 0.8954305,30.4352627 2,30.4352627 C3.1045695,30.4352627 4,29.5398322 4,28.4352627 Z"/>
      <path fill="#FEE1D3" d="M44,44 C44,42.8954305 44.8982606,42 45.9979131,42 L48.0020869,42 C49.1055038,42 50,42.8877296 50,44 C50,45.1045695 49.1017394,46 48.0020869,46 L45.9979131,46 C44.8944962,46 44,45.1122704 44,44 Z M54,44 C54,42.8954305 54.8982606,42 55.9979131,42 L58.0020869,42 C59.1055038,42 60,42.8877296 60,44 C60,45.1045695 59.1017394,46 58.0020869,46 L55.9979131,46 C54.8944962,46 54,45.1122704 54,44 Z M64,44 C64,42.8954305 64.8982606,42 65.9979131,42 L68.0020869,42 C69.1055038,42 70,42.8877296 70,44 C70,45.1045695 69.1017394,46 68.0020869,46 L65.9979131,46 C64.8944962,46 64,45.1122704 64,44 Z M34,56 C34,54.8954305 34.8982606,54 35.9979131,54 L38.0020869,54 C39.1055038,54 40,54.8877296 40,56 C40,57.1045695 39.1017394,58 38.0020869,58 L35.9979131,58 C34.8944962,58 34,57.1122704 34,56 Z M44,56 C44,54.8954305 44.8982606,54 45.9979131,54 L48.0020869,54 C49.1055038,54 50,54.8877296 50,56 C50,57.1045695 49.1017394,58 48.0020869,58 L45.9979131,58 C44.8944962,58 44,57.1122704 44,56 Z M54,56 C54,54.8954305 54.8982606,54 55.9979131,54 L58.0020869,54 C59.1055038,54 60,54.8877296 60,56 C60,57.1045695 59.1017394,58 58.0020869,58 L55.9979131,58 C54.8944962,58 54,57.1122704 54,56 Z M64,56 C64,54.8954305 64.8982606,54 65.9979131,54 L68.0020869,54 C69.1055038,54 70,54.8877296 70,56 C70,57.1045695 69.1017394,58 68.0020869,58 L65.9979131,58 C64.8944962,58 64,57.1122704 64,56 Z M74,56 C74,54.8954305 74.8982606,54 75.9979131,54 L78.0020869,54 C79.1055038,54 80,54.8877296 80,56 C80,57.1045695 79.1017394,58 78.0020869,58 L75.9979131,58 C74.8944962,58 74,57.1122704 74,56 Z"/>
      <g transform="translate(21 82)">
        <rect width="24" height="4" y="10" fill="#F0EDF8" rx="2"/>
        <rect width="14" height="4" x="5" fill="#C3B8E3" rx="2"/>
      </g>
      <g transform="translate(69 82)">
        <rect width="24" height="4" y="10" fill="#F0EDF8" rx="2"/>
        <rect width="14" height="4" x="5" fill="#C3B8E3" rx="2"/>
      </g>
      <rect width="8" height="4" x="8" y="14" fill="#EEEEEE" rx="2"/>
      <rect width="8" height="4" x="21" y="14" fill="#EEEEEE" rx="2"/>
      <rect width="8" height="4" x="34" y="14" fill="#EEEEEE" rx="2"/>
      <rect width="8" height="4" x="47" y="14" fill="#EEEEEE" rx="2"/>
      <rect width="8" height="4" x="60" y="14" fill="#EEEEEE" rx="2"/>
      <rect width="8" height="4" x="73" y="14" fill="#EEEEEE" rx="2"/>
      <rect width="8" height="4" x="86" y="14" fill="#EEEEEE" rx="2"/>
      <rect width="8" height="4" x="99" y="14" fill="#EEEEEE" rx="2"/>
      <path fill="#EEEEEE" d="M46.716,138.288 C43.452,138.288 41.268,135.504 41.268,130.32 C41.268,125.136 43.452,122.472 46.716,122.472 C49.98,122.472 52.164,125.136 52.164,130.32 C52.164,135.504 49.98,138.288 46.716,138.288 Z M46.716,135.552 C47.916,135.552 48.828,134.472 48.828,130.32 C48.828,126.144 47.916,125.208 46.716,125.208 C45.54,125.208 44.604,126.144 44.604,130.32 C44.604,134.472 45.54,135.552 46.716,135.552 Z M57.564,132 C55.308,132 53.676,130.152 53.676,127.008 C53.676,123.888 55.308,122.064 57.564,122.064 C59.82,122.064 61.476,123.888 61.476,127.008 C61.476,130.152 59.82,132 57.564,132 Z M57.564,130.032 C58.356,130.032 59.004,129.24 59.004,127.008 C59.004,124.776 58.356,124.032 57.564,124.032 C56.772,124.032 56.124,124.776 56.124,127.008 C56.124,129.24 56.772,130.032 57.564,130.032 Z M58.092,138.288 L66.54,122.064 L68.58,122.064 L60.132,138.288 L58.092,138.288 Z M69.108,138.288 C66.852,138.288 65.22,136.44 65.22,133.296 C65.22,130.176 66.852,128.352 69.108,128.352 C71.364,128.352 73.02,130.176 73.02,133.296 C73.02,136.44 71.364,138.288 69.108,138.288 Z M69.108,136.32 C69.9,136.32 70.548,135.528 70.548,133.296 C70.548,131.064 69.9,130.32 69.108,130.32 C68.316,130.32 67.668,131.064 67.668,133.296 C67.668,135.528 68.316,136.32 69.108,136.32 Z"/>
    </g>
  </g>
</svg>
