<svg xmlns="http://www.w3.org/2000/svg" width="360" height="220" viewBox="0 0 360 220">
  <g fill="none" fill-rule="evenodd" transform="translate(26 7)">
    <path fill="#000000" fill-opacity=".02" d="M99,37 L99,17.0031103 C99,11.478545 103.482728,7 109.004525,7 L198.995475,7 C204.520822,7 209,11.4768096 209,17.0031103 L209,36 L293.992393,36 C300.624011,36 306,41.3723314 306,48.0016923 L306,192.998308 C306,199.626659 300.620008,205 293.992393,205 L208.007607,205 C201.375989,205 196,199.627669 196,192.998308 L196,176 L118,176 L118,193.002105 C118,199.628359 112.620008,205 105.992393,205 L20.0076067,205 C13.3759887,205 8,199.624187 8,193.002105 L8,48.997895 C8,42.3716406 13.3799924,37 20.0076067,37 L99,37 Z"/>
    <g transform="translate(188 29)">
      <rect width="110" height="168" x="2" y="2" fill="#FFFFFF" rx="10"/>
      <path fill="#EEEEEE" fill-rule="nonzero" d="M4,12.0060501 C4,9.79813241 4.89620547,7.73734639 6.45708404,6.23577652 C7.25310948,5.46999766 7.27762918,4.20390511 6.51185032,3.40787966 C5.74607145,2.61185422 4.4799789,2.58733452 3.68395346,3.35311338 C1.3471821,5.60109443 0,8.69888187 0,12.0060501 C0,13.1106196 0.8954305,14.0060501 2,14.0060501 C3.1045695,14.0060501 4,13.1106196 4,12.0060501 Z M14.3878855,4 L22.3878855,4 C23.492455,4 24.3878855,3.1045695 24.3878855,2 C24.3878855,0.8954305 23.492455,0 22.3878855,0 L14.3878855,0 C13.283316,0 12.3878855,0.8954305 12.3878855,2 C12.3878855,3.1045695 13.283316,4 14.3878855,4 Z M32.3878855,4 L40.3878855,4 C41.492455,4 42.3878855,3.1045695 42.3878855,2 C42.3878855,0.8954305 41.492455,0 40.3878855,0 L32.3878855,0 C31.283316,0 30.3878855,0.8954305 30.3878855,2 C30.3878855,3.1045695 31.283316,4 32.3878855,4 Z M50.3878855,4 L58.3878855,4 C59.492455,4 60.3878855,3.1045695 60.3878855,2 C60.3878855,0.8954305 59.492455,0 58.3878855,0 L50.3878855,0 C49.283316,0 48.3878855,0.8954305 48.3878855,2 C48.3878855,3.1045695 49.283316,4 50.3878855,4 Z M68.3878855,4 L76.3878855,4 C77.492455,4 78.3878855,3.1045695 78.3878855,2 C78.3878855,0.8954305 77.492455,0 76.3878855,0 L68.3878855,0 C67.283316,0 66.3878855,0.8954305 66.3878855,2 C66.3878855,3.1045695 67.283316,4 68.3878855,4 Z M86.3878855,4 L94.3878855,4 C95.492455,4 96.3878855,3.1045695 96.3878855,2 C96.3878855,0.8954305 95.492455,0 94.3878855,0 L86.3878855,0 C85.283316,0 84.3878855,0.8954305 84.3878855,2 C84.3878855,3.1045695 85.283316,4 86.3878855,4 Z M103.898651,4.22674886 C106.01346,4.74117527 107.828579,6.10693572 108.920218,7.98346663 C109.475637,8.93823513 110.699887,9.26197141 111.654655,8.70655184 C112.609424,8.15113228 112.93316,6.92688296 112.37774,5.97211446 C110.741501,3.15941206 108.0219,1.11308717 104.84408,0.340084011 C103.770807,0.0790109445 102.689106,0.737428969 102.428033,1.81070183 C102.16696,2.88397469 102.825378,3.96567579 103.898651,4.22674886 Z M110,16.7793436 L110,24.7793436 C110,25.8839131 110.895431,26.7793436 112,26.7793436 C113.104569,26.7793436 114,25.8839131 114,24.7793436 L114,16.7793436 C114,15.6747741 113.104569,14.7793436 112,14.7793436 C110.895431,14.7793436 110,15.6747741 110,16.7793436 Z M110,34.7793436 L110,42.7793436 C110,43.8839131 110.895431,44.7793436 112,44.7793436 C113.104569,44.7793436 114,43.8839131 114,42.7793436 L114,34.7793436 C114,33.6747741 113.104569,32.7793436 112,32.7793436 C110.895431,32.7793436 110,33.6747741 110,34.7793436 Z M110,52.7793436 L110,60.7793436 C110,61.8839131 110.895431,62.7793436 112,62.7793436 C113.104569,62.7793436 114,61.8839131 114,60.7793436 L114,52.7793436 C114,51.6747741 113.104569,50.7793436 112,50.7793436 C110.895431,50.7793436 110,51.6747741 110,52.7793436 Z M110,70.7793436 L110,78.7793436 C110,79.8839131 110.895431,80.7793436 112,80.7793436 C113.104569,80.7793436 114,79.8839131 114,78.7793436 L114,70.7793436 C114,69.6747741 113.104569,68.7793436 112,68.7793436 C110.895431,68.7793436 110,69.6747741 110,70.7793436 Z M110,88.7793436 L110,96.7793436 C110,97.8839131 110.895431,98.7793436 112,98.7793436 C113.104569,98.7793436 114,97.8839131 114,96.7793436 L114,88.7793436 C114,87.6747741 113.104569,86.7793436 112,86.7793436 C110.895431,86.7793436 110,87.6747741 110,88.7793436 Z M110,106.779344 L110,114.779344 C110,115.883913 110.895431,116.779344 112,116.779344 C113.104569,116.779344 114,115.883913 114,114.779344 L114,106.779344 C114,105.674774 113.104569,104.779344 112,104.779344 C110.895431,104.779344 110,105.674774 110,106.779344 Z M110,124.779344 L110,132.779344 C110,133.883913 110.895431,134.779344 112,134.779344 C113.104569,134.779344 114,133.883913 114,132.779344 L114,124.779344 C114,123.674774 113.104569,122.779344 112,122.779344 C110.895431,122.779344 110,123.674774 110,124.779344 Z M110,142.779344 L110,150.779344 C110,151.883913 110.895431,152.779344 112,152.779344 C113.104569,152.779344 114,151.883913 114,150.779344 L114,142.779344 C114,141.674774 113.104569,140.779344 112,140.779344 C110.895431,140.779344 110,141.674774 110,142.779344 Z M109.975629,160.624317 C109.805834,162.810284 108.748878,164.804598 107.072914,166.182348 C106.21965,166.883786 106.09657,168.14412 106.798008,168.997384 C107.499445,169.850648 108.75978,169.973727 109.613044,169.27229 C112.121854,167.209887 113.708716,164.215722 113.963616,160.934083 C114.049156,159.832831 113.225758,158.870746 112.124506,158.785207 C111.023253,158.699667 110.061168,159.523065 109.975629,160.624317 Z M98.8267208,168 L90.8267208,168 C89.7221513,168 88.8267208,168.895431 88.8267208,170 C88.8267208,171.104569 89.7221513,172 90.8267208,172 L98.8267208,172 C99.9312903,172 100.826721,171.104569 100.826721,170 C100.826721,168.895431 99.9312903,168 98.8267208,168 Z M80.8267208,168 L72.8267208,168 C71.7221513,168 70.8267208,168.895431 70.8267208,170 C70.8267208,171.104569 71.7221513,172 72.8267208,172 L80.8267208,172 C81.9312903,172 82.8267208,171.104569 82.8267208,170 C82.8267208,168.895431 81.9312903,168 80.8267208,168 Z M62.8267208,168 L54.8267208,168 C53.7221513,168 52.8267208,168.895431 52.8267208,170 C52.8267208,171.104569 53.7221513,172 54.8267208,172 L62.8267208,172 C63.9312903,172 64.8267208,171.104569 64.8267208,170 C64.8267208,168.895431 63.9312903,168 62.8267208,168 Z M44.8267208,168 L36.8267208,168 C35.7221513,168 34.8267208,168.895431 34.8267208,170 C34.8267208,171.104569 35.7221513,172 36.8267208,172 L44.8267208,172 C45.9312903,172 46.8267208,171.104569 46.8267208,170 C46.8267208,168.895431 45.9312903,168 44.8267208,168 Z M26.8267208,168 L18.8267208,168 C17.7221513,168 16.8267208,168.895431 16.8267208,170 C16.8267208,171.104569 17.7221513,172 18.8267208,172 L26.8267208,172 C27.9312903,172 28.8267208,171.104569 28.8267208,170 C28.8267208,168.895431 27.9312903,168 26.8267208,168 Z M9.49247719,167.599137 C7.42889857,166.918812 5.72235624,165.41403 4.78315918,163.456581 C4.30533409,162.460711 3.11066822,162.040753 2.11479826,162.518578 C1.11892831,162.996403 0.698969963,164.191069 1.17679505,165.186939 C2.58559858,168.123129 5.14081155,170.376245 8.24005572,171.398011 C9.28908569,171.743858 10.4198566,171.173815 10.7657032,170.124785 C11.1115499,169.075755 10.5415072,167.944984 9.49247719,167.599137 Z M4,154.435263 L4,146.435263 C4,145.330693 3.1045695,144.435263 2,144.435263 C0.8954305,144.435263 0,145.330693 0,146.435263 L0,154.435263 C0,155.539832 0.8954305,156.435263 2,156.435263 C3.1045695,156.435263 4,155.539832 4,154.435263 Z M4,136.435263 L4,128.435263 C4,127.330693 3.1045695,126.435263 2,126.435263 C0.8954305,126.435263 0,127.330693 0,128.435263 L0,136.435263 C0,137.539832 0.8954305,138.435263 2,138.435263 C3.1045695,138.435263 4,137.539832 4,136.435263 Z M4,118.435263 L4,110.435263 C4,109.330693 3.1045695,108.435263 2,108.435263 C0.8954305,108.435263 0,109.330693 0,110.435263 L0,118.435263 C0,119.539832 0.8954305,120.435263 2,120.435263 C3.1045695,120.435263 4,119.539832 4,118.435263 Z M4,100.435263 L4,92.4352627 C4,91.3306932 3.1045695,90.4352627 2,90.4352627 C0.8954305,90.4352627 0,91.3306932 0,92.4352627 L0,100.435263 C0,101.539832 0.8954305,102.435263 2,102.435263 C3.1045695,102.435263 4,101.539832 4,100.435263 Z M4,82.4352627 L4,74.4352627 C4,73.3306932 3.1045695,72.4352627 2,72.4352627 C0.8954305,72.4352627 0,73.3306932 0,74.4352627 L0,82.4352627 C0,83.5398322 0.8954305,84.4352627 2,84.4352627 C3.1045695,84.4352627 4,83.5398322 4,82.4352627 Z M4,64.4352627 L4,56.4352627 C4,55.3306932 3.1045695,54.4352627 2,54.4352627 C0.8954305,54.4352627 0,55.3306932 0,56.4352627 L0,64.4352627 C0,65.5398322 0.8954305,66.4352627 2,66.4352627 C3.1045695,66.4352627 4,65.5398322 4,64.4352627 Z M4,46.4352627 L4,38.4352627 C4,37.3306932 3.1045695,36.4352627 2,36.4352627 C0.8954305,36.4352627 0,37.3306932 0,38.4352627 L0,46.4352627 C0,47.5398322 0.8954305,48.4352627 2,48.4352627 C3.1045695,48.4352627 4,47.5398322 4,46.4352627 Z M4,28.4352627 L4,20.4352627 C4,19.3306932 3.1045695,18.4352627 2,18.4352627 C0.8954305,18.4352627 0,19.3306932 0,20.4352627 L0,28.4352627 C0,29.5398322 0.8954305,30.4352627 2,30.4352627 C3.1045695,30.4352627 4,29.5398322 4,28.4352627 Z"/>
      <g transform="translate(36 69)">
        <path fill="#F0EDF8" fill-rule="nonzero" d="M21,42 C9.40202025,42 0,32.5979797 0,21 C0,9.40202025 9.40202025,0 21,0 C32.5979797,0 42,9.40202025 42,21 C42,32.5979797 32.5979797,42 21,42 Z M21,38 C30.3888407,38 38,30.3888407 38,21 C38,11.6111593 30.3888407,4 21,4 C11.6111593,4 4,11.6111593 4,21 C4,30.3888407 11.6111593,38 21,38 Z"/>
        <path fill="#6B4FBB" d="M22,19 L22,12.0027601 C22,10.8935426 21.1045695,10 20,10 C18.8877296,10 18,10.8966663 18,12.0027601 L18,20.9972399 C18,22.1064574 18.8954305,23 20,23 C20.1741455,23 20.3427867,22.9780197 20.5033784,22.9366966 C20.6647786,22.9780387 20.8340564,23 21.0085302,23 L28.9914698,23 C30.0980496,23 31,22.1045695 31,21 C31,19.8877296 30.1007504,19 28.9914698,19 L22,19 Z"/>
      </g>
      <rect width="8" height="4" x="8" y="14" fill="#EEEEEE" rx="2"/>
      <path fill="#EEEEEE" d="M21,16 C21,14.8954305 21.8867064,14 22.9981014,14 L27.0018986,14 C28.1054196,14 29,14.8877296 29,16 C29,17.1045695 28.1132936,18 27.0018986,18 L22.9981014,18 C21.8945804,18 21,17.1122704 21,16 Z M34,16 C34,14.8954305 34.8867064,14 35.9981014,14 L40.0018986,14 C41.1054196,14 42,14.8877296 42,16 C42,17.1045695 41.1132936,18 40.0018986,18 L35.9981014,18 C34.8945804,18 34,17.1122704 34,16 Z M47,16 C47,14.8954305 47.8867064,14 48.9981014,14 L53.0018986,14 C54.1054196,14 55,14.8877296 55,16 C55,17.1045695 54.1132936,18 53.0018986,18 L48.9981014,18 C47.8945804,18 47,17.1122704 47,16 Z M60,16 C60,14.8954305 60.8867064,14 61.9981014,14 L66.0018986,14 C67.1054196,14 68,14.8877296 68,16 C68,17.1045695 67.1132936,18 66.0018986,18 L61.9981014,18 C60.8945804,18 60,17.1122704 60,16 Z M73,16 C73,14.8954305 73.8867064,14 74.9981014,14 L79.0018986,14 C80.1054196,14 81,14.8877296 81,16 C81,17.1045695 80.1132936,18 79.0018986,18 L74.9981014,18 C73.8945804,18 73,17.1122704 73,16 Z M86,16 C86,14.8954305 86.8867064,14 87.9981014,14 L92.0018986,14 C93.1054196,14 94,14.8877296 94,16 C94,17.1045695 93.1132936,18 92.0018986,18 L87.9981014,18 C86.8945804,18 86,17.1122704 86,16 Z M99,16 C99,14.8954305 99.8867064,14 100.998101,14 L105.001899,14 C106.10542,14 107,14.8877296 107,16 C107,17.1045695 106.113294,18 105.001899,18 L100.998101,18 C99.8945804,18 99,17.1122704 99,16 Z"/>
    </g>
    <g transform="translate(92)">
      <rect width="110" height="168" x="2" y="2" fill="#FFFFFF" rx="10"/>
      <path fill="#EEEEEE" fill-rule="nonzero" d="M4,12.0060501 C4,9.79813241 4.89620547,7.73734639 6.45708404,6.23577652 C7.25310948,5.46999766 7.27762918,4.20390511 6.51185032,3.40787966 C5.74607145,2.61185422 4.4799789,2.58733452 3.68395346,3.35311338 C1.3471821,5.60109443 0,8.69888187 0,12.0060501 C0,13.1106196 0.8954305,14.0060501 2,14.0060501 C3.1045695,14.0060501 4,13.1106196 4,12.0060501 Z M14.3878855,4 L22.3878855,4 C23.492455,4 24.3878855,3.1045695 24.3878855,2 C24.3878855,0.8954305 23.492455,0 22.3878855,0 L14.3878855,0 C13.283316,0 12.3878855,0.8954305 12.3878855,2 C12.3878855,3.1045695 13.283316,4 14.3878855,4 Z M32.3878855,4 L40.3878855,4 C41.492455,4 42.3878855,3.1045695 42.3878855,2 C42.3878855,0.8954305 41.492455,0 40.3878855,0 L32.3878855,0 C31.283316,0 30.3878855,0.8954305 30.3878855,2 C30.3878855,3.1045695 31.283316,4 32.3878855,4 Z M50.3878855,4 L58.3878855,4 C59.492455,4 60.3878855,3.1045695 60.3878855,2 C60.3878855,0.8954305 59.492455,0 58.3878855,0 L50.3878855,0 C49.283316,0 48.3878855,0.8954305 48.3878855,2 C48.3878855,3.1045695 49.283316,4 50.3878855,4 Z M68.3878855,4 L76.3878855,4 C77.492455,4 78.3878855,3.1045695 78.3878855,2 C78.3878855,0.8954305 77.492455,0 76.3878855,0 L68.3878855,0 C67.283316,0 66.3878855,0.8954305 66.3878855,2 C66.3878855,3.1045695 67.283316,4 68.3878855,4 Z M86.3878855,4 L94.3878855,4 C95.492455,4 96.3878855,3.1045695 96.3878855,2 C96.3878855,0.8954305 95.492455,0 94.3878855,0 L86.3878855,0 C85.283316,0 84.3878855,0.8954305 84.3878855,2 C84.3878855,3.1045695 85.283316,4 86.3878855,4 Z M103.898651,4.22674886 C106.01346,4.74117527 107.828579,6.10693572 108.920218,7.98346663 C109.475637,8.93823513 110.699887,9.26197141 111.654655,8.70655184 C112.609424,8.15113228 112.93316,6.92688296 112.37774,5.97211446 C110.741501,3.15941206 108.0219,1.11308717 104.84408,0.340084011 C103.770807,0.0790109445 102.689106,0.737428969 102.428033,1.81070183 C102.16696,2.88397469 102.825378,3.96567579 103.898651,4.22674886 Z M110,16.7793436 L110,24.7793436 C110,25.8839131 110.895431,26.7793436 112,26.7793436 C113.104569,26.7793436 114,25.8839131 114,24.7793436 L114,16.7793436 C114,15.6747741 113.104569,14.7793436 112,14.7793436 C110.895431,14.7793436 110,15.6747741 110,16.7793436 Z M110,34.7793436 L110,42.7793436 C110,43.8839131 110.895431,44.7793436 112,44.7793436 C113.104569,44.7793436 114,43.8839131 114,42.7793436 L114,34.7793436 C114,33.6747741 113.104569,32.7793436 112,32.7793436 C110.895431,32.7793436 110,33.6747741 110,34.7793436 Z M110,52.7793436 L110,60.7793436 C110,61.8839131 110.895431,62.7793436 112,62.7793436 C113.104569,62.7793436 114,61.8839131 114,60.7793436 L114,52.7793436 C114,51.6747741 113.104569,50.7793436 112,50.7793436 C110.895431,50.7793436 110,51.6747741 110,52.7793436 Z M110,70.7793436 L110,78.7793436 C110,79.8839131 110.895431,80.7793436 112,80.7793436 C113.104569,80.7793436 114,79.8839131 114,78.7793436 L114,70.7793436 C114,69.6747741 113.104569,68.7793436 112,68.7793436 C110.895431,68.7793436 110,69.6747741 110,70.7793436 Z M110,88.7793436 L110,96.7793436 C110,97.8839131 110.895431,98.7793436 112,98.7793436 C113.104569,98.7793436 114,97.8839131 114,96.7793436 L114,88.7793436 C114,87.6747741 113.104569,86.7793436 112,86.7793436 C110.895431,86.7793436 110,87.6747741 110,88.7793436 Z M110,106.779344 L110,114.779344 C110,115.883913 110.895431,116.779344 112,116.779344 C113.104569,116.779344 114,115.883913 114,114.779344 L114,106.779344 C114,105.674774 113.104569,104.779344 112,104.779344 C110.895431,104.779344 110,105.674774 110,106.779344 Z M110,124.779344 L110,132.779344 C110,133.883913 110.895431,134.779344 112,134.779344 C113.104569,134.779344 114,133.883913 114,132.779344 L114,124.779344 C114,123.674774 113.104569,122.779344 112,122.779344 C110.895431,122.779344 110,123.674774 110,124.779344 Z M110,142.779344 L110,150.779344 C110,151.883913 110.895431,152.779344 112,152.779344 C113.104569,152.779344 114,151.883913 114,150.779344 L114,142.779344 C114,141.674774 113.104569,140.779344 112,140.779344 C110.895431,140.779344 110,141.674774 110,142.779344 Z M109.975629,160.624317 C109.805834,162.810284 108.748878,164.804598 107.072914,166.182348 C106.21965,166.883786 106.09657,168.14412 106.798008,168.997384 C107.499445,169.850648 108.75978,169.973727 109.613044,169.27229 C112.121854,167.209887 113.708716,164.215722 113.963616,160.934083 C114.049156,159.832831 113.225758,158.870746 112.124506,158.785207 C111.023253,158.699667 110.061168,159.523065 109.975629,160.624317 Z M98.8267208,168 L90.8267208,168 C89.7221513,168 88.8267208,168.895431 88.8267208,170 C88.8267208,171.104569 89.7221513,172 90.8267208,172 L98.8267208,172 C99.9312903,172 100.826721,171.104569 100.826721,170 C100.826721,168.895431 99.9312903,168 98.8267208,168 Z M80.8267208,168 L72.8267208,168 C71.7221513,168 70.8267208,168.895431 70.8267208,170 C70.8267208,171.104569 71.7221513,172 72.8267208,172 L80.8267208,172 C81.9312903,172 82.8267208,171.104569 82.8267208,170 C82.8267208,168.895431 81.9312903,168 80.8267208,168 Z M62.8267208,168 L54.8267208,168 C53.7221513,168 52.8267208,168.895431 52.8267208,170 C52.8267208,171.104569 53.7221513,172 54.8267208,172 L62.8267208,172 C63.9312903,172 64.8267208,171.104569 64.8267208,170 C64.8267208,168.895431 63.9312903,168 62.8267208,168 Z M44.8267208,168 L36.8267208,168 C35.7221513,168 34.8267208,168.895431 34.8267208,170 C34.8267208,171.104569 35.7221513,172 36.8267208,172 L44.8267208,172 C45.9312903,172 46.8267208,171.104569 46.8267208,170 C46.8267208,168.895431 45.9312903,168 44.8267208,168 Z M26.8267208,168 L18.8267208,168 C17.7221513,168 16.8267208,168.895431 16.8267208,170 C16.8267208,171.104569 17.7221513,172 18.8267208,172 L26.8267208,172 C27.9312903,172 28.8267208,171.104569 28.8267208,170 C28.8267208,168.895431 27.9312903,168 26.8267208,168 Z M9.49247719,167.599137 C7.42889857,166.918812 5.72235624,165.41403 4.78315918,163.456581 C4.30533409,162.460711 3.11066822,162.040753 2.11479826,162.518578 C1.11892831,162.996403 0.698969963,164.191069 1.17679505,165.186939 C2.58559858,168.123129 5.14081155,170.376245 8.24005572,171.398011 C9.28908569,171.743858 10.4198566,171.173815 10.7657032,170.124785 C11.1115499,169.075755 10.5415072,167.944984 9.49247719,167.599137 Z M4,154.435263 L4,146.435263 C4,145.330693 3.1045695,144.435263 2,144.435263 C0.8954305,144.435263 0,145.330693 0,146.435263 L0,154.435263 C0,155.539832 0.8954305,156.435263 2,156.435263 C3.1045695,156.435263 4,155.539832 4,154.435263 Z M4,136.435263 L4,128.435263 C4,127.330693 3.1045695,126.435263 2,126.435263 C0.8954305,126.435263 0,127.330693 0,128.435263 L0,136.435263 C0,137.539832 0.8954305,138.435263 2,138.435263 C3.1045695,138.435263 4,137.539832 4,136.435263 Z M4,118.435263 L4,110.435263 C4,109.330693 3.1045695,108.435263 2,108.435263 C0.8954305,108.435263 0,109.330693 0,110.435263 L0,118.435263 C0,119.539832 0.8954305,120.435263 2,120.435263 C3.1045695,120.435263 4,119.539832 4,118.435263 Z M4,100.435263 L4,92.4352627 C4,91.3306932 3.1045695,90.4352627 2,90.4352627 C0.8954305,90.4352627 0,91.3306932 0,92.4352627 L0,100.435263 C0,101.539832 0.8954305,102.435263 2,102.435263 C3.1045695,102.435263 4,101.539832 4,100.435263 Z M4,82.4352627 L4,74.4352627 C4,73.3306932 3.1045695,72.4352627 2,72.4352627 C0.8954305,72.4352627 0,73.3306932 0,74.4352627 L0,82.4352627 C0,83.5398322 0.8954305,84.4352627 2,84.4352627 C3.1045695,84.4352627 4,83.5398322 4,82.4352627 Z M4,64.4352627 L4,56.4352627 C4,55.3306932 3.1045695,54.4352627 2,54.4352627 C0.8954305,54.4352627 0,55.3306932 0,56.4352627 L0,64.4352627 C0,65.5398322 0.8954305,66.4352627 2,66.4352627 C3.1045695,66.4352627 4,65.5398322 4,64.4352627 Z M4,46.4352627 L4,38.4352627 C4,37.3306932 3.1045695,36.4352627 2,36.4352627 C0.8954305,36.4352627 0,37.3306932 0,38.4352627 L0,46.4352627 C0,47.5398322 0.8954305,48.4352627 2,48.4352627 C3.1045695,48.4352627 4,47.5398322 4,46.4352627 Z M4,28.4352627 L4,20.4352627 C4,19.3306932 3.1045695,18.4352627 2,18.4352627 C0.8954305,18.4352627 0,19.3306932 0,20.4352627 L0,28.4352627 C0,29.5398322 0.8954305,30.4352627 2,30.4352627 C3.1045695,30.4352627 4,29.5398322 4,28.4352627 Z"/>
      <g fill-rule="nonzero" transform="translate(35 68)">
        <path fill="#F0EDF8" d="M22,44 C9.8497355,44 0,34.1502645 0,22 C0,9.8497355 9.8497355,0 22,0 C34.1502645,0 44,9.8497355 44,22 C44,34.1502645 34.1502645,44 22,44 Z M22,38 C30.836556,38 38,30.836556 38,22 C38,13.163444 30.836556,6 22,6 C13.163444,6 6,13.163444 6,22 C6,30.836556 13.163444,38 22,38 Z"/>
        <path fill="#6B4FBB" d="M6.6923034,37.8011101 C10.7675156,41.7497426 16.2103451,44 22,44 C34.1502645,44 44,34.1502645 44,22 C44,9.8497355 34.1502645,0 22,0 L22,6 C30.836556,6 38,13.163444 38,22 C38,30.836556 30.836556,38 22,38 C17.7846887,38 13.8343735,36.3668006 10.867495,33.492076 L6.6923034,37.8011101 Z"/>
      </g>
      <path fill="#EEEEEE" d="M8,16 C8,14.8954305 8.88670635,14 9.99810135,14 L14.0018986,14 C15.1054196,14 16,14.8877296 16,16 C16,17.1045695 15.1132936,18 14.0018986,18 L9.99810135,18 C8.89458045,18 8,17.1122704 8,16 Z M21,16 C21,14.8954305 21.8867064,14 22.9981014,14 L27.0018986,14 C28.1054196,14 29,14.8877296 29,16 C29,17.1045695 28.1132936,18 27.0018986,18 L22.9981014,18 C21.8945804,18 21,17.1122704 21,16 Z M34,16 C34,14.8954305 34.8867064,14 35.9981014,14 L40.0018986,14 C41.1054196,14 42,14.8877296 42,16 C42,17.1045695 41.1132936,18 40.0018986,18 L35.9981014,18 C34.8945804,18 34,17.1122704 34,16 Z M47,16 C47,14.8954305 47.8867064,14 48.9981014,14 L53.0018986,14 C54.1054196,14 55,14.8877296 55,16 C55,17.1045695 54.1132936,18 53.0018986,18 L48.9981014,18 C47.8945804,18 47,17.1122704 47,16 Z M60,16 C60,14.8954305 60.8867064,14 61.9981014,14 L66.0018986,14 C67.1054196,14 68,14.8877296 68,16 C68,17.1045695 67.1132936,18 66.0018986,18 L61.9981014,18 C60.8945804,18 60,17.1122704 60,16 Z M73,16 C73,14.8954305 73.8867064,14 74.9981014,14 L79.0018986,14 C80.1054196,14 81,14.8877296 81,16 C81,17.1045695 80.1132936,18 79.0018986,18 L74.9981014,18 C73.8945804,18 73,17.1122704 73,16 Z M86,16 C86,14.8954305 86.8867064,14 87.9981014,14 L92.0018986,14 C93.1054196,14 94,14.8877296 94,16 C94,17.1045695 93.1132936,18 92.0018986,18 L87.9981014,18 C86.8945804,18 86,17.1122704 86,16 Z M99,16 C99,14.8954305 99.8867064,14 100.998101,14 L105.001899,14 C106.10542,14 107,14.8877296 107,16 C107,17.1045695 106.113294,18 105.001899,18 L100.998101,18 C99.8945804,18 99,17.1122704 99,16 Z"/>
    </g>
    <g transform="translate(0 29)">
      <rect width="110" height="168" x="2" y="2" fill="#FFFFFF" rx="10"/>
      <path fill="#EEEEEE" fill-rule="nonzero" d="M4,12.0060501 L4,159.99395 C4,164.420583 7.5808317,168 12.004525,168 L101.995475,168 C106.41397,168 110,164.414302 110,159.99395 L110,12.0060501 C110,7.57941739 106.419168,4 101.995475,4 L12.004525,4 C7.58603016,4 4,7.58569804 4,12.0060501 Z M0,12.0060501 C0,5.37647611 5.37697409,0 12.004525,0 L101.995475,0 C108.627954,0 114,5.36992458 114,12.0060501 L114,159.99395 C114,166.623524 108.623026,172 101.995475,172 L12.004525,172 C5.37204636,172 0,166.630075 0,159.99395 L0,12.0060501 Z"/>
      <g transform="translate(21 82)">
        <rect width="24" height="4" y="10" fill="#F0EDF8" rx="2"/>
        <rect width="14" height="4" x="5" fill="#6B4FBB" rx="2"/>
      </g>
      <g transform="translate(69 82)">
        <rect width="24" height="4" y="10" fill="#F0EDF8" rx="2"/>
        <rect width="14" height="4" x="5" fill="#6B4FBB" rx="2"/>
      </g>
      <g transform="translate(38 42)">
        <rect width="22" height="4" x="8" fill="#FEE1D3" rx="2"/>
        <rect width="38" height="4" y="12" fill="#FB722E" rx="2"/>
      </g>
      <rect width="106" height="4" x="4" y="14" fill="#EEEEEE"/>
      <path fill="#333333" d="M35.724,138 L45.42,138 L45.42,135.144 L42.564,135.144 L42.564,122.76 L39.972,122.76 C38.892,123.408 37.836,123.84 36.18,124.152 L36.18,126.336 L39.036,126.336 L39.036,135.144 L35.724,135.144 L35.724,138 Z M53.46,138.288 C50.508,138.288 47.7,136.08 47.7,130.728 C47.7,125.04 50.652,122.472 53.868,122.472 C55.884,122.472 57.348,123.312 58.308,124.296 L56.46,126.408 C55.932,125.832 54.972,125.328 54.084,125.328 C52.404,125.328 51.06,126.528 50.94,130.08 C51.732,129.072 53.052,128.472 53.988,128.472 C56.604,128.472 58.524,129.96 58.524,133.176 C58.524,136.344 56.22,138.288 53.46,138.288 Z M53.388,135.648 C54.444,135.648 55.308,134.904 55.308,133.176 C55.308,131.568 54.468,130.968 53.316,130.968 C52.524,130.968 51.636,131.4 51.012,132.48 C51.324,134.88 52.332,135.648 53.388,135.648 Z M63.9,132 C61.644,132 60.012,130.152 60.012,127.008 C60.012,123.888 61.644,122.064 63.9,122.064 C66.156,122.064 67.812,123.888 67.812,127.008 C67.812,130.152 66.156,132 63.9,132 Z M63.9,130.032 C64.692,130.032 65.34,129.24 65.34,127.008 C65.34,124.776 64.692,124.032 63.9,124.032 C63.108,124.032 62.46,124.776 62.46,127.008 C62.46,129.24 63.108,130.032 63.9,130.032 Z M64.428,138.288 L72.876,122.064 L74.916,122.064 L66.468,138.288 L64.428,138.288 Z M75.444,138.288 C73.188,138.288 71.556,136.44 71.556,133.296 C71.556,130.176 73.188,128.352 75.444,128.352 C77.7,128.352 79.356,130.176 79.356,133.296 C79.356,136.44 77.7,138.288 75.444,138.288 Z M75.444,136.32 C76.236,136.32 76.884,135.528 76.884,133.296 C76.884,131.064 76.236,130.32 75.444,130.32 C74.652,130.32 74.004,131.064 74.004,133.296 C74.004,135.528 74.652,136.32 75.444,136.32 Z"/>
    </g>
  </g>
</svg>
