<svg xmlns="http://www.w3.org/2000/svg" width="214" height="102" viewBox="0 0 214 102" xmlns:xlink="http://www.w3.org/1999/xlink"><defs><filter id="a" width="106.9%" height="104%" x="-5.2%" y="-3%" filterUnits="objectBoundingBox"><feOffset dx="-2" dy="-2" in="SourceAlpha" result="shadowOffsetOuter1"/><feColorMatrix values="0 0 0 0 0 0 0 0 0 0 0 0 0 0 0 0 0 0 0.05 0" in="shadowOffsetOuter1" result="shadowMatrixOuter1"/><feMerge><feMergeNode in="shadowMatrixOuter1"/><feMergeNode in="SourceGraphic"/></feMerge></filter><path id="c" d="M2 0h44a2 2 0 0 1 2 2v25a2 2 0 0 1-2 2H2a2 2 0 0 1-2-2V2a2 2 0 0 1 2-2z"/><filter id="b" width="102.1%" height="106.9%" x="-1%" y="-1.7%" filterUnits="objectBoundingBox"><feOffset dy="1" in="SourceAlpha" result="shadowOffsetOuter1"/><feColorMatrix values="0 0 0 0 0 0 0 0 0 0 0 0 0 0 0 0 0 0 0.05 0" in="shadowOffsetOuter1"/></filter><path id="e" d="M2 0h44a2 2 0 0 1 2 2v24a2 2 0 0 1-2 2H2a2 2 0 0 1-2-2V2a2 2 0 0 1 2-2z"/><filter id="d" width="102.1%" height="107.1%" x="-1%" y="-1.8%" filterUnits="objectBoundingBox"><feOffset dy="1" in="SourceAlpha" result="shadowOffsetOuter1"/><feColorMatrix values="0 0 0 0 0 0 0 0 0 0 0 0 0 0 0 0 0 0 0.05 0" in="shadowOffsetOuter1"/></filter><filter id="f" width="106.9%" height="104.2%" x="-5.2%" y="-3.1%" filterUnits="objectBoundingBox"><feOffset dx="-2" dy="-2" in="SourceAlpha" result="shadowOffsetOuter1"/><feColorMatrix values="0 0 0 0 0 0 0 0 0 0 0 0 0 0 0 0 0 0 0.05 0" in="shadowOffsetOuter1" result="shadowMatrixOuter1"/><feMerge><feMergeNode in="shadowMatrixOuter1"/><feMergeNode in="SourceGraphic"/></feMerge></filter><path id="g" d="M5 0h48a5 5 0 0 1 5 5v86a5 5 0 0 1-5 5H5a5 5 0 0 1-5-5V5a5 5 0 0 1 5-5z"/><path id="j" d="M2 0h44a2 2 0 0 1 2 2v24a2 2 0 0 1-2 2H2a2 2 0 0 1-2-2V2a2 2 0 0 1 2-2z"/><filter id="i" width="102.1%" height="107.1%" x="-1%" y="-1.8%" filterUnits="objectBoundingBox"><feOffset dy="1" in="SourceAlpha" result="shadowOffsetOuter1"/><feColorMatrix values="0 0 0 0 0 0 0 0 0 0 0 0 0 0 0 0 0 0 0.05 0" in="shadowOffsetOuter1"/></filter><path id="l" d="M2 0h44a2 2 0 0 1 2 2v24a2 2 0 0 1-2 2H2a2 2 0 0 1-2-2V2a2 2 0 0 1 2-2z"/><filter id="k" width="102.1%" height="107.1%" x="-1%" y="-1.8%" filterUnits="objectBoundingBox"><feOffset dy="1" in="SourceAlpha" result="shadowOffsetOuter1"/><feColorMatrix values="0 0 0 0 0 0 0 0 0 0 0 0 0 0 0 0 0 0 0.05 0" in="shadowOffsetOuter1"/></filter><filter id="m" width="106.9%" height="104.9%" x="-5.2%" y="-2.9%" filterUnits="objectBoundingBox"><feOffset dx="-2" dy="-2" in="SourceAlpha" result="shadowOffsetOuter1"/><feColorMatrix values="0 0 0 0 0 0 0 0 0 0 0 0 0 0 0 0 0 0 0.05 0" in="shadowOffsetOuter1" result="shadowMatrixOuter1"/><feMerge><feMergeNode in="shadowMatrixOuter1"/><feMergeNode in="SourceGraphic"/></feMerge></filter><path id="o" d="M2 0h44a2 2 0 0 1 2 2v24a2 2 0 0 1-2 2H2a2 2 0 0 1-2-2V2a2 2 0 0 1 2-2z"/><filter id="n" width="102.1%" height="107.1%" x="-1%" y="-1.8%" filterUnits="objectBoundingBox"><feOffset dy="1" in="SourceAlpha" result="shadowOffsetOuter1"/><feColorMatrix values="0 0 0 0 0 0 0 0 0 0 0 0 0 0 0 0 0 0 0.05 0" in="shadowOffsetOuter1"/></filter><path id="q" d="M2 0h44a2 2 0 0 1 2 2v24a2 2 0 0 1-2 2H2a2 2 0 0 1-2-2V2a2 2 0 0 1 2-2z"/><filter id="p" width="102.1%" height="107.1%" x="-1%" y="-1.8%" filterUnits="objectBoundingBox"><feOffset dy="1" in="SourceAlpha" result="shadowOffsetOuter1"/><feColorMatrix values="0 0 0 0 0 0 0 0 0 0 0 0 0 0 0 0 0 0 0.05 0" in="shadowOffsetOuter1"/></filter><path id="s" d="M2 0h44a2 2 0 0 1 2 2v24a2 2 0 0 1-2 2H2a2 2 0 0 1-2-2V2a2 2 0 0 1 2-2z"/><filter id="r" width="102.1%" height="107.1%" x="-1%" y="-1.8%" filterUnits="objectBoundingBox"><feOffset dy="1" in="SourceAlpha" result="shadowOffsetOuter1"/><feColorMatrix values="0 0 0 0 0 0 0 0 0 0 0 0 0 0 0 0 0 0 0.05 0" in="shadowOffsetOuter1"/></filter></defs><g fill="none" fill-rule="evenodd"><g filter="url(#a)" transform="translate(11 23)"><path fill="#FFF" d="M5 0h48a5 5 0 0 1 5 5v86a5 5 0 0 1-5 5H5a5 5 0 0 1-5-5V5a5 5 0 0 1 5-5z"/><path fill="#FC6D26" d="M4 0h50a4 4 0 0 1 4 4H0a4 4 0 0 1 4-4z"/><g transform="translate(5 10)"><use fill="#000" filter="url(#b)" xlink:href="#c"/><use fill="#F9F9F9" xlink:href="#c"/></g><g transform="translate(5 42)"><use fill="#000" filter="url(#d)" xlink:href="#e"/><use fill="#FEF0E8" xlink:href="#e"/><path fill="#FEE1D3" d="M9 8h24a2 2 0 1 1 0 4H9a2 2 0 1 1 0-4z"/><path fill="#FDC4A8" d="M9 17h8a2 2 0 1 1 0 4H9a2 2 0 1 1 0-4z"/><path fill="#FC6D26" d="M24 17h8a2 2 0 1 1 0 4h-8a2 2 0 1 1 0-4z"/></g></g><g filter="url(#f)" transform="translate(145 28)"><mask id="h" fill="#fff"><use xlink:href="#g"/></mask><use fill="#FFF" xlink:href="#g"/><path fill="#FC6D26" d="M4 0h50a4 4 0 0 1 4 4H0a4 4 0 0 1 4-4z" mask="url(#h)"/><g transform="translate(5 10)"><use fill="#000" filter="url(#i)" xlink:href="#j"/><use fill="#F9F9F9" xlink:href="#j"/></g><g transform="translate(5 42)"><use fill="#000" filter="url(#k)" xlink:href="#l"/><use fill="#FEF0E8" xlink:href="#l"/><path fill="#FEE1D3" d="M9 8h24a2 2 0 1 1 0 4H9a2 2 0 1 1 0-4zm0 9h4a2 2 0 1 1 0 4H9a2 2 0 1 1 0-4z"/><path fill="#FC6D26" d="M20 17h4a2 2 0 1 1 0 4h-4a2 2 0 1 1 0-4z"/><path fill="#FDC4A8" d="M31 17h4a2 2 0 1 1 0 4h-4a2 2 0 1 1 0-4z"/></g></g><g filter="url(#m)" transform="translate(78 16)"><path fill="#FFF" d="M5 0h48a5 5 0 0 1 5 5v86a5 5 0 0 1-5 5H5a5 5 0 0 1-5-5V5a5 5 0 0 1 5-5z"/><g transform="translate(5 10)"><use fill="#000" filter="url(#n)" xlink:href="#o"/><use fill="#EFEDF8" xlink:href="#o"/><path fill="#E1DBF1" d="M9 8h24a2 2 0 1 1 0 4H9a2 2 0 1 1 0-4z"/><path fill="#6B4FBB" d="M9 17h4a2 2 0 1 1 0 4H9a2 2 0 1 1 0-4z"/><path fill="#C3B8E3" d="M20 17h8a2 2 0 1 1 0 4h-8a2 2 0 1 1 0-4z"/></g><g transform="translate(5 42)"><use fill="#000" filter="url(#p)" xlink:href="#q"/><use fill="#F9F9F9" xlink:href="#q"/></g><g transform="translate(5 74)"><rect width="34" height="4" x="7" y="7" fill="#E1DBF1" rx="2"/><use fill="#000" filter="url(#r)" xlink:href="#s"/><use fill="#F9F9F9" xlink:href="#s"/></g><path fill="#6B4FBB" d="M4 0h50a4 4 0 0 1 4 4H0a4 4 0 0 1 4-4z"/></g></g></svg>