<?xml version="1.0" encoding="utf-8"?>
<!-- Generator: Adobe Illustrator 24.0.1, SVG Export Plug-In . SVG Version: 6.00 Build 0)  -->
<svg version="1.1" id="Layer_1" xmlns="http://www.w3.org/2000/svg" xmlns:xlink="http://www.w3.org/1999/xlink" x="0px" y="0px"
	 viewBox="0 0 600 400" style="enable-background:new 0 0 600 400;" xml:space="preserve">
<style type="text/css">
	.st0{fill:#E5E5E5;}
	.st1{fill:#F9F9F9;}
	.st2{fill:#FFFFFF;}
	.st3{fill:#EEEEEE;}
	.st4{fill:#E1DBF1;}
	.st5{fill:#FEE1D3;}
	.st6{fill:#FC6D26;}
	.st7{fill:#FEF0E8;}
	.st8{fill:#EFEDF8;}
	.st9{fill:#6B4FBB;}
	.st10{fill:#C3B8E3;}
	.st11{fill-rule:evenodd;clip-rule:evenodd;fill:#FC6D26;}
	.st12{fill-rule:evenodd;clip-rule:evenodd;fill:#E24329;}
	.st13{fill-rule:evenodd;clip-rule:evenodd;fill:#FCA326;}
	.st14{fill-rule:evenodd;clip-rule:evenodd;fill:#FFFFFF;}
	.st15{fill-rule:evenodd;clip-rule:evenodd;fill:#6B4FBB;}
	.st16{fill:#FDC4A8;}
	.st17{fill-rule:evenodd;clip-rule:evenodd;fill:#E1DBF1;}
	.st18{fill-rule:evenodd;clip-rule:evenodd;fill:#C3B8E3;}
</style>
<path class="st0" d="M252.6,200c0-2.3,1.9-4.2,4.2-4.2h8.5c2.3,0,4.2,1.9,4.2,4.2c0,2.3-1.9,4.2-4.2,4.2h-8.5
	C254.5,204.2,252.6,202.4,252.6,200C252.6,200,252.6,200,252.6,200z M282.3,200c0-2.3,1.9-4.2,4.2-4.2h8.5c2.3,0,4.2,1.9,4.2,4.2
	c0,2.3-1.9,4.2-4.2,4.2h-8.5C284.2,204.2,282.3,202.4,282.3,200C282.3,200,282.3,200,282.3,200z"/>
<g>
	<path class="st1" d="M337.3,64.8h202.8c11.7,0,21.1,9.5,21.1,21.1v242.9c0,11.7-9.5,21.1-21.1,21.1H337.3
		c-11.7,0-21.1-9.5-21.1-21.1V85.9C316.2,74.3,325.7,64.8,337.3,64.8z"/>
	<path class="st2" d="M347.9,54.2h202.8c11.7,0,21.1,9.5,21.1,21.1v240.8c0,11.7-9.5,21.1-21.1,21.1H347.9
		c-11.7,0-21.1-9.5-21.1-21.1V75.4C326.8,63.7,336.2,54.2,347.9,54.2z"/>
	<path class="st3" d="M347.9,58.5c-9.3,0-16.9,7.6-16.9,16.9v240.8c0,9.3,7.6,16.9,16.9,16.9h202.8c9.3,0,16.9-7.6,16.9-16.9V75.4
		c0-9.3-7.6-16.9-16.9-16.9L347.9,58.5L347.9,58.5z M347.9,50h202.8c14,0,25.3,11.3,25.3,25.3v240.8c0,14-11.3,25.3-25.3,25.3H347.9
		c-14,0-25.3-11.4-25.3-25.3V75.4C322.5,61.4,333.9,50,347.9,50z"/>
	<path class="st4" d="M369,102.8h25.3c2.3,0,4.2,1.9,4.2,4.2s-1.9,4.2-4.2,4.2H369c-2.3,0-4.2-1.9-4.2-4.2S366.7,102.8,369,102.8z
		 M436.6,128.2h25.3c2.3,0,4.2,1.9,4.2,4.2s-1.9,4.2-4.2,4.2h-25.3c-2.3,0-4.2-1.9-4.2-4.2S434.3,128.2,436.6,128.2z"/>
	<path class="st3" d="M462,102.8h25.3c2.3,0,4.2,1.9,4.2,4.2s-1.9,4.2-4.2,4.2H462c-2.3,0-4.2-1.9-4.2-4.2
		C457.7,104.7,459.6,102.8,462,102.8z"/>
	<path class="st4" d="M394.4,153.5h25.3c2.3,0,4.2,1.9,4.2,4.2s-1.9,4.2-4.2,4.2h-25.3c-2.3,0-4.2-1.9-4.2-4.2
		C390.1,155.4,392,153.5,394.4,153.5z"/>
	<path class="st5" d="M411.2,102.8h8.5c2.3,0,4.2,1.9,4.2,4.2s-1.9,4.2-4.2,4.2h-8.5c-2.3,0-4.2-1.9-4.2-4.2
		S408.9,102.8,411.2,102.8z"/>
	<path class="st6" d="M436.6,178.9h8.5c2.3,0,4.2,1.9,4.2,4.2s-1.9,4.2-4.2,4.2h-8.5c-2.3,0-4.2-1.9-4.2-4.2
		S434.3,178.9,436.6,178.9z"/>
	<path class="st7" d="M478.8,128.2h8.5c2.3,0,4.2,1.9,4.2,4.2s-1.9,4.2-4.2,4.2h-8.5c-2.3,0-4.2-1.9-4.2-4.2
		S476.5,128.2,478.8,128.2z M504.2,102.8h8.5c2.3,0,4.2,1.9,4.2,4.2s-1.9,4.2-4.2,4.2h-8.5c-2.3,0-4.2-1.9-4.2-4.2
		S501.9,102.8,504.2,102.8z"/>
	<path class="st4" d="M402.8,204.2h16.9c2.3,0,4.2,1.9,4.2,4.2s-1.9,4.2-4.2,4.2h-16.9c-2.3,0-4.2-1.9-4.2-4.2
		C398.6,206.1,400.5,204.2,402.8,204.2z"/>
	<path class="st6" d="M462,178.9h8.5c2.3,0,4.2,1.9,4.2,4.2s-1.9,4.2-4.2,4.2H462c-2.3,0-4.2-1.9-4.2-4.2
		C457.7,180.8,459.6,178.9,462,178.9z"/>
	<path class="st4" d="M505.2,170.4c2.9,0,5.3,2.4,5.3,5.3s-2.4,5.3-5.3,5.3s-5.3-2.4-5.3-5.3C500,172.8,502.3,170.4,505.2,170.4z
		 M526.4,231.7c2.9,0,5.3,2.4,5.3,5.3s-2.4,5.3-5.3,5.3s-5.3-2.4-5.3-5.3C521.1,234.1,523.5,231.7,526.4,231.7z"/>
	<path class="st6" d="M545.4,231.7c2.9,0,5.3,2.4,5.3,5.3s-2.4,5.3-5.3,5.3s-5.3-2.4-5.3-5.3C540.1,234.1,542.5,231.7,545.4,231.7z
		 M436.6,102.8h8.5c2.3,0,4.2,1.9,4.2,4.2s-1.9,4.2-4.2,4.2h-8.5c-2.3,0-4.2-1.9-4.2-4.2S434.3,102.8,436.6,102.8z"/>
	<path class="st3" d="M369,178.9h50.7c2.3,0,4.2,1.9,4.2,4.2s-1.9,4.2-4.2,4.2H369c-2.3,0-4.2-1.9-4.2-4.2S366.7,178.9,369,178.9z
		 M475.5,200h61.6c2.8,0,5.1,2.4,5.1,5.3s-2.3,5.3-5.1,5.3h-61.5c-2.8,0-5.1-2.4-5.1-5.3S472.7,200,475.5,200L475.5,200L475.5,200z"
		/>
	<path class="st8" d="M443.9,231.7h61.5c2.8,0,5.1,2.4,5.1,5.3s-2.3,5.3-5.1,5.3h-61.5c-2.8,0-5.1-2.4-5.1-5.3
		C438.7,234.1,441,231.7,443.9,231.7L443.9,231.7L443.9,231.7z"/>
	<path class="st9" d="M369,128.2h50.7c2.3,0,4.2,1.9,4.2,4.2s-1.9,4.2-4.2,4.2H369c-2.3,0-4.2-1.9-4.2-4.2S366.7,128.2,369,128.2z"
		/>
	<path class="st10" d="M436.6,153.5h50.7c2.3,0,4.2,1.9,4.2,4.2s-1.9,4.2-4.2,4.2h-50.7c-2.3,0-4.2-1.9-4.2-4.2
		C432.4,155.4,434.3,153.5,436.6,153.5z"/>
	<path class="st7" d="M369,153.5h8.5c2.3,0,4.2,1.9,4.2,4.2s-1.9,4.2-4.2,4.2H369c-2.3,0-4.2-1.9-4.2-4.2
		C364.8,155.4,366.7,153.5,369,153.5z"/>
	<path class="st9" d="M436.6,204.2h8.5c2.3,0,4.2,1.9,4.2,4.2s-1.9,4.2-4.2,4.2h-8.5c-2.3,0-4.2-1.9-4.2-4.2
		C432.4,206.1,434.3,204.2,436.6,204.2z"/>
	<path class="st6" d="M369,204.2h16.9c2.3,0,4.2,1.9,4.2,4.2s-1.9,4.2-4.2,4.2H369c-2.3,0-4.2-1.9-4.2-4.2
		C364.8,206.1,366.7,204.2,369,204.2z"/>
	<path class="st7" d="M369,229.6h16.9c2.3,0,4.2,1.9,4.2,4.2s-1.9,4.2-4.2,4.2H369c-2.3,0-4.2-1.9-4.2-4.2S366.7,229.6,369,229.6z
		 M402.8,229.6h16.9c2.3,0,4.2,1.9,4.2,4.2s-1.9,4.2-4.2,4.2h-16.9c-2.3,0-4.2-1.9-4.2-4.2S400.5,229.6,402.8,229.6z"/>
	<path class="st8" d="M369,254.9h25.3c2.3,0,4.2,1.9,4.2,4.2c0,2.3-1.9,4.2-4.2,4.2H369c-2.3,0-4.2-1.9-4.2-4.2
		C364.8,256.8,366.7,254.9,369,254.9z"/>
	<path class="st6" d="M407.8,280.3h30.1c2.8,0,5,1.9,5,4.2c0,2.3-2.2,4.2-5,4.2h-30.1c-2.8,0-5-1.9-5-4.2
		C402.8,282.2,405,280.3,407.8,280.3z"/>
	<path class="st9" d="M475.4,261.2h30.1c2.8,0,5,2.4,5,5.3s-2.2,5.3-5,5.3h-30.1c-2.8,0-5-2.4-5-5.3
		C470.4,263.6,472.6,261.2,475.4,261.2z"/>
	<path class="st5" d="M411.2,254.9h8.5c2.3,0,4.2,1.9,4.2,4.2c0,2.3-1.9,4.2-4.2,4.2h-8.5c-2.3,0-4.2-1.9-4.2-4.2
		C407,256.8,408.9,254.9,411.2,254.9z"/>
	<path class="st7" d="M449.3,280.3h8.5c2.3,0,4.2,1.9,4.2,4.2s-1.9,4.2-4.2,4.2h-8.5c-2.3,0-4.2-1.9-4.2-4.2S447,280.3,449.3,280.3z
		 M526.4,261.2h10.6c2.9,0,5.3,2.4,5.3,5.3s-2.4,5.3-5.3,5.3h-10.6c-2.9,0-5.3-2.4-5.3-5.3C521.1,263.6,523.5,261.2,526.4,261.2z"/>
	<path class="st6" d="M444,261.2h10.6c2.9,0,5.3,2.4,5.3,5.3s-2.4,5.3-5.3,5.3H444c-2.9,0-5.3-2.4-5.3-5.3
		C438.7,263.6,441.1,261.2,444,261.2z"/>
	<path class="st3" d="M369,280.3h21.1c2.3,0,4.2,1.9,4.2,4.2s-1.9,4.2-4.2,4.2H369c-2.3,0-4.2-1.9-4.2-4.2S366.7,280.3,369,280.3z"
		/>
	<circle class="st2" cx="449.1" cy="187.9" r="73.9"/>
	<path class="st3" d="M449.1,261.8c-40.8,0-73.9-33.1-73.9-73.9s33.1-73.9,73.9-73.9s73.9,33.1,73.9,73.9S490,261.8,449.1,261.8z
		 M449.1,253.4c36.2,0,65.5-29.3,65.5-65.5s-29.3-65.5-65.5-65.5s-65.5,29.3-65.5,65.5S413,253.4,449.1,253.4z"/>
	<g>
		<path class="st11" d="M484.5,192.6l-4-12.2l-7.9-24.2c-0.4-1.2-2.1-1.2-2.6,0l-7.8,24.2h-26.1l-7.9-24.2c-0.4-1.2-2.1-1.2-2.6,0
			l-7.9,24.2l-4,12.2c-0.4,1.1,0,2.3,1,3l34.3,24.9l34.3-24.9C484.4,194.9,484.8,193.7,484.5,192.6"/>
		<path class="st12" d="M449.1,220.5l13-40.1h-26.1L449.1,220.5z"/>
		<path class="st11" d="M449.1,220.5l-13-40.1h-18.3L449.1,220.5z"/>
		<path class="st13" d="M417.8,180.4l-4,12.2c-0.4,1.1,0,2.3,1,3l34.3,24.9L417.8,180.4z"/>
		<path class="st12" d="M417.8,180.4h18.3l-7.9-24.2c-0.4-1.2-2.1-1.2-2.6,0L417.8,180.4z"/>
		<path class="st11" d="M449.1,220.5l13-40.1h18.3L449.1,220.5z"/>
		<path class="st13" d="M480.5,180.4l4,12.2c0.4,1.1,0,2.3-1,3l-34.3,24.9L480.5,180.4z"/>
		<path class="st12" d="M480.5,180.4h-18.3l7.9-24.2c0.4-1.2,2.1-1.2,2.6,0L480.5,180.4z"/>
	</g>
</g>
<g>
	<g transform="translate(5 74)">
		<path class="st14" d="M48.9,176.6h32.2c10.2,0,18.4,8.2,18.4,18.4v32.2c0,10.1-8.2,18.4-18.4,18.4H48.9
			c-10.1,0-18.4-8.2-18.4-18.4v-32.2C30.5,184.8,38.7,176.6,48.9,176.6z"/>
		<path class="st4" d="M48.9,185.8c-5.1,0-9.2,4.1-9.2,9.2v32.2c0,5.1,4.1,9.2,9.2,9.2h32.2c5.1,0,9.2-4.1,9.2-9.2v-32.2
			c0-5.1-4.1-9.2-9.2-9.2H48.9z M48.9,176.6h32.2c10.2,0,18.4,8.2,18.4,18.4v32.2c0,10.1-8.2,18.4-18.4,18.4H48.9
			c-10.1,0-18.4-8.2-18.4-18.4v-32.2C30.5,184.8,38.7,176.6,48.9,176.6z"/>
		<path class="st15" d="M65,199.5L65,199.5c6.3,0,11.5,5.1,11.5,11.5l0,0c0,6.4-5.1,11.5-11.5,11.5l0,0c-6.3,0-11.5-5.1-11.5-11.5
			l0,0C53.5,204.7,58.6,199.5,65,199.5z"/>
	</g>
	<path class="st14" d="M37.8,89.7c-2.5,0-4.6,2.1-4.6,4.6v27.6c0,2.5,2.1,4.6,4.6,4.6h27.6c2.5,0,4.6-2.1,4.6-4.6V94.3
		c0-2.5-2.1-4.6-4.6-4.6H37.8z"/>
	<path class="st16" d="M37.8,89.7c-2.5,0-4.6,2.1-4.6,4.6v27.6c0,2.5,2.1,4.6,4.6,4.6h27.6c2.5,0,4.6-2.1,4.6-4.6V94.3
		c0-2.5-2.1-4.6-4.6-4.6H37.8z M37.8,80.5h27.6c7.6,0,13.8,6.2,13.8,13.8v27.6c0,7.6-6.2,13.8-13.8,13.8H37.8
		c-7.6,0-13.8-6.2-13.8-13.8V94.3C24,86.7,30.2,80.5,37.8,80.5z"/>
	<path class="st11" d="M51.6,98.9L51.6,98.9c5.1,0,9.2,4.1,9.2,9.2l0,0c0,5.1-4.1,9.2-9.2,9.2l0,0c-5.1,0-9.2-4.1-9.2-9.2l0,0
		C42.4,103,46.5,98.9,51.6,98.9z"/>
	<g transform="translate(46 29)">
		<path class="st17" d="M106.7,122.7h59.8c12.7,0,23,10.3,23,23v59.8c0,12.7-10.3,23-23,23h-59.8c-12.7,0-23-10.3-23-23v-59.8
			C83.7,133,94,122.7,106.7,122.7z"/>
		<path class="st17" d="M106.7,118.1h59.8c12.7,0,23,10.3,23,23v59.8c0,12.7-10.3,23-23,23h-59.8c-12.7,0-23-10.3-23-23v-59.8
			C83.7,128.4,94,118.1,106.7,118.1z"/>
		<path class="st10" d="M106.7,127.3c-7.6,0-13.8,6.2-13.8,13.8v59.8c0,7.6,6.2,13.8,13.8,13.8h59.8c7.6,0,13.8-6.2,13.8-13.8v-59.8
			c0-7.6-6.2-13.8-13.8-13.8C166.4,127.3,106.7,127.3,106.7,127.3z M106.7,118.1h59.8c12.7,0,23,10.3,23,23v59.8
			c0,12.7-10.3,23-23,23h-59.8c-12.7,0-23-10.3-23-23v-59.8C83.7,128.4,94,118.1,106.7,118.1z"/>
		<path class="st15" d="M125.1,154.9h23c2.5,0,4.6,2.1,4.6,4.6v23c0,2.5-2.1,4.6-4.6,4.6h-23c-2.5,0-4.6-2.1-4.6-4.6v-23
			C120.5,157,122.5,154.9,125.1,154.9z"/>
	</g>
	<path class="st10" d="M121.5,286.6c-1.8,1.8-4.7,1.8-6.5,0c-1.8-1.8-1.8-4.7,0-6.5l4.9-4.9c1.8-1.8,4.7-1.8,6.5,0
		c1.8,1.8,1.8,4.7,0,6.5L121.5,286.6z"/>
	<path class="st17" d="M136.1,272c-1.8,1.8-4.7,1.8-6.5,0c-1.8-1.8-1.8-4.7,0-6.5l4.9-4.9c1.8-1.8,4.7-1.8,6.5,0
		c1.8,1.8,1.8,4.7,0,6.5L136.1,272z"/>
	<path class="st4" d="M87.7,141.5c-1.9-1.6-2.2-4.5-0.6-6.5c1.6-1.9,4.5-2.2,6.5-0.6l5.3,4.4c1.9,1.6,2.2,4.5,0.6,6.5
		c-1.6,1.9-4.5,2.2-6.5,0.6L87.7,141.5z"/>
	<path class="st18" d="M103.5,154.8c-1.9-1.6-2.2-4.5-0.6-6.5c1.6-1.9,4.5-2.2,6.5-0.6l5.3,4.4c1.9,1.6,2.2,4.5,0.6,6.5
		s-4.5,2.2-6.5,0.6L103.5,154.8z"/>
</g>
</svg>
