<?xml version="1.0" encoding="utf-8"?>
<!-- Generator: Adobe Illustrator 24.0.1, SVG Export Plug-In . SVG Version: 6.00 Build 0)  -->
<svg version="1.1" id="Layer_1" xmlns="http://www.w3.org/2000/svg" xmlns:xlink="http://www.w3.org/1999/xlink" x="0px" y="0px"
	 viewBox="0 0 600 400" style="enable-background:new 0 0 600 400;" xml:space="preserve">
<style type="text/css">
	.st0{fill:#E5E5E5;}
	.st1{fill:#F9F9F9;}
	.st2{fill:#FFFFFF;}
	.st3{fill:#EEEEEE;}
	.st4{fill:#E1DBF1;}
	.st5{fill:#FEE1D3;}
	.st6{fill:#FC6D26;}
	.st7{fill:#FEF0E8;}
	.st8{fill:#EFEDF8;}
	.st9{fill:#6B4FBB;}
	.st10{fill:#C3B8E3;}
	.st11{fill-rule:evenodd;clip-rule:evenodd;fill:#FC6D26;}
	.st12{fill-rule:evenodd;clip-rule:evenodd;fill:#E24329;}
	.st13{fill-rule:evenodd;clip-rule:evenodd;fill:#FCA326;}
</style>
<path class="st0" d="M276.63,200c0-2.34,1.88-4.24,4.23-4.24h8.48c2.34,0,4.23,1.88,4.23,4.24c0,2.34-1.88,4.24-4.23,4.24h-8.48
	c-2.33,0-4.23-1.88-4.23-4.22C276.63,200.01,276.63,200.01,276.63,200z M306.3,200c0-2.34,1.88-4.24,4.23-4.24h8.48
	c2.34,0,4.23,1.88,4.23,4.24c0,2.34-1.88,4.24-4.23,4.24h-8.48c-2.33,0-4.23-1.88-4.23-4.22C306.3,200.01,306.3,200.01,306.3,200z"
	/>
<g>
	<path class="st1" d="M21.19,64.38h203.43c11.7,0,21.19,9.49,21.19,21.19v243.69c0,11.7-9.49,21.19-21.19,21.19H21.19
		C9.49,350.45,0,340.96,0,329.26V85.57C0,73.87,9.49,64.38,21.19,64.38z"/>
	<path class="st2" d="M31.79,53.79h203.43c11.7,0,21.19,9.49,21.19,21.19v241.57c0,11.7-9.49,21.19-21.19,21.19H31.79
		c-11.7,0-21.19-9.49-21.19-21.19V74.98C10.6,63.27,20.08,53.79,31.79,53.79z"/>
	<path class="st3" d="M31.79,58.02c-9.36,0-16.95,7.59-16.95,16.95v241.57c0,9.36,7.59,16.95,16.95,16.95h203.43
		c9.36,0,16.95-7.59,16.95-16.95V74.98c0-9.36-7.59-16.95-16.95-16.95H31.79z M31.79,49.55h203.43c14.04,0,25.43,11.39,25.43,25.43
		v241.57c0,14.04-11.39,25.43-25.43,25.43H31.79c-14.04,0-25.43-11.39-25.43-25.43V74.98C6.36,60.93,17.74,49.55,31.79,49.55z"/>
	<path class="st4" d="M52.98,102.52H78.4c2.34,0,4.24,1.9,4.24,4.24c0,2.34-1.9,4.24-4.24,4.24H52.98c-2.34,0-4.24-1.9-4.24-4.24
		C48.74,104.42,50.64,102.52,52.98,102.52z M120.79,127.95h25.43c2.34,0,4.24,1.9,4.24,4.24c0,2.34-1.9,4.24-4.24,4.24h-25.43
		c-2.34,0-4.24-1.9-4.24-4.24C116.55,129.85,118.44,127.95,120.79,127.95z"/>
	<path class="st3" d="M146.21,102.52h25.43c2.34,0,4.24,1.9,4.24,4.24c0,2.34-1.9,4.24-4.24,4.24h-25.43c-2.34,0-4.24-1.9-4.24-4.24
		C141.98,104.42,143.87,102.52,146.21,102.52z"/>
	<path class="st4" d="M78.4,153.38h25.43c2.34,0,4.24,1.9,4.24,4.24c0,2.34-1.9,4.24-4.24,4.24H78.4c-2.34,0-4.24-1.9-4.24-4.24
		C74.17,155.28,76.06,153.38,78.4,153.38z"/>
	<path class="st5" d="M95.36,102.52h8.48c2.34,0,4.24,1.9,4.24,4.24c0,2.34-1.9,4.24-4.24,4.24h-8.48c-2.34,0-4.24-1.9-4.24-4.24
		C91.12,104.42,93.02,102.52,95.36,102.52z"/>
	<path class="st6" d="M120.79,178.81h8.48c2.34,0,4.24,1.9,4.24,4.24s-1.9,4.24-4.24,4.24h-8.48c-2.34,0-4.24-1.9-4.24-4.24
		S118.44,178.81,120.79,178.81z"/>
	<path class="st7" d="M163.17,127.95h8.48c2.34,0,4.24,1.9,4.24,4.24c0,2.34-1.9,4.24-4.24,4.24h-8.48c-2.34,0-4.24-1.9-4.24-4.24
		C158.93,129.85,160.83,127.95,163.17,127.95z M188.59,102.52h8.48c2.34,0,4.24,1.9,4.24,4.24c0,2.34-1.9,4.24-4.24,4.24h-8.48
		c-2.34,0-4.24-1.9-4.24-4.24C184.36,104.42,186.25,102.52,188.59,102.52z"/>
	<path class="st4" d="M86.88,204.24h16.95c2.34,0,4.24,1.9,4.24,4.24s-1.9,4.24-4.24,4.24H86.88c-2.34,0-4.24-1.9-4.24-4.24
		S84.54,204.24,86.88,204.24z"/>
	<path class="st6" d="M146.21,178.81h8.48c2.34,0,4.24,1.9,4.24,4.24s-1.9,4.24-4.24,4.24h-8.48c-2.34,0-4.24-1.9-4.24-4.24
		S143.87,178.81,146.21,178.81z"/>
	<path class="st4" d="M189.65,170.33c2.93,0,5.3,2.37,5.3,5.3s-2.37,5.3-5.3,5.3c-2.93,0-5.3-2.37-5.3-5.3
		S186.73,170.33,189.65,170.33z M210.84,231.79c2.93,0,5.3,2.37,5.3,5.3s-2.37,5.3-5.3,5.3c-2.93,0-5.3-2.37-5.3-5.3
		S207.92,231.79,210.84,231.79z"/>
	<path class="st6" d="M229.92,231.79c2.93,0,5.3,2.37,5.3,5.3s-2.37,5.3-5.3,5.3c-2.93,0-5.3-2.37-5.3-5.3
		S226.99,231.79,229.92,231.79z M120.79,102.52h8.48c2.34,0,4.24,1.9,4.24,4.24c0,2.34-1.9,4.24-4.24,4.24h-8.48
		c-2.34,0-4.24-1.9-4.24-4.24C116.55,104.42,118.44,102.52,120.79,102.52z"/>
	<path class="st3" d="M52.98,178.81h50.86c2.34,0,4.24,1.9,4.24,4.24s-1.9,4.24-4.24,4.24H52.98c-2.34,0-4.24-1.9-4.24-4.24
		S50.64,178.81,52.98,178.81z M159.84,200h61.75c2.84,0,5.15,2.37,5.15,5.3s-2.3,5.3-5.15,5.3h-61.75c-2.84,0-5.15-2.37-5.15-5.3
		S157,200,159.84,200L159.84,200L159.84,200z"/>
	<path class="st8" d="M128.05,231.79h61.75c2.84,0,5.15,2.37,5.15,5.3s-2.3,5.3-5.15,5.3h-61.75c-2.84,0-5.15-2.37-5.15-5.3
		S125.21,231.79,128.05,231.79L128.05,231.79L128.05,231.79z"/>
	<path class="st9" d="M52.98,127.95h50.86c2.34,0,4.24,1.9,4.24,4.24c0,2.34-1.9,4.24-4.24,4.24H52.98c-2.34,0-4.24-1.9-4.24-4.24
		C48.74,129.85,50.64,127.95,52.98,127.95z"/>
	<path class="st10" d="M120.79,153.38h50.86c2.34,0,4.24,1.9,4.24,4.24c0,2.34-1.9,4.24-4.24,4.24h-50.86
		c-2.34,0-4.24-1.9-4.24-4.24C116.55,155.28,118.44,153.38,120.79,153.38z"/>
	<path class="st7" d="M52.98,153.38h8.48c2.34,0,4.24,1.9,4.24,4.24c0,2.34-1.9,4.24-4.24,4.24h-8.48c-2.34,0-4.24-1.9-4.24-4.24
		C48.74,155.28,50.64,153.38,52.98,153.38z"/>
	<path class="st9" d="M120.79,204.24h8.48c2.34,0,4.24,1.9,4.24,4.24s-1.9,4.24-4.24,4.24h-8.48c-2.34,0-4.24-1.9-4.24-4.24
		S118.44,204.24,120.79,204.24z"/>
	<path class="st6" d="M52.98,204.24h16.95c2.34,0,4.24,1.9,4.24,4.24s-1.9,4.24-4.24,4.24H52.98c-2.34,0-4.24-1.9-4.24-4.24
		S50.64,204.24,52.98,204.24z"/>
	<path class="st7" d="M52.98,229.67h16.95c2.34,0,4.24,1.9,4.24,4.24c0,2.34-1.9,4.24-4.24,4.24H52.98c-2.34,0-4.24-1.9-4.24-4.24
		C48.74,231.56,50.64,229.67,52.98,229.67z M86.88,229.67h16.95c2.34,0,4.24,1.9,4.24,4.24c0,2.34-1.9,4.24-4.24,4.24H86.88
		c-2.34,0-4.24-1.9-4.24-4.24C82.64,231.56,84.54,229.67,86.88,229.67z"/>
	<path class="st8" d="M52.98,255.1H78.4c2.34,0,4.24,1.9,4.24,4.24c0,2.34-1.9,4.24-4.24,4.24H52.98c-2.34,0-4.24-1.9-4.24-4.24
		C48.74,256.99,50.64,255.1,52.98,255.1z"/>
	<path class="st6" d="M91.91,280.52h30.2c2.78,0,5.03,1.9,5.03,4.24c0,2.34-2.25,4.24-5.03,4.24h-30.2c-2.78,0-5.03-1.9-5.03-4.24
		C86.88,282.42,89.13,280.52,91.91,280.52z"/>
	<path class="st9" d="M159.72,261.45h30.2c2.78,0,5.03,2.37,5.03,5.3c0,2.92-2.25,5.3-5.03,5.3h-30.2c-2.78,0-5.03-2.37-5.03-5.3
		C154.69,263.83,156.94,261.45,159.72,261.45z"/>
	<path class="st5" d="M95.36,255.1h8.48c2.34,0,4.24,1.9,4.24,4.24c0,2.34-1.9,4.24-4.24,4.24h-8.48c-2.34,0-4.24-1.9-4.24-4.24
		C91.12,256.99,93.02,255.1,95.36,255.1z"/>
	<path class="st7" d="M133.5,280.52h8.48c2.34,0,4.24,1.9,4.24,4.24c0,2.34-1.9,4.24-4.24,4.24h-8.48c-2.34,0-4.24-1.9-4.24-4.24
		C129.26,282.42,131.16,280.52,133.5,280.52z M210.84,261.45h10.6c2.93,0,5.3,2.37,5.3,5.3c0,2.93-2.37,5.3-5.3,5.3h-10.6
		c-2.93,0-5.3-2.37-5.3-5.3C205.55,263.82,207.92,261.45,210.84,261.45z"/>
	<path class="st6" d="M128.2,261.45h10.6c2.93,0,5.3,2.37,5.3,5.3c0,2.93-2.37,5.3-5.3,5.3h-10.6c-2.93,0-5.3-2.37-5.3-5.3
		C122.9,263.82,125.28,261.45,128.2,261.45z"/>
	<path class="st3" d="M52.98,280.52h21.19c2.34,0,4.24,1.9,4.24,4.24c0,2.34-1.9,4.24-4.24,4.24H52.98c-2.34,0-4.24-1.9-4.24-4.24
		C48.74,282.42,50.64,280.52,52.98,280.52z"/>
</g>
<g>
	<path class="st1" d="M361.33,65.3H564.1c11.66,0,21.12,9.46,21.12,21.12v242.9c0,11.66-9.46,21.12-21.12,21.12H361.33
		c-11.66,0-21.12-9.46-21.12-21.12V86.43C340.2,74.77,349.67,65.3,361.33,65.3z"/>
	<path class="st2" d="M371.89,54.74h202.77c11.66,0,21.12,9.46,21.12,21.12v240.79c0,11.66-9.46,21.12-21.12,21.12H371.89
		c-11.66,0-21.12-9.46-21.12-21.12V75.86C350.77,64.2,360.23,54.74,371.89,54.74z"/>
	<path class="st3" d="M371.89,58.97c-9.34,0-16.9,7.56-16.9,16.9v240.79c0,9.34,7.56,16.9,16.9,16.9h202.77
		c9.34,0,16.9-7.56,16.9-16.9V75.86c0-9.34-7.56-16.9-16.9-16.9L371.89,58.97L371.89,58.97z M371.89,50.52h202.77
		c14.01,0,25.34,11.35,25.34,25.34v240.79c0,14.01-11.35,25.34-25.34,25.34H371.89c-14.01,0-25.34-11.35-25.34-25.34V75.86
		C346.54,61.88,357.89,50.52,371.89,50.52z"/>
	<path class="st4" d="M393.01,103.32h25.34c2.32,0,4.22,1.9,4.22,4.22c0,2.32-1.9,4.22-4.22,4.22h-25.34c-2.32,0-4.22-1.9-4.22-4.22
		S390.68,103.32,393.01,103.32z M460.6,128.67h25.34c2.32,0,4.22,1.9,4.22,4.22s-1.9,4.22-4.22,4.22H460.6
		c-2.32,0-4.22-1.9-4.22-4.22S458.28,128.67,460.6,128.67z"/>
	<path class="st3" d="M485.95,103.32h25.34c2.32,0,4.22,1.9,4.22,4.22c0,2.32-1.9,4.22-4.22,4.22h-25.34c-2.32,0-4.22-1.9-4.22-4.22
		C481.72,105.23,483.63,103.32,485.95,103.32z"/>
	<path class="st4" d="M418.36,154.02h25.34c2.32,0,4.22,1.9,4.22,4.22s-1.9,4.22-4.22,4.22h-25.34c-2.32,0-4.22-1.9-4.22-4.22
		S416.04,154.02,418.36,154.02z"/>
	<path class="st5" d="M435.25,103.32h8.45c2.32,0,4.22,1.9,4.22,4.22c0,2.32-1.9,4.22-4.22,4.22h-8.45c-2.32,0-4.22-1.9-4.22-4.22
		S432.93,103.32,435.25,103.32z"/>
	<path class="st6" d="M460.6,179.36h8.45c2.32,0,4.22,1.9,4.22,4.22c0,2.32-1.9,4.22-4.22,4.22h-8.45c-2.32,0-4.22-1.9-4.22-4.22
		S458.28,179.36,460.6,179.36z"/>
	<path class="st7" d="M502.84,128.67h8.45c2.32,0,4.22,1.9,4.22,4.22s-1.9,4.22-4.22,4.22h-8.45c-2.32,0-4.22-1.9-4.22-4.22
		S500.52,128.67,502.84,128.67z M528.19,103.32h8.45c2.32,0,4.22,1.9,4.22,4.22c0,2.32-1.9,4.22-4.22,4.22h-8.45
		c-2.32,0-4.22-1.9-4.22-4.22S525.87,103.32,528.19,103.32z"/>
	<path class="st4" d="M426.8,204.71h16.9c2.32,0,4.22,1.9,4.22,4.22c0,2.32-1.9,4.22-4.22,4.22h-16.9c-2.32,0-4.22-1.9-4.22-4.22
		S424.48,204.71,426.8,204.71z"/>
	<path class="st6" d="M485.95,179.36h8.45c2.32,0,4.22,1.9,4.22,4.22c0,2.32-1.9,4.22-4.22,4.22h-8.45c-2.32,0-4.22-1.9-4.22-4.22
		C481.72,181.27,483.63,179.36,485.95,179.36z"/>
	<path class="st4" d="M529.25,170.91c2.92,0,5.28,2.36,5.28,5.28s-2.36,5.28-5.28,5.28c-2.92,0-5.28-2.36-5.28-5.28
		C523.97,173.28,526.34,170.91,529.25,170.91z M550.37,232.17c2.92,0,5.28,2.36,5.28,5.28s-2.36,5.28-5.28,5.28
		s-5.28-2.36-5.28-5.28C545.09,234.53,547.45,232.17,550.37,232.17z"/>
	<path class="st6" d="M569.38,232.17c2.92,0,5.28,2.36,5.28,5.28s-2.36,5.28-5.28,5.28s-5.28-2.36-5.28-5.28
		C564.1,234.53,566.47,232.17,569.38,232.17z M460.6,103.32h8.45c2.32,0,4.22,1.9,4.22,4.22c0,2.32-1.9,4.22-4.22,4.22h-8.45
		c-2.32,0-4.22-1.9-4.22-4.22S458.28,103.32,460.6,103.32z"/>
	<path class="st3" d="M393.01,179.36h50.7c2.32,0,4.22,1.9,4.22,4.22c0,2.32-1.9,4.22-4.22,4.22h-50.7c-2.32,0-4.22-1.9-4.22-4.22
		S390.68,179.36,393.01,179.36z M499.53,200.48h61.55c2.83,0,5.14,2.36,5.14,5.28s-2.3,5.28-5.14,5.28h-61.55
		c-2.83,0-5.14-2.36-5.14-5.28S496.7,200.48,499.53,200.48L499.53,200.48L499.53,200.48z"/>
	<path class="st8" d="M467.85,232.17h61.55c2.83,0,5.14,2.36,5.14,5.28s-2.3,5.28-5.14,5.28h-61.55c-2.83,0-5.14-2.36-5.14-5.28
		C462.71,234.53,465.01,232.17,467.85,232.17L467.85,232.17L467.85,232.17z"/>
	<path class="st9" d="M393.01,128.67h50.7c2.32,0,4.22,1.9,4.22,4.22s-1.9,4.22-4.22,4.22h-50.7c-2.32,0-4.22-1.9-4.22-4.22
		S390.68,128.67,393.01,128.67z"/>
	<path class="st10" d="M460.6,154.02h50.7c2.32,0,4.22,1.9,4.22,4.22s-1.9,4.22-4.22,4.22h-50.7c-2.32,0-4.22-1.9-4.22-4.22
		S458.28,154.02,460.6,154.02z"/>
	<path class="st7" d="M393.01,154.02h8.45c2.32,0,4.22,1.9,4.22,4.22s-1.9,4.22-4.22,4.22h-8.45c-2.32,0-4.22-1.9-4.22-4.22
		S390.68,154.02,393.01,154.02z"/>
	<path class="st9" d="M460.6,204.71h8.45c2.32,0,4.22,1.9,4.22,4.22c0,2.32-1.9,4.22-4.22,4.22h-8.45c-2.32,0-4.22-1.9-4.22-4.22
		S458.28,204.71,460.6,204.71z"/>
	<path class="st6" d="M393.01,204.71h16.9c2.32,0,4.22,1.9,4.22,4.22c0,2.32-1.9,4.22-4.22,4.22h-16.9c-2.32,0-4.22-1.9-4.22-4.22
		S390.68,204.71,393.01,204.71z"/>
	<path class="st7" d="M393.01,230.06h16.9c2.32,0,4.22,1.9,4.22,4.22c0,2.32-1.9,4.22-4.22,4.22h-16.9c-2.32,0-4.22-1.9-4.22-4.22
		C388.79,231.96,390.68,230.06,393.01,230.06z M426.8,230.06h16.9c2.32,0,4.22,1.9,4.22,4.22c0,2.32-1.9,4.22-4.22,4.22h-16.9
		c-2.32,0-4.22-1.9-4.22-4.22C422.58,231.96,424.48,230.06,426.8,230.06z"/>
	<path class="st8" d="M393.01,255.4h25.34c2.32,0,4.22,1.9,4.22,4.22c0,2.32-1.9,4.22-4.22,4.22h-25.34c-2.32,0-4.22-1.9-4.22-4.22
		C388.79,257.3,390.68,255.4,393.01,255.4z"/>
	<path class="st6" d="M431.81,280.75h30.1c2.77,0,5.02,1.88,5.02,4.22c0,2.32-2.24,4.22-5.02,4.22h-30.1c-2.77,0-5.02-1.9-5.02-4.22
		C426.8,282.65,429.05,280.75,431.81,280.75z"/>
	<path class="st9" d="M499.4,261.74h30.1c2.77,0,5.02,2.36,5.02,5.28s-2.24,5.28-5.02,5.28h-30.1c-2.77,0-5.02-2.36-5.02-5.28
		C494.39,264.11,496.64,261.74,499.4,261.74z"/>
	<path class="st5" d="M435.25,255.4h8.45c2.32,0,4.22,1.9,4.22,4.22c0,2.32-1.9,4.22-4.22,4.22h-8.45c-2.32,0-4.22-1.9-4.22-4.22
		C431.03,257.3,432.93,255.4,435.25,255.4z"/>
	<path class="st7" d="M473.28,280.75h8.45c2.32,0,4.22,1.9,4.22,4.22s-1.9,4.22-4.22,4.22h-8.45c-2.32,0-4.22-1.9-4.22-4.22
		S470.95,280.75,473.28,280.75z M550.37,261.74h10.56c2.92,0,5.28,2.36,5.28,5.28s-2.36,5.28-5.28,5.28h-10.56
		c-2.92,0-5.28-2.36-5.28-5.28C545.09,264.11,547.45,261.74,550.37,261.74z"/>
	<path class="st6" d="M467.99,261.74h10.56c2.92,0,5.28,2.36,5.28,5.28s-2.36,5.28-5.28,5.28h-10.56c-2.92,0-5.28-2.36-5.28-5.28
		C462.71,264.11,465.08,261.74,467.99,261.74z"/>
	<path class="st3" d="M393.01,280.75h21.12c2.32,0,4.22,1.9,4.22,4.22s-1.9,4.22-4.22,4.22h-21.12c-2.32,0-4.22-1.9-4.22-4.22
		S390.68,280.75,393.01,280.75z"/>
	<circle class="st2" cx="473.15" cy="188.38" r="73.93"/>
	<path class="st3" d="M473.15,262.31c-40.83,0-73.93-33.1-73.93-73.93s33.1-73.93,73.93-73.93s73.93,33.1,73.93,73.93
		S513.98,262.31,473.15,262.31z M473.15,253.86c36.16,0,65.48-29.32,65.48-65.48s-29.32-65.48-65.48-65.48s-65.48,29.32-65.48,65.48
		S436.99,253.86,473.15,253.86z"/>
	<g>
		<path class="st11" d="M508.45,193.07l-3.97-12.21l-7.86-24.18c-0.4-1.24-2.15-1.24-2.58,0l-7.84,24.18h-26.09l-7.86-24.18
			c-0.4-1.24-2.15-1.24-2.58,0l-7.86,24.18l-3.97,12.21c-0.36,1.12,0.04,2.32,0.97,3.02l34.32,24.92l34.32-24.92
			C508.42,195.39,508.81,194.17,508.45,193.07"/>
		<path class="st12" d="M473.15,221.02l13.05-40.15h-26.09L473.15,221.02z"/>
		<path class="st11" d="M473.15,221.02l-13.05-40.15h-18.29L473.15,221.02z"/>
		<path class="st13" d="M441.82,180.86l-3.97,12.21c-0.36,1.12,0.04,2.32,0.97,3.02l34.32,24.92L441.82,180.86z"/>
		<path class="st12" d="M441.82,180.86h18.29l-7.86-24.18c-0.4-1.24-2.15-1.24-2.58,0L441.82,180.86z"/>
		<path class="st11" d="M473.15,221.02l13.05-40.15h18.29L473.15,221.02z"/>
		<path class="st13" d="M504.49,180.86l3.97,12.21c0.36,1.12-0.04,2.32-0.97,3.02l-34.32,24.92L504.49,180.86z"/>
		<path class="st12" d="M504.49,180.86h-18.29l7.86-24.18c0.4-1.24,2.15-1.24,2.58,0L504.49,180.86z"/>
	</g>
</g>
</svg>
