<?xml version="1.0" encoding="utf-8"?>
<!-- Generator: Adobe Illustrator 24.0.1, SVG Export Plug-In . SVG Version: 6.00 Build 0)  -->
<svg version="1.1" id="Layer_1" xmlns="http://www.w3.org/2000/svg" xmlns:xlink="http://www.w3.org/1999/xlink" x="0px" y="0px"
	 viewBox="0 0 400 400" style="enable-background:new 0 0 400 400;" xml:space="preserve">
<style type="text/css">
	.st0{fill:#F9F9F9;}
	.st1{fill:#FFFFFF;}
	.st2{fill:#EEEEEE;}
	.st3{fill:#E1DBF1;}
	.st4{fill:#FEE1D3;}
	.st5{fill:#FC6D26;}
	.st6{fill:#FEF0E8;}
	.st7{fill:#EFEDF8;}
	.st8{fill:#6B4FBB;}
	.st9{fill:#C3B8E3;}
</style>
<g>
	<path class="st0" d="M47.03,95.41h216.59c12.45,0,22.56,10.11,22.56,22.56v259.46c0,12.45-10.11,22.56-22.56,22.56H47.03
		c-12.45,0-22.56-10.11-22.56-22.56V117.98C24.47,105.52,34.58,95.41,47.03,95.41z"/>
	<path class="st1" d="M58.31,84.13h216.59c12.45,0,22.56,10.11,22.56,22.56V363.9c0,12.45-10.11,22.56-22.56,22.56H58.31
		c-12.45,0-22.56-10.11-22.56-22.56V106.7C35.75,94.24,45.86,84.13,58.31,84.13z"/>
	<path class="st2" d="M58.31,88.65c-9.97,0-18.05,8.08-18.05,18.05V363.9c0,9.97,8.08,18.05,18.05,18.05h216.59
		c9.97,0,18.05-8.08,18.05-18.05V106.7c0-9.97-8.08-18.05-18.05-18.05L58.31,88.65L58.31,88.65z M58.31,79.62h216.59
		c14.96,0,27.07,12.12,27.07,27.07V363.9c0,14.96-12.12,27.07-27.07,27.07H58.31c-14.96,0-27.07-12.12-27.07-27.07V106.7
		C31.24,91.76,43.35,79.62,58.31,79.62z"/>
	<path class="st3" d="M80.87,136.03h27.07c2.48,0,4.51,2.03,4.51,4.51s-2.03,4.51-4.51,4.51H80.87c-2.48,0-4.51-2.03-4.51-4.51
		S78.39,136.03,80.87,136.03z M153.07,163.1h27.07c2.48,0,4.51,2.03,4.51,4.51s-2.03,4.51-4.51,4.51h-27.07
		c-2.48,0-4.51-2.03-4.51-4.51S150.59,163.1,153.07,163.1z"/>
	<path class="st2" d="M180.15,136.03h27.07c2.48,0,4.51,2.03,4.51,4.51s-2.03,4.51-4.51,4.51h-27.07c-2.48,0-4.51-2.03-4.51-4.51
		S177.66,136.03,180.15,136.03z"/>
	<path class="st3" d="M107.95,190.17h27.07c2.48,0,4.51,2.03,4.51,4.51c0,2.48-2.03,4.51-4.51,4.51h-27.07
		c-2.48,0-4.51-2.03-4.51-4.51C103.44,192.2,105.47,190.17,107.95,190.17z"/>
	<path class="st4" d="M126,136.03h9.02c2.48,0,4.51,2.03,4.51,4.51s-2.03,4.51-4.51,4.51H126c-2.48,0-4.51-2.03-4.51-4.51
		S123.52,136.03,126,136.03z"/>
	<path class="st5" d="M153.07,217.25h9.02c2.48,0,4.51,2.03,4.51,4.51s-2.03,4.51-4.51,4.51h-9.02c-2.48,0-4.51-2.03-4.51-4.51
		S150.59,217.25,153.07,217.25z"/>
	<path class="st6" d="M198.2,163.1h9.02c2.48,0,4.51,2.03,4.51,4.51s-2.03,4.51-4.51,4.51h-9.02c-2.48,0-4.51-2.03-4.51-4.51
		S195.71,163.1,198.2,163.1z M225.27,136.03h9.02c2.48,0,4.51,2.03,4.51,4.51s-2.03,4.51-4.51,4.51h-9.02
		c-2.48,0-4.51-2.03-4.51-4.51S222.79,136.03,225.27,136.03z"/>
	<path class="st3" d="M116.97,244.32h18.05c2.48,0,4.51,2.03,4.51,4.51c0,2.48-2.03,4.51-4.51,4.51h-18.05
		c-2.48,0-4.51-2.03-4.51-4.51C112.46,246.35,114.49,244.32,116.97,244.32z"/>
	<path class="st5" d="M180.15,217.25h9.02c2.48,0,4.51,2.03,4.51,4.51s-2.03,4.51-4.51,4.51h-9.02c-2.48,0-4.51-2.03-4.51-4.51
		S177.66,217.25,180.15,217.25z"/>
	<path class="st3" d="M226.4,208.22c3.11,0,5.64,2.53,5.64,5.64s-2.53,5.64-5.64,5.64c-3.11,0-5.64-2.53-5.64-5.64
		C220.76,210.75,223.28,208.22,226.4,208.22z M248.96,273.65c3.11,0,5.64,2.53,5.64,5.64s-2.53,5.64-5.64,5.64s-5.64-2.53-5.64-5.64
		C243.32,276.18,245.85,273.65,248.96,273.65z"/>
	<path class="st5" d="M269.27,273.65c3.11,0,5.64,2.53,5.64,5.64s-2.53,5.64-5.64,5.64s-5.64-2.53-5.64-5.64
		C263.62,276.18,266.15,273.65,269.27,273.65z M153.07,136.03h9.02c2.48,0,4.51,2.03,4.51,4.51s-2.03,4.51-4.51,4.51h-9.02
		c-2.48,0-4.51-2.03-4.51-4.51S150.59,136.03,153.07,136.03z"/>
	<path class="st2" d="M80.87,217.25h54.15c2.48,0,4.51,2.03,4.51,4.51s-2.03,4.51-4.51,4.51H80.87c-2.48,0-4.51-2.03-4.51-4.51
		S78.39,217.25,80.87,217.25z M194.65,239.81h65.75c3.02,0,5.48,2.53,5.48,5.64s-2.46,5.64-5.48,5.64h-65.75
		c-3.02,0-5.48-2.53-5.48-5.64C189.17,242.34,191.63,239.81,194.65,239.81L194.65,239.81L194.65,239.81z"/>
	<path class="st7" d="M160.81,273.65h65.75c3.02,0,5.48,2.53,5.48,5.64s-2.46,5.64-5.48,5.64h-65.75c-3.02,0-5.48-2.53-5.48-5.64
		C155.33,276.18,157.79,273.65,160.81,273.65L160.81,273.65L160.81,273.65z"/>
	<path class="st8" d="M80.87,163.1h54.15c2.48,0,4.51,2.03,4.51,4.51s-2.03,4.51-4.51,4.51H80.87c-2.48,0-4.51-2.03-4.51-4.51
		S78.39,163.1,80.87,163.1z"/>
	<path class="st9" d="M153.07,190.17h54.15c2.48,0,4.51,2.03,4.51,4.51c0,2.48-2.03,4.51-4.51,4.51h-54.15
		c-2.48,0-4.51-2.03-4.51-4.51C148.56,192.2,150.59,190.17,153.07,190.17z"/>
	<path class="st6" d="M80.87,190.17h9.02c2.48,0,4.51,2.03,4.51,4.51c0,2.48-2.03,4.51-4.51,4.51h-9.02c-2.48,0-4.51-2.03-4.51-4.51
		C76.36,192.2,78.39,190.17,80.87,190.17z"/>
	<path class="st8" d="M153.07,244.32h9.02c2.48,0,4.51,2.03,4.51,4.51c0,2.48-2.03,4.51-4.51,4.51h-9.02
		c-2.48,0-4.51-2.03-4.51-4.51C148.56,246.35,150.59,244.32,153.07,244.32z"/>
	<path class="st5" d="M80.87,244.32h18.05c2.48,0,4.51,2.03,4.51,4.51c0,2.48-2.03,4.51-4.51,4.51H80.87
		c-2.48,0-4.51-2.03-4.51-4.51C76.36,246.35,78.39,244.32,80.87,244.32z"/>
	<path class="st6" d="M80.87,271.4h18.05c2.48,0,4.51,2.03,4.51,4.51s-2.03,4.51-4.51,4.51H80.87c-2.48,0-4.51-2.03-4.51-4.51
		S78.39,271.4,80.87,271.4z M116.97,271.4h18.05c2.48,0,4.51,2.03,4.51,4.51s-2.03,4.51-4.51,4.51h-18.05
		c-2.48,0-4.51-2.03-4.51-4.51S114.49,271.4,116.97,271.4z"/>
	<path class="st7" d="M80.87,298.47h27.07c2.48,0,4.51,2.03,4.51,4.51c0,2.48-2.03,4.51-4.51,4.51H80.87
		c-2.48,0-4.51-2.03-4.51-4.51C76.36,300.5,78.39,298.47,80.87,298.47z"/>
	<path class="st5" d="M122.32,325.55h32.15c2.96,0,5.37,2.01,5.37,4.51c0,2.5-2.39,4.51-5.37,4.51h-32.15
		c-2.96,0-5.37-2.01-5.37-4.51C116.95,327.55,119.36,325.55,122.32,325.55z"/>
	<path class="st8" d="M194.52,305.24h32.15c2.96,0,5.37,2.53,5.37,5.64s-2.39,5.64-5.37,5.64h-32.15c-2.96,0-5.37-2.53-5.37-5.64
		C189.17,307.77,191.56,305.24,194.52,305.24z"/>
	<path class="st4" d="M126,298.47h9.02c2.48,0,4.51,2.03,4.51,4.51c0,2.48-2.03,4.51-4.51,4.51H126c-2.48,0-4.51-2.03-4.51-4.51
		C121.48,300.5,123.52,298.47,126,298.47z"/>
	<path class="st6" d="M166.61,325.55h9.02c2.48,0,4.51,2.03,4.51,4.51c0,2.48-2.03,4.51-4.51,4.51h-9.02
		c-2.48,0-4.51-2.03-4.51-4.51C162.1,327.58,164.13,325.55,166.61,325.55z M248.96,305.24h11.28c3.11,0,5.64,2.53,5.64,5.64
		s-2.53,5.64-5.64,5.64h-11.28c-3.11,0-5.64-2.53-5.64-5.64C243.32,307.77,245.85,305.24,248.96,305.24z"/>
	<path class="st5" d="M160.97,305.24h11.28c3.11,0,5.64,2.53,5.64,5.64s-2.53,5.64-5.64,5.64h-11.28c-3.11,0-5.64-2.53-5.64-5.64
		C155.33,307.77,157.85,305.24,160.97,305.24z"/>
	<path class="st2" d="M80.87,325.55h22.56c2.48,0,4.51,2.03,4.51,4.51c0,2.48-2.03,4.51-4.51,4.51H80.87
		c-2.48,0-4.51-2.03-4.51-4.51C76.36,327.58,78.39,325.55,80.87,325.55z"/>
	<circle class="st1" cx="296.56" cy="78.97" r="78.97"/>
	<path class="st2" d="M296.56,157.93c-43.61,0-78.97-35.35-78.97-78.97S252.95,0,296.56,0c43.61,0,78.97,35.35,78.97,78.97
		S340.18,157.93,296.56,157.93z M296.56,148.91c38.63,0,69.94-31.32,69.94-69.94S335.19,9.02,296.56,9.02s-69.94,31.32-69.94,69.94
		S257.94,148.91,296.56,148.91z"/>
	<path class="st8" d="M269.65,72.2h54.15c2.48,0,4.51,2.03,4.51,4.51c0,2.48-2.03,4.51-4.51,4.51h-54.15
		c-2.48,0-4.51-2.03-4.51-4.51C265.14,74.23,267.17,72.2,269.65,72.2z"/>
	<path class="st8" d="M301.24,49.64v54.15c0,2.48-2.03,4.51-4.51,4.51c-2.48,0-4.51-2.03-4.51-4.51V49.64
		c0-2.48,2.03-4.51,4.51-4.51C299.2,45.12,301.24,47.15,301.24,49.64z"/>
</g>
</svg>
