<?xml version="1.0" encoding="utf-8"?>
<!-- Generator: Adobe Illustrator 24.0.1, SVG Export Plug-In . SVG Version: 6.00 Build 0)  -->
<svg version="1.1" id="Layer_1" xmlns="http://www.w3.org/2000/svg" xmlns:xlink="http://www.w3.org/1999/xlink" x="0px" y="0px"
	 viewBox="0 0 400 400" style="enable-background:new 0 0 400 400;" xml:space="preserve">
<style type="text/css">
	.st0{fill:#F9F9F9;}
	.st1{fill:#FFFFFF;}
	.st2{fill:#EEEEEE;}
	.st3{fill:#E1DBF1;}
	.st4{fill:#FEE1D3;}
	.st5{fill:#FC6D26;}
	.st6{fill:#FEF0E8;}
	.st7{fill:#EFEDF8;}
	.st8{fill:#6B4FBB;}
	.st9{fill:#C3B8E3;}
	.st10{fill-rule:evenodd;clip-rule:evenodd;fill:#FC6D26;}
	.st11{fill-rule:evenodd;clip-rule:evenodd;fill:#E24329;}
	.st12{fill-rule:evenodd;clip-rule:evenodd;fill:#FCA326;}
</style>
<path class="st0" d="M54.93,19.72h270.42c15.55,0,28.17,12.62,28.17,28.17v323.94c0,15.55-12.62,28.17-28.17,28.17H54.93
	c-15.55,0-28.17-12.62-28.17-28.17V47.89C26.76,32.34,39.38,19.72,54.93,19.72z"/>
<path class="st1" d="M69.01,5.63h270.42c15.55,0,28.17,12.62,28.17,28.17v321.13c0,15.55-12.62,28.17-28.17,28.17H69.01
	c-15.55,0-28.17-12.62-28.17-28.17V33.8C40.85,18.25,53.46,5.63,69.01,5.63z"/>
<path class="st2" d="M69.01,11.27c-12.45,0-22.54,10.08-22.54,22.54v321.13c0,12.45,10.08,22.54,22.54,22.54h270.42
	c12.45,0,22.54-10.08,22.54-22.54V33.8c0-12.45-10.08-22.54-22.54-22.54L69.01,11.27L69.01,11.27z M69.01,0h270.42
	c18.68,0,33.8,15.13,33.8,33.8v321.13c0,18.68-15.13,33.8-33.8,33.8H69.01c-18.68,0-33.8-15.13-33.8-33.8V33.8
	C35.21,15.15,50.34,0,69.01,0z"/>
<path class="st3" d="M97.18,70.42h33.8c3.1,0,5.63,2.54,5.63,5.63c0,3.1-2.54,5.63-5.63,5.63h-33.8c-3.1,0-5.63-2.54-5.63-5.63
	C91.55,72.96,94.08,70.42,97.18,70.42z M187.32,104.23h33.8c3.1,0,5.63,2.54,5.63,5.63s-2.54,5.63-5.63,5.63h-33.8
	c-3.1,0-5.63-2.54-5.63-5.63S184.23,104.23,187.32,104.23z"/>
<path class="st2" d="M221.13,70.42h33.8c3.1,0,5.63,2.54,5.63,5.63c0,3.1-2.54,5.63-5.63,5.63h-33.8c-3.1,0-5.63-2.54-5.63-5.63
	C215.49,72.96,218.03,70.42,221.13,70.42z"/>
<path class="st3" d="M130.99,138.03h33.8c3.1,0,5.63,2.54,5.63,5.63s-2.54,5.63-5.63,5.63h-33.8c-3.1,0-5.63-2.54-5.63-5.63
	S127.89,138.03,130.99,138.03z"/>
<path class="st4" d="M153.52,70.42h11.27c3.1,0,5.63,2.54,5.63,5.63c0,3.1-2.54,5.63-5.63,5.63h-11.27c-3.1,0-5.63-2.54-5.63-5.63
	C147.89,72.96,150.42,70.42,153.52,70.42z"/>
<path class="st5" d="M187.32,171.83h11.27c3.1,0,5.63,2.54,5.63,5.63c0,3.1-2.54,5.63-5.63,5.63h-11.27c-3.1,0-5.63-2.54-5.63-5.63
	C181.69,174.37,184.23,171.83,187.32,171.83z"/>
<path class="st6" d="M243.66,104.23h11.27c3.1,0,5.63,2.54,5.63,5.63s-2.54,5.63-5.63,5.63h-11.27c-3.1,0-5.63-2.54-5.63-5.63
	S240.56,104.23,243.66,104.23z M277.46,70.42h11.27c3.1,0,5.63,2.54,5.63,5.63c0,3.1-2.54,5.63-5.63,5.63h-11.27
	c-3.1,0-5.63-2.54-5.63-5.63C271.83,72.96,274.37,70.42,277.46,70.42z"/>
<path class="st3" d="M142.25,205.63h22.54c3.1,0,5.63,2.54,5.63,5.63c0,3.1-2.54,5.63-5.63,5.63h-22.54c-3.1,0-5.63-2.54-5.63-5.63
	C136.62,208.17,139.15,205.63,142.25,205.63z"/>
<path class="st5" d="M221.13,171.83h11.27c3.1,0,5.63,2.54,5.63,5.63c0,3.1-2.54,5.63-5.63,5.63h-11.27c-3.1,0-5.63-2.54-5.63-5.63
	C215.49,174.37,218.03,171.83,221.13,171.83z"/>
<path class="st3" d="M278.87,160.56c3.89,0,7.04,3.15,7.04,7.04s-3.15,7.04-7.04,7.04c-3.89,0-7.04-3.15-7.04-7.04
	C271.83,163.72,274.99,160.56,278.87,160.56z M307.04,242.25c3.89,0,7.04,3.15,7.04,7.04c0,3.89-3.15,7.04-7.04,7.04
	s-7.04-3.15-7.04-7.04C300,245.41,303.15,242.25,307.04,242.25z"/>
<path class="st5" d="M332.39,242.25c3.89,0,7.04,3.15,7.04,7.04c0,3.89-3.15,7.04-7.04,7.04s-7.04-3.15-7.04-7.04
	C325.35,245.41,328.51,242.25,332.39,242.25z M187.32,70.42h11.27c3.1,0,5.63,2.54,5.63,5.63c0,3.1-2.54,5.63-5.63,5.63h-11.27
	c-3.1,0-5.63-2.54-5.63-5.63C181.69,72.96,184.23,70.42,187.32,70.42z"/>
<path class="st2" d="M97.18,171.83h67.61c3.1,0,5.63,2.54,5.63,5.63c0,3.1-2.54,5.63-5.63,5.63H97.18c-3.1,0-5.63-2.54-5.63-5.63
	C91.55,174.37,94.08,171.83,97.18,171.83z M239.24,200h82.08c3.77,0,6.85,3.15,6.85,7.04c0,3.89-3.07,7.04-6.85,7.04h-82.08
	c-3.77,0-6.85-3.15-6.85-7.04C232.39,203.15,235.46,200,239.24,200L239.24,200L239.24,200z"/>
<path class="st7" d="M196.99,242.25h82.08c3.77,0,6.85,3.15,6.85,7.04c0,3.89-3.07,7.04-6.85,7.04h-82.08
	c-3.77,0-6.85-3.15-6.85-7.04C190.14,245.41,193.21,242.25,196.99,242.25L196.99,242.25L196.99,242.25z"/>
<path class="st8" d="M97.18,104.23h67.61c3.1,0,5.63,2.54,5.63,5.63s-2.54,5.63-5.63,5.63H97.18c-3.1,0-5.63-2.54-5.63-5.63
	S94.08,104.23,97.18,104.23z"/>
<path class="st9" d="M187.32,138.03h67.61c3.1,0,5.63,2.54,5.63,5.63s-2.54,5.63-5.63,5.63h-67.61c-3.1,0-5.63-2.54-5.63-5.63
	S184.23,138.03,187.32,138.03z"/>
<path class="st6" d="M97.18,138.03h11.27c3.1,0,5.63,2.54,5.63,5.63s-2.54,5.63-5.63,5.63H97.18c-3.1,0-5.63-2.54-5.63-5.63
	S94.08,138.03,97.18,138.03z"/>
<path class="st8" d="M187.32,205.63h11.27c3.1,0,5.63,2.54,5.63,5.63c0,3.1-2.54,5.63-5.63,5.63h-11.27c-3.1,0-5.63-2.54-5.63-5.63
	C181.69,208.17,184.23,205.63,187.32,205.63z"/>
<path class="st5" d="M97.18,205.63h22.54c3.1,0,5.63,2.54,5.63,5.63c0,3.1-2.54,5.63-5.63,5.63H97.18c-3.1,0-5.63-2.54-5.63-5.63
	C91.55,208.17,94.08,205.63,97.18,205.63z"/>
<path class="st6" d="M97.18,239.44h22.54c3.1,0,5.63,2.54,5.63,5.63c0,3.1-2.54,5.63-5.63,5.63H97.18c-3.1,0-5.63-2.54-5.63-5.63
	C91.55,241.97,94.08,239.44,97.18,239.44z M142.25,239.44h22.54c3.1,0,5.63,2.54,5.63,5.63c0,3.1-2.54,5.63-5.63,5.63h-22.54
	c-3.1,0-5.63-2.54-5.63-5.63C136.62,241.97,139.15,239.44,142.25,239.44z"/>
<path class="st7" d="M97.18,273.24h33.8c3.1,0,5.63,2.54,5.63,5.63c0,3.1-2.54,5.63-5.63,5.63h-33.8c-3.1,0-5.63-2.54-5.63-5.63
	C91.55,275.77,94.08,273.24,97.18,273.24z"/>
<path class="st5" d="M148.93,307.04h40.14c3.69,0,6.7,2.51,6.7,5.63c0,3.1-2.99,5.63-6.7,5.63h-40.14c-3.69,0-6.7-2.54-6.7-5.63
	C142.25,309.58,145.24,307.04,148.93,307.04z"/>
<path class="st8" d="M239.07,281.69h40.14c3.69,0,6.7,3.15,6.7,7.04s-2.99,7.04-6.7,7.04h-40.14c-3.69,0-6.7-3.15-6.7-7.04
	C232.39,284.85,235.38,281.69,239.07,281.69z"/>
<path class="st4" d="M153.52,273.24h11.27c3.1,0,5.63,2.54,5.63,5.63c0,3.1-2.54,5.63-5.63,5.63h-11.27c-3.1,0-5.63-2.54-5.63-5.63
	C147.89,275.77,150.42,273.24,153.52,273.24z"/>
<path class="st6" d="M204.23,307.04h11.27c3.1,0,5.63,2.54,5.63,5.63s-2.54,5.63-5.63,5.63h-11.27c-3.1,0-5.63-2.54-5.63-5.63
	S201.13,307.04,204.23,307.04z M307.04,281.69h14.08c3.89,0,7.04,3.15,7.04,7.04s-3.15,7.04-7.04,7.04h-14.08
	c-3.89,0-7.04-3.15-7.04-7.04C300,284.85,303.15,281.69,307.04,281.69z"/>
<path class="st5" d="M197.18,281.69h14.08c3.89,0,7.04,3.15,7.04,7.04s-3.15,7.04-7.04,7.04h-14.08c-3.89,0-7.04-3.15-7.04-7.04
	C190.14,284.85,193.3,281.69,197.18,281.69z"/>
<path class="st2" d="M97.18,307.04h28.17c3.1,0,5.63,2.54,5.63,5.63s-2.54,5.63-5.63,5.63H97.18c-3.1,0-5.63-2.54-5.63-5.63
	S94.08,307.04,97.18,307.04z"/>
<circle class="st1" cx="204.06" cy="183.86" r="98.59"/>
<path class="st2" d="M204.06,282.45c-54.45,0-98.59-44.14-98.59-98.59s44.14-98.59,98.59-98.59s98.59,44.14,98.59,98.59
	S258.51,282.45,204.06,282.45z M204.06,271.18c48.23,0,87.32-39.1,87.32-87.32s-39.1-87.32-87.32-87.32s-87.32,39.1-87.32,87.32
	S155.83,271.18,204.06,271.18z"/>
<g>
	<path class="st10" d="M251.13,190.11l-5.3-16.28l-10.48-32.25c-0.54-1.66-2.87-1.66-3.44,0l-10.45,32.25h-34.79l-10.48-32.25
		c-0.54-1.66-2.87-1.66-3.44,0l-10.48,32.25l-5.3,16.28c-0.48,1.49,0.06,3.1,1.3,4.03l45.77,33.24l45.77-33.24
		C251.1,193.21,251.61,191.58,251.13,190.11"/>
	<path class="st11" d="M204.06,227.38l17.41-53.55h-34.79L204.06,227.38z"/>
	<path class="st10" d="M204.06,227.38l-17.41-53.55h-24.39L204.06,227.38z"/>
	<path class="st12" d="M162.28,173.83l-5.3,16.28c-0.48,1.49,0.06,3.1,1.3,4.03l45.77,33.24L162.28,173.83z"/>
	<path class="st11" d="M162.28,173.83h24.39l-10.48-32.25c-0.54-1.66-2.87-1.66-3.44,0L162.28,173.83z"/>
	<path class="st10" d="M204.06,227.38l17.41-53.55h24.39L204.06,227.38z"/>
	<path class="st12" d="M245.86,173.83l5.3,16.28c0.48,1.49-0.06,3.1-1.3,4.03l-45.77,33.24L245.86,173.83z"/>
	<path class="st11" d="M245.86,173.83h-24.39l10.48-32.25c0.54-1.66,2.87-1.66,3.44,0L245.86,173.83z"/>
</g>
</svg>
