<?xml version="1.0" encoding="UTF-8"?>
<svg width="16px" height="16px" viewBox="0 0 16 16" version="1.1" xmlns="http://www.w3.org/2000/svg" xmlns:xlink="http://www.w3.org/1999/xlink">
    <!-- Generator: Sketch 63 (92445) - https://sketch.com -->
    <title>icn/expand</title>
    <desc>Created with Sketch.</desc>
    <g id="icn/expand" stroke="none" stroke-width="1" fill="none" fill-rule="evenodd">
        <path d="M8,0 L10.7071,2.70711 C11.0976,3.09763 11.0976,3.7308 10.7071,4.12132 C10.3166,4.51184 9.68342,4.51184 9.29289,4.12132 L9,3.82843 L9,12.1716 L9.29289,11.8787 C9.68342,11.4882 10.3166,11.4882 10.7071,11.8787 C11.0675615,12.2391615 11.0952893,12.8064207 10.7902834,13.1986973 L10.7071,13.2929 L8,16 L5.29289,13.2929 C4.90237,12.9024 4.90237,12.2692 5.29289,11.8787 C5.65337923,11.5182385 6.22060645,11.4905107 6.61290152,11.7955166 L6.70711,11.8787 L7,12.1716 L7,3.82843 L6.70711,4.12132 C6.31658,4.51184 5.68342,4.51184 5.29289,4.12132 C4.90237,3.7308 4.90237,3.09763 5.29289,2.70711 L8,0 Z" id="icon" fill="#000000"></path>
    </g>
</svg>