<svg xmlns="http://www.w3.org/2000/svg" viewBox="0 0 380 140"><g fill="none" fill-rule="evenodd" transform="translate(-4-1)"><g fill="#e3421e"><g transform="translate(92 11)"><g fill-rule="nonzero"><path d="m2 10.991c0-2.482 1.01-4.801 2.767-6.487.399-.382.412-1.015.029-1.414-.382-.399-1.015-.412-1.414-.029-2.146 2.059-3.383 4.897-3.383 7.93 0 .552.448 1 1 1 .552 0 1-.448 1-1m7.537-8.873c.471-.077.95-.116 1.435-.117h6.425c.552 0 1-.448 1-1 0-.552-.448-1-1-1h-6.428c-.593.002-1.178.05-1.754.143-.545.089-.915.603-.826 1.148.089.545.603.915 1.148.826m13.86-.117h8c.552 0 1-.448 1-1 0-.552-.448-1-1-1h-8c-.552 0-1 .448-1 1 0 .552.448 1 1 1m14 0h8c.552 0 1-.448 1-1 0-.552-.448-1-1-1h-8c-.552 0-1 .448-1 1 0 .552.448 1 1 1m14 0h8c.552 0 1-.448 1-1 0-.552-.448-1-1-1h-8c-.552 0-1 .448-1 1 0 .552.448 1 1 1m14 0h8c.552 0 1-.448 1-1 0-.552-.448-1-1-1h-8c-.552 0-1 .448-1 1 0 .552.448 1 1 1m14 0h8c.552 0 1-.448 1-1 0-.552-.448-1-1-1h-8c-.552 0-1 .448-1 1 0 .552.448 1 1 1m14 0h8c.552 0 1-.448 1-1 0-.552-.448-1-1-1h-8c-.552 0-1 .448-1 1 0 .552.448 1 1 1m14 0h8c.552 0 1-.448 1-1 0-.552-.448-1-1-1h-8c-.552 0-1 .448-1 1 0 .552.448 1 1 1m14 0h8c.552 0 1-.448 1-1 0-.552-.448-1-1-1h-8c-.552 0-1 .448-1 1 0 .552.448 1 1 1m14 0h8c.552 0 1-.448 1-1 0-.552-.448-1-1-1h-8c-.552 0-1 .448-1 1 0 .552.448 1 1 1m14 0h8c.552 0 1-.448 1-1 0-.552-.448-1-1-1h-8c-.552 0-1 .448-1 1 0 .552.448 1 1 1m14 0h1.607c1.971 0 3.844.635 5.388 1.793.442.331 1.069.241 1.4-.201.331-.442.241-1.069-.201-1.4-1.887-1.415-4.18-2.192-6.587-2.192h-1.607c-.552 0-1 .448-1 1 0 .552.448 1 1 1m10.132 6.114c.307.908.468 1.865.471 2.844v4.829c0 .552.448 1 1 1 .552 0 1-.448 1-1v-4.833c-.004-1.199-.2-2.369-.576-3.481-.177-.523-.745-.804-1.268-.627-.523.177-.804.745-.627 1.268m.471 13.673v8c0 .552.448 1 1 1 .552 0 1-.448 1-1v-8c0-.552-.448-1-1-1-.552 0-1 .448-1 1m0 14v8c0 .552.448 1 1 1 .552 0 1-.448 1-1v-8c0-.552-.448-1-1-1-.552 0-1 .448-1 1m0 14v8c0 .552.448 1 1 1 .552 0 1-.448 1-1v-8c0-.552-.448-1-1-1-.552 0-1 .448-1 1m0 14v8c0 .552.448 1 1 1 .552 0 1-.448 1-1v-8c0-.552-.448-1-1-1-.552 0-1 .448-1 1m0 14v8c0 .552.448 1 1 1 .552 0 1-.448 1-1v-8c0-.552-.448-1-1-1-.552 0-1 .448-1 1m0 14v8c0 .552.448 1 1 1 .552 0 1-.448 1-1v-8c0-.552-.448-1-1-1-.552 0-1 .448-1 1m0 14v8c0 .552.448 1 1 1 .552 0 1-.448 1-1v-8c0-.552-.448-1-1-1-.552 0-1 .448-1 1m-.027 13.923c-.189 2.46-1.379 4.704-3.264 6.251-.427.35-.489.981-.139 1.407.35.427.981.489 1.407.139 2.303-1.89 3.758-4.635 3.989-7.644.042-.551-.37-1.031-.92-1.074-.551-.042-1.031.37-1.074.92m-8.216 8.259c-.245.02-.491.031-.739.031h-7.192c-.552 0-1 .448-1 1 0 .552.448 1 1 1h7.194c.303 0 .604-.013.903-.038.55-.045.96-.529.914-1.079-.045-.55-.529-.96-1.079-.914m-13.932.031h-8c-.552 0-1 .448-1 1 0 .552.448 1 1 1h8c.552 0 1-.448 1-1 0-.552-.448-1-1-1m-14 0h-8c-.552 0-1 .448-1 1 0 .552.448 1 1 1h8c.552 0 1-.448 1-1 0-.552-.448-1-1-1m-14 0h-8c-.552 0-1 .448-1 1 0 .552.448 1 1 1h8c.552 0 1-.448 1-1 0-.552-.448-1-1-1m-14 0h-8c-.552 0-1 .448-1 1 0 .552.448 1 1 1h8c.552 0 1-.448 1-1 0-.552-.448-1-1-1m-14 0h-8c-.552 0-1 .448-1 1 0 .552.448 1 1 1h8c.552 0 1-.448 1-1 0-.552-.448-1-1-1m-14 0h-8c-.552 0-1 .448-1 1 0 .552.448 1 1 1h8c.552 0 1-.448 1-1 0-.552-.448-1-1-1m-14 0h-8c-.552 0-1 .448-1 1 0 .552.448 1 1 1h8c.552 0 1-.448 1-1 0-.552-.448-1-1-1m-14 0h-8c-.552 0-1 .448-1 1 0 .552.448 1 1 1h8c.552 0 1-.448 1-1 0-.552-.448-1-1-1m-14 0h-8c-.552 0-1 .448-1 1 0 .552.448 1 1 1h8c.552 0 1-.448 1-1 0-.552-.448-1-1-1m-14 0h-8c-.552 0-1 .448-1 1 0 .552.448 1 1 1h8c.552 0 1-.448 1-1 0-.552-.448-1-1-1m-14 0h-.829c-2.217 0-4.308-.805-5.939-2.24-.415-.365-1.047-.324-1.411.09-.365.415-.324 1.047.09 1.411 1.993 1.754 4.552 2.739 7.26 2.739h.829c.552 0 1-.448 1-1 0-.552-.448-1-1-1m-9.554-6.792c-.177-.703-.269-1.428-.271-2.167v-5.605c0-.552-.448-1-1-1-.552 0-1 .448-1 1v5.609c.003.904.115 1.792.332 2.652.135.536.678.86 1.214.726.536-.135.86-.678.726-1.214m-.271-13.772v-8c0-.552-.448-1-1-1-.552 0-1 .448-1 1v8c0 .552.448 1 1 1 .552 0 1-.448 1-1m0-14v-8c0-.552-.448-1-1-1-.552 0-1 .448-1 1v8c0 .552.448 1 1 1 .552 0 1-.448 1-1m0-14v-8c0-.552-.448-1-1-1-.552 0-1 .448-1 1v8c0 .552.448 1 1 1 .552 0 1-.448 1-1m0-14v-8c0-.552-.448-1-1-1-.552 0-1 .448-1 1v8c0 .552.448 1 1 1 .552 0 1-.448 1-1m0-14v-8c0-.552-.448-1-1-1-.552 0-1 .448-1 1v8c0 .552.448 1 1 1 .552 0 1-.448 1-1m0-14v-8c0-.552-.448-1-1-1-.552 0-1 .448-1 1v8c0 .552.448 1 1 1 .552 0 1-.448 1-1m0-14v-8c0-.552-.448-1-1-1-.552 0-1 .448-1 1v8c0 .552.448 1 1 1 .552 0 1-.448 1-1m148.03 72.63c-.338-.044-.683-.066-1.033-.066-.327 0-.65.02-.967.058v-62.11c0-4.97-4.03-8.999-9.01-8.999h-13.11c.06-.309.091-.627.091-.953 0-.359-.038-.709-.11-1.047h13.13c6.08 0 11.01 4.924 11.01 10.999v62.11m-33.923-73.11c-.072.338-.11.688-.11 1.047 0 .326.031.645.091.953h-18.08c-4.98 0-9.01 4.02-9.01 8.992v26.16c-.325-.066-.661-.101-1.01-.101-.341 0-.673.034-.995.099v-26.15c0-6.073 4.925-10.992 11.01-10.992h18.1m-29.1 46.948c.322.065.654.099.995.099.344 0 .68-.035 1.01-.101v29.346c0 6.067-4.932 10.992-11.01 10.992h-19.15c.101-.395.154-.81.154-1.236 0-.26-.02-.515-.058-.764h19.05c4.974 0 9.01-4.03 9.01-8.992v-29.344m-38.877 40.34h-10.118c-6.078 0-11.01-4.927-11.01-11v-58.29c-4.5-.497-8-4.313-8-8.945 0-4.971 4.03-9 9-9 4.971 0 9 4.03 9 9 0 4.633-3.5 8.448-8 8.945v58.29c0 4.97 4.04 9 9.01 9h10.04c.375-2.953 2.897-5.236 5.952-5.236 3.314 0 6 2.686 6 6 0 3.314-2.686 6-6 6-2.89 0-5.303-2.043-5.872-4.764m-20.13-71.24c3.866 0 7-3.134 7-7 0-3.866-3.134-7-7-7-3.866 0-7 3.134-7 7 0 3.866 3.134 7 7 7m26 74c2.209 0 4-1.791 4-4 0-2.209-1.791-4-4-4-2.209 0-4 1.791-4 4 0 2.209 1.791 4 4 4m34-42c-3.314 0-6-2.686-6-6 0-3.314 2.686-6 6-6 3.314 0 6 2.686 6 6 0 3.314-2.686 6-6 6m0-2c2.209 0 4-1.791 4-4 0-2.209-1.791-4-4-4-2.209 0-4 1.791-4 4 0 2.209 1.791 4 4 4m33-39c-3.314 0-6-2.686-6-6 0-3.314 2.686-6 6-6 3.314 0 6 2.686 6 6 0 3.314-2.686 6-6 6m0-2c2.209 0 4-1.791 4-4 0-2.209-1.791-4-4-4-2.209 0-4 1.791-4 4 0 2.209 1.791 4 4 4m28 85c-4.971 0-9-4.03-9-9 0-4.971 4.03-9 9-9 4.971 0 9 4.03 9 9 0 4.971-4.03 9-9 9m0-2c3.866 0 7-3.134 7-7 0-3.866-3.134-7-7-7-3.866 0-7 3.134-7 7 0 3.866 3.134 7 7 7"/><path d="m149 108c-2.209 0-4-1.791-4-4 0-2.209 1.791-4 4-4 2.209 0 4 1.791 4 4 0 2.209-1.791 4-4 4m0-2c1.105 0 2-.895 2-2 0-1.105-.895-2-2-2-1.105 0-2 .895-2 2 0 1.105.895 2 2 2"/></g><path d="m54 38c0-.554.444-1 1-1 .552 0 1 .456 1 1v9.995c0 .554-.444 1-1 1-.552 0-1-.456-1-1v-9.995m0 22c0-.554.444-1 1-1 .552 0 1 .456 1 1v9.995c0 .554-.444 1-1 1-.552 0-1-.456-1-1v-9.995m0 22c0-.554.444-1 1-1 .552 0 1 .456 1 1v9.995c0 .554-.444 1-1 1-.552 0-1-.456-1-1v-9.995m66-44c0-.554.444-1 1-1 .552 0 1 .456 1 1v9.995c0 .554-.444 1-1 1-.552 0-1-.456-1-1v-9.995m0 22c0-.554.444-1 1-1 .552 0 1 .456 1 1v9.995c0 .554-.444 1-1 1-.552 0-1-.456-1-1v-9.995m0 22c0-.554.444-1 1-1 .552 0 1 .456 1 1v9.995c0 .554-.444 1-1 1-.552 0-1-.456-1-1v-9.995"/></g><path fill-rule="nonzero" d="m18 67h-3.997c-.554 0-1-.444-1-1 0-.552.438-1 1-1h3.997v-8h-3.997c-.554 0-1-.444-1-1 0-.552.438-1 1-1h3.997v-8h-3.997c-.554 0-1-.444-1-1 0-.552.438-1 1-1h3.997v-8h-3.997c-.554 0-1-.444-1-1 0-.552.438-1 1-1h3.997v-8h-3.997c-.554 0-1-.444-1-1 0-.552.438-1 1-1h3.997v-8h-3.997c-.554 0-1-.444-1-1 0-.552.438-1 1-1h3.997v-11.01c0-1.099-.892-1.99-1.993-1.99h-12.01c-1.093 0-1.993.896-1.993 1.99v74.02c0 1.099.892 1.99 1.993 1.99h12.01c1.093 0 1.993-.896 1.993-1.99v-11.01m-18-63.01c0-2.2 1.797-3.99 3.993-3.99h12.01c2.205 0 3.993 1.786 3.993 3.99v74.02c0 2.2-1.797 3.99-3.993 3.99h-12.01c-2.205 0-3.993-1.786-3.993-3.99v-74.02" transform="matrix(.96593.25882-.25882.96593 49.94.775)"/></g><g transform="matrix(.96593.25882-.25882.96593 304.57 32.22)"><path fill="#e3421e" fill-rule="nonzero" d="m83 67h12.994c1.947 0 2.384-.865 1.23-2.426l-45.06-60.959c-1.245-1.684-3.091-1.683-4.335 0l-45.06 60.959c-1.156 1.564-.719 2.426 1.23 2.426h12.994v-4.01c0-.547.444-.991 1-.991.552 0 1 .451 1 .991v4.01h6v-4.01c0-.547.444-.991 1-.991.552 0 1 .451 1 .991v4.01h6v-4.01c0-.547.444-.991 1-.991.552 0 1 .451 1 .991v4.01h6v-4.01c0-.547.444-.991 1-.991.552 0 1 .451 1 .991v4.01h6v-4.01c0-.547.444-.991 1-.991.552 0 1 .451 1 .991v4.01h6v-4.01c0-.547.444-.991 1-.991.552 0 1 .451 1 .991v4.01h6v-4.01c0-.547.444-.991 1-.991.552 0 1 .451 1 .991v4.01h6v-4.01c0-.547.444-.991 1-.991.552 0 1 .451 1 .991v4.01h6v-4.01c0-.547.444-.991 1-.991.552 0 1 .451 1 .991v4.01m-29.22-64.57l45.06 60.959c2.13 2.882.749 5.615-2.838 5.615h-91.99c-3.587 0-4.972-2.728-2.838-5.615l45.06-60.959c2.043-2.764 5.507-2.767 7.552 0"/><path stroke="#e3421e" stroke-width="2" d="m48.23 30.428c.975-1.341 2.559-1.337 3.531 0l12.469 17.14c.975 1.341.431 2.428-1.23 2.428h-26.01c-1.655 0-2.203-1.091-1.23-2.428l12.469-17.14"/></g><path fill="#e3421e" fill-rule="nonzero" d="m14 14.02v47.981c0 2.207-1.789 3.997-3.997 3.997h-6.01c-2.209 0-3.997-1.786-3.997-3.997v-47.981c-.003-.137.022-.277.079-.412l5.5-13c.157-.37.519-.61.921-.61h1c.402 0 .764.24.921.61l5.5 13c.057.135.082.275.079.412m-11.914-.022h9.828l-4.914-11.615-4.914 11.615m-.086 48c0 1.105.892 1.997 1.997 1.997h6.01c1.103 0 1.997-.894 1.997-1.997v-46h-10v46m4-37.01c0-.548.444-.993 1-.993.552 0 1 .452 1 .993v30.01c0 .548-.444.993-1 .993-.552 0-1-.452-1-.993v-30.01" transform="matrix(.96593-.25882.25882.96593.775 77.4)"/></g></svg>