<svg xmlns="http://www.w3.org/2000/svg" width="16" height="16" viewBox="0 0 16 16" xmlns:xlink="http://www.w3.org/1999/xlink"><defs><path id="a" d="M8 16A8 8 0 1 1 8 0a8 8 0 0 1 0 16zm0-2A6 6 0 1 0 8 2a6 6 0 0 0 0 12zm4.535-3.892a5.02 5.02 0 0 1-1.555 1.908c.013-.143.02-.294.02-.456 0-1.028-.372-1.918-1.12-2.551 1.424.07 2.223.533 2.655 1.099zm-3.868-2.36C8.879 7.38 9 6.954 9 6.5c0-.454-.121-.88-.333-1.248a1.5 1.5 0 1 1 0 2.495zm-5.2 2.367C3.939 9.5 4.84 9 6.5 9c2.938 0 3.5 1.538 3.5 2.56 0 .902-.035 1.334-2.421 1.423a5.003 5.003 0 0 1-4.111-2.868zM6.5 8a1.5 1.5 0 1 1 0-3 1.5 1.5 0 0 1 0 3z"/></defs><g fill="none" fill-rule="evenodd"><use fill="#000" xlink:href="#a"/><path stroke="#FFF" d="M8 16.5a8.5 8.5 0 1 1 0-17 8.5 8.5 0 0 1 0 17zm0-3a5.5 5.5 0 1 1 0-11 5.5 5.5 0 0 1 0 11zm4.989-3.181a5.52 5.52 0 0 1-1.711 2.098l-.906.673.11-1.123a4.18 4.18 0 0 0 .018-.407c0-.902-.322-1.644-.943-2.17L8.43 8.439l1.474.072c1.436.07 2.44.524 3.029 1.294l.183.24-.127.275zM8.234 7.498c.173-.301.266-.642.266-.998s-.093-.697-.266-.998L8 5.097l.389-.26a2 2 0 1 1 0 3.326L8 7.903l.234-.405zM3.07 9.81C3.717 8.966 4.853 8.5 6.5 8.5c2.734 0 4 1.278 4 3.06 0 1.414-.557 1.835-2.963 1.92a5.502 5.502 0 0 1-4.522-3.154l-.128-.274.184-.241zM6.5 8.5a2 2 0 1 1 0-4 2 2 0 0 1 0 4z"/></g></svg>