<svg xmlns="http://www.w3.org/2000/svg" width="16" height="16" viewBox="0 0 16 16">
  <path fill="#000000" d="M3,2 L13,2 C14.6568542,2 16,3.34314575 16,5 L16,11 C16,12.6568542 14.6568542,14 13,14 L3,14 C1.34314575,14 2.02906125e-16,12.6568542 0,11 L0,5 C-2.02906125e-16,3.34314575 1.34314575,2 3,2 Z M3,4 C2.44771525,4 2,4.44771525 2,5 L2,11 C2,11.5522847 2.44771525,12 3,12 L13,12 C13.5522847,12 14,11.5522847 14,11 L14,5 C14,4.44771525 13.5522847,4 13,4 L3,4 Z M4,9 C3.44771525,9 3,8.55228475 3,8 C3,7.44771525 3.44771525,7 4,7 C4.55228475,7 5,7.44771525 5,8 C5,8.55228475 4.55228475,9 4,9 Z M8,9 C7.44771525,9 7,8.55228475 7,8 C7,7.44771525 7.44771525,7 8,7 C8.55228475,7 9,7.44771525 9,8 C9,8.55228475 8.55228475,9 8,9 Z M12,9 C11.4477153,9 11,8.55228475 11,8 C11,7.44771525 11.4477153,7 12,7 C12.5522847,7 13,7.44771525 13,8 C13,8.55228475 12.5522847,9 12,9 Z"/>
</svg>
