<svg xmlns="http://www.w3.org/2000/svg" width="16" height="16" viewBox="0 0 16 16"><g fill="none" fill-rule="evenodd"><circle cx="13.5" cy="7.5" r="1.5" fill="#FFF"/><path fill="#000" d="M9.195 9.965l-.568-.875a.25.25 0 0 1 .015-.294l.405-.5a.25.25 0 0 1 .283-.075l.938.36c.257-.183.543-.325.851-.42l.322-.988A.25.25 0 0 1 11.679 7h.642a.25.25 0 0 1 .238.173l.322.988c.308.095.594.237.851.42l.938-.36a.25.25 0 0 1 .283.076l.405.5a.25.25 0 0 1 .015.293l-.568.875c.113.297.18.616.193.95l.898.54a.25.25 0 0 1 .115.27l-.144.626a.25.25 0 0 1-.222.193l-1.115.098a3.015 3.015 0 0 1-.512.608l.165 1.18a.25.25 0 0 1-.138.259l-.577.281a.25.25 0 0 1-.29-.05l-.874-.905a3.035 3.035 0 0 1-.608 0l-.875.904a.25.25 0 0 1-.289.051l-.577-.281a.25.25 0 0 1-.138-.26l.165-1.18a3.015 3.015 0 0 1-.512-.607l-1.115-.098a.25.25 0 0 1-.222-.193l-.144-.626a.25.25 0 0 1 .115-.27l.898-.54c.013-.334.08-.653.193-.95zM6.789 8.023A12.845 12.845 0 0 0 6 8c-5.036 0-6 2.74-6 4.48C0 14.22.076 15 6 15c.553 0 1.055-.006 1.51-.02A5.977 5.977 0 0 1 6 11c0-1.083.287-2.1.79-2.977zM5.976 7a3 3 0 1 1 0-6 3 3 0 0 1 0 6zM12 12a1 1 0 1 0 0-2 1 1 0 0 0 0 2z"/></g></svg>