<svg xmlns="http://www.w3.org/2000/svg" viewBox="0 0 30 30"><path fill="#fdb692" fill-rule="evenodd" d="m6 15c0 .19.006.379.018.567l-1.245.719c-1.194.689-1.606 2.219-.916 3.414l1.501 2.601c.692 1.199 2.218 1.605 3.414.914l1.244-.718c.315.21.644.4.983.569v1.436c0 1.379 1.119 2.5 2.499 2.5h3c1.385 0 2.499-1.118 2.499-2.5v-1.436c.339-.169.668-.359.983-.569l1.244.718c1.194.689 2.725.281 3.414-.914l1.501-2.601c.692-1.199.281-2.723-.916-3.414l-1.245-.719c.012-.188.018-.377.018-.567 0-.19-.006-.379-.018-.567l1.245-.719c1.194-.689 1.606-2.219.916-3.414l-1.501-2.601c-.692-1.199-2.218-1.605-3.414-.914l-1.244.718c-.315-.21-.644-.4-.983-.569v-1.436c0-1.379-1.119-2.5-2.499-2.5h-3c-1.385 0-2.499 1.118-2.499 2.5v1.436c-.339.169-.668.359-.983.569l-1.244-.718c-1.194-.689-2.725-.281-3.414.914l-1.501 2.601c-.692 1.199-.281 2.723.916 3.414l1.245.719c-.012.188-.018.377-.018.567m2.067-.975l.098-.707-.636-.323c-.012-.006-1.756-1.013-1.756-1.013-.242-.14-.323-.441-.184-.682l1.501-2.601c.137-.237.444-.319.682-.182l1.732 1c.013.007.624.405.624.405l.563-.44c.514-.402 1.081-.73 1.686-.975l.662-.268-.038-.713c-.001-.014-.001-2.027-.001-2.027 0-.279.22-.5.499-.5h3c.274 0 .499.225.499.5v2c0 .014-.038.74-.038.74l.661.267c.605.245 1.172.573 1.686.975l.563.441.599-.391c.012-.008 1.756-1.015 1.756-1.015.242-.14.543-.059.682.182l1.501 2.601c.137.237.054.544-.184.682l-1.732 1c-.013.007-.661.337-.661.337l.098.706c.045.321.067.646.067.975 0 .329-.023.654-.067.975l-.098.707.636.323c.012.006 1.756 1.013 1.756 1.013.242.14.323.441.184.682l-1.501 2.601c-.137.237-.444.319-.682.182l-1.732-1c-.013-.007-.624-.405-.624-.405l-.563.44c-.514.402-1.081.73-1.686.975l-.662.268.038.713c.001.014.001 2.027.001 2.027 0 .279-.22.5-.499.5h-3c-.274 0-.499-.225-.499-.5v-2c0-.014.038-.74.038-.74l-.661-.267c-.605-.245-1.172-.573-1.686-.975l-.563-.441-.599.391c-.012.008-1.756 1.015-1.756 1.015-.242.14-.543.059-.682-.182l-1.501-2.601c-.137-.237-.054-.544.184-.682l1.732-1c.013-.007.661-.337.661-.337l-.098-.706c-.045-.321-.067-.646-.067-.975 0-.329.023-.654.067-.975m6.933 3.975c1.657 0 3-1.343 3-3 0-1.657-1.343-3-3-3-1.657 0-3 1.343-3 3 0 1.657 1.343 3 3 3m0-2c-.552 0-1-.448-1-1 0-.552.448-1 1-1 .552 0 1 .448 1 1 0 .552-.448 1-1 1"/></svg>