<svg xmlns="http://www.w3.org/2000/svg" viewBox="0 0 30 30"><path fill="#b5a7dd" fill-rule="evenodd" d="m19.09 14.391c.85.174 1.659.416 2.425.739 2.819 1.191 4.486 3.352 4.486 6.55 0 2.11-1.44 3.344-3.908 3.893-1.663.37-3.259.44-7.092.44-3.833 0-5.429-.071-7.092-.44-2.468-.548-3.908-1.783-3.908-3.893 0-3.198 1.668-5.366 4.484-6.56.76-.322 1.569-.564 2.416-.739-1.169-1.095-1.9-2.652-1.9-4.381 0-3.314 2.686-6 6-6 3.314 0 6 2.686 6 6 0 1.734-.735 3.295-1.911 4.391m-4.089 9.622c-6.77 0-9-.495-9-2.333 0-4.137 3.667-5.693 8.995-5.666 5.426.027 9 1.539 9 5.666 0 1.838-2.23 2.333-9 2.333m0-10.01c-2.209 0-4-1.791-4-4 0-2.209 1.791-4 4-4 2.209 0 4 1.791 4 4 0 2.209-1.791 4-4 4"/></svg>