<svg xmlns="http://www.w3.org/2000/svg" viewBox="0 0 252 172" xmlns:xlink="http://www.w3.org/1999/xlink"><defs><path id="0" d="m185 5c0-2.762 2.229-5 4.998-5h21c2.76 0 4.998 2.235 4.998 5v37.998c0 2.762-1.898 3.815-4.246 2.347l-10.905-6.816c-.469-.293-1.22-.283-1.677.021l-10.01 6.676c-2.297 1.531-4.158.537-4.158-2.229v-37.998"/><mask id="1" width="31" height="46.01" x="0" y="0" fill="#fff"><use xlink:href="#0"/></mask></defs><g fill="none" fill-rule="evenodd"><g transform="translate(7 3)"><g transform="translate(0 6)"><g fill="#e5e5e5"><path d="m4 9.998c0-3.312 2.686-5.998 5.996-5.998h100.01c3.308 0 5.996 2.69 5.996 5.998v136c0 3.312-2.686 5.998-5.996 5.998h-100.01c-3.308 0-5.996-2.69-5.996-5.998v-136m-4 0v136c0 5.516 4.478 9.998 9.996 9.998h100.01c5.519 0 9.996-4.477 9.996-9.998v-136c0-5.516-4.478-9.998-9.996-9.998h-100.01c-5.519 0-9.996 4.477-9.996 9.998"/><path d="m122 9.998c0-3.312 2.686-5.998 5.996-5.998h100.01c3.308 0 5.996 2.69 5.996 5.998v136c0 3.312-2.686 5.998-5.996 5.998h-100.01c-3.308 0-5.996-2.69-5.996-5.998v-136m-4 0v136c0 5.516 4.478 9.998 9.996 9.998h100.01c5.519 0 9.996-4.477 9.996-9.998v-136c0-5.516-4.478-9.998-9.996-9.998h-100.01c-5.519 0-9.996 4.477-9.996 9.998"/></g><g fill="#eee"><path d="m11 13.993v128.01c0 1.096.899 1.993 2.01 1.993h101.98c1.118 0 2.01-.889 2.01-1.993v-128.01c0-1.096-.899-1.993-2.01-1.993h-101.98c-1.118 0-2.01.889-2.01 1.993m-4 0c0-3.31 2.678-5.993 6.01-5.993h101.98c3.318 0 6.01 2.687 6.01 5.993v128.01c0 3.31-2.678 5.993-6.01 5.993h-101.98c-3.318 0-6.01-2.687-6.01-5.993v-128.01"/><path d="m121 13.993v128.01c0 1.096.899 1.993 2.01 1.993h101.98c1.118 0 2.01-.889 2.01-1.993v-128.01c0-1.096-.899-1.993-2.01-1.993h-101.98c-1.118 0-2.01.889-2.01 1.993m-4 0c0-3.31 2.678-5.993 6.01-5.993h101.98c3.318 0 6.01 2.687 6.01 5.993v128.01c0 3.31-2.678 5.993-6.01 5.993h-101.98c-3.318 0-6.01-2.687-6.01-5.993v-128.01"/><g transform="matrix(-1 0 0 1 71 37)"><rect width="34" height="7" rx="3.5"/><rect width="34" height="7" x="16" y="13" rx="3.5"/><path d="m19 7h11c-1.654.003-3 1.345-3 3 0 1.652 1.343 2.997 3 3h-11c1.654-.003 3-1.345 3-3 0-1.652-1.343-2.997-3-3"/></g></g><path fill="#dad3ee" d="m80 122h26v-31h-26v31m-4-35h30.998c1.658 0 3 1.342 3 2.996v36h-34v-39"/><g transform="translate(46 28)"><path fill="#b5a7dd" d="m19 21h5.01c1.654 0 2.994 1.336 2.994 3v12h3.998c1.658 0 3 1.353 3 2.99v57.02c0 1.1-.892 1.993-2 1.993h-30c-1.105 0-2-.9-2-1.993v-57.02c0-1.652 1.343-2.99 3-2.99h3.998v-12c0-1.657 1.343-3 2.994-3h5.01v-19.499c0-.829.679-1.501 1.501-1.501h.998c.829 0 1.501.667 1.501 1.501v19.499m-15 73h26v-54h-26v54m7-69v11h12v-11h-12"/><g transform="translate(8 46)"><rect width="6" height="6" fill="#fc6d26" rx="1"/><rect width="6" height="6" y="12" fill="#b5a7dd" rx="1"/><g fill="#6b4fbb"><rect width="6" height="6" y="24" rx="1"/><rect width="6" height="6" x="12" rx="1"/></g><g fill="#b5a7dd"><rect width="6" height="6" x="12" y="12" rx="1"/><rect width="6" height="6" x="12" y="24" rx="1"/><rect width="6" height="6" y="36" rx="1"/></g><rect width="6" height="6" x="12" y="36" fill="#6b4fbb" rx="1"/></g></g><g fill="#dad3ee"><path d="m187 122l-4 4v-4h4m-25.5 4h25.5v-32.993c0-1.662-1.344-3.01-3-3.01h-28.998c-1.108 0-2 .895-2 2v11h4v-9h26v28h-13v4h-8.5"/><path d="m140 107v15h26v-15h-26m-4-4h30.998c1.658 0 3 1.336 3 3.01v19.993h-34v-23"/></g><rect width="184" height="4" x="27" y="122" fill="#b5a7dd" rx="1"/></g><use fill="#fc8a51" stroke="#fc6d26" stroke-width="8" mask="url(#1)" xlink:href="#0"/></g><g fill="#eee" transform="translate(154 64)"><rect width="30" height="7" rx="3.5"/><rect width="30" height="7" x="12" y="13" rx="3.5"/><path d="m15 7h11c-1.654.003-3 1.345-3 3 0 1.652 1.343 2.997 3 3h-11c1.654-.003 3-1.345 3-3 0-1.652-1.343-2.997-3-3"/></g></g></svg>