<svg xmlns="http://www.w3.org/2000/svg" viewBox="0 0 252 172" xmlns:xlink="http://www.w3.org/1999/xlink"><defs><path id="0" d="m185 5c0-2.762 2.229-5 4.998-5h21c2.76 0 4.998 2.235 4.998 5v37.998c0 2.762-1.898 3.815-4.246 2.347l-10.905-6.816c-.469-.293-1.22-.283-1.677.021l-10.01 6.676c-2.297 1.531-4.158.537-4.158-2.229v-37.998"/><mask id="1" width="31" height="46.01" x="0" y="0" fill="#fff"><use xlink:href="#0"/></mask></defs><g fill="none" fill-rule="evenodd" transform="translate(7 3)"><g transform="translate(0 6)"><g fill="#e5e5e5"><path d="m4 9.998c0-3.312 2.686-5.998 5.996-5.998h100.01c3.308 0 5.996 2.69 5.996 5.998v136c0 3.312-2.686 5.998-5.996 5.998h-100.01c-3.308 0-5.996-2.69-5.996-5.998v-136m-4 0v136c0 5.516 4.478 9.998 9.996 9.998h100.01c5.519 0 9.996-4.477 9.996-9.998v-136c0-5.516-4.478-9.998-9.996-9.998h-100.01c-5.519 0-9.996 4.477-9.996 9.998"/><path d="m122 9.998c0-3.312 2.686-5.998 5.996-5.998h100.01c3.308 0 5.996 2.69 5.996 5.998v136c0 3.312-2.686 5.998-5.996 5.998h-100.01c-3.308 0-5.996-2.69-5.996-5.998v-136m-4 0v136c0 5.516 4.478 9.998 9.996 9.998h100.01c5.519 0 9.996-4.477 9.996-9.998v-136c0-5.516-4.478-9.998-9.996-9.998h-100.01c-5.519 0-9.996 4.477-9.996 9.998"/></g><g fill="#eee"><path d="m11 13.993v128.01c0 1.096.899 1.993 2.01 1.993h101.98c1.118 0 2.01-.889 2.01-1.993v-128.01c0-1.096-.899-1.993-2.01-1.993h-101.98c-1.118 0-2.01.889-2.01 1.993m-4 0c0-3.31 2.678-5.993 6.01-5.993h101.98c3.318 0 6.01 2.687 6.01 5.993v128.01c0 3.31-2.678 5.993-6.01 5.993h-101.98c-3.318 0-6.01-2.687-6.01-5.993v-128.01"/><path d="m121 13.993v128.01c0 1.096.899 1.993 2.01 1.993h101.98c1.118 0 2.01-.889 2.01-1.993v-128.01c0-1.096-.899-1.993-2.01-1.993h-101.98c-1.118 0-2.01.889-2.01 1.993m-4 0c0-3.31 2.678-5.993 6.01-5.993h101.98c3.318 0 6.01 2.687 6.01 5.993v128.01c0 3.31-2.678 5.993-6.01 5.993h-101.98c-3.318 0-6.01-2.687-6.01-5.993v-128.01"/></g></g><g transform="translate(30 44)"><path fill="#e1dcf1" d="m29.659 4h32.34c.783 0 1.494.457 1.819 1.168l16 35c.459 1 .017 2.191-.987 2.65-1 .459-2.191.017-2.65-.987l-15.466-33.832h-31.06c.221-.626.341-1.299.341-2 0-.701-.12-1.374-.341-2m0 71h24.341c.834 0 1.58-.517 1.873-1.298l12-32c.388-1.034-.136-2.187-1.17-2.575-1.034-.388-2.187.136-2.575 1.17l-11.513 30.702h-22.955c.221.626.341 1.299.341 2 0 .701-.12 1.374-.341 2m79.1-1.045l32.06-59c.527-.971.168-2.185-.802-2.712-.971-.527-2.185-.168-2.712.802l-32.06 59c-.527.971-.168 2.185.802 2.712.971.527 2.185.168 2.712-.802"/><g fill="#b5a7dd"><path d="m17.777 39h22.513c-.189.634-.29 1.305-.29 2 0 .695.101 1.366.29 2h-22.513c.146-.643.223-1.313.223-2 0-.687-.077-1.357-.223-2m35.933 0h36.13l10.775-18.856c.788 1.13 1.83 2.07 3.041 2.74l-10.919 19.11c-.356.623-1.019 1.01-1.736 1.01h-37.29c.189-.634.29-1.305.29-2 0-.695-.101-1.366-.29-2m62.35-28h41.23c-.189.634-.29 1.305-.29 2 0 .695.101 1.366.29 2h-40.29c0-1.437-.337-2.795-.936-4"/><path d="m9 50c4.971 0 9-4.03 9-9 0-4.971-4.03-9-9-9-4.971 0-9 4.03-9 9 0 4.971 4.03 9 9 9m0-4c-2.761 0-5-2.239-5-5 0-2.761 2.239-5 5-5 2.761 0 5 2.239 5 5 0 2.761-2.239 5-5 5"/></g><path fill="#6b4fbb" d="m24 12c3.314 0 6-2.686 6-6 0-3.314-2.686-6-6-6-3.314 0-6 2.686-6 6 0 3.314 2.686 6 6 6m0-4c-1.105 0-2-.895-2-2 0-1.105.895-2 2-2 1.105 0 2 .895 2 2 0 1.105-.895 2-2 2"/><path fill="#fc6d26" d="m24 79c3.314 0 6-2.686 6-6 0-3.314-2.686-6-6-6-3.314 0-6 2.686-6 6 0 3.314 2.686 6 6 6m0-4c-1.105 0-2-.895-2-2 0-1.105.895-2 2-2 1.105 0 2 .895 2 2 0 1.105-.895 2-2 2"/><path fill="#6b4fbb" d="m47 48c3.866 0 7-3.134 7-7 0-3.866-3.134-7-7-7-3.866 0-7 3.134-7 7 0 3.866 3.134 7 7 7m0-4c-1.657 0-3-1.343-3-3 0-1.657 1.343-3 3-3 1.657 0 3 1.343 3 3 0 1.657-1.343 3-3 3"/><path fill="#fc6d26" d="m108 24c4.971 0 9-4.03 9-9 0-4.971-4.03-9-9-9-4.971 0-9 4.03-9 9 0 4.971 4.03 9 9 9m0-4c-2.761 0-5-2.239-5-5 0-2.761 2.239-5 5-5 2.761 0 5 2.239 5 5 0 2.761-2.239 5-5 5"/><circle cx="107" cy="73" r="7" fill="#fff" stroke="#6b4fbb" stroke-width="4"/><path fill="#b5a7dd" d="m164 20c3.866 0 7-3.134 7-7 0-3.866-3.134-7-7-7-3.866 0-7 3.134-7 7 0 3.866 3.134 7 7 7m0-4c-1.657 0-3-1.343-3-3 0-1.657 1.343-3 3-3 1.657 0 3 1.343 3 3 0 1.657-1.343 3-3 3"/></g><use fill="#fc8a51" stroke="#fc6d26" stroke-width="8" mask="url(#1)" xlink:href="#0"/></g></svg>