<svg xmlns="http://www.w3.org/2000/svg" viewBox="0 0 470 267"><g fill="none" fill-rule="evenodd"><path fill="#efedf8" fill-rule="nonzero" d="M400.26 212.73c2.3-1.46 4.52-3.03 6.68-4.7.88-.66 1.05-1.9.37-2.8-.6-.87-1.9-1.03-2.8-.36-2 1.6-4.2 3.1-6.4 4.5-.9.6-1.2 1.83-.6 2.76.6.93 1.9 1.2 2.8.6zm14.5-11.35c1.97-1.87 3.86-3.83 5.67-5.86.74-.83.67-2.1-.16-2.83-.82-.8-2.1-.7-2.82.1-1.74 1.9-3.56 3.8-5.45 5.6-.8.7-.84 2-.08 2.8.76.8 2.03.8 2.83 0zm12.02-13.78c1.6-2.2 3.1-4.5 4.5-6.82.56-.95.25-2.18-.7-2.75-.94-.56-2.17-.26-2.74.7-1.34 2.23-2.78 4.42-4.3 6.54-.65.9-.45 2.14.45 2.8.9.63 2.1.43 2.7-.47zm5.63-104.43c-1.3-2.37-2.7-4.68-4.3-6.93-.6-.9-1.8-1.14-2.8-.52-.9.63-1.1 1.87-.5 2.78 1.5 2.16 2.9 4.38 4.2 6.65.6.96 1.8 1.3 2.8.75s1.3-1.77.8-2.73zM421.9 68.1c-1.77-2.07-3.62-4.07-5.56-5.98-.8-.78-2.05-.78-2.82 0-.78.8-.78 2.06 0 2.84 1.86 1.84 3.64 3.75 5.33 5.74.73.84 2 .94 2.83.22.84-.7.94-1.98.23-2.82zm-13.13-12.75c-2.13-1.7-4.32-3.32-6.58-4.85-.9-.6-2.2-.37-2.8.55-.7.9-.4 2.15.5 2.77 2.1 1.46 4.3 3 6.3 4.65.8.7 2.1.55 2.8-.3.7-.87.5-2.13-.3-2.82zm-15.36-10.1c-2.4-1.3-4.8-2.46-7.3-3.53-1-.43-2.2.04-2.6 1.06-.4 1 .1 2.2 1.1 2.62 2.4 1.03 4.8 2.15 7.1 3.37 1 .52 2.2.15 2.7-.83.5-.97.2-2.18-.8-2.7zm-17-7.04c-2.6-.8-5.2-1.4-7.9-2-1.1-.2-2.1.5-2.3 1.6-.2 1.1.5 2.2 1.6 2.4 2.6.6 5.1 1.2 7.6 2 1.1.4 2.2-.2 2.5-1.3.3-1-.3-2.1-1.3-2.5zm-87.2 15.7c-2.1 1.7-4.2 3.4-6.2 5.3-.8.8-.9 2-.1 2.8.8.8 2 .9 2.8.2 2-1.7 4-3.4 6.1-5 .9-.7 1.08-1.9.4-2.8-.67-.9-1.92-1-2.8-.4zm-13.5 12.5c-1.8 2.1-3.5 4.2-5.2 6.3-.6.9-.4 2.2.4 2.8.9.7 2.2.5 2.8-.3 1.6-2.1 3.3-4.1 5-6 .8-.8.7-2-.1-2.8-.8-.7-2-.6-2.8.2zM310 220.3c2.5 1.1 5.06 2.1 7.65 2.9 1.04.4 2.18-.2 2.5-1.22.3-1.06-.3-2.2-1.3-2.54-2.5-.82-4.95-1.74-7.3-2.77-1.06-.44-2.2.03-2.7 1.05-.4 1 .07 2.2 1.08 2.63z"/><path fill="#f9f9f9" d="m127.9 91c-.46 2.28-2.48 4-4.9 4h-54c-2.42 0-4.44-1.72-4.9-4 1.26 1.24 3 2 4.9 2h54c1.9 0 3.64-.76 4.9-2"/><path fill="#eee" fill-rule="nonzero" d="M69 17c-1.66 0-3 1.34-3 3v66c0 1.66 1.34 3 3 3h54c1.66 0 3-1.34 3-3V20c0-1.66-1.34-3-3-3H69zm0-4h54c3.87 0 7 3.13 7 7v66c0 3.87-3.13 7-7 7H69c-3.87 0-7-3.13-7-7V20c0-3.87 3.13-7 7-7z"/><path fill="#fee1d3" d="m95.5 30h19c.83 0 1.5.67 1.5 1.5s-.67 1.5-1.5 1.5h-19c-.83 0-1.5-.67-1.5-1.5s.67-1.5 1.5-1.5m0 6h11c.83 0 1.5.67 1.5 1.5s-.67 1.5-1.5 1.5h-11c-.83 0-1.5-.67-1.5-1.5s.67-1.5 1.5-1.5m0 12h19c.83 0 1.5.67 1.5 1.5s-.67 1.5-1.5 1.5h-19c-.83 0-1.5-.67-1.5-1.5s.67-1.5 1.5-1.5m0 6h11c.83 0 1.5.67 1.5 1.5s-.67 1.5-1.5 1.5h-11c-.83 0-1.5-.67-1.5-1.5s.67-1.5 1.5-1.5m0 12h19c.83 0 1.5.67 1.5 1.5s-.67 1.5-1.5 1.5h-19c-.83 0-1.5-.67-1.5-1.5s.67-1.5 1.5-1.5m0 6h11c.83 0 1.5.67 1.5 1.5s-.67 1.5-1.5 1.5h-11c-.83 0-1.5-.67-1.5-1.5s.67-1.5 1.5-1.5"/><path fill="#fc6d26" d="m79.6 35.5l-1.8-1.8c-.6-.6-1.54-.6-2.12 0-.6.58-.6 1.53 0 2.12l2.83 2.83c.3.3.7.44 1.1.44.4 0 .8-.2 1.1-.5l5.6-5.6c.6-.6.6-1.6 0-2.1-.5-.6-1.5-.6-2.1 0l-4.6 4.6z"/><path fill="#eee" d="m79.95 53.5l-1.77-1.78c-.58-.6-1.53-.6-2.12 0-.6.58-.6 1.53 0 2.12l2.83 2.83c.2.3.6.44 1 .44s.7-.1 1-.4l5.7-5.7c.6-.5.6-1.5 0-2.1-.6-.6-1.6-.6-2.1 0l-4.6 4.6zm0 18l-1.77-1.78c-.58-.6-1.53-.6-2.12 0-.6.58-.6 1.53 0 2.12l2.83 2.83c.2.3.6.44 1 .44s.7-.1 1-.4l5.7-5.7c.6-.5.6-1.5 0-2.1-.6-.6-1.6-.6-2.1 0l-4.6 4.6z"/><g transform="translate(0 108)"><path fill="#f9f9f9" d="M66.06 10.92L66 11l-.06-.08c.04.36.06.72.06 1.08v56c0 5.52-4.48 10-10 10H12c-3.24 0-6.12-1.54-7.94-3.92C4.6 79.08 8.84 83 14 83h44c3.27 0 6.18-1.57 8-4 1.82 2.43 4.73 4 8 4h44c5.16 0 9.4-3.9 9.94-8.92-1.82 2.38-4.7 3.92-7.94 3.92H76c-5.52 0-10-4.48-10-10V12c0-.36.02-.72.06-1.08z"/><g fill="#eee"><g fill-rule="nonzero"><path d="M12 4c-4.42 0-8 3.58-8 8v56c0 4.42 3.58 8 8 8h44c4.42 0 8-3.58 8-8V12c0-4.42-3.58-8-8-8H12zm0-4h44c6.63 0 12 5.37 12 12v56c0 6.63-5.37 12-12 12H12C5.37 80 0 74.63 0 68V12C0 5.37 5.37 0 12 0z"/><path d="M76 4c-4.42 0-8 3.58-8 8v56c0 4.42 3.58 8 8 8h44c4.42 0 8-3.58 8-8V12c0-4.42-3.58-8-8-8H76zm0-4h44c6.63 0 12 5.37 12 12v56c0 6.63-5.37 12-12 12H76c-6.63 0-12-5.37-12-12V12c0-6.63 5.37-12 12-12z"/><path d="M64 11H13c-.55 0-1 .45-1 1v56c0 .55.45 1 1 1h51V11zM13 7h55v66H13c-2.76 0-5-2.24-5-5V12c0-2.76 2.24-5 5-5z"/><path d="M68 11h51c.55 0 1 .45 1 1v56c0 .55-.45 1-1 1H68V11zm51-4H64v66h55c2.76 0 5-2.24 5-5V12c0-2.76-2.24-5-5-5z"/></g><rect width="20" height="4" x="22" y="23" rx="2"/></g><path fill="#fee1d3" d="M103 2h10c1.66 0 3 1.34 3 3v23.37c0 .55-.45 1-1 1-.16 0-.3-.03-.45-.1L108.1 26l-6.66 3.3c-.5.23-1.1.03-1.34-.47-.06-.13-.1-.3-.1-.44V5c0-1.66 1.34-3 3-3z"/><path fill="#fc6d26" fill-rule="nonzero" d="M112 6h-8v17.56l2.33-1.15c1.13-.5 2.46-.5 3.58.1l2.1 1.1V6zm-9-4h10c1.66 0 3 1.34 3 3v23.37c0 .55-.45 1-1 1-.16 0-.3-.03-.45-.1L108.1 26l-6.66 3.3c-.5.23-1.1.03-1.34-.47-.06-.13-.1-.3-.1-.44V5c0-1.66 1.34-3 3-3z"/><rect width="20" height="4" x="78" y="23" fill="#eee" rx="2"/><rect width="30" height="4" x="78" y="33" fill="#e1dbf1" rx="2"/><rect width="16" height="4" x="78" y="43" fill="#6b4fbb" rx="2"/><rect width="30" height="4" x="78" y="53" fill="#eee" rx="2"/><rect width="20" height="4" x="22" y="33" fill="#6b4fbb" rx="2"/><rect width="30" height="4" x="22" y="43" fill="#eee" rx="2"/><rect width="25" height="4" x="22" y="53" fill="#efedf8" rx="2"/></g><g transform="translate(89 80)"><path fill="#f9f9f9" d="M0 148.5V161c0 5.52 4.48 10 10 10h45.05c.5 5.05 4.76 9 9.95 9h140c5.52 0 10-4.48 10-10V91.5 173c0 5.52-4.48 10-10 10H65c-5.2 0-9.45-3.95-9.95-9H10c-5.52 0-10-4.48-10-10v-15.5zM55 123V69.5 123z"/><path fill="#eee" fill-rule="nonzero" d="M59.08 171c.48 2.84 2.95 5 5.92 5h140c3.3 0 6-2.7 6-6V24H59v99h-4V10c0-5.52 4.48-10 10-10h140c5.52 0 10 4.48 10 10v160c0 5.52-4.48 10-10 10H65c-5.2 0-9.45-3.95-9.95-9h4.03zM211 20V10c0-3.3-2.7-6-6-6H65c-3.3 0-6 2.7-6 6v10h152z"/><g transform="translate(79 48)"><g fill="#fee1d3"><rect width="16" height="4" rx="2"/><rect width="16" height="4" x="72" y="10" rx="2"/></g><rect width="16" height="4" x="30" y="20" fill="#fc6d26" rx="2"/><rect width="16" height="4" y="52" fill="#6b4fbb" rx="2"/><rect width="16" height="4" x="28" y="62" fill="#c3b8e3" rx="2"/><rect width="8" height="4" x="22" fill="#6b4fbb" rx="2"/><rect width="8" height="4" x="36" fill="#e1dbf1" rx="2"/><rect width="8" height="4" y="10" fill="#eee" rx="2"/><rect width="8" height="4" x="14" y="10" fill="#fef0e8" rx="2"/><rect width="8" height="4" x="50" fill="#eee" rx="2"/><g fill="#6b4fbb"><rect width="8" height="4" x="58" y="10" rx="2"/><rect width="8" height="4" x="66" y="20" rx="2"/></g><rect width="8" height="4" x="14" y="36" fill="#eee" rx="2"/><rect width="8" height="4" x="42" y="36" fill="#fef0e8" rx="2"/><rect width="8" height="4" x="94" y="10" fill="#fc6d26" rx="2"/><rect width="8" height="4" x="52" y="20" fill="#c3b8e3" rx="2"/><rect width="8" height="4" x="52" y="52" fill="#fc6d26" rx="2"/><rect width="8" height="4" y="62" fill="#c3b8e3" rx="2"/><rect width="8" height="4" x="14" y="62" fill="#fc6d26" rx="2"/><rect width="8" height="4" y="36" fill="#c3b8e3" rx="2"/><g fill="#e1dbf1"><rect width="8" height="4" x="28" y="36" rx="2"/><rect width="24" height="4" x="64" rx="2"/><rect width="24" height="4" x="28" y="10" rx="2"/><rect width="24" height="4" y="20" rx="2"/></g><rect width="24" height="4" x="22" y="52" fill="#efedf8" rx="2"/><rect width="24" height="4" x="50" y="62" fill="#fef0e8" rx="2"/></g><circle cx="70" cy="12" r="3" fill="#fee1d3"/><circle cx="82" cy="12" r="3" fill="#fc6d26"/><circle cx="94" cy="12" r="3" fill="#c3b8e3"/></g><g transform="translate(89 203)"><path fill="#eee" fill-rule="nonzero" d="M10 4c-3.3 0-6 2.7-6 6v28c0 3.3 2.7 6 6 6h140c3.3 0 6-2.7 6-6V10c0-3.3-2.7-6-6-6H10zm0-4h140c5.52 0 10 4.48 10 10v28c0 5.52-4.48 10-10 10H10C4.48 48 0 43.52 0 38V10C0 4.48 4.48 0 10 0z"/><g fill="#efedf8"><rect width="18" height="4" x="50" y="22" rx="2"/><rect width="18" height="4" x="92" y="22" rx="2"/></g><path fill="#e1dbf1" fill-rule="nonzero" d="m38 38c-7.73 0-14-6.27-14-14s6.27-14 14-14 14 6.27 14 14-6.27 14-14 14m0-4c5.52 0 10-4.48 10-10s-4.48-10-10-10-10 4.48-10 10 4.48 10 10 10"/><path fill="#6b4fbb" d="M37.44 24.77L35.67 23c-.58-.6-1.53-.6-2.12 0-.6.6-.6 1.54 0 2.12l2.83 2.83c.3.3.68.44 1.06.44s.77-.2 1.06-.5l4.95-4.9c.6-.6.6-1.6 0-2.2-.6-.6-1.54-.6-2.12 0l-3.9 3.9z"/><path fill="#e1dbf1" fill-rule="nonzero" d="m122 38c-7.73 0-14-6.27-14-14s6.27-14 14-14 14 6.27 14 14-6.27 14-14 14m0-4c5.52 0 10-4.48 10-10s-4.48-10-10-10-10 4.48-10 10 4.48 10 10 10"/><path fill="#6b4fbb" d="m118 27.6c1.1 1.46 2.84 2.4 4.8 2.4 3.3 0 6-2.7 6-6s-2.7-6-6-6v6l-4.8 3.6"/><path fill="#fee1d3" fill-rule="nonzero" d="m80 38c-7.73 0-14-6.27-14-14s6.27-14 14-14 14 6.27 14 14-6.27 14-14 14m0-4c5.52 0 10-4.48 10-10s-4.48-10-10-10-10 4.48-10 10 4.48 10 10 10"/><path fill="#fc6d26" d="m80 17c1.1 0 2 .9 2 2v5c0 1.1-.9 2-2 2s-2-.9-2-2v-5c0-1.1.9-2 2-2m0 14c-1.1 0-2-.9-2-2s.9-2 2-2 2 .9 2 2-.9 2-2 2"/></g><path fill="#f9f9f9" d="m322.03 219l-.03 1.5c0 20.16 16.34 36.5 36.5 36.5s36.5-16.34 36.5-36.5c0-.5 0-1-.03-1.5-.8 19.46-16.8 35-36.47 35-19.66 0-35.68-15.54-36.47-35"/><g fill-rule="nonzero"><path fill="#eee" d="m358.5 250c17.95 0 32.5-14.55 32.5-32.5s-14.55-32.5-32.5-32.5-32.5 14.55-32.5 32.5 14.55 32.5 32.5 32.5m0 4c-20.16 0-36.5-16.34-36.5-36.5s16.34-36.5 36.5-36.5 36.5 16.34 36.5 36.5-16.34 36.5-36.5 36.5"/><path fill="#fee1d3" d="M344 231.18l3.65-3.2c.73-.63 1.67-.98 2.64-.98H373c.55 0 1-.45 1-1v-20c0-.55-.45-1-1-1h-28c-.55 0-1 .45-1 1v25.18zm6.3-.18l-6.98 6.1c-.37.32-.84.5-1.32.5-1.1 0-2-.9-2-2V206c0-2.76 2.24-5 5-5h28c2.76 0 5 2.24 5 5v20c0 2.76-2.24 5-5 5h-22.7z"/></g><path fill="#fc6d26" d="m352 218c-1.1 0-2-.9-2-2s.9-2 2-2 2 .9 2 2-.9 2-2 2m7 0c-1.1 0-2-.9-2-2s.9-2 2-2 2 .9 2 2-.9 2-2 2m7 0c-1.1 0-2-.9-2-2s.9-2 2-2 2 .9 2 2-.9 2-2 2"/><path fill="#f9f9f9" d="M293.03 45.5L293 47c0 19.88 16.12 36 36 36s36-16.12 36-36c0-.5 0-1-.03-1.5-.8 19.2-16.6 34.5-35.97 34.5-19.38 0-35.18-15.3-35.97-34.5z"/><g fill-rule="nonzero"><path fill="#eee" d="m329 76c17.67 0 32-14.33 32-32s-14.33-32-32-32-32 14.33-32 32 14.33 32 32 32m0 4c-19.88 0-36-16.12-36-36s16.12-36 36-36 36 16.12 36 36-16.12 36-36 36"/><path fill="#fc6d26" d="m339 35h-4c0-3.3-2.7-6-6-6s-6 2.7-6 6h-4c0-5.52 4.48-10 10-10s10 4.48 10 10m-20 0h4v4h-4v-4m16 0h4v4h-4v-4"/><path fill="#fee1d3" d="m318 41c-.55 0-1 .45-1 1v14c0 .55.45 1 1 1h22c.55 0 1-.45 1-1v-14c0-.55-.45-1-1-1h-22m0-4h22c2.76 0 5 2.24 5 5v14c0 2.76-2.24 5-5 5h-22c-2.76 0-5-2.24-5-5v-14c0-2.76 2.24-5 5-5"/></g><path fill="#fc6d26" d="M328 48.73c-.6-.34-1-1-1-1.73 0-1.1.9-2 2-2s2 .9 2 2c0 .74-.4 1.4-1 1.73V50c0 .55-.45 1-1 1s-1-.45-1-1v-1.27z"/><path fill="#f9f9f9" d="m397.03 132l-.03 1.5c0 20.16 16.34 36.5 36.5 36.5s36.5-16.34 36.5-36.5c0-.5 0-1-.03-1.5-.8 19.46-16.8 35-36.47 35-19.66 0-35.68-15.54-36.47-35"/><path fill="#eee" fill-rule="nonzero" d="M433.5 163c17.95 0 32.5-14.55 32.5-32.5S451.45 98 433.5 98 401 112.55 401 130.5s14.55 32.5 32.5 32.5zm0 4c-20.16 0-36.5-16.34-36.5-36.5S413.34 94 433.5 94s36.5 16.34 36.5 36.5-16.34 36.5-36.5 36.5z"/><path fill="#e1dbf1" d="M426 137.34c2.33.83 4 3.05 4 5.66 0 3.3-2.7 6-6 6s-6-2.7-6-6c0-2.6 1.67-4.83 4-5.66V124h4v13.34zm-2 7.66c1.1 0 2-.9 2-2s-.9-2-2-2-2 .9-2 2 .9 2 2 2z"/><g fill-rule="nonzero"><path fill="#6b4fbb" d="m424 125c-3.3 0-6-2.7-6-6s2.7-6 6-6 6 2.7 6 6-2.7 6-6 6m0-4c1.1 0 2-.9 2-2s-.9-2-2-2-2 .9-2 2 .9 2 2 2"/><path fill="#e1dbf1" d="m440 117h3c3.87 0 7 3.13 7 7v16h-4v-16c0-1.66-1.34-3-3-3h-3v2.13c0 .55-.45 1-1 1-.2 0-.4-.06-.55-.17l-6.2-4.13c-.46-.3-.6-.93-.28-1.38.07-.1.17-.2.28-.28l6.2-4.13c.45-.3 1.08-.2 1.38.27.1.2.17.4.17.6v2.1z"/><path fill="#6b4fbb" d="m447 149c-3.3 0-6-2.7-6-6s2.7-6 6-6 6 2.7 6 6-2.7 6-6 6m0-4c1.1 0 2-.9 2-2s-.9-2-2-2-2 .9-2 2 .9 2 2 2"/></g></g></svg>