<svg xmlns="http://www.w3.org/2000/svg" viewBox="0 0 360 220" xmlns:xlink="http://www.w3.org/1999/xlink"><defs><rect id="0" width="110" rx="10" height="168" fill="#fff" stroke="#eee" stroke-width="4"/></defs><g fill="none" fill-rule="evenodd" transform="translate(28 9)"><g fill="#fafafa"><rect width="110" height="169" x="97" y="5" rx="10"/><rect width="110" height="169" x="194" y="34" rx="12"/><rect width="110" height="168" x="6" y="35" rx="12"/></g><g transform="translate(188 29)"><use stroke-linecap="round" stroke-dasharray="8 10" xlink:href="#0"/><g transform="translate(34 67)"><path fill="#f0edf8" fill-rule="nonzero" d="m21 42c-11.598 0-21-9.402-21-21 0-11.598 9.402-21 21-21 11.598 0 21 9.402 21 21 0 11.598-9.402 21-21 21m0-4c9.389 0 17-7.611 17-17 0-9.389-7.611-17-17-17-9.389 0-17 7.611-17 17 0 9.389 7.611 17 17 17"/><path fill="#6b4fbb" d="m22 19v-6.997c0-1.109-.895-2-2-2-1.112 0-2 .897-2 2v8.994c0 1.109.895 2 2 2 .174 0 .343-.022.503-.063.161.041.331.063.505.063h7.983c1.107 0 2.01-.895 2.01-2 0-1.112-.899-2-2.01-2h-6.991"/></g><g fill="#eee"><rect width="8" height="4" x="6" y="12" rx="2"/><path d="m19 14c0-1.105.887-2 1.998-2h4c1.104 0 1.998.888 1.998 2 0 1.105-.887 2-1.998 2h-4c-1.104 0-1.998-.888-1.998-2m13 0c0-1.105.887-2 1.998-2h4c1.104 0 1.998.888 1.998 2 0 1.105-.887 2-1.998 2h-4c-1.104 0-1.998-.888-1.998-2m13 0c0-1.105.887-2 1.998-2h4c1.104 0 1.998.888 1.998 2 0 1.105-.887 2-1.998 2h-4c-1.104 0-1.998-.888-1.998-2m13 0c0-1.105.887-2 1.998-2h4c1.104 0 1.998.888 1.998 2 0 1.105-.887 2-1.998 2h-4c-1.104 0-1.998-.888-1.998-2m13 0c0-1.105.887-2 1.998-2h4c1.104 0 1.998.888 1.998 2 0 1.105-.887 2-1.998 2h-4c-1.104 0-1.998-.888-1.998-2m13 0c0-1.105.887-2 1.998-2h4c1.104 0 1.998.888 1.998 2 0 1.105-.887 2-1.998 2h-4c-1.104 0-1.998-.888-1.998-2m13 0c0-1.105.887-2 1.998-2h4c1.104 0 1.998.888 1.998 2 0 1.105-.887 2-1.998 2h-4c-1.104 0-1.998-.888-1.998-2"/></g></g><g transform="translate(92)"><use stroke-linecap="round" stroke-dasharray="8 10" xlink:href="#0"/><g fill-rule="nonzero" transform="translate(33 66)"><path fill="#f0edf8" d="m22 44c-12.15 0-22-9.85-22-22 0-12.15 9.85-22 22-22 12.15 0 22 9.85 22 22 0 12.15-9.85 22-22 22m0-6c8.837 0 16-7.163 16-16 0-8.837-7.163-16-16-16-8.837 0-16 7.163-16 16 0 8.837 7.163 16 16 16"/><path fill="#6b4fbb" d="m6.692 37.801c4.075 3.949 9.518 6.199 15.308 6.199 12.15 0 22-9.85 22-22 0-12.15-9.85-22-22-22v6c8.837 0 16 7.163 16 16 0 8.837-7.163 16-16 16-4.215 0-8.166-1.633-11.133-4.508l-4.175 4.309"/></g><path fill="#eee" d="m6 14c0-1.105.887-2 1.998-2h4c1.104 0 1.998.888 1.998 2 0 1.105-.887 2-1.998 2h-4c-1.104 0-1.998-.888-1.998-2m13 0c0-1.105.887-2 1.998-2h4c1.104 0 1.998.888 1.998 2 0 1.105-.887 2-1.998 2h-4c-1.104 0-1.998-.888-1.998-2m13 0c0-1.105.887-2 1.998-2h4c1.104 0 1.998.888 1.998 2 0 1.105-.887 2-1.998 2h-4c-1.104 0-1.998-.888-1.998-2m13 0c0-1.105.887-2 1.998-2h4c1.104 0 1.998.888 1.998 2 0 1.105-.887 2-1.998 2h-4c-1.104 0-1.998-.888-1.998-2m13 0c0-1.105.887-2 1.998-2h4c1.104 0 1.998.888 1.998 2 0 1.105-.887 2-1.998 2h-4c-1.104 0-1.998-.888-1.998-2m13 0c0-1.105.887-2 1.998-2h4c1.104 0 1.998.888 1.998 2 0 1.105-.887 2-1.998 2h-4c-1.104 0-1.998-.888-1.998-2m13 0c0-1.105.887-2 1.998-2h4c1.104 0 1.998.888 1.998 2 0 1.105-.887 2-1.998 2h-4c-1.104 0-1.998-.888-1.998-2m13 0c0-1.105.887-2 1.998-2h4c1.104 0 1.998.888 1.998 2 0 1.105-.887 2-1.998 2h-4c-1.104 0-1.998-.888-1.998-2"/></g><g transform="translate(0 29)"><use xlink:href="#0"/><g transform="translate(19 80)"><rect width="24" height="4" y="10" fill="#f0edf8" rx="2" id="1"/><rect width="14" height="4" x="5" fill="#6b4fbb" rx="2" id="2"/></g><g transform="translate(67 80)"><use xlink:href="#1"/><use xlink:href="#2"/></g><g transform="translate(36 40)"><rect width="22" height="4" x="8" fill="#fee1d3" rx="2"/><rect width="38" height="4" y="12" fill="#fb722e" rx="2"/></g><path fill="#eee" d="m2 12h106v4h-106z"/><path fill="#333" d="m33.724 136h9.696v-2.856h-2.856v-12.384h-2.592c-1.08.648-2.136 1.08-3.792 1.392v2.184h2.856v8.808h-3.312v2.856m17.736.288c-2.952 0-5.76-2.208-5.76-7.56 0-5.688 2.952-8.256 6.168-8.256 2.02 0 3.48.84 4.44 1.824l-1.848 2.112c-.528-.576-1.488-1.08-2.376-1.08-1.68 0-3.02 1.2-3.144 4.752.792-1.01 2.112-1.608 3.048-1.608 2.616 0 4.536 1.488 4.536 4.704 0 3.168-2.304 5.112-5.064 5.112m-.072-2.64c1.056 0 1.92-.744 1.92-2.472 0-1.608-.84-2.208-1.992-2.208-.792 0-1.68.432-2.304 1.512.312 2.4 1.32 3.168 2.376 3.168m10.512-3.648c-2.256 0-3.888-1.848-3.888-4.992 0-3.12 1.632-4.944 3.888-4.944 2.256 0 3.912 1.824 3.912 4.944 0 3.144-1.656 4.992-3.912 4.992m0-1.968c.792 0 1.44-.792 1.44-3.02 0-2.232-.648-2.976-1.44-2.976-.792 0-1.44.744-1.44 2.976 0 2.232.648 3.02 1.44 3.02m.528 8.256l8.448-16.224h2.04l-8.448 16.224h-2.04m11.02 0c-2.256 0-3.888-1.848-3.888-4.992 0-3.12 1.632-4.944 3.888-4.944 2.256 0 3.912 1.824 3.912 4.944 0 3.144-1.656 4.992-3.912 4.992m0-1.968c.792 0 1.44-.792 1.44-3.02 0-2.232-.648-2.976-1.44-2.976-.792 0-1.44.744-1.44 2.976 0 2.232.648 3.02 1.44 3.02"/></g></g></svg>