<svg xmlns="http://www.w3.org/2000/svg" viewBox="0 0 360 200" xmlns:xlink="http://www.w3.org/1999/xlink"><defs><rect id="0" width="110" rx="10" height="168" fill="#fff" stroke="#eee" stroke-width="4"/><rect id="1" width="24" y="10" rx="2" height="4" fill="#f0edf8"/><rect id="2" width="14" x="5" rx="2" height="4"/></defs><g fill="none" fill-rule="evenodd" transform="translate(3 13)"><rect width="110" height="168" x="6" y="6" fill="#fafafa" rx="10"/><use xlink:href="#0"/><g transform="translate(19 80)"><use xlink:href="#1"/><rect width="14" height="4" x="5" fill="#6b4fbb" rx="2"/></g><g transform="translate(67 80)"><use xlink:href="#1"/><use fill="#6b4fbb" xlink:href="#2"/></g><g transform="translate(36 40)"><rect width="22" height="4" x="8" fill="#fee1d3" rx="2"/><rect width="38" height="4" y="12" fill="#fb722e" rx="2"/></g><path fill="#eee" d="m2 12h106v4h-106z"/><path fill="#333" d="m38.05 127.79c.792 0 1.68-.432 2.28-1.512-.312-2.4-1.296-3.168-2.376-3.168-1.032 0-1.92.744-1.92 2.472 0 1.608.864 2.208 2.02 2.208m-.552 8.496c-2.02 0-3.504-.864-4.464-1.824l1.872-2.112c.504.576 1.464 1.08 2.352 1.08 1.704 0 3.02-1.2 3.144-4.752-.792 1.01-2.112 1.608-3.048 1.608-2.592 0-4.536-1.488-4.536-4.704 0-3.168 2.304-5.112 5.064-5.112 2.952 0 5.784 2.208 5.784 7.56 0 5.688-2.976 8.256-6.168 8.256m13.488 0c-3.048 0-5.304-1.704-5.304-4.176 0-1.848 1.152-2.976 2.592-3.744v-.096c-1.176-.888-2.04-1.992-2.04-3.6 0-2.592 2.04-4.2 4.872-4.2 2.784 0 4.632 1.656 4.632 4.176 0 1.464-.936 2.64-1.992 3.336v.096c1.464.792 2.64 1.968 2.64 3.984 0 2.4-2.16 4.224-5.4 4.224m.96-9.168c.6-.696.936-1.44.936-2.232 0-1.176-.696-1.968-1.848-1.968-.936 0-1.704.576-1.704 1.752 0 1.248 1.056 1.848 2.616 2.448m-.888 6.72c1.176 0 2.04-.624 2.04-1.896 0-1.344-1.296-1.848-3.216-2.664-.672.624-1.176 1.488-1.176 2.424 0 1.344 1.08 2.136 2.352 2.136m10.8-3.84c-2.256 0-3.888-1.848-3.888-4.992 0-3.12 1.632-4.944 3.888-4.944 2.256 0 3.912 1.824 3.912 4.944 0 3.144-1.656 4.992-3.912 4.992m0-1.968c.792 0 1.44-.792 1.44-3.02 0-2.232-.648-2.976-1.44-2.976-.792 0-1.44.744-1.44 2.976 0 2.232.648 3.02 1.44 3.02m.528 8.256l8.448-16.224h2.04l-8.448 16.224h-2.04m11.02 0c-2.256 0-3.888-1.848-3.888-4.992 0-3.12 1.632-4.944 3.888-4.944 2.256 0 3.912 1.824 3.912 4.944 0 3.144-1.656 4.992-3.912 4.992m0-1.968c.792 0 1.44-.792 1.44-3.02 0-2.232-.648-2.976-1.44-2.976-.792 0-1.44.744-1.44 2.976 0 2.232.648 3.02 1.44 3.02"/><g transform="translate(124)"><use stroke-linecap="round" stroke-dasharray="8 10" xlink:href="#0"/><g transform="translate(19 80)"><use xlink:href="#1"/><use fill="#c3b8e3" xlink:href="#2"/></g><g transform="translate(67 80)"><use xlink:href="#1"/><use fill="#c3b8e3" xlink:href="#2"/></g><path fill="#fee1d3" d="m42 42c0-1.105.898-2 1.998-2h2c1.103 0 1.998.888 1.998 2 0 1.105-.898 2-1.998 2h-2c-1.103 0-1.998-.888-1.998-2m10 0c0-1.105.898-2 1.998-2h2c1.103 0 1.998.888 1.998 2 0 1.105-.898 2-1.998 2h-2c-1.103 0-1.998-.888-1.998-2m10 0c0-1.105.898-2 1.998-2h2c1.103 0 1.998.888 1.998 2 0 1.105-.898 2-1.998 2h-2c-1.103 0-1.998-.888-1.998-2m-30 12c0-1.105.898-2 1.998-2h2c1.103 0 1.998.888 1.998 2 0 1.105-.898 2-1.998 2h-2c-1.103 0-1.998-.888-1.998-2m10 0c0-1.105.898-2 1.998-2h2c1.103 0 1.998.888 1.998 2 0 1.105-.898 2-1.998 2h-2c-1.103 0-1.998-.888-1.998-2m10 0c0-1.105.898-2 1.998-2h2c1.103 0 1.998.888 1.998 2 0 1.105-.898 2-1.998 2h-2c-1.103 0-1.998-.888-1.998-2m10 0c0-1.105.898-2 1.998-2h2c1.103 0 1.998.888 1.998 2 0 1.105-.898 2-1.998 2h-2c-1.103 0-1.998-.888-1.998-2m10 0c0-1.105.898-2 1.998-2h2c1.103 0 1.998.888 1.998 2 0 1.105-.898 2-1.998 2h-2c-1.103 0-1.998-.888-1.998-2" id="3"/><rect width="8" height="4" x="6" y="12" fill="#eee" rx="2" id="4"/><rect width="8" height="4" x="19" y="12" fill="#eee" rx="2" id="5"/><rect width="8" height="4" x="32" y="12" fill="#eee" rx="2" id="6"/><rect width="8" height="4" x="45" y="12" fill="#eee" rx="2" id="7"/><rect width="8" height="4" x="58" y="12" fill="#eee" rx="2" id="8"/><rect width="8" height="4" x="71" y="12" fill="#eee" rx="2" id="9"/><rect width="8" height="4" x="84" y="12" fill="#eee" rx="2" id="A"/><rect width="8" height="4" x="97" y="12" fill="#eee" rx="2" id="B"/><path fill="#eee" d="m44.716 136.29c-3.264 0-5.448-2.784-5.448-7.968 0-5.184 2.184-7.848 5.448-7.848 3.264 0 5.448 2.664 5.448 7.848 0 5.184-2.184 7.968-5.448 7.968m0-2.736c1.2 0 2.112-1.08 2.112-5.232 0-4.176-.912-5.112-2.112-5.112-1.176 0-2.112.936-2.112 5.112 0 4.152.936 5.232 2.112 5.232m10.848-3.552c-2.256 0-3.888-1.848-3.888-4.992 0-3.12 1.632-4.944 3.888-4.944 2.256 0 3.912 1.824 3.912 4.944 0 3.144-1.656 4.992-3.912 4.992m0-1.968c.792 0 1.44-.792 1.44-3.02 0-2.232-.648-2.976-1.44-2.976-.792 0-1.44.744-1.44 2.976 0 2.232.648 3.02 1.44 3.02m.528 8.256l8.448-16.224h2.04l-8.448 16.224h-2.04m11.02 0c-2.256 0-3.888-1.848-3.888-4.992 0-3.12 1.632-4.944 3.888-4.944 2.256 0 3.912 1.824 3.912 4.944 0 3.144-1.656 4.992-3.912 4.992m0-1.968c.792 0 1.44-.792 1.44-3.02 0-2.232-.648-2.976-1.44-2.976-.792 0-1.44.744-1.44 2.976 0 2.232.648 3.02 1.44 3.02" id="C"/></g><g transform="translate(245)"><use stroke-linecap="round" stroke-dasharray="8 10" xlink:href="#0"/><use xlink:href="#3"/><g transform="translate(19 80)"><use xlink:href="#1"/><use fill="#c3b8e3" xlink:href="#2"/></g><g transform="translate(67 80)"><use xlink:href="#1"/><use fill="#c3b8e3" xlink:href="#2"/></g><use xlink:href="#4"/><use xlink:href="#5"/><use xlink:href="#6"/><use xlink:href="#7"/><use xlink:href="#8"/><use xlink:href="#9"/><use xlink:href="#A"/><use xlink:href="#B"/><use xlink:href="#C"/></g></g></svg>