<svg xmlns="http://www.w3.org/2000/svg" viewBox="0 0 340 160"><g fill="#444"><path d="M74.3 99c-.6 1.7-2.2 3-4.1 3H94c1.9 0 3.5-1.3 4.1-3l22.5-62H96.8L74.3 99zm-7.8-41H42.8c-1.9 0-3.5 1.3-4.1 3l-22.5 62h23.7l22.5-62c.7-1.7 2.3-3 4.1-3z"/><path d="M71.5 98.9l7.8-21.5-5.8-16.1c-.6-1.7-2.2-2.9-4.1-2.9-1.9 0-3.5 1.2-4.1 2.8l-7.8 21.4 5.8 16.2c.6 1.7 2.2 3.1 4.1 3.1 1.9.1 3.5-1.3 4.1-3zM250 70.6c-2-.3-3.9-.3-5.1-.3h-.8c-9.6 0-15.6 6.3-15.6 16.4 0 9.7 6.6 15.8 17 15.8 5 0 11.6-1.1 11.6-1.1V58h-7v12.6zm0 26.4c-2 .2-3.2.2-4.4.2-6.2 0-10.1-4.1-10.1-10.7 0-7.3 3.2-10.9 9.8-10.9 1.3 0 2.7.1 4.7.4v21zm-95-4.3L136.1 61H127v41h6.6V69.9L152 102h9V61h-6m58.4 21.9c-3.6-.8-6.7-1.5-6.7-3.8 0-2.9 3.8-3.5 7-3.5 2.9 0 6.1.5 8.6 1l.7.1v-5.5l-1.2-.2c-2.3-.3-5.2-.8-9-.8-8.1 0-12.8 3.4-12.8 9.2 0 6 4.8 7.8 9.3 8.9.5.1 1 .2 1.6.3h.2c3.1.6 6.9 1.3 6.9 4.2 0 3.5-5.5 3.9-7.9 3.9-2.9 0-5.9-.6-9.3-1.3l-.6-.1v5.7l.4.1c3.9.7 7.1 1.1 10.2 1.1 8.9 0 14.1-3.6 14.1-10-.2-6.9-6.5-8.2-11.5-9.3zm62.2-12.7c-3.5 0-7.3.4-10.9 1.1l-.7.1v5.4l.8-.1c3.1-.6 6.7-1.2 9.9-1.2 8 0 8.1 1.3 8.1 6.8-.9 0-3.7-.2-4.3-.2-6 0-16.1 0-16.1 9.8 0 9 6.5 10.3 13.6 10.3 3.6 0 8-.1 13.4-.7h.6V80.6c0-9.6-6.7-10.4-14.4-10.4zm7.4 27c-1 .1-3.7.3-5.3.3-4.3 0-8.9-.4-8.9-5.3 0-4.3 3.5-5.1 9.3-5.1.4 0 3.8.1 4.8.2v9.9zm-103.3-27c-3.5 0-6.9.4-10.5 1.1l-.3.1v5.4l.5-.1c3.1-.6 6.6-1.2 9.7-1.2 8 0 8 1.3 8 6.8-.9 0-3.7-.2-4.3-.2-6 0-16.2 0-16.2 9.8 0 9 6.5 10.3 13.6 10.3 3.6 0 7.9-.1 13.2-.7h.4V80.6c.2-9.6-6.3-10.4-14.1-10.4zm8.3 27c-1 .1-4 .3-5.6.3-4.3 0-9-.4-9-5.3 0-4.3 3.8-5.1 9.6-5.1.4 0 3 .1 5 .2v9.9zm132-26.6c-2.4-.1-4.9-.3-6.7-.3-5.1 0-8.5.7-11.4 2.5-5.7 3.5-6.6 9.9-6.6 13.4 0 7 3.1 12.5 8.3 14.7 2.3 1 5.4 1.6 8.1 1.6 1.1 0 2.3 0 5.3-.4v13.3l7-3.1V70.8l-4-.2zm-3 26.1c-3 .3-3.9.3-5 .3-4.4 0-9.7-1.9-9.7-10.8 0-7 3.5-10.5 10.5-10.5 1.1 0 2.2.1 4.2.2v20.8z"/></g></svg>
