<svg xmlns="http://www.w3.org/2000/svg" viewBox="0 0 340 160"><path fill="#444" d="M55.1 71l-2.6-7.9c-1.5-4.5-2.8-8.5-3-9.1-.2-.6-.4-.9-.5-.9s-.4 1.1-.8 2.2c-.3 1.1-1.7 5.2-2.9 9L43 71.2l-9.8.1-9.8.1 4.7 3.4c2.6 1.9 6.2 4.4 7.9 5.7 1.7 1.3 3.2 2.4 3.1 2.4 0 .2-2.4 7.4-4.1 12.6-.9 2.7-1.7 5.2-1.7 5.4l-.1.4.6-.4c.3-.2 1.4-1 2.5-1.8C41.5 95.3 48.8 90 49 90c.2 0 4.5 3.1 7.9 5.5 2 1.5 7 5.1 7.4 5.4l.5.3-.2-.5c-.3-1.1-5.7-17.6-5.8-17.8-.1-.2 2.2-1.9 10.9-8.2C72 73 74.1 71 73.9 71c-.2 0-.9-.3-9.2-.3h-9.6zm90.6-15c-1.6-1.1-2.3-1.4-4.2-2-2.4-.8-3.4-.9-5.8-.9-2.5 0-3.8.2-6.3 1.1-3.5 1.2-6.5 3.7-8.8 7.2-.5.8-1.1 1.8-1.3 2.2l-.3.7-.7-1.4c-1.5-2.7-3.1-4.7-5.3-6.3-3.5-2.6-8.3-3.9-12.6-3.5-2 .2-4.7 1-6.1 1.6-2.5 1.3-5.5 3.7-6.8 5.8l-.7 1v-7.6h-2.7L84 77.7v23.5h2.7l.1-16.7.1-16.7.6-1.7c.7-2 1.3-3.1 2.6-4.8 1.2-1.5 2.1-2.3 4-3.5 2.7-1.8 5.4-2.4 8.8-2.3 2.5.1 3.9.5 6 1.5 3.2 1.5 5.6 3.9 7.2 7.1 1.7 3.6 1.6 2 1.7 20.7V101h2.5V68l.4-1.1c1.4-4.5 4.3-7.9 8.3-9.9 2.4-1.2 4.6-1.6 7.6-1.5 2.3.1 3.5.4 5.4 1.3 4.6 2.1 7.6 5.9 8.7 10.6l.3 1.8v32l1.5.1 1.5.1V86c0-16.8-.1-17.5-1-20.4-1.4-4.1-3.8-7.3-7.3-9.6zM293 45l1 .7-.6 1.7c-.3.9-.6 1.7-.6 1.7s.6-.3 1.3-.8c.7-.5 1.4-1 1.5-1 .2-.1.6.1 1.7.9.8.6 1.5 1 1.5 1s-.3-.8-.6-1.8l-.6-1.7.8-.5c.4-.3 1.1-.8 1.4-1l.6-.5-1.8-.1-1.8-.1-.6-1.7c-.3-1-.6-1.6-.7-1.5 0 .1-.3.9-.5 1.7l-.4 1.5h-3.8l.5.4c.4.2 1.1.7 1.7 1.1zm-43.4 41l-.5 1.2c-1.2 2.3-4.1 5.7-6.6 7.4-1.5 1-4.1 2.4-6 3-3.9 1.3-8.9 1.3-12.9 0-1.7-.6-5-2.2-6.2-3.2-1.6-1.2-3.8-3.5-4.9-5-1.7-2.4-3.1-6-3.6-8.7-.3-1.8-.3-5.4 0-7.2.5-3 2.2-6.9 3.9-9.2 3.3-4.4 8.4-7.5 13.7-8.5 1.9-.3 5.5-.3 7.4 0 4.3.7 9 3.3 11.9 6.3 1.4 1.5 2.7 3.3 3.4 4.6l.5 1.1 1.3-.1c.7 0 1.4-.1 1.4-.2.1-.1-1.2-2.6-2.2-4.2-.4-.6-1.6-2-2.6-3.1-3.6-3.7-7.8-5.9-13.2-7-2.3-.4-6.4-.4-8.7.1-5.3 1.1-9.2 3.2-12.8 6.9-.9 1-2.1 2.4-2.6 3.1-3 4.6-4.1 8.4-4.1 13.7 0 2.4.1 3.1.4 5 1 4.8 3 8.5 6.6 12.1 4 4 8.8 6.3 14.5 6.9 2.7.3 5.1.2 8.1-.5 4.2-.9 8.2-3.1 11.6-6.5 2-2.1 3.1-3.7 4.5-6.3l.9-1.8h-3.2zm65.2-4.5c-2.2-3.3-5.6-5.6-12-8-4.9-1.9-6.9-3.4-7.9-6.1-.5-1.3-.6-4.2-.2-5.6 1.3-4.5 5.2-7 9.8-6.5 2.1.2 3.6 1 5.3 2.7 1.5 1.5 2.4 3.1 2.7 4.8l.2 1.2h2.4l-.1-1.1c-.3-2.5-1.3-4.6-3.2-6.5-2.4-2.4-5.1-3.5-8.5-3.5-2 0-3.1.3-5.1 1.2-3.7 1.8-6.1 5.8-6 10 0 1.8.4 3.6 1.1 5 1.4 2.9 4.1 4.8 9.9 7 5.4 2 8.9 4.6 10.3 7.5.8 1.7 1.1 3 1 4.9-.3 4.3-2.8 7.9-6.8 9.8-1.3.6-3.3 1.1-4.6 1.1-3.1 0-6.3-1.6-8.7-4.2-1.7-1.8-3.1-5.4-3.5-8.7l-.1-.8h-2.2l.1 1.2c.1 3 1.5 6.6 3.7 9.4.7 1 2.8 2.7 4 3.4 1.1.7 3 1.3 4.5 1.6 2.2.4 4.2.3 6.6-.4 1.6-.5 2.3-.8 3.7-1.8 1.6-1.2 2.5-2.1 3.4-3.4 1.8-2.6 2.5-4.8 2.5-7.9-.6-2.6-1.1-4.4-2.3-6.3zM201.8 54v5.9c0 3.8 0 5.8-.1 5.8s-.5-.6-.9-1.3c-2.5-4.4-7.8-8.7-12.7-10.2-5.6-1.8-10.2-1.8-15.8 0-6.9 2.2-13 8.4-15.1 15.4-.9 3-1.1 4.2-1.1 7.5 0 3.2.2 4.2 1 7.2 1.5 5.3 5.4 10.4 10.3 13.3 3.4 2.1 6.4 3.1 10.4 3.5 1.9.2 2.8.2 4.7 0 3.4-.3 6.5-1.3 8.9-2.6 4.3-2.4 7.6-5.5 9.7-9.3l.6-1V101h3.1V54h-3zm-1.6 31.3c-.8 2-1.7 3.5-3.3 5.4-3.2 3.9-7.9 6.7-13 7.6-1.7.3-5.6.3-7.4 0-2.8-.5-6.8-2.2-8.9-3.8-3.6-2.7-6-5.9-7.6-10-1.7-4.2-1.8-9.5-.3-14 .5-1.6 2-4.6 3-6 1.1-1.5 3.1-3.6 4.6-4.7 2.5-1.9 6.3-3.6 9.4-4.1 1.7-.3 5.1-.3 6.8-.1 3 .4 7.2 2.2 9.6 4 3.2 2.4 5.7 5.6 7.1 9.1 2.2 5.7 2.2 11 0 16.6zm90.8-31c.1-.2-.2-.2-1.4-.2-1.5.1-1.5.1-1.7.5-.1.2-.8 2.1-1.6 4-.8 2-1.9 4.6-2.4 5.7-1.2 3.1-3.9 9.7-5.2 12.8-.6 1.5-1.5 3.6-2 4.8-1.4 3.4-4.5 11.1-5.3 13.1-.4 1-.8 1.8-.8 1.8-.1 0-2.3-5.3-3.1-7.3-.2-.6-1-2.5-1.7-4.2-.7-1.7-1.5-3.6-1.7-4.3-.2-.7-.9-2.3-1.5-3.8-.6-1.4-1.5-3.7-2.1-5.1-.5-1.4-2.1-5.3-3.5-8.7-1.4-3.4-2.8-7-3.1-7.8l-.6-1.6-1.4-.1c-.9-.1-1.4 0-1.4.1s.7 1.6 1.4 3.3c.7 1.7 1.9 4.7 2.7 6.6.8 1.9 1.7 4.3 2.1 5.3.8 2.1 2.7 6.8 5 12.6.9 2.1 1.8 4.5 2.1 5.3.6 1.6 2.7 6.7 4.3 10.8l1 2.5-.3.7c-.5 1.2-2.3 5.7-3.7 9.2-.8 1.8-1.7 4.1-2.1 5.1-.4 1-.7 1.9-.8 2.1-.1.3 0 .3 1.3.3h1.4l1-2.4c.6-1.3 1.3-3.1 1.6-3.9.3-.8 1.2-3.1 2.1-5.1.8-2 1.6-3.8 1.6-4 .1-.2.8-2.1 1.7-4.1.9-2 1.6-3.9 1.7-4.1.1-.2.9-2.2 1.7-4.3.9-2.1 1.9-4.6 2.2-5.4.6-1.4 1.4-3.5 5-12.1.9-2.2 2.1-5.1 2.6-6.5 1.5-3.8 2.8-6.9 3.8-9.3.6-1.1 1-2.2 1.1-2.3z"/></svg>
