<svg xmlns="http://www.w3.org/2000/svg" viewBox="0 0 340 160"><g fill-rule="evenodd" clip-rule="evenodd"><path fill="#444" d="M121.1 82.2c-.6-.1-1.3-.5-1.9-.9-5.5-5.3 1.5-11.5 9.5-15.1V56.1c1.9 1.1 2.8 1.2 3 1.4l6.2-6.2-2-5.2c17.9-6.3 25.1-8.7 39.7-11.1l-2.6-2.5 4.4-2.5c9.7 3.3 19 4.2 17.3 12.4.5-5.6-6.4-7.7-17.1-10.8l-2 1.3 3.9 3.2c-17.4 3.1-28.2 6.5-41 11l1.8 4.5-6.4 6.4c1.1.2 12.2 4.2 23.8-4.1.1 0 .2-.1.2-.2-.4-.6-1.1-1.2-2-2 3.3.2 5.6 3.3 5.1 6.4h-1.5c.2-.9 0-2.1-.5-2.8-8.9 6.6-19.4 7.6-28.3 4.5v7.8c-4.3 1.5-12.1 6.3-12 10.9.2 2.3 1.4 3.1 2.4 3.7z"/><path fill="#969898" d="M157.7 80.2c-9.7 5-19 8.9-33.2 9.5-18.5-.4-21.5-12.8-12.7-25.9 8.3-13.2 21.5-24.9 42.4-32.4 6-2.1 15.1-4.6 23.6-4.7 12.4-.1 24.4 3.8 23.7 15.8-.5 9.1-13.6 22.1-20.5 31.4-3 4-3.4 6.6 1.5 6.4 18.4-1.2 35-7.6 50.4-14.2-10.4 7.1-64.4 34.1-64.6 15.7.1-2.3 1.2-4.7 2.8-7.4 1.8-2.6 4.2-5.5 6.6-8.2 3.7-4.3 12.8-14.3 15.8-20.5 5.2-11.5-6.4-12.1-16.2-15.7l-4.4 2.5 2.6 2.5c-14.6 2.5-21.8 4.9-39.7 11.1l2 5.2-6.2 6.2c-.1-.2-1.1-.4-3-1.4v10.1c-7.9 3.6-14.9 9.7-9.5 15.1.6.5 1.3.8 1.9.9 10 5.6 36.7-2 36.7-2z"/><path fill="#444" d="M79.1 107.7v-6H88v6h-8.9zm.2 25V111h8.3v21.7h-8.3zm98.1-11.4c0-2-.5-3.6-1.5-4.7-1.1-1.2-2.6-1.8-4.4-1.8h-.1c-1.9.1-3.3.6-4.4 1.8-1.1 1.2-1.5 2.8-1.5 5 0 2.1.5 3.8 1.5 5 1.1 1.2 2.5 1.7 4.4 1.7 1.9 0 3.4-.6 4.5-1.8 1-1.3 1.5-3 1.5-5.2zm-6.1-10.4c1.1-.2 2.3-.4 3.4-.4 3.4 0 6.2.9 8.2 3 1.9 2 3 4.7 3 8.2 0 3.7-.9 6.5-3 8.5-1.9 2-4.6 3.1-8.1 3.1-1.2 0-2.4-.2-3.6-.5-.6-.2-1.2-.5-1.8-.7-1.5-.8-3-1.9-4.1-3.4v2.4c0 .6-.1 1.2-.2 1.7h-8.3c.1-.8.1-1.7.2-2.5 0-.8.1-1.7.1-2.4v-26.2h8.2v12.4c1.3-1.2 2.7-2.1 4.3-2.7.6-.3 1.1-.4 1.7-.5zm94.4 2.7c4.4 0 7.9 3.7 7.9 8.1 0 4.4-3.6 7.9-7.9 7.9-4.4 0-8.1-3.6-8.1-7.9 0-4.4 3.7-8.1 8.1-8.1zm0 19.7c6.4 0 11.6-5.2 11.6-11.6 0-6.5-5.2-11.7-11.6-11.7-6.4 0-11.7 5.2-11.7 11.7-.1 6.4 5.3 11.6 11.7 11.6zm-42.7-3.9h3.7v3.3H223v-3.3zm28 .6c-1.2.9-3.6 3.3-8.2 3.3-5.9 0-11.6-4.6-11.6-11.6s5.7-11.7 11.6-11.7c4.4 0 7 2.4 8.2 3.3-.7 1.1-1.3 3-1.5 3.8-2.3-3-5-3.4-6.6-3.4-4.4 0-7.9 3.7-7.9 8.1 0 4.3 3.6 7.9 7.9 7.9 2.5 0 4.9-1.1 6.6-3.4.4 1.8 1.1 3 1.5 3.7zm31.5 2.7V111h3.3v3.1c.7-1.1 1.7-1.9 2.7-2.6 1.2-.6 2.5-.9 3.9-.9 1.5 0 2.8.4 3.9.9 1.1.7 1.8 1.7 2.3 2.8 1.7-2.5 3.9-3.8 6.6-3.8 2.1 0 3.8.6 5 1.8 1.2 1.2 1.8 3.1 1.8 5.6v14.8h-3.7v-13.6c0-1.5-.1-2.5-.4-3.2-.2-.6-.7-1.2-1.3-1.5-.6-.4-1.4-.6-2.3-.6-1.5 0-2.7.5-3.8 1.5-.9.9-1.5 2.6-1.5 4.9v12.6h-3.7v-14.1c0-1.7-.2-2.8-.8-3.7-.6-.8-1.7-1.2-3-1.2-1.1 0-2 .2-2.8.8-.9.5-1.5 1.3-1.9 2.4-.5 1.1-.6 2.6-.6 4.5v11.3h-3.7v-.1zm28.1-26.4v-4.2h-1.5v-.5h3.8v.5h-1.5v4.2h-.8zm2.9 0v-4.6h.9l1.1 3.3c.1.2.1.5.2.6 0-.1.1-.4.2-.7l1.1-3.2h.8v4.6h-.6v-3.9l-1.3 3.9h-.6l-1.3-3.9v3.9h-.5zm-106 23.2c-.8 1.3-2.1 2.1-3.9 2.8-.4.1-.8.2-1.2.4-1.4.4-3.1.6-5 .6-2.7 0-4.9-.6-6.4-1.8-1.4-1.1-2.3-2.7-2.3-4.9 0-1.3.4-2.5.9-3.6.6-.9 1.4-1.8 2.5-2.5.8-.6 2.1-.9 3.7-1.2 1.4-.2 3.6-.4 6.5-.4h4.9V118.3c0-1.2-.4-2.1-1.1-2.7-.7-.6-1.7-.9-3-.9-.4 0-.7.1-.9.1-1.1 0-1.9.2-2.5.6-.7.4-1.2 1.1-1.3 2H190c.2-2.4 1.5-4.2 3.7-5.3 1.9-1.1 4.7-1.5 8.5-1.7h1.1c4 0 7.1.7 9 2 1.9 1.3 2.8 3.4 2.8 6.3v11c0 .6.1 1.2.1 1.7.1.4.2.8.4 1.2h-7.7c-.2-.4-.4-.8-.5-1.3 0-.4-.1-.9-.1-1.4v-.4h.2zm-5.1-.9c1.4-.1 2.6-.6 3.4-1.3.9-.8 1.5-2.1 1.5-3.7v-.5h-.7c-1.7 0-3.1 0-4.3.1-1.3.1-2.3.2-3 .6-1.3.4-2 1.2-2 2.4 0 .7.4 1.3 1.1 1.8.7.4 1.8.6 3.1.6h.9zm-58.7.9c-.9 1.3-2.3 2.1-4 2.8-.4.1-.7.2-1.2.4-1.4.4-3.1.6-5 .6-2.7 0-4.9-.6-6.3-1.8-1.5-1.1-2.3-2.7-2.3-4.9 0-1.3.2-2.5.8-3.6.6-.9 1.4-1.8 2.5-2.5.9-.6 2.1-.9 3.7-1.2 1.4-.2 3.6-.4 6.5-.4h4.9V118.3c0-1.2-.4-2.1-1.1-2.7-.7-.6-1.7-.9-3-.9-.4 0-.6.1-.9.1-1.1 0-1.9.2-2.5.6-.7.4-1.1 1.1-1.3 2h-8.4c.4-2.4 1.5-4.2 3.7-5.3 2-1.1 4.9-1.5 8.5-1.7h1.1c4 0 7.1.7 9 2 1.9 1.3 3 3.4 3 6.3v12.7c.1.4.2.8.4 1.2h-7.7c-.2-.4-.4-.8-.4-1.3-.1-.4-.1-.9-.1-1.4v-.4h.1zm-5.2-.9c1.5-.1 2.6-.6 3.4-1.3 1.1-.8 1.5-2.1 1.5-3.7v-.5h-.7c-1.7 0-3.1 0-4.3.1-1.2.1-2.1.2-2.8.6-1.4.4-2 1.2-2 2.4 0 .7.4 1.3.9 1.8.7.4 1.8.6 3.2.6h.8zm-25.1-7.3c0-2-.5-3.6-1.5-4.7-1.1-1.2-2.5-1.8-4.4-1.8-2 .1-3.4.6-4.5 1.8-1.1 1.2-1.5 2.8-1.5 5 0 2.1.5 3.8 1.5 5 1.1 1.2 2.6 1.7 4.4 1.7h.1c1.9 0 3.3-.6 4.4-1.8 1.1-1.3 1.5-3 1.5-5.2zm-5.9-10.4c1.1-.2 2.1-.4 3.3-.4 3.4 0 6.2.9 8.2 3 2 2 3 4.7 3 8.2 0 3.7-.9 6.5-2.8 8.5-2 2-4.6 3.1-8.1 3.1-1.3 0-2.5-.2-3.6-.5-.7-.2-1.3-.5-1.8-.7-1.7-.8-3.1-1.9-4.2-3.4v.7c0 .6 0 1.1-.1 1.7 0 .6-.1 1.2-.1 1.7h-8.4c.1-.8.2-1.7.2-2.5.1-.8.1-1.7.1-2.4v-26.2h8.3v12.4c1.2-1.2 2.6-2.1 4.2-2.7.6-.3 1.2-.4 1.8-.5zm-64.6-9.3h6l15.2 31.1h-10l-2.7-6.3H34.5l-3 6.3h-9.4l16.2-31.1h4.6zm0 18.8h5.7l-5.3-12-.4.6-5.6 11.4h5.6zm22.6 12.3v-31.1h8.3v31.1h-8.3z"/></g></svg>
