<svg width="85" height="77" viewBox="0 0 85 77" xmlns="http://www.w3.org/2000/svg"><title>Shape</title><path d="M84.8 43L71.4 1.7C71.1.6 70.1 0 69 0c-1.1 0-2.1.7-2.4 1.7l-7.7 17.6c-.2.5 0 1.1.5 1.3.5.2 1.1 0 1.3-.5l7.7-17.6c.1-.3.4-.4.5-.4.1 0 .4 0 .5.4l13.4 41.3c.3.8 0 1.8-.8 2.3L43.7 73.9 16.9 54.5 5.7 46.3c-.7-.5-1-1.5-.7-2.3l.5-1.7V42c.4.1.9.1 1.3.1 3.9 0 7-3.1 7-7 0-2.9-1.8-5.4-4.3-6.5l8.4-26c.1-.3.4-.4.5-.4.1 0 .4 0 .5.4l9 27.8c.1.4.5.7 1 .7h34.3c.8 1.8 2.5 3 4.6 3 2.8 0 5-2.2 5-5s-2.2-5-5-5-5 2.2-5 5H29.7L20.9 2C20.6.9 19.6.3 18.5.3c-1.1 0-2.1.7-2.4 1.7L7.8 28H7c-3.9 0-7 3.1-7 7 0 2.7 1.6 5.1 3.9 6.3-.1.1-.1.2-.1.3l-.5 1.7c-.5 1.7 0 3.5 1.5 4.5l8 5.9 30.6 22.2c.2.1.4.2.6.2.2 0 .4-.1.6-.2l38.9-28.3c1.2-1.1 1.8-2.9 1.3-4.6M68 26c1.7 0 3 1.3 3 3s-1.3 3-3 3-3-1.3-3-3 1.3-3 3-3M2 35c0-2.8 2.2-5 5-5s5 2.2 5 5-2.2 5-5 5-5-2.2-5-5" fill="#000" fill-rule="evenodd"/></svg>