<svg width="44" height="41" viewBox="0 0 44 41" xmlns="http://www.w3.org/2000/svg"><title>Shape</title><path d="M2.3 22.2l-.1.3c-.3 1.1 0 2.2.9 2.9 0 0 4 3 4.1 3.1l15.2 11.4c.2.1.4.2.6.2.2 0 .4-.1.6-.2L43 25.3c.9-.7 1.2-1.8.9-2.9L37.2 1.2C37 .5 36.3 0 35.5 0c-.8 0-1.4.5-1.6 1.1l-3.8 9c-.2.5 0 1.1.5 1.3.5.2 1.1 0 1.3-.5l3.6-8.5L42 23c.1.2 0 .5-.2.7L23 37.8 10 28l-5.7-4.3c-.2-.1-.3-.4-.2-.7l.1-.2c.3.1.6.1.9.1 2.8 0 5-2.2 5-5 0-2.1-1.3-3.9-3.1-4.6l3.5-10.8 4.2 13.4c.1.4.5.7 1 .7h19.1c.6 0 1-.4 1-1s-.4-1-1-1H16.4L12.2 1.2C12 .5 11.3 0 10.5 0c-.8 0-1.4.5-1.7 1.2L4.9 13C2.2 13 0 15.3 0 18c0 1.7.9 3.3 2.3 4.2M5 15c1.7 0 3 1.3 3 3s-1.3 3-3 3-3-1.3-3-3 1.3-3 3-3" fill="#000" fill-rule="evenodd"/></svg>