<?xml version="1.0" encoding="utf-8"?>
<!-- Generator: Adobe Illustrator 20.0.0, SVG Export Plug-In . SVG Version: 6.00 Build 0)  -->
<!DOCTYPE svg PUBLIC "-//W3C//DTD SVG 1.1//EN" "http://www.w3.org/Graphics/SVG/1.1/DTD/svg11.dtd" [
	<!ENTITY st0 "fill:#19636A;">
]>
<svg version="1.1"
	 id="svg2" xmlns:cc="http://creativecommons.org/ns#" xmlns:dc="http://purl.org/dc/elements/1.1/" xmlns:inkscape="http://www.inkscape.org/namespaces/inkscape" xmlns:rdf="http://www.w3.org/1999/02/22-rdf-syntax-ns#" xmlns:svg="http://www.w3.org/2000/svg"
	 xmlns="http://www.w3.org/2000/svg" xmlns:xlink="http://www.w3.org/1999/xlink" x="0px" y="0px" viewBox="0 0 170 68"
	 style="enable-background:new 0 0 170 68;" xml:space="preserve">
<g>
	<path id="path22" inkscape:connector-curvature="0" style="&st0;" d="M13.15,14.326c-0.8-0.547-1.65-0.796-3.1-0.895
		c-0.65,0-1.05,0-1.6,0c-0.15,0-0.2,0.05-0.2,0.249v8.805c0,2.437,0.1,3.084,1.3,3.582c1,0.398,1.85,0.448,2.7,0.448
		c1.7,0,4.5-0.895,4.5-4.726C16.75,19.4,16,16.316,13.15,14.326z M8.25,11.391c0,0.298,0.1,0.348,0.25,0.398
		c0.35,0.05,0.9,0.099,1.75,0.099c1.25,0,2.05-0.149,2.7-0.696c0.95-0.796,1.55-2.089,1.55-3.93c0-2.487-1.45-5.721-4.65-5.721
		c-0.5,0-0.85,0-1.25,0.05c-0.25,0.05-0.35,0.199-0.35,0.647V11.391L8.25,11.391z M3.75,10.745c0-5.621,0-6.666-0.05-7.86
		C3.6,1.642,3.3,1.045,2.1,0.796C1.8,0.696,1.15,0.647,0.65,0.647C0.2,0.647,0,0.597,0,0.348S0.25,0,0.8,0
		c1.95,0,4.3,0.099,5.05,0.099C7.65,0.099,9.15,0,10.4,0c6.75,0,7.95,3.582,7.95,5.571c0,3.034-1.75,4.875-3.8,6.467
		c3.05,1.045,6.8,3.681,6.8,8.009c0,3.98-3.1,8.059-9.95,8.059c-0.45,0-1.55-0.05-2.6-0.099c-1.1-0.05-2.25-0.099-2.8-0.099
		c-0.4,0-1.25,0-2.1,0.05c-0.85,0-1.8,0.05-2.55,0.05c-0.5,0-0.75-0.099-0.75-0.348c0-0.199,0.15-0.298,0.6-0.298
		c0.55,0,1-0.05,1.35-0.149c0.75-0.149,0.95-0.945,1.1-2.04c0.2-1.542,0.2-4.477,0.2-7.909L3.75,10.745"/>
	<path id="path24" inkscape:connector-curvature="0" style="&st0;" d="M26.35,13.282c0-4.775,0.05-5.671-0.05-6.666
		c-0.05-1.094-0.35-1.393-1.4-1.691c-0.25-0.05-0.8-0.099-1.25-0.099c-0.35,0-0.55-0.099-0.55-0.348c0-0.199,0.2-0.298,0.7-0.298
		c1.75,0,3.95,0.05,4.9,0.05c0.8,0,3-0.05,4.2-0.05c0.5,0,0.7,0.05,0.7,0.298c0,0.199-0.2,0.348-0.5,0.348
		c-0.35,0-0.55,0.05-0.95,0.099c-0.85,0.149-1.1,0.597-1.2,1.691c-0.05,0.995-0.05,1.89-0.05,6.666v4.427
		c0,4.576,0.9,6.367,2.5,7.611c1.45,1.144,3,1.244,4.15,1.244c1.4,0,3.1-0.398,4.4-1.691c1.8-1.691,1.9-4.427,1.9-7.661v-3.98
		c0-4.775-0.05-5.671-0.05-6.666c-0.05-1.094-0.35-1.393-1.4-1.691c-0.25-0.05-0.8-0.099-1.2-0.099c-0.35,0-0.55-0.099-0.55-0.348
		c0-0.199,0.2-0.298,0.65-0.298c1.7,0,3.85,0.05,3.9,0.05c0.35,0,2.55-0.05,3.85-0.05c0.45,0,0.65,0.05,0.65,0.298
		c0,0.199-0.2,0.348-0.55,0.348s-0.55,0.05-0.95,0.099c-0.9,0.149-1.1,0.597-1.2,1.691c-0.05,0.995-0.05,1.89-0.05,6.666v3.383
		c0,3.532-0.35,7.213-3.15,9.501c-2.3,1.94-4.8,2.238-6.95,2.238c-1.7,0-5.1-0.05-7.5-2.139c-1.7-1.443-3-3.781-3-8.357
		L26.35,13.282"/>
	<path id="path26" inkscape:connector-curvature="0" style="&st0;" d="M52.75,27.608c-0.5-0.199-0.65-0.348-0.65-1.094
		c0-1.691,0.15-3.681,0.2-4.178c0-0.497,0.15-0.796,0.4-0.796c0.3,0,0.35,0.298,0.35,0.497c0,0.398,0.1,1.094,0.3,1.642
		c0.7,2.338,3.15,3.134,5.2,3.134c2.85,0,4.55-1.791,4.55-3.98c0-1.393-0.35-2.736-3.25-4.427l-1.9-1.094
		c-3.85-2.238-5.15-4.377-5.15-7.163c0-3.83,3.7-6.317,8.25-6.317c2.1,0,3.8,0.298,4.65,0.497c0.3,0.05,0.45,0.199,0.45,0.398
		c0,0.398-0.1,1.293-0.1,3.781c0,0.647-0.15,0.995-0.4,0.995c-0.2,0-0.35-0.199-0.35-0.547c0-0.298-0.15-1.244-0.85-2.089
		c-0.5-0.597-1.55-1.492-3.65-1.492c-2.35,0-4.45,1.244-4.45,3.383c0,1.393,0.5,2.537,3.45,4.129l1.35,0.746
		c4.3,2.388,5.65,4.775,5.65,7.611c0,2.338-0.9,4.228-3.3,5.87c-1.55,1.094-3.7,1.293-5.45,1.293
		C56.15,28.404,54.15,28.255,52.75,27.608"/>
	<path id="path28" inkscape:connector-curvature="0" style="&st0;" d="M72.3,13.282c0-4.775,0-5.671-0.05-6.666
		c-0.05-1.094-0.4-1.443-1.1-1.691c-0.35-0.099-0.8-0.149-1.2-0.149c-0.35,0-0.5-0.05-0.5-0.348c0-0.199,0.25-0.249,0.8-0.249
		c1.25,0,3.45,0.05,4.4,0.05c0.8,0,2.95-0.05,4.2-0.05c0.4,0,0.65,0.05,0.65,0.249c0,0.298-0.2,0.348-0.5,0.348
		c-0.35,0-0.6,0.05-0.95,0.099c-0.9,0.149-1.15,0.597-1.25,1.691c-0.05,0.995-0.05,1.89-0.05,6.666v5.571
		c0,3.034,0,5.571,0.15,6.914c0.1,0.846,0.35,1.343,1.3,1.492c0.45,0.05,1.2,0.099,1.7,0.099c0.35,0,0.5,0.199,0.5,0.348
		c0,0.199-0.25,0.348-0.65,0.348c-2.15,0-4.4-0.099-5.3-0.099c-0.75,0-3,0.099-4.3,0.099c-0.4,0-0.65-0.099-0.65-0.348
		c0-0.149,0.1-0.348,0.5-0.348c0.5,0,0.85-0.05,1.15-0.099c0.65-0.149,0.85-0.597,0.95-1.542c0.15-1.293,0.15-3.83,0.15-6.865
		L72.3,13.282"/>
	<path id="path30" inkscape:connector-curvature="0" style="&st0;" d="M87.95,23.728c0.05,2.437,0.5,3.184,1.1,3.432
		c0.55,0.199,1.2,0.199,1.7,0.199c0.35,0,0.55,0.149,0.55,0.348c0,0.249-0.3,0.348-0.75,0.348c-2.1,0-3.65-0.099-4.25-0.099
		c-0.3,0-1.85,0.099-3.55,0.099c-0.45,0-0.75-0.05-0.75-0.348c0-0.199,0.2-0.348,0.5-0.348c0.45,0,1.05-0.05,1.5-0.149
		c0.85-0.199,0.95-1.094,1-3.83l0.3-18.654c0-0.647,0.2-1.094,0.55-1.094c0.4,0,0.85,0.497,1.4,1.045
		c0.4,0.398,5.35,5.422,10.1,10.048c2.25,2.189,6.6,6.616,7.1,7.064h0.15L104.25,7.76c-0.05-1.94-0.35-2.487-1.1-2.786
		c-0.5-0.199-1.25-0.199-1.7-0.199c-0.4,0-0.5-0.149-0.5-0.348c0-0.249,0.35-0.298,0.8-0.298c1.7,0,3.45,0.05,4.15,0.05
		c0.35,0,1.6-0.05,3.2-0.05c0.45,0,0.75,0.05,0.75,0.298c0,0.199-0.2,0.348-0.55,0.348c-0.35,0-0.6,0-1,0.099
		c-0.9,0.249-1.15,0.796-1.2,2.587l-0.3,19.898c0,0.696-0.25,0.995-0.5,0.995c-0.55,0-1-0.348-1.35-0.647
		c-2.05-1.89-6.15-5.77-9.55-9.053c-3.6-3.432-7.05-7.213-7.65-7.76h-0.1L87.95,23.728"/>
	<path id="path32" inkscape:connector-curvature="0" style="&st0;" d="M115.65,13.282c0-4.775,0-5.671-0.05-6.666
		c-0.05-1.094-0.35-1.393-1.4-1.691c-0.25-0.05-0.8-0.099-1.3-0.099c-0.35,0-0.55-0.099-0.55-0.348c0-0.199,0.25-0.298,0.75-0.298
		c1.7,0,3.8,0.05,4.75,0.05c1.05,0,8.3,0.05,8.95,0c0.6-0.05,1.1-0.149,1.4-0.199c0.2-0.05,0.35-0.149,0.5-0.149
		c0.2,0,0.2,0.149,0.2,0.298c0,0.199-0.2,0.597-0.25,2.04c-0.05,0.348-0.1,1.691-0.2,2.089c-0.05,0.149-0.1,0.497-0.35,0.497
		c-0.2,0-0.25-0.149-0.25-0.398c0-0.199-0.05-0.796-0.2-1.144c-0.25-0.547-0.5-0.995-2.15-1.144c-0.55-0.05-4.45-0.149-5.15-0.149
		c-0.15,0-0.2,0.099-0.2,0.298v7.76c0,0.199,0.05,0.348,0.2,0.348c0.75,0,5,0,5.75-0.05c0.8-0.05,1.25-0.149,1.55-0.497
		c0.25-0.199,0.35-0.398,0.5-0.398c0.15,0,0.25,0.149,0.25,0.348c0,0.199-0.05,0.696-0.25,2.288c-0.05,0.647-0.15,1.89-0.15,2.089
		c0,0.249-0.05,0.696-0.35,0.696c-0.2,0-0.3-0.099-0.3-0.249c-0.05-0.348-0.05-0.746-0.1-1.144c-0.2-0.647-0.6-1.094-1.8-1.244
		c-0.6-0.05-4.3-0.149-5.15-0.149c-0.15,0-0.2,0.149-0.2,0.348v2.537c0,1.094-0.05,3.731,0,4.676c0.05,2.139,1.1,2.636,4.45,2.636
		c0.85,0,2.25-0.05,3.1-0.398c0.8-0.348,1.2-1.045,1.4-2.338c0.05-0.348,0.15-0.497,0.35-0.497c0.25,0,0.3,0.398,0.3,0.746
		c0,0.696-0.25,2.835-0.45,3.482c-0.2,0.796-0.5,0.796-1.75,0.796c-2.45,0-4.45-0.05-6.05-0.099s-2.85-0.05-3.8-0.05
		c-0.35,0-1.1,0.05-1.85,0.05c-0.8,0.05-1.6,0.05-2.25,0.05c-0.4,0-0.65-0.099-0.65-0.348c0-0.149,0.1-0.348,0.5-0.348
		c0.5,0,0.85-0.05,1.15-0.099c0.65-0.149,0.85-0.746,0.95-1.691c0.15-1.343,0.15-3.83,0.15-6.715L115.65,13.282"/>
	<path id="path34" inkscape:connector-curvature="0" style="&st0;" d="M133.75,27.608c-0.5-0.199-0.65-0.348-0.65-1.094
		c0-1.691,0.15-3.681,0.2-4.178c0-0.497,0.15-0.796,0.4-0.796c0.3,0,0.35,0.298,0.35,0.497c0,0.398,0.1,1.094,0.3,1.642
		c0.7,2.338,3.15,3.134,5.2,3.134c2.85,0,4.55-1.791,4.55-3.98c0-1.393-0.35-2.736-3.25-4.427l-1.9-1.094
		c-3.85-2.238-5.15-4.377-5.15-7.163c0-3.83,3.7-6.317,8.25-6.317c2.1,0,3.8,0.298,4.65,0.497c0.3,0.05,0.45,0.199,0.45,0.398
		c0,0.398-0.1,1.293-0.1,3.781c0,0.647-0.15,0.995-0.4,0.995c-0.2,0-0.35-0.199-0.35-0.547c0-0.298-0.15-1.244-0.85-2.089
		c-0.5-0.597-1.55-1.492-3.65-1.492c-2.35,0-4.45,1.244-4.45,3.383c0,1.393,0.5,2.537,3.45,4.129l1.35,0.746
		c4.3,2.388,5.65,4.775,5.65,7.611c0,2.338-0.9,4.228-3.3,5.87c-1.55,1.094-3.7,1.293-5.45,1.293
		C137.2,28.404,135.2,28.255,133.75,27.608"/>
	<path id="path36" inkscape:connector-curvature="0" style="&st0;" d="M152.3,27.608c-0.5-0.199-0.65-0.348-0.65-1.094
		c0-1.691,0.15-3.681,0.2-4.178c0-0.497,0.15-0.796,0.4-0.796c0.3,0,0.35,0.298,0.35,0.497c0,0.398,0.1,1.094,0.3,1.642
		c0.7,2.338,3.15,3.134,5.2,3.134c2.85,0,4.55-1.791,4.55-3.98c0-1.393-0.35-2.736-3.25-4.427l-1.9-1.094
		c-3.85-2.238-5.15-4.377-5.15-7.163c0-3.83,3.7-6.317,8.25-6.317c2.1,0,3.8,0.298,4.65,0.497c0.3,0.05,0.45,0.199,0.45,0.398
		c0,0.398-0.1,1.293-0.1,3.781c0,0.647-0.15,0.995-0.4,0.995c-0.2,0-0.35-0.199-0.35-0.547c0-0.298-0.15-1.244-0.85-2.089
		c-0.5-0.597-1.55-1.492-3.65-1.492c-2.35,0-4.45,1.244-4.45,3.383c0,1.393,0.5,2.537,3.45,4.129l1.35,0.746
		c4.3,2.388,5.65,4.775,5.65,7.611c0,2.338-0.9,4.228-3.3,5.87c-1.55,1.094-3.7,1.293-5.45,1.293
		C155.75,28.404,153.7,28.255,152.3,27.608"/>
	<path id="path38" inkscape:connector-curvature="0" style="&st0;" d="M5.3,50.341c0-5.621,0-6.666-0.05-7.86
		C5.2,41.238,4.8,40.591,4,40.392c-0.4-0.099-0.9-0.149-1.35-0.149c-0.35,0-0.6-0.05-0.6-0.348c0-0.199,0.3-0.298,0.9-0.298
		c1.4,0,3.75,0.099,4.85,0.099c0.95,0,3.15-0.099,4.55-0.099c0.5,0,0.8,0.05,0.8,0.298c0,0.298-0.2,0.348-0.6,0.348
		c-0.35,0-0.65,0.05-1.1,0.099c-1,0.199-1.3,0.796-1.4,2.089C10,43.625,10,44.67,10,50.291v6.516c0,3.582,0,6.516,0.15,8.108
		c0.1,0.995,0.35,1.691,1.5,1.791c0.5,0.05,1.35,0.149,1.9,0.149c0.4,0,0.6,0.099,0.6,0.298c0,0.249-0.3,0.348-0.7,0.348
		c-2.45,0-4.8-0.099-5.8-0.099c-0.85,0-3.2,0.099-4.7,0.099c-0.5,0-0.75-0.099-0.75-0.348c0-0.199,0.15-0.298,0.6-0.298
		c0.55,0,1-0.05,1.35-0.149c0.75-0.149,0.95-0.796,1.1-1.841c0.2-1.542,0.2-4.477,0.2-8.059L5.3,50.341"/>
	<path id="path40" inkscape:connector-curvature="0" style="&st0;" d="M24.25,63.274c0.05,2.437,0.5,3.184,1.1,3.432
		c0.55,0.199,1.2,0.199,1.7,0.199c0.35,0,0.55,0.149,0.55,0.348c0,0.249-0.3,0.348-0.75,0.348c-2.1,0-3.65-0.099-4.25-0.099
		c-0.3,0-1.85,0.099-3.55,0.099c-0.45,0-0.75-0.05-0.75-0.348c0-0.199,0.2-0.348,0.5-0.348c0.45,0,1.05-0.05,1.5-0.149
		c0.85-0.199,0.95-1.094,1-3.83l0.35-18.654c0-0.647,0.2-1.094,0.55-1.094c0.4,0,0.85,0.497,1.4,1.045
		c0.4,0.398,5.35,5.422,10.1,10.048c2.25,2.189,6.6,6.616,7.1,7.064h0.15L40.6,47.306c-0.05-1.94-0.35-2.487-1.1-2.786
		c-0.5-0.199-1.25-0.199-1.7-0.199c-0.4,0-0.5-0.149-0.5-0.348c0-0.249,0.35-0.298,0.8-0.298c1.7,0,3.45,0.05,4.15,0.05
		c0.35,0,1.6-0.05,3.2-0.05c0.45,0,0.75,0.05,0.75,0.298c0,0.199-0.2,0.348-0.55,0.348s-0.6,0-1,0.099
		c-0.9,0.249-1.15,0.796-1.2,2.587L43.1,66.856c0,0.696-0.25,0.995-0.5,0.995c-0.55,0-1-0.348-1.35-0.647
		c-2.05-1.89-6.15-5.77-9.55-9.053c-3.55-3.432-7.05-7.213-7.65-7.76h-0.1L24.25,63.274"/>
	<path id="path42" inkscape:connector-curvature="0" style="&st0;" d="M53.3,67.204c-0.5-0.199-0.65-0.348-0.65-1.094
		c0-1.691,0.15-3.681,0.2-4.178c0-0.497,0.15-0.796,0.4-0.796c0.3,0,0.35,0.298,0.35,0.497c0,0.398,0.1,1.094,0.3,1.642
		c0.7,2.338,3.15,3.134,5.2,3.134c2.85,0,4.55-1.791,4.55-3.98c0-1.393-0.35-2.736-3.25-4.427l-1.9-1.094
		c-3.85-2.238-5.15-4.377-5.15-7.163c0-3.83,3.7-6.317,8.25-6.317c2.1,0,3.8,0.298,4.65,0.497c0.3,0.05,0.45,0.199,0.45,0.398
		c0,0.398-0.1,1.293-0.1,3.781c0,0.647-0.15,0.995-0.4,0.995c-0.2,0-0.35-0.199-0.35-0.547c0-0.298-0.15-1.244-0.85-2.089
		c-0.5-0.597-1.55-1.492-3.65-1.492c-2.35,0-4.45,1.244-4.45,3.383c0,1.393,0.5,2.537,3.45,4.129l1.35,0.746
		c4.3,2.388,5.65,4.775,5.65,7.611c0,2.338-0.9,4.228-3.3,5.87C62.5,67.801,60.35,68,58.6,68C56.7,68,54.7,67.801,53.3,67.204"/>
	<path id="path44" inkscape:connector-curvature="0" style="&st0;" d="M76,52.878c0-4.775,0-5.671-0.05-6.666
		c-0.05-1.094-0.4-1.443-1.1-1.691c-0.35-0.099-0.8-0.149-1.2-0.149c-0.35,0-0.5-0.05-0.5-0.348c0-0.199,0.25-0.249,0.8-0.249
		c1.25,0,3.45,0.05,4.4,0.05c0.8,0,2.95-0.05,4.2-0.05c0.4,0,0.65,0.05,0.65,0.249c0,0.298-0.2,0.348-0.5,0.348
		c-0.35,0-0.6,0.05-0.95,0.099c-0.9,0.149-1.15,0.597-1.25,1.691c-0.05,0.995-0.05,1.89-0.05,6.666v5.571
		c0,3.034,0,5.571,0.15,6.914c0.1,0.846,0.35,1.343,1.3,1.492c0.45,0.05,1.2,0.099,1.7,0.099c0.35,0,0.5,0.199,0.5,0.348
		c0,0.199-0.25,0.348-0.65,0.348c-2.15,0-4.4-0.099-5.3-0.099c-0.75,0-3,0.099-4.3,0.099c-0.4,0-0.65-0.099-0.65-0.348
		c0-0.149,0.1-0.348,0.5-0.348c0.5,0,0.85-0.05,1.15-0.099c0.65-0.149,0.85-0.597,0.95-1.542c0.15-1.293,0.15-3.83,0.15-6.865
		L76,52.878"/>
	<path id="path46" inkscape:connector-curvature="0" style="&st0;" d="M97.1,56.36c0,3.333,0.05,5.721,0.05,6.367
		c0.05,0.796,0.1,1.89,0.35,2.238c0.4,0.597,1.7,1.244,4.3,1.244c3,0,5.2-0.497,7.15-2.139c2.1-1.741,2.8-4.576,2.8-7.81
		c0-3.98-1.6-6.616-3.05-7.86c-3-2.686-6.6-2.985-9.15-2.985c-0.65,0-1.75,0.05-2,0.199c-0.3,0.099-0.4,0.249-0.4,0.647
		c-0.05,1.094-0.05,3.681-0.05,6.168V56.36L97.1,56.36z M92.75,52.878c0-4.775,0-5.671-0.05-6.666c-0.05-1.094-0.35-1.393-1.4-1.691
		c-0.25-0.05-0.8-0.099-1.3-0.099c-0.35,0-0.55-0.099-0.55-0.348c0-0.199,0.25-0.298,0.75-0.298c1.7,0,3.8,0.05,4.75,0.05
		c1,0,3.35-0.05,5.35-0.05c4.1,0,9.6,0,13.2,3.582c1.65,1.642,3.1,4.278,3.1,8.009c0,3.98-1.7,6.964-3.6,8.805
		c-1.5,1.492-4.95,3.681-11,3.681c-1.2,0-2.6-0.099-3.9-0.199c-1.3-0.099-2.5-0.199-3.3-0.199c-0.35,0-1.1,0.05-1.85,0.05
		c-0.8,0.05-1.6,0.05-2.25,0.05c-0.4,0-0.65-0.099-0.65-0.348c0-0.149,0.1-0.348,0.5-0.348c0.5,0,0.85-0.05,1.15-0.099
		c0.65-0.149,0.85-0.746,0.95-1.691c0.15-1.343,0.15-3.83,0.15-6.715L92.75,52.878"/>
	<path id="path48" inkscape:connector-curvature="0" style="&st0;" d="M124.85,52.878c0-4.775,0-5.671-0.05-6.666
		c-0.05-1.094-0.35-1.393-1.4-1.691c-0.25-0.05-0.8-0.099-1.3-0.099c-0.35,0-0.55-0.099-0.55-0.348c0-0.199,0.25-0.298,0.75-0.298
		c1.7,0,3.8,0.05,4.75,0.05c1.05,0,8.3,0.05,8.95,0c0.6-0.05,1.1-0.149,1.4-0.199c0.2-0.05,0.35-0.149,0.5-0.149
		c0.2,0,0.2,0.149,0.2,0.298c0,0.199-0.2,0.597-0.25,2.04c-0.05,0.348-0.1,1.691-0.2,2.089c-0.05,0.149-0.1,0.497-0.35,0.497
		c-0.2,0-0.25-0.149-0.25-0.398c0-0.199-0.05-0.796-0.2-1.144c-0.25-0.547-0.5-0.995-2.15-1.144c-0.55-0.05-4.45-0.149-5.15-0.149
		c-0.15,0-0.2,0.099-0.2,0.298v7.76c0,0.199,0.05,0.348,0.2,0.348c0.75,0,5,0,5.75-0.05c0.8-0.05,1.25-0.149,1.55-0.497
		c0.25-0.199,0.35-0.398,0.5-0.398s0.25,0.149,0.25,0.348s-0.05,0.696-0.25,2.288c-0.1,0.647-0.15,1.89-0.15,2.089
		c0,0.249-0.05,0.696-0.35,0.696c-0.2,0-0.3-0.099-0.3-0.249c-0.05-0.348-0.05-0.746-0.1-1.144c-0.2-0.647-0.6-1.094-1.8-1.244
		c-0.6-0.05-4.3-0.149-5.15-0.149c-0.15,0-0.2,0.149-0.2,0.348v2.537c0,1.094-0.05,3.731,0,4.676c0.05,2.139,1.1,2.636,4.45,2.636
		c0.85,0,2.25-0.05,3.1-0.398c0.8-0.348,1.2-1.045,1.4-2.338c0.05-0.348,0.15-0.497,0.35-0.497c0.25,0,0.3,0.398,0.3,0.746
		c0,0.696-0.25,2.835-0.45,3.482c-0.2,0.796-0.5,0.796-1.75,0.796c-2.45,0-4.45-0.05-6.05-0.099s-2.85-0.05-3.8-0.05
		c-0.35,0-1.1,0.05-1.85,0.05c-0.8,0.05-1.6,0.05-2.25,0.05c-0.4,0-0.65-0.099-0.65-0.348c0-0.149,0.1-0.348,0.5-0.348
		c0.5,0,0.85-0.05,1.15-0.099c0.65-0.149,0.85-0.746,0.95-1.691c0.15-1.343,0.15-3.83,0.15-6.715L124.85,52.878"/>
	<path id="path50" inkscape:connector-curvature="0" style="&st0;" d="M151.3,55.315c0,0.348,0.05,0.448,0.3,0.547
		c0.7,0.199,1.7,0.298,2.5,0.298c1.3,0,1.75-0.099,2.3-0.497c1-0.696,2.1-2.089,2.1-4.676c0-4.427-3.05-5.571-5-5.571
		c-0.8,0-1.6,0.05-1.95,0.099c-0.2,0.05-0.3,0.199-0.3,0.448v9.352H151.3z M147.15,52.878c0-4.775,0-5.671-0.05-6.666
		c-0.05-1.094-0.35-1.393-1.4-1.691c-0.25-0.05-0.8-0.099-1.3-0.099c-0.35,0-0.55-0.099-0.55-0.348c0-0.199,0.25-0.298,0.75-0.298
		c1.7,0,3.8,0.05,4.45,0.05c1.1,0,4.1-0.05,5.1-0.05c2.1,0,4.45,0.199,6.2,1.343c0.95,0.647,2.3,2.238,2.3,4.328
		c0,2.338-1.35,4.427-4.55,6.964c2.9,3.532,5.2,6.417,7.2,8.357c1.8,1.791,3,1.94,3.5,2.089c0.35,0.05,0.5,0.05,0.8,0.05
		s0.4,0.199,0.4,0.348c0,0.249-0.2,0.348-0.65,0.348h-3.15c-1.8,0-2.7-0.199-3.6-0.647c-1.4-0.696-2.65-2.189-4.45-4.626
		c-1.3-1.691-2.7-3.83-3.1-4.278c-0.2-0.199-0.35-0.199-0.6-0.199l-2.95-0.05c-0.15,0-0.25,0.05-0.25,0.249v0.448
		c0,2.935,0.05,5.372,0.2,6.715c0.1,0.945,0.25,1.542,1.25,1.691c0.5,0.05,1.2,0.099,1.6,0.099c0.25,0,0.4,0.199,0.4,0.348
		c0,0.199-0.25,0.348-0.65,0.348c-1.9,0-4.6-0.099-5.1-0.099c-0.65,0-2.7,0.099-4,0.099c-0.4,0-0.65-0.099-0.65-0.348
		c0-0.149,0.1-0.348,0.5-0.348c0.5,0,0.85-0.05,1.15-0.099c0.65-0.149,0.85-0.746,0.95-1.691c0.15-1.343,0.15-3.83,0.15-6.715
		L147.15,52.878"/>
</g>
</svg>
