<?xml version="1.0" encoding="utf-8"?>
<!-- Generator: Adobe Illustrator 20.0.0, SVG Export Plug-In . SVG Version: 6.00 Build 0)  -->
<!DOCTYPE svg PUBLIC "-//W3C//DTD SVG 1.1//EN" "http://www.w3.org/Graphics/SVG/1.1/DTD/svg11.dtd" [
	<!ENTITY st0 "fill:#FF4422;">
]>
<svg version="1.1" id="Layer_1" xmlns="http://www.w3.org/2000/svg" xmlns:xlink="http://www.w3.org/1999/xlink" x="0px" y="0px"
	 viewBox="0 0 170 68" style="enable-background:new 0 0 170 68;" xml:space="preserve">
<g>
	<path style="&st0;" d="M74.683,31.503C71.785,28.62,67.854,27,63.755,27H41.212v41h15.455V42.375h4.954
		c1.366,0,2.68,0.54,3.646,1.501l5.338,5.307c0.966,0.961,1.516,2.265,1.516,3.624V68h15.455V50.684
		c0-4.078-1.635-7.988-4.534-10.872L74.683,31.503z"/>
	<path style="&st0;" d="M154.545,27v15.193c0,1.359-0.55,2.663-1.516,3.624l-5.342,5.307c-0.966,0.961-2.276,1.501-3.643,1.501
		h-4.968h-2.455c1.592-2.461,2.469-5.338,2.469-8.309V27h-15.455v15.193c0,1.359-0.55,2.663-1.516,3.624l-5.342,5.307
		c-0.966,0.961-2.276,1.501-3.643,1.501h-4.954V27H92.727v41h22.543c4.099,0,8.033-1.62,10.932-4.503l5.162-5.133V68h14.815
		c4.099,0,8.033-1.62,10.932-4.503l8.356-8.309c2.898-2.883,4.534-6.794,4.534-10.872V27H154.545z"/>
	<polygon style="&st0;" points="0,42.375 10.303,42.375 10.303,68 25.758,68 25.758,42.375 36.061,42.375 36.061,27 0,27 	"/>
</g>
</svg>
