<svg xmlns="http://www.w3.org/2000/svg" width="16" height="16" viewBox="0 0 16 16">
  <path fill="#000000" d="M16,11.7638935 L16,3 C16,1.34314575 14.6568542,-1.77595026e-15 13,-4.57424897e-16 L3,-5.01768765e-16 C1.34314575,-5.83815765e-16 -6.46995335e-16,1.34314575 0,3 L2.12288211e-15,11.7638935 C0.530756492,11.2888536 1.23164556,11 2,11 L2,3 C2,2.44771525 2.44771525,2 3,2 L13,2 C13.5522847,2 14,2.44771525 14,3 L14,11 C14.7683544,11 15.4692435,11.2888536 16,11.7638935 Z M2,12 L14,12 C15.1045695,12 16,12.8954305 16,14 C16,15.1045695 15.1045695,16 14,16 L2,16 C0.8954305,16 1.3527075e-16,15.1045695 0,14 C-1.3527075e-16,12.8954305 0.8954305,12 2,12 L2,12 Z M12,13 C11.4477153,13 11,13.4477153 11,14 C11,14.5522847 11.4477153,15 12,15 C12.5522847,15 13,14.5522847 13,14 C13,13.4477153 12.5522847,13 12,13 Z"/>
</svg>
