<svg xmlns="http://www.w3.org/2000/svg" width="16" height="16" viewBox="0 0 16 16">
  <path fill="#000000" d="M9,12.2675644 L9,5 C9,4.44771525 8.55228475,4 8,4 L8,5 C8,5.27614237 7.77614237,5.5 7.5,5.5 C7.39181489,5.5 7.28654809,5.46491106 7.2,5.4 L4.53333333,3.4 C4.31241943,3.23431458 4.26764791,2.9209139 4.43333333,2.7 C4.46176046,2.66209717 4.4954305,2.62842712 4.53333333,2.6 L7.2,0.6 C7.4209139,0.434314575 7.73431458,0.4790861 7.9,0.7 C7.96491106,0.786548085 8,0.891814893 8,1 L8,2 C9.65685425,2 11,3.34314575 11,5 L11,12.2675644 C11.5978014,12.6133738 12,13.2597176 12,14 C12,15.1045695 11.1045695,16 10,16 C8.8954305,16 8,15.1045695 8,14 C8,13.2597176 8.40219863,12.6133738 9,12.2675644 Z M3,12.2675644 C3.59780137,12.6133738 4,13.2597176 4,14 C4,15.1045695 3.1045695,16 2,16 C0.8954305,16 0,15.1045695 0,14 C0,13.2597176 0.40219863,12.6133738 1,12.2675644 L1,4.73243561 C0.40219863,4.38662619 0,3.74028236 0,3 C0,1.8954305 0.8954305,1 2,1 C3.1045695,1 4,1.8954305 4,3 C4,3.74028236 3.59780137,4.38662619 3,4.73243561 L3,12.2675644 Z M2,4 C2.55228475,4 3,3.55228475 3,3 C3,2.44771525 2.55228475,2 2,2 C1.44771525,2 1,2.44771525 1,3 C1,3.55228475 1.44771525,4 2,4 Z M2,15 C2.55228475,15 3,14.5522847 3,14 C3,13.4477153 2.55228475,13 2,13 C1.44771525,13 1,13.4477153 1,14 C1,14.5522847 1.44771525,15 2,15 Z M10,15 C10.5522847,15 11,14.5522847 11,14 C11,13.4477153 10.5522847,13 10,13 C9.44771525,13 9,13.4477153 9,14 C9,14.5522847 9.44771525,15 10,15 Z" transform="translate(2)"/>
</svg>
