<svg xmlns="http://www.w3.org/2000/svg" viewBox="0 0 340 160"><g fill="#444445"><path d="M183.7 86.2l6.3-22.7 6.2 22.7h-12.5m13.2-32.7c-.6-.4-1.3-.6-2.1-.7h-13L165.3 107H178l2.9-10.6h18.2L202 107h12.7l-15.6-50.9c-.3-1.1-1.1-2-2.2-2.6m47.1-.8L232.5 96 221 52.7h-12.6l15.3 54.3h13.4c2.4-.1 4.4-1.6 5.1-3.8l14.3-50.5H244m-89.6 77.9h-.4v.7h.4c.2 0 .4-.2.4-.4 0-.1-.1-.3-.4-.3m.4 2.3l-.5-1h-.3v1h-.6v-2.7h1.1c.6 0 .9.4.9.8s-.3.6-.5.7l.6 1.2h-.7zm-.5-3.4c-1.1 0-2 .8-2 2 0 1.1.9 2 2 2s2-.9 2-2c.1-1.2-.8-2-2-2m0 4.6c-1.5 0-2.7-1.2-2.7-2.6 0-1.4 1.2-2.6 2.7-2.6 1.5 0 2.7 1.2 2.7 2.6 0 1.4-1.2 2.6-2.7 2.6m152.4-30.4h-.4v.7h.4c.2 0 .4-.2.4-.4 0-.1-.2-.3-.4-.3m.3 2.2l-.5-1h-.3v1h-.6v-2.7h1.1c.6 0 .9.4.9.8s-.2.6-.5.7l.6 1.1h-.7zm-.4-3.3c-1.1 0-2 .8-2 2 0 1.1.9 2 2 2s2-.9 2-2c0-1.2-.9-2-2-2m0 4.5c-1.5 0-2.7-1.2-2.7-2.6 0-1.4 1.2-2.6 2.7-2.6 1.5 0 2.7 1.1 2.7 2.6-.1 1.5-1.3 2.6-2.7 2.6M48.7 73.2c0 1.3 1.1 2.4 2.4 2.4h45.7l-9.9-40.2v-.2c0-2 1.7-3.7 3.7-3.7h1.3l-.4-4c-.1-1.3-1.2-2.2-2.4-2.2H86c-1.2 0-2.3.9-2.4 2.2l-1.2 13c-.1.4-.5.7-1 .7s-1-.4-1-1l-1.2-12.7c-.1-1.3-1.2-2.3-2.4-2.3h-3.1c-1.3 0-2.3 1-2.4 2.2l-1.2 12.9c-.1.4-.5.8-1 .8-.6 0-1-.4-1-1l-1.2-12.8c-.1-1.2-1.2-2.2-2.4-2.2h-3.1c-1.3 0-2.3 1-2.4 2.3l-1.1 12.9c-.1.5-.5.8-1 .8s-1-.4-1-1l-1.1-12.7c-.1-1.3-1.2-2.3-2.4-2.3H51c-1.3 0-2.4 1.1-2.4 2.4l.1 45.7m53.8-45.4c0-1.3-1.1-2.5-2.4-2.5h-1.3c-1.2 0-2.3.9-2.4 2.2l-.4 4h6.6v-3.7"/><path d="M134.9 40.7l14.4-1c1.3-.1 2.2-1.1 2.2-2.3V36c0-1.3-1.1-2.4-2.4-2.4H92c-1.3 0-2.4 1-2.4 2.3l10.1 40.7 1.1 4.2 44.1-10.9h.2c2 0 3.7 1.7 3.7 3.8v2.1l.7-.1c1.3-.1 2.2-1.1 2.2-2.3v-3.1c0-1.2-.9-2.2-2.2-2.4l-14.7-1.2c-.5-.1-.8-.5-.8-1s.4-1 1-1l14.4-1.1c1.3-.1 2.3-1.1 2.3-2.4v-3.1c0-1.2-1-2.2-2.2-2.3l-14.6-1.2c-.5-.1-.8-.5-.8-1 0-.6.4-1 1-1l14.5-1.1c1.2-.1 2.2-1.1 2.2-2.4v-3c0-1.2-1-2.3-2.3-2.4l-14.6-1.1c-.5-.1-.8-.5-.8-1-.2-.5.2-.9.8-.9m14.5 39.2l-.7-.1V86h.5c1.3 0 2.4-1.1 2.4-2.4v-1.3c-.1-1.2-1-2.2-2.2-2.4m-54.5 52.3c0 1.3 1 2.4 2.3 2.4h1.3c1.2 0 2.2-.9 2.3-2.2l.2-2.8h-6.2v2.6"/><path d="M144.3 72.5l-43.4 11 10.3 42.4c.2 1-.1 1.8-.6 2.5-.7.8-1.8 1.3-3.1 1.3h-2.7l.2 2.8c.1 1.3 1.1 2.3 2.3 2.3h3c1.2 0 2.2-.9 2.3-2.2l1.2-14.8c.1-.5.5-.8 1-.8s1 .4 1 1l1.1 14.5c.1 1.3 1.1 2.3 2.3 2.3h3c1.2 0 2.2-1 2.3-2.3l1.1-14.7c.1-.5.5-.8 1-.8s1 .4 1 1l1.1 14.6c.1 1.2 1.1 2.2 2.3 2.2h3c1.2 0 2.2-1 2.3-2.3l1.1-14.7c.1-.5.5-.8 1-.8s1 .4 1 1l1 14.5c.1 1.3 1.1 2.3 2.3 2.3h1.3c1.3 0 2.3-1.1 2.3-2.5V74.9c.3-1.3-.7-2.4-2-2.4"/><path d="M108.9 126.8c.3-.4.4-.8.4-1.4L98.5 82.7l-1.1-4.4H50.7c-1.8 0-3.4-1.3-3.7-3h-1.7c-1.4 0-2.5 1-2.5 2.4V79c0 1.2.9 2.2 2.2 2.3l14.8 1.2c.5.1.8.5.8 1s-.4 1-1 1L45 85.6c-1.3.1-2.3 1.1-2.3 2.4v3c0 1.2.9 2.2 2.2 2.4l14.8 1.2c.5.1.8.5.8 1 0 .6-.4 1-1 1l-14.5 1c-1.3.1-2.3 1.1-2.3 2.4v3.1c0 1.2 1 2.2 2.3 2.3l14.6 1.1h.2c.5.1.8.5.8 1s-.4 1-1 1l-14.7 1.1c-1.2.1-2.2 1.1-2.2 2.4v3.1c0 1.2 1 2.3 2.3 2.4l14.7 1.1c.5.1.8.5.8 1s-.4 1-1 1l-14.6 1c-1.3.1-2.3 1.1-2.3 2.4v1.3c0 1.3 1.1 2.4 2.5 2.4h61.5c1.1-.1 1.9-.4 2.3-.9m180-43.8v12.5h-11.7c-3 0-5.4-2.4-5.4-5.4V69.8c0-3 2.4-5.5 5.4-5.5h16.1l3.5-11.6h-21c-8.9 0-16.1 7.3-16.1 16.4v21.6c0 9 7.2 16.4 16.1 16.4h24.5V79.6h-15.2l3.8 3.4"/></g></svg>
