<svg xmlns="http://www.w3.org/2000/svg" viewBox="0 0 340 160"><path fill="#444" d="M233.3 49.1c.6 0 1.1.1 1.6.4.5.3.9.6 1.1 1.1.3.5.4 1 .4 1.5s-.1 1-.4 1.5c-.2.5-.6.9-1.1 1.1-.5.3-1 .4-1.6.4-.6 0-1.1-.1-1.6-.4-.5-.3-.9-.6-1.1-1.1-.3-.5-.4-1-.4-1.5s.1-1 .4-1.5c.3-.5.7-.9 1.1-1.1.6-.3 1.1-.4 1.6-.4zm0 .5c-.4 0-.9.1-1.3.3-.4.2-.7.5-1 .9-.2.4-.4.8-.4 1.3 0 .4.1.9.4 1.3.2.4.6.7 1 1 .4.2.8.3 1.3.3s.9-.1 1.3-.3c.4-.2.7-.5 1-1 .2-.4.4-.8.4-1.3 0-.4-.1-.9-.4-1.3-.2-.4-.6-.7-1-.9-.4-.2-.9-.3-1.3-.3zm-1.4 4.2v-3.3h1.1c.4 0 .7 0 .9.1.2.1.3.2.4.3.1.1.2.3.2.5s-.1.4-.3.6c-.2.2-.4.3-.7.3.2.1.3.1.4.2.1.1.3.3.5.7l.4.6h-.7l-.3-.5c-.3-.4-.5-.7-.7-.8-.1-.1-.2-.1-.4-.1h-.3v1.4h-.5zm.6-1.8h.7c.3 0 .5 0 .7-.1.1-.1.2-.2.2-.4 0-.1 0-.2-.1-.3 0-.1-.1-.1-.3-.2-.1 0-.3-.1-.5-.1h-.6l-.1 1.1zm-91 19.3c2.6 0 3.7 1.3 3.7 3.4v24.9h9v-25c0-5.1-2.7-10.7-10.6-10.7H125v35.7h9V71.3m61.2-.4c-3.1 0-5.4 1.6-6.5 3.7-.6 1.3-.8 2.3-.9 3.9h13.9c-.1-3.9-1.9-7.6-6.5-7.6m-7.3 13.7c0 4.6 2.9 8 8 8 3.9 0 6-1.1 8.2-3.4l5.6 5.4c-3.6 3.5-7.3 5.6-13.9 5.6-8.6 0-16.9-4.7-16.9-18.5 0-11.7 7.2-18.4 16.7-18.4s15 7.8 15 17.9v3.3l-22.7.1m-16.5 15c-7.4 0-10.5-5.1-10.5-10.2V54.3h9V64h6.8v7.3h-6.8v17.6c0 2.1 1 3.2 3.1 3.2h3.7v7.5h-5.3M108 50.4h9.1V59H108v-8.6zm9.1 13.6H108v26.5c0 4.7 2.3 8.8 9.1 9.5m108-50.8H216v40.5c0 4.7 2.3 8.8 9.1 9.5M256.7 55c-8.3-40.1-86-42.7-136-12.1v3.4c50-25.8 121-25.6 127.4 11.3 2.2 12.3-4.7 25-17 32.3v9.6c14.9-5.4 29.9-23 25.6-44.5m-91.1 70.3c-34.5 3.2-70.5-1.8-75.6-28.9C87.5 83 93.6 68.8 101.6 60v-4.7c-14.5 12.8-22.4 28.9-17.8 47.9 5.8 24.5 36.7 38.3 83.9 33.7 18.7-1.8 43.1-7.8 60.1-17.2v-13.3c-15.4 9.3-40.9 16.9-62.2 18.9z"/></svg>
