<svg xmlns="http://www.w3.org/2000/svg" viewBox="0 0 340 160"><g fill="#444"><path d="M143.4 38.8c-.5.4-2.1 1.4-4.6 1.4-4.5 0-7.5-2.8-7.5-7.1s3.2-7.1 7.6-7.1c1.7 0 3.7.5 4.8 1-.2.5-.4 1.2-.5 1.6h-.1c-.8-.9-2.2-1.7-4.2-1.7-2.6 0-5.5 2.1-5.5 6.2 0 4 3 6.1 5.7 6.1 2.4 0 3.6-1.1 4.6-2l.1.1-.4 1.5zm11.1.4v-.8c-1.4.1-5.1.2-6.5.3 0-.4-.1-4.7 0-5.3.6 0 3.7 0 5 .2 0-.2-.1-.5-.1-.7 0-.2 0-.6.1-.8-1.2.1-2.7.2-5 .2 0-.5 0-4.1.1-5 2.6 0 4.9.2 6.2.3v-1.4c-.7 0-2.9.1-4.1.1-1.2 0-3 0-4.2-.1.1 1.7.2 3.4.2 5.1v3.4c0 1.7-.1 3.4-.2 5.2 1.2-.1 3.1-.1 4.3-.1h1.7c.9 0 1.9 0 2.6.1-.1-.2-.1-.4-.1-.7zm4.5-6v1.6c0 1.7.1 3.4.2 5.2-.3-.1-1-.1-1.1-.1-.1 0-.7 0-1.1.1.1-1.7.2-3.4.2-5.2v-3.4c0-1.7-.1-3.4-.2-5.2.8.1 1.7.1 2.5.1s1.5-.1 2.3-.1c2.2 0 4.3.7 4.3 3.2 0 2.6-2.6 3.6-4.2 3.8 1 1.2 4.5 5.5 5.6 6.8-.4-.1-1.1-.1-1.2-.1-.2 0-.9 0-1.2.1-.8-1.2-3.3-5-5-6.7-.2-.1-1.1-.1-1.1-.1zm1.3-.7c1.6 0 3.8-.6 3.8-2.8 0-2-1.7-2.6-3.1-2.6-.9 0-1.5.1-1.9.1-.1 1.5-.1 2.8-.1 4.2v1.1h1.3zm21.2-6.3c-.2 0-.5.1-.9.1-.3 0-.6 0-.8-.1.1 1.6.2 4.6.2 6.6v3.5c-.7-.8-9-9.4-9.9-10.3h-.7c0 1.3.1 2.6.1 5.1 0 3.2 0 6.6-.2 8.7.2 0 .5-.1.9-.1.3 0 .6 0 .8.1-.1-1.6-.2-4.6-.2-6.6v-3.8c.7.8 9.1 9.5 9.9 10.6h.7c0-1.3-.1-2.7-.1-5.2 0-3.1 0-6.5.2-8.6zM145.2 62c-3.9-6.2-5-12.2-5.2-16.7h-1.8c.2 5 1.4 10.2 4.1 15.3.7.6 2.2 1.2 2.9 1.4z"/><path d="M218.3.3s-45-.4-59.3-.3c-2.2 0-3.8.2-4.2.2-17.7 1.1-31 16.7-31.1 33.6 0 4.9 1.3 10.5 3.4 18 2.8 9.9 6.1 21.2 6.1 21.2h1.8l-6.6-22.4h.1c4.9 9.4 16.1 17 28.9 17 6.9 0 13.3-1.9 18.3-5.5l-29.5 31.4h2.3s20.7-22.1 27.8-29.6c5.4-5.7 8.2-9.4 9.4-11.4 1.3-2.2 5.6-8.5 5.5-17.9h.1l12.7 59h1.9s-10.9-48.1-13-58.2c-2.1-9.9-4.5-16.1-7.2-19.6-.9-.5-2.3-1.1-3-1.2 3.8 4.8 6.7 12 6.7 19.3 0 17.6-14.4 32-32 32s-32-14.4-32-32 14.4-32 32-32c7.8 0 15.1 2.9 20.6 7.6 1.1.1 2.5.5 3.4.8-4-4-9-7-14.6-8.5l51.3.3.2-1.8z"/><path d="M149.7 67.7c-1.1-.2-2.6-.6-3.4-.9 3.9 4.4 9.2 7.9 14.4 9.9l1.4-1.4c-5.7-2-9.8-5.1-12.4-7.6m47.1-2.5c-5.7 7-14.6 11.7-24.8 11.7-2.2 0-4.3-.2-6.1-.6l-1.5 1.6c2.8.6 5.3.9 7.6.9 10.5 0 19.4-4.9 25.1-11.3l-.3-2.3m11.9-56.8l-3.1 31.8h-.1c-.4-6-3.4-13.2-7.1-17.7C192 14.6 182.6 9.9 172 9.9c-10.1 0-19.1 4.5-25.3 11.5l1.4 1.1c5.8-6.6 14.2-10.8 23.8-10.8 11.7 0 21.3 6 26.6 14.2 4.8 7.3 6.4 16.6 5.2 23.5-.4 2.3-1.2 6.8-4.3 11.9l.5 2.4c3.8-5.9 5.7-11.1 7.2-24.4 1.1-10.2 3.1-30.8 3.1-30.8l-1.5-.1zm-98.6 140.8c.3.6.7 1.1 1.2 1.5.5.4 1.1.6 1.7.8.6.1 1.3.2 2 .2.5 0 1-.1 1.6-.2.6-.1 1.1-.3 1.5-.6.5-.3.8-.6 1.2-1.1.3-.4.5-1 .5-1.6 0-.6-.2-1.2-.5-1.6-.3-.4-.7-.8-1.2-1.1-.5-.3-1-.6-1.6-.8-.6-.2-1.2-.5-1.8-.7-.6-.2-1.2-.5-1.8-.8-.6-.3-1.2-.6-1.6-1-.5-.4-.9-.9-1.2-1.4-.3-.5-.4-1.2-.4-2 0-.9.2-1.7.7-2.4.4-.6 1-1.2 1.7-1.6.7-.4 1.4-.7 2.3-.9.8-.2 1.6-.3 2.4-.3 1 0 1.9.1 2.7.3.8.2 1.5.6 2.1 1.1.6.5 1.1 1.1 1.4 1.9.3.8.5 1.7.5 2.8h-2.3c0-.7 0-1.4-.3-1.9-.2-.5-.5-.9-.9-1.3-.4-.3-.9-.6-1.4-.8-.6-.2-1.2-.2-1.8-.2-.5 0-1 0-1.6.1-.5.1-1 .3-1.5.5s-.8.6-1.1 1c-.3.4-.5 1-.5 1.6 0 .4.1.8.3 1.2.2.3.5.6.9.9.4.3.8.5 1.3.7.5.2 1 .4 1.5.7.7.3 1.3.5 2.1.8.7.3 1.4.6 2 1 .6.4 1.1.9 1.5 1.5.4.6.6 1.3.6 2.2 0 1.1-.2 2-.7 2.7-.5.7-1 1.3-1.8 1.8-.7.5-1.5.8-2.5 1-.9.2-1.8.3-2.7.3-.9 0-1.8-.1-2.7-.4-.9-.2-1.6-.6-2.3-1.2-.7-.5-1.2-1.2-1.6-2.1-.4-.8-.6-1.9-.5-3.1h2.3c-.1 1.1 0 1.9.3 2.5zm27.5 3.8l.7-3.4h-.1c-.7 1.1-1.7 2.1-2.8 2.8-1.2.8-2.5 1.1-3.9 1.1-.8 0-1.6-.1-2.3-.3-.7-.2-1.3-.5-1.8-.9s-.9-.9-1.2-1.6c-.3-.6-.4-1.4-.4-2.3 0-.5.1-1.3.3-2.2l2.6-12.1h2.3l-2.6 12.2c-.1.3-.1.6-.2.9 0 .3-.1.7-.1 1 0 .6.1 1.1.3 1.6.2.4.5.8.9 1.1.4.3.8.5 1.3.6.5.1 1 .2 1.5.2.9 0 1.7-.2 2.4-.5.8-.4 1.5-.9 2.1-1.6.6-.7 1.2-1.5 1.7-2.5s.9-2 1.1-3.2l2.1-9.7h2.3l-4.1 18.9h-2.1zm13-18.8l-.7 3.4h.1c.8-1.2 1.7-2.2 2.8-2.9 1.1-.7 2.4-1 4.1-1 1.2 0 2.3.2 3.2.6.9.4 1.6.9 2.2 1.6.6.7 1 1.5 1.3 2.4.3 1 .4 2 .4 3.1 0 1.5-.2 2.9-.7 4.4-.5 1.5-1.2 2.8-2.1 3.9-.9 1.2-2 2.1-3.3 2.8-1.3.7-2.7 1.1-4.3 1.1-.7 0-1.4-.1-2.1-.2-.7-.2-1.3-.4-1.8-.8-.5-.3-1-.8-1.4-1.3-.4-.5-.6-1.2-.7-2h-.1l-2.3 10.7H143l5.5-25.8h2.1zm2.5 2.4c-1 .7-1.9 1.5-2.6 2.6-.7 1-1.2 2.2-1.6 3.4-.4 1.3-.5 2.5-.5 3.6 0 1.7.5 3 1.4 4 .9 1 2.2 1.5 3.9 1.5 1.3 0 2.5-.3 3.5-1s1.9-1.5 2.5-2.5c.7-1 1.2-2.2 1.5-3.4.3-1.2.5-2.4.5-3.6 0-1.6-.4-3-1.2-4-.8-1.1-2.1-1.6-3.8-1.6-1.4 0-2.6.3-3.6 1zm18.5-2.4l-.7 3.4h.1c.8-1.2 1.7-2.2 2.8-2.9 1.1-.7 2.4-1 4.1-1 1.2 0 2.3.2 3.2.6.9.4 1.6.9 2.2 1.6.6.7 1 1.5 1.3 2.4.3 1 .4 2 .4 3.1 0 1.5-.2 2.9-.7 4.4-.5 1.5-1.2 2.8-2.1 3.9-.9 1.2-2 2.1-3.3 2.8-1.3.7-2.7 1.1-4.3 1.1-.7 0-1.4-.1-2.1-.2-.7-.2-1.3-.4-1.8-.8-.5-.3-1-.8-1.4-1.3-.4-.5-.6-1.2-.7-2h-.1l-2.3 10.7H164l5.5-25.8h2.1zm2.5 2.4c-1 .7-1.9 1.5-2.6 2.6-.7 1-1.2 2.2-1.6 3.4-.4 1.3-.5 2.5-.5 3.6 0 1.7.5 3 1.4 4 .9 1 2.2 1.5 3.9 1.5 1.3 0 2.5-.3 3.5-1s1.9-1.5 2.5-2.5c.7-1 1.2-2.2 1.5-3.4.3-1.2.5-2.4.5-3.6 0-1.6-.4-3-1.2-4-.8-1.1-2.1-1.6-3.8-1.6-1.4 0-2.5.3-3.6 1zm20.1-9.7l-5.6 26.1h-2.3l5.6-26.1h2.3zm5.2 7.3l-4.1 18.9H193l4-18.9h2.4zm1.6-7.3l-.8 3.7h-2.3l.8-3.7h2.3zm2 18.8c0 .9.1 1.6.3 2.4.2.7.6 1.4 1 1.9.5.5 1 .9 1.7 1.2.7.3 1.5.5 2.4.5 1.5 0 2.8-.4 3.9-1.3s1.8-2 2.3-3.4h2.3c-.6 2.1-1.7 3.8-3.1 4.9-1.4 1.1-3.3 1.7-5.5 1.7-2.5 0-4.4-.7-5.7-2.1-1.3-1.4-2-3.4-2-5.9 0-1.5.2-3 .7-4.4.5-1.4 1.1-2.7 2-3.8.9-1.1 2-2 3.2-2.7 1.3-.7 2.7-1 4.3-1 1.1 0 2.2.2 3 .5.9.4 1.6.9 2.3 1.5.6.6 1.1 1.4 1.4 2.3.3.9.5 1.9.5 3v1.6c0 .5-.1 1.1-.1 1.6h-14.8c0 .5-.1 1-.1 1.5zm12.8-4.2v-.7c0-1.6-.5-2.9-1.4-3.8-.9-1-2.2-1.4-3.8-1.4-1 0-1.8.2-2.6.6-.8.4-1.5.9-2.1 1.5-.6.6-1.1 1.3-1.6 2.1-.4.8-.7 1.6-.9 2.5h12.3c.1-.3.1-.5.1-.8zm9.2-7.3l-1 4.4h.1c.7-1.4 1.6-2.5 2.7-3.3 1.1-.9 2.5-1.3 4.1-1.3h1.2l-.5 2.3h-1.4c-1 0-1.9.2-2.7.6-.8.4-1.5.9-2.1 1.6-.6.6-1.1 1.4-1.4 2.2-.4.8-.7 1.7-.9 2.6l-2.1 9.9h-2.3l4-18.9h2.3zm-117.4-23.1h125v1.4h-125z"/></g></svg>