<svg xmlns="http://www.w3.org/2000/svg" viewBox="0 0 38.725 50.186"><path d="M14.146 36.758h-1.222v3.782h-.496v-3.782H11.21v-.448h2.936v.448zm2.405 2.393h-2.133c.008.337.099.597.271.778.173.184.411.275.714.275.34 0 .653-.112.938-.337v.454c-.266.193-.617.289-1.053.289-.427 0-.762-.137-1.006-.411-.244-.274-.366-.66-.366-1.157 0-.471.133-.854.4-1.15.266-.295.597-.443.993-.443.395 0 .701.128.917.383.216.256.325.611.325 1.066v.253zm-.497-.411c-.002-.279-.069-.497-.202-.651-.133-.156-.317-.233-.553-.233-.229 0-.422.081-.582.245-.159.163-.257.377-.295.64h1.632zm3.391 1.8h-.484v-.473h-.012c-.21.362-.521.543-.93.543-.301 0-.536-.079-.707-.238-.17-.16-.255-.371-.255-.635 0-.564.332-.893.997-.984l.906-.127c0-.514-.208-.771-.623-.771-.364 0-.692.124-.985.372v-.496c.297-.189.639-.283 1.027-.283.71 0 1.065.375 1.065 1.127v1.965zm-.484-1.528l-.729.101c-.224.031-.393.087-.507.166-.114.08-.171.221-.171.424 0 .147.053.268.158.361.105.094.246.141.42.141.24 0 .438-.084.595-.252.156-.169.234-.382.234-.639v-.302zm5.685 1.528h-.484v-1.734c0-.334-.051-.576-.154-.727-.104-.148-.277-.224-.521-.224-.206 0-.382.095-.526.283s-.217.415-.217.679v1.723h-.484v-1.794c0-.594-.229-.891-.688-.891-.213 0-.387.089-.525.267-.137.178-.206.41-.206.695v1.723h-.483v-3.021h.483v.479h.012c.214-.365.526-.549.938-.549.206 0 .387.058.539.172.154.115.26.267.316.453.225-.416.559-.625 1.003-.625.665 0 .997.41.997 1.23v1.861zm.731-.109v-.52c.264.195.554.293.87.293.426 0 .638-.143.638-.426 0-.08-.019-.148-.055-.205-.036-.056-.085-.105-.147-.148s-.135-.082-.219-.117c-.083-.033-.174-.069-.27-.107-.134-.053-.252-.106-.353-.16-.102-.055-.187-.115-.254-.184-.067-.067-.118-.145-.153-.23-.034-.087-.052-.188-.052-.305 0-.142.032-.267.098-.376.065-.108.151-.2.26-.274s.231-.129.37-.166c.139-.038.281-.057.43-.057.262 0 .495.045.701.136v.489c-.222-.145-.478-.218-.767-.218-.091 0-.173.011-.245.03-.072.021-.135.051-.188.088-.052.037-.092.082-.121.134-.027.052-.042.11-.042.173 0 .078.015.145.042.197.029.053.07.101.126.143.056.041.122.078.2.111.079.033.168.07.27.109.133.051.253.104.359.158.105.054.196.115.271.183.074.067.132.146.172.234.041.089.061.194.061.315 0 .15-.033.279-.099.39s-.153.202-.264.274-.237.127-.381.162-.294.053-.451.053c-.31.001-.578-.059-.807-.179z"/><g fill="#555AAC"><path d="M10.911 11.911v13.512l10.112 1.724v-16.96l-10.112 1.724zm7.284 4.815l-1.852.048v5.591l-1.412-.058V16.81l-1.704.046v-1.21l4.968-.205v1.285z"/><circle cx="26.367" cy="16.282" r="1.454"/><path d="M21.601 17.644v6.206c.287.124.633.195 1.002.195 1.021 0 1.852-.549 1.852-1.226v-5.176h-2.854zm1.105-.756c.803 0 1.455-.652 1.455-1.455s-.652-1.455-1.455-1.455c-.443 0-.84.199-1.105.512v1.886c.265.313.662.512 1.105.512zm2.233 1.508v4.367h1.004c1.021 0 1.852-.549 1.852-1.227v-3.141h-2.856z"/></g></svg>