<?xml version="1.0" encoding="UTF-8"?>
<svg width="32px" height="32px" viewBox="0 0 32 32" version="1.1" xmlns="http://www.w3.org/2000/svg" xmlns:xlink="http://www.w3.org/1999/xlink">
    <!-- Generator: Sketch 60 (88103) - https://sketch.com -->
    <title>feedback-button</title>
    <desc>Created with Sketch.</desc>
    <g id="paid-modules-page-empty-states" stroke="none" stroke-width="1" fill="none" fill-rule="evenodd">
        <g id="1.1.Group-&gt;-Security-&gt;-emptyStates-slideshow--feedback2.3" transform="translate(-1376.000000, -702.000000)">
            <g id="feedback-button" transform="translate(1376.000000, 702.000000)">
                <g id="global-components/buttons/icon/default">
                    <g id="global-components/buttons/default/borders/all-rounded-corners/default" fill="#FFFFFF" stroke="#BABABA">
                        <rect id="block" x="0.5" y="0.5" width="31" height="31" rx="4"></rect>
                    </g>
                    <g id="icn/slight-smile" transform="translate(10.000000, 10.000000)" fill="#707070">
                        <path d="M6,0 C9.313725,0 12,2.68629 12,6 C12,9.313725 9.313725,12 6,12 C2.68629,12 0,9.313725 0,6 C0,2.68629 2.68629,0 6,0 Z M6,1.5 C3.5147175,1.5 1.5,3.5147175 1.5,6 C1.5,8.485275 3.5147175,10.5 6,10.5 C8.485275,10.5 10.5,8.485275 10.5,6 C10.5,3.5147175 8.485275,1.5 6,1.5 Z M7.58025,7.0130775 C7.849275,7.16844 7.941375,7.51245 7.78605,7.781475 C7.60515,8.0946 7.3452075,8.3547 7.03215,8.535675 C6.7190925,8.716575 6.3639675,8.81205 6.00237,8.81250318 C5.64078,8.81295 5.28543,8.7183 4.97196,8.538 C4.65849,8.357775 4.3979025,8.09835 4.2163425,7.7856 C4.06035,7.51695 4.1516925,7.1727225 4.42035,7.01673 C4.66661938,6.87374375 4.97640115,6.938575 5.14647518,7.15730785 L5.1892425,7.2207375 C5.271765,7.3628775 5.3902125,7.4808225 5.532705,7.562775 C5.67519,7.644675 5.83671,7.687725 6.0010725,7.6875 C6.165435,7.687275 6.32685,7.643925 6.469155,7.56165 C6.582993,7.495854 6.6813894,7.4070372 6.75828084,7.30127064 L6.8118225,7.2188625 C6.9671925,6.949845 7.3112175,6.8577075 7.58025,7.0130775 Z M4.5,4.5 C4.91421,4.5 5.25,4.83579 5.25,5.25 C5.25,5.66421 4.91421,6 4.5,6 C4.08579,6 3.75,5.66421 3.75,5.25 C3.75,4.83579 4.08579,4.5 4.5,4.5 Z M7.5,4.5 C7.914225,4.5 8.25,4.83579 8.25,5.25 C8.25,5.66421 7.914225,6 7.5,6 C7.08579,6 6.75,5.66421 6.75,5.25 C6.75,4.83579 7.08579,4.5 7.5,4.5 Z" id="icon"></path>
                    </g>
                </g>
            </g>
        </g>
    </g>
</svg>