<svg width="9" height="9" xmlns="http://www.w3.org/2000/svg" xmlns:xlink="http://www.w3.org/1999/xlink"><defs><path d="M5.9031 4.5l2.8063 2.8063c.3875.3874.3875 1.0156 0 1.4031-.3875.3875-1.0157.3875-1.4031 0L4.5 5.9031 1.6937 8.7094c-.3874.3875-1.0156.3875-1.4031 0-.3875-.3875-.3875-1.0157 0-1.4031L3.0969 4.5.2906 1.6937c-.3875-.3874-.3875-1.0156 0-1.4031.3875-.3875 1.0157-.3875 1.4031 0L4.5 3.0969 7.3063.2906c.3874-.3875 1.0156-.3875 1.4031 0 .3875.3875.3875 1.0157 0 1.4031L5.9031 4.5z" id="a"/></defs><g fill="none" fill-rule="evenodd"><mask id="b" fill="#fff"><use xlink:href="#a"/></mask><g mask="url(#b)" fill="#919191"><path d="M-3-3h15v15H-3z"/></g></g></svg>
