<?xml version="1.0" encoding="UTF-8"?>
<svg width="10px" height="8px" viewBox="0 0 10 8" version="1.1" xmlns="http://www.w3.org/2000/svg" xmlns:xlink="http://www.w3.org/1999/xlink">
    <!-- Generator: Sketch 57.1 (83088) - https://sketch.com -->
    <title>icn/mobile-issue-close</title>
    <desc>Created with Sketch.</desc>
    <defs>
        <path d="M3.65123928,5.47759225 L8.37190179,0.306019375 C8.74435178,-0.102006458 9.34821252,-0.102006458 9.72066251,0.306019375 C10.0931125,0.714045208 10.0931125,1.37558579 9.72066251,1.78361162 L4.32561964,7.69398063 C3.95316965,8.10200646 3.34930891,8.10200646 2.97685892,7.69398063 L0.279337491,4.73879613 C-0.0931124969,4.33077029 -0.0931124969,3.66922971 0.279337491,3.26120387 C0.651787478,2.85317804 1.25564822,2.85317804 1.62809821,3.26120387 L3.65123928,5.47759225 Z" id="path-1"></path>
    </defs>
    <g id="Page-1" stroke="none" stroke-width="1" fill="none" fill-rule="evenodd" opacity="0.400000006">
        <g id="Artboard" transform="translate(-985.000000, -365.000000)">
            <g id="Group-6" transform="translate(67.000000, 64.000000)">
                <g id="Group-4" transform="translate(585.000000, 0.000000)">
                    <g id="Group-Copy-3" transform="translate(0.000000, 222.000000)">
                        <g id="Group-2" transform="translate(140.000000, 71.000000)">
                            <g id="global-components/toggle--on" transform="translate(154.000000, 0.000000)">
                                <g id="icn/mobile-issue-close" transform="translate(39.000000, 8.000000)">
                                    <mask id="mask-2" fill="white">
                                        <use xlink:href="#path-1"></use>
                                    </mask>
                                    <g id="Combined-Shape"></g>
                                    <g id="c-fill/blues/$blue-500-::-1F78D1" mask="url(#mask-2)" fill="#1F78D1">
                                        <g transform="translate(-3.000000, -4.000000)" id="fill/blues/$blue-500-::-1F78D1">
                                            <rect x="0" y="0" width="16" height="16"></rect>
                                        </g>
                                    </g>
                                </g>
                            </g>
                        </g>
                    </g>
                </g>
            </g>
        </g>
    </g>
</svg>