<svg xmlns="http://www.w3.org/2000/svg" viewBox="0 0 340 160"><path fill="#444" d="M121.3 131.7h3.2c1.4 0 2.7-.8 2.7-2.4 0-1.4-1.2-2.4-2.6-2.4h-3.3v4.8zm-5.6-9h10.5c2.8 0 6.8 1.2 6.8 5.7 0 2.8-1.3 4.4-3.7 5.2.1 0 1.4.6 1.9 2.2l3 8.3H128l-2.2-6.4c-.3-1-1.1-1.6-2.1-1.6h-2.3v8.1h-5.7v-21.5zm96-.5c6 0 10.6 3.5 10.6 11.2 0 7.4-4.6 11.1-10.6 11.1s-10.6-3.7-10.6-11.1c0-7.7 4.6-11.2 10.6-11.2zm-4.6 11.2c0 3.2 1.4 6.9 4.6 6.9 3.3 0 4.6-3.7 4.7-6.9 0-2.9-1.4-6.9-4.7-6.9-3.2 0-4.6 3.7-4.6 6.9zm30.7 10.7l-7.4-14v14H225v-21.3h7.4l7 13.8v-13.8h5.3v21.3h-6.9zm-39.4-21l-.4 4.4c-2.9-1.6-8.5-1.7-8.5.9 0 3.7 9.9 1 9.9 9.1 0 7.9-9.4 8-15.5 6.1l.4-4.7c3.8 1.8 9.2 2.2 9.2-.9 0-3.4-9.9-1.5-9.9-9.1 0-6.3 7.8-8 14.8-5.8zm-17.5 0l-.4 4.4c-2.9-1.6-8.5-1.7-8.5.9 0 3.7 9.9 1 9.9 9.1 0 7.9-9.4 8-15.5 6.1l.4-4.7c3.8 1.8 9.2 2.2 9.2-.9 0-3.4-9.9-1.5-9.9-9.1 0-6.3 7.8-8 14.8-5.8zm-17.1.3l-.4 4.6c-4.7-2.7-11.9-1.8-12 5.3-.1 7.1 7.4 8.1 12.2 5.7l.3 4.7c-8.4 2.6-18.5 0-18.4-10.4 0-10.2 10.1-13 18.3-9.9zm-21.1 20.7h-5.8v-21.3h5.8v21.3zm-31.6-8.5H101v4h10.7v4.5H95.2v-21.3h16.3v4.4H101v3.9h10.1v4.5zm37.6-34.7c-4.6 1.6-9.6-.7-11.2-5.3-1.6-4.5.7-9.5 5.2-11.2l48.6-17.8c4.6-1.7 9.6.7 11.3 5.2 1.7 4.6-.7 9.6-5.2 11.3l-48.7 17.8zm0-26.3c-4.6 1.6-9.6-.7-11.2-5.3-1.6-4.5.7-9.5 5.2-11.2l48.6-17.8c4.6-1.7 9.6.7 11.3 5.2 1.7 4.6-.7 9.6-5.2 11.3l-48.7 17.8zm0-26.3c-4.6 1.6-9.6-.8-11.2-5.4-1.6-4.5.7-9.4 5.1-11.1L191.3 14c4.6-1.7 9.6.7 11.3 5.2 1.7 4.6-.7 9.6-5.2 11.3l-48.7 17.8z"/></svg>
