<svg xmlns="http://www.w3.org/2000/svg" viewBox="0 0 340 160"><path fill="#444" d="M11.4 109.5c-4.8 0-8.3-1.1-11.4-4.2l3.2-3.2c2.3 2.3 4.9 3.1 8.2 3.1 4.2 0 6.6-1.8 6.6-4.9 0-1.4-.4-2.6-1.3-3.3-.8-.8-1.6-1.1-3.5-1.4L9.5 95c-2.6-.4-4.7-1.3-6.1-2.6-1.6-1.5-2.3-3.5-2.3-6.1 0-5.6 4.1-9.4 10.7-9.4 4.2 0 7.2 1.1 10 3.7l-3.1 3.1c-2-1.9-4.3-2.5-7-2.5-3.8 0-5.9 2.2-5.9 5 0 1.2.4 2.2 1.2 3 .8.7 2.1 1.3 3.6 1.5l3.7.5c3 .5 4.6 1.2 6 2.4 1.8 1.5 2.6 3.8 2.6 6.6 0 5.8-4.8 9.3-11.5 9.3zm24.3-.3c-4.3 0-6.3-3.1-6.3-6.4V90.3h-2.6v-3.5h2.6v-6.9H34v6.9h4.4v3.5H34v12.4c0 1.7.8 2.7 2.5 2.7h1.9v3.9h-2.7zm20.8 0v-2.1c-1.7 1.7-3.2 2.3-6.1 2.3-2.8 0-4.7-.7-6.1-2.1-1.2-1.2-1.8-3-1.8-4.9 0-3.8 2.7-6.6 7.9-6.6h6v-1.6c0-2.9-1.4-4.3-5-4.3-2.5 0-3.7.6-5 2.2l-3-2.8c2.2-2.5 4.4-3.3 8.2-3.3 6.3 0 9.4 2.7 9.4 7.8v15.3h-4.5zm-.1-10.1H51c-2.7 0-4.1 1.2-4.1 3.3 0 2.1 1.3 3.2 4.2 3.2 1.8 0 3.1-.1 4.3-1.3.7-.7 1-1.8 1-3.4v-1.8zm20.7 10.4c-5.1 0-10.2-3.2-10.2-11.7s5-11.7 10.2-11.7c3.2 0 5.4.9 7.5 3.2l-3.2 3.1c-1.4-1.6-2.6-2.2-4.4-2.2-1.8 0-3.2.7-4.2 2s-1.4 2.9-1.4 5.5.4 4.3 1.4 5.6c1 1.3 2.5 2 4.2 2 1.8 0 2.9-.6 4.4-2.2l3.2 3c-2.1 2.5-4.3 3.4-7.5 3.4zm27.2-.3l-6.4-10.6-3.4 3.8v6.7h-4.6v-32h4.6v19.8l8.9-10.6h5.6l-7.9 9 8.9 13.9h-5.7zm10.4 0V77.1h21.1v5.6H121v7.5h12.7v5.6H121v7.8h14.9v5.6h-21.2zm39.8 0l-4.3-7-4.3 7h-7l8.1-12-7.8-11.5h7l4 6.7 4-6.7h7l-7.8 11.5 8.1 12h-7zm19.3.3c-4.7 0-10.5-2.5-10.5-12s5.8-12 10.5-12c3.2 0 5.7 1 7.8 3.2l-4 4c-1.2-1.3-2.3-1.8-3.8-1.8-1.4 0-2.5.5-3.3 1.5-.9 1.1-1.3 2.7-1.3 5.2s.4 4.1 1.3 5.2c.9 1 1.9 1.5 3.3 1.5 1.5 0 2.6-.5 3.8-1.8l4 3.9c-2.2 2.1-4.6 3.1-7.8 3.1zm25.8-.3V94.9c0-3.1-2-4.1-3.8-4.1-1.8 0-3.8 1.1-3.8 4.1v14.3h-5.9V77.1h5.9v10.8c1.6-1.6 3.6-2.4 5.6-2.4 5.1 0 7.8 3.6 7.8 8.6v15.2h-5.8zm24.2 0v-2c-1.6 1.6-3.1 2.3-5.8 2.3-2.7 0-4.6-.7-6-2.1-1.3-1.3-1.9-3.2-1.9-5.3 0-3.7 2.6-6.8 8-6.8h5.5v-1.2c0-2.6-1.3-3.7-4.4-3.7-2.3 0-3.3.5-4.5 1.9l-3.7-3.7c2.3-2.5 4.6-3.2 8.5-3.2 6.6 0 10 2.8 10 8.3v15.5h-5.7zm-.2-9.9H219c-2.1 0-3.3 1-3.3 2.7 0 1.6 1.1 2.7 3.4 2.7 1.6 0 2.7-.1 3.7-1.1.6-.6.9-1.5.9-3v-1.3zm25.9 9.9V95c0-3.2-2-4.3-3.9-4.3-1.8 0-3.9 1.1-3.9 4.3v14.2h-5.9V85.8h5.7V88c1.5-1.6 3.7-2.4 5.9-2.4 2.3 0 4.2.8 5.5 2.1 1.9 1.9 2.4 4.1 2.4 6.7v15h-5.8zm20.2 8.9c-3.6 0-6.1-.7-8.5-3.1l3.7-3.7c1.3 1.3 2.6 1.8 4.6 1.8 3.5 0 4.7-2.5 4.7-4.9v-2.4c-1.5 1.7-3.3 2.3-5.6 2.3s-4.3-.8-5.6-2.1c-2.2-2.2-2.4-5.2-2.4-9.3 0-4.1.2-7.1 2.4-9.3 1.3-1.3 3.3-2.1 5.6-2.1 2.5 0 4.1.7 5.7 2.5v-2.2h5.7v22.6c.1 5.8-3.9 9.9-10.3 9.9zm.6-27.3c-3.5 0-3.8 3-3.8 6.1 0 3.1.4 6.1 3.8 6.1 3.5 0 3.9-3 3.9-6.1 0-3.2-.4-6.1-3.9-6.1zm21 8.5c0 3 1.8 5.2 5.1 5.2 2.6 0 3.8-.7 5.3-2.2l3.6 3.5c-2.4 2.4-4.7 3.7-8.9 3.7-5.5 0-10.9-2.5-10.9-12 0-7.7 4.1-12 10.2-12 6.5 0 10.2 4.8 10.2 11.2v2.6h-14.6zm8.3-6.5c-.6-1.4-1.9-2.4-3.9-2.4s-3.3 1-3.9 2.4c-.4.9-.5 1.5-.5 2.5h8.9c-.1-1-.2-1.7-.6-2.5zm7.1-34.9H340v6.8h-33.3zm0-8.8H340v6.8h-33.3zm28-9.2H312c-2.9 0-5.3 2.5-5.3 5.5v1.8H340v-1.8c0-3.1-2.4-5.5-5.3-5.5zm-28 26.8v1.8c0 3 2.4 5.5 5.3 5.5h14.2v7.2l7-7.2h1.5c2.9 0 5.3-2.5 5.3-5.5v-1.8h-33.3z"/></svg>
