<svg xmlns="http://www.w3.org/2000/svg" viewBox="0 0 340 160"><path fill="#444" d="M296 62.4c.5 0 .8-.3.8-.6 0-.4-.3-.6-.8-.6h-1v1.3l1-.1zm-1.5-2.2h1.5c.6 0 1 .2 1.3.5.3.2.4.6.4 1 0 .7-.4 1.1-.9 1.4 0 0 .9 1.1.9 1.2 0 .3-.2.5-.5.5-.2 0-.4-.1-.5-.3l-1-1.2h-.8v1c0 .3-.2.5-.5.5s-.5-.2-.5-.5v-3.6c.2-.4.4-.5.6-.5zm5.1 2.3c0-2.1-1.6-3.8-3.8-3.8-2.1 0-3.8 1.7-3.8 3.8 0 2.1 1.6 3.8 3.8 3.8 2.2 0 3.8-1.7 3.8-3.8m-8.4 0c0-2.6 2-4.7 4.6-4.7 2.6 0 4.7 2.1 4.7 4.7 0 2.5-2 4.7-4.7 4.7-2.6 0-4.6-2.1-4.6-4.7M49.8 60.3c-1.2-2.7-4.3-3.9-7.1-2.7-2.8 1.3-3.9 4.4-2.6 7.1l11.9 26c1.9 4.1 3.9 6.2 7.6 6.2 4 0 5.7-2.3 7.6-6.2 0 0 10.4-22.7 10.5-22.9.1-.2.4-1 1.5-1 .9 0 1.7.7 1.7 1.7v22.2c0 3.4 1.9 6.2 5.5 6.2s5.6-2.8 5.6-6.2V72.5c0-3.5 2.5-5.8 5.9-5.8 3.4 0 5.7 2.3 5.7 5.8v18.1c0 3.4 1.9 6.2 5.5 6.2s5.6-2.8 5.6-6.2V72.5c0-3.5 2.5-5.8 5.9-5.8 3.4 0 5.7 2.3 5.7 5.8v18.1c0 3.4 1.9 6.2 5.5 6.2s5.6-2.8 5.6-6.2V70c0-7.6-6.1-12.9-13.4-12.9-7.3 0-11.9 5.1-11.9 5.1-2.4-3.2-5.8-5.1-11.5-5.1-6 0-11.3 5.1-11.3 5.1-2.4-3.2-6.6-5.1-10-5.1-5.3 0-9.5 2.3-12.1 8.2l-7.6 18-9.8-23m173 21.9v-3.6c-2.8-.8-6.5-1.6-11.1-1.6-7 0-11 3.1-11 7.8v.1c0 4.7 4.4 7.5 9.4 7.5 7 0 12.7-4.2 12.7-10.2m-27.7 2.9V85c0-7.9 6.5-12.1 16.1-12.1 4.8 0 8.2.7 11.6 1.6v-1.3c0-6.8-4.2-10.2-11.2-10.2-3.8 0-6 .5-8.7 1.7-.4.1-.7.2-1 .2-1.3 0-2.5-1.1-2.5-2.4 0-1.2.5-1.9 1.5-2.3 3.7-1.6 6.5-2.1 11.3-2.1 5.3 0 9.4 1.4 12.1 4.1 2.5 2.5 3.9 6.2 3.9 11v20.7c0 1.6-1.2 2.8-2.7 2.8-1.6 0-2.7-1.2-2.7-2.6v-3.6c-2.6 3.4-7 6.5-13.6 6.5-7.1-.2-14.1-4.2-14.1-11.9m90.1-9.9c-.6-6.8-4.4-12.7-11.8-12.7-6.4 0-11.3 5.4-12 12.7h23.8zm-11 21.6c-10.1 0-18.4-7.9-18.4-19.4v-.2c0-10.7 7.5-19.4 17.7-19.4 10.9 0 17.1 9 17.1 18.9 0 1.5-1.2 2.6-2.6 2.6h-26.7c.8 8.1 6.4 12.6 13 12.6 4.6 0 7.9-1.8 10.6-4.3.4-.4.9-.6 1.6-.6 1.3 0 2.4 1.1 2.4 2.4 0 .6-.3 1.3-.9 1.8-3.3 3.4-7.5 5.6-13.8 5.6m-39.3-36.1c0-1.5 1.2-2.8 2.8-2.8 1.6 0 2.8 1.2 2.8 2.8v6.5c2.8-6.3 8.9-9.2 13-9.2 1.7 0 2.8 1.2 2.8 2.8 0 1.5-1 2.6-2.5 2.8-7.3.9-13.3 6.3-13.3 17.2v12.8c0 1.5-1.2 2.8-2.8 2.8-1.6 0-2.8-1.2-2.8-2.8V60.7M151.6 94l-11.4-31.8c-.1-.4-.4-1-.4-1.5 0-1.4 1.2-2.7 2.8-2.7 1.5 0 2.4.9 2.8 2.3l9.5 27.4 9.5-27.5c.4-1.3 1.3-2.2 2.8-2.2h.3c1.5 0 2.5.9 2.9 2.2l9.5 27.5 9.6-27.6c.4-1.2 1.2-2.2 2.7-2.2 1.6 0 2.8 1.2 2.8 2.6 0 .5-.2 1.1-.4 1.5l-11.5 32c-.6 1.7-1.7 2.5-3.1 2.5h-.2c-1.5 0-2.6-.9-3.1-2.5l-9.4-27-9.5 27c-.5 1.7-1.6 2.5-3.1 2.5h-.1c-1.3 0-2.4-.9-3-2.5"/></svg>
