<svg xmlns="http://www.w3.org/2000/svg" viewBox="0 0 340 160"><g fill="#444"><path d="M164.248 102.66h-9.375l-8-9.75-8 9.75h-7.5s-.125 0-.125-.125v-.125l11.75-14.375-11.625-14.25v-.125l.125-.125h9.375l7 8.625 7.125-8.625h7.625s.125 0 .125.125v.125l-11 13.125 12.5 15.375c.125.25.125.375 0 .375.125 0 .125 0 0 0M214.198 78.86c-4.125 0-6.875 2.5-7.625 6.75h13.75v-.25c0-3.5-2.5-6.5-6.125-6.5m13.375 11.125c0 .125-.125.125 0 0h-21.25c.5 4.875 3.625 7.75 8.75 7.75 3.125 0 6.5-1.125 11.375-3.625.125 0 .125 0 .125.125v6.5s0 .125-.125.125c-4.5 1.875-8.875 3.125-12.375 3.125-9.125 0-15.625-6.625-15.625-15.75s6.625-15.75 15.625-15.75c8.25 0 13.625 5.625 13.625 13.25.125 1.375-.125 4.25-.125 4.25M270.41 67.697c-2.625 0-4.75-2.125-4.75-4.625a4.748 4.748 0 0 1 4.75-4.75 4.748 4.748 0 0 1 4.75 4.75c-.125 2.625-2.125 4.625-4.75 4.625m-3.875 35l-.125-28.875s0-.125.125-.125h7.625c.125 0 .125 0 .125.125v28.75c0 .125 0 .125-.125.125h-7.625zM178.21 98.335c-1.375 0-2.75-.25-4.375-.625v-18.5c1.875-.625 3.5-.875 5.125-.875 5.25 0 8.875 3.875 8.875 9.625 0 6.375-3.75 10.375-9.625 10.375m2.125-25.75c-2.125 0-4.375.375-6.625 1.125h-7.625c-.125 0-.125 0-.125.125v47.125c2.25-.375 5.125-1.125 7.875-3.125V103.46c1.875.25 3.375.5 4.875.5 10.375 0 17.125-6.25 17.125-15.875 0-9.125-6.375-15.5-15.5-15.5M252.76 96.035c-2.375 1.25-4.5 1.875-6.5 1.875-4.75 0-7.5-3.375-7.5-8.875 0-6.375 3.625-10.625 9.125-10.625 1.5 0 3 .375 4.875 1.25v16.375zm0-37.5v15c-2.25-.625-4.125-.875-6.125-.875-9 0-15.875 6.875-15.875 15.875s6 15.5 14.25 15.5c2.875 0 5.5-.75 8.75-2.375v2.625c2.125-.375 4.5-1.25 6.875-2.875v-46c-2.375.375-5.125 1.125-7.875 3.125M300.697 95.935c-2.25 1.375-4.25 2-6 2-5 0-8-3.375-8-8.875 0-6.375 3.5-10.625 8.875-10.625 1.375 0 3.125.5 5.25 1.625-.125 0-.125 15.875-.125 15.875zm7.75-22.5c0-.125-.125-.375-.375-.375h-6.125c-.125 0-.375.125-.375.375v1h-.125c-2.875-1.25-5.25-1.875-7.625-1.875-8.5 0-15.25 7.125-15.25 16.125 0 9.125 6 15.25 14.875 15.25 2.375 0 5.375-.125 8.25-3.5v3.75c2-.375 4.375-1.25 6.625-2.875l.125-27.875zM110.498 95.485h19.125c-.25 2.125-1 4.625-2.625 7.25h-19.875c-2.375 0-4.5-1.875-4.625-4.25v-38c.25-2.375 2.25-4.25 4.625-4.25h22.5c-.25 2.125-1 4.75-2.625 7.25h-16.375v10.25h16.25c.125 0 .125 0 .125.125v7.125s0 .125-.125.125h-16.25l-.125 14.375zM86.585 103.285c-1.875 0-3-1.5-3-3.25 0-1.875 1.375-3.25 3-3.25 1.75 0 3 1.375 3 3.25s-1.25 3.25-3 3.25m0-6.875c-1.875 0-3.625 1.5-3.625 3.625s1.5 3.625 3.625 3.625c1.875 0 3.625-1.5 3.625-3.625 0-2.25-1.75-3.625-3.625-3.625"/><path d="M85.76 99.71v-1.375h.875c.5 0 1 .125 1 .625 0 .625-.5.75-1 .75h-.875zm2.5-.625c0-.875-.5-1.25-1.625-1.25H85.01v4.375h.75v-1.875h.625l1.125 1.875h.75l-1.25-1.875c.75-.125 1.25-.5 1.25-1.25M314.86 78.56c-1.875 0-3.125-1.5-3.125-3.25 0-1.875 1.375-3.25 3.125-3.25s3 1.375 3 3.25-1.375 3.25-3 3.25m0-7c-1.875 0-3.625 1.5-3.625 3.625s1.5 3.625 3.625 3.625c1.875 0 3.625-1.5 3.625-3.625-.125-2.125-1.75-3.625-3.625-3.625"/><path d="M313.898 74.985V73.61h.875c.5 0 1 .125 1 .625 0 .625-.5.75-1 .75h-.875zm2.625-.625c0-.875-.5-1.25-1.625-1.25h-1.625v4.375h.75V75.61h.625l1.125 1.875h.75l-1.25-1.875c.75-.25 1.25-.5 1.25-1.25M61.935 63.423l-1.375-3.875-11.75-15.75 2.125-.5 20.25 17.5 11.875-3.375c1.375-.375 3-.5 4.25-.375a34.431 34.431 0 0 0-19.625-18c-17.875-6.375-37.625 3-44 20.875-2 5.5-2.375 11.25-1.625 16.75l28.625-9.875c-.125-.125 11.25-3.375 11.25-3.375zM88.56 60.06c-1 .625-2.625 1.625-4.125 2.125l-12 3.375-8 25.625-2.125.625 1.75-19.625-1-4.125-11.25 3.25-29.625 7c2.375 11.375 10.375 21.375 22.125 25.5 17.875 6.375 37.625-3 44-20.875 3-7.625 2.75-15.75.25-22.875"/></g></svg>
