<svg width="104" height="97" viewBox="0 0 104 97" xmlns="http://www.w3.org/2000/svg"><title>Combined Shape</title><path d="M25.336 33.683C11.138 36.753.5 49.383.5 64.5c0 17.413 14.116 31.528 31.528 31.528.829 0 1.25-.308 1.25-.785 0-.477-.421-.777-1.25-.777-16.8 0-29.79-14.773-29.79-29.966 0-14.543 12.206-29.691 29.79-29.691 4.458 0 12.342 2.223 16.888 6.556.21.2.457.437.713.635H38.53a6.49 6.49 0 0 0-6.506 6.5v34.9c-.1 3.7 2.802 6.6 6.406 6.6h40.543c.6 0 1-.4 1-1s-.4-1-1-1H38.43c-2.502 0-4.504-2-4.504-4.5V62.6c.1 0 .2.1.3.1H60.354c.5 2.3 2.503 4 4.905 4 2.403 0 4.405-1.7 4.906-4h25.827v18.4c-3.404.5-6.007 3.4-6.007 6.9 0 3.9 3.104 7 7.008 7A6.96 6.96 0 0 0 104 88c0-3.5-2.603-6.4-6.006-6.9V48.5c0-3.6-2.903-6.5-6.407-6.5H83.879c-.4-2-1.902-3.5-3.904-3.9v-3.3c0-2.7-2.002-4.8-4.505-4.8H54.548c-2.502 0-4.505 2.2-4.505 4.8v5.139c-3.838-3.676-9.418-5.634-13.65-6.468 6.514-2.38 11.164-8.633 11.164-15.971 0-9.389-7.611-17-17-17-9.39 0-17 7.611-17 17 0 7.568 4.944 13.98 11.78 16.183zM68.263 61.7c0 1.6-1.302 3-3.004 3-1.701 0-3.003-1.3-3.003-3s1.302-3 3.003-3c1.702 0 3.004 1.3 3.004 3zM96.993 83c2.803 0 5.005 2.2 5.005 5s-2.202 5-5.005 5-5.006-2.2-5.006-5 2.203-5 5.006-5zm-18.02-43c1.703 0 3.004 1.3 3.004 3s-1.301 3-3.003 3c-1.702 0-3.003-1.3-3.003-3s1.301-3 3.003-3zm-27.028-5.2c0-1.6 1.102-2.8 2.503-2.8H75.37c1.401 0 2.503 1.3 2.503 2.8v3.3c-2.002.4-3.504 1.9-3.904 3.9H51.945v-7.2zM33.927 48.5c0-2.5 2.002-4.5 4.504-4.5H74.07c.5 2.3 2.502 4 4.905 4 2.402 0 4.404-1.7 4.905-4H91.587c2.403 0 4.405 2 4.405 4.5v12.2H70.165c-.501-2.3-2.503-4-4.906-4-2.402 0-4.404 1.7-4.905 4H34.227c-.1 0-.2 0-.3.1V48.5zm-18.37-31c0-8.284 6.715-15 15-15 8.284 0 15 6.716 15 15 0 8.284-6.716 15-15 15-8.285 0-15-6.716-15-15z" fill="#E14329" fill-rule="evenodd"/></svg>