<?xml version="1.0" encoding="UTF-8"?>
<svg width="12px" height="14px" viewBox="0 0 12 14" version="1.1" xmlns="http://www.w3.org/2000/svg" xmlns:xlink="http://www.w3.org/1999/xlink">
    <!-- Generator: Sketch 58 (84663) - https://sketch.com -->
    <title>icn/shield copy 2</title>
    <desc>Created with Sketch.</desc>
    <defs>
        <path d="M2,-5.32907052e-15 C3.1045695,-5.32907052e-15 4,0.8954305 4,2 C4,2.70246339 3.63784609,3.3203412 3.09006097,3.67711073 C3.53605733,5.35841431 5.61486153,6.75720681 8.28552025,6.97154504 C8.63446357,6.38919748 9.27178081,6 10,6 C11.1045695,6 12,6.8954305 12,8 C12,9.1045695 11.1045695,10 10,10 C9.24937407,10 8.59533011,9.58648343 8.25324554,8.97482771 C6.18139973,8.83157107 4.31935898,8.10057971 3.00071228,6.98730076 L3.0010775,10.2681881 C3.59828461,10.6141507 4,11.2601625 4,12 C4,13.1045695 3.1045695,14 2,14 C0.8954305,14 0,13.1045695 0,12 C0,11.2597476 0.40216612,10.6134261 0.999927519,10.2676063 L0.999927519,3.73239368 C0.40216612,3.38657394 0,2.74025244 0,2 C0,0.8954305 0.8954305,-5.32907052e-15 2,-5.32907052e-15 Z M2,11 C1.44771525,11 1,11.4477153 1,12 C1,12.5522847 1.44771525,13 2,13 C2.55228475,13 3,12.5522847 3,12 C3,11.4477153 2.55228475,11 2,11 Z M10,7 C9.44771525,7 9,7.44771525 9,8 C9,8.55228475 9.44771525,9 10,9 C10.5522847,9 11,8.55228475 11,8 C11,7.44771525 10.5522847,7 10,7 Z M2,1 C1.44771525,1 1,1.44771525 1,2 C1,2.55228475 1.44771525,3 2,3 C2.55228475,3 3,2.55228475 3,2 C3,1.44771525 2.55228475,1 2,1 Z" id="path-1"></path>
    </defs>
    <g id="Page-1" stroke="none" stroke-width="1" fill="none" fill-rule="evenodd">
        <g id="1.2.customer.gitlab&gt;manage-purchases-&gt;-cancel-modal--illustration" transform="translate(-583.000000, -489.000000)">
            <g id="Group-2" transform="translate(581.000000, 440.000000)">
                <g id="icn/shield-copy-2" transform="translate(2.000000, 49.000000)">
                    <mask id="mask-2" fill="white">
                        <use xlink:href="#path-1"></use>
                    </mask>
                    <use id="Git-Merge" fill="#4F4F4F" xlink:href="#path-1"></use>
                </g>
            </g>
        </g>
    </g>
</svg>