<?xml version="1.0" encoding="UTF-8"?>
<svg width="14px" height="16px" viewBox="0 0 14 16" version="1.1" xmlns="http://www.w3.org/2000/svg" xmlns:xlink="http://www.w3.org/1999/xlink">
    <!-- Generator: Sketch 58 (84663) - https://sketch.com -->
    <title>icn/shield</title>
    <desc>Created with Sketch.</desc>
    <g id="Page-1" stroke="none" stroke-width="1" fill="none" fill-rule="evenodd">
        <g id="1.2.customer.gitlab&gt;manage-purchases-&gt;-cancel-modal--illustration" transform="translate(-582.000000, -452.000000)" fill="#4F4F4F">
            <g id="Group-2" transform="translate(581.000000, 450.000000)">
                <g id="icn/shield" transform="translate(1.000000, 2.000000)">
                    <path d="M7,0 L14,2 L14,5.68629 C14,7.80802 13.1571,9.84285 11.6569,11.3431 L7,16 L2.34314,11.3431 C0.84285,9.84285 0,7.80802 0,5.68629 L0,2 L7,0 Z M7,2.08003 L2,3.5086 L2,5.68629 C2,7.27759 2.63214,8.80371 3.75736,9.92893 L7,13.1716 L10.2426,9.92893 C11.3679,8.80371 12,7.27759 12,5.68629 L12,3.5086 L7,2.08003 Z M7,4 L7,10.3594 L5.18269,8.55626 C4.42575,7.80523 4,6.78306 4,5.71676 L4,5 L7,4 Z" id="icon"></path>
                </g>
            </g>
        </g>
    </g>
</svg>