<?xml version="1.0" encoding="UTF-8"?>
<svg width="12px" height="12px" viewBox="0 0 12 12" version="1.1" xmlns="http://www.w3.org/2000/svg" xmlns:xlink="http://www.w3.org/1999/xlink">
    <!-- Generator: Sketch 58 (84663) - https://sketch.com -->
    <title>icn/shield copy</title>
    <desc>Created with Sketch.</desc>
    <defs>
        <path d="M3.15619593,2 L2.34489781,4 L9.6548679,4 L8.84356978,2 L3.15619593,2 Z M2.54979409,0 L9.44997161,0 C9.81834531,0 10.1517796,0.23519384 10.2994307,0.599181166 L11.922027,4.59918117 C12.1272772,5.10516089 11.9133495,5.69479121 11.4442062,5.91615733 C11.3270154,5.97145404 11.2004835,6 11.0725679,6 L0.927197851,6 C0.415120618,6 0,5.55228475 0,5 C0,4.86204066 0.026467757,4.72557362 0.0777387389,4.59918117 L1.70033498,0.599181166 C1.84798609,0.23519384 2.18142039,0 2.54979409,0 Z M1,7 L11,7 C11.5522847,7 12,7.44771525 12,8 C12,8.55228475 11.5522847,9 11,9 L1,9 C0.44771525,9 0,8.55228475 0,8 C0,7.44771525 0.44771525,7 1,7 Z M1,10 L11,10 C11.5522847,10 12,10.4477153 12,11 C12,11.5522847 11.5522847,12 11,12 L1,12 C0.44771525,12 0,11.5522847 0,11 C0,10.4477153 0.44771525,10 1,10 Z" id="path-1"></path>
    </defs>
    <g id="Page-1" stroke="none" stroke-width="1" fill="none" fill-rule="evenodd">
        <g id="1.2.customer.gitlab&gt;manage-purchases-&gt;-cancel-modal--illustration" transform="translate(-583.000000, -477.000000)">
            <g id="Group-2" transform="translate(581.000000, 450.000000)">
                <g id="icn/shield-copy" transform="translate(2.000000, 27.000000)">
                    <mask id="mask-2" fill="white">
                        <use xlink:href="#path-1"></use>
                    </mask>
                    <use id="Epic" fill="#4F4F4F" xlink:href="#path-1"></use>
                </g>
            </g>
        </g>
    </g>
</svg>