<svg xmlns="http://www.w3.org/2000/svg" width="96" height="108" viewBox="0 0 96 108"><g fill="none" fill-rule="evenodd"><path fill="#E8E8E8" d="M66 17h10a4 4 0 0 1 4 4v70a4 4 0 0 1-4 4H66a4 4 0 0 1-4-4V21a4 4 0 0 1 4-4z"/><path fill="#EFEDF8" d="M68 15h10a4 4 0 0 1 4 4v70a4 4 0 0 1-4 4H68a4 4 0 0 1-4-4V19a4 4 0 0 1 4-4z"/><path fill="#C3B8E3" d="M77 27h5v2h-5a1 1 0 0 1 0-2zm0 10h5v2h-5a1 1 0 0 1 0-2zm0 10h5v2h-5a1 1 0 0 1 0-2zm0 10h5v2h-5a1 1 0 0 1 0-2zm0 10h5v2h-5a1 1 0 0 1 0-2zm0 10h5v2h-5a1 1 0 0 1 0-2z"/><path fill="#E8E8E8" d="M10.203 26.875l78.086 45.083a3 3 0 0 1-.723 5.496L25.98 93.956a3 3 0 0 1-3.674-2.122L5.805 30.25a3 3 0 0 1 4.398-3.374zm18.918 29.701a1 1 0 0 0-1.466 1.125l4.81 17.953a1 1 0 0 0 1.225.707l17.952-4.81a1 1 0 0 0 .242-1.832L29.12 56.576z"/><path fill="#FC6D26" d="M12.203 24.875l78.086 45.083a3 3 0 0 1-.723 5.496L27.98 91.956a3 3 0 0 1-3.674-2.122L7.805 28.25a3 3 0 0 1 4.398-3.374zm18.918 29.701a1 1 0 0 0-1.466 1.125l4.81 17.953a1 1 0 0 0 1.225.707l17.952-4.81a1 1 0 0 0 .242-1.832L31.12 54.576z"/><path fill="#000" fill-opacity=".15" d="M17.101 43.625a1 1 0 0 1-.707 1.224l-3.863 1.036-.518-1.932 3.864-1.035a1 1 0 0 1 1.224.707zm2.33 8.693a1 1 0 0 1-.707 1.225l-3.864 1.035-.518-1.932 3.864-1.035a1 1 0 0 1 1.225.707zm2.33 8.693a1 1 0 0 1-.708 1.225l-3.864 1.035-.517-1.932 3.863-1.035a1 1 0 0 1 1.225.707zm2.328 8.694a1 1 0 0 1-.707 1.224l-3.863 1.036L19 70.033l3.864-1.035a1 1 0 0 1 1.224.707zm2.33 8.693a1 1 0 0 1-.707 1.225l-3.864 1.035-.518-1.932 3.864-1.035a1 1 0 0 1 1.225.707zm12.825 5.363a1 1 0 0 1 1.225.707l1.035 3.864-1.932.518-1.035-3.864a1 1 0 0 1 .707-1.225zm8.693-2.33a1 1 0 0 1 1.225.708l1.035 3.864-1.932.517-1.035-3.863a1 1 0 0 1 .707-1.225zm8.694-2.328a1 1 0 0 1 1.224.707l1.036 3.863-1.932.518-1.035-3.864a1 1 0 0 1 .707-1.224zm8.693-2.33a1 1 0 0 1 1.225.707l1.035 3.864-1.932.518-1.035-3.864a1 1 0 0 1 .707-1.225zm8.693-2.33a1 1 0 0 1 1.225.708l1.035 3.864-1.932.517-1.035-3.863a1 1 0 0 1 .707-1.225z"/></g></svg>