<svg xmlns="http://www.w3.org/2000/svg" width="96" height="108" viewBox="0 0 96 108"><g fill="none" fill-rule="evenodd" transform="translate(-14 -1)"><circle cx="60" cy="57" r="11" fill="#EDEDED"/><path fill="#E8E8E8" fill-rule="nonzero" d="M33.153 41.5l4.501 2.598a1.5 1.5 0 0 1-.085 2.644l-14.863 7.349a1.5 1.5 0 0 1-2.162-1.248l-1.067-16.546a1.5 1.5 0 0 1 2.247-1.396l4.5 2.599C36.995 18.846 60.847 12.455 79.5 23.225c10.37 5.987 17.257 16.241 19.048 27.849a4 4 0 0 1-7.906 1.22c-1.425-9.236-6.894-17.379-15.142-22.141-14.827-8.56-33.786-3.48-42.347 11.347zm51.472 34.336l-4.28-2.47a1.5 1.5 0 0 1 .086-2.644l14.863-7.35a1.5 1.5 0 0 1 2.162 1.249l1.067 16.546a1.5 1.5 0 0 1-2.247 1.395l-4.677-2.7C80.035 95.888 57.984 100.87 40.5 90.776c-9.893-5.713-16.628-15.312-18.778-26.307a4 4 0 1 1 7.852-1.535c1.71 8.748 7.057 16.37 14.927 20.914 13.653 7.882 30.81 4.199 40.125-8.011z"/><g transform="translate(3 1)"><circle cx="59" cy="54" r="11" fill="#FC6D26"/><path fill="#E1DBF1" fill-rule="nonzero" d="M20.721 61.468c2.15 10.995 8.885 20.595 18.779 26.307 18.653 10.77 42.505 4.378 53.275-14.275a4 4 0 1 0-6.928-4c-8.56 14.827-27.52 19.907-42.347 11.347-7.87-4.544-13.217-12.166-14.928-20.913a4 4 0 1 0-7.85 1.534zm76.827-13.394c-1.79-11.608-8.677-21.861-19.048-27.85C59.847 9.456 35.994 15.848 25.225 34.5a4 4 0 1 0 6.928 4c8.56-14.827 27.52-19.907 42.347-11.347 8.248 4.762 13.717 12.905 15.142 22.141a4 4 0 1 0 7.906-1.22z"/><path fill="#6B4FBB" d="M21.706 51.091l14.863-7.349a1.5 1.5 0 0 0 .085-2.643L20.724 31.9a1.5 1.5 0 0 0-2.247 1.396l1.067 16.546a1.5 1.5 0 0 0 2.162 1.248zm74.75 10.529l1.067 16.547a1.5 1.5 0 0 1-2.247 1.396l-15.93-9.198a1.5 1.5 0 0 1 .085-2.643l14.863-7.35a1.5 1.5 0 0 1 2.162 1.249z"/></g></g></svg>