<svg xmlns="http://www.w3.org/2000/svg" width="96" height="108" viewBox="0 0 96 108"><g fill="none" fill-rule="evenodd"><path fill="#E8E8E8" fill-rule="nonzero" d="M68.9 81.879A5.002 5.002 0 0 1 70 72a5 5 0 0 1 3.712 8.35c1.594 8.467.606 14.558-3.608 16.99-5.752 3.321-14.994-2.372-24.422-13.353-8.89 9.835-17.453 14.759-22.894 11.618-4.96-2.865-5.45-10.801-2.519-21.715a2.5 2.5 0 0 1 4.829 1.297c-2.38 8.862-2.013 14.815.19 16.087 1.957 1.13 6.508-.864 12.218-6.136a71.63 71.63 0 0 0 4.958-5.095 127.35 127.35 0 0 1-5.596-7.817C14.973 70.884-1.5 64.722-1.5 56c0-6.526 9.222-11.618 23.036-14.331-4.387-13.077-4.51-23.38 1.068-26.6 6.035-3.485 15.464 2.585 25.494 14.667a114.92 114.92 0 0 1 4.09 5.239 2.5 2.5 0 1 1-4.027 2.964 109.595 109.595 0 0 0-3.91-5.01C35.753 22.695 28.018 17.716 25.103 19.4c-1.957 1.13-2.505 6.067-.794 13.648.549 2.433 1.305 5.04 2.248 7.77C32.49 39.959 39.068 39.5 46 39.5c7.033 0 13.703.473 19.7 1.355 1.244-3.376 2.216-6.589 2.883-9.544 1.71-7.58 1.162-12.519-.795-13.649-2.036-1.175-6.837 1.024-12.799 6.681a2.5 2.5 0 1 1-3.442-3.626c7.452-7.072 14.05-10.094 18.741-7.385 5.83 3.366 5.433 14.47.447 28.39C84.399 44.448 93.5 49.517 93.5 56c0 8.76-16.617 14.938-38.656 16.243a120.71 120.71 0 0 1-5.853 7.874c2.158 2.556 4.308 4.83 6.396 6.757 5.71 5.272 10.26 7.266 12.217 6.136 1.762-1.017 2.35-5.029 1.297-11.131zm-25.792-9.406c.882 1.25 1.77 2.46 2.662 3.628a113.61 113.61 0 0 0 2.762-3.622 155.198 155.198 0 0 1-5.424-.006zM28.37 45.637c2.119 5.24 4.833 10.788 8.026 16.317a142.09 142.09 0 0 0 3.282 5.406 142.09 142.09 0 0 0 12.404.01 140.634 140.634 0 0 0 4.417-7.152c2.837-4.914 5.297-9.844 7.297-14.558C58.29 44.906 52.252 44.5 46 44.5c-6.19 0-12.172.398-17.63 1.137zm-5.085.817c-3.03.567-5.838 1.249-8.361 2.034C7.503 50.796 3.5 53.74 3.5 56s4.002 5.204 11.423 7.512c5.186 1.614 11.58 2.792 18.61 3.433-.493-.819-.983-1.65-1.468-2.49-3.571-6.186-6.533-12.29-8.781-18.001zm45.61.033c-2.148 5.195-4.862 10.68-8.066 16.231a153.31 153.31 0 0 1-2.542 4.244c7.102-.638 13.56-1.822 18.791-3.45C84.497 61.204 88.5 58.26 88.5 56s-4.002-5.204-11.423-7.512c-2.473-.77-5.222-1.44-8.183-2z"/><g transform="translate(0 9)"><path fill="#E1DBF1" fill-rule="nonzero" d="M48 62C21.432 62 0 55.332 0 45s21.432-17 48-17 48 6.668 48 17-21.432 17-48 17zm0-6c11.812 0 22.854-1.453 30.929-3.965C86.156 49.786 90 46.959 90 45c0-1.96-3.844-4.786-11.071-7.035C70.854 35.453 59.812 34 48 34c-11.812 0-22.854 1.453-30.929 3.965C9.844 40.214 6 43.041 6 45c0 1.96 3.844 4.786 11.071 7.035C25.146 54.547 36.188 56 48 56z"/><path fill="#E1DBF1" fill-rule="nonzero" d="M21.786 62.76c-2.987 11.12-2.485 19.254 2.752 22.278 8.948 5.166 25.439-10.061 38.723-33.07C76.545 28.96 81.486 7.065 72.538 1.9c-4.957-2.862-11.734.242-19.335 7.455a3 3 0 1 0 4.13 4.352c5.813-5.516 10.435-7.633 12.205-6.61 1.697.979 2.224 5.721.557 13.105-1.862 8.249-6.124 18.538-12.03 28.767-5.906 10.23-12.686 19.066-18.899 24.803-5.56 5.135-9.93 7.05-11.628 6.07-1.927-1.113-2.283-6.867.043-15.524a3 3 0 1 0-5.795-1.557z"/><path fill="#C3B8E3" fill-rule="nonzero" d="M54.59 23.678a115.088 115.088 0 0 0-4.108-5.261C40.3 6.15 30.7-.029 24.354 3.635c-8.948 5.166-4.006 27.061 9.278 50.07C46.915 76.712 63.406 91.94 72.354 86.773c5.226-3.017 5.736-11.122 2.772-22.203a3 3 0 1 0-5.796 1.55c2.306 8.622 1.945 14.347.024 15.456-1.697.98-6.067-.935-11.628-6.07-6.213-5.737-12.992-14.573-18.898-24.803-5.906-10.23-10.169-20.518-12.03-28.767-1.667-7.384-1.14-12.126.556-13.106 2.603-1.503 10.168 3.367 18.512 13.418 1.3 1.567 2.602 3.234 3.893 4.987a3 3 0 1 0 4.831-3.558z"/><circle cx="48" cy="45" r="6" fill="#FC6D26"/><circle cx="72" cy="66" r="5" fill="#6B4FBB"/></g></g></svg>