<svg xmlns="http://www.w3.org/2000/svg" width="96" height="108" viewBox="0 0 96 108"><g fill="none" fill-rule="evenodd"><path fill="#E8E8E8" d="M90.476 59l-1.204 25.285A6 6 0 0 1 83.28 90H10.72a6 6 0 0 1-5.993-5.715L3.524 59h-.881a1.5 1.5 0 0 1-1.494-1.636l1.355-14.907A6 6 0 0 1 8.479 37h18.323l1.365-6.265c.602-2.763 3.07-4.735 5.925-4.735h26.815c2.856 0 5.324 1.972 5.926 4.735L68.198 37H85.52a6 6 0 0 1 5.975 5.457l1.355 14.907A1.5 1.5 0 0 1 91.357 59h-.88zm-59.04-22h31.127l-1.137-5.21a1.01 1.01 0 0 0-.99-.79H33.564c-.477 0-.89.329-.99.79L31.437 37z"/><path fill="#EFEDF8" d="M5 46h88l-1.773 37.238A5 5 0 0 1 86.232 88H11.768a5 5 0 0 1-4.995-4.762L5 46z"/><path fill="#6B4FBB" fill-rule="nonzero" d="M69.77 35l-1.352-6.265A6 6 0 0 0 62.553 24H36.01a6 6 0 0 0-5.865 4.735L28.794 35h5.115l1.123-5.21a1 1 0 0 1 .978-.79h26.543a1 1 0 0 1 .978.79L64.654 35h5.115z"/><path fill="#E1DBF1" d="M10.48 35h77.04a6 6 0 0 1 5.976 5.457l1.355 14.907A1.5 1.5 0 0 1 93.357 57H4.643a1.5 1.5 0 0 1-1.494-1.636l1.355-14.907A6 6 0 0 1 10.479 35z"/><path fill="#FC6D26" d="M41 51h16a2 2 0 0 1 2 2v7a9 9 0 0 1-9 9h-2a9 9 0 0 1-9-9v-7a2 2 0 0 1 2-2z"/><path fill="#000" d="M48 60.732a2 2 0 1 1 2 0V62a1 1 0 0 1-2 0v-1.268z" opacity=".4"/></g></svg>