<svg xmlns="http://www.w3.org/2000/svg" width="96" height="108" viewBox="0 0 96 108"><g fill="none" fill-rule="evenodd" transform="translate(3 11)"><circle cx="43" cy="45" r="43" fill="#E8E8E8"/><circle cx="45" cy="43" r="43" fill="#EFEDF8"/><path fill="#E1DBF1" fill-rule="nonzero" d="M45 86C21.252 86 2 66.748 2 43S21.252 0 45 0s43 19.252 43 43-19.252 43-43 43zm0-8c19.33 0 35-15.67 35-35S64.33 8 45 8 10 23.67 10 43s15.67 35 35 35z"/><path fill="#6B4FBB" d="M27 43a4 4 0 1 1 0-8 4 4 0 0 1 0 8zm36 0a4 4 0 1 1 0-8 4 4 0 0 1 0 8z"/><path fill="#C3B8E3" d="M30 52c0 8.284 6.716 15 15 15 8.284 0 15-6.716 15-15H30z"/></g></svg>