<svg xmlns="http://www.w3.org/2000/svg" width="96" height="108" viewBox="0 0 96 108"><g fill="none" fill-rule="evenodd" transform="translate(4 11)"><rect width="86" height="86" y="2" fill="#E8E8E8" rx="10"/><rect width="86" height="86" x="2" fill="#EFEDF8" rx="10"/><path fill="#E1DBF1" fill-rule="nonzero" d="M12 0h66c5.523 0 10 4.477 10 10v66c0 5.523-4.477 10-10 10H12C6.477 86 2 81.523 2 76V10C2 4.477 6.477 0 12 0zm0 8a2 2 0 0 0-2 2v66a2 2 0 0 0 2 2h66a2 2 0 0 0 2-2V10a2 2 0 0 0-2-2H12z"/><path fill="#6B4FBB" d="M43 64h5a2 2 0 0 0 2-2V32h9a2 2 0 0 0 2-2v-3a2 2 0 0 0-2-2H31a2 2 0 0 0-2 2v3a2 2 0 0 0 2 2h10v30a2 2 0 0 0 2 2z"/></g></svg>