<svg xmlns="http://www.w3.org/2000/svg" width="16" height="16" viewBox="0 0 16 16"><path fill-rule="evenodd" d="M3.543 10.364a5.002 5.002 0 0 0 8.778.31 1 1 0 0 1 1.722 1.018 7.002 7.002 0 0 1-12.46-.803l-.674.18a.2.2 0 0 1-.241-.257l.94-2.777a.2.2 0 0 1 .321-.086l2.202 1.935a.2.2 0 0 1-.08.343l-.508.137zm8.948-4.469a5.002 5.002 0 0 0-8.835-.211 1 1 0 1 1-1.745-.979 7.002 7.002 0 0 1 12.54.665l.674-.18a.2.2 0 0 1 .24.257l-.939 2.777a.2.2 0 0 1-.321.086l-2.203-1.935a.2.2 0 0 1 .08-.344l.51-.136z"/></svg>