<svg xmlns="http://www.w3.org/2000/svg" width="16" height="16" viewBox="0 0 16 16"><path d="M5.773 6.863a.506.506 0 0 1-.043-.032l-.389-.314a.5.5 0 1 1 .63-.778l.388.315.034.03a2.49 2.49 0 0 1 1.11-.534.506.506 0 0 1-.003-.05V5a.5.5 0 0 1 1 0v.5c0 .017 0 .033-.002.05a2.49 2.49 0 0 1 1.109.535c.01-.01.022-.021.034-.03l.389-.316a.5.5 0 1 1 .629.778l-.389.314a.506.506 0 0 1-.043.032 2.49 2.49 0 0 1 .272 1.196.506.506 0 0 1 .05.01l.488.112a.5.5 0 1 1-.225.974l-.487-.112a.506.506 0 0 1-.046-.013 2.51 2.51 0 0 1-.769.962.506.506 0 0 1 .023.042l.22.45a.5.5 0 0 1-.9.438l-.219-.45a.506.506 0 0 1-.02-.048 2.505 2.505 0 0 1-1.228 0 .506.506 0 0 1-.02.048l-.22.45a.5.5 0 1 1-.898-.439l.219-.45a.506.506 0 0 1 .023-.04 2.51 2.51 0 0 1-.769-.963.506.506 0 0 1-.046.013l-.487.112a.5.5 0 1 1-.225-.974l.487-.112a.506.506 0 0 1 .05-.01V8c0-.41.098-.796.273-1.137zM8 15A7 7 0 1 1 8 1a7 7 0 0 1 0 14zm0-1A6 6 0 1 0 8 2a6 6 0 0 0 0 12zm0-5a1 1 0 1 0 0-2 1 1 0 0 0 0 2z"/></svg>