<?xml version="1.0" encoding="utf-8"?>
<!-- Generator: Adobe Illustrator 20.0.0, SVG Export Plug-In . SVG Version: 6.00 Build 0)  -->
<!DOCTYPE svg PUBLIC "-//W3C//DTD SVG 1.1//EN" "http://www.w3.org/Graphics/SVG/1.1/DTD/svg11.dtd" [
	<!ENTITY st0 "fill:none;">
]>
<svg version="1.1" id="Layer_1" xmlns="http://www.w3.org/2000/svg" xmlns:xlink="http://www.w3.org/1999/xlink" x="0px" y="0px"
	 viewBox="0 0 170 68" style="enable-background:new 0 0 170 68;" xml:space="preserve">
<g>
	<g>
		<polygon points="0,29.022 0,32.999 3.857,32.999 3.857,57.733 0,57.733 0,61.725 13.567,61.725 13.567,57.733 9.646,57.733 
			9.646,32.999 13.567,32.999 13.567,29.022 		"/>
		<path d="M21.879,39.217l-1.187,1.024v-3.227h-8.668v3.813h2.924v20.845h5.755c0-0.672-0.012-17.487-0.012-17.487l0.26-0.211
			c1.511-1.213,3.033-1.832,4.52-1.832c1.002,0,1.775,0.379,2.234,1.094c0.413,0.643,0.613,1.672,0.613,3.242v15.194h5.755
			c0-0.666,0.01-15.828,0.01-15.828c0-6.218-1.991-9.242-6.082-9.242C25.958,36.601,23.901,37.483,21.879,39.217"/>
		<path d="M39.113,30.017v0.002c-1.247,1.499-1.881,3.416-1.881,5.683v1.115h-2.597v4.016h2.597v20.892h5.311V40.833h5.47v-4.016
			h-5.43v-1.512c0-2.445,0.848-3.288,2.133-3.802c1.167-0.47,3.086-0.376,4.734,0.586v-3.285c-1.533-0.727-3.508-1.002-4.782-1.002
			C42.303,27.802,40.28,28.61,39.113,30.017"/>
		<path d="M50.291,39.809L50.291,39.809c-2.335,2.279-3.512,5.476-3.512,9.49c0,4.018,1.177,7.21,3.512,9.49
			c2.314,2.259,5.19,3.408,8.547,3.408c3.423,0,6.311-1.16,8.596-3.445c2.299-2.306,3.467-5.483,3.467-9.452
			c0-4.014-1.178-7.211-3.499-9.49c-2.311-2.262-5.19-3.411-8.564-3.411C55.481,36.399,52.609,37.551,50.291,39.809 M52.953,49.502
			c0-5.863,1.972-8.84,5.861-8.84c1.848,0,3.335,0.798,4.403,2.376c1.003,1.472,1.515,3.52,1.515,6.08
			c0,2.901-0.528,5.088-1.567,6.498c-1.102,1.493-2.567,2.248-4.351,2.248c-1.999,0-3.511-0.851-4.492-2.531
			C53.41,53.798,52.953,51.832,52.953,49.502"/>
		<path d="M103.53,39.809L103.53,39.809c-2.331,2.279-3.515,5.476-3.515,9.49c0,4.018,1.183,7.21,3.515,9.49
			c2.307,2.259,5.189,3.408,8.546,3.408c3.422,0,6.315-1.16,8.595-3.445c2.303-2.306,3.47-5.483,3.47-9.452
			c0-4.014-1.18-7.211-3.507-9.49c-2.307-2.262-5.184-3.411-8.558-3.411C108.719,36.399,105.837,37.551,103.53,39.809
			 M106.192,49.502c0-5.863,1.971-8.84,5.857-8.84c1.851,0,3.339,0.798,4.406,2.376c1,1.472,1.505,3.52,1.505,6.08
			c0,2.901-0.522,5.088-1.565,6.498c-1.098,1.493-2.562,2.248-4.346,2.248c-1.995,0-3.509-0.851-4.494-2.531
			C106.652,53.798,106.192,51.832,106.192,49.502"/>
		<path d="M132.21,43.281v-6.266h-7.998v3.813h2.32c0,0-0.016,20.167-0.016,20.844h5.781v-8.738c0-2.295,0.132-4.207,0.855-5.839
			c0.76-1.717,1.771-2.864,2.994-3.392c0.984-0.421,2.579-0.659,4.063-0.717v-6.37C137.614,36.615,133.601,39.326,132.21,43.281"/>
		<polygon points="139.743,28.001 139.743,32.135 141.836,32.135 141.836,61.725 147.687,61.725 147.687,28.001 		"/>
		<path d="M161.864,28.001v4.134h2.26v6.637c-1.524-1.56-3.327-2.373-5.327-2.373c-2.711,0-5.03,1.152-6.899,3.41
			c-1.881,2.28-2.832,5.477-2.832,9.491c0,4.018,0.951,7.21,2.832,9.49c1.869,2.259,4.188,3.408,6.899,3.408
			c2.011,0,4.054-0.96,5.327-2.36v1.832H170V28.001H161.864z M159.718,57.864c-1.76,0-3.089-0.851-3.956-2.531
			c-0.802-1.536-1.207-3.501-1.207-5.831c0-5.863,1.735-8.84,5.163-8.84c1.63,0,2.938,0.798,3.877,2.376
			c0.881,1.472,1.332,3.52,1.332,6.08c0,2.901-0.468,5.088-1.384,6.498C162.579,57.109,161.288,57.864,159.718,57.864"/>
		<path d="M94.457,28.889v4.384h2.635l-4.253,19.22l-4.515-23.572h-0.019v-0.032h-7.642v4.384h3.007l0.021,0.112L79.6,52.536
			l-4.617-19.263h2.823v-4.384h-10.98v4.384h2.308c0,0,7.245,27.822,7.383,28.283h4.735l4.386-19.345l4.278,19.345h5.102
			c0.144-0.469,6.441-28.283,6.441-28.283h2.427v-4.384H94.457z"/>
		<rect y="27.803" style="&st0;" width="170" height="34.395"/>
	</g>
	<polygon points="141.849,64.794 144.62,64.794 144.62,65.171 142.283,65.171 142.283,66.174 144.532,66.174 144.532,66.545 
		142.283,66.545 142.283,67.916 141.849,67.916 	"/>
	<path d="M145.911,65.171v1.132h1.542c0.243,0,0.553-0.005,0.73-0.239c0.079-0.102,0.106-0.221,0.106-0.332
		c0-0.119-0.031-0.238-0.093-0.331c-0.142-0.226-0.367-0.226-0.571-0.23H145.911z M145.474,64.794h2.122
		c0.273,0.005,0.605,0.009,0.875,0.252c0.101,0.088,0.278,0.291,0.278,0.667c0,0.747-0.632,0.849-0.839,0.884l1.149,1.318h-0.579
		l-1.057-1.247h-1.507v1.247h-0.442L145.474,64.794L145.474,64.794z"/>
	<path d="M150.022,66.368c0,0.243,0.062,0.558,0.274,0.796c0.292,0.34,0.747,0.451,1.198,0.451c1.153,0,1.432-0.73,1.432-1.26
		c0-0.823-0.659-1.277-1.512-1.256C150.764,65.117,150.022,65.444,150.022,66.368 M153.372,66.399c0,1.066-0.875,1.601-1.878,1.601
		c-0.455,0-0.916-0.084-1.282-0.345c-0.304-0.212-0.631-0.601-0.631-1.26c0-1.154,0.95-1.675,1.883-1.675
		C152.554,64.723,153.372,65.365,153.372,66.399"/>
	<path d="M154.283,64.794h0.61l0.972,2.034c0.155,0.336,0.181,0.403,0.301,0.699c0.106-0.296,0.142-0.375,0.283-0.685l0.985-2.047
		h0.602v3.122h-0.416v-1.795c0-0.597,0.009-0.699,0.04-0.955c-0.089,0.243-0.115,0.296-0.234,0.548l-1.065,2.202h-0.406
		l-0.977-2.025c-0.172-0.354-0.216-0.451-0.314-0.712c0.026,0.238,0.026,0.301,0.036,0.791v1.946h-0.416L154.283,64.794
		L154.283,64.794z"/>
	<rect x="160.789" y="64.794" width="0.455" height="3.121"/>
	<path d="M162.849,65.161v2.379h0.911c0.393,0,0.879-0.013,1.211-0.438c0.177-0.23,0.243-0.517,0.243-0.783
		c0-0.42-0.164-0.703-0.327-0.862c-0.296-0.291-0.645-0.291-0.928-0.296H162.849z M162.403,64.794h1.551
		c0.358,0,0.778,0.005,1.194,0.345c0.252,0.207,0.517,0.592,0.517,1.193c0,0.575-0.256,0.951-0.438,1.136
		c-0.438,0.434-1.047,0.447-1.574,0.447h-1.25L162.403,64.794L162.403,64.794z"/>
	<path d="M169.572,67.492c-0.058,0.053-0.106,0.102-0.173,0.154c-0.225,0.173-0.658,0.345-1.188,0.345
		c-1.078,0-1.786-0.747-1.786-1.64c0-0.438,0.181-0.76,0.269-0.893c0.292-0.424,0.867-0.738,1.591-0.738
		c0.72,0,1.176,0.296,1.352,0.446c0.172,0.146,0.239,0.27,0.305,0.38l-0.438,0.132c-0.058-0.084-0.102-0.15-0.199-0.234
		c-0.265-0.231-0.628-0.341-0.986-0.341c-0.768,0-1.423,0.434-1.423,1.221c0,0.323,0.12,0.583,0.213,0.725
		c0.34,0.526,0.994,0.571,1.197,0.571c0.297,0,0.734-0.093,1.03-0.412c0.195-0.212,0.221-0.385,0.248-0.565h-1.374v-0.372h1.746
		v1.649h-0.385L169.572,67.492L169.572,67.492z"/>
</g>
</svg>
