<svg xmlns="http://www.w3.org/2000/svg" width="16" height="16" viewBox="0 0 16 16">
  <path fill="#000000" d="M8,10.5 C9.38071187,10.5 10.5,9.38071187 10.5,8 C10.5,6.61928813 9.38071187,5.5 8,5.5 C6.61928813,5.5 5.5,6.61928813 5.5,8 C5.5,9.38071187 6.61928813,10.5 8,10.5 Z M4.12601749,7 C4.57006028,5.27477279 6.13616057,4 8,4 C9.86383943,4 11.4299397,5.27477279 11.8739825,7 L15.2406076,7 C15.6600085,7 16,7.33289862 16,7.75 C16,8.16421356 15.671936,8.5 15.2406076,8.5 L11.9690531,8.5 C11.7230041,10.4731558 10.0398088,12 8,12 C5.96019117,12 4.27699592,10.4731558 4.03094688,8.5 L0.759392381,8.5 C0.33999155,8.5 0,8.16710138 0,7.75 C0,7.33578644 0.328063965,7 0.759392381,7 L4.12601749,7 Z"/>
</svg>
