<svg xmlns="http://www.w3.org/2000/svg" width="16" height="16" viewBox="0 0 16 16">
  <path fill="#000000" d="M2,3 C2.55228475,3 3,2.55228475 3,2 C3,1.44771525 2.55228475,1 2,1 C1.44771525,1 1,1.44771525 1,2 C1,2.55228475 1.44771525,3 2,3 Z M2.76055177,3.85031423 C2.91492382,6.40648835 4.74727583,8.54214411 7.21084531,9.10519551 C7.53923492,8.44986083 8.21708215,8 9,8 C10.1045695,8 11,8.8954305 11,10 C11,11.1045695 10.1045695,12 9,12 C8.10966409,12 7.35520855,11.418227 7.09604419,10.6140918 C5.17981985,10.2384804 3.54850358,9.11441038 2.5,7.57012447 L2.5,12.0630087 C3.36261361,12.2850301 4,13.0680803 4,14 C4,15.1045695 3.1045695,16 2,16 C0.8954305,16 0,15.1045695 0,14 C0,13.2597176 0.40219863,12.6133738 1,12.2675644 L1,3.73243561 C0.40219863,3.38662619 0,2.74028236 0,2 C0,0.8954305 0.8954305,0 2,0 C3.1045695,0 4,0.8954305 4,2 C4,2.83531089 3.48791498,3.55101791 2.76055177,3.85031423 Z M9,11 C9.55228475,11 10,10.5522847 10,10 C10,9.44771525 9.55228475,9 9,9 C8.44771525,9 8,9.44771525 8,10 C8,10.5522847 8.44771525,11 9,11 Z M2,15 C2.55228475,15 3,14.5522847 3,14 C3,13.4477153 2.55228475,13 2,13 C1.44771525,13 1,13.4477153 1,14 C1,14.5522847 1.44771525,15 2,15 Z" transform="translate(3)"/>
</svg>
