<svg xmlns="http://www.w3.org/2000/svg" width="16" height="16" viewBox="0 0 16 16"><path fill-rule="evenodd" d="M2.734 13.693V2.088a1 1 0 0 1 1-1h3.765c.792 0 1.499.075 2.122.224.623.15 1.15.378 1.584.687.432.308.763.696.99 1.163.227.467.341 1.019.341 1.654 0 .312-.039.61-.117.897a2.902 2.902 0 0 1-.958 1.481 3.1 3.1 0 0 1-.869.5c.4.1.74.251 1.024.454.283.202.517.437.7.705.184.268.318.56.402.874.084.314.126.637.126.967 0 1.32-.425 2.317-1.275 2.99-.85.673-2.06 1.01-3.63 1.01H3.734a1 1 0 0 1-1-1zM5.537 8.77v3.672h2.402c.36 0 .672-.045.934-.135.262-.09.48-.215.654-.374.175-.159.304-.346.388-.56a1.92 1.92 0 0 0 .126-.706c0-.293-.037-.556-.112-.79a1.514 1.514 0 0 0-.35-.598 1.53 1.53 0 0 0-.622-.378 2.845 2.845 0 0 0-.916-.131H5.537zm0-1.981h2.075c.716-.012 1.249-.164 1.597-.453.35-.29.524-.703.524-1.238 0-.617-.18-1.061-.538-1.332-.358-.271-.923-.407-1.696-.407H5.537v3.43z"/></svg>