<svg xmlns="http://www.w3.org/2000/svg" width="16" height="16" viewBox="0 0 16 16"><path fill-rule="evenodd" d="M6 2h8a1 1 0 0 1 0 2H6a1 1 0 1 1 0-2zm0 5h8a1 1 0 0 1 0 2H6a1 1 0 1 1 0-2zm0 5h8a1 1 0 0 1 0 2H6a1 1 0 0 1 0-2zM2.104 4v-.552h.544V2.136h-.48v-.424c.288-.056.472-.128.664-.248h.504v1.984h.456V4H2.104zm-.12 5v-.392c.6-.552 1.064-.976 1.064-1.32 0-.228-.128-.336-.312-.336-.168 0-.296.12-.416.24l-.368-.368c.264-.28.504-.408.88-.408.512 0 .872.328.872.832 0 .408-.384.856-.728 1.208.128-.016.312-.032.424-.032h.424V9h-1.84zm.84 5.048c-.412 0-.712-.136-.904-.36l.312-.432c.156.144.34.24.52.24.224 0 .368-.08.368-.24 0-.192-.1-.304-.632-.304v-.48c.424 0 .552-.112.552-.288 0-.152-.092-.232-.264-.232-.168 0-.288.072-.448.208l-.344-.416c.248-.208.512-.328.824-.328.56 0 .92.256.92.716 0 .244-.136.428-.408.548v.016c.288.088.488.288.488.608 0 .48-.456.744-.984.744z"/></svg>