<svg xmlns="http://www.w3.org/2000/svg" viewBox="0 0 30 30"><path fill="#b5a7dd" fill-rule="evenodd" d="m7 9.744v10.512c-1.748.618-3 2.285-3 4.244 0 2.485 2.01 4.5 4.5 4.5 2.485 0 4.5-2.01 4.5-4.5 0-1.959-1.252-3.626-3-4.244v-5.096c1.728 2.17 4.225 3.701 7.078 4.181.394 2.084 2.224 3.66 4.422 3.66 2.485 0 4.5-2.01 4.5-4.5 0-2.485-2.01-4.5-4.5-4.5-1.716 0-3.208.961-3.967 2.374-3.519-.612-6.295-3.388-6.907-6.907 1.413-.759 2.374-2.251 2.374-3.967 0-2.485-2.01-4.5-4.5-4.5-2.485 0-4.5 2.01-4.5 4.5 0 1.959 1.252 3.626 3 4.244m1.5 17.256c-1.381 0-2.5-1.119-2.5-2.5 0-1.381 1.119-2.5 2.5-2.5 1.381 0 2.5 1.119 2.5 2.5 0 1.381-1.119 2.5-2.5 2.5m13-6c-1.381 0-2.5-1.119-2.5-2.5 0-1.381 1.119-2.5 2.5-2.5 1.381 0 2.5 1.119 2.5 2.5 0 1.381-1.119 2.5-2.5 2.5m-13-13c-1.381 0-2.5-1.119-2.5-2.5 0-1.381 1.119-2.5 2.5-2.5 1.381 0 2.5 1.119 2.5 2.5 0 1.381-1.119 2.5-2.5 2.5"/></svg>