<svg xmlns="http://www.w3.org/2000/svg" width="16" height="16" viewBox="0 0 16 16">
  <g fill="#000000" fill-rule="evenodd">
    <path d="M12.7798185 9.47194742C12.256467 9.18614859 11.5219739 9 10.5 9 10.2489194 9 10.015191 9.01143865 9.79768286 9.03298124 10.599298 9.65955252 11 10.5353993 11 11.56 11 11.7220026 10.9933796 11.8738162 10.9790395 12.0160249 11.8235284 11.3885642 12.463281 10.5010455 12.7798185 9.47194742zM10.5 8C9.67157288 8 9 7.32842712 9 6.5 9 5.67157288 9.67157288 5 10.5 5 11.3284271 5 12 5.67157288 12 6.5 12 7.32842712 11.3284271 8 10.5 8zM3.24643389 9.55471188C3.85158648 9.22326992 4.73225221 9 6 9 9.35749229 9 10 10.5382478 10 11.56 10 12.4340992 9.96296628 12.8665154 7.47953474 12.9732381 5.49102385 12.7675726 3.84843071 11.3965043 3.24643389 9.55471188zM6 8C4.8954305 8 4 7.1045695 4 6 4 4.8954305 4.8954305 4 6 4 7.1045695 4 8 4.8954305 8 6 8 7.1045695 7.1045695 8 6 8z"/>
    <path fill-rule="nonzero" d="M8,14 C11.3137085,14 14,11.3137085 14,8 C14,4.6862915 11.3137085,2 8,2 C4.6862915,2 2,4.6862915 2,8 C2,11.3137085 4.6862915,14 8,14 Z M8,16 C3.581722,16 0,12.418278 0,8 C0,3.581722 3.581722,0 8,0 C12.418278,0 16,3.581722 16,8 C16,12.418278 12.418278,16 8,16 Z"/>
  </g>
</svg>
