<svg xmlns="http://www.w3.org/2000/svg" width="16" height="16" viewBox="0 0 16 16">
  <path fill="#000000" d="M8.16802153,9.00762719 C8.11770193,8.97971378 8.0691074,8.94705651 8.0228424,8.90959185 L7.24569644,8.28027146 C6.81649058,7.9327074 6.75030681,7.30301097 7.09787087,6.87380511 C7.44543492,6.44459924 8.07513136,6.37841548 8.50433722,6.72597954 L9.28148318,7.35529993 C9.32319284,7.38907574 9.36147423,7.42551593 9.3962808,7.46417758 C9.58840095,7.34242119 9.79530659,7.24189607 10.0136984,7.16590157 C10.0046887,7.11194132 10,7.05651821 10,7 L10,6 C10,5.44771525 10.4477153,5 11,5 C11.5522847,5 12,5.44771525 12,6 L12,7 C12,7.05651821 11.9953113,7.11194132 11.9863016,7.16590157 C12.2046934,7.24189607 12.4115991,7.34242119 12.6037192,7.46417758 C12.6385258,7.42551593 12.6768072,7.38907574 12.7185168,7.35529993 L13.4956628,6.72597954 L13.4956628,6.72597954 C13.9248686,6.37841548 14.5545651,6.44459924 14.9021291,6.87380511 C15.2496932,7.30301097 15.1835094,7.9327074 14.7543036,8.28027146 L13.9771576,8.90959185 C13.9308926,8.94705651 13.8822981,8.97971378 13.8319785,9.00762719 C13.9056804,9.21796563 13.9566114,9.43900799 13.9818152,9.66779793 C14.0375555,9.67103259 14.0937782,9.67899468 14.1500137,9.69197768 L15.1243838,9.91692873 C15.6625135,10.0411658 15.9980398,10.5781201 15.8738028,11.1162499 C15.7495658,11.6543796 15.2126114,11.9899059 14.6744817,11.8656689 L13.7001116,11.6407178 C13.6458753,11.6281964 13.593697,11.6114826 13.5438401,11.5909977 C13.421834,11.7856617 13.2781033,11.9653223 13.1160456,12.1265821 C13.1466429,12.1699682 13.1741777,12.2163666 13.1982016,12.2656229 L13.6365727,13.1644169 C13.8786784,13.6608072 13.6725401,14.2594764 13.1761498,14.5015821 C12.6797596,14.7436878 12.0810903,14.5375495 11.8389846,14.0411592 L11.4006135,13.1423652 C11.3748737,13.0895909 11.3542006,13.0356605 11.3384041,12.9811255 C11.2273245,12.9935955 11.1144102,13 11,13 C10.8855898,13 10.7726755,12.9935955 10.6615959,12.9811255 C10.6457994,13.0356605 10.6251263,13.0895909 10.5993865,13.1423652 L10.1610154,14.0411592 C9.91890969,14.5375495 9.32024044,14.7436878 8.82385019,14.5015821 C8.32745995,14.2594764 8.12132159,13.6608072 8.36342729,13.1644169 L8.80179844,12.2656229 C8.82582235,12.2163666 8.85335711,12.1699682 8.88395444,12.1265821 C8.7218967,11.9653223 8.57816601,11.7856617 8.45615992,11.5909977 C8.40630297,11.6114826 8.3541247,11.6281964 8.29988839,11.6407178 L7.32551833,11.8656689 C6.7873886,11.9899059 6.25043425,11.6543796 6.12619721,11.1162499 C6.00196017,10.5781201 6.33748649,10.0411658 6.87561622,9.91692873 L7.84998629,9.69197768 C7.90622183,9.67899468 7.96244454,9.67103259 8.01818475,9.66779793 C8.04338857,9.43900799 8.0943196,9.21796564 8.16802153,9.00762719 Z M11,4 C10.2987292,4 9.62555785,4.12030844 9,4.34141142 L9,3 C9,2.44771525 8.55228475,2 8,2 L4,2 C3.44771525,2 3,2.44771525 3,3 L3,13 C3,13.5522847 3.44771525,14 4,14 L6.52778699,14 C7.24624309,14.8027225 8.17763961,15.4108652 9.23318285,15.7356344 C8.85701378,15.9054714 8.43954606,16 8,16 L4,16 C2.34314575,16 1,14.6568542 1,13 L1,3 C1,1.34314575 2.34314575,3.04359188e-16 4,0 L8,0 C9.65685425,-3.04359188e-16 11,1.34314575 11,3 L11,4 Z M11,11 C11.5522847,11 12,10.5522847 12,10 C12,9.44771525 11.5522847,9 11,9 C10.4477153,9 10,9.44771525 10,10 C10,10.5522847 10.4477153,11 11,11 Z"/>
</svg>
