<svg xmlns="http://www.w3.org/2000/svg" width="16" height="16" viewBox="0 0 16 16">
  <path fill="#000000" d="M5.172,14.157 L4.828,14.501 L2.343,14.634 C2.2070649,14.6449089 2.07325466,14.5952044 1.97740531,14.4981979 C1.88155596,14.4011914 1.83346069,14.2667944 1.846,14.131 L1.986,11.891 C1.99683325,11.746444 2.05972061,11.610721 2.163,11.509 L7.318,6.354 C6.84925888,4.60524419 7.61357329,2.75968466 9.18146202,1.85437254 C10.7493508,0.949060426 12.7298321,1.20975183 14.0100402,2.48995984 C15.2902482,3.77016786 15.5509396,5.75064924 14.6456275,7.31853798 C13.7403153,8.88642671 11.8947558,9.65074112 10.146,9.182 L8.707,10.622 L7.647,10.268 L6.939,10.975 L7.293,12.035 L6.586,12.743 L5.526,12.389 L4.818,13.096 L5.172,14.156 L5.172,14.157 Z M11.182,5.318 C11.4330745,5.57795658 11.8048779,5.6822126 12.1545073,5.59069716 C12.5041368,5.49918172 12.7771817,5.22613676 12.8686972,4.87650732 C12.9602126,4.52687789 12.8559566,4.15507447 12.596,3.904 C12.2036211,3.52502779 11.5799152,3.53044763 11.1941814,3.91618142 C10.8084476,4.30191522 10.8030278,4.92562111 11.182,5.318 L11.182,5.318 Z"/>
</svg>
