<svg xmlns="http://www.w3.org/2000/svg" width="16" height="16" viewBox="0 0 16 16"><path fill-rule="evenodd" d="M8 16A8 8 0 1 1 8 0a8 8 0 0 1 0 16zm-.754-6.476h1.536c.003-.14.015-.268.035-.384.02-.116.05-.224.091-.322.041-.099.097-.193.166-.282.07-.09.157-.181.261-.274.179-.165.347-.322.505-.47.157-.149.294-.302.41-.46.117-.157.208-.327.275-.51.066-.182.099-.39.099-.623 0-.347-.057-.653-.172-.918a1.753 1.753 0 0 0-.497-.666 2.196 2.196 0 0 0-.792-.406 3.741 3.741 0 0 0-1.053-.137c-.354 0-.685.043-.993.13a2.194 2.194 0 0 0-.803.405c-.228.184-.408.42-.543.706-.134.286-.203.63-.207 1.031H7.38c.003-.154.027-.286.07-.397a.817.817 0 0 1 .164-.271.633.633 0 0 1 .228-.156.723.723 0 0 1 .268-.051c.233 0 .408.065.524.196.116.13.175.335.175.615 0 .225-.073.433-.218.623a3.78 3.78 0 0 1-.593.596 2.134 2.134 0 0 0-.366.395 1.85 1.85 0 0 0-.23.451 2.514 2.514 0 0 0-.121.534 5.425 5.425 0 0 0-.035.645zm-.22 1.633c0 .129.024.249.072.36a.826.826 0 0 0 .207.287c.09.08.195.144.317.19.121.047.257.07.408.07.15 0 .286-.023.408-.07.122-.046.227-.11.317-.19a.826.826 0 0 0 .207-.287.891.891 0 0 0 .072-.36.891.891 0 0 0-.072-.36.826.826 0 0 0-.207-.287 1.004 1.004 0 0 0-.317-.191 1.135 1.135 0 0 0-.408-.07c-.15 0-.287.023-.408.07-.122.046-.228.11-.317.19a.826.826 0 0 0-.207.288.891.891 0 0 0-.073.36z"/></svg>