<?xml version="1.0" encoding="UTF-8"?>
<svg width="20px" height="20px" viewBox="0 0 20 20" version="1.1" xmlns="http://www.w3.org/2000/svg" xmlns:xlink="http://www.w3.org/1999/xlink">
    <!-- Generator: Sketch 40.3 (33839) - http://www.bohemiancoding.com/sketch -->
    <title>Group Copy 8</title>
    <desc>Created with Sketch.</desc>
    <defs>
        <ellipse id="path-1" cx="10" cy="10" rx="10" ry="10"></ellipse>
        <mask id="mask-2" maskContentUnits="userSpaceOnUse" maskUnits="objectBoundingBox" x="0" y="0" width="20" height="20" fill="white">
            <use xlink:href="#path-1"></use>
        </mask>
    </defs>
    <g id="22604" stroke="none" stroke-width="1" fill="none" fill-rule="evenodd">
        <g id="manual-actions-hoverstate" transform="translate(-786.000000, -80.000000)">
            <g id="Graph" transform="translate(30.000000, 29.000000)">
                <g id="column4" transform="translate(745.000000, 0.000000)">
                    <g id="Group-2-Copy-6" transform="translate(0.000000, 41.000000)">
                        <g id="Group-Copy-8" transform="translate(11.000000, 10.000000)">
                            <use id="Oval" stroke="#5C5C5C" mask="url(#mask-2)" stroke-width="2.858" xlink:href="#path-1"></use>
                            <path d="M15,10.9006211 L15,9.09937888 L13.875,8.91304348 C13.8125,8.66459627 13.6875,8.41614907 13.5,8.04347826 L14.1875,7.11180124 L12.875,5.80745342 L11.9375,6.49068323 C11.625,6.30434783 11.3125,6.18012422 11.0625,6.11801242 L10.9375,5 L9.125,5 L8.9375,6.11801242 C8.625,6.18012422 8.375,6.30434783 8.0625,6.49068323 L7.125,5.80745342 L5.8125,7.11180124 L6.4375,8.04347826 C6.25,8.35403727 6.1875,8.60248447 6.0625,8.91304348 L5,9.03726708 L5,10.8385093 L6.125,11.0248447 C6.1875,11.3354037 6.3125,11.5838509 6.5,11.8944099 L5.875,12.826087 L7.1875,14.1304348 L8.125,13.5093168 C8.375,13.6335404 8.6875,13.757764 9,13.8819876 L9.1875,15 L11.0625,15 L11.25,13.8819876 C11.5625,13.8198758 11.8125,13.6956522 12.125,13.5093168 L13.0625,14.1925466 L14.375,12.8881988 L13.6875,11.9565217 C13.875,11.6459627 14,11.3354037 14.0625,11.0869565 L15,10.9006211 L15,10.9006211 Z M10,11.8322981 C8.9375,11.8322981 8.125,11.0248447 8.125,9.9689441 C8.125,8.91304348 8.9375,8.10559006 10,8.10559006 C11.0625,8.10559006 11.875,8.91304348 11.875,9.9689441 C11.875,11.0248447 11.0625,11.8322981 10,11.8322981 L10,11.8322981 Z" id="Shape" fill="#5C5C5C"></path>
                        </g>
                    </g>
                </g>
            </g>
        </g>
    </g>
</svg>