<?xml version="1.0" encoding="UTF-8"?>
<svg width="16px" height="16px" viewBox="0 0 16 16" version="1.1" xmlns="http://www.w3.org/2000/svg" xmlns:xlink="http://www.w3.org/1999/xlink">
    <!-- Generator: Sketch 52.3 (67297) - http://www.bohemiancoding.com/sketch -->
    <title>icn/information</title>
    <desc>Created with Sketch.</desc>
    <defs>
        <path d="M7,12 L5.42857143,12 C5.19187796,12 5,12.2238576 5,12.5 C5,12.7761424 5.19187796,13 5.42857143,13 L10.5714286,13 C10.808122,13 11,12.7761424 11,12.5 C11,12.2238576 10.808122,12 10.5714286,12 L9,12 L9,8.02496338 C9,7.86716774 9,7.52551328 9,7 L7.21725464,7 L5.28571429,7 C5.12791864,7 5,7.22385763 5,7.5 C5,7.77614237 5.12791864,8 5.28571429,8 L6.99853482,8 C6.99946368,8.0111147 7,8.01956452 7,8.02496338 L7,12 Z M8,15 C4.13400675,15 1,11.8659932 1,8 C1,4.13400675 4.13400675,1 8,1 C11.8659932,1 15,4.13400675 15,8 C15,11.8659932 11.8659932,15 8,15 Z M6.5,4.25 C6.5,4.42751568 6.53007991,4.59270141 6.59024064,4.74556213 C6.65040137,4.89842286 6.73618483,5.03032489 6.84759358,5.14127219 C6.95900234,5.25221949 7.0904627,5.33974327 7.24197861,5.40384615 C7.39349452,5.46794904 7.56283329,5.5 7.75,5.5 C7.93716671,5.5 8.10650548,5.46794904 8.25802139,5.40384615 C8.4095373,5.33974327 8.54099766,5.25221949 8.65240642,5.14127219 C8.76381517,5.03032489 8.84959863,4.89842286 8.90975936,4.74556213 C8.96992009,4.59270141 9,4.42751568 9,4.25 C9,4.07248432 8.96992009,3.90729859 8.90975936,3.75443787 C8.84959863,3.60157714 8.76381517,3.46967511 8.65240642,3.35872781 C8.54099766,3.24778051 8.4095373,3.16025673 8.25802139,3.09615385 C8.10650548,3.03205096 7.93716671,3 7.75,3 C7.56283329,3 7.39349452,3.03205096 7.24197861,3.09615385 C7.0904627,3.16025673 6.95900234,3.24778051 6.84759358,3.35872781 C6.73618483,3.46967511 6.65040137,3.60157714 6.59024064,3.75443787 C6.53007991,3.90729859 6.5,4.07248432 6.5,4.25 Z" id="path-1"></path>
    </defs>
    <g id="icn/information" stroke="none" stroke-width="1" fill="none" fill-rule="evenodd">
        <mask id="mask-2" fill="white">
            <use xlink:href="#path-1"></use>
        </mask>
        <g id="Combined-Shape"></g>
        <g id="c-fill/greys/$black-::-000000" mask="url(#mask-2)"></g>
    </g>
</svg>