<svg xmlns="http://www.w3.org/2000/svg" width="16" height="16" viewBox="0 0 16 16">
  <path fill="#000000" d="M4,-1.11022302e-16 L12,-4.4408921e-16 C13.6568542,-2.2759572e-15 15,1.34314575 15,3 L15,10.1861487 C15,11.2273247 14.4601588,12.1940497 13.5737426,12.7402306 L9.57374258,15.2049011 C8.60881444,15.7994586 7.39118556,15.7994586 6.42625742,15.2049011 L2.42625742,12.7402306 C1.53984124,12.1940497 1,11.2273247 1,10.1861487 L1,3 C1,1.34314575 2.34314575,3.33066907e-16 4,-1.11022302e-16 Z M4,2 C3.44771525,2 3,2.44771525 3,3 L3,10.1861487 C3,10.5332074 3.17994708,10.8554491 3.47541914,11.0375094 L7.47541914,13.5021799 C7.79706185,13.7003657 8.20293815,13.7003657 8.52458086,13.5021799 L12.5245809,11.0375094 C12.8200529,10.8554491 13,10.5332074 13,10.1861487 L13,3 C13,2.44771525 12.5522847,2 12,2 L4,2 Z M4,3.5 C4,3.22385763 4.22385763,3 4.5,3 L8.5,3 L8.5,11.8366425 C8.5,11.9255318 8.47630331,12.0128142 8.43135082,12.0894991 C8.29170197,12.3277276 7.98537186,12.4076422 7.74714338,12.2679933 L7.74714338,12.2679933 L4.24714338,10.2163033 C4.09405473,10.1265632 4,9.9624051 4,9.78495249 L4,9.78495249 L4,3.5 Z"/>
</svg>
