<svg xmlns="http://www.w3.org/2000/svg" width="16" height="16" viewBox="0 0 16 16">
  <path fill="#000000" d="M8.96855884,7.24975428 C9.5836563,7.59086729 10,8.2468125 10,9 C10,10.1045695 9.1045695,11 8,11 C6.8954305,11 6,10.1045695 6,9 C6,8.2468125 6.4163437,7.59086729 7.03144116,7.24975428 C7.01091584,7.16992329 7,7.08623641 7,7 L7,5.08328117 C7,5.02997866 7.02127724,4.97888131 7.05910849,4.94133195 L7.93653271,4.07044575 L7.93653073,4.07044375 C7.97572892,4.03153764 8.03904498,4.03177442 8.07795109,4.07097261 C8.07795175,4.07097328 8.07795242,4.07097395 8.07795308,4.07097461 L8.9419532,4.94151412 C8.97913498,4.97897715 9,5.02961941 9,5.08240163 L9,7 L9,7 C9,7.08623641 8.98908416,7.16992329 8.96855884,7.24975428 Z M8,16 C3.581722,16 0,12.418278 0,8 C0,3.581722 3.581722,0 8,0 C12.418278,0 16,3.581722 16,8 C16,12.418278 12.418278,16 8,16 Z M8,14 C11.3137085,14 14,11.3137085 14,8 C14,4.6862915 11.3137085,2 8,2 C4.6862915,2 2,4.6862915 2,8 C2,11.3137085 4.6862915,14 8,14 Z M12.5,10 C12.2238576,10 12,9.77614237 12,9.5 C12,9.22385763 12.2238576,9 12.5,9 C12.7761424,9 13,9.22385763 13,9.5 C13,9.77614237 12.7761424,10 12.5,10 Z M12.5,7 C12.2238576,7 12,6.77614237 12,6.5 C12,6.22385763 12.2238576,6 12.5,6 C12.7761424,6 13,6.22385763 13,6.5 C13,6.77614237 12.7761424,7 12.5,7 Z M10.5,13 C10.2238576,13 10,12.7761424 10,12.5 C10,12.2238576 10.2238576,12 10.5,12 C10.7761424,12 11,12.2238576 11,12.5 C11,12.7761424 10.7761424,13 10.5,13 Z M10.5,4 C10.2238576,4 10,3.77614237 10,3.5 C10,3.22385763 10.2238576,3 10.5,3 C10.7761424,3 11,3.22385763 11,3.5 C11,3.77614237 10.7761424,4 10.5,4 Z M5.5,13 C5.22385763,13 5,12.7761424 5,12.5 C5,12.2238576 5.22385763,12 5.5,12 C5.77614237,12 6,12.2238576 6,12.5 C6,12.7761424 5.77614237,13 5.5,13 Z M5.5,4 C5.22385763,4 5,3.77614237 5,3.5 C5,3.22385763 5.22385763,3 5.5,3 C5.77614237,3 6,3.22385763 6,3.5 C6,3.77614237 5.77614237,4 5.5,4 Z M3.5,10 C3.22385763,10 3,9.77614237 3,9.5 C3,9.22385763 3.22385763,9 3.5,9 C3.77614237,9 4,9.22385763 4,9.5 C4,9.77614237 3.77614237,10 3.5,10 Z M3.5,7 C3.22385763,7 3,6.77614237 3,6.5 C3,6.22385763 3.22385763,6 3.5,6 C3.77614237,6 4,6.22385763 4,6.5 C4,6.77614237 3.77614237,7 3.5,7 Z M8,10 C8.55228475,10 9,9.55228475 9,9 C9,8.44771525 8.55228475,8 8,8 C7.44771525,8 7,8.44771525 7,9 C7,9.55228475 7.44771525,10 8,10 Z"/>
</svg>
