<svg xmlns="http://www.w3.org/2000/svg" width="16" height="16" viewBox="0 0 16 16">
  <path fill="#000000" d="M8,16 C3.581722,16 0,12.418278 0,8 C0,3.581722 3.581722,0 8,0 C12.418278,0 16,3.581722 16,8 C16,12.418278 12.418278,16 8,16 Z M8,14 C11.3137085,14 14,11.3137085 14,8 C14,4.6862915 11.3137085,2 8,2 C4.6862915,2 2,4.6862915 2,8 C2,11.3137085 4.6862915,14 8,14 Z M5.5,12 C5.22385763,12 5,11.7761424 5,11.5 C5,11.2238576 5.22385763,11 5.5,11 C5.77614237,11 6,11.2238576 6,11.5 C6,11.7761424 5.77614237,12 5.5,12 Z M3.5,8 C3.22385763,8 3,7.77614237 3,7.5 C3,7.22385763 3.22385763,7 3.5,7 C3.77614237,7 4,7.22385763 4,7.5 C4,7.77614237 3.77614237,8 3.5,8 Z M10.5,12 C10.2238576,12 10,11.7761424 10,11.5 C10,11.2238576 10.2238576,11 10.5,11 C10.7761424,11 11,11.2238576 11,11.5 C11,11.7761424 10.7761424,12 10.5,12 Z M12.5,8 C12.2238576,8 12,7.77614237 12,7.5 C12,7.22385763 12.2238576,7 12.5,7 C12.7761424,7 13,7.22385763 13,7.5 C13,7.77614237 12.7761424,8 12.5,8 Z M7.03144116,6.24975428 C7.01091584,6.16992329 7,6.08623641 7,6 L7,4.08328117 C7,4.02997866 7.02127724,3.97888131 7.05910849,3.94133195 L7.93653271,3.07044575 C7.97572892,3.03153764 8.03904498,3.03177442 8.07795109,3.07097261 L8.9419532,3.94151412 C8.97913498,3.97897715 9,4.02961941 9,4.08240163 L9,6 C9,6.08623641 8.98908416,6.16992329 8.96855884,6.24975428 C9.5836563,6.59086729 10,7.2468125 10,8 C10,9.1045695 9.1045695,10 8,10 C6.8954305,10 6,9.1045695 6,8 C6,7.2468125 6.4163437,6.59086729 7.03144116,6.24975428 L7.03144116,6.24975428 Z M8,9 C8.55228475,9 9,8.55228475 9,8 C9,7.44771525 8.55228475,7 8,7 C7.44771525,7 7,7.44771525 7,8 C7,8.55228475 7.44771525,9 8,9 Z"/>
</svg>
