<svg xmlns="http://www.w3.org/2000/svg" width="16" height="16" viewBox="0 0 16 16">
  <path fill="#000000" fill-rule="evenodd" d="M8,16 C3.581722,16 0,12.418278 0,8 C0,3.581722 3.581722,0 8,0 C12.418278,0 16,3.581722 16,8 C16,12.418278 12.418278,16 8,16 Z M7.24560547,9.52392578 L8.78173828,9.52392578 C8.78531903,9.38427665 8.79695628,9.25626686 8.81665039,9.13989258 C8.8363445,9.0235183 8.86678039,8.9160975 8.90795898,8.81762695 C8.94913758,8.71915641 9.00463832,8.62516321 9.07446289,8.53564453 C9.14428746,8.44612585 9.23111927,8.35481817 9.33496094,8.26171875 C9.51399829,8.09700438 9.68229088,7.94034905 9.83984375,7.79174805 C9.99739662,7.64314704 10.1343581,7.4900724 10.2507324,7.33251953 C10.3671067,7.17496666 10.4584144,7.00488373 10.5246582,6.82226562 C10.590902,6.63964752 10.6240234,6.43196731 10.6240234,6.19921875 C10.6240234,5.85188628 10.5667323,5.545737 10.4521484,5.28076172 C10.3375645,5.01578644 10.1719575,4.79378345 9.95532227,4.61474609 C9.73868707,4.43570874 9.47461093,4.30053757 9.16308594,4.20922852 C8.85156094,4.11791947 8.50065299,4.07226562 8.11035156,4.07226562 C7.7558576,4.07226562 7.42464347,4.11523395 7.11669922,4.20117188 C6.80875497,4.2871098 6.54109814,4.42228098 6.3137207,4.60668945 C6.08634326,4.79109793 5.90551825,5.02652852 5.77124023,5.31298828 C5.63696222,5.59944805 5.56803387,5.94319461 5.56445312,6.34423828 L7.37988281,6.34423828 C7.38346356,6.19026616 7.40673807,6.0577805 7.44970703,5.94677734 C7.492676,5.83577418 7.54728157,5.74536168 7.61352539,5.67553711 C7.67976921,5.60571254 7.75585895,5.55379249 7.84179688,5.51977539 C7.9277348,5.48575829 8.01725214,5.46875 8.11035156,5.46875 C8.34310012,5.46875 8.51765892,5.53409765 8.6340332,5.66479492 C8.75040748,5.79549219 8.80859375,6.00048688 8.80859375,6.27978516 C8.80859375,6.50537222 8.73608471,6.71305244 8.59106445,6.90283203 C8.4460442,7.09261163 8.24821089,7.29134011 7.99755859,7.49902344 C7.85074796,7.62434958 7.72900439,7.75594007 7.63232422,7.89379883 C7.53564405,8.03165759 7.45865914,8.18204671 7.40136719,8.3449707 C7.34407523,8.50789469 7.30379243,8.68603419 7.28051758,8.87939453 C7.25724272,9.07275487 7.24560547,9.28759647 7.24560547,9.52392578 Z M7.02539062,11.1567383 C7.02539062,11.2856452 7.04956031,11.4055984 7.09790039,11.5166016 C7.14624048,11.6276047 7.21516882,11.7233883 7.3046875,11.8039551 C7.39420618,11.8845219 7.49983663,11.9480792 7.62158203,11.9946289 C7.74332743,12.0411786 7.87939378,12.0644531 8.02978516,12.0644531 C8.18017653,12.0644531 8.31624288,12.0411786 8.43798828,11.9946289 C8.55973368,11.9480792 8.66536414,11.8845219 8.75488281,11.8039551 C8.84440149,11.7233883 8.91332984,11.6276047 8.96166992,11.5166016 C9.01001001,11.4055984 9.03417969,11.2856452 9.03417969,11.1567383 C9.03417969,11.0278314 9.01001001,10.9078782 8.96166992,10.796875 C8.91332984,10.6858718 8.84440149,10.5900883 8.75488281,10.5095215 C8.66536414,10.4289547 8.55973368,10.3653974 8.43798828,10.3188477 C8.31624288,10.2722979 8.18017653,10.2490234 8.02978516,10.2490234 C7.87939378,10.2490234 7.74332743,10.2722979 7.62158203,10.3188477 C7.49983663,10.3653974 7.39420618,10.4289547 7.3046875,10.5095215 C7.21516882,10.5900883 7.14624048,10.6858718 7.09790039,10.796875 C7.04956031,10.9078782 7.02539062,11.0278314 7.02539062,11.1567383 Z"/>
</svg>
