<svg xmlns="http://www.w3.org/2000/svg" width="16" height="16" viewBox="0 0 16 16">
  <path fill="#000000" d="M4.04424028,3.92996192 C4.04456949,1.7211029 5.83530431,-0.0694288636 8.04424024,-0.0694288636 C9.20087856,-0.0694288636 10.2799229,0.425546042 11.0335603,1.27271103 C11.400642,1.68534821 11.3637121,2.31743528 10.9510749,2.68451702 C10.5384377,3.05159875 9.90635062,3.01466877 9.53926888,2.60203159 C9.16125966,2.1771108 8.62380364,1.93057114 8.04424024,1.93057114 C6.93967074,1.93057114 6.04424024,2.82600164 6.04424024,3.93057114 C6.04424024,4.06044235 6.01948303,4.18453121 5.97443061,4.29837573 L5.97443061,5 L12,5 C13.6568542,5 15,6.34314575 15,8 L15,13 C15,14.6568542 13.6568542,16 12,16 L4,16 C2.34314575,16 1,14.6568542 1,13 L1,8 C1,6.35167725 2.32934908,5.0138406 3.97443061,5.0001067 L3.97443061,3.92996192 L4.04424028,3.92996192 Z M4,7 C3.44771525,7 3,7.44771525 3,8 L3,13 C3,13.5522847 3.44771525,14 4,14 L12,14 C12.5522847,14 13,13.5522847 13,13 L13,8 C13,7.44771525 12.5522847,7 12,7 L4,7 Z"/>
</svg>
