<?xml version="1.0" encoding="UTF-8"?>
<svg width="78px" height="82px" viewBox="0 0 78 82" version="1.1" xmlns="http://www.w3.org/2000/svg" xmlns:xlink="http://www.w3.org/1999/xlink">
    <!-- Generator: Sketch 64 (93537) - https://sketch.com -->
    <title>add_new_user</title>
    <desc>Created with Sketch.</desc>
    <g id="2nd-iteration--specs" stroke="none" stroke-width="1" fill="none" fill-rule="evenodd">
        <g id="05-welcome" transform="translate(-346.000000, -420.000000)">
            <g id="Group-3" transform="translate(314.000000, 374.000000)">
                <g id="add_new_user" transform="translate(32.000000, 46.000000)">
                    <path d="M2.12,42 C2.04,43 2,44 2,45 C2,65.43 18.57,82 39,82 C59.43,82 76,65.43 76,45 C76,44 75.96,43 75.88,42 C74.35,61.03 58.42,76 39,76 C19.58,76 3.65,61.03 2.12,42 Z" id="Path" fill-opacity="0.03" fill="#000000" fill-rule="nonzero"></path>
                    <path d="M39,78 C17.46,78 0,60.54 0,39 C0,17.46 17.46,0 39,0 C60.54,0 78,17.46 78,39 C78,60.54 60.54,78 39,78 Z M39,74 C58.33,74 74,58.33 74,39 C74,19.67 58.33,4 39,4 C19.67,4 4,19.67 4,39 C4,58.33 19.67,74 39,74 Z" id="Shape" fill="#EEEEEE" fill-rule="nonzero"></path>
                    <path d="M44,31 L41.5,28 L39,31 L36.5,28 L34,31 L31.5,28 L29,31 L26.28,31 C28.93,26.8 33.64,24 39,24 C44.36,24 49.07,26.8 51.72,31 L49,31 L46.5,28 L44,31 Z" id="Path" fill="#E1DBF2" fill-rule="nonzero"></path>
                    <path d="M39,57 C29.6,57 22,49.4 22,40 C22,30.6 29.6,23 39,23 C48.4,23 56,30.6 56,40 C56,49.4 48.4,57 39,57 Z M39,53 C46.18,53 52,47.18 52,40 C52,32.82 46.18,27 39,27 C31.82,27 26,32.82 26,40 C26,47.18 31.82,53 39,53 Z" id="Shape" fill="#E1DBF2" fill-rule="nonzero"></path>
                    <g id="cap" transform="translate(20.000000, 13.000000)">
                        <path d="M5.73127381,15.2396706 L5.73127381,8.73559452 L33.7497601,8.73559452 L33.7497601,15.2396706 C33.7497601,20.0912233 27.4776083,24.0241838 19.740517,24.0241838 C12.0034256,24.0241838 5.73127381,20.0912233 5.73127381,15.2396706 Z" id="cap-base" fill="#0B2630"></path>
                        <path d="M0.750575068,7.6622014 L18.8226339,0.181829486 C19.4103764,-0.0614483856 20.0706576,-0.0614483856 20.6584,0.181829486 L38.7304589,7.6622014 C39.3428161,7.9156678 39.6337546,8.61755654 39.3802882,9.22991377 C39.2584894,9.52417119 39.0247163,9.7579443 38.7304589,9.87974309 L20.6584,17.360115 C20.0706576,17.6033929 19.4103764,17.6033929 18.8226339,17.360115 L0.750575068,9.87974309 C0.138217839,9.62627668 -0.152720657,8.92438794 0.100745749,8.31203072 C0.22254454,8.0177733 0.456317653,7.78400019 0.750575068,7.6622014 Z" id="cap-top" fill="#29424E"></path>
                        <path d="M19.2948438,9.77130586 C18.6807368,9.52296508 18.384919,8.82552381 18.6341161,8.21352719 C18.8833132,7.60153057 19.5831595,7.30672926 20.1972664,7.55507005 L31.7125102,12.2117583 L31.7125102,23.9776159 C31.7125102,24.6380801 31.1752519,25.1734922 30.5125102,25.1734922 C29.8497685,25.1734922 29.3125102,24.6380801 29.3125102,23.9776159 L29.3125102,13.8223838 L19.2948438,9.77130586 Z" id="string" fill="#FFCF00" fill-rule="nonzero"></path>
                        <path d="M32.6125102,23.3728071 L32.6125102,27.1798185 L28.4125102,27.1798185 L28.4125102,23.3728071 C28.4125102,22.6616712 28.7659876,22.0330944 29.3068275,21.6531916 L31.7181928,21.6531916 C32.2590327,22.0330944 32.6125102,22.6616712 32.6125102,23.3728071 Z" id="tassel-wrap" fill="#FCA326"></path>
                        <rect id="tassel-base" fill="#FFCF00" x="28.4125102" y="23.5921896" width="4.2" height="3.58762887"></rect>
                    </g>
                    <path d="M35,45 L43,45 C43,47.2 41.2,49 39,49 C36.8,49 35,47.2 35,45 Z M33.5,43 C32.67,43 32,42.33 32,41.5 C32,40.67 32.67,40 33.5,40 C34.33,40 35,40.67 35,41.5 C35,42.33 34.33,43 33.5,43 Z M44.5,43 C43.67,43 43,42.33 43,41.5 C43,40.67 43.67,40 44.5,40 C45.33,40 46,40.67 46,41.5 C46,42.33 45.33,43 44.5,43 Z" id="Shape" fill="#6B4FBB" fill-rule="nonzero"></path>
                </g>
            </g>
        </g>
    </g>
</svg>