<svg xmlns="http://www.w3.org/2000/svg" width="249" height="249" viewBox="0 0 249 249" xmlns:xlink="http://www.w3.org/1999/xlink">
  <defs>
    <rect id="k" width="248" height="248" y="1" rx="20"/>
    <rect id="a" width="121" height="81" rx="30"/>
    <mask id="m" width="121" height="81" x="0" y="0" fill="white">
      <use xlink:href="#a"/>
    </mask>
    <path id="b" d="M107,192.006168 C107,186.479914 111.468325,182 117.006168,182 L131.993832,182 C137.520086,182 142,186.468325 142,192.006168 L142,199.5 C142,209.164983 134.167108,217 124.5,217 L124.5,217 C114.835017,217 107,209.167108 107,199.5 L107,192.006168 Z"/>
    <mask id="n" width="35" height="35" x="0" y="0" fill="white">
      <use xlink:href="#b"/>
    </mask>
    <path id="c" d="M134.530639,32.8935943 C139.940913,43.7635052 142,56.879104 142,71 C142,108.555363 128.351563,139 74,139 C19.6484375,139 6,108.555363 6,71 C6,33.444637 20.5644531,3 74,3 C93.6818853,3 108.090262,7.13031977 118.439734,14.2249639 C118.693078,13.8389143 118.936899,13.4433426 119.170703,13.0383811 C121.448248,9.0935581 122.478825,4.77168191 122.38487,0.528723941 C126.750475,5.88468069 128.60616,12.9184261 127.443384,19.7360811 C129.68825,17.9289177 131.643236,15.6840316 133.170703,13.0383811 C135.448248,9.0935581 136.478825,4.77168191 136.38487,0.528723941 C142.498162,8.02883703 143.689684,18.8189718 138.563008,27.6986352 C137.433943,29.654233 136.071291,31.3908615 134.530639,32.8935943 Z"/>
    <mask id="o" width="136" height="138.471" x="0" y="0" fill="white">
      <use xlink:href="#c"/>
    </mask>
    <circle id="d" cx="130" cy="17" r="17"/>
    <mask id="p" width="34" height="34" x="0" y="0" fill="white">
      <use xlink:href="#d"/>
    </mask>
    <ellipse id="e" cx="17" cy="17" rx="17" ry="17"/>
    <mask id="q" width="34" height="34" x="0" y="0" fill="white">
      <use xlink:href="#e"/>
    </mask>
    <path id="f" d="M0.269252668,37 L0.258796431,37 L0.758796431,90 C1.03499952,119.277528 24.9888828,143 54.2614277,143 L66.2561651,143 C95.5216807,143 119.706512,119.271092 120.258796,90 L121.258796,37 L121.24834,37 C121.255301,36.8329373 121.258796,36.6662603 121.258796,36.5 C121.258796,21.8644541 128.928718,13 60.7587964,13 C-7.41112544,13 0.258796431,21.8644541 0.258796431,36.5 C0.258796431,36.6662603 0.262291988,36.8329373 0.269252668,37 Z"/>
    <mask id="r" width="121.518" height="130" x="0" y="0" fill="white">
      <use xlink:href="#f"/>
    </mask>
    <path id="g" d="M53.4406362,0.521422126 C64.2956548,2.82118402 72.4407643,12.4571867 72.4407643,24 C72.4407643,27.0037378 71.8891052,29.8785937 70.8815267,32.5287264 C76.1618179,29.3222263 80.1059601,24.1358824 81.6848746,17.9998638 C82.1783226,19.9175356 82.4407643,21.9280483 82.4407643,24 C82.4407643,27.0037378 81.8891052,29.8785937 80.8815267,32.5287264 C87.812057,28.3201063 92.4407643,20.700746 92.4407643,12"/>
    <mask id="s" width="39" height="32.007" x="0" y="0" fill="white">
      <use xlink:href="#g"/>
    </mask>
    <rect id="h" width="24" height="6" x="1" y="1" rx="1.5"/>
    <mask id="t" width="24" height="6" x="0" y="0" fill="white">
      <use xlink:href="#h"/>
    </mask>
    <rect id="i" width="24" height="6" x="63" y="1" rx="1.5"/>
    <mask id="u" width="24" height="6" x="0" y="0" fill="white">
      <use xlink:href="#i"/>
    </mask>
    <rect id="j" width="249" height="249" rx="20"/>
    <mask id="v" width="249" height="249" x="0" y="0" fill="white">
      <use xlink:href="#j"/>
    </mask>
  </defs>
  <g fill="none" fill-rule="evenodd">
    <mask id="l" fill="white">
      <use xlink:href="#k"/>
    </mask>
    <use fill="#FFFFFF" xlink:href="#k"/>
    <g transform="translate(64 202)" mask="url(#l)">
      <use fill="#E14328" stroke="#000000" stroke-opacity=".05" stroke-width="4" mask="url(#m)" xlink:href="#a"/>
      <path fill="#FFFFFF" d="M21,29.5 C21,15.9690236 31.9768308,5 45.4918069,5 L76.5081931,5 C90.0346445,5 101,15.9660485 101,29.5 L101,54 L21,54 L21,29.5 Z"/>
      <path fill="#000000" fill-opacity=".05" fill-rule="nonzero" d="M41.056738,9.71445147e-17 L40.9184238,0 L39.2497747,1.78760262 C39.2606559,1.85851651 39.2718835,1.92931623 39.2834558,2 L41.3126659,2 C41.1940744,1.34446569 41.1081717,0.677233604 41.056738,9.71445147e-17 Z M60.5,18 C70.0324563,18 78.0345463,11.1360579 79.6873341,2 L41.3126659,2 C42.9654537,11.1360579 50.9675437,18 60.5,18 Z M81.948489,0 C81.1784068,11.1743023 71.8698795,20 60.5,20 C49.1301205,20 39.8215932,11.1743023 39.051511,4.76507722e-13 L81.948489,0 Z"/>
    </g>
    <use fill="#FFF0EF" stroke="#000000" stroke-opacity=".05" stroke-width="4" mask="url(#n)" xlink:href="#b"/>
    <g transform="translate(51 15)" mask="url(#l)">
      <use fill="#DEDAAA" stroke="#000000" stroke-opacity=".05" stroke-width="4" mask="url(#o)" xlink:href="#c"/>
      <g stroke-opacity=".05" transform="translate(0 92)">
        <use fill="#FFF0EF" stroke="#000000" stroke-width="4" mask="url(#p)" xlink:href="#d"/>
        <use fill="#FFF0EF" stroke="#000000" stroke-width="4" mask="url(#q)" xlink:href="#e"/>
      </g>
      <g transform="translate(13 35)">
        <use fill="#FFF0EF" stroke="#000000" stroke-opacity=".05" stroke-width="4" mask="url(#r)" xlink:href="#f"/>
        <path fill="#FCCECE" fill-rule="nonzero" d="M38,113 C38,117.446901 45.8809107,119 60.5,119 C75.1190893,119 83,117.446901 83,113 C83,112.447715 82.5522847,112 82,112 C81.4477153,112 81,112.447715 81,113 C81,115.522111 73.5007262,117 60.5,117 C47.4992738,117 40,115.522111 40,113 C40,112.447715 39.5522847,112 39,112 C38.4477153,112 38,112.447715 38,113 Z"/>
        <path fill="#DED9AA" d="M53.4406362,0.521422126 L53.4406362,0.521422126 L53.4406362,0.521422126 C64.2956548,2.82118402 72.4407643,12.4571867 72.4407643,24 C72.4407643,27.0037378 71.8891052,29.8785937 70.8815267,32.5287264 C76.1618179,29.3222263 80.1059601,24.1358824 81.6848746,17.9998638 C82.1783226,19.9175356 82.4407643,21.9280483 82.4407643,24 C82.4407643,27.0037378 81.8891052,29.8785937 80.8815267,32.5287264 C87.812057,28.3201063 92.4407643,20.700746 92.4407643,12"/>
        <use stroke="#000000" stroke-opacity=".05" stroke-width="4" mask="url(#s)" stroke-linecap="round" xlink:href="#g"/>
        <g fill="#FF0000" transform="translate(11 85)" opacity=".04">
          <ellipse cx="7" cy="7" style="mix-blend-mode:multiply" rx="7" ry="7"/>
          <circle cx="93" cy="7" r="7" style="mix-blend-mode:multiply"/>
        </g>
        <g fill="#DED9AA" stroke="#000000" stroke-opacity=".05" stroke-width="4" transform="translate(16 54)">
          <use mask="url(#t)" transform="rotate(4 13 4)" xlink:href="#h"/>
          <use mask="url(#u)" transform="rotate(-3 75 4)" xlink:href="#i"/>
        </g>
        <path fill="#000000" fill-opacity=".05" fill-rule="nonzero" d="M69,87 L69,99.5090186 C69,104.198662 65.1953693,108 60.5,108 C55.805083,108 52,104.198746 52,99.5090186 L52,87 L50,87 L50,99.5090186 C50,105.303767 54.700964,110 60.5,110 C66.2995513,110 71,105.30362 71,99.5090186 L71,87 L69,87 Z"/>
        <g fill="#5C5C5C" transform="translate(31 74)">
          <circle cx="3.5" cy="3.5" r="3.5"/>
          <circle cx="55.5" cy="3.5" r="3.5"/>
        </g>
      </g>
    </g>
    <use stroke="#E5E5E5" stroke-width="12" mask="url(#v)" xlink:href="#j"/>
  </g>
</svg>
