<svg xmlns="http://www.w3.org/2000/svg" width="249" height="249" viewBox="0 0 249 249" xmlns:xlink="http://www.w3.org/1999/xlink">
  <defs>
    <path id="a" d="M107,191.006168 C107,185.479914 111.468325,181 117.006168,181 L131.993832,181 C137.520086,181 142,185.468325 142,191.006168 L142,198.5 C142,208.164983 134.167108,216 124.5,216 L124.5,216 C114.835017,216 107,208.167108 107,198.5 L107,191.006168 Z"/>
    <mask id="n" width="35" height="35" x="0" y="0" fill="white">
      <use xlink:href="#a"/>
    </mask>
    <path id="b" d="M60,35.4995317 C60,22.5210987 70.4437406,10.6461818 83.312279,8.97803791 L114,5 L121.524342,21.5644062 L121.524342,52 L60,52 L60,35.4995317 Z"/>
    <mask id="o" width="61.524" height="47" x="0" y="0" fill="white">
      <use xlink:href="#b"/>
    </mask>
    <path id="c" d="M67.2740407,7.20570364 C66.688228,6.26840318 67.0727079,5.25075853 68.1310169,4.9332658 L84.2956488,0.083876249 C85.3547565,-0.233856052 86.4456792,0.37986986 86.7280741,1.43885068 L89.6985916,12.5782914 C89.9828754,13.6443554 89.4205193,14.9049778 88.426003,15.402236 L78.0006627,20.6149061 C77.0135477,21.1084636 75.7377395,20.7476216 75.152625,19.8114384 L67.2740407,7.20570364 Z"/>
    <mask id="p" width="22.772" height="20.836" x="0" y="0" fill="white">
      <use xlink:href="#c"/>
    </mask>
    <path id="d" d="M62,52 L0,52 L0,34.4933836 L0,34.4933836 C0,21.5183461 10.4597519,9.83780534 23.3515036,8.40538849 L54,5 L62,21.5644062"/>
    <mask id="q" width="62" height="47" x="0" y="0" fill="white">
      <use xlink:href="#d"/>
    </mask>
    <path id="e" d="M32.2740407,7.20570364 C31.688228,6.26840318 32.0727079,5.25075853 33.1310169,4.9332658 L49.2956488,0.083876249 C50.3547565,-0.233856052 51.4456792,0.37986986 51.7280741,1.43885068 L54.6985916,12.5782914 C54.9828754,13.6443554 54.4205193,14.9049778 53.426003,15.402236 L43.0006627,20.6149061 C42.0135477,21.1084636 40.7377395,20.7476216 40.152625,19.8114384 L32.2740407,7.20570364 Z"/>
    <mask id="r" width="22.772" height="20.836" x="0" y="0" fill="white">
      <use xlink:href="#e"/>
    </mask>
    <path id="f" d="M74,136 C128.351562,136 142,105.555363 142,68 C142,30.444637 127.435547,0 74,0 C20.5644531,6.54396714e-15 6,30.444637 6,68 C6,105.555363 19.6484375,136 74,136 Z"/>
    <mask id="s" width="136" height="136" x="0" y="0" fill="white">
      <use xlink:href="#f"/>
    </mask>
    <circle id="g" cx="130" cy="17" r="17"/>
    <mask id="t" width="34" height="34" x="0" y="0" fill="white">
      <use xlink:href="#g"/>
    </mask>
    <circle id="h" cx="17" cy="17" r="17"/>
    <mask id="u" width="34" height="34" x="0" y="0" fill="white">
      <use xlink:href="#h"/>
    </mask>
    <path id="i" d="M0.269252668,52 L0.258796431,52 L0.881451899,118.00148 C1.08986713,140.093494 19.1631831,158 41.2493632,158 L79.2682296,158 C101.353168,158 119.596682,140.092052 120.013485,118.00148 L121.258796,52 L121.24834,52 C121.255301,51.8329373 121.258796,51.6662603 121.258796,51.5 C121.258796,36.8644541 128.928718,11 60.7587964,11 C-7.41112544,11 0.258796431,36.8644541 0.258796431,51.5 C0.258796431,51.6662603 0.262291988,51.8329373 0.269252668,52 Z"/>
    <mask id="v" width="121.518" height="147" x="0" y="0" fill="white">
      <use xlink:href="#i"/>
    </mask>
    <path id="j" d="M44.6311019,158 L41.2493632,158 C23.3424411,158 8.07339963,146.22905 2.82492864,130 C9.46428335,130 19.7348424,130 34.4294442,130 C37.6789066,121.241408 46.1098371,115 55.9960851,115 L63.0039149,115 C72.8919947,115 81.322439,121.240249 84.5711802,130 L117.956538,130 C112.554537,146.228362 97.1739473,158 79.2682296,158 L74.3670432,158 C71.0151164,159.909314 67.136674,161 63.0039149,161 L55.9960851,161 C51.8623051,161 47.9832784,159.909382 44.6311019,158 Z M45.1164729,130 C45.1164729,134.409288 48.6997263,138 53.1198934,138 L68.1130525,138 C72.5300947,138 76.1164729,134.418278 76.1164729,130 C76.1164729,125.590712 72.5332195,122 68.1130525,122 L53.1198934,122 C48.7028511,122 45.1164729,125.581722 45.1164729,130 Z"/>
    <mask id="w" width="115.132" height="46" x="0" y="0" fill="white">
      <use xlink:href="#j"/>
    </mask>
    <rect id="k" width="24" height="6" rx="1.5"/>
    <mask id="x" width="24" height="6" x="0" y="0" fill="white">
      <use xlink:href="#k"/>
    </mask>
    <rect id="l" width="24" height="6" x="62" rx="1.5"/>
    <mask id="y" width="24" height="6" x="0" y="0" fill="white">
      <use xlink:href="#l"/>
    </mask>
    <rect id="m" width="249" height="249" rx="20"/>
    <mask id="z" width="249" height="249" x="0" y="0" fill="white">
      <use xlink:href="#m"/>
    </mask>
  </defs>
  <g fill="none" fill-rule="evenodd">
    <rect width="249" height="249" rx="20"/>
    <use fill="#FFF0EF" stroke="#000000" stroke-opacity=".05" stroke-width="4" mask="url(#n)" xlink:href="#a"/>
    <g transform="translate(64 194)">
      <use fill="#FAFAFA" stroke="#EEEEEE" stroke-width="4" mask="url(#o)" transform="matrix(-1 0 0 1 181.524 0)" xlink:href="#b"/>
      <use fill="#FAFAFA" stroke="#EEEEEE" stroke-width="4" mask="url(#p)" xlink:href="#c"/>
      <use fill="#FAFAFA" stroke="#EEEEEE" stroke-width="4" mask="url(#q)" stroke-linecap="round" xlink:href="#d"/>
      <rect width="3" height="3" x="60" y="27" fill="#8C8C8C" rx="1.5"/>
      <rect width="3" height="3" x="60" y="41" fill="#8C8C8C" rx="1.5"/>
      <use fill="#FAFAFA" stroke="#EEEEEE" stroke-width="4" mask="url(#r)" transform="matrix(-1 0 0 1 86.772 0)" xlink:href="#e"/>
    </g>
    <g transform="translate(51 17)">
      <use fill="#7F7F58" stroke="#000000" stroke-opacity=".05" stroke-width="4" mask="url(#s)" xlink:href="#f"/>
      <g fill="#FFF0EF" stroke="#000000" stroke-opacity=".05" stroke-width="4" transform="translate(0 89)">
        <use mask="url(#t)" xlink:href="#g"/>
        <use mask="url(#u)" xlink:href="#h"/>
      </g>
      <g transform="translate(13 17)">
        <use fill="#FFF0EF" stroke="#000000" stroke-opacity=".05" stroke-width="4" mask="url(#v)" xlink:href="#i"/>
        <use fill="#7F7F58" stroke="#000000" stroke-opacity=".05" stroke-width="4" mask="url(#w)" xlink:href="#j"/>
        <path fill="#FCCECE" fill-rule="nonzero" d="M50.2038378,128.605083 C52.313435,131.380869 55.6146527,133 60.5,133 C64.8245194,133 66.9956254,131.979771 70.0795369,129.263133 C70.0981424,129.246743 70.5329755,128.862691 70.6594378,128.751759 C71.0746229,128.387562 71.1159566,127.755747 70.7517591,127.340562 C70.3875617,126.925377 69.7557473,126.884043 69.3405622,127.248241 C69.2110604,127.361839 68.7738733,127.74797 68.7575143,127.762381 C66.0079919,130.184454 64.2724622,131 60.5,131 C56.2364072,131 53.5255416,129.670416 51.7961622,127.394917 C51.4619839,126.955208 50.834625,126.86966 50.3949167,127.203838 C49.9552085,127.538016 49.8696595,128.165375 50.2038378,128.605083 Z"/>
        <g transform="translate(15)">
          <path fill="#7F7F58" d="M59.2048291,1.97915649 C57.9678896,1.64678107 56.6475704,1.41102744 55.2384584,1.28340688 C27.9580639,-1.18732599 0.730510002,11.5246745 0.730510002,11.5246745 C0.730510002,11.5246745 15.0339275,29.7541397 41.7763902,32.7541397 C68.5188529,35.7541397 76.5188529,46.7541397 76.5188529,46.7541397 C76.5188529,46.7541397 77.259333,41.4473659 77.037276,34.4552629 C95.6235364,38.6480796 101.518853,46.7541397 101.518853,46.7541397 C101.518853,46.7541397 107.518853,3.75413974 80.2384584,1.28340688 C73.0584423,0.633126632 65.8820866,1.03456486 59.2048291,1.97915649 L59.2048291,1.97915649 Z"/>
          <path fill="#000000" fill-opacity=".05" fill-rule="nonzero" d="M100.554266,42.935982 C101.029492,43.3463098 101.442401,43.7282107 101.796031,44.0761547 C102.573428,34.6385869 103.379659,3.3792609 80.2384584,1.28340688 L80.0580606,3.27525442 C90.6323092,4.23294378 96.5776231,11.8477635 98.9658132,24.338997 C100.094065,30.2402256 100.293367,36.5272741 99.9139559,42.3987504 C100.133231,42.5776032 100.346648,42.7567169 100.554266,42.935982 Z M67.2772828,37.5877997 C60.6631832,34.3133929 52.300565,31.9222084 41.9993539,30.7666068 C31.5447909,29.593802 22.2890524,25.9773541 14.2690067,20.6784961 C10.79524,18.3833725 7.79220113,15.9258499 5.27203187,13.4733737 C4.43365083,12.6575121 3.70923773,11.9000588 3.10006257,11.2194567 L0.730510002,11.5246745 C0.730510002,11.5246745 15.0339275,29.7541397 41.7763902,32.7541397 C61.5843261,34.9762166 71.1096772,41.587294 74.7177758,44.8664872 C74.7476398,44.5558391 74.7770441,44.2262384 74.8055137,43.8787147 C74.8452595,43.3935439 74.8812217,42.8997043 74.9130371,42.398001 C72.8843096,40.7433863 70.3542773,39.1111109 67.2772828,37.5877997 Z M99.8055137,43.8787147 C99.7770441,44.2262384 99.7476398,44.5558391 99.7177758,44.8664872 C96.9542441,42.3548723 90.7194119,37.8886388 79.0518372,34.936954 C79.0472387,34.7556567 79.0420528,34.5739238 79.0362681,34.3917784 L78.5328498,34.8075517 C78.0437117,34.6873628 77.5452334,34.5698514 77.037276,34.4552629 C77.0541023,34.9850899 77.065402,35.5052399 77.0719158,36.0141374 L76.5971618,36.4062369 C76.7577521,36.4424639 76.9176442,36.4790475 77.0768398,36.5159849 C77.0979596,39.606825 76.9464557,42.2500077 76.7960313,44.0761547 C76.4424011,43.7282107 76.0294917,43.3463098 75.554266,42.935982 C75.3463581,42.7564665 75.1326344,42.5771029 74.9130371,42.398001 C75.069549,39.9299373 75.1257086,37.2715701 75.0382838,34.5187474 L74.956246,31.9355518 L77.4773901,32.5042889 C83.1893919,33.7928416 88.1042688,35.521888 92.2772828,37.5877997 C95.3547418,39.1113409 97.8850735,40.7438792 99.9139559,42.3987504 C99.8818753,42.8952043 99.8456573,43.3886873 99.8055137,43.8787147 Z M101.518853,46.7541397 C101.518853,46.7541397 101.557915,46.4741965 101.615405,45.9581874 L100.980382,46.1170102 C101.350312,46.5223966 101.518853,46.7541397 101.518853,46.7541397 Z M76.6154047,45.9581874 C76.5579148,46.4741965 76.5188529,46.7541397 76.5188529,46.7541397 C76.5188529,46.7541397 76.3503125,46.5223966 75.9803823,46.1170102 L76.6154047,45.9581874 Z M74.8055137,43.8787147 C74.7770441,44.2262384 74.7476398,44.5558391 74.7177758,44.8664872 C71.1096772,41.587294 61.5843261,34.9762166 41.7763902,32.7541397 C15.0339275,29.7541397 0.730510002,11.5246745 0.730510002,11.5246745 L3.10006257,11.2194567 C3.70923773,11.9000588 4.43365083,12.6575121 5.27203187,13.4733737 C7.79220113,15.9258499 10.79524,18.3833725 14.2690067,20.6784961 C22.2890524,25.9773541 31.5447909,29.593802 41.9993539,30.7666068 C52.300565,31.9222084 60.6631832,34.3133929 67.2772828,37.5877997 C70.3542773,39.1111109 72.8843096,40.7433863 74.9130371,42.398001 C74.8812217,42.8997043 74.8452595,43.3935439 74.8055137,43.8787147 Z M75.0382838,34.5187474 L74.956246,31.9355518 L77.4773901,32.5042889 C83.1893919,33.7928416 88.1042688,35.521888 92.2772828,37.5877997 C95.3547418,39.1113409 97.8850735,40.7438792 99.9139559,42.3987504 C99.8818753,42.8952043 99.8456573,43.3886873 99.8055137,43.8787147 C99.7770441,44.2262384 99.7476398,44.5558391 99.7177758,44.8664872 C96.9542441,42.3548723 90.7194119,37.8886388 79.0518372,34.936954 C79.0472387,34.7556567 79.0420528,34.5739238 79.0362681,34.3917784 L78.5328498,34.8075517 C78.0437117,34.6873628 77.5452334,34.5698514 77.037276,34.4552629 C77.0541023,34.9850899 77.065402,35.5052399 77.0719158,36.0141374 L76.5971618,36.4062369 C76.7577521,36.4424639 76.9176442,36.4790475 77.0768398,36.5159849 C77.0979596,39.606825 76.9464557,42.2500077 76.7960313,44.0761547 C76.4424011,43.7282107 76.0294917,43.3463098 75.554266,42.935982 C75.3463581,42.7564665 75.1326344,42.5771029 74.9130371,42.398001 C75.069549,39.9299373 75.1257086,37.2715701 75.0382838,34.5187474 Z M101.615405,45.9581874 C101.557915,46.4741965 101.518853,46.7541397 101.518853,46.7541397 C101.518853,46.7541397 101.350312,46.5223966 100.980382,46.1170102 L101.615405,45.9581874 Z M76.6154047,45.9581874 C76.5579148,46.4741965 76.5188529,46.7541397 76.5188529,46.7541397 C76.5188529,46.7541397 76.3503125,46.5223966 75.9803823,46.1170102 L76.6154047,45.9581874 Z"/>
        </g>
        <g fill="#FF0000" transform="translate(11 100)" opacity=".04">
          <circle cx="7" cy="7" r="7" style="mix-blend-mode:multiply"/>
          <circle cx="93" cy="7" r="7" style="mix-blend-mode:multiply"/>
        </g>
        <g fill="#7F7F58" stroke="#000000" stroke-opacity=".05" stroke-width="4" transform="translate(17 72)">
          <use mask="url(#x)" xlink:href="#k"/>
          <use mask="url(#y)" xlink:href="#l"/>
        </g>
        <path fill="#000000" fill-opacity=".05" fill-rule="nonzero" d="M69,93 L69,105.509019 C69,110.198662 65.1953693,114 60.5,114 C55.805083,114 52,110.198746 52,105.509019 L52,93 L50,93 L50,105.509019 C50,111.303767 54.700964,116 60.5,116 C66.2995513,116 71,111.30362 71,105.509019 L71,93 L69,93 Z"/>
        <g fill="#5C5C5C" transform="translate(31 83)">
          <circle cx="3.5" cy="3.5" r="3.5"/>
          <circle cx="55.5" cy="3.5" r="3.5"/>
        </g>
        <g transform="translate(2 75)">
          <rect width="38" height="24" x="10" fill="#2EA8E5" fill-opacity=".05" rx="5"/>
          <path fill="#BFBFBF" fill-rule="nonzero" d="M11,5.00197269 L11,18.9980273 C11,21.209999 12.7925483,23 15.0069123,23 L42.9930877,23 C45.2102982,23 47,21.2104675 47,18.9980273 L47,5.00197269 C47,2.79000104 45.2074517,1 42.9930877,1 L15.0069123,1 C12.7897018,1 11,2.78953249 11,5.00197269 Z M10,5.00197269 C10,2.23945945 12.2352052,0 15.0069123,0 L42.9930877,0 C45.758329,0 48,2.23630996 48,5.00197269 L48,18.9980273 C48,21.7605405 45.7647948,24 42.9930877,24 L15.0069123,24 C12.241671,24 10,21.76369 10,18.9980273 L10,5.00197269 Z"/>
          <path fill="#FFFFFF" fill-opacity=".3" d="M47.9930877,5 L47.9930877,18.9960546 C47.9930877,21.7585679 45.7578826,23.9980273 42.9861755,23.9980273 L15,23.9980273 L47.9930877,5 Z"/>
          <rect width="11" height="3" y="8" fill="#BFBFBF" rx="1.5"/>
          <rect width="11" height="3" x="106" y="8" fill="#BFBFBF" rx="1.5"/>
          <g transform="translate(69)">
            <rect width="38" height="24" fill="#2EA8E5" fill-opacity=".05" rx="5"/>
            <path fill="#FFFFFF" fill-opacity=".3" d="M37.9930877,5 L37.9930877,18.9960546 C37.9930877,21.7585679 35.7578826,23.9980273 32.9861755,23.9980273 L5,23.9980273 L37.9930877,5 Z"/>
            <path fill="#BFBFBF" fill-rule="nonzero" d="M1,5.00197269 L1,18.9980273 C1,21.209999 2.79254834,23 5.00691225,23 L32.9930877,23 C35.2102982,23 37,21.2104675 37,18.9980273 L37,5.00197269 C37,2.79000104 35.2074517,1 32.9930877,1 L5.00691225,1 C2.78970183,1 1,2.78953249 1,5.00197269 Z M0,5.00197269 C0,2.23945945 2.23520515,0 5.00691225,0 L32.9930877,0 C35.758329,0 38,2.23630996 38,5.00197269 L38,18.9980273 C38,21.7605405 35.7647948,24 32.9930877,24 L5.00691225,24 C2.24167097,24 0,21.76369 0,18.9980273 L0,5.00197269 Z"/>
          </g>
          <path fill="#BFBFBF" fill-rule="nonzero" d="M48.2666645,8.56052622 C48.8575549,7.03220518 50.3338169,6 51.9906574,6 L65.0093426,6 C66.7636979,6 68.2991757,7.14760167 68.8174762,8.79900056 C68.9828595,9.32594156 69.5440992,9.61904201 70.0710402,9.45365874 C70.5979812,9.28827547 70.8910816,8.72703576 70.7256983,8.20009476 C69.9477524,5.72141824 67.6445145,4 65.0093426,4 L51.9906574,4 C49.5000974,4 47.2874708,5.54707263 46.4012335,7.83929995 C46.2020724,8.35442449 46.4582113,8.93346743 46.9733359,9.13262856 C47.4884604,9.3317897 48.0675033,9.07565075 48.2666645,8.56052622 Z"/>
        </g>
      </g>
    </g>
    <use stroke="#E5E5E5" stroke-width="12" mask="url(#z)" xlink:href="#m"/>
  </g>
</svg>
