<svg xmlns="http://www.w3.org/2000/svg" width="249" height="249" viewBox="0 0 249 249" xmlns:xlink="http://www.w3.org/1999/xlink">
  <defs>
    <rect id="k" width="248" height="248" rx="20"/>
    <rect id="a" width="248" height="248" rx="20"/>
    <mask id="l" width="248" height="248" x="0" y="0" fill="white">
      <use xlink:href="#a"/>
    </mask>
    <mask id="m" width="248" height="248" x="0" y="0" fill="white">
      <use xlink:href="#a"/>
    </mask>
    <rect id="b" width="121" height="81" x="64" y="201" rx="30"/>
    <mask id="o" width="121" height="81" x="0" y="0" fill="white">
      <use xlink:href="#b"/>
    </mask>
    <path id="c" d="M107,191.006168 C107,185.479914 111.468325,181 117.006168,181 L131.993832,181 C137.520086,181 142,185.468325 142,191.006168 L142,198.5 C142,208.164983 134.167108,216 124.5,216 L124.5,216 C114.835017,216 107,208.167108 107,198.5 L107,191.006168 Z"/>
    <mask id="p" width="35" height="35" x="0" y="0" fill="white">
      <use xlink:href="#c"/>
    </mask>
    <path id="d" d="M36.5769854,11.8471949 C20.4440071,18.0456356 9,33.6850531 9,51.9984971 L9,105.993951 C9,108.762732 11.2375097,111 13.9976177,111 L28.0761498,111 C39.8358143,122.740319 56.0701124,130 74,130 C91.9298876,130 108.164186,122.740319 119.92385,111 L133.002382,111 C135.760963,111 138,108.758715 138,105.993951 L138,76.4204851 C138.65716,72.7127434 139,68.896409 139,65 C139,61.1035902 138.65716,57.287255 138,53.5795149 L138,51.9984971 C138,34.5939127 127.663948,19.6095224 112.796465,12.8429776 C101.96796,4.77516756 88.5416301,0 74,0 C60.0671124,0 47.1581019,4.38373907 36.5769943,11.8471915 Z"/>
    <mask id="q" width="130" height="130" x="0" y="0" fill="white">
      <use xlink:href="#d"/>
    </mask>
    <circle id="e" cx="130" cy="17" r="17"/>
    <mask id="r" width="34" height="34" x="0" y="0" fill="white">
      <use xlink:href="#e"/>
    </mask>
    <circle id="f" cx="17" cy="17" r="17"/>
    <mask id="s" width="34" height="34" x="0" y="0" fill="white">
      <use xlink:href="#f"/>
    </mask>
    <path id="g" d="M13.0419168,29 L13,29 L13,86.9913905 C13,114.62233 35.3863591,137 63.0013326,137 L83.9986674,137 C111.612765,137 134,114.610383 134,86.9913905 L134,29 L133.958083,29 C133.441229,15.0116241 127.347764,-4.10258602e-14 73.5,-1.42108547e-14 C19.6522364,1.18751825e-14 13.5587712,15.0116241 13.0419168,29 Z"/>
    <mask id="t" width="121" height="137" x="0" y="0" fill="white">
      <use xlink:href="#g"/>
    </mask>
    <rect id="h" width="19" height="6" x="1" y="1" rx="1.5"/>
    <mask id="u" width="19" height="6" x="0" y="0" fill="white">
      <use xlink:href="#h"/>
    </mask>
    <rect id="i" width="19" height="6" x="60" y="1" rx="1.5"/>
    <mask id="v" width="19" height="6" x="0" y="0" fill="white">
      <use xlink:href="#i"/>
    </mask>
    <rect id="j" width="249" height="249" rx="20"/>
    <mask id="w" width="249" height="249" x="0" y="0" fill="white">
      <use xlink:href="#j"/>
    </mask>
    <mask id="x" width="249" height="249" x="0" y="0" fill="white">
      <use xlink:href="#j"/>
    </mask>
  </defs>
  <g fill="none" fill-rule="evenodd">
    <use fill="#FFFFFF" xlink:href="#k"/>
    <mask id="n" fill="white">
      <use xlink:href="#a"/>
    </mask>
    <use fill="#FFFFFF" stroke="#E5E5E5" stroke-width="12" mask="url(#m)" xlink:href="#a"/>
    <use fill="#6C7C90" stroke="#000000" stroke-opacity=".05" stroke-width="4" mask="url(#o)" xlink:href="#b"/>
    <use fill="#FFF0EF" stroke="#000000" stroke-opacity=".05" stroke-width="4" mask="url(#p)" xlink:href="#c"/>
    <g transform="translate(51 20)" mask="url(#n)">
      <use fill="#A79586" stroke="#000000" stroke-opacity=".05" stroke-width="4" mask="url(#q)" xlink:href="#d"/>
      <g transform="translate(0 37)">
        <g fill="#FFF0EF" stroke="#000000" stroke-opacity=".05" stroke-width="4" transform="translate(0 49)">
          <use mask="url(#r)" xlink:href="#e"/>
          <use mask="url(#s)" xlink:href="#f"/>
        </g>
        <use fill="#FFF0EF" stroke="#000000" stroke-opacity=".05" stroke-width="4" mask="url(#t)" xlink:href="#g"/>
        <g fill="#FF0000" transform="translate(24 77)" opacity=".04">
          <circle cx="7" cy="7" r="7" style="mix-blend-mode:multiply"/>
          <circle cx="93" cy="7" r="7" style="mix-blend-mode:multiply"/>
        </g>
        <path fill="#FCCECE" fill-rule="nonzero" d="M51,104 C51,108.446901 58.8809107,110 73.5,110 C88.1190893,110 96,108.446901 96,104 C96,103.447715 95.5522847,103 95,103 C94.4477153,103 94,103.447715 94,104 C94,106.522111 86.5007262,108 73.5,108 C60.4992738,108 53,106.522111 53,104 C53,103.447715 52.5522847,103 52,103 C51.4477153,103 51,103.447715 51,104 Z"/>
        <g fill="#000000" transform="translate(30 96)" opacity=".05">
          <rect width="2" height="17" x="21" y="16" rx="1"/>
          <rect width="2" height="15" x="14" y="16" rx="1"/>
          <rect width="2" height="15" x="7" y="13" rx="1"/>
          <rect width="2" height="13" y="10" rx="1"/>
          <rect width="2" height="17" x="28" y="19" rx="1"/>
          <path d="M35 19.9999602C35 19.4476974 35.4438648 19 36 19L36 19C36.5522847 19 37 19.4547089 37 19.9999602L37 35.0000398C37 35.5523026 36.5561352 36 36 36L36 36C35.4477153 36 35 35.5452911 35 35.0000398L35 19.9999602zM42 19.9999602C42 19.4476974 42.4438648 19 43 19L43 19C43.5522847 19 44 19.4547089 44 19.9999602L44 35.0000398C44 35.5523026 43.5561352 36 43 36L43 36C42.4477153 36 42 35.5452911 42 35.0000398L42 19.9999602zM49 19.9999602C49 19.4476974 49.4438648 19 50 19L50 19C50.5522847 19 51 19.4547089 51 19.9999602L51 35.0000398C51 35.5523026 50.5561352 36 50 36L50 36C49.4477153 36 49 35.5452911 49 35.0000398L49 19.9999602zM56 19.9999602C56 19.4476974 56.4438648 19 57 19L57 19C57.5522847 19 58 19.4547089 58 19.9999602L58 35.0000398C58 35.5523026 57.5561352 36 57 36L57 36C56.4477153 36 56 35.5452911 56 35.0000398L56 19.9999602zM63 16.9999602C63 16.4476974 63.4438648 16 64 16L64 16C64.5522847 16 65 16.4547089 65 16.9999602L65 32.0000398C65 32.5523026 64.5561352 33 64 33L64 33C63.4477153 33 63 32.5452911 63 32.0000398L63 16.9999602zM70 17.007484C70 16.4510659 70.4438648 16 71 16L71 16C71.5522847 16 72 16.4489202 72 17.007484L72 29.992516C72 30.5489341 71.5561352 31 71 31L71 31C70.4477153 31 70 30.5510798 70 29.992516L70 17.007484zM77 14.007484C77 13.4510659 77.4438648 13 78 13L78 13C78.5522847 13 79 13.4489202 79 14.007484L79 26.992516C79 27.5489341 78.5561352 28 78 28L78 28C77.4477153 28 77 27.5510798 77 26.992516L77 14.007484zM84 10.9985023C84 10.4470447 84.4438648 10 85 10L85 10C85.5522847 10 86 10.4474894 86 10.9985023L86 22.0014977C86 22.5529553 85.5561352 23 85 23L85 23C84.4477153 23 84 22.5525106 84 22.0014977L84 10.9985023zM25 1.00292933C25 .449026756 25.4438648 0 26 0L26 0C26.5522847 0 27 .437881351 27 1.00292933L27 5.99707067C27 6.55097324 26.5561352 7 26 7L26 7C25.4477153 7 25 6.56211865 25 5.99707067L25 1.00292933zM32 2.00292933C32 1.44902676 32.4438648 1 33 1L33 1C33.5522847 1 34 1.43788135 34 2.00292933L34 6.99707067C34 7.55097324 33.5561352 8 33 8L33 8C32.4477153 8 32 7.56211865 32 6.99707067L32 2.00292933zM39 3.00292933C39 2.44902676 39.4438648 2 40 2L40 2C40.5522847 2 41 2.43788135 41 3.00292933L41 7.99707067C41 8.55097324 40.5561352 9 40 9L40 9C39.4477153 9 39 8.56211865 39 7.99707067L39 3.00292933zM46 3.00292933C46 2.44902676 46.4438648 2 47 2L47 2C47.5522847 2 48 2.43788135 48 3.00292933L48 7.99707067C48 8.55097324 47.5561352 9 47 9L47 9C46.4477153 9 46 8.56211865 46 7.99707067L46 3.00292933zM53 2.00292933C53 1.44902676 53.4438648 1 54 1L54 1C54.5522847 1 55 1.43788135 55 2.00292933L55 6.99707067C55 7.55097324 54.5561352 8 54 8L54 8C53.4477153 8 53 7.56211865 53 6.99707067L53 2.00292933zM60 1.00292933C60 .449026756 60.4438648 0 61 0L61 0C61.5522847 0 62 .437881351 62 1.00292933L62 5.99707067C62 6.55097324 61.5561352 7 61 7L61 7C60.4477153 7 60 6.56211865 60 5.99707067L60 1.00292933z"/>
        </g>
        <g fill="#A79586" stroke="#000000" stroke-opacity=".05" stroke-width="4" transform="translate(34 46)">
          <use mask="url(#u)" transform="rotate(1 10.5 4)" xlink:href="#h"/>
          <use mask="url(#v)" transform="rotate(-1 69.5 4)" xlink:href="#i"/>
        </g>
        <path fill="#000000" fill-opacity=".05" fill-rule="nonzero" d="M82,70 L82,82.5090186 C82,87.1986623 78.1953693,91 73.5,91 C68.805083,91 65,87.1987465 65,82.5090186 L65,70 L63,70 L63,82.5090186 C63,88.303767 67.700964,93 73.5,93 C79.2995513,93 84,88.3036196 84,82.5090186 L84,70 L82,70 Z"/>
        <g fill="#5C5C5C" transform="translate(44 60)">
          <circle cx="3.5" cy="3.5" r="3.5"/>
          <circle cx="55.5" cy="3.5" r="3.5"/>
        </g>
      </g>
      <g transform="translate(54 12)">
        <path fill="#A69586" d="M19.4029377,8.4814058 C14.7582811,5.57279372 9.86936474,4.837818 6.12435565,7 C-0.571741075,10.8659932 -1.07513225,22.5301212 5,33.0525589 C11.0751322,43.5749966 26.1635444,44.8393462 26.1635444,44.8393462 C27.2464705,44.9861278 28.4757519,44.2867353 28.8807841,43.2577627 C28.8807841,43.2577627 30.3352115,40.1690764 31.2104601,35.7981362 C37.4743659,39.2788193 44.1635444,39.8393462 44.1635444,39.8393462 C45.2464705,39.9861278 46.4757519,39.2867353 46.8807841,38.2577627 C46.8807841,38.2577627 53.3238436,24.5749966 47.2487113,14.0525589 C41.1735791,3.53012117 30.8204524,-1.86599325 24.1243557,2 C21.7971282,3.34362539 20.2179232,5.62919451 19.4029377,8.4814058 L19.4029377,8.4814058 Z"/>
        <path fill="#000000" fill-opacity=".05" fill-rule="nonzero" d="M33.1715299,36.190826 L32.5302684,36.4872456 C32.0898757,36.2713234 31.6491251,36.0418905 31.2104601,35.7981362 C31.1103251,36.2982044 31.0026093,36.7814891 30.8903578,37.2452852 L30.2390174,37.5463636 C30.4068202,37.6396071 30.5758446,37.7314162 30.7460613,37.821804 C29.9004787,41.0922943 28.8807841,43.2577627 28.8807841,43.2577627 C28.4757519,44.2867353 27.2464705,44.9861278 26.1635444,44.8393462 C26.1635444,44.8393462 11.0751322,43.5749966 5,33.0525589 C-1.07513225,22.5301212 -0.571741075,10.8659932 6.12435565,7 L7.12435565,8.73205081 C1.59102238,11.9267223 1.14042424,22.3675776 6.73205081,32.0525589 C8.57608033,35.2465117 11.4965976,37.7381219 15.2301575,39.6021362 C17.6581158,40.8143168 20.2786422,41.6871459 22.9016594,42.2702001 C23.820143,42.4743642 24.6710054,42.6272405 25.4305897,42.7359734 C25.8757099,42.7996914 26.1835284,42.8340112 26.3305512,42.8463312 C26.6152319,42.8822807 26.9569652,42.6847687 27.0197697,42.5252156 L27.0713562,42.4057236 C27.14664,42.2458476 27.2923341,41.9107331 27.4852338,41.4216498 C27.8135855,40.5891374 28.1434456,39.6441355 28.451822,38.6082997 C28.7606607,37.5709111 29.030301,36.4995657 29.2493903,35.4054464 L29.7872756,32.7192792 L32.1819028,34.0499088 C32.52474,34.2404141 32.8742838,34.424463 33.2301575,34.6021362 C35.6581158,35.8143168 38.2786422,36.6871459 40.9016594,37.2702001 C41.820143,37.4743642 42.6710054,37.6272405 43.4305897,37.7359734 C43.8757099,37.7996914 44.1835284,37.8340112 44.3305512,37.8463312 C44.6152319,37.8822807 44.9569652,37.6847687 45.0197697,37.5252156 L45.0713562,37.4057236 C45.14664,37.2458476 45.2923341,36.9107331 45.4852338,36.4216498 C45.8135855,35.5891374 46.1434456,34.6441355 46.451822,33.6082997 C47.7637633,29.201491 48.2648341,24.6926505 47.5045164,20.5600586 C47.1386343,18.5713618 46.4847312,16.7293066 45.5166605,15.0525589 L47.2487113,14.0525589 C53.3238436,24.5749966 46.8807841,38.2577627 46.8807841,38.2577627 C46.4757519,39.2867353 45.2464705,39.9861278 44.1635444,39.8393462 C44.1635444,39.8393462 38.7211529,39.3832952 33.0575286,36.7395066 C33.0967593,36.5572897 33.1347735,36.3743851 33.1715299,36.190826 Z M33.1715299,36.190826 L32.5302684,36.4872456 C32.0898757,36.2713234 31.6491251,36.0418905 31.2104601,35.7981362 C31.1103251,36.2982044 31.0026093,36.7814891 30.8903578,37.2452852 L30.2390174,37.5463636 C30.4068202,37.6396071 30.5758446,37.7314162 30.7460613,37.821804 C29.9004787,41.0922943 28.8807841,43.2577627 28.8807841,43.2577627 C28.4757519,44.2867353 27.2464705,44.9861278 26.1635444,44.8393462 C26.1635444,44.8393462 11.0751322,43.5749966 5,33.0525589 C-1.07513225,22.5301212 -0.571741075,10.8659932 6.12435565,7 L7.12435565,8.73205081 C1.59102238,11.9267223 1.14042424,22.3675776 6.73205081,32.0525589 C8.57608033,35.2465117 11.4965976,37.7381219 15.2301575,39.6021362 C17.6581158,40.8143168 20.2786422,41.6871459 22.9016594,42.2702001 C23.820143,42.4743642 24.6710054,42.6272405 25.4305897,42.7359734 C25.8757099,42.7996914 26.1835284,42.8340112 26.3305512,42.8463312 C26.6152319,42.8822807 26.9569652,42.6847687 27.0197697,42.5252156 L27.0713562,42.4057236 C27.14664,42.2458476 27.2923341,41.9107331 27.4852338,41.4216498 C27.8135855,40.5891374 28.1434456,39.6441355 28.451822,38.6082997 C28.7606607,37.5709111 29.030301,36.4995657 29.2493903,35.4054464 L29.7872756,32.7192792 L32.1819028,34.0499088 C32.52474,34.2404141 32.8742838,34.424463 33.2301575,34.6021362 C35.6581158,35.8143168 38.2786422,36.6871459 40.9016594,37.2702001 C41.820143,37.4743642 42.6710054,37.6272405 43.4305897,37.7359734 C43.8757099,37.7996914 44.1835284,37.8340112 44.3305512,37.8463312 C44.6152319,37.8822807 44.9569652,37.6847687 45.0197697,37.5252156 L45.0713562,37.4057236 C45.14664,37.2458476 45.2923341,36.9107331 45.4852338,36.4216498 C45.8135855,35.5891374 46.1434456,34.6441355 46.451822,33.6082997 C47.7637633,29.201491 48.2648341,24.6926505 47.5045164,20.5600586 C47.1386343,18.5713618 46.4847312,16.7293066 45.5166605,15.0525589 L47.2487113,14.0525589 C53.3238436,24.5749966 46.8807841,38.2577627 46.8807841,38.2577627 C46.4757519,39.2867353 45.2464705,39.9861278 44.1635444,39.8393462 C44.1635444,39.8393462 38.7211529,39.3832952 33.0575286,36.7395066 C33.0967593,36.5572897 33.1347735,36.3743851 33.1715299,36.190826 Z"/>
      </g>
    </g>
    <use stroke="#E5E5E5" stroke-width="12" mask="url(#x)" xlink:href="#j"/>
  </g>
</svg>
