<svg width="588" height="160" viewBox="0 0 588 160" xmlns="http://www.w3.org/2000/svg"><title>typo-and-text--monochromatic</title><g fill="#FFF" fill-rule="evenodd"><path d="M115 135h.997H115zm-79 0h-6c-5.523 0-10-4.477-10-10V38.98c0-5.522 4.477-10 10-10a10 10 0 0 1 7.072 2.93l48.3 48.312 36.927-44.584a10 10 0 0 1 7.701-3.62c5.523 0 10 4.476 10 10V125c0 5.523-4.477 10-10 10H36zm0-15h16.424l21.554-26.022L36 56v64zm38.282 0H123V63l-48.718 57zM210.64 120l-16.5-53.766h-.421c.594 10.938.89 18.235.89 21.891V120h-12.984V51.469h19.781l16.219 52.406h.281l17.203-52.406h19.782V120h-13.547V87.562c0-1.53.023-3.296.07-5.296.047-2 .258-7.313.633-15.938h-.422L223.953 120h-13.312zm82.079-43.219c-3.032 0-5.406.961-7.125 2.883-1.719 1.922-2.703 4.648-2.953 8.18h20.062c-.062-3.532-.984-6.258-2.765-8.18-1.782-1.922-4.188-2.883-7.22-2.883zm2.015 44.156c-8.437 0-15.03-2.328-19.78-6.984-4.75-4.656-7.126-11.25-7.126-19.781 0-8.781 2.195-15.57 6.586-20.367 4.39-4.797 10.461-7.196 18.211-7.196 7.406 0 13.172 2.11 17.297 6.329 4.125 4.218 6.187 10.046 6.187 17.484v6.937h-33.796c.156 4.063 1.359 7.235 3.609 9.516 2.25 2.281 5.406 3.422 9.469 3.422 3.156 0 6.14-.328 8.953-.984 2.812-.657 5.75-1.704 8.812-3.141v11.062a33.57 33.57 0 0 1-8.015 2.79c-2.844.609-6.313.913-10.407.913zm47.297-.937h-14.297V47.062h14.297V120zm37.078-10.453c2.5 0 5.5-.547 9-1.64v10.64c-3.562 1.594-7.937 2.39-13.125 2.39-5.718 0-9.882-1.445-12.492-4.335-2.61-2.891-3.914-7.227-3.914-13.008V78.328h-6.844v-6.047l7.875-4.781 4.125-11.063h9.141v11.157h14.672v10.734h-14.672v25.266c0 2.031.57 3.531 1.71 4.5 1.142.969 2.65 1.453 4.524 1.453zM431.984 120l-2.765-7.125h-.375c-2.407 3.031-4.883 5.133-7.43 6.305-2.547 1.172-5.867 1.757-9.96 1.757-5.032 0-8.993-1.437-11.884-4.312-2.89-2.875-4.336-6.969-4.336-12.281 0-5.563 1.946-9.664 5.836-12.305 3.891-2.64 9.758-4.101 17.602-4.383l9.094-.281v-2.297c0-5.312-2.72-7.969-8.157-7.969-4.187 0-9.109 1.266-14.765 3.797l-4.735-9.656c6.032-3.156 12.72-4.734 20.063-4.734 7.031 0 12.422 1.53 16.172 4.593 3.75 3.063 5.625 7.72 5.625 13.97V120h-9.985zm-4.218-24.281l-5.532.187c-4.156.125-7.25.875-9.28 2.25-2.032 1.375-3.048 3.469-3.048 6.281 0 4.032 2.313 6.047 6.938 6.047 3.312 0 5.96-.953 7.945-2.859 1.984-1.906 2.977-4.437 2.977-7.594V95.72zM505.062 120h-14.296V89.39c0-3.78-.672-6.617-2.016-8.507-1.344-1.89-3.484-2.836-6.422-2.836-4 0-6.89 1.336-8.672 4.008-1.781 2.672-2.672 7.101-2.672 13.289V120h-14.296V67.594h10.921l1.922 6.703h.797c1.594-2.531 3.79-4.445 6.586-5.742 2.797-1.297 5.977-1.946 9.54-1.946 6.093 0 10.718 1.649 13.874 4.946 3.156 3.297 4.735 8.054 4.735 14.273V120zm26.11-26.297c0 5.188.851 9.11 2.555 11.766 1.703 2.656 4.476 3.984 8.32 3.984 3.812 0 6.555-1.32 8.226-3.96 1.672-2.641 2.508-6.571 2.508-11.79 0-5.187-.843-9.078-2.531-11.672-1.688-2.594-4.453-3.89-8.297-3.89-3.812 0-6.562 1.289-8.25 3.867-1.687 2.578-2.531 6.476-2.531 11.695zm36.234 0c0 8.531-2.25 15.203-6.75 20.016-4.5 4.812-10.765 7.219-18.797 7.219-5.03 0-9.468-1.102-13.312-3.305-3.844-2.203-6.797-5.367-8.86-9.492-2.062-4.125-3.093-8.938-3.093-14.438 0-8.562 2.234-15.219 6.703-19.969 4.469-4.75 10.75-7.125 18.844-7.125 5.03 0 9.468 1.094 13.312 3.282 3.844 2.187 6.797 5.328 8.86 9.421 2.062 4.094 3.093 8.891 3.093 14.391z"/></g></svg>