<?xml version="1.0" encoding="UTF-8"?>
<svg width="16px" height="16px" viewBox="0 0 16 16" version="1.1" xmlns="http://www.w3.org/2000/svg" xmlns:xlink="http://www.w3.org/1999/xlink">
    <!-- Generator: Sketch 52.4 (67378) - http://www.bohemiancoding.com/sketch -->
    <title>icn/home</title>
    <desc>Created with Sketch.</desc>
    <defs>
        <path d="M8.99827486,2.40067972 L14.6029645,7.05617077 C15.0721367,7.44588501 15.1344282,8.13961249 14.7420964,8.60565448 C14.5316929,8.85558788 14.2205761,9.00001444 13.8925848,9.00001444 L2.10738842,9.00001444 C1.49579468,9.00001444 1,8.50752767 1,7.90001444 C1,7.57728161 1.14268057,7.2708305 1.39025002,7.06183057 L6.862516,2.44816935 C7.36065095,1.93807615 8.18333399,1.85808199 8.78321987,2.23557303 C8.85990474,2.28382862 8.93196409,2.3390113 8.99827486,2.40067972 Z M7.95699037,4.142863 L4.57257101,7.00001444 L11.3966806,7.00001444 L7.95699037,4.142863 Z M6.99372614,12.0000144 C6.99372614,11.4477297 7.44444858,11.0000144 8.00044288,11.0000144 C8.55643718,11.0000144 9.00715962,11.4477297 9.00715962,12.0000144 L11.0205931,12.0000144 L11.0205931,9.00001444 L13.0340266,9.00001444 L13.0340266,12.4672785 C13.0340266,13.2616501 12.4759086,14.0000144 11.6246231,14.0000144 L4.37626261,14.0000144 C3.52497712,14.0000144 2.96685917,13.2616501 2.96685917,12.4672785 L2.96685917,9.00001444 L4.98029265,9.00001444 L4.98029265,12.0000144 L6.99372614,12.0000144 Z" id="path-1"></path>
    </defs>
    <g id="icn/home" stroke="none" stroke-width="1" fill="none" fill-rule="evenodd">
        <mask id="mask-2" fill="white">
            <use xlink:href="#path-1"></use>
        </mask>
        <use id="Combined-Shape" fill="#000000" fill-rule="nonzero" xlink:href="#path-1"></use>
    </g>
</svg>