<?xml version="1.0" encoding="UTF-8"?>
<svg width="16px" height="16px" viewBox="0 0 16 16" version="1.1" xmlns="http://www.w3.org/2000/svg" xmlns:xlink="http://www.w3.org/1999/xlink">
    <!-- Generator: Sketch 48.2 (47327) - http://www.bohemiancoding.com/sketch -->
    <title>icn/leave</title>
    <desc>Created with Sketch.</desc>
    <defs>
        <path d="M9,12 C9,11.4477153 9.44771525,11 10,11 C10.5522847,11 11,11.4477153 11,12 C11,13.6568542 9.65685425,15 8,15 L4,15 C2.34314575,15 1,13.6568542 1,12 L1,4 C1,2.34314575 2.34314575,1 4,1 L8,1 C9.65685425,1 11,2.34314575 11,4 C11,4.55228475 10.5522847,5 10,5 C9.44771525,5 9,4.55228475 9,4 C9,3.44771525 8.55228475,3 8,3 L4,3 C3.44771525,3 3,3.44771525 3,4 L3,12 C3,12.5522847 3.44771525,13 4,13 L8,13 C8.55228475,13 9,12.5522847 9,12 Z M11,7 L11,5.50098527 C11,5.22429875 11.2191738,5 11.4895385,5 C11.6015489,5 11.7101718,5.03931009 11.797282,5.11137082 L14.8181885,7.61037711 C15.0284501,7.78431334 15.0611194,8.09975284 14.8911574,8.31493096 C14.8694731,8.34238401 14.8450143,8.36741473 14.8181885,8.38960602 L11.797282,10.8886123 C11.5870203,11.0625485 11.2787882,11.0291154 11.1088262,10.8139373 C11.0384119,10.7247903 11,10.6136274 11,10.4989979 L11,9 L7.0999999,9 C6.54771515,9 6.0999999,8.55228475 6.0999999,8 C6.0999999,7.44771525 6.54771515,7 7.0999999,7 L11,7 Z" id="path-1"></path>
    </defs>
    <g id="Icons" stroke="none" stroke-width="1" fill="none" fill-rule="evenodd">
        <g id="icn/leave">
            <mask id="mask-2" fill="white">
                <use xlink:href="#path-1"></use>
            </mask>
            <g id="Combined-Shape" fill-rule="nonzero"></g>
            <g id="c-fill/greys/$black-::-000000" mask="url(#mask-2)" fill="#000000">
                <rect id="fill/greys/$black-::-000000" x="0" y="0" width="16" height="16"></rect>
            </g>
        </g>
    </g>
</svg>