<?xml version="1.0" encoding="UTF-8"?>
<svg width="16px" height="16px" viewBox="0 0 16 16" version="1.1" xmlns="http://www.w3.org/2000/svg" xmlns:xlink="http://www.w3.org/1999/xlink">
    <!-- Generator: Sketch 48.2 (47327) - http://www.bohemiancoding.com/sketch -->
    <title>icn/settings</title>
    <desc>Created with Sketch.</desc>
    <defs>
        <path d="M7.99985298,10.3334395 C9.12068809,10.3334395 10.0293045,9.40483431 10.0293045,8.25934181 C10.0293045,7.1138493 9.12068809,6.18524415 7.99985298,6.18524415 C6.87901788,6.18524415 5.9704015,7.1138493 5.9704015,8.25934181 C5.9704015,9.40483431 6.87901788,10.3334395 7.99985298,10.3334395 Z M3.24024271,6.45940304 L2.29380919,5.17412253 C2.01382447,4.79389625 2.02297413,4.26771804 2.31600132,3.89789903 L2.59598825,3.54453764 C2.88901544,3.17471863 3.39071428,3.05617342 3.81283807,3.25701114 L5.21516483,3.92420903 C5.58423169,3.6760902 5.98687451,3.47587364 6.41462411,3.33221483 L6.79297259,1.78552754 C6.90590319,1.32386763 7.31177635,1 7.77740116,1 L8.22230481,1 C8.68792962,1 9.09380277,1.32386763 9.20673338,1.78552754 L9.58508186,3.33221483 C10.0127816,3.47585688 10.4153803,3.67604347 10.784412,3.92412219 L12.1869569,3.25682049 C12.6090807,3.05598277 13.1107795,3.17452798 13.4038067,3.54434699 L13.6837936,3.89770838 C13.9768208,4.26752739 13.9859705,4.7937056 13.7059858,5.17393189 L12.7594463,6.45935624 C12.9099732,6.87493862 13.0098783,7.31561846 13.0515108,7.77357644 L14.4464291,8.5010949 C14.86117,8.71740269 15.0786426,9.19442772 14.9738998,9.6580994 L14.8738183,10.1011368 C14.7690755,10.5648085 14.3689997,10.8961248 13.9034511,10.9047308 L12.3475961,10.933492 C12.1169063,11.3244005 11.8371685,11.6816682 11.5170926,11.9963937 L11.8388955,13.5484903 C11.9354163,14.0140221 11.709538,14.4869496 11.2910372,14.6955565 L10.8911605,14.8948799 C10.4726597,15.1034868 9.96894515,14.9942338 9.66942172,14.6298912 L8.65931116,13.401185 C8.44345563,13.429818 8.2233418,13.444586 7.99985298,13.444586 C7.77653351,13.444586 7.55658392,13.4298404 7.34088551,13.40125 L6.33074003,14.6299987 C6.0312166,14.9943413 5.52750208,15.1035944 5.10900128,14.8949875 L4.70912453,14.695664 C4.29062372,14.4870571 4.06474549,14.0141296 4.16126621,13.5485978 L4.48301046,11.9967841 C4.16283332,11.6820271 3.88300776,11.324706 3.65224921,10.9337281 L2.09654895,10.9049699 C1.63100029,10.8963638 1.23092454,10.5650475 1.12618175,10.1013759 L1.0261002,9.65833843 C0.92135741,9.19466675 1.13882997,8.71764172 1.55357091,8.50133393 L2.94815775,7.77398835 C2.98976616,7.3158999 3.08968016,6.8750963 3.24024271,6.45940304 Z" id="path-1"></path>
    </defs>
    <g id="Icons" stroke="none" stroke-width="1" fill="none" fill-rule="evenodd">
        <g id="icn/settings">
            <mask id="mask-2" fill="white">
                <use xlink:href="#path-1"></use>
            </mask>
            <g id="Combined-Shape" fill-rule="nonzero"></g>
            <g id="c-fill/greys/$black-::-000000" mask="url(#mask-2)" fill="#000000">
                <rect id="fill/greys/$black-::-000000" x="0" y="0" width="16" height="16"></rect>
            </g>
        </g>
    </g>
</svg>