<?xml version="1.0" encoding="UTF-8"?>
<svg width="16px" height="16px" viewBox="0 0 16 16" version="1.1" xmlns="http://www.w3.org/2000/svg" xmlns:xlink="http://www.w3.org/1999/xlink">
    <!-- Generator: Sketch 48.2 (47327) - http://www.bohemiancoding.com/sketch -->
    <title>icn/warning</title>
    <desc>Created with Sketch.</desc>
    <defs>
        <path d="M10.5885147,3.38620891 L14.5316902,9.46706275 C15.4293001,10.8512858 14.9979489,12.6779268 13.5682403,13.5469797 C13.081277,13.8429819 12.5179551,14 11.9429739,14 L4.05662287,14 C2.36849667,14 1,12.6750414 1,11.0406221 C1,10.4839337 1.16217773,9.93853355 1.46790653,9.46706275 L5.41108203,3.38620891 C6.30869191,2.00198585 8.19535627,1.58435788 9.62506483,2.45341073 C10.014614,2.69019942 10.3439452,3.00905305 10.5885147,3.38620891 Z M8.86270382,4.4352485 C8.78118063,4.30952988 8.67140359,4.20324534 8.54155386,4.12431577 C8.06498434,3.83463149 7.43609622,3.97384081 7.13689293,4.4352485 L3.19371742,10.5161023 C3.09180782,10.6732593 3.03774858,10.8550593 3.03774858,11.0406221 C3.03774858,11.5854286 3.49391413,12.0270814 4.05662287,12.0270814 L11.9429739,12.0270814 C12.1346343,12.0270814 12.3224083,11.974742 12.4847294,11.8760747 C12.9612989,11.5863904 13.1050826,10.97751 12.8058793,10.5161023 L8.86270382,4.4352485 Z M7.99935521,5.12383118 C8.56206394,5.12383118 9.0182295,5.56548404 9.0182295,6.11029047 L9.0182295,8.08320905 C9.0182295,8.62801547 8.56206394,9.06966834 7.99935521,9.06966834 C7.43664648,9.06966834 6.98048092,8.62801547 6.98048092,8.08320905 L6.98048092,6.11029047 C6.98048092,5.56548404 7.43664648,5.12383118 7.99935521,5.12383118 Z M7.99935521,11.5358166 C7.43664648,11.5358166 6.98048092,11.2045769 6.98048092,10.7959721 C6.98048092,10.3873673 7.43664648,10.0561276 7.99935521,10.0561276 C8.56206394,10.0561276 9.0182295,10.3873673 9.0182295,10.7959721 C9.0182295,11.2045769 8.56206394,11.5358166 7.99935521,11.5358166 Z" id="path-1"></path>
    </defs>
    <g id="Icons" stroke="none" stroke-width="1" fill="none" fill-rule="evenodd">
        <g id="icn/warning">
            <mask id="mask-2" fill="white">
                <use xlink:href="#path-1"></use>
            </mask>
            <g id="Combined-Shape" fill-rule="nonzero"></g>
            <g id="c-fill/greys/$black-::-000000" mask="url(#mask-2)" fill="#000000">
                <rect id="fill/greys/$black-::-000000" x="0" y="0" width="16" height="16"></rect>
            </g>
        </g>
    </g>
</svg>