<?xml version="1.0" encoding="UTF-8"?>
<svg width="256px" height="146px" viewBox="0 0 256 146" version="1.1" xmlns="http://www.w3.org/2000/svg" xmlns:xlink="http://www.w3.org/1999/xlink">
    <!-- Generator: Sketch 42 (36781) - http://www.bohemiancoding.com/sketch -->
    <title>illustration</title>
    <desc>Created with Sketch.</desc>
    <defs>
        <rect id="path-1" x="0" y="0" width="178.714286" height="115.388723" rx="10"></rect>
        <mask id="mask-2" maskContentUnits="userSpaceOnUse" maskUnits="objectBoundingBox" x="0" y="0" width="178.714286" height="115.388723" fill="white">
            <use xlink:href="#path-1"></use>
        </mask>
        <path d="M8.7955358,31.5147466 C9.19146017,31.562357 9.59450144,31.5868572 10.0032692,31.5868572 L33.0681593,31.5868572 C38.6041072,31.5868572 43.0714286,27.112266 43.0714286,21.5925781 L43.0714286,9.99427903 C43.0714286,4.47534439 38.5928124,0 33.0681593,0 L10.0032692,0 C4.46732139,0 0,4.47459114 0,9.99427903 L0,21.5925781 C0,22.8419966 0.229535142,24.0379297 0.648778334,25.1405598 L0,25.1405598 L0,32.5538018 C0,36.6480223 2.39378605,37.6666733 5.34205217,34.8334608 L8.7955358,31.5147466 Z" id="path-3"></path>
        <mask id="mask-4" maskContentUnits="userSpaceOnUse" maskUnits="objectBoundingBox" x="0" y="0" width="43.0714286" height="36.4373601" fill="white">
            <use xlink:href="#path-3"></use>
        </mask>
        <path d="M8.7955358,31.5147466 C9.19146017,31.562357 9.59450144,31.5868572 10.0032692,31.5868572 L33.0681593,31.5868572 C38.6041072,31.5868572 43.0714286,27.112266 43.0714286,21.5925781 L43.0714286,9.99427903 C43.0714286,4.47534439 38.5928124,0 33.0681593,0 L10.0032692,0 C4.46732139,0 -1.85451654e-12,4.47459114 -1.85451654e-12,9.99427903 L-1.85451654e-12,21.5925781 C-1.85451654e-12,22.8419966 0.229535142,24.0379297 0.648778334,25.1405598 L-1.85451654e-12,25.1405598 L-1.85451654e-12,32.5538018 C-1.85451654e-12,36.6480223 2.39378605,37.6666733 5.34205217,34.8334608 L8.7955358,31.5147466 Z" id="path-5"></path>
        <mask id="mask-6" maskContentUnits="userSpaceOnUse" maskUnits="objectBoundingBox" x="0" y="0" width="43.0714286" height="36.4373601" fill="white">
            <use xlink:href="#path-5"></use>
        </mask>
    </defs>
    <g id="v4" stroke="none" stroke-width="1" fill="none" fill-rule="evenodd">
        <g id="MR-open-not-able-to-merge-nothing-to-merge-without-pipeline" transform="translate(-667.000000, -380.000000)">
            <g id="Group-11" transform="translate(31.000000, 364.000000)">
                <g id="illustration" transform="translate(636.000000, 16.000000)">
                    <g id="Group-7" transform="translate(0.000000, 3.867778)" fill="#F9F9F9">
                        <rect id="Rectangle-8" x="19.2857143" y="0" width="77.1428571" height="14.1818542" rx="7.09092712"></rect>
                        <rect id="Rectangle-8-Copy-4" x="0" y="28.3637085" width="84.8571429" height="14.1818542" rx="7.09092712"></rect>
                        <rect id="Rectangle-8-Copy-6" x="133.714286" y="42.5455627" width="122.142857" height="14.1818542" rx="7.09092712"></rect>
                        <rect id="Rectangle-8-Copy-7" x="82.9285714" y="126.992058" width="101.571429" height="14.1818542" rx="7.09092712"></rect>
                        <rect id="Rectangle-8-Copy-8" x="42.4285714" y="99.2729797" width="101.571429" height="14.1818542" rx="7.09092712"></rect>
                        <rect id="Rectangle-8-Copy-5" x="19.9285714" y="70.9092712" width="225" height="14.1818542" rx="7.09092712"></rect>
                        <path d="M98.369399,14.1818542 L13.4888228,14.1818542 L27.2985347,14.1818542 C31.2169188,14.1818542 34.3933966,17.3645392 34.3933966,21.2727814 C34.3933966,25.1889923 31.220335,28.3637085 27.2985347,28.3637085 L13.4888228,28.3637085 L98.369399,28.3637085 L74.91683,28.3637085 C70.998446,28.3637085 67.8219681,25.1810236 67.8219681,21.2727814 C67.8219681,17.3565705 70.9950298,14.1818542 74.91683,14.1818542 L98.369399,14.1818542 Z" id="Combined-Shape"></path>
                        <path d="M260.369399,56.727417 L185.13168,56.727417 L208.584249,56.727417 C212.502633,56.727417 215.679111,59.9101019 215.679111,63.8183441 C215.679111,67.734555 212.506049,70.9092712 208.584249,70.9092712 L185.13168,70.9092712 L260.369399,70.9092712 L236.91683,70.9092712 C232.998446,70.9092712 229.821968,67.7265863 229.821968,63.8183441 C229.821968,59.9021332 232.99503,56.727417 236.91683,56.727417 L260.369399,56.727417 Z" id="Combined-Shape-Copy"></path>
                        <path d="M103.512256,85.0911255 L28.2745371,85.0911255 L51.7271061,85.0911255 C55.6454902,85.0911255 58.8219681,88.2738104 58.8219681,92.1820526 C58.8219681,96.0982635 55.6489064,99.2729797 51.7271061,99.2729797 L28.2745371,99.2729797 L103.512256,99.2729797 L80.0596872,99.2729797 C76.1413031,99.2729797 72.9648252,96.0902948 72.9648252,92.1820526 C72.9648252,88.2658417 76.1378869,85.0911255 80.0596872,85.0911255 L103.512256,85.0911255 Z" id="Combined-Shape-Copy-2"></path>
                        <path d="M151.726542,113.454834 L76.4888228,113.454834 L90.2985347,113.454834 C94.2169188,113.454834 97.3933966,116.637519 97.3933966,120.545761 C97.3933966,124.461972 94.220335,127.636688 90.2985347,127.636688 L76.4888228,127.636688 L151.726542,127.636688 L118.631116,127.636688 C114.712732,127.636688 111.536254,124.454003 111.536254,120.545761 C111.536254,116.62955 114.709315,113.454834 118.631116,113.454834 L151.726542,113.454834 Z" id="Combined-Shape-Copy-3"></path>
                    </g>
                    <g id="Group-5" transform="translate(11.976810, 0.000000)">
                        <g id="merge-request" transform="translate(26.594619, 12.247965)">
                            <use id="Rectangle-3" stroke="#EEEEEE" mask="url(#mask-2)" stroke-width="8" fill="#FFFFFF" xlink:href="#path-1"></use>
                            <rect id="Rectangle-4" fill="#EEEEEE" x="2.57142857" y="18.6942624" width="174.214286" height="2.57851895"></rect>
                            <g id="Group-4" transform="translate(21.857143, 38.677784)">
                                <g id="Group-3" transform="translate(0.000000, -0.000000)">
                                    <rect id="Rectangle-2" fill="#B5A7DD" x="0" y="0.644629738" width="3.85714286" height="1.28925948" rx="0.644629738"></rect>
                                    <rect id="Rectangle-2-Copy-3" fill="#EEEEEE" x="9.64285714" y="0" width="9.64285714" height="2.57851895" rx="1.28925948"></rect>
                                    <rect id="Rectangle-2-Copy-6" fill="#EEEEEE" x="46.2857143" y="0" width="9.64285714" height="2.57851895" rx="1.28925948"></rect>
                                    <rect id="Rectangle-2-Copy-11" fill="#EEEEEE" x="25.0714286" y="14.1818542" width="9.64285714" height="2.57851895" rx="1.28925948"></rect>
                                    <rect id="Rectangle-2-Copy-8" fill="#FC6D26" x="34.0714286" y="7.09092712" width="9.64285714" height="2.57851895" rx="1.28925948"></rect>
                                    <rect id="Rectangle-2-Copy-5" fill="#FC6D26" opacity="0.5" x="30.8571429" y="0" width="12.8571429" height="2.57851895" rx="1.28925948"></rect>
                                    <rect id="Rectangle-2-Copy-12" fill="#EEEEEE" x="9.64285714" y="14.1818542" width="12.8571429" height="2.57851895" rx="1.28925948"></rect>
                                    <rect id="Rectangle-2-Copy-9" fill="#EEEEEE" x="18.6428571" y="7.09092712" width="12.8571429" height="2.57851895" rx="1.28925948"></rect>
                                    <rect id="Rectangle-2-Copy-4" fill="#FC6D26" x="21.8571429" y="0" width="6.42857143" height="2.57851895" rx="1.28925948"></rect>
                                    <rect id="Rectangle-2-Copy-10" fill="#EEEEEE" x="9.64285714" y="7.09092712" width="6.42857143" height="2.57851895" rx="1.28925948"></rect>
                                    <rect id="Rectangle-2-Copy" fill="#B5A7DD" x="0" y="7.73555686" width="3.85714286" height="1.28925948" rx="0.644629738"></rect>
                                    <rect id="Rectangle-2-Copy-2" fill="#B5A7DD" x="0" y="14.826484" width="3.85714286" height="1.28925948" rx="0.644629738"></rect>
                                </g>
                                <g id="Group-3-Copy" transform="translate(0.000000, 21.272781)">
                                    <rect id="Rectangle-2" fill="#B5A7DD" x="0" y="0.644629738" width="3.85714286" height="1.28925948" rx="0.644629738"></rect>
                                    <rect id="Rectangle-2-Copy-3" fill="#FC6D26" x="9.64285714" y="0" width="9.64285714" height="2.57851895" rx="1.28925948"></rect>
                                    <rect id="Rectangle-2-Copy-6" fill="#EEEEEE" x="46.2857143" y="0" width="9.64285714" height="2.57851895" rx="1.28925948"></rect>
                                    <rect id="Rectangle-2-Copy-11" fill="#FC6D26" opacity="0.5" x="25.0714286" y="14.1818542" width="9.64285714" height="2.57851895" rx="1.28925948"></rect>
                                    <rect id="Rectangle-2-Copy-8" fill="#EEEEEE" x="34.0714286" y="7.09092712" width="9.64285714" height="2.57851895" rx="1.28925948"></rect>
                                    <rect id="Rectangle-2-Copy-5" fill="#FC6D26" x="30.8571429" y="0" width="12.8571429" height="2.57851895" rx="1.28925948"></rect>
                                    <rect id="Rectangle-2-Copy-12" fill="#FC6D26" x="9.64285714" y="14.1818542" width="12.8571429" height="2.57851895" rx="1.28925948"></rect>
                                    <rect id="Rectangle-2-Copy-9" fill="#EEEEEE" x="18.6428571" y="7.09092712" width="12.8571429" height="2.57851895" rx="1.28925948"></rect>
                                    <rect id="Rectangle-2-Copy-4" fill="#FC6D26" opacity="0.5" x="21.8571429" y="0" width="6.42857143" height="2.57851895" rx="1.28925948"></rect>
                                    <rect id="Rectangle-2-Copy-10" fill="#EEEEEE" x="9.64285714" y="7.09092712" width="6.42857143" height="2.57851895" rx="1.28925948"></rect>
                                    <rect id="Rectangle-2-Copy" fill="#B5A7DD" x="0" y="7.73555686" width="3.85714286" height="1.28925948" rx="0.644629738"></rect>
                                    <rect id="Rectangle-2-Copy-2" fill="#B5A7DD" x="0" y="14.826484" width="3.85714286" height="1.28925948" rx="0.644629738"></rect>
                                </g>
                                <g id="Group-3-Copy-2" transform="translate(0.000000, 42.545563)">
                                    <rect id="Rectangle-2" fill="#B5A7DD" x="0" y="0.644629738" width="3.85714286" height="1.28925948" rx="0.644629738"></rect>
                                    <rect id="Rectangle-2-Copy-3" fill="#EEEEEE" x="9.64285714" y="-5.68434189e-14" width="9.64285714" height="2.57851895" rx="1.28925948"></rect>
                                    <rect id="Rectangle-2-Copy-6" fill="#EEEEEE" x="46.2857143" y="-5.68434189e-14" width="9.64285714" height="2.57851895" rx="1.28925948"></rect>
                                    <rect id="Rectangle-2-Copy-11" fill="#EEEEEE" x="25.0714286" y="14.1818542" width="9.64285714" height="2.57851895" rx="1.28925948"></rect>
                                    <rect id="Rectangle-2-Copy-8" fill="#EEEEEE" x="34.0714286" y="7.09092712" width="9.64285714" height="2.57851895" rx="1.28925948"></rect>
                                    <rect id="Rectangle-2-Copy-5" fill="#FC6D26" x="30.8571429" y="-5.68434189e-14" width="12.8571429" height="2.57851895" rx="1.28925948"></rect>
                                    <rect id="Rectangle-2-Copy-12" fill="#EEEEEE" x="9.64285714" y="14.1818542" width="12.8571429" height="2.57851895" rx="1.28925948"></rect>
                                    <rect id="Rectangle-2-Copy-9" fill="#EEEEEE" x="18.6428571" y="7.09092712" width="12.8571429" height="2.57851895" rx="1.28925948"></rect>
                                    <rect id="Rectangle-2-Copy-4" fill="#FC6D26" opacity="0.5" x="21.8571429" y="-5.68434189e-14" width="6.42857143" height="2.57851895" rx="1.28925948"></rect>
                                    <rect id="Rectangle-2-Copy-10" fill="#EEEEEE" x="9.64285714" y="7.09092712" width="6.42857143" height="2.57851895" rx="1.28925948"></rect>
                                    <rect id="Rectangle-2-Copy" fill="#B5A7DD" x="0" y="7.73555686" width="3.85714286" height="1.28925948" rx="0.644629738"></rect>
                                    <rect id="Rectangle-2-Copy-2" fill="#B5A7DD" x="0" y="14.826484" width="3.85714286" height="1.28925948" rx="0.644629738"></rect>
                                </g>
                            </g>
                            <g id="Group-4-Copy" transform="translate(100.928571, 38.033155)">
                                <rect id="Rectangle-2" fill="#FDE5D8" x="0" y="0.644629738" width="3.85714286" height="1.28925948" rx="0.644629738"></rect>
                                <rect id="Rectangle-2-Copy-3" fill="#EEEEEE" x="9.64285714" y="0" width="9.64285714" height="2.57851895" rx="1.28925948"></rect>
                                <rect id="Rectangle-2-Copy-6" fill="#EEEEEE" x="46.2857143" y="0" width="9.64285714" height="2.57851895" rx="1.28925948"></rect>
                                <rect id="Rectangle-2-Copy-11" fill="#6B4FBB" opacity="0.5" x="25.0714286" y="14.1818542" width="9.64285714" height="2.57851895" rx="1.28925948"></rect>
                                <rect id="Rectangle-2-Copy-8" fill="#6B4FBB" x="34.0714286" y="7.09092712" width="9.64285714" height="2.57851895" rx="1.28925948"></rect>
                                <rect id="Rectangle-2-Copy-5" fill="#6B4FBB" opacity="0.5" x="30.8571429" y="0" width="12.8571429" height="2.57851895" rx="1.28925948"></rect>
                                <rect id="Rectangle-2-Copy-12" fill="#6B4FBB" x="9.64285714" y="14.1818542" width="12.8571429" height="2.57851895" rx="1.28925948"></rect>
                                <rect id="Rectangle-2-Copy-9" fill="#EEEEEE" x="18.6428571" y="7.09092712" width="12.8571429" height="2.57851895" rx="1.28925948"></rect>
                                <rect id="Rectangle-2-Copy-4" fill="#6B4FBB" x="21.8571429" y="0" width="6.42857143" height="2.57851895" rx="1.28925948"></rect>
                                <rect id="Rectangle-2-Copy-10" fill="#EEEEEE" x="9.64285714" y="7.09092712" width="6.42857143" height="2.57851895" rx="1.28925948"></rect>
                                <rect id="Rectangle-2-Copy" fill="#FDE5D8" x="0" y="7.73555686" width="3.85714286" height="1.28925948" rx="0.644629738"></rect>
                                <rect id="Rectangle-2-Copy-2" fill="#FDE5D8" x="0" y="14.826484" width="3.85714286" height="1.28925948" rx="0.644629738"></rect>
                                <rect id="Rectangle-2" fill="#FDE5D8" x="0" y="21.9174111" width="3.85714286" height="1.28925948" rx="0.644629738"></rect>
                                <rect id="Rectangle-2-Copy-3" fill="#EEEEEE" x="9.64285714" y="21.2727814" width="9.64285714" height="2.57851895" rx="1.28925948"></rect>
                                <rect id="Rectangle-2-Copy-6" fill="#EEEEEE" x="37.2857143" y="14.1818542" width="9.64285714" height="2.57851895" rx="1.28925948"></rect>
                                <rect id="Rectangle-2-Copy-11" fill="#6B4FBB" opacity="0.5" x="25.0714286" y="35.4546356" width="9.64285714" height="2.57851895" rx="1.28925948"></rect>
                                <rect id="Rectangle-2-Copy-8" fill="#6B4FBB" x="18.6428571" y="28.3637085" width="9.64285714" height="2.57851895" rx="1.28925948"></rect>
                                <rect id="Rectangle-2-Copy-5" fill="#6B4FBB" x="30.8571429" y="21.2727814" width="12.8571429" height="2.57851895" rx="1.28925948"></rect>
                                <rect id="Rectangle-2-Copy-12" fill="#EEEEEE" x="9.64285714" y="35.4546356" width="12.8571429" height="2.57851895" rx="1.28925948"></rect>
                                <rect id="Rectangle-2-Copy-4" fill="#EEEEEE" x="21.8571429" y="21.2727814" width="6.42857143" height="2.57851895" rx="1.28925948"></rect>
                                <rect id="Rectangle-2-Copy-10" fill="#EEEEEE" x="9.64285714" y="28.3637085" width="6.42857143" height="2.57851895" rx="1.28925948"></rect>
                                <rect id="Rectangle-2-Copy-14" fill="#EEEEEE" x="30.8571429" y="28.3637085" width="6.42857143" height="2.57851895" rx="1.28925948"></rect>
                                <rect id="Rectangle-2-Copy-15" fill="#EEEEEE" x="39.8571429" y="28.3637085" width="6.42857143" height="2.57851895" rx="1.28925948"></rect>
                                <rect id="Rectangle-2-Copy-13" fill="#EEEEEE" x="49.5" y="14.1818542" width="6.42857143" height="2.57851895" rx="1.28925948"></rect>
                                <rect id="Rectangle-2-Copy" fill="#FDE5D8" x="0" y="29.0083382" width="3.85714286" height="1.28925948" rx="0.644629738"></rect>
                                <rect id="Rectangle-2-Copy-2" fill="#FDE5D8" x="0" y="36.0992653" width="3.85714286" height="1.28925948" rx="0.644629738"></rect>
                                <rect id="Rectangle-2" fill="#FDE5D8" x="0" y="43.1901925" width="3.85714286" height="1.28925948" rx="0.644629738"></rect>
                                <rect id="Rectangle-2-Copy-3" fill="#6B4FBB" x="9.64285714" y="42.5455627" width="9.64285714" height="2.57851895" rx="1.28925948"></rect>
                                <rect id="Rectangle-2-Copy-11" fill="#EEEEEE" x="25.0714286" y="56.727417" width="9.64285714" height="2.57851895" rx="1.28925948"></rect>
                                <rect id="Rectangle-2-Copy-8" fill="#6B4FBB" opacity="0.5" x="34.0714286" y="49.6364898" width="9.64285714" height="2.57851895" rx="1.28925948"></rect>
                                <rect id="Rectangle-2-Copy-12" fill="#EEEEEE" x="9.64285714" y="56.727417" width="12.8571429" height="2.57851895" rx="1.28925948"></rect>
                                <rect id="Rectangle-2-Copy-9" fill="#6B4FBB" x="18.6428571" y="49.6364898" width="12.8571429" height="2.57851895" rx="1.28925948"></rect>
                                <rect id="Rectangle-2-Copy-4" fill="#EEEEEE" x="21.8571429" y="42.5455627" width="6.42857143" height="2.57851895" rx="1.28925948"></rect>
                                <rect id="Rectangle-2-Copy-7" fill="#EEEEEE" x="46.2857143" y="49.6364898" width="6.42857143" height="2.57851895" rx="1.28925948"></rect>
                                <rect id="Rectangle-2-Copy-10" fill="#EEEEEE" x="9.64285714" y="49.6364898" width="6.42857143" height="2.57851895" rx="1.28925948"></rect>
                                <rect id="Rectangle-2-Copy" fill="#FDE5D8" x="0" y="50.2811196" width="3.85714286" height="1.28925948" rx="0.644629738"></rect>
                                <rect id="Rectangle-2-Copy-2" fill="#FDE5D8" x="0" y="57.3720467" width="3.85714286" height="1.28925948" rx="0.644629738"></rect>
                            </g>
                        </g>
                        <g id="discussion-r" transform="translate(177.023190, 0.000000)">
                            <g id="Group-8" transform="translate(7.071429, 0.000000)">
                                <use id="Combined-Shape" stroke="#FDE5D8" mask="url(#mask-4)" stroke-width="8" fill="#FFFFFF" xlink:href="#path-3"></use>
                                <rect id="Rectangle-7" fill="#FDB692" x="9" y="9.02481634" width="18.6428571" height="1.93388921" rx="0.966944607"></rect>
                                <rect id="Rectangle-7-Copy" fill="#FDB692" x="9" y="14.826484" width="25.0714286" height="1.93388921" rx="0.966944607"></rect>
                                <rect id="Rectangle-7-Copy-2" fill="#FDB692" x="9" y="20.6281516" width="18.6428571" height="1.93388921" rx="0.966944607"></rect>
                            </g>
                            <g id="Group-6" transform="translate(0.000000, 41.256303)">
                                <ellipse id="Oval" stroke="#FC6D26" stroke-width="3" fill="#FFF7F4" cx="10.2857143" cy="9.66944607" rx="9.64285714" ry="9.66944607"></ellipse>
                                <path d="M0.0226072781,9.00208537 C0.227395228,9.01715083 0.434233459,9.02481634 0.642857143,9.02481634 C3.79386181,9.02481634 6.53756198,7.27613001 7.96148271,4.69374835 M9,0.644629738 C9,0.435430802 8.99235557,0.228022241 8.97733153,0.0226696147" id="Combined-Shape" stroke="#FC6D26" stroke-width="2"></path>
                                <path d="M5.04522007,2.00769646 C6.90253323,4.69006018 9.996735,6.44629738 13.5,6.44629738 C15.6124774,6.44629738 17.5762145,5.80770852 19.2097029,4.71253971 L19.2097029,4.71253971" id="Combined-Shape" stroke="#FC6D26" stroke-width="2"></path>
                                <ellipse id="Oval-2" fill="#FC6D26" cx="6.75" cy="11.2810204" rx="0.964285714" ry="0.966944607"></ellipse>
                                <ellipse id="Oval-2-Copy" fill="#FC6D26" cx="13.8214286" cy="11.2810204" rx="0.964285714" ry="0.966944607"></ellipse>
                            </g>
                        </g>
                        <g id="discussion-l" transform="translate(0.000000, 54.793528)">
                            <g id="Group-9" transform="translate(34.951762, 41.256303)">
                                <ellipse id="Oval-3" stroke="#6B4FBB" stroke-width="3" fill="#F4F1FA" cx="9.64285714" cy="10.3140758" rx="9.64285714" ry="9.66944607"></ellipse>
                                <path d="M12.8595071,4.50956328 L12.8547796,4.50956446 L11.25,2.57851895 L9.64455436,4.5103659 L9.64116063,4.51036674 L8.03571429,2.57851895 L6.42960163,4.51116852 L6.42754165,4.51116903 L4.82142857,2.57851895 L3.2146489,4.51197114 L1.46409837,4.51240817 C3.16859344,1.80229454 6.19432157,0 9.64285714,0 C13.0896606,0 16.1140812,1.80048447 17.8190465,4.50832511 L16.0683986,4.50876217 L14.4642857,2.57851895 L12.8595071,4.50956328 Z" id="Combined-Shape" fill="#6B4FBB"></path>
                                <ellipse id="Oval-4" fill="#6B4FBB" cx="6.10714286" cy="11.2810204" rx="0.964285714" ry="0.966944607"></ellipse>
                                <ellipse id="Oval-4-Copy" fill="#6B4FBB" cx="13.1785714" cy="11.2810204" rx="0.964285714" ry="0.966944607"></ellipse>
                            </g>
                            <g id="Group-8-Copy" transform="translate(22.594619, 18.500000) scale(-1, 1) translate(-22.594619, -18.500000) translate(0.594619, 0.000000)">
                                <use id="Combined-Shape" stroke="#E2DCF2" mask="url(#mask-6)" stroke-width="8" fill="#FFFFFF" xlink:href="#path-5"></use>
                                <rect id="Rectangle-7" fill="#6B4FBB" opacity="0.5" x="15.4285714" y="9.02481634" width="18.6428571" height="1.93388921" rx="0.966944607"></rect>
                                <rect id="Rectangle-7-Copy" fill="#6B4FBB" opacity="0.5" x="21.8571429" y="14.826484" width="12.2142857" height="1.93388921" rx="0.966944607"></rect>
                                <rect id="Rectangle-7-Copy-2" fill="#6B4FBB" opacity="0.5" x="21.8571429" y="20.6281516" width="12.2142857" height="1.93388921" rx="0.966944607"></rect>
                            </g>
                        </g>
                    </g>
                </g>
            </g>
        </g>
    </g>
</svg>