<svg xmlns="http://www.w3.org/2000/svg" width="16" height="16" viewBox="0 0 16 16">
  <path fill="#000000" d="M1.70710678,15.7071068 C1.07714192,16.3370716 7.77156117e-16,15.8909049 6.66133815e-16,15 L3.10862447e-15,3 C2.77555756e-15,1.34314575 1.34314575,-1.74934789e-09 3,-1.74935555e-09 L13,-1.74937442e-09 C14.6568542,-1.74937625e-09 16,1.34314575 16,3 L16,8.99971693 C16,10.6565712 14.6568542,11.9997169 13,11.9997169 L5.41449663,11.9997169 L1.70710678,15.7071068 Z M2,12.5857864 L4.29317629,10.2926101 C4.48071267,10.1050738 4.73506658,9.99971693 5.00028307,9.99971693 L13,9.99971693 C13.5522847,9.99971693 14,9.55200168 14,8.99971693 L14,3 C14,2.44771525 13.5522847,2 13,2 L3,2 C2.44771525,2 2,2.44771525 2,3 L2,12.5857864 Z"/>
</svg>
