<svg xmlns="http://www.w3.org/2000/svg" width="16" height="16" viewBox="0 0 16 16">
  <path d="M11 12.27V4c0-.55-.45-1-1-1H9V1h1c1.66 0 3 1.34 3 3v8.27c.6.34 1 1 1 1.73 0 1.1-.9 2-2 2s-2-.9-2-2c0-.74.4-1.4 1-1.73zM3 3.73c-.6-.34-1-1-1-1.73 0-1.1.9-2 2-2s2 .9 2 2c0 .74-.4 1.4-1 1.73v8.54c.6.34 1 1 1 1.73 0 1.1-.9 2-2 2s-2-.9-2-2c0-.74.4-1.4 1-1.73V3.73zM4 3c.55 0 1-.45 1-1s-.45-1-1-1-1 .45-1 1 .45 1 1 1zm0 12c.55 0 1-.45 1-1s-.45-1-1-1-1 .45-1 1 .45 1 1 1zm8 0c.55 0 1-.45 1-1s-.45-1-1-1-1 .45-1 1 .45 1 1 1zM6.62 1.58L8.22.52c.23-.15.54-.1.7.14.05.08.08.18.08.27v2.14c0 .27-.22.5-.5.5-.1 0-.2-.03-.28-.1l-1.6-1.05c-.23-.16-.3-.47-.13-.7 0-.05.05-.1.1-.14z"/>
</svg>
