<svg xmlns="http://www.w3.org/2000/svg" width="16" height="16" viewBox="0 0 16 16">
  <path fill="#000000" d="M7.53553391,8.65685425 L10.363961,5.82842712 L10.363961,5.82842712 C10.7544853,5.43790283 11.3876503,5.43790283 11.7781746,5.82842712 C12.1686989,6.21895142 12.1686989,6.8521164 11.7781746,7.24264069 L8.24264069,10.7781746 C8.04737854,10.9734367 7.79145622,11.0710678 7.53553391,11.0710678 C7.27961159,11.0710678 7.02368927,10.9734367 6.82842712,10.7781746 L4.70710678,8.65685425 C4.31658249,8.26632996 4.31658249,7.63316498 4.70710678,7.24264069 C5.09763107,6.8521164 5.73079605,6.8521164 6.12132034,7.24264069 L6.12132034,7.24264069 L7.53553391,8.65685425 Z M8,16 C3.581722,16 0,12.418278 0,8 C0,3.581722 3.581722,0 8,0 C12.418278,0 16,3.581722 16,8 C16,12.418278 12.418278,16 8,16 Z M8,14 C11.3137085,14 14,11.3137085 14,8 C14,4.6862915 11.3137085,2 8,2 C4.6862915,2 2,4.6862915 2,8 C2,11.3137085 4.6862915,14 8,14 Z"/>
</svg>
