<svg xmlns="http://www.w3.org/2000/svg" width="16" height="16" viewBox="0 0 16 16">
  <g fill-rule="evenodd">
    <path fill-rule="nonzero" d="M8 14C4.82 14 2.25 12.28.4 8.98c-.35-.6-.35-1.35 0-1.96C2.24 3.72 4.8 2 8 2c3.18 0 5.75 1.72 7.6 5.02.35.6.35 1.35 0 1.96C13.76 12.28 11.2 14 8 14zm0-2c2.4 0 4.34-1.3 5.86-4C12.34 5.3 10.4 4 8 4 5.6 4 3.66 5.3 2.14 8 3.66 10.7 5.6 12 8 12z"/>
    <path d="M8 11c-1.66 0-3-1.34-3-3s1.34-3 3-3 3 1.34 3 3-1.34 3-3 3zm1-3c.55 0 1-.45 1-1s-.45-1-1-1-1 .45-1 1 .45 1 1 1z"/>
  </g>
</svg>
