<svg xmlns="http://www.w3.org/2000/svg" width="16" height="16" viewBox="0 0 16 16">
  <path d="M12 11v-.96c0-.05.02-.1.05-.16.08-.14.27-.18.4-.1l3.14 1.97.1.1c.03.13 0 .32-.1.4l-3.2 1.95c-.05.08-.1.1-.16.1-.18 0-.3-.14-.3-.3v-1h-1c-.87 0-1.7-.37-2.27-1.03L2.9 5.27c-.2-.23-.47-.35-.76-.35H1c-.55 0-1-.4-1-1 0-.52.45-1 1-1h1.2c.87 0 1.7.4 2.27 1.08l5.78 6.7c.2.22.47.35.76.35h1zM7.3 5.7l1.44-1.66C9.3 3.38 10.14 3 11 3h1v-.96c0-.16.13-.3.3-.3.06 0 .1.02.16.05l3.14 1.9c.1.07.15.26.1.4l-.1.1-3.17 1.95c-.14.1-.33.05-.4-.1-.04-.04-.06-.1-.06-.15V5h-1c-.3 0-.57.13-.76.35L8.6 7.23 7.3 5.7zM4.68 8.77L6 10.3l-1.53 1.75c-.57.66-1.4 1.04-2.27 1.04H1c-.55 0-1-.5-1-1 0-.6.45-1 1-1h1.2c.3 0 .57-.18.76-.4l1.7-1.98z"/>
</svg>
