<svg xmlns="http://www.w3.org/2000/svg" width="16" height="16" viewBox="0 0 16 16">
  <path d="M11.3 8.85l-.66-1.67.04-.04 1.4-1.4c.6-.6.67-1.48.16-1.98-.5-.5-1.38-.44-1.97.15l-1.4 1.44-.05.04-1.66-.66c.14-.2.3-.4.5-.6l1.4-1.4c1.37-1.36 3.43-1.52 4.6-.35 1.17 1.17 1 3.23-.36 4.6l-1.4 1.4c-.2.2-.4.36-.6.5zM8.85 11.3c-.15.2-.3.4-.5.6l-1.4 1.4c-1.38 1.37-3.43 1.53-4.6.36-1.18-1.17-1.02-3.23.35-4.6l1.4-1.4c.2-.2.4-.36.6-.5l.66 1.66-.04.04-1.4 1.4c-.6.6-.66 1.48-.16 1.98s1.38.44 1.97-.15l1.4-1.44.05-.04 1.67.65zm3.8-2.1h2c.28 0 .5.23.5.5v.06c0 .27-.22.5-.5.5h-2c-.27 0-.5-.23-.5-.5V9.7c0-.27.23-.5.5-.5zm-.38 2.12l1.42 1.42c.16.2.16.5 0 .7l-.07.04c-.2.2-.5.2-.7 0l-1.42-1.4c-.2-.2-.2-.53 0-.72l.05-.04c.2-.2.5-.2.7 0zm-2.82 1.1c0-.28.22-.5.5-.5H10c.28 0 .5.22.5.5v2c0 .27-.22.5-.5.5h-.05c-.28 0-.5-.23-.5-.5v-2zM6.7 3.24c0 .28-.22.5-.5.5h-.05c-.27 0-.5-.22-.5-.5v-2c0-.27.23-.5.5-.5h.05c.28 0 .5.23.5.5v2zm-2.1.4c.18.18.18.5 0 .7l-.05.03c-.2.2-.5.2-.7 0l-1.43-1.4c-.2-.2-.2-.5 0-.7l.04-.05c.2-.2.5-.2.7 0L4.6 3.64zm-1.1 2.8h-2c-.28 0-.5-.22-.5-.5V5.9c0-.27.22-.5.5-.5h2c.27 0 .5.23.5.5v.06c0 .27-.23.5-.5.5z"/>
</svg>
