<svg xmlns="http://www.w3.org/2000/svg" width="16" height="16" viewBox="0 0 16 16">
  <path fill-rule="evenodd" d="M11.95 8.54L13 7.47c.4-.4 1.03-.4 1.42 0 .4.4.4 1.03 0 1.42l-1.06 1.04L14.42 11c.4.4.4 1.03 0 1.42-.4.4-1.02.4-1.4 0l-1.07-1.06-1.06 1.06c-.4.4-1.04.4-1.44 0-.4-.4-.4-1.02 0-1.4l1.07-1.07L9.47 8.9c-.4-.4-.4-1.03 0-1.43.4-.4 1.03-.4 1.42 0l1.04 1.07zm-3.53.6c.1.16.2.32.35.46l.35.35-.35.35c-.78.78-.78 2.05 0 2.83.78.78 2.05.78 2.83 0l.35-.35.03.03v.05c0 2 .63 2.16-5.48 2.16-6.1 0-5.48-.16-5.48-2.15 0-2 .88-3.84 5.48-3.84.73 0 1.37.06 1.92.14zM6.5 8C4.57 8 3 6.43 3 4.5S4.57 1 6.5 1 10 2.57 10 4.5 8.43 8 6.5 8z"/>
</svg>
