<svg xmlns="http://www.w3.org/2000/svg" width="16" height="16" viewBox="0 0 16 16">
  <path fill="#000000" d="M4,12.2675644 L4,3.73243561 C3.40219863,3.38662619 3,2.74028236 3,2 C3,0.8954305 3.8954305,0 5,0 C6.1045695,0 7,0.8954305 7,2 C7,2.74028236 6.59780137,3.38662619 6,3.73243561 L6,8.07477302 C6.65610312,7.67393137 7.46323652,7.46533203 8.41031222,7.46533203 C9.63811654,7.46533203 10.1198482,7.02513443 10.0477777,5.75920601 C9.42372712,5.42070652 9,4.75983665 9,4 C9,2.8954305 9.8954305,2 11,2 C12.1045695,2 13,2.8954305 13,4 C13,4.72379753 12.6155145,5.35779365 12.0396428,5.70888904 C12.1154398,8.07383115 10.8361656,9.46533203 8.41031222,9.46533203 C6.90739822,9.46533203 6.17837944,10.1934135 6,11.9789241 L6,12.2675644 C6.59780137,12.6133738 7,13.2597176 7,14 C7,15.1045695 6.1045695,16 5,16 C3.8954305,16 3,15.1045695 3,14 C3,13.2597176 3.40219863,12.6133738 4,12.2675644 Z M10.9724284,4.99962725 L11.3242069,4.94627392 C11.7173643,4.81160509 12,4.4388091 12,4 C12,3.44771525 11.5522847,3 11,3 C10.4477153,3 10,3.44771525 10,4 C10,4.54306454 10.4328911,4.98502195 10.9724284,4.99962725 Z M5,3 C5.55228475,3 6,2.55228475 6,2 C6,1.44771525 5.55228475,1 5,1 C4.44771525,1 4,1.44771525 4,2 C4,2.55228475 4.44771525,3 5,3 Z M5,15 C5.55228475,15 6,14.5522847 6,14 C6,13.4477153 5.55228475,13 5,13 C4.44771525,13 4,13.4477153 4,14 C4,14.5522847 4.44771525,15 5,15 Z"/>
</svg>
