<svg xmlns="http://www.w3.org/2000/svg" width="16" height="16" viewBox="0 0 16 16">
  <g fill="none" fill-rule="evenodd">
    <path fill="#000" fill-rule="nonzero" d="M13.44 1.4l1.4 1.43c.4.4.4 1.02 0 1.4L4.54 14.57c-.2.18-.43.3-.7.3h-2.4v-2.42c0-.27.1-.53.3-.7L12 1.4c.4-.38 1.03-.38 1.42 0zm-9.6 12.45l10.3-10.32-1.4-1.4L2.4 12.43v1.4h1.4zm7.47-10.3l1.45 1.4-7.78 7.78h-1.4V11.3l7.76-7.76zm1.45-1.43l1.4 1.42-.7.7-1.4-1.4.7-.72z"/>
    <path fill="#FFF" d="M11.3 2.12l2.84 2.83-.7.7-2.83-2.82z"/>
  </g>
</svg>
