<svg xmlns="http://www.w3.org/2000/svg" width="16" height="16" viewBox="0 0 16 16">
  <path fill-rule="evenodd" d="M5.8 8c-.18.32-.34.65-.46 1H4.5c-.28 0-.5-.22-.5-.5s.22-.5.5-.5h1.3zM4.5 5h3c.28 0 .5.22.5.5s-.22.5-.5.5h-3c-.28 0-.5-.22-.5-.5s.22-.5.5-.5zm7.5.08c-.33-.05-.66-.08-1-.08-.34 0-.67.03-1 .08V3c0-.55-.45-1-1-1H3c-.55 0-1 .45-1 1v8c0 .55.45 1 1 1h2.08c.12.72.37 1.4.72 2H3c-1.66 0-3-1.34-3-3V3c0-1.66 1.34-3 3-3h6c1.66 0 3 1.34 3 3v2.08zm1.12 3.8zM11 16c-2.76 0-5-2.24-5-5s2.24-5 5-5 5 2.24 5 5-2.24 5-5 5zm-1.3-2.3c.4.2.84.3 1.3.3 1.66 0 3-1.34 3-3 0-.46-.1-.9-.3-1.3l-4 4zm-1.4-1.4l4-4c-.4-.2-.84-.3-1.3-.3-1.66 0-3 1.34-3 3 0 .46.1.9.3 1.3z"/>
</svg>
