<svg xmlns="http://www.w3.org/2000/svg" width="16" height="16" viewBox="0 0 16 16">
  <path d="M7 3.35l2.1-2.12c1.57-1.56 4.1-1.56 5.66 0 1.57 1.56 1.57 4.1 0 5.66l-2.82 2.8c-1.57 1.55-4.1 1.55-5.66 0-.4-.4-.4-1 0-1.4.4-.4 1.02-.4 1.4 0 .8.75 2.06.75 2.84 0l2.83-2.86c.78-.78.78-2.05 0-2.83-.78-.77-2.05-.77-2.83 0l-1 1c-.8-.3-1.68-.4-2.53-.3zm2.1 9.2L7 14.65c-1.58 1.57-4.1 1.57-5.67 0-1.56-1.56-1.56-4.1 0-5.65l2.83-2.8c1.56-1.56 4.1-1.56 5.65 0 .4.4.4 1.02 0 1.4-.35.4-1 .4-1.4 0-.75-.77-2.02-.77-2.8 0l-2.83 2.84c-.78.78-.78 2.05 0 2.83.78.78 2.05.78 2.83 0l1-1c.8.3 1.7.4 2.53.3z"/>
</svg>
