<svg xmlns="http://www.w3.org/2000/svg" width="16" height="16" viewBox="0 0 16 16">
  <path d="M7.83 11L11 7.83V8c0 1.66-1.34 3-3 3h-.17zM5 8.17V8c0-1.66 1.34-3 3-3h.17L5 8.17zm.3 5.37l1.6-1.64c.35.07.7.1 1.08.1 2.4 0 4.34-1.3 5.86-4-.38-.7-.8-1.3-1.24-1.8l1.42-1.4c.57.63 1.1 1.37 1.57 2.22.32.6.32 1.35 0 1.96C13.73 12.28 11.2 14 8 14c-.96 0-1.86-.16-2.7-.46zM1.95 11.2C1.4 10.58.85 9.84.4 9 .05 8.4.05 7.65.4 7.04 2.24 3.72 4.8 2 8 2c.96 0 1.86.16 2.7.46L9.1 4.1C8.73 4.02 8.38 4 8 4 5.6 4 3.66 5.3 2.14 8c.38.7.8 1.3 1.24 1.8l-1.42 1.4zM15.05.94c.4.4.4 1.02 0 1.4L2.35 15.08c-.4.4-1 .4-1.4 0-.4-.4-.4-1.02 0-1.4L13.65.92c.4-.4 1.03-.4 1.4 0z"/>
</svg>
