<svg xmlns="http://www.w3.org/2000/svg" width="16" height="16" viewBox="0 0 16 16">
  <path fill="#000000" fill-rule="evenodd" d="M11,5 L15,5 C15.5522847,5 16,5.44771525 16,6 C16,6.55228475 15.5522847,7 15,7 L11,7 C10.4477153,7 10,6.55228475 10,6 C10,5.44771525 10.4477153,5 11,5 Z M5.97643891,7 C4.31958466,7 2.97643891,5.65685425 2.97643891,4 C2.97643891,2.34314575 4.31958466,1 5.97643891,1 C7.63329316,1 8.97643891,2.34314575 8.97643891,4 C8.97643891,5.65685425 7.63329316,7 5.97643891,7 Z M6,15 C0.0759028948,15 0,14.2194824 0,12.48 C1.82592993e-16,10.7405176 0.963761568,8 6,8 C11.0362384,8 12,10.6919336 12,12.48 C12,14.2680664 11.9240971,15 6,15 Z"/>
</svg>
