<svg xmlns="http://www.w3.org/2000/svg" viewBox="0 0 16 16"><path fill-rule="evenodd" d="m9.828 8.364l4.243-4.243c.391-.391.391-1.024 0-1.414-.391-.391-1.024-.391-1.414 0l-4.95 4.95c-.195.195-.293.451-.293.707 0 .256.098.512.293.707l4.95 4.95c.391.391 1.024.391 1.414 0 .391-.391.391-1.024 0-1.414l-4.243-4.243m-7 0l4.243-4.243c.391-.391.391-1.024 0-1.414-.391-.391-1.024-.391-1.414 0l-4.95 4.95c-.195.195-.293.451-.293.707 0 .256.098.512.293.707l4.95 4.95c.391.391 1.024.391 1.414 0 .391-.391.391-1.024 0-1.414l-4.243-4.243"/></svg>