<svg xmlns="http://www.w3.org/2000/svg" viewBox="0 0 16 16"><g fill="none" fill-rule="evenodd"><path fill="#000" fill-rule="nonzero" d="m14 10h-3c-.552 0-1-.448-1-1v-3h-1.473c-.291 0-.527.236-.527.527v6.473c0 .552.448 1 1 1h4c.552 0 1-.448 1-1v-3m-4-7h-1.473c-.179 0-.355.013-.527.039v-.039c0-.552-.448-1-1-1h-4c-.552 0-1 .448-1 1v6c0 .552.448 1 1 1h2v2h-2c-1.657 0-3-1.343-3-3v-6c0-1.657 1.343-3 3-3h4c1.657 0 3 1.343 3 3m-1.473 1h2.323c.131 0 .256.051.35.143l4.65 4.551c.096.094.15.223.15.357v3.949c0 1.657-1.343 3-3 3h-4c-1.657 0-3-1.343-3-3v-6.473c0-1.396 1.131-2.527 2.527-2.527"/><g fill="#fff"><path d="m8 3h2v1h-2z"/><path d="m5 10h1v2h-1z"/></g></g></svg>