<svg xmlns="http://www.w3.org/2000/svg" viewBox="0 0 16 16"><path fill-rule="evenodd" d="m2 3c-.552 0-1-.448-1-1 0-.552.448-1 1-1h3 6 3c.552 0 1 .448 1 1 0 .552-.448 1-1 1v10c0 1.657-1.343 3-3 3h-6c-1.657 0-3-1.343-3-3v-10m3-2c0-.552.448-1 1-1h4c.552 0 1 .448 1 1h-6m-1 2v10c0 .552.448 1 1 1h6c.552 0 1-.448 1-1v-10h-8m2.5 2c.276 0 .5.224.5.5v6c0 .276-.224.5-.5.5-.276 0-.5-.224-.5-.5v-6c0-.276.224-.5.5-.5m3 0c.276 0 .5.224.5.5v6c0 .276-.224.5-.5.5-.276 0-.5-.224-.5-.5v-6c0-.276.224-.5.5-.5"/></svg>