<svg xmlns="http://www.w3.org/2000/svg" viewBox="0 0 16 16"><path d="m8 16c-4.418 0-8-3.582-8-8 0-4.418 3.582-8 8-8 4.418 0 8 3.582 8 8 0 4.418-3.582 8-8 8m0-2c3.314 0 6-2.686 6-6 0-3.314-2.686-6-6-6-3.314 0-6 2.686-6 6 0 3.314 2.686 6 6 6m-2.163-3.746c-.139-.239-.058-.545.181-.683.239-.139.545-.058.683.181.267.46.757.748 1.298.748.548 0 1.044-.296 1.309-.766.135-.241.44-.326.681-.191.241.135.326.44.191.681-.44.781-1.267 1.276-2.18 1.276-.901 0-1.719-.481-2.163-1.246m-.837-2.254c-.552 0-1-.448-1-1 0-.552.448-1 1-1 .552 0 1 .448 1 1 0 .552-.448 1-1 1m6 0c-.552 0-1-.448-1-1 0-.552.448-1 1-1 .552 0 1 .448 1 1 0 .552-.448 1-1 1"/></svg>