<svg xmlns="http://www.w3.org/2000/svg" viewBox="0 0 16 16"><path d="M8 16c-4.418 0-8-3.582-8-8s3.582-8 8-8 8 3.582 8 8-3.582 8-8 8zm0-2c3.314 0 6-2.686 6-6s-2.686-6-6-6-6 2.686-6 6 2.686 6 6 6zM6.18 6.27c.135.242.05.546-.192.68-.242.135-.546.05-.68-.193-.09-.157-.254-.257-.438-.257-.182 0-.347.098-.435.254-.137.24-.442.324-.682.187-.24-.134-.324-.44-.188-.68.265-.465.76-.76 1.305-.76.55 0 1.048.3 1.31.77zm6 0c.135.242.05.546-.192.68-.242.135-.546.05-.68-.193-.09-.157-.254-.257-.438-.257-.182 0-.347.098-.435.254-.137.24-.442.324-.682.187-.24-.134-.324-.44-.188-.68.265-.465.76-.76 1.305-.76.55 0 1.048.3 1.31.77zM5 9c0 1.657 1.343 3 3 3s3-1.343 3-3H5z"/></svg>