<svg xmlns="http://www.w3.org/2000/svg" viewBox="0 0 16 16"><path fill-rule="evenodd" d="m6 13.902c-1.797-.182-3.245-.617-4.345-1.307-.048-.03-.094-.062-.139-.096-.883-.664-1.061-1.917-.397-2.8.663-.883 1.074-1.709 1.233-2.478.323-1.566.947-5.501 4.65-6.134-.002-.029-.004-.057-.004-.087 0-.552.448-1 1-1 .552 0 1 .448 1 1 0 .021-.001.042-.002.063 3.755.528 4.375 4.27 4.761 6.04.19.871.599 1.753 1.227 2.646.013.019.026.037.038.056.604.925.345 2.164-.58 2.768-1.097.717-2.579 1.163-4.447 1.338.001.028.002.056.002.085 0 1.105-.895 2-2 2-1.105 0-2-.895-2-2 0-.033.001-.065.002-.098m2.066-1.902c2.444 0 4.204-.393 5.282-1.097-.774-1.101-1.295-2.225-1.545-3.37-.326-1.493-.371-1.675-.61-2.289-.595-1.528-1.454-2.244-3.127-2.244-1.607 0-2.49.718-3.103 2.197-.28.676-.356.982-.654 2.427-.224 1.088-.764 2.174-1.593 3.276 1.131.709 2.913 1.099 5.349 1.099"/></svg>