<svg xmlns="http://www.w3.org/2000/svg" viewBox="0 0 16 16"><path fill-rule="evenodd" d="m13.261 5.089c.242.757.381 1.478.499 2.02.19.871.599 1.753 1.227 2.646.013.019.026.037.038.056.604.925.345 2.164-.58 2.768-1.097.717-2.579 1.163-4.447 1.338.001.028.002.056.002.085 0 1.105-.895 2-2 2-1.105 0-2-.895-2-2 0-.033.001-.065.002-.098-.477-.048-.929-.114-1.357-.198l1.771-1.771c.512.045 1.063.067 1.652.067 2.444 0 4.204-.393 5.282-1.097-.774-1.101-1.295-2.225-1.545-3.37-.071-.327-.129-.591-.178-.81l1.634-1.634m-2.319-3.338l-1.48 1.48c-.391-.155-.849-.231-1.393-.231-1.607 0-2.49.718-3.103 2.197-.28.676-.356.982-.654 2.427-.074.36-.183.721-.326 1.082l-3.067 3.067c-.316-.653-.264-1.454.201-2.074.663-.883 1.074-1.709 1.233-2.478.323-1.566.947-5.501 4.65-6.134-.002-.029-.004-.057-.004-.087 0-.552.448-1 1-1 .552 0 1 .448 1 1 0 .021-.001.042-.002.063.772.109 1.411.353 1.944.688m2.933-.104c.391.391.391 1.024 0 1.414l-11.314 11.314c-.391.391-1.024.391-1.414 0-.391-.391-.391-1.024 0-1.414l11.314-11.314c.391-.391 1.024-.391 1.414 0"/></svg>