<svg xmlns="http://www.w3.org/2000/svg" viewBox="0 0 16 16"><path d="m12.02 3.27l.77-.77c.391-.391 1.024-.391 1.414 0 .391.391.391 1.024 0 1.414l-.728.728c.952 1.196 1.521 2.71 1.521 4.357 0 3.866-3.134 7-7 7-3.866 0-7-3.134-7-7 0-3.866 3.134-7 7-7 1.497 0 2.884.47 4.02 1.27m-4.02 10.73c2.761 0 5-2.239 5-5 0-2.761-2.239-5-5-5-2.761 0-5 2.239-5 5 0 2.761 2.239 5 5 5m0-9c.552 0 1 .448 1 1v2c0 .552-.448 1-1 1-.552 0-1-.448-1-1v-2c0-.552.448-1 1-1m-2-5h4c.552 0 1 .448 1 1 0 .552-.448 1-1 1h-4c-.552 0-1-.448-1-1 0-.552.448-1 1-1"/></svg>