<svg xmlns="http://www.w3.org/2000/svg" viewBox="0 0 16 16" xmlns:xlink="http://www.w3.org/1999/xlink"><defs><path id="0" d="m10.657 8.657h-3c-.552 0-1 .448-1 1 0 .552.448 1 1 1h4c.276 0 .526-.112.707-.293.181-.181.293-.431.293-.707v-8c0-.552-.448-1-1-1-.552 0-1 .448-1 1v7" fill="#000"/></defs><g fill="none" fill-rule="evenodd" transform="translate(0-1)"><path fill="#000" fill-rule="nonzero" d="m12 12v2c0 .552-.448 1-1 1h-8c-.552 0-1-.448-1-1v-8c0-.552.448-1 1-1h2c.552 0 1-.448 1-1 0-.552-.448-1-1-1h-2c-1.657 0-3 1.343-3 3v8c0 1.657 1.343 3 3 3h8c1.657 0 3-1.343 3-3v-2c0-.552-.448-1-1-1-.552 0-1 .448-1 1"/><g transform="matrix(.70711.70711-.70711.70711 6.829-5.172)"><use xlink:href="#0"/><path stroke="#fff" d="m10.157 8.157v-6.5c0-.828.672-1.5 1.5-1.5.828 0 1.5.672 1.5 1.5v8c0 .403-.16.781-.439 1.061-.279.279-.658.439-1.061.439h-4c-.828 0-1.5-.672-1.5-1.5 0-.828.672-1.5 1.5-1.5h2.5"/></g></g></svg>