<svg xmlns="http://www.w3.org/2000/svg" viewBox="0 0 16 16" xmlns:xlink="http://www.w3.org/1999/xlink"><defs><path id="0" d="m12.642 14.977c.316-.427.376-1.032.347-1.977-.007-.228-.01-.365-.01-.52 0-2.028-.693-3.545-2.231-4.463 4.367.208 5.231 2.264 5.231 4.463 0 1.953.488 2.404-3.338 2.497m-3.768-8.196c.697-.72 1.126-1.701 1.126-2.782 0-1.081-.429-2.062-1.126-2.782.348-.141.728-.218 1.126-.218 1.657 0 3 1.343 3 3 0 1.657-1.343 3-3 3-.398 0-.778-.078-1.126-.218m-2.874.218c-1.657 0-3-1.343-3-3 0-1.657 1.343-3 3-3 1.657 0 3 1.343 3 3 0 1.657-1.343 3-3 3m0 8c-6.669 0-5.98-.2-5.98-2.52 0-2.32.961-4.48 5.98-4.48 5.02 0 5.98 2.16 5.98 4.48 0 2.32.689 2.52-5.98 2.52" fill="#000"/></defs><g fill="none" fill-rule="evenodd"><use xlink:href="#0"/><path stroke="#fff" d="m12.24 14.68c.206-.278.277-.73.249-1.664-.007-.243-.01-.38-.01-.535 0-1.912-.646-3.233-1.987-4.03l-1.715-1.024 1.995.095c4.082.194 5.707 1.932 5.707 4.962 0 .162.003.303.01.535.035 1.178-.028 1.537-.581 1.925-.519.364-1.386.491-3.255.537l-1.023.025.609-.823m-3.725-8.246c.628-.649.985-1.513.985-2.434 0-.921-.357-1.785-.985-2.434l-.516-.533.687-.278c.414-.168.858-.255 1.313-.255 1.933 0 3.5 1.567 3.5 3.5 0 1.933-1.567 3.5-3.5 3.5-.455 0-.899-.087-1.313-.255l-.687-.278.516-.533m-2.515 1.066c-1.933 0-3.5-1.567-3.5-3.5 0-1.933 1.567-3.5 3.5-3.5 1.933 0 3.5 1.567 3.5 3.5 0 1.933-1.567 3.5-3.5 3.5m0 8c-3.482 0-4.706-.063-5.471-.339-.921-.332-1.059-.781-1.018-2.146.007-.233.01-.374.01-.535 0-3.221 1.838-4.98 6.48-4.98 4.642 0 6.48 1.759 6.48 4.98 0 .162.003.303.01.535.041 1.365-.097 1.814-1.018 2.146-.765.276-1.989.339-5.471.339"/></g></svg>