<svg xmlns="http://www.w3.org/2000/svg" viewBox="0 0 16 16"><path fill-rule="evenodd" d="m13.989 9c-.013-.078-.039-.156-.078-.231l-.912-1.769-.912 1.769c-.038.074-.064.152-.077.231h1.979m-10 0c-.013-.078-.039-.156-.078-.231l-.912-1.769-.912 1.769c-.038.074-.064.152-.077.231h1.979m-1.989-9h12c.552 0 1 .448 1 1 0 .552-.448 1-1 1h-12c-.552 0-1-.448-1-1 0-.552.448-1 1-1m3 14h6c.552 0 1 .448 1 1 0 .552-.448 1-1 1h-6c-.552 0-1-.448-1-1 0-.552.448-1 1-1m3-10c.552 0 1 .448 1 1v9h-2v-9c0-.552.448-1 1-1m-4.53-.714l2.265 4.735c.68 1.421.006 3.091-1.504 3.731-.387.164-.807.248-1.231.248-1.657 0-3-1.263-3-2.821 0-.399.09-.794.264-1.158l2.265-4.735c.117-.244.422-.353.682-.243.115.049.207.135.259.243m10 0l2.265 4.735c.68 1.421.006 3.091-1.504 3.731-.387.164-.807.248-1.231.248-1.657 0-3-1.263-3-2.821 0-.399.09-.794.264-1.158l2.265-4.735c.117-.244.422-.353.682-.243.115.049.207.135.259.243"/></svg>