<?xml version="1.0" encoding="UTF-8"?>
<svg width="16px" height="16px" viewBox="0 0 16 16" version="1.1" xmlns="http://www.w3.org/2000/svg" xmlns:xlink="http://www.w3.org/1999/xlink">
    <!-- Generator: Sketch 61.2 (89653) - https://sketch.com -->
    <title>icn/clock</title>
    <desc>Created with Sketch.</desc>
    <g id="icn/clock" stroke="none" stroke-width="1" fill="none" fill-rule="evenodd">
        <path d="M9,4 L9,7.58579 L10.7071,9.29289 C11.0976,9.68342 11.0976,10.3166 10.7071,10.7071 C10.3166,11.0976 9.68342,11.0976 9.29289,10.7071 L7,8.41421 L7,4 C7,3.44772 7.44772,3 8,3 C8.55229,3 9,3.44772 9,4 Z M16,8 C16,12.4183 12.4183,16 8,16 C3.58172,16 0,12.4183 0,8 C0,3.58172 3.58172,0 8,0 C12.4183,0 16,3.58172 16,8 Z M14,8 C14,4.68629 11.3137,2 8,2 C4.68629,2 2,4.68629 2,8 C2,11.3137 4.68629,14 8,14 C11.3137,14 14,11.3137 14,8 Z" id="Clock" fill="#000000"></path>
    </g>
</svg>