<?xml version="1.0" encoding="UTF-8"?>
<svg width="186px" height="136px" viewBox="0 0 186 136" version="1.1" xmlns="http://www.w3.org/2000/svg" xmlns:xlink="http://www.w3.org/1999/xlink">
    <!-- Generator: Sketch 63 (92445) - https://sketch.com -->
    <title>app_assets_images_illustration-congratulation-purchase</title>
    <desc>Created with Sketch.</desc>
    <defs>
        <rect id="path-1" x="0" y="0" width="78.3739269" height="87.7874468" rx="8.467"></rect>
        <ellipse id="path-3" cx="21.5990991" cy="21.4414414" rx="21.5990991" ry="21.4414414"></ellipse>
    </defs>
    <g id="Manage-purchases" stroke="none" stroke-width="1" fill="none" fill-rule="evenodd">
        <g id="Manage-Purchases-8.2" transform="translate(-613.000000, -303.000000)">
            <g id="global-components/modals/small" transform="translate(464.000000, 239.000000)">
                <g id="Content" transform="translate(53.000000, 64.000000)">
                    <g id="app_assets_images_illustration-congratulation-purchase" transform="translate(96.000000, 0.000000)">
                        <g id="Group" transform="translate(29.000000, 0.000000)">
                            <ellipse id="Oval" fill="#F9F9F9" fill-rule="nonzero" cx="68.5" cy="68" rx="68.5" ry="68"></ellipse>
                            <ellipse id="Oval" fill="#E5E5E5" fill-rule="nonzero" cx="111.081081" cy="104.474955" rx="21.5990991" ry="21.4414414"></ellipse>
                            <g transform="translate(70.989612, 68.872890) rotate(-3.000230) translate(-70.989612, -68.872890) translate(31.489612, 23.872890)">
                                <rect id="Rectangle" fill="#E5E5E5" fill-rule="nonzero" x="-1.0848089e-07" y="1.65650437" width="78.3739269" height="87.7874468" rx="8.467"></rect>
                                <g id="0-link" transform="translate(-0.000000, -0.000001)">
                                    <g id="0-Clipped">
                                        <mask id="mask-2" fill="white">
                                            <use xlink:href="#path-1"></use>
                                        </mask>
                                        <g id="0"></g>
                                        <rect id="0" stroke="#EEEEEE" stroke-width="8.00000541" fill="#FFFFFF" fill-rule="nonzero" mask="url(#mask-2)" x="0" y="0" width="78.3739269" height="87.7874468" rx="8.467"></rect>
                                    </g>
                                </g>
                                <g transform="translate(16.045056, 22.666681)" fill="#6B4FBB" fill-rule="nonzero" id="Rectangle">
                                    <rect opacity="0.3" x="0.0740541041" y="0.521946299" width="30.2387592" height="3.67567816" rx="1.83783908"></rect>
                                    <rect x="0.0740541041" y="13.7715408" width="37.6441696" height="3.67567816" rx="1.83783908"></rect>
                                    <rect opacity="0.3" x="0.0740541041" y="27.0223606" width="46.9009326" height="3.67567816" rx="1.83783908"></rect>
                                    <rect x="0.0740541041" y="40.2731804" width="30.2387592" height="3.67567816" rx="1.83783908"></rect>
                                </g>
                            </g>
                            <g transform="translate(89.481982, 81.477477)">
                                <g id="2-link">
                                    <g id="2-Clipped">
                                        <mask id="mask-4" fill="white">
                                            <use xlink:href="#path-3"></use>
                                        </mask>
                                        <g id="2"></g>
                                        <ellipse id="2" stroke-opacity="0.05" stroke="#000000" stroke-width="8" fill="#31AF64" fill-rule="nonzero" mask="url(#mask-4)" cx="21.5990991" cy="21.4414414" rx="21.5990991" ry="21.4414414"></ellipse>
                                    </g>
                                </g>
                                <path d="M24.3887643,23.6296903 L18.8549553,23.6499606 C17.8305858,23.6537129 17.0073275,24.4824847 17.003583,25.5013204 C16.9998726,26.5176966 17.822606,27.3428986 18.8414417,27.3391792 L25.6049861,27.3143917 C25.7101284,27.3140066 25.8128429,27.3050223 25.9131271,27.2880538 C26.0126748,27.3042903 26.1153262,27.3125223 26.2198537,27.3121395 C27.23623,27.3084165 28.0674905,26.4771559 28.071236,25.454631 L28.116258,13.1671156 C28.1199952,12.1433609 27.2972573,11.3193887 26.2784215,11.3231081 C25.2620453,11.3268437 24.4307848,12.1581043 24.4270392,13.1806292 L24.3887688,23.6284605" id="Path" fill="#FFFFFF" fill-rule="nonzero" transform="translate(22.559920, 19.331144) rotate(45.000000) translate(-22.559920, -19.331144) "></path>
                            </g>
                        </g>
                        <g id="Group" transform="translate(93.000000, 49.000000) scale(-1, 1) translate(-93.000000, -49.000000) translate(0.000000, 1.000000)" fill-rule="nonzero">
                            <g fill="#FFCE29" id="Path">
                                <path d="M16.3830172,34.5293739 L12.6260987,35.3626301 C11.963113,35.5094942 11.5461493,35.0888382 11.6923991,34.4289305 L12.5256553,30.6720119 L11.68929,26.9144026 C11.5418772,26.2512952 11.9621884,25.8346794 12.6222174,25.9814753 L16.3798267,26.8178406 L20.1367452,25.9845843 C20.7997309,25.8377202 21.2166946,26.2583762 21.0704448,26.918284 L20.2371886,30.6752025 L21.0735538,34.4328118 C21.2209666,35.0959192 20.8006555,35.512535 20.1406265,35.3657391 L16.3830172,34.5293739" transform="translate(16.381422, 30.673607) rotate(-45.000000) translate(-16.381422, -30.673607) "></path>
                                <path d="M4.90926832,8.26562233 L2.67181926,8.76337116 C1.87387371,8.9410062 1.36986861,8.44377597 1.54873723,7.64028913 L2.04648606,5.40284007 L1.55058848,3.16580212 C1.37361366,2.36800328 1.87126111,1.86358657 2.67460022,2.04179039 L4.91163817,2.53768796 L7.14908722,2.03993913 C7.94703278,1.86230409 8.45103788,2.35953432 8.27216926,3.16302116 L7.77442043,5.40047022 L8.270318,7.63750816 C8.44729283,8.43530701 7.94964538,8.93972372 7.14630626,8.7615199 L4.90926832,8.26562233" opacity="0.5" transform="translate(4.910453, 5.401655) rotate(45.000000) translate(-4.910453, -5.401655) "></path>
                            </g>
                            <path d="M164.423409,93.8087969 L162.18596,94.3065457 C161.388015,94.4841808 160.88401,93.9869505 161.062878,93.1834637 L161.560627,90.9460146 L161.06473,88.7089767 C160.887755,87.9111778 161.385402,87.4067611 162.188741,87.584965 L164.425779,88.0808625 L166.663228,87.5831137 C167.461174,87.4054787 167.965179,87.9027089 167.78631,88.7061957 L167.288562,90.9436448 L167.784459,93.1806827 C167.961434,93.9784816 167.463787,94.4828983 166.660447,94.3046945 L164.423409,93.8087969" id="Path" fill="#FFE694" transform="translate(164.424594, 90.944830) rotate(45.000000) translate(-164.424594, -90.944830) "></path>
                            <path d="M181.157459,59.3435776 L178.92001,59.8413265 C178.122065,60.0189615 177.618059,59.5217313 177.796928,58.7182444 L178.294677,56.4807954 L177.798779,54.2437574 C177.621804,53.4459586 178.119452,52.9415419 178.922791,53.1197457 L181.159829,53.6156433 L183.397278,53.1178944 C184.195224,52.9402594 184.699229,53.4374896 184.52036,54.2409765 L184.022611,56.4784255 L184.518509,58.7154635 C184.695484,59.5132623 184.197836,60.017679 183.394497,59.8394752 L181.157459,59.3435776" id="Path" fill="#FFCE29" transform="translate(181.158644, 56.479610) rotate(45.000000) translate(-181.158644, -56.479610) "></path>
                        </g>
                    </g>
                </g>
            </g>
        </g>
    </g>
</svg>