<svg width="14" height="14" viewBox="0 0 14 14" xmlns="http://www.w3.org/2000/svg"><path d="M0 7c0-3.866 3.142-7 7-7 3.866 0 7 3.142 7 7 0 3.866-3.142 7-7 7-3.866 0-7-3.142-7-7z"/><path d="M1 7c0 3.309 2.69 6 6 6 3.309 0 6-2.69 6-6 0-3.309-2.69-6-6-6-3.309 0-6 2.69-6 6z" fill="#FFF"/><path d="M4 5.425c0-.34.306-.61.689-.61H9.31c.38 0 .689.272.689.61V9.14c0 .339-.306.61-.689.61H4.69c-.38 0-.689-.272-.689-.61V5.425zm.94 3.465h4.12V6.04H4.94v2.85zm-.039-4.514c0-.346.308-.626.691-.626.382 0 .69.279.69.626v.712c0 .346-.307.626-.69.626-.382 0-.69-.279-.69-.626v-.712zm2.816 0c0-.346.308-.626.691-.626.382 0 .69.279.69.626v.712c0 .346-.307.626-.69.626-.382 0-.69-.279-.69-.626v-.712z"/></svg>
