<svg xmlns="http://www.w3.org/2000/svg" viewBox="0 0 16 16"><path fill-rule="evenodd" d="m7.824 14.296c-2.772 0-5.124-1.736-5.124-5.152 0-3.836 2.786-6.356 6.076-6.356 2.926 0 4.788 1.974 4.788 4.816 0 2.506-1.624 3.78-2.996 3.78-.798 0-1.414-.364-1.54-1.064-.448.56-1.12.952-1.722.952-1.022 0-1.764-.77-1.764-2.044 0-1.596 1.134-3.346 2.758-3.346.476 0 .84.21 1.092.686l.04-.111c.094-.256.386-.463.669-.463h.024c.276 0 .456.212.4.488l-.503 2.466c-.238.952.014 1.414.7 1.414.868 0 1.778-1.036 1.778-2.702 0-2.128-1.204-3.864-3.85-3.864-2.45 0-4.83 2.086-4.83 5.292 0 2.758 1.848 4.186 4.13 4.186.784 0 1.582-.238 2.198-.574.616-.336.852.574.378.896-.474.322-1.722.7-2.702.7m-.182-4.074c.336 0 .686-.21 1.106-.728l.364-2.058c-.21-.336-.448-.49-.77-.49-.966 0-1.554 1.246-1.554 2.184 0 .756.336 1.092.854 1.092"/></svg>