<svg xmlns="http://www.w3.org/2000/svg" viewBox="0 0 16 16"><path fill-rule="evenodd" d="m9.76 10.353h-3.477l-.506 2.867c-.072.408-.458.681-.869.609-.408-.072-.681-.459-.608-.869l.46-2.607h-2.01c-.415 0-.751-.333-.751-.75 0-.414.333-.75.751-.75h2.274l.441-2.5h-1.714c-.415 0-.751-.333-.751-.75 0-.414.333-.75.751-.75h1.979l.394-2.233c.072-.408.458-.681.869-.609.408.072.681.459.608.869l-.348 1.972h3.477l.394-2.233c.072-.408.458-.681.869-.609.408.072.681.459.608.869l-.348 1.972h1.996c.415 0 .751.333.751.75 0 .414-.333.75-.751.75h-2.261l-.441 2.5h1.702c.415 0 .751.333.751.75 0 .414-.333.75-.751.75h-1.966l-.506 2.867c-.072.408-.458.681-.869.609-.408-.072-.681-.459-.608-.869l.46-2.607m.264-1.5l.441-2.5h-3.477l-.441 2.5h3.477"/></svg>