<svg xmlns="http://www.w3.org/2000/svg" width="401" height="296" viewBox="0 0 401 296" xmlns:xlink="http://www.w3.org/1999/xlink"><defs><ellipse id="a" cx="98" cy="18.915" rx="19" ry="18.915"/><path id="b" d="M63.003 2c5.188 0 16.942 10.842 26.566 30.177-7.5 3.324-17.32 5.34-28.069 5.34-10.257 0-19.668-1.835-27.023-4.892C44.956 12.925 57.754 2 63.003 2zM61.5 33.516c8.183 0 15.959-1.23 22.461-3.444-3.841-7.037-8.089-13.037-12.262-17.504C67.745 8.335 64.235 6 63.003 6c-.415 0-1.55.439-3.057 1.393-1.89 1.199-4.09 3.022-6.409 5.353-4.527 4.552-9.125 10.623-13.279 17.725 6.253 1.965 13.57 3.045 21.242 3.045z"/></defs><g fill="none" fill-rule="evenodd"><path fill="#EEE" fill-rule="nonzero" d="M213 282h6a1 1 0 0 0 1-1v-14a1 1 0 0 0-1-1h-38a1 1 0 0 0-1 1v14a1 1 0 0 0 1 1h6v-7a2 2 0 1 1 4 0v7h7v-7a2 2 0 1 1 4 0v7h7v-7a2 2 0 1 1 4 0v7zm-23-20v-12a5 5 0 0 1 5-5h11a5 5 0 0 1 5 5v12h8a5 5 0 0 1 5 5v14a5 5 0 0 1-5 5h-38a5 5 0 0 1-5-5v-14a5 5 0 0 1 5-5h9zm4 0h13v-12a1 1 0 0 0-1-1h-11a1 1 0 0 0-1 1v12z"/><path fill="#EEE" fill-rule="nonzero" d="M309.117 282h-304a5 5 0 0 0-5 5v4a5 5 0 0 0 5 5h390a5 5 0 0 0 5-5v-4a5 5 0 0 0-5-5h-10v4h10a1 1 0 0 1 1 1v4a1 1 0 0 1-1 1h-11.999a9.985 9.985 0 0 1-8 4h-56a9.985 9.985 0 0 1-8.001-4h-306a1 1 0 0 1-1-1v-4a1 1 0 0 1 1-1h304v-4z"/><path fill="#FEF0E8" fill-rule="nonzero" d="M204.004 27.447l-32.845 88.973 3.752-3.614 32.845-83.974zM240.45 32.906l-1.651 95.742-3.999-8.07 1.65-87.74z"/><g transform="rotate(10 125.306 735.085)"><g transform="translate(114 9.955)"><path fill="#EEE" fill-rule="nonzero" d="M2.578 12.942a18.908 18.908 0 0 0 .422-4h75.53a2.47 2.47 0 1 0 0-4.942H2.34A18.742 18.742 0 0 0 .758.039C.992.013 1.23 0 1.471 0h77.058a6.47 6.47 0 0 1 2.01 12.623 6.47 6.47 0 0 1-5.837 9.267H49.646a6.47 6.47 0 0 1-5.98-8.948H2.578zm47.067.007a2.47 2.47 0 1 0 0 4.942h25.058a2.47 2.47 0 0 0 0-4.942H49.645z"/><rect width="24" height="3.982" x="50" y="25.883" fill="#EFEDF8" rx="1.991"/><rect width="24" height="3.982" x="50" y="34.843" fill="#E1DBF1" rx="1.991"/><rect width="24" height="3.982" x="50" y="43.803" fill="#C3B8E3" rx="1.991"/><rect width="24" height="3.982" x="50" y="52.762" fill="#6B4FBB" rx="1.991"/></g><g transform="matrix(-1 0 0 1 82 9.955)"><path fill="#EEE" fill-rule="nonzero" d="M2.578 12.942a18.908 18.908 0 0 0 .422-4h72.53a2.47 2.47 0 1 0 0-4.942H2.34A18.743 18.743 0 0 0 .737 0H75.53a6.47 6.47 0 0 1 1.706 12.714 6.47 6.47 0 0 1-5.88 9.176H46.297a6.47 6.47 0 0 1-5.98-8.948H2.579zm43.72.007a2.47 2.47 0 0 0 0 4.942h25.057a2.47 2.47 0 1 0 0-4.942H46.297z"/><rect width="24" height="3.982" x="47" y="25.883" fill="#EFEDF8" rx="1.991"/><rect width="24" height="3.982" x="47" y="34.843" fill="#E1DBF1" rx="1.991"/><rect width="24" height="3.982" x="47" y="43.803" fill="#C3B8E3" rx="1.991"/><rect width="24" height="3.982" x="47" y="52.762" fill="#6B4FBB" rx="1.991"/></g><use fill="#FFF" xlink:href="#a"/><ellipse cx="98" cy="18.915" stroke="#FDC4A8" stroke-width="4" rx="17" ry="16.915"/><path fill="#FDC4A8" fill-rule="nonzero" d="M98 33.83c8.288 0 15-6.682 15-14.915C113 10.682 106.288 4 98 4s-15 6.682-15 14.915c0 8.233 6.712 14.915 15 14.915zm0 4c-10.493 0-19-8.469-19-18.915C79 8.468 87.507 0 98 0s19 8.468 19 18.915c0 10.446-8.507 18.915-19 18.915z"/><path fill="#FC6D26" fill-rule="nonzero" d="M98 22.879c2.213 0 4-1.779 4-3.964s-1.787-3.964-4-3.964-4 1.779-4 3.964 1.787 3.964 4 3.964zm0 4c-4.418 0-8-3.566-8-7.964 0-4.399 3.582-7.964 8-7.964s8 3.565 8 7.964c0 4.398-3.582 7.964-8 7.964z"/></g><g transform="rotate(10 -302.417 901.242)"><path fill="#EEE" fill-rule="nonzero" d="M22.826 137.473l-16.251 2.805a5.6 5.6 0 0 1-6.349-7.015L10.843 95a5.6 5.6 0 0 1 3.97-3.918l1.36-.359c1.117-24.857 8.287-47.279 19.436-65.327C44.818 10.489 56.215 0 62.528 0 68.797 0 79.473 10.522 88.1 25.653c10.276 18.019 16.841 40.41 17.774 65.077l1.335.352A5.6 5.6 0 0 1 111.18 95l10.616 38.263a5.6 5.6 0 0 1-6.349 7.015l-16.514-2.85c-5.01 9.519-12.697 14.193-23.113 13.871l-29.454-.002c-10.691.5-18.514-4.163-23.54-13.824zm-6.785-42.578l-.21.055a1.6 1.6 0 0 0-1.134 1.12L4.081 134.331a1.6 1.6 0 0 0 1.814 2.005l15.215-2.627c-3.721-9.32-5.396-22.292-5.069-38.815zm84.63 38.774l15.457 2.668a1.6 1.6 0 0 0 1.814-2.005L107.325 96.07a1.6 1.6 0 0 0-1.134-1.12l-.211-.055c.227 16.503-1.532 29.461-5.31 38.775zM20.068 93.765c-.944 36.977 7.838 54.389 25.942 53.54a7.6 7.6 0 0 1 .356-.008H75.71c18.159.558 26.965-16.876 26.251-53.545-.49-25.15-6.976-47.956-17.333-66.118C76.668 13.678 66.848 4 62.527 4c-4.455 0-14.987 9.693-23.515 23.498C27.79 45.666 20.713 68.46 20.068 93.765z"/><use fill="#FFF" xlink:href="#b"/><path stroke="#EEE" stroke-width="4" d="M37.32 31.586c6.943 2.53 15.341 3.93 24.18 3.93 9.331 0 18.165-1.56 25.306-4.354C78.536 15.315 67.782 4 63.003 4c-2.033 0-6.24 2.667-10.884 7.336-5.097 5.125-10.257 12.091-14.8 20.25zm24.18 3.93c-7.79 0-15.32-1.088-21.841-3.137l-2.394-.752 1.267-2.166c4.169-7.129 8.858-13.37 13.587-18.125 2.386-2.4 4.702-4.33 6.757-5.632C60.542 4.648 62.025 4 63.003 4c2.157 0 6.15 2.912 10.158 7.203 4.36 4.668 8.695 10.839 12.556 17.911l1.138 2.086-2.25.766c-6.791 2.312-14.799 3.55-23.105 3.55z"/><path fill="#FDC4A8" d="M49.523 135.113c-1.657 0-3-1.337-3-2.986a2.993 2.993 0 0 1 3-2.987c1.657 0 3 1.337 3 2.987a2.993 2.993 0 0 1-3 2.986zm12 0c-1.657 0-3-1.337-3-2.986a2.993 2.993 0 0 1 3-2.987c1.657 0 3 1.337 3 2.987a2.993 2.993 0 0 1-3 2.986zm12 0c-1.657 0-3-1.337-3-2.986a2.993 2.993 0 0 1 3-2.987c1.657 0 3 1.337 3 2.987a2.993 2.993 0 0 1-3 2.986z"/><path fill="#E1DBF1" fill-rule="nonzero" d="M62 91.578c8.84 0 16-7.127 16-15.91 0-8.783-7.16-15.91-16-15.91s-16 7.127-16 15.91c0 8.783 7.16 15.91 16 15.91zm0 4c-11.046 0-20-8.914-20-19.91s8.954-19.91 20-19.91 20 8.914 20 19.91-8.954 19.91-20 19.91z"/><path fill="#6B4FBB" fill-rule="nonzero" d="M62 81.623c3.318 0 6-2.67 6-5.955s-2.682-5.955-6-5.955-6 2.67-6 5.955 2.682 5.955 6 5.955zm0 4c-5.523 0-10-4.457-10-9.955s4.477-9.955 10-9.955 10 4.457 10 9.955-4.477 9.955-10 9.955z"/></g><g fill-rule="nonzero"><path fill="#EEE" d="M63 258v4H37v14a6 6 0 0 0 6 6h66a6 6 0 0 0 6-6v-14H88v-4h27v-13a6 6 0 0 0-6-6H43a6 6 0 0 0-6 6v13h26zm56 2v16c0 5.523-4.477 10-10 10H43c-5.523 0-10-4.477-10-10v-31c0-5.523 4.477-10 10-10h8v-3a7 7 0 0 1 7-7h36a7 7 0 0 1 7 7v3h8c5.523 0 10 4.477 10 10v15zm-22-25v-3a3 3 0 0 0-3-3H58a3 3 0 0 0-3 3v3h42z"/><path fill="#FC6D26" d="M68 257a1 1 0 0 0-1 1v5a1 1 0 0 0 1 1h15a1 1 0 0 0 1-1v-5a1 1 0 0 0-1-1H68zm0-4h15a5 5 0 0 1 5 5v5a5 5 0 0 1-5 5H68a5 5 0 0 1-5-5v-5a5 5 0 0 1 5-5z"/></g><g transform="translate(309.117 215)"><rect width="4" height="16" x="36" y="14" fill="#EEE" rx="2"/><circle cx="38" cy="12" r="12" fill="#FC6D26" opacity=".1"/><circle cx="38" cy="12" r="7" fill="#FC6D26" opacity=".1"/><circle cx="38" cy="12" r="4" fill="#FC6D26"/><path fill="#EEE" fill-rule="nonzero" d="M10 30a6 6 0 0 0-6 6v35a6 6 0 0 0 6 6h56a6 6 0 0 0 6-6V36a6 6 0 0 0-6-6H10zm0-4h56c5.523 0 10 4.477 10 10v35c0 5.523-4.477 10-10 10H10C4.477 81 0 76.523 0 71V36c0-5.523 4.477-10 10-10z"/><path fill="#EFEDF8" d="M33 48h10a2 2 0 1 1 0 4H33a2 2 0 1 1 0-4zm0 7h10a2 2 0 1 1 0 4H33a2 2 0 1 1 0-4z"/><path fill="#EFEDF8" fill-rule="nonzero" d="M18 41a3 3 0 0 0-3 3v20a3 3 0 0 0 6 0V44a3 3 0 0 0-3-3zm0-4a7 7 0 0 1 7 7v20a7 7 0 0 1-14 0V44a7 7 0 0 1 7-7z"/><rect width="4" height="3" x="16" y="49" fill="#C3B8E3" rx="1.5"/><rect width="4" height="3" x="16" y="54" fill="#E1DBF1" rx="1.5"/><rect width="4" height="3" x="16" y="59" fill="#EFEDF8" rx="1.5"/><rect width="4" height="10" x="16" y="37" fill="#C3B8E3" rx="2"/><rect width="16" height="6" x="10" y="34" fill="#6B4FBB" rx="3"/><path fill="#E1DBF1" fill-rule="nonzero" d="M59 47a4 4 0 1 0 0-8 4 4 0 0 0 0 8zm0 4a8 8 0 1 1 0-16 8 8 0 0 1 0 16zm0 15a4 4 0 1 0 0-8 4 4 0 0 0 0 8zm0 4a8 8 0 1 1 0-16 8 8 0 0 1 0 16z"/></g><g><path fill="#F9F9F9" d="M76.44 115.76l-.612-1.223a38.796 38.796 0 0 0 1.92-19.143 38.825 38.825 0 0 1-1.31 20.366zm6.458 14.196l1.023 2.048-16.236-1.867a38.825 38.825 0 0 1-21.386 11.42c-21.211 3.74-41.44-10.423-45.18-31.635-.057-.33-.111-.659-.16-.987 4.182 20.664 24.11 34.334 44.993 30.652a38.825 38.825 0 0 0 21.386-11.42l15.56 1.79z"/><path fill="#EEE" fill-rule="nonzero" d="M71.48 114.783l.591-1.619a34.817 34.817 0 0 0 1.577-18.062c-3.356-19.036-21.51-31.747-40.546-28.39-19.036 3.356-31.747 21.51-28.39 40.545 3.356 19.037 21.51 31.748 40.546 28.391a34.82 34.82 0 0 0 19.19-10.246l1.373-1.435 10.873 1.25-5.215-10.434zm12.094 15.251l-16.236-1.866a38.825 38.825 0 0 1-21.386 11.42c-21.212 3.74-41.44-10.424-45.18-31.636-3.74-21.212 10.424-41.44 31.636-45.18 21.211-3.74 41.44 10.424 45.18 31.636a38.82 38.82 0 0 1-1.76 20.13l7.746 15.496z"/><g transform="rotate(-10 457.46 -132.249)"><rect width="4" height="31" x="3" fill="#E1DBF1" rx="2"/><path fill="#6B4FBB" d="M8.989 29.739c.007.086.011.173.011.261v17a3 3 0 0 1-3 3H4a3 3 0 0 1-3-3V30c0-.088.004-.175.011-.261A2 2 0 0 1 2 26h6a2 2 0 1 1 .989 3.739z"/></g></g><g><path fill="#F9F9F9" d="M301.943 175.98l15.56-1.789a38.825 38.825 0 0 0 21.386 11.42c20.883 3.682 40.811-9.988 44.994-30.653-.05.33-.104.658-.162.987-3.74 21.212-23.967 35.376-45.18 31.636a38.825 38.825 0 0 1-21.385-11.42l-16.236 1.866 1.023-2.047zm6.459-14.196a38.825 38.825 0 0 1-1.31-20.366 38.796 38.796 0 0 0 1.921 19.143l-.611 1.223z"/><path fill="#EEE" fill-rule="nonzero" d="M313.361 160.807l-.591-1.62a34.817 34.817 0 0 1-1.578-18.061c3.357-19.037 21.51-31.747 40.546-28.39 19.037 3.356 31.748 21.509 28.391 40.545-3.357 19.036-21.51 31.747-40.546 28.39a34.82 34.82 0 0 1-19.19-10.245l-1.373-1.435-10.873 1.25 5.214-10.434zm-12.094 15.25l16.236-1.866a38.825 38.825 0 0 0 21.385 11.42c21.212 3.74 41.44-10.423 45.18-31.635 3.74-21.212-10.423-41.44-31.635-45.18-21.212-3.74-41.44 10.423-45.18 31.635a38.82 38.82 0 0 0 1.76 20.13l-7.746 15.497z"/><path fill="#FEE1D3" d="M350.263 132.624l-2.952 16.742a2 2 0 1 1-3.94-.695l2.952-16.742-3.939-.694 1.216-6.894 11.817 2.084-1.215 6.894-3.94-.695zm-6.667-8.264l-1.215 6.893a6.497 6.497 0 0 0-5.42 2.072 6.5 6.5 0 0 1 6.636-8.965z"/><path fill="#FDC4A8" d="M354.606 125.266l.985.174a2 2 0 0 1 1.622 2.317l-.868 4.924a2 2 0 0 1-2.317 1.622l-.985-.173a1 1 0 0 1-.81-1.159l1.215-6.893a1 1 0 0 1 1.158-.812z"/><path fill="#FC6D26" d="M343.371 148.671l3.94.695a1 1 0 0 1 .81 1.158l-2.951 16.742a3 3 0 0 1-5.909-1.042l2.952-16.742a1 1 0 0 1 1.158-.81z"/></g></g></svg>