<svg xmlns="http://www.w3.org/2000/svg" viewBox="0 0 16 16"><path fill-rule="evenodd" d="m8.2 6.01c-.023 0-.045-.001-.068-.001-1.933 0-3.5 1.541-3.5 3.443v3.242c0 1.899 1.567 3.443 3.5 3.443 1.933 0 3.5-1.541 3.5-3.443v-2.479c-.439.544-1.086.975-1.853 1.225v1.454c0 .896-.739 1.622-1.647 1.622-.91 0-1.647-.725-1.647-1.622v-3.439c0-.896.739-1.622 1.647-1.622.035 0 .069.001.103.003v-.003c.512 0 .926-.408.926-.911 0-.503-.415-.911-.926-.911-.012 0-.023 0-.035.001m-.136 4.252c.023 0 .045.001.068.001 1.933 0 3.5-1.541 3.5-3.443v-3.242c0-1.899-1.567-3.443-3.5-3.443-1.933 0-3.5 1.541-3.5 3.443v2.479c.439-.544 1.086-.975 1.853-1.225v-1.454c0-.896.739-1.622 1.647-1.622.91 0 1.647.725 1.647 1.622v3.439c0 .896-.739 1.622-1.647 1.622-.035 0-.069-.001-.103-.003v.003c-.512 0-.926.408-.926.911 0 .503.415.911.926.911.012 0 .023 0 .035-.001" transform="matrix(.70711.70711-.70711.70711 8.132-3.368)"/></svg>