<svg xmlns="http://www.w3.org/2000/svg" viewBox="0 0 16 16"><path fill-rule="evenodd" d="m.9 3.158v4.684c-.538.293-.9.84-.9 1.466 0 .935.806 1.692 1.8 1.692.994 0 1.8-.758 1.8-1.692 0-.626-.362-1.173-.9-1.466v-.673c.796.669 1.803 1.12 2.917 1.252.305.528.899.886 1.583.886.994 0 1.8-.758 1.8-1.692 0-.935-.806-1.692-1.8-1.692-.644 0-1.208.318-1.526.795-1.69-.279-2.974-1.665-2.974-3.334h.9-.9v-.226c.538-.293.9-.84.9-1.466 0-.935-.806-1.692-1.8-1.692-.994 0-1.8.758-1.8 1.692 0 .626.362 1.173.9 1.466m1.8 6.149c0-.467-.403-.846-.9-.846-.497 0-.9.379-.9.846 0 .467.403.846.9.846.497 0 .9-.379.9-.846m0-7.615c0-.467-.403-.846-.9-.846-.497 0-.9.379-.9.846 0 .467.403.846.9.846.497 0 .9-.379.9-.846m5.4 5.923c0-.467-.403-.846-.9-.846-.497 0-.9.379-.9.846 0 .467.403.846.9.846.497 0 .9-.379.9-.846" transform="translate(4 3)"/></svg>