<svg xmlns="http://www.w3.org/2000/svg" viewBox="0 0 14 14" enable-background="new 0 0 14 14"><path d="M16.0714286,9 C16.0714286,5.14285714 12.8571429,1.92857143 9,1.92857143 C5.14285714,1.92857143 1.92857143,5.14285714 1.92857143,9 C1.92857143,12.8571429 5.14285714,16.0714286 9,16.0714286 C12.8571429,16.0714286 16.0714286,12.8571429 16.0714286,9 M0,9 C0,3.98571429 3.98571429,0 9,0 C14.0142857,0 18,3.98571429 18,9 C18,14.0142857 14.0142857,18 9,18 C3.98571429,18 0,14.0142857 0,9"/><path d="M7.01016634,12.3469395 C6.76909094,12.4807836 6.57366071,12.359948 6.57366071,12.0935684 L6.57366071,6.19214586 C6.57366071,5.91836876 6.76624854,5.80335255 7.01016634,5.93877474 L12.3447444,8.90051098 C12.5858198,9.03435507 12.5886622,9.24978113 12.3447444,9.38520331 L7.01016634,12.3469395 Z"/></svg>
