<svg xmlns="http://www.w3.org/2000/svg" viewBox="0 0 24 34" enable-background="new 0 0 24 34"><path d="m20 0c-2.2 0-4 1.8-4 4 0 1.5.8 2.8 2 3.5v4.2c0 .2-.1.4-.2.5 0 0-1.3 1.2-1.8 1.7-1.4 1.3-2.8 2-3.9 2-1 0-2.5-.7-4-2.1-.6-.5-1.7-1.6-1.7-1.6-.2 0-.4-.4-.4-.7 0 0 0-1.8 0-4 1.2-.7 2-2 2-3.5 0-2.2-1.8-4-4-4s-4 1.8-4 4c0 1.5.8 2.8 2 3.5v4.5c0 .5.3 1.3.6 1.8 0 0 3.2 4.6 7.4 5.9v6.9c-1.2.7-2 2-2 3.5 0 2.2 1.8 4 4 4s4-1.8 4-4c0-1.5-.8-2.8-2-3.5v-6.8c4.2-1.2 7.4-5.9 7.4-5.9.3-.4.6-1.2.6-1.8v-4.6c1.2-.7 2-2 2-3.5 0-2.2-1.8-4-4-4m-16 6c-1.1 0-2-.9-2-2s.9-2 2-2 2 .9 2 2-.9 2-2 2m8 26c-1.1 0-2-.9-2-2s.9-2 2-2 2 .9 2 2-.9 2-2 2m8-26c-1.1 0-2-.9-2-2s.9-2 2-2 2 .9 2 2-.9 2-2 2"/></svg>