<svg xmlns="http://www.w3.org/2000/svg" viewBox="0 0 14 14" enable-background="new 0 0 14 14"><path d="M13.3571429,7 L13.3571429,13.2857143 C13.3571429,13.3630956 13.3288693,13.4300592 13.2723214,13.4866071 C13.2157735,13.543155 13.1488099,13.5714286 13.0714286,13.5714286 L6.78571429,13.5714286 C6.70833295,13.5714286 6.64136933,13.543155 6.58482143,13.4866071 C6.52827353,13.4300592 6.5,13.3630956 6.5,13.2857143 L6.5,7 C6.5,6.92261866 6.52827353,6.85565504 6.58482143,6.79910714 C6.64136933,6.74255924 6.70833295,6.71428571 6.78571429,6.71428571 L13.0714286,6.71428571 C13.1488099,6.71428571 13.2157735,6.74255924 13.2723214,6.79910714 C13.3288693,6.85565504 13.3571429,6.92261866 13.3571429,7 L13.3571429,7 Z"/><path d="M17.8571429,10 C17.8571429,5.71428571 14.2857143,2.14285714 10,2.14285714 C5.71428571,2.14285714 2.14285714,5.71428571 2.14285714,10 C2.14285714,14.2857143 5.71428571,17.8571429 10,17.8571429 C14.2857143,17.8571429 17.8571429,14.2857143 17.8571429,10 M0,10 C0,4.42857143 4.42857143,0 10,0 C15.5714286,0 20,4.42857143 20,10 C20,15.5714286 15.5714286,20 10,20 C4.42857143,20 0,15.5714286 0,10"/></svg>
