<svg xmlns="http://www.w3.org/2000/svg" viewBox="0 0 32 38" enable-background="new 0 0 32 38"><path d="m29 12.7l1.3-1.6c.9-1.1.8-2.6-.3-3.5-1.1-.9-2.6-.8-3.5.3l-1 1.2c-1.9-1.4-4.2-2.4-6.5-2.9v-1.2h3c.6 0 1-.4 1-1v-3c0-.6-.4-1-1-1h-12c-.5 0-1 .4-1 1v3c0 .6.4 1 1 1h3v1.3c-7.4 1.4-13 7.9-13 15.7 0 8.8 7.2 16 16 16s16-7.2 16-16c0-3.5-1.1-6.7-3-9.3m-13 20.3c-6.1 0-11-4.9-11-11s4.9-11 11-11 11 4.9 11 11-4.9 11-11 11"/><path d="m15 20h-4c-.6 0-1 .5-1 1v2c0 .6.4 1 1 1h7c.3 0 .5-.1.7-.3.2-.2.3-.4.3-.7v-8c0-.5-.5-1-1-1h-2c-.6 0-1 .4-1 1 0 0 0 5 0 5"/></svg>