<?xml version="1.0" encoding="UTF-8" standalone="no"?>
<svg width="66px" height="41px" viewBox="0 0 66 41" version="1.1" xmlns="http://www.w3.org/2000/svg" xmlns:xlink="http://www.w3.org/1999/xlink">
    <!-- Generator: Sketch 45.2 (43514) - http://www.bohemiancoding.com/sketch -->
    <title>Combined Shape</title>
    <desc>Created with Sketch.</desc>
    <defs></defs>
    <g id="Page-1" stroke="none" stroke-width="1" fill="none" fill-rule="evenodd">
        <path d="M54.0499268,37.4354586 L43.0499268,34.5971155 L43.0499268,39 C43.0499268,40.1045695 42.1544963,41 41.0499268,41 L18.0499268,41 C16.9453573,41 16.0499268,40.1045695 16.0499268,39 L16.0499268,27.6302733 L6.04992676,25.0499614 L6.04992676,29 L0.0499267578,29 L0.0499267578,23.5017743 L1.03618843e-15,23.4888916 L0.0499267578,17.0976563 L0.0499267578,11 L6.04992676,11 L6.04992676,15.5322289 L54.0499268,3.00881041 L54.0499268,37.4354586 Z M57.0499268,38.2095522 L65.5821533,40.4111328 L65.5821533,0 L57.0499268,2.22609675 L57.0499268,38.2095522 Z M39.416626,33.6596106 L19.9752197,28.6431214 L19.9752197,37.2524414 L39.416626,37.2524414 L39.416626,33.6596106 Z M24.0449219,27 L24.0449219,13.612793 L21.6513672,13.612793 L21.6513672,27 L24.0449219,27 Z M29.7412109,21.980957 L32.3945312,21.980957 L35.0200195,27 L37.7568359,27 L34.8344727,21.6098633 C36.4301758,21.034668 37.3579102,19.5595703 37.3579102,17.796875 C37.3579102,15.2270508 35.5952148,13.612793 32.7841797,13.612793 L27.3476562,13.612793 L27.3476562,27 L29.7412109,27 L29.7412109,21.980957 Z M45.8374023,27.3339844 C48.9267578,27.3339844 51.1904297,25.487793 51.5058594,22.7509766 L49.1494141,22.7509766 C48.824707,24.2539062 47.5351562,25.2001953 45.8374023,25.2001953 C43.5551758,25.2001953 42.1357422,23.3261719 42.1357422,20.3017578 C42.1357422,17.2866211 43.5551758,15.4125977 45.828125,15.4125977 C47.5166016,15.4125977 48.8061523,16.4516602 49.1401367,18.0566406 L51.496582,18.0566406 C51.2182617,15.2641602 48.8710938,13.2788086 45.828125,13.2788086 C42.0336914,13.2788086 39.6865234,15.9599609 39.6865234,20.3110352 C39.6865234,24.6435547 42.0429688,27.3339844 45.8374023,27.3339844 Z M29.7412109,15.5981445 L32.4501953,15.5981445 C33.9716797,15.5981445 34.8994141,16.4516602 34.8994141,17.8432617 C34.8994141,19.2626953 34.0273438,20.0791016 32.5058594,20.0791016 L29.7412109,20.0791016 L29.7412109,15.5981445 Z" id="Combined-Shape" fill="#000000"></path>
    </g>
</svg>