<?xml version="1.0" encoding="UTF-8" standalone="no"?>
<svg width="157px" height="44px" viewBox="0 0 157 44" version="1.1" xmlns="http://www.w3.org/2000/svg" xmlns:xlink="http://www.w3.org/1999/xlink">
    <!-- Generator: Sketch 45.2 (43514) - http://www.bohemiancoding.com/sketch -->
    <title>logo-assembla</title>
    <desc>Created with Sketch.</desc>
    <defs></defs>
    <g id="Page-1" stroke="none" stroke-width="1" fill="none" fill-rule="evenodd">
        <g id="logo-assembla" fill-rule="nonzero">
            <g id="Group">
                <g transform="translate(46.000000, 16.000000)" id="Shape" fill="#363C44">
                    <path d="M9.7,10.1 L2.8,10.1 L1.5,13.3 C1.4,13.7 1.1,13.8 0.8,13.8 C0.6,13.8 0.4,13.7 0.3,13.6 C0.1,13.5 0.1,13.3 0.1,13.1 C0.1,13 0.1,12.9 0.2,12.8 L4.9,1.3 C5.1,0.8 5.3,0.5 5.5,0.3 C5.7,0.1 6,0 6.3,0 C6.6,0 6.9,0.1 7.1,0.3 C7.3,0.5 7.5,0.8 7.7,1.3 L12.4,12.8 C12.4,12.9 12.5,13 12.5,13.1 C12.5,13.3 12.4,13.5 12.3,13.6 C12.2,13.7 12,13.8 11.8,13.8 C11.4,13.8 11.2,13.6 11.1,13.3 L9.7,10.1 Z M6.3,1.5 L3.3,9 L9.3,9 L6.3,1.5 Z"></path>
                    <path d="M15.6,12.3 C15.5,12.2 15.5,12.2 15.5,12.1 C15.5,11.9 15.6,11.8 15.8,11.6 C16,11.4 16.1,11.4 16.3,11.4 C16.4,11.4 16.5,11.4 16.5,11.5 C16.9,11.9 17.5,12.2 18.1,12.4 C18.7,12.7 19.4,12.8 20.2,12.8 C21.2,12.8 22,12.6 22.6,12.2 C23.2,11.8 23.5,11.2 23.5,10.4 C23.5,10 23.5,9.7 23.4,9.4 C23.3,9.1 23.1,8.9 22.9,8.7 C22.7,8.5 22.4,8.3 22.1,8.2 C21.8,8.1 21.4,7.9 21,7.8 L18.5,7 C17.5,6.7 16.8,6.3 16.2,5.7 C15.7,5.2 15.4,4.5 15.4,3.6 C15.4,2.9 15.6,2.3 16,1.7 C16.4,1.2 17,0.7 17.7,0.5 C18.4,0.2 19.2,0.1 20.1,0.1 C21,0.1 21.8,0.3 22.6,0.6 C23.4,0.9 24,1.3 24.4,1.6 C24.5,1.7 24.6,1.9 24.6,2 C24.6,2.2 24.5,2.3 24.4,2.4 C24.3,2.5 24.1,2.6 24,2.6 C23.9,2.6 23.7,2.6 23.6,2.5 C23.2,2.2 22.8,2 22.2,1.7 C21.6,1.5 20.9,1.3 20.2,1.3 C19.2,1.3 18.4,1.5 17.8,1.9 C17.2,2.3 16.9,2.9 16.9,3.5 C16.9,4.1 17.1,4.5 17.4,4.8 C17.8,5.1 18.3,5.4 19.1,5.7 L21.6,6.5 C22.1,6.7 22.6,6.9 22.9,7 C23.3,7.2 23.6,7.4 23.9,7.7 C24.2,8 24.5,8.3 24.6,8.7 C24.8,9.1 24.8,9.5 24.8,10 C24.8,11.3 24.4,12.2 23.5,12.9 C22.6,13.6 21.4,13.9 19.8,13.9 C18.3,14 16.8,13.4 15.6,12.3 Z"></path>
                    <path d="M28.8,12.3 C28.7,12.2 28.7,12.2 28.7,12.1 C28.7,11.9 28.8,11.8 29,11.6 C29.2,11.4 29.3,11.4 29.5,11.4 C29.6,11.4 29.7,11.4 29.7,11.5 C30.1,11.9 30.7,12.2 31.3,12.4 C31.9,12.7 32.6,12.8 33.4,12.8 C34.4,12.8 35.2,12.6 35.8,12.2 C36.4,11.8 36.7,11.2 36.7,10.4 C36.7,10 36.7,9.7 36.6,9.4 C36.5,9.1 36.3,8.9 36.1,8.7 C35.9,8.5 35.6,8.3 35.3,8.2 C35,8.1 34.6,7.9 34.2,7.8 L31.7,7 C30.7,6.7 30,6.3 29.4,5.7 C28.9,5.2 28.6,4.5 28.6,3.6 C28.6,2.9 28.8,2.3 29.2,1.7 C29.6,1.2 30.2,0.7 30.9,0.5 C31.6,0.2 32.4,0.1 33.3,0.1 C34.2,0.1 35,0.3 35.8,0.6 C36.6,0.9 37.2,1.3 37.6,1.6 C37.7,1.7 37.8,1.9 37.8,2 C37.8,2.2 37.7,2.3 37.6,2.4 C37.5,2.5 37.3,2.6 37.2,2.6 C37.1,2.6 36.9,2.6 36.8,2.5 C36.4,2.2 36,2 35.4,1.7 C34.8,1.5 34.1,1.3 33.4,1.3 C32.4,1.3 31.6,1.5 31,1.9 C30.4,2.3 30.1,2.9 30.1,3.5 C30.1,4.1 30.3,4.5 30.6,4.8 C31,5.1 31.5,5.4 32.3,5.7 L34.8,6.5 C35.3,6.7 35.8,6.9 36.1,7 C36.5,7.2 36.8,7.4 37.1,7.7 C37.4,8 37.7,8.3 37.8,8.7 C38,9.1 38,9.5 38,10 C38,11.3 37.6,12.2 36.7,12.9 C35.8,13.6 34.6,13.9 33,13.9 C31.5,14 30,13.4 28.8,12.3 Z"></path>
                    <path d="M42.4,13.6 C42.2,13.4 42.2,13.3 42.2,13.1 L42.2,0.8 C42.2,0.6 42.3,0.4 42.4,0.3 C42.5,0.1 42.7,0.1 42.9,0.1 L50.1,0.1 C50.3,0.1 50.5,0.2 50.6,0.3 C50.7,0.4 50.8,0.6 50.8,0.7 C50.8,0.9 50.7,1 50.6,1.1 C50.5,1.2 50.3,1.3 50.1,1.3 L43.7,1.3 L43.7,6.1 L49.8,6.1 C50,6.1 50.2,6.2 50.3,6.3 C50.4,6.4 50.5,6.6 50.5,6.7 C50.5,6.9 50.4,7 50.3,7.1 C50.2,7.2 50,7.3 49.8,7.3 L43.7,7.3 L43.7,12.5 L50.4,12.5 C50.6,12.5 50.8,12.6 50.9,12.7 C51,12.8 51.1,13 51.1,13.1 C51.1,13.3 51,13.4 50.9,13.5 C50.8,13.6 50.6,13.7 50.4,13.7 L43,13.7 C42.8,13.8 42.6,13.7 42.4,13.6 Z"></path>
                    <path d="M62,13.3 C61.8,13.2 61.7,13 61.6,12.8 L56.6,1.9 L56.6,13.2 C56.6,13.4 56.5,13.5 56.4,13.6 C56.3,13.7 56.1,13.8 55.9,13.8 C55.7,13.8 55.5,13.7 55.4,13.6 C55.3,13.5 55.2,13.4 55.2,13.2 L55.2,1.2 C55.2,0.9 55.3,0.6 55.6,0.4 C55.8,0.2 56.1,0.1 56.4,0.1 C57,0.1 57.4,0.4 57.7,1.1 L62.6,11.8 L67.5,1.1 C67.8,0.5 68.2,0.1 68.8,0.1 C69.1,0.1 69.4,0.2 69.6,0.4 C69.8,0.6 70,0.9 70,1.2 L70,13.2 C70,13.4 69.9,13.5 69.8,13.6 C69.7,13.7 69.5,13.8 69.3,13.8 C69.1,13.8 68.9,13.7 68.8,13.6 C68.7,13.5 68.6,13.4 68.6,13.2 L68.6,1.9 L63.6,12.8 C63.5,13 63.4,13.2 63.2,13.3 C63,13.4 62.9,13.5 62.7,13.5 C62.3,13.5 62.1,13.4 62,13.3 Z"></path>
                    <path d="M74.6,13.6 C74.4,13.5 74.4,13.3 74.4,13.1 L74.4,0.8 C74.4,0.6 74.5,0.4 74.6,0.3 C74.8,0.2 74.9,0.1 75.2,0.1 L78.9,0.1 C82.1,0.1 83.7,1.3 83.7,3.6 C83.7,4.4 83.4,5.1 82.9,5.7 C82.4,6.3 81.7,6.6 80.8,6.7 L80.8,6.7 C81.9,6.8 82.7,7.1 83.3,7.7 C83.9,8.3 84.2,9.1 84.2,10.1 C84.2,10.6 84.1,11 83.9,11.5 C83.7,11.9 83.5,12.3 83.1,12.7 C82.7,13.1 82.3,13.3 81.7,13.5 C81.1,13.7 80.4,13.8 79.6,13.8 L75.1,13.8 C74.9,13.8 74.7,13.7 74.6,13.6 Z M78.7,6.1 C79.8,6.1 80.7,5.9 81.2,5.5 C81.8,5.1 82,4.4 82,3.6 C82,3.2 81.9,2.9 81.8,2.6 C81.7,2.3 81.5,2.1 81.3,1.9 C81.1,1.7 80.9,1.6 80.6,1.5 C80.3,1.4 80,1.3 79.7,1.3 C79.4,1.3 79.1,1.3 78.7,1.3 L75.7,1.3 L75.7,6.2 L78.7,6.1 L78.7,6.1 Z M79.2,12.6 C80.3,12.6 81.2,12.4 81.7,12 C82.2,11.6 82.5,10.9 82.5,9.9 C82.5,9 82.2,8.3 81.5,7.9 C80.8,7.5 79.9,7.3 78.5,7.3 L75.8,7.3 L75.8,12.6 C75.8,12.6 79.2,12.6 79.2,12.6 Z"></path>
                    <path d="M87.9,13.6 C87.7,13.5 87.7,13.3 87.7,13.1 L87.7,0.8 C87.7,0.6 87.8,0.4 87.9,0.3 C88.1,0.2 88.2,0.1 88.5,0.1 C88.7,0.1 88.9,0.2 89,0.3 C89.2,0.4 89.2,0.6 89.2,0.8 L89.2,12.6 L95.6,12.6 C95.8,12.6 96,12.7 96.1,12.8 C96.2,12.9 96.3,13.1 96.3,13.2 C96.3,13.4 96.2,13.5 96.1,13.6 C96,13.7 95.8,13.8 95.6,13.8 L88.5,13.8 C88.2,13.8 88,13.7 87.9,13.6 Z"></path>
                    <path d="M107.6,10.1 L100.7,10.1 L99.4,13.3 C99.3,13.7 99,13.8 98.7,13.8 C98.5,13.8 98.3,13.7 98.2,13.6 C98,13.5 98,13.3 98,13.1 C98,13 98,12.9 98.1,12.8 L102.8,1.3 C103,0.8 103.2,0.5 103.4,0.3 C103.6,0.1 103.9,0 104.2,0 C104.5,0 104.8,0.1 105,0.3 C105.2,0.5 105.4,0.8 105.6,1.3 L110.3,12.8 C110.3,12.9 110.4,13 110.4,13.1 C110.4,13.3 110.3,13.5 110.2,13.6 C110.1,13.7 109.9,13.8 109.7,13.8 C109.3,13.8 109.1,13.6 109,13.3 L107.6,10.1 Z M104.2,1.5 L101.2,9 L107.2,9 L104.2,1.5 Z"></path>
                </g>
                <path d="M36.2,8.2 L23.6,0.9 C22.6,0.3 21.3,0 19.8,0 C18.4,0 17,0.3 16,0.9 L3.6,8.2 C1.6,9.4 -4.4408921e-16,12.4 -4.4408921e-16,14.7 L-4.4408921e-16,29.3 C-4.4408921e-16,31.7 1.5,34.6 3.6,35.8 L16.1,43.1 C17.1,43.7 18.4,44 19.8,44 C21.2,44 22.6,43.7 23.5,43.1 L36.1,35.8 C38.1,34.6 39.9,31.6 39.9,29.3 L39.9,14.7 C40,12.3 38.3,9.4 36.2,8.2 Z" id="Shape" fill="#363C44"></path>
                <path d="M28.9,29.3 C28.8,29.4 28.6,29.4 28.5,29.4 C28.2,29.4 27.9,29.2 27.7,28.9 L22.7,18.9 L17.7,28.9 C17.5,29.2 17.2,29.4 16.9,29.4 C16.8,29.4 16.6,29.4 16.5,29.3 C16.1,29.1 15.9,28.6 16.1,28.1 L21.7,17 L19.8,13.2 L11.9,29 C11.7,29.4 11.2,29.6 10.7,29.4 C10.3,29.2 10.1,28.7 10.3,28.2 L19,10.8 C19.1,10.5 19.4,10.3 19.8,10.3 C20.2,10.3 20.4,10.5 20.6,10.8 L22.7,15 L23.7,16.9 L29.3,28.1 C29.5,28.6 29.3,29.1 28.9,29.3 Z" id="Shape" fill="#FFFFFF"></path>
            </g>
        </g>
    </g>
</svg>