<?xml version="1.0" encoding="UTF-8" standalone="no"?>
<svg width="1026px" height="189px" viewBox="0 0 1026 189" version="1.1" xmlns="http://www.w3.org/2000/svg" xmlns:xlink="http://www.w3.org/1999/xlink">
    <!-- Generator: Sketch 45.2 (43514) - http://www.bohemiancoding.com/sketch -->
    <title>logo-buildkit</title>
    <desc>Created with Sketch.</desc>
    <defs></defs>
    <g id="Page-1" stroke="none" stroke-width="1" fill="none" fill-rule="evenodd">
        <g id="logo-buildkit" fill-rule="nonzero">
            <g id="Group" transform="translate(0.000000, 8.000000)">
                <g opacity="0.6" id="Shape" fill="#A4D327">
                    <polygon points="0.6 0.3 90.9 45.1 90.9 135.4 0.6 90.6"></polygon>
                    <polygon points="181.9 0.3 271.5 45.1 181.9 90.6"></polygon>
                </g>
                <g transform="translate(90.000000, 0.000000)" id="Shape" fill="#83AD17">
                    <polygon points="91.9 0.3 0.9 45.1 0.9 135.4 91.9 90.6"></polygon>
                    <polygon points="181.5 45.1 91.9 90.6 91.9 180.9 181.5 135.4"></polygon>
                </g>
            </g>
            <g id="Group" transform="translate(333.000000, 0.000000)" fill="#83AD17">
                <path d="M63.8,3.7 C69,3.7 71.9,4.9 75.6,8.6 L83.6,16.6 C87.3,20.3 88.5,23.2 88.5,28.4 L88.5,57.1 C88.5,61.6 87.3,64.7 85.5,67 L83.2,69.4 C83,69.6 82.9,69.9 82.9,70.1 C82.9,70.3 83,70.6 83.2,70.8 L90.1,77.7 C93.8,81.4 95,84.3 95,89.5 L95,119 C95,124.2 93.8,127.2 90.1,130.8 L82.1,138.8 C78.4,142.5 75.5,143.7 70.3,143.7 L0.4,143.7 L0.4,9.7 L6.5,3.6 L63.8,3.6 L63.8,3.7 Z M63.4,22.4 C62.5,21.5 60.9,20.8 59.4,20.8 L18.9,20.8 L18.9,64.8 L59.4,64.8 C60.9,64.8 62.5,64.1 63.4,63.2 L68.3,58.3 C69.4,57.2 70,55.8 70,54.5 L70,31.1 C70,29.8 69.4,28.4 68.3,27.3 L63.4,22.4 Z M69.9,83.5 C69,82.6 67.4,81.9 65.9,81.9 L18.9,81.9 L18.9,126.7 L65.9,126.7 C67.4,126.7 69,126 69.9,125.1 L74.8,120.2 C75.9,119.1 76.5,117.7 76.5,116.4 L76.5,92.2 C76.5,90.9 75.9,89.5 74.8,88.4 L69.9,83.5 Z" id="Shape"></path>
                <path d="M193.5,43.8 L193.5,143.8 L178.3,143.8 L176.6,134 L160.4,141.5 C156.9,143.1 154,143.8 150.2,143.8 L139,143.8 C133.9,143.8 130.9,142.6 127.2,138.9 L119.2,130.9 C115.6,127.3 114.3,124.3 114.3,119.1 L114.3,43.8 L131.6,43.8 L131.6,118 C131.6,119.3 132.2,120.7 133.2,121.8 L138.1,126.7 C139,127.6 140.6,128.2 142.1,128.2 L149.4,128.2 C150.6,128.2 151.8,127.9 152.7,127.5 L176,116.6 L176,43.9 L193.5,43.8 Z" id="Shape"></path>
                <path d="M236,9 L236,28.8 L216,28.8 L216,9 L236,9 Z M234.7,43.7 L234.7,143.8 L217.4,143.8 L217.4,43.7 L234.7,43.7 Z" id="Shape"></path>
                <path d="M276.2,0.4 L276.2,118 C276.2,119.4 276.8,120.8 277.8,121.7 L282.8,126.7 C283.6,127.4 285.1,128.2 286.7,128.2 L297.6,128.2 L297.6,143.7 L283.5,143.7 C278.4,143.7 275.5,142.5 271.7,138.9 L264.5,131.7 C260.3,127.6 258.9,124.5 258.9,119 L258.9,5.3 L263.8,0.4 L276.2,0.4 L276.2,0.4 Z" id="Shape"></path>
                <path d="M383.1,0.4 L387.9,5.2 L387.9,143.8 L372.2,143.8 L371,136.9 L361.6,141.3 C357.6,143.2 354.4,143.8 350.2,143.8 L334.5,143.8 C329.3,143.8 326.4,142.5 322.7,139 L314.7,131 C311.1,127.4 309.8,124.4 309.8,119.2 L309.8,69.6 C309.8,64.4 311.1,61.4 314.7,57.8 L323.7,48.8 C327.4,45.1 330.3,43.9 335.5,43.9 L370.5,43.9 L370.5,0.5 L383.1,0.4 Z M370.6,59.4 L338.8,59.4 C337.3,59.4 335.8,60 334.8,60.9 L328.8,66.8 C327.7,67.9 327.2,69.2 327.2,70.6 L327.2,118 C327.2,119.3 327.8,120.7 328.8,121.8 L333.7,126.7 C334.6,127.6 336.2,128.3 337.7,128.3 L350.1,128.3 C351.3,128.3 352.5,128 353.4,127.6 L370.5,119.5 L370.5,59.4 L370.6,59.4 Z" id="Shape"></path>
                <polygon id="Shape" points="430 0.4 430 78.6 474.6 43.8 483.1 43.8 491 51.7 446.5 86.3 494.8 136.3 487 143.9 478.4 143.9 434.9 97.3 430 104.6 430 143.8 412.7 143.8 412.7 5.3 417.6 0.4 430 0.4"></polygon>
                <path d="M529.6,9 L529.6,28.8 L509.6,28.8 L509.6,9 L529.6,9 Z M528.2,43.7 L528.2,143.8 L510.9,143.8 L510.9,43.7 L528.2,43.7 Z" id="Shape"></path>
                <path d="M576.9,20.8 L576.9,43.8 L598.7,43.8 L598.7,59.4 L576.9,59.4 L576.9,118.1 C576.9,119.4 577.5,120.8 578.5,121.9 L583.4,126.8 C584.3,127.7 585.9,128.4 587.4,128.4 L598.7,128.4 L598.7,139 L593.7,143.7 L584.1,143.7 C578.9,143.7 576,142.5 572.3,138.9 L564.3,130.9 C560.7,127.3 559.4,124.3 559.4,119.1 L559.4,59.2 L544,59.2 L544,48.4 L548.9,43.6 L559.4,43.6 L559.4,20.6 L576.9,20.8 Z" id="Shape"></path>
                <path d="M667.4,43.8 C672.5,43.8 675.5,45 679.2,48.7 L687.2,56.7 C690.8,60.3 692.1,63.3 692.1,68.5 L692.1,95.5 L687.2,100.4 L632,100.4 L632,118 C632,119.3 632.6,120.7 633.6,121.8 L638.5,126.7 C639.4,127.6 641,128.3 642.5,128.3 L664.4,128.3 C665.9,128.3 667.4,127.7 668.4,126.7 L674.8,120.3 L686.5,131.9 L679.4,139 C675.7,142.7 672.8,143.9 667.6,143.9 L639.3,143.9 C634.2,143.9 631.2,142.7 627.5,139 L619.5,131 C615.9,127.4 614.6,124.4 614.6,119.2 L614.6,68.6 C614.6,63.4 615.8,60.4 619.5,56.8 L627.5,48.8 C631.2,45.1 634.1,43.9 639.3,43.9 L667.4,43.8 Z M668.1,60.9 C667.2,60 665.6,59.3 664.1,59.3 L642.2,59.3 C640.7,59.3 639.2,59.9 638.2,60.9 L633.3,65.8 C632.2,66.9 631.7,68.2 631.7,69.6 L631.7,84.9 L674.5,84.9 L674.5,69.6 C674.5,68.3 673.9,66.9 672.9,65.8 L668.1,60.9 Z" id="Shape"></path>
            </g>
        </g>
    </g>
</svg>