<?xml version="1.0" encoding="UTF-8" standalone="no"?>
<svg width="172px" height="30px" viewBox="0 0 172 30" version="1.1" xmlns="http://www.w3.org/2000/svg" xmlns:xlink="http://www.w3.org/1999/xlink">
    <!-- Generator: Sketch 45.2 (43514) - http://www.bohemiancoding.com/sketch -->
    <title>Group</title>
    <desc>Created with Sketch.</desc>
    <defs></defs>
    <g id="Page-1" stroke="none" stroke-width="1" fill="none" fill-rule="evenodd">
        <g id="Group" fill="#DA4E31">
            <path d="M43.4125,17.7125 L43.4125,24.4125 L41,24.4125 L41,6.5 L46.2875,6.5 C47.420839,6.5 48.4062458,6.63124869 49.24375,6.89375 C50.0812542,7.15625131 50.7749972,7.52916425 51.325,8.0125 C51.8750028,8.49583575 52.2854153,9.07916325 52.55625,9.7625 C52.8270847,10.4458367 52.9625,11.2083291 52.9625,12.05 C52.9625,12.8833375 52.8166681,13.6458299 52.525,14.3375 C52.2333319,15.0291701 51.8062528,15.6249975 51.24375,16.125 C50.6812472,16.6250025 49.9833375,17.0145819 49.15,17.29375 C48.3166625,17.5729181 47.3625054,17.7125 46.2875,17.7125 L43.4125,17.7125 Z M43.4125,15.7875 L46.2875,15.7875 C46.9791701,15.7875 47.5895807,15.6958342 48.11875,15.5125 C48.6479193,15.3291657 49.0916649,15.0729183 49.45,14.74375 C49.8083351,14.4145817 50.0791658,14.0208356 50.2625,13.5625 C50.4458343,13.1041644 50.5375,12.6000027 50.5375,12.05 C50.5375,10.9083276 50.1854202,10.0166699 49.48125,9.375 C48.7770798,8.73333012 47.7125071,8.4125 46.2875,8.4125 L43.4125,8.4125 L43.4125,15.7875 Z M55.675,24.4125 L55.675,11.75 L56.95,11.75 C57.1916679,11.75 57.3583329,11.7958329 57.45,11.8875 C57.5416671,11.9791671 57.6041665,12.1374989 57.6375,12.3625 L57.7875,14.3375 C58.2208355,13.4541622 58.7562468,12.7645858 59.39375,12.26875 C60.0312532,11.7729142 60.7791624,11.525 61.6375,11.525 C61.9875017,11.525 62.3041652,11.5645829 62.5875,11.64375 C62.8708347,11.7229171 63.1333321,11.8333326 63.375,11.975 L63.0875,13.6375 C63.0291664,13.8458344 62.900001,13.95 62.7,13.95 C62.5833327,13.95 62.4041679,13.9104171 62.1625,13.83125 C61.9208321,13.7520829 61.5833355,13.7125 61.15,13.7125 C60.3749961,13.7125 59.7270859,13.9374978 59.20625,14.3875 C58.6854141,14.8375023 58.2500017,15.4916624 57.9,16.35 L57.9,24.4125 L55.675,24.4125 Z M70.875,11.55 C71.8000046,11.55 72.6354129,11.7041651 73.38125,12.0125 C74.1270871,12.3208349 74.7604141,12.7583305 75.28125,13.325 C75.8020859,13.8916695 76.2020819,14.5770793 76.48125,15.38125 C76.7604181,16.1854207 76.9,17.0833284 76.9,18.075 C76.9,19.075005 76.7604181,19.974996 76.48125,20.775 C76.2020819,21.575004 75.8020859,22.2583305 75.28125,22.825 C74.7604141,23.3916695 74.1270871,23.8270818 73.38125,24.13125 C72.6354129,24.4354182 71.8000046,24.5875 70.875,24.5875 C69.9499954,24.5875 69.1145871,24.4354182 68.36875,24.13125 C67.6229129,23.8270818 66.9875026,23.3916695 66.4625,22.825 C65.9374974,22.2583305 65.5333348,21.575004 65.25,20.775 C64.9666653,19.974996 64.825,19.075005 64.825,18.075 C64.825,17.0833284 64.9666653,16.1854207 65.25,15.38125 C65.5333348,14.5770793 65.9374974,13.8916695 66.4625,13.325 C66.9875026,12.7583305 67.6229129,12.3208349 68.36875,12.0125 C69.1145871,11.7041651 69.9499954,11.55 70.875,11.55 Z M70.875,22.85 C72.1250063,22.85 73.0583302,22.4312542 73.675,21.59375 C74.2916698,20.7562458 74.6,19.5875075 74.6,18.0875 C74.6,16.5791591 74.2916698,15.4041709 73.675,14.5625 C73.0583302,13.7208291 72.1250063,13.3 70.875,13.3 C70.2416635,13.3 69.691669,13.4083323 69.225,13.625 C68.758331,13.8416677 68.3687516,14.1541646 68.05625,14.5625 C67.7437484,14.9708354 67.5104174,15.4729137 67.35625,16.06875 C67.2020826,16.6645863 67.125,17.3374962 67.125,18.0875 C67.125,18.8375037 67.2020826,19.5083304 67.35625,20.1 C67.5104174,20.6916696 67.7437484,21.1895813 68.05625,21.59375 C68.3687516,21.9979187 68.758331,22.3083323 69.225,22.525 C69.691669,22.7416678 70.2416635,22.85 70.875,22.85 Z M79.65,24.4125 L79.65,11.75 L80.975,11.75 C81.2916682,11.75 81.4916662,11.9041651 81.575,12.2125 L81.7375,13.5125 C82.204169,12.9374971 82.7270804,12.4666685 83.30625,12.1 C83.8854196,11.7333315 84.5583295,11.55 85.325,11.55 C86.1833376,11.55 86.8770807,11.7874976 87.40625,12.2625 C87.9354193,12.7375024 88.3166655,13.3791626 88.55,14.1875 C88.7250009,13.7291644 88.9562486,13.333335 89.24375,13 C89.5312514,12.666665 89.8541649,12.3916677 90.2125,12.175 C90.5708351,11.9583322 90.9520813,11.8000005 91.35625,11.7 C91.7604187,11.5999995 92.1708312,11.55 92.5875,11.55 C93.25417,11.55 93.8479141,11.6562489 94.36875,11.86875 C94.8895859,12.0812511 95.3312482,12.3916646 95.69375,12.8 C96.0562518,13.2083354 96.3333324,13.7104137 96.525,14.30625 C96.7166676,14.9020863 96.8125,15.5833295 96.8125,16.35 L96.8125,24.4125 L94.5875,24.4125 L94.5875,16.35 C94.5875,15.3583284 94.3708355,14.6062526 93.9375,14.09375 C93.5041645,13.5812474 92.8750041,13.325 92.05,13.325 C91.6833315,13.325 91.3354183,13.3895827 91.00625,13.51875 C90.6770817,13.6479173 90.3875012,13.8374987 90.1375,14.0875 C89.8874987,14.3375012 89.6895841,14.6520814 89.54375,15.03125 C89.3979159,15.4104186 89.325,15.8499975 89.325,16.35 L89.325,24.4125 L87.1,24.4125 L87.1,16.35 C87.1,15.3333282 86.8958354,14.5750025 86.4875,14.075 C86.0791646,13.5749975 85.4833373,13.325 84.7,13.325 C84.1499972,13.325 83.6395857,13.4729152 83.16875,13.76875 C82.6979143,14.0645848 82.2666686,14.4666641 81.875,14.975 L81.875,24.4125 L79.65,24.4125 Z M105.1875,11.55 C105.945837,11.55 106.64583,11.6770821 107.2875,11.93125 C107.92917,12.1854179 108.483331,12.5520809 108.95,13.03125 C109.416669,13.5104191 109.781249,14.1020798 110.04375,14.80625 C110.306251,15.5104202 110.4375,16.3124955 110.4375,17.2125 C110.4375,17.5625017 110.4,17.7958327 110.325,17.9125 C110.25,18.0291673 110.108334,18.0875 109.9,18.0875 L101.475,18.0875 C101.491667,18.887504 101.599999,19.5833304 101.8,20.175 C102.000001,20.7666696 102.274998,21.2604147 102.625,21.65625 C102.975002,22.0520853 103.391664,22.3479157 103.875,22.54375 C104.358336,22.7395843 104.899997,22.8375 105.5,22.8375 C106.058336,22.8375 106.539581,22.7729173 106.94375,22.64375 C107.347919,22.5145827 107.695832,22.3750007 107.9875,22.225 C108.279168,22.0749992 108.522916,21.9354173 108.71875,21.80625 C108.914584,21.6770827 109.083333,21.6125 109.225,21.6125 C109.408334,21.6125 109.549999,21.6833326 109.65,21.825 L110.275,22.6375 C109.999999,22.970835 109.670835,23.2604154 109.2875,23.50625 C108.904165,23.7520846 108.493752,23.9541659 108.05625,24.1125 C107.618748,24.2708341 107.166669,24.3895829 106.7,24.46875 C106.233331,24.5479171 105.770836,24.5875 105.3125,24.5875 C104.437496,24.5875 103.631254,24.4395848 102.89375,24.14375 C102.156246,23.8479152 101.518753,23.4145862 100.98125,22.84375 C100.443747,22.2729138 100.025002,21.5666709 99.725,20.725 C99.4249985,19.8833291 99.275,18.9166721 99.275,17.825 C99.275,16.9416623 99.4104153,16.1166705 99.68125,15.35 C99.9520847,14.5833295 100.341664,13.9187528 100.85,13.35625 C101.358336,12.7937472 101.979163,12.3520849 102.7125,12.03125 C103.445837,11.7104151 104.270829,11.55 105.1875,11.55 Z M105.2375,13.1875 C104.162495,13.1875 103.31667,13.4979136 102.7,14.11875 C102.08333,14.7395864 101.700001,15.5999945 101.55,16.7 L108.4375,16.7 C108.4375,16.1833308 108.366667,15.7104188 108.225,15.28125 C108.083333,14.8520812 107.875001,14.4812516 107.6,14.16875 C107.324999,13.8562484 106.989585,13.6145842 106.59375,13.44375 C106.197915,13.2729158 105.745836,13.1875 105.2375,13.1875 Z M117.1125,24.6125 C116.112495,24.6125 115.343753,24.3333361 114.80625,23.775 C114.268747,23.2166639 114,22.4125053 114,21.3625 L114,13.6125 L112.475,13.6125 C112.341666,13.6125 112.229167,13.5729171 112.1375,13.49375 C112.045833,13.4145829 112,13.2916675 112,13.125 L112,12.2375 L114.075,11.975 L114.5875,8.0625 C114.604167,7.93749937 114.658333,7.83541706 114.75,7.75625 C114.841667,7.67708294 114.958333,7.6375 115.1,7.6375 L116.225,7.6375 L116.225,12 L119.85,12 L119.85,13.6125 L116.225,13.6125 L116.225,21.2125 C116.225,21.745836 116.354165,22.1416654 116.6125,22.4 C116.870835,22.6583346 117.204165,22.7875 117.6125,22.7875 C117.845834,22.7875 118.047916,22.7562503 118.21875,22.69375 C118.389584,22.6312497 118.537499,22.5625004 118.6625,22.4875 C118.787501,22.4124996 118.89375,22.3437503 118.98125,22.28125 C119.06875,22.2187497 119.145833,22.1875 119.2125,22.1875 C119.329167,22.1875 119.433333,22.2583326 119.525,22.4 L120.175,23.4625 C119.791665,23.8208351 119.329169,24.1020823 118.7875,24.30625 C118.245831,24.5104177 117.687503,24.6125 117.1125,24.6125 Z M122.6,24.4125 L122.6,6 L124.825,6 L124.825,13.45 C125.366669,12.8749971 125.966663,12.4145851 126.625,12.06875 C127.283337,11.7229149 128.041662,11.55 128.9,11.55 C129.59167,11.55 130.202081,11.6645822 130.73125,11.89375 C131.260419,12.1229178 131.702082,12.4479146 132.05625,12.86875 C132.410418,13.2895854 132.679166,13.7958304 132.8625,14.3875 C133.045834,14.9791696 133.1375,15.6333298 133.1375,16.35 L133.1375,24.4125 L130.9125,24.4125 L130.9125,16.35 C130.9125,15.3916619 130.693752,14.6479193 130.25625,14.11875 C129.818748,13.5895807 129.150005,13.325 128.25,13.325 C127.591663,13.325 126.977086,13.4833317 126.40625,13.8 C125.835414,14.1166683 125.308336,14.5458306 124.825,15.0875 L124.825,24.4125 L122.6,24.4125 Z M141.5125,11.55 C142.270837,11.55 142.97083,11.6770821 143.6125,11.93125 C144.25417,12.1854179 144.808331,12.5520809 145.275,13.03125 C145.741669,13.5104191 146.106249,14.1020798 146.36875,14.80625 C146.631251,15.5104202 146.7625,16.3124955 146.7625,17.2125 C146.7625,17.5625017 146.725,17.7958327 146.65,17.9125 C146.575,18.0291673 146.433334,18.0875 146.225,18.0875 L137.8,18.0875 C137.816667,18.887504 137.924999,19.5833304 138.125,20.175 C138.325001,20.7666696 138.599998,21.2604147 138.95,21.65625 C139.300002,22.0520853 139.716664,22.3479157 140.2,22.54375 C140.683336,22.7395843 141.224997,22.8375 141.825,22.8375 C142.383336,22.8375 142.864581,22.7729173 143.26875,22.64375 C143.672919,22.5145827 144.020832,22.3750007 144.3125,22.225 C144.604168,22.0749992 144.847916,21.9354173 145.04375,21.80625 C145.239584,21.6770827 145.408333,21.6125 145.55,21.6125 C145.733334,21.6125 145.875,21.6833326 145.975,21.825 L146.6,22.6375 C146.324999,22.970835 145.995835,23.2604154 145.6125,23.50625 C145.229165,23.7520846 144.818752,23.9541659 144.38125,24.1125 C143.943748,24.2708341 143.491669,24.3895829 143.025,24.46875 C142.558331,24.5479171 142.095836,24.5875 141.6375,24.5875 C140.762496,24.5875 139.956254,24.4395848 139.21875,24.14375 C138.481246,23.8479152 137.843753,23.4145862 137.30625,22.84375 C136.768747,22.2729138 136.350002,21.5666709 136.05,20.725 C135.749999,19.8833291 135.6,18.9166721 135.6,17.825 C135.6,16.9416623 135.735415,16.1166705 136.00625,15.35 C136.277085,14.5833295 136.666664,13.9187528 137.175,13.35625 C137.683336,12.7937472 138.304163,12.3520849 139.0375,12.03125 C139.770837,11.7104151 140.595829,11.55 141.5125,11.55 Z M141.5625,13.1875 C140.487495,13.1875 139.64167,13.4979136 139.025,14.11875 C138.40833,14.7395864 138.025001,15.5999945 137.875,16.7 L144.7625,16.7 C144.7625,16.1833308 144.691667,15.7104188 144.55,15.28125 C144.408333,14.8520812 144.200001,14.4812516 143.925,14.16875 C143.649999,13.8562484 143.314585,13.6145842 142.91875,13.44375 C142.522915,13.2729158 142.070836,13.1875 141.5625,13.1875 Z M151.525,11.75 L151.525,19.825 C151.525,20.7833381 151.745831,21.5249974 152.1875,22.05 C152.629169,22.5750026 153.295829,22.8375 154.1875,22.8375 C154.837503,22.8375 155.449997,22.6833349 156.025,22.375 C156.600003,22.0666651 157.129164,21.6375027 157.6125,21.0875 L157.6125,11.75 L159.8375,11.75 L159.8375,24.4125 L158.5125,24.4125 C158.195832,24.4125 157.995834,24.2583349 157.9125,23.95 L157.7375,22.5875 C157.187497,23.1958364 156.570837,23.6854148 155.8875,24.05625 C155.204163,24.4270852 154.420838,24.6125 153.5375,24.6125 C152.84583,24.6125 152.235419,24.4979178 151.70625,24.26875 C151.177081,24.0395822 150.733335,23.7166687 150.375,23.3 C150.016665,22.8833312 149.747918,22.3791696 149.56875,21.7875 C149.389582,21.1958304 149.3,20.5416703 149.3,19.825 L149.3,11.75 L151.525,11.75 Z M170.75,13.8375 C170.65,14.0208342 170.495834,14.1125 170.2875,14.1125 C170.162499,14.1125 170.020834,14.0666671 169.8625,13.975 C169.704166,13.8833329 169.510418,13.7812506 169.28125,13.66875 C169.052082,13.5562494 168.779168,13.4520838 168.4625,13.35625 C168.145832,13.2604162 167.770836,13.2125 167.3375,13.2125 C166.962498,13.2125 166.625001,13.2604162 166.325,13.35625 C166.024999,13.4520838 165.768751,13.5833325 165.55625,13.75 C165.343749,13.9166675 165.181251,14.1104156 165.06875,14.33125 C164.956249,14.5520844 164.9,14.7916654 164.9,15.05 C164.9,15.3750016 164.993749,15.6458322 165.18125,15.8625 C165.368751,16.0791677 165.616665,16.2666659 165.925,16.425 C166.233335,16.5833341 166.583331,16.7229161 166.975,16.84375 C167.366669,16.9645839 167.768748,17.0937493 168.18125,17.23125 C168.593752,17.3687507 168.995831,17.5208325 169.3875,17.6875 C169.779169,17.8541675 170.129165,18.0624988 170.4375,18.3125 C170.745835,18.5625012 170.993749,18.8687482 171.18125,19.23125 C171.368751,19.5937518 171.4625,20.0291641 171.4625,20.5375 C171.4625,21.1208362 171.358334,21.6604142 171.15,22.15625 C170.941666,22.6520858 170.633335,23.0812482 170.225,23.44375 C169.816665,23.8062518 169.31667,24.0916656 168.725,24.3 C168.13333,24.5083344 167.450004,24.6125 166.675,24.6125 C165.791662,24.6125 164.99167,24.4687514 164.275,24.18125 C163.55833,23.8937486 162.950003,23.5250023 162.45,23.075 L162.975,22.225 C163.041667,22.1166661 163.120833,22.0333336 163.2125,21.975 C163.304167,21.9166664 163.424999,21.8875 163.575,21.8875 C163.725001,21.8875 163.883332,21.9458327 164.05,22.0625 C164.216668,22.1791673 164.418749,22.3083326 164.65625,22.45 C164.893751,22.5916674 165.181248,22.7208327 165.51875,22.8375 C165.856252,22.9541672 166.279164,23.0125 166.7875,23.0125 C167.220836,23.0125 167.599998,22.9562506 167.925,22.84375 C168.250002,22.7312494 168.520832,22.5791676 168.7375,22.3875 C168.954168,22.1958324 169.114583,21.9750012 169.21875,21.725 C169.322917,21.4749987 169.375,21.2083347 169.375,20.925 C169.375,20.5749982 169.281251,20.2854178 169.09375,20.05625 C168.906249,19.8270822 168.658335,19.6312508 168.35,19.46875 C168.041665,19.3062492 167.689585,19.1645839 167.29375,19.04375 C166.897915,18.9229161 166.493752,18.795834 166.08125,18.6625 C165.668748,18.529166 165.264585,18.3770842 164.86875,18.20625 C164.472915,18.0354158 164.120835,17.8208346 163.8125,17.5625 C163.504165,17.3041654 163.256251,16.9854186 163.06875,16.60625 C162.881249,16.2270814 162.7875,15.7666694 162.7875,15.225 C162.7875,14.7416642 162.887499,14.2770856 163.0875,13.83125 C163.287501,13.3854144 163.579165,12.9937517 163.9625,12.65625 C164.345835,12.3187483 164.816664,12.050001 165.375,11.85 C165.933336,11.649999 166.57083,11.55 167.2875,11.55 C168.120838,11.55 168.868747,11.6812487 169.53125,11.94375 C170.193753,12.2062513 170.766664,12.5666644 171.25,13.025 L170.75,13.8375 Z" id="Prometheus"></path>
            <path d="M14.7801015,0.173969466 C6.61762111,0.173969466 0,6.7908081 0,14.9535493 C0,23.1160297 6.61762111,29.73339 14.7801015,29.73339 C22.9425819,29.73339 29.5599422,23.1160297 29.5599422,14.9535493 C29.5599422,6.7908081 22.9423211,0.173969466 14.7801015,0.173969466 Z M14.7801015,27.8356361 C12.4577265,27.8356361 10.5748396,26.2842562 10.5748396,24.3711138 L18.9853634,24.3711138 C18.9853634,26.2839954 17.1024765,27.8356361 14.7801015,27.8356361 Z M21.7258389,23.2237499 L7.8335816,23.2237499 L7.8335816,20.7047138 L21.7260998,20.7047138 L21.7260998,23.2237499 L21.7258389,23.2237499 Z M21.6760216,19.4081588 L7.87322682,19.4081588 C7.82732183,19.3552115 7.78037355,19.3030468 7.7360335,19.2493171 C6.31402222,17.5226636 5.97912448,16.6212566 5.65387722,15.7026352 C5.64839992,15.6723797 7.37818327,16.0560515 8.60483754,16.332003 C8.60483754,16.332003 9.2360311,16.4780644 10.1588257,16.6462957 C9.27280725,15.6076954 8.74672568,14.2874054 8.74672568,12.9379031 C8.74672568,9.97520571 11.0190225,7.38626881 10.1992533,5.29367957 C10.9971133,5.35862469 11.8505287,6.97755793 11.9081708,9.50885278 C12.7563697,8.33671068 13.1113509,6.19612987 13.1113509,4.88366458 C13.1113509,3.52477265 14.006759,1.94626709 14.9024279,1.89227657 C14.1040462,3.20813257 15.1092611,4.33619545 16.0028434,7.13457385 C16.338002,8.18569371 16.2952269,9.95460063 16.5539641,11.0764037 C16.6397751,8.74646485 17.0404004,5.34688762 18.5184888,4.17318058 C17.8664294,5.65126898 18.6149936,7.50077045 19.1269907,8.38991874 C19.9530197,9.82444956 20.4538013,10.9113023 20.4538013,12.9668545 C20.4538013,14.3450474 19.9449341,15.6426458 19.086563,16.6569895 C20.0625656,16.4738912 20.7365343,16.3087897 20.7365343,16.3087897 L23.906065,15.6903765 C23.9063258,15.6901157 23.445711,17.584218 21.6760216,19.4081588 Z" id="Shape" fill-rule="nonzero"></path>
        </g>
    </g>
</svg>