<?xml version="1.0" encoding="UTF-8" standalone="no"?>
<svg width="198px" height="30px" viewBox="0 0 198 30" version="1.1" xmlns="http://www.w3.org/2000/svg" xmlns:xlink="http://www.w3.org/1999/xlink">
    <!-- Generator: Sketch 45.2 (43514) - http://www.bohemiancoding.com/sketch -->
    <title>logo-pivotaltracker</title>
    <desc>Created with Sketch.</desc>
    <defs></defs>
    <g id="Page-1" stroke="none" stroke-width="1" fill="none" fill-rule="evenodd">
        <g id="logo-pivotaltracker" fill-rule="nonzero">
            <path d="M39.6747967,14.6341463 C40.4878049,14.6341463 41.2195122,14.6341463 41.7886179,14.0650407 C42.3577236,13.5772358 42.6829268,12.8455285 42.6829268,12.0325203 C42.6829268,11.2195122 42.2764228,10.4878049 41.6260163,10 C40.9756098,9.51219512 40.2439024,9.51219512 39.5121951,9.51219512 L37.804878,9.51219512 L37.804878,14.6341463 L39.6747967,14.6341463 L39.6747967,14.6341463 Z M39.4308943,6.66666667 C40.8943089,6.66666667 42.601626,6.82926829 43.8211382,7.72357724 C45.203252,8.7804878 45.8536585,10.3252033 45.8536585,12.0325203 C45.8536585,13.495935 45.2845528,14.8780488 44.2276423,15.9349593 C43.0081301,17.1544715 41.7073171,17.4796748 40,17.4796748 L37.7235772,17.4796748 L37.7235772,20.5691057 L39.5121951,20.5691057 L39.5121951,23.1707317 L32.7642276,23.1707317 L32.7642276,20.5691057 L34.5528455,20.5691057 L34.5528455,9.26829268 L32.7642276,9.26829268 L32.7642276,6.66666667 L39.4308943,6.66666667 L39.4308943,6.66666667 Z" id="Fill-1" fill="#EC7D1A"></path>
            <path d="M48.6178862,9.59349593 L51.4634146,9.59349593 L51.4634146,6.58536585 L48.6178862,6.58536585 L48.6178862,9.59349593 Z M51.4634146,20.5691057 L53.0894309,20.5691057 L53.0894309,23.1707317 L47.0731707,23.1707317 L47.0731707,20.5691057 L48.699187,20.5691057 L48.699187,13.495935 L47.0731707,13.495935 L47.0731707,10.8130081 L51.4634146,10.8130081 L51.4634146,20.5691057 L51.4634146,20.5691057 Z" id="Fill-2" fill="#EC7D1A"></path>
            <polyline id="Fill-3" fill="#EC7D1A" points="61.5447154 23.1707317 58.6178862 23.1707317 54.796748 13.495935 53.3333333 13.495935 53.3333333 10.8130081 59.1056911 10.8130081 59.1056911 13.495935 57.804878 13.495935 60.0813008 19.6747967 60.0813008 19.6747967 62.5203252 13.495935 61.2195122 13.495935 61.2195122 10.8130081 66.9105691 10.8130081 66.9105691 13.495935 65.4471545 13.495935 61.5447154 23.1707317"></polyline>
            <polyline id="Fill-4" fill="#EC7D1A" points="85.0406504 20.5691057 87.2357724 20.5691057 87.2357724 23.1707317 82.195122 23.1707317 82.195122 13.495935 80.2439024 13.495935 80.2439024 10.8130081 82.195122 10.8130081 82.195122 6.66666667 85.0406504 6.66666667 85.0406504 10.8130081 87.1544715 10.8130081 87.1544715 13.495935 85.0406504 13.495935 85.0406504 20.5691057"></polyline>
            <path d="M98.4552846,16.9105691 C98.4552846,14.8780488 96.7479675,13.2520325 94.7154472,13.2520325 C92.601626,13.2520325 90.9756098,14.9593496 90.9756098,17.0731707 C90.9756098,19.1056911 92.6829268,20.7317073 94.6341463,20.7317073 C96.8292683,20.7317073 98.4552846,19.0243902 98.4552846,16.9105691 L98.4552846,16.9105691 Z M98.3739837,21.5447154 C97.4796748,22.9268293 96.0162602,23.5772358 94.3902439,23.5772358 C90.8130081,23.5772358 88.0487805,20.6504065 88.0487805,17.1544715 C88.0487805,13.5772358 90.8943089,10.5691057 94.5528455,10.5691057 C96.1788618,10.5691057 97.5609756,11.300813 98.3739837,12.6829268 L98.3739837,10.8943089 L102.764228,10.8943089 L102.764228,13.5772358 L101.219512,13.5772358 L101.219512,20.6504065 L102.764228,20.6504065 L102.764228,23.2520325 L98.3739837,23.2520325 L98.3739837,21.5447154 L98.3739837,21.5447154 Z" id="Fill-5" fill="#EC7D1A"></path>
            <polyline id="Fill-6" fill="#EC7D1A" points="108.943089 20.5691057 110.569106 20.5691057 110.569106 23.1707317 104.390244 23.1707317 104.390244 20.5691057 106.097561 20.5691057 106.097561 9.26829268 104.552846 9.26829268 104.552846 6.66666667 108.943089 6.66666667 108.943089 20.5691057"></polyline>
            <polyline id="Fill-7" fill="#5283B0" points="119.105691 20.5691057 120.894309 20.5691057 120.894309 23.1707317 114.146341 23.1707317 114.146341 20.5691057 115.934959 20.5691057 115.934959 9.43089431 113.495935 9.43089431 113.495935 11.8699187 111.056911 11.8699187 111.056911 6.66666667 124.065041 6.66666667 124.065041 11.8699187 121.544715 11.8699187 121.544715 9.43089431 119.105691 9.43089431 119.105691 20.5691057"></polyline>
            <path d="M129.430894,12.9268293 C130.162602,11.4634146 131.544715,10.7317073 133.170732,10.6504065 L133.170732,13.5772358 C132.276423,13.6585366 131.463415,13.8211382 130.731707,14.4715447 C129.837398,15.2845528 129.674797,16.2601626 129.674797,17.398374 L129.674797,20.4878049 L131.300813,20.4878049 L131.300813,23.0894309 L125.284553,23.0894309 L125.284553,20.4878049 L126.910569,20.4878049 L126.910569,13.4146341 L125.284553,13.4146341 L125.284553,10.7317073 L129.512195,10.7317073 L129.512195,12.9268293" id="Fill-8" fill="#5283B0"></path>
            <path d="M144.146341,16.9105691 C144.146341,14.8780488 142.439024,13.2520325 140.406504,13.2520325 C138.292683,13.2520325 136.666667,14.9593496 136.666667,17.0731707 C136.666667,19.1056911 138.373984,20.7317073 140.325203,20.7317073 C142.520325,20.7317073 144.146341,19.0243902 144.146341,16.9105691 L144.146341,16.9105691 Z M144.065041,21.5447154 C143.170732,22.9268293 141.707317,23.5772358 140.081301,23.5772358 C136.504065,23.5772358 133.739837,20.6504065 133.739837,17.1544715 C133.739837,13.5772358 136.585366,10.5691057 140.243902,10.5691057 C141.869919,10.5691057 143.252033,11.300813 144.065041,12.6829268 L144.065041,10.8943089 L148.455285,10.8943089 L148.455285,13.5772358 L146.910569,13.5772358 L146.910569,20.6504065 L148.455285,20.6504065 L148.455285,23.2520325 L144.065041,23.2520325 L144.065041,21.5447154 L144.065041,21.5447154 Z" id="Fill-9" fill="#5283B0"></path>
            <path d="M161.95122,19.0243902 C161.219512,21.6260163 158.536585,23.495935 155.772358,23.495935 C152.195122,23.495935 149.268293,20.5691057 149.268293,16.9918699 C149.268293,13.5772358 151.95122,10.4065041 155.528455,10.4065041 C156.910569,10.4065041 158.130081,10.9756098 159.105691,11.9512195 L159.105691,10.7317073 L161.544715,10.7317073 L161.544715,14.8780488 L158.861789,14.8780488 C158.536585,14.3902439 158.04878,13.9837398 157.560976,13.6585366 C156.99187,13.3333333 156.422764,13.1707317 155.772358,13.1707317 C153.658537,13.1707317 152.113821,14.8780488 152.113821,16.9105691 C152.113821,19.0243902 153.821138,20.6504065 155.853659,20.6504065 C157.073171,20.6504065 158.292683,20 158.780488,18.9430894 L161.95122,18.9430894" id="Fill-10" fill="#5283B0"></path>
            <path d="M186.178862,15.8536585 C185.691057,14.0650407 184.146341,12.9268293 182.276423,12.9268293 C180.569106,12.9268293 179.02439,14.2276423 178.699187,15.8536585 L186.178862,15.8536585 L186.178862,15.8536585 Z M188.292683,19.5121951 C187.317073,21.8699187 185.04065,23.495935 182.439024,23.495935 C178.861789,23.495935 175.934959,20.6504065 175.934959,16.9918699 C175.934959,13.3333333 178.699187,10.4065041 182.357724,10.4065041 C184.065041,10.4065041 185.772358,11.1382114 186.99187,12.4390244 C188.211382,13.7398374 188.699187,15.2845528 188.699187,17.0731707 L188.617886,18.0487805 L178.617886,18.0487805 C179.02439,19.7560976 180.569106,20.9756098 182.357724,20.9756098 C183.577236,20.9756098 184.634146,20.4878049 185.365854,19.5121951 L188.292683,19.5121951 L188.292683,19.5121951 Z" id="Fill-11" fill="#5283B0"></path>
            <path d="M193.821138,12.9268293 C194.552846,11.4634146 195.934959,10.7317073 197.560976,10.6504065 L197.560976,13.5772358 C196.666667,13.6585366 195.853659,13.8211382 195.121951,14.4715447 C194.227642,15.2845528 194.065041,16.2601626 194.065041,17.398374 L194.065041,20.4878049 L195.691057,20.4878049 L195.691057,23.0894309 L189.674797,23.0894309 L189.674797,20.4878049 L191.300813,20.4878049 L191.300813,13.4146341 L189.674797,13.4146341 L189.674797,10.7317073 L193.902439,10.7317073 L193.902439,12.9268293" id="Fill-12" fill="#5283B0"></path>
            <path d="M11.7073171,6.82926829 L15.0406504,12.601626 C15.5284553,12.4390244 16.1788618,12.5203252 16.6666667,12.7642276 L18.3739837,9.75609756 L15.4471545,4.71544715 L11.7073171,6.82926829 L11.7073171,6.82926829" id="Fill-13" fill="#EC7D1A"></path>
            <path d="M6.66666667,14.2276423 L13.3333333,14.2276423 C13.4146341,14.0650407 13.495935,13.8211382 13.5772358,13.6585366 C13.7398374,13.3333333 13.9837398,13.0894309 14.3089431,12.9268293 L12.601626,9.91869919 L6.74796748,9.91869919 L6.66666667,14.2276423 L6.66666667,14.2276423 L6.66666667,14.2276423" id="Fill-14" fill="#EC7D1A"></path>
            <path d="M17.6422764,16.097561 C17.4796748,16.4227642 17.2357724,16.6666667 16.9105691,16.8292683 L18.6178862,19.8373984 L24.4715447,19.8373984 L24.4715447,15.4471545 L17.804878,15.4471545 C17.8861789,15.6910569 17.804878,15.8536585 17.6422764,16.097561" id="Fill-15" fill="#EC7D1A"></path>
            <path d="M17.3170732,13.1707317 C17.7235772,13.5772358 17.9674797,14.0650407 17.9674797,14.6341463 L21.4634146,14.6341463 L24.3902439,9.59349593 L20.6504065,7.39837398 L17.3170732,13.1707317" id="Fill-16" fill="#EC7D1A"></path>
            <path d="M10.5691057,22.2764228 L13.902439,16.504065 C13.495935,16.097561 13.2520325,15.6097561 13.2520325,15.0406504 L9.75609756,15.0406504 L6.82926829,20.0813008 L10.5691057,22.2764228 L10.5691057,22.2764228" id="Fill-17" fill="#EC7D1A"></path>
            <path d="M19.5121951,22.9268293 L16.1788618,17.1544715 C15.6910569,17.3170732 15.0406504,17.2357724 14.5528455,16.9918699 L12.8455285,20 L15.7723577,25.0406504 L19.5121951,22.9268293 L19.5121951,22.9268293" id="Fill-18" fill="#EC7D1A"></path>
            <path d="M15.6097561,0 C7.39837398,0 0.731707317,6.66666667 0.731707317,14.8780488 C0.731707317,23.0894309 7.39837398,29.7560976 15.6097561,29.7560976 C23.8211382,29.7560976 30.4878049,23.0894309 30.4878049,14.8780488 C30.4878049,6.66666667 23.8211382,0 15.6097561,0 L15.6097561,0 Z M15.6097561,3.00813008 C22.1138211,3.00813008 27.4796748,8.29268293 27.4796748,14.8780488 C27.4796748,21.3821138 22.195122,26.7479675 15.6097561,26.7479675 C9.10569106,26.7479675 3.7398374,21.4634146 3.7398374,14.8780488 C3.7398374,8.29268293 9.10569106,3.00813008 15.6097561,3.00813008 L15.6097561,3.00813008 Z" id="Fill-19" fill="#5283B0"></path>
            <path d="M73.5772358,10.4878049 C70,10.4878049 67.0731707,13.4146341 67.0731707,16.9918699 C67.0731707,20.5691057 70,23.495935 73.5772358,23.495935 C77.1544715,23.495935 80.0813008,20.5691057 80.0813008,16.9918699 C80.0813008,13.4146341 77.1544715,10.4878049 73.5772358,10.4878049 L73.5772358,10.4878049 Z M73.5772358,13.2520325 C75.6097561,13.2520325 77.3170732,14.9593496 77.3170732,16.9918699 C77.3170732,19.0243902 75.6097561,20.7317073 73.5772358,20.7317073 C71.5447154,20.7317073 69.8373984,19.0243902 69.8373984,16.9918699 C69.8373984,14.9593496 71.4634146,13.2520325 73.5772358,13.2520325 L73.5772358,13.2520325 Z" id="Fill-20" fill="#EC7D1A"></path>
            <polyline id="Fill-21" fill="#5283B0" points="173.902439 20.5691057 170.243902 16.7479675 173.658537 13.495935 175.121951 13.495935 175.121951 10.8130081 169.02439 10.8130081 169.02439 13.1707317 170.325203 13.1707317 167.154472 16.3414634 167.154472 6.66666667 162.682927 6.66666667 162.682927 9.26829268 164.308943 9.26829268 164.308943 20.5691057 162.682927 20.5691057 162.682927 23.1707317 167.154472 23.1707317 167.154472 17.3170732 170.081301 20.5691057 169.02439 20.5691057 169.02439 23.1707317 175.772358 23.1707317 175.772358 20.5691057 173.902439 20.5691057"></polyline>
        </g>
    </g>
</svg>