<?xml version="1.0" encoding="UTF-8" standalone="no"?>
<svg width="342px" height="226px" viewBox="0 0 342 226" version="1.1" xmlns="http://www.w3.org/2000/svg" xmlns:xlink="http://www.w3.org/1999/xlink">
    <!-- Generator: Sketch 45.2 (43514) - http://www.bohemiancoding.com/sketch -->
    <title>Logo-Vertical-Color</title>
    <desc>Created with Sketch.</desc>
    <defs>
        <linearGradient x1="50%" y1="0%" x2="50%" y2="100%" id="linearGradient-1">
            <stop stop-color="#FFFFFF" stop-opacity="0.5" offset="0%"></stop>
            <stop stop-color="#000000" stop-opacity="0.5" offset="100%"></stop>
        </linearGradient>
        <path d="M207.587,68.567 C192.055,68.567 179.466,81.156 179.466,96.687 C179.466,112.219 192.055,124.809 207.587,124.809 C223.117,124.809 235.707,112.219 235.707,96.687 C235.707,81.156 223.117,68.567 207.587,68.567 Z M134.527,68.569 C118.997,68.569 106.407,81.156 106.407,96.688 C106.407,112.219 118.997,124.809 134.527,124.809 C150.058,124.809 162.649,112.219 162.649,96.688 C162.649,81.156 150.058,68.569 134.527,68.569 Z M199.177,33.416 C199.177,48.947 186.588,61.538 171.058,61.538 C155.526,61.538 142.937,48.947 142.937,33.416 C142.937,17.886 155.526,5.296 171.058,5.296 C186.588,5.296 199.177,17.886 199.177,33.416 L199.177,33.416 Z" id="path-2"></path>
    </defs>
    <g id="Page-1" stroke="none" stroke-width="1" fill="none" fill-rule="evenodd">
        <g id="Logo-Vertical-Color" transform="translate(0.000000, -5.000000)">
            <g id="Fill-1">
                <use fill="#D8D8D8" xlink:href="#path-2"></use>
                <use fill="url(#linearGradient-1)" xlink:href="#path-2"></use>
                <use fill="#FC636B" xlink:href="#path-2"></use>
            </g>
            <path d="M32.299,219.039 C21.043,219.039 11.918,209.714 11.918,198.209 C11.918,186.706 21.043,177.38 32.299,177.38 C43.554,177.38 52.677,186.706 52.677,198.209 C52.677,209.714 43.554,219.039 32.299,219.039 Z M52.742,221.681 C53.023,224.877 55.582,228.946 60.015,228.946 L62.609,228.946 C63.615,228.946 64.439,228.123 64.439,227.117 L64.439,170.116 L64.427,170.116 C64.375,169.155 63.581,168.386 62.609,168.386 L54.572,168.386 C53.6,168.386 52.806,169.155 52.752,170.116 L52.742,170.116 L52.742,174.747 C47.817,168.682 40.053,166.165 32.267,166.165 C14.569,166.165 0.223,180.511 0.223,198.209 C0.223,215.907 14.569,230.254 32.267,230.254 L32.267,230.256 C40.053,230.256 48.538,227.235 52.741,221.673 L52.742,221.681 L52.742,221.681 Z" id="Fill-3" fill="#293443"></path>
            <path d="M163.248,219.039 C151.993,219.039 142.868,209.714 142.868,198.209 C142.868,186.706 151.993,177.38 163.248,177.38 C174.503,177.38 183.627,186.706 183.627,198.209 C183.627,209.714 174.503,219.039 163.248,219.039 Z M183.691,221.681 C183.972,224.877 186.531,228.946 190.965,228.946 L193.559,228.946 C194.564,228.946 195.388,228.123 195.388,227.117 L195.388,170.116 L195.377,170.116 C195.325,169.155 194.529,168.386 193.559,168.386 L185.521,168.386 C184.549,168.386 183.755,169.155 183.701,170.116 L183.691,170.116 L183.691,174.747 C178.766,168.682 171.002,166.165 163.216,166.165 C145.519,166.165 131.172,180.511 131.172,198.209 C131.172,215.907 145.519,230.254 163.216,230.254 L163.216,230.256 C171.002,230.256 179.488,227.235 183.69,221.673 L183.691,221.681 L183.691,221.681 Z" id="Fill-4" fill="#293443"></path>
            <path d="M309.637,219.039 C298.381,219.039 289.256,209.714 289.256,198.209 C289.256,186.706 298.381,177.38 309.637,177.38 C320.892,177.38 330.016,186.706 330.016,198.209 C330.016,209.714 320.892,219.039 309.637,219.039 Z M330.08,221.681 C330.361,224.877 332.92,228.946 337.353,228.946 L339.947,228.946 C340.952,228.946 341.777,228.123 341.777,227.117 L341.777,170.116 L341.765,170.116 C341.713,169.155 340.919,168.386 339.947,168.386 L331.91,168.386 C330.938,168.386 330.144,169.155 330.09,170.116 L330.08,170.116 L330.08,174.747 C325.156,168.682 317.392,166.165 309.606,166.165 C291.907,166.165 277.561,180.511 277.561,198.209 C277.561,215.907 291.907,230.254 309.606,230.254 L309.606,230.256 C317.392,230.256 325.876,227.235 330.079,221.673 L330.08,221.681 L330.08,221.681 Z" id="Fill-5" fill="#293443"></path>
            <path d="M267.4,223.641 L267.396,194.145 L267.397,194.145 C267.397,177.518 256.908,166.302 240.181,166.302 C232.195,166.302 224.89,170.879 223.338,174.885 C222.839,171.784 221.192,168.524 216.086,168.524 L213.483,168.524 C212.477,168.524 211.654,169.348 211.654,170.353 L211.654,221.824 C211.654,221.825 211.654,221.829 211.654,221.831 L211.654,227.36 L211.665,227.36 C211.717,228.319 212.512,229.089 213.484,229.089 L221.522,229.089 C221.645,229.089 221.766,229.074 221.882,229.052 C221.935,229.041 221.985,229.021 222.036,229.006 C222.096,228.987 222.158,228.973 222.215,228.95 C222.287,228.92 222.352,228.88 222.418,228.843 C222.451,228.823 222.485,228.809 222.517,228.789 C222.597,228.737 222.67,228.675 222.742,228.611 C222.753,228.599 222.767,228.591 222.779,228.58 C222.859,228.503 222.931,228.418 222.996,228.33 C222.997,228.328 222.997,228.328 222.997,228.328 C223.198,228.052 223.32,227.719 223.34,227.36 L223.351,227.36 L223.351,193.688 C223.351,184.758 230.59,177.518 239.521,177.518 C248.452,177.518 255.692,184.758 255.692,193.688 L255.699,221.833 L255.701,221.824 C255.701,221.848 255.705,221.874 255.705,221.901 L255.705,227.36 L255.715,227.36 C255.769,228.319 256.563,229.089 257.535,229.089 L265.572,229.089 C265.696,229.089 265.816,229.074 265.932,229.052 C265.98,229.043 266.024,229.024 266.071,229.011 C266.136,228.992 266.204,228.975 266.267,228.95 C266.333,228.922 266.393,228.885 266.455,228.85 C266.493,228.828 266.533,228.813 266.569,228.789 C266.643,228.739 266.711,228.681 266.778,228.622 C266.795,228.607 266.814,228.595 266.83,228.579 C266.906,228.506 266.974,228.426 267.036,228.343 C267.041,228.337 267.046,228.332 267.05,228.326 C267.249,228.052 267.37,227.722 267.391,227.365 C267.391,227.362 267.392,227.36 267.392,227.36 L267.402,227.36 L267.402,223.642 L267.4,223.641" id="Fill-6" fill="#293443"></path>
            <path d="M83.641,213.517 C89.006,217.234 94.863,219.039 100.492,219.039 C105.853,219.039 111.396,216.259 111.396,211.422 C111.396,204.962 99.317,203.957 91.729,201.378 C84.138,198.799 77.6,193.467 77.6,184.832 C77.6,171.62 89.373,166.164 100.361,166.164 C107.323,166.164 114.505,168.459 119.163,171.748 C120.767,172.963 119.79,174.358 119.79,174.358 L115.344,180.707 C114.845,181.422 113.971,182.04 112.717,181.266 C111.462,180.492 107.064,177.379 100.361,177.379 C93.657,177.379 89.619,180.475 89.619,184.313 C89.619,188.914 94.866,190.361 101.015,191.93 C111.727,194.817 123.414,198.288 123.414,211.422 C123.414,223.062 112.525,230.257 100.492,230.257 C91.371,230.257 83.607,227.657 77.095,222.878 C75.738,221.521 76.686,220.26 76.686,220.26 L81.109,213.943 C82.009,212.762 83.144,213.174 83.641,213.517" id="Fill-7" fill="#293443"></path>
        </g>
    </g>
</svg>