<?xml version="1.0" encoding="UTF-8" standalone="no"?>
<svg width="405px" height="99px" viewBox="0 0 405 99" version="1.1" xmlns="http://www.w3.org/2000/svg" xmlns:xlink="http://www.w3.org/1999/xlink">
    <!-- Generator: Sketch 45.2 (43514) - http://www.bohemiancoding.com/sketch -->
    <title>Group 2</title>
    <desc>Created with Sketch.</desc>
    <defs></defs>
    <g id="Page-1" stroke="none" stroke-width="1" fill="none" fill-rule="evenodd">
        <g id="Group-2">
            <g id="logo-mattermost" fill="#222222">
                <g id="Group" transform="translate(86.164974, 12.801433)">
                    <path d="M69.5233614,21.678771 C69.5233614,20.6670411 69.3542678,19.8438222 69.0164851,19.210328 C68.6795115,18.5784519 68.2151109,18.0816888 67.6244969,17.7240842 C67.0338829,17.3648614 66.3057286,17.1217388 65.4412476,16.9959299 C64.5759576,16.869312 63.6160076,16.8062053 62.5609929,16.8062053 C60.2826791,16.8062053 57.8571163,17.2487613 55.2830909,18.1346823 C54.6920724,17.0375965 54.2495164,16.0036174 53.9546139,15.0335541 C53.6593069,14.0634908 53.5108443,12.9032983 53.5108443,11.5525722 C55.3676377,10.919887 57.2236221,10.4558909 59.0804155,10.1605839 C60.9363998,9.86527688 62.6673844,9.71721884 64.2697283,9.71721884 C68.6580714,9.71721884 72.08606,10.771829 74.554503,12.8822628 C77.0225414,14.9918875 78.2567629,18.3664781 78.2567629,23.0076525 L78.2567629,41.9938708 C76.7798233,42.4578669 74.9865412,42.901232 72.8769164,43.3231569 C70.7681007,43.7450819 68.3838,43.9562466 65.7256323,43.9562466 C63.5739364,43.9562466 61.6010429,43.7661174 59.8077607,43.3862636 C58.0148831,43.0068143 56.4744322,42.3733201 55.1888354,41.4873991 C53.9012159,40.6022871 52.910117,39.4627256 52.2131116,38.0703328 C51.5177242,36.6775355 51.1694238,34.9692047 51.1694238,32.9437222 C51.1694238,30.9190488 51.6018665,29.2208312 52.466752,27.849474 C53.3316375,26.4785213 54.4501633,25.381031 55.8207115,24.5586212 C57.1924733,23.7358068 58.7215972,23.1451928 60.4097016,22.7863745 C62.0974014,22.4275563 63.7846967,22.2483494 65.4723965,22.2483494 C66.6961002,22.2483494 68.0460173,22.3122652 69.5233614,22.4380741 L69.5233614,21.678771 Z M69.5233614,28.1977744 C69.0164851,28.1132276 68.4683468,28.0387941 67.8769237,27.9760919 C67.2863097,27.9129852 66.7600159,27.8814318 66.2952108,27.8814318 C64.2276572,27.8814318 62.5925463,28.2499588 61.3898781,28.9886309 C60.1876145,29.7268984 59.5864827,30.9190488 59.5864827,32.5642729 C59.5864827,33.6617632 59.818683,34.5048041 60.2826791,35.0962272 C60.7466752,35.6864366 61.3061404,36.1188794 61.9598611,36.3927463 C62.6139864,36.6674223 63.3093737,36.8361113 64.0480458,36.8996226 C64.7871224,36.9623248 65.4303253,36.9950917 65.9780592,36.9950917 C66.6115534,36.9950917 67.2446431,36.9416937 67.8769237,36.8361113 C68.5104179,36.730529 69.0585563,36.6362735 69.5233614,36.5513221 L69.5233614,28.1977744 Z M84.2482591,17.311868 L80.1341874,17.311868 L79.8170357,16.0460931 L91.652779,0.920306102 L93.1082785,0.920306102 L93.1082785,10.4765219 L100.766034,10.4765219 C100.891843,11.1100162 100.976795,11.6791901 101.019675,12.1852573 C101.060937,12.6921336 101.081972,13.2192364 101.081972,13.7681838 C101.081972,14.3583933 101.060937,14.9279718 101.019675,15.4765147 C100.976795,16.0254621 100.891843,16.6371117 100.766034,17.311868 L93.1082785,17.311868 L93.1082785,30.1597457 C93.1082785,31.4671871 93.2142654,32.5217972 93.4254301,33.3239805 C93.6353813,34.1245457 93.9416106,34.7580399 94.3420955,35.2224406 C94.7437939,35.6864366 95.2389388,36.0027792 95.8295529,36.1714683 C96.4201669,36.3409664 97.1171723,36.4251087 97.9177375,36.4251087 C98.5512317,36.4251087 99.1729946,36.3721153 99.7854532,36.2665329 C100.396698,36.161355 100.934723,36.0662905 101.398719,35.9821482 C101.694836,36.7827134 101.904787,37.61645 102.031809,38.48174 C102.158832,39.3466255 102.221534,40.1172554 102.221534,40.7920117 C102.221534,41.2560078 102.211421,41.6459749 102.18998,41.962722 C102.168945,42.27866 102.137796,42.5856984 102.094916,42.8801964 C100.154385,43.3450015 98.1507469,43.5759883 96.0831933,43.5759883 C92.243393,43.5759883 89.3105494,42.679954 87.285876,40.8874808 C85.260798,39.0937941 84.2482591,36.1714683 84.2482591,32.1213124 L84.2482591,17.311868 Z M107.992561,17.311868 L103.879298,17.311868 L103.562147,16.0460931 L115.397485,0.920306102 L116.852985,0.920306102 L116.852985,10.4765219 L124.510741,10.4765219 C124.636954,11.1100162 124.721906,11.6791901 124.764381,12.1852573 C124.805643,12.6921336 124.827083,13.2192364 124.827083,13.7681838 C124.827083,14.3583933 124.805643,14.9279718 124.764381,15.4765147 C124.721906,16.0254621 124.636954,16.6371117 124.510741,17.311868 L116.852985,17.311868 L116.852985,30.1597457 C116.852985,31.4671871 116.959376,32.5217972 117.169732,33.3239805 C117.380897,34.1245457 117.686722,34.7580399 118.087206,35.2224406 C118.4885,35.6864366 118.983241,36.0027792 119.574664,36.1714683 C120.164873,36.3409664 120.861879,36.4251087 121.662444,36.4251087 C122.295534,36.4251087 122.917701,36.3721153 123.53016,36.2665329 C124.141809,36.161355 124.679834,36.0662905 125.143831,35.9821482 C125.439138,36.7827134 125.649898,37.61645 125.776111,38.48174 C125.903538,39.3466255 125.966645,40.1172554 125.966645,40.7920117 C125.966645,41.2560078 125.956127,41.6459749 125.934687,41.962722 C125.914056,42.27866 125.882503,42.5856984 125.840027,42.8801964 C123.899091,43.3450015 121.895858,43.5759883 119.827495,43.5759883 C115.988504,43.5759883 113.05566,42.679954 111.030582,40.8874808 C109.005505,39.0937941 107.992561,36.1714683 107.992561,32.1213124 L107.992561,17.311868 Z M149.564911,23.3252087 C149.480769,21.2989172 148.921304,19.6646153 147.887729,18.4198761 C146.854155,17.1751368 145.409173,16.5521603 143.55238,16.5521603 C141.442755,16.5521603 139.839602,17.1431789 138.742516,18.3244069 C137.645835,19.5060395 136.992114,21.1727038 136.781354,23.3252087 L149.564911,23.3252087 Z M136.717438,29.5897627 C136.886532,32.1213124 137.772453,33.9566657 139.375606,35.0962272 C140.978759,36.2353841 143.088384,36.8049625 145.704885,36.8049625 C147.139349,36.8049625 148.604557,36.6674223 150.102937,36.3927463 C151.600912,36.1188794 153.024453,35.7285078 154.375179,35.2224406 C154.839176,36.0662905 155.23966,37.0788294 155.577443,38.260462 C155.914821,39.440881 156.104546,40.7074649 156.147022,42.0573821 C152.855764,43.3231569 149.142582,43.9562466 145.007475,43.9562466 C141.970262,43.9562466 139.365493,43.5343216 137.191548,42.6900672 C135.019221,41.8466218 133.246974,40.6751025 131.876021,39.1783409 C130.504664,37.6803658 129.491721,35.8976014 128.838,33.8296432 C128.184279,31.7624941 127.857823,29.5056204 127.857823,27.059022 C127.857823,24.6536857 128.194797,22.3964075 128.869958,20.2867827 C129.54431,18.1763489 130.546735,16.3418047 131.876021,14.7811273 C133.204903,13.2192364 134.850127,11.9854194 136.812503,11.0780583 C138.774474,10.1711017 141.063306,9.71721884 143.678998,9.71721884 C145.957311,9.71721884 147.982794,10.1181082 149.754636,10.919887 C151.526883,11.7212612 153.034971,12.8187515 154.27971,14.2115489 C155.52445,15.6027281 156.463769,17.2596836 157.096454,19.1791792 C157.729544,21.0986747 158.045886,23.1561151 158.045886,25.3494776 C158.045886,26.1512564 158.014333,26.9429219 157.950822,27.722856 C157.887715,28.5027902 157.812877,29.1257666 157.729544,29.5897627 L136.717438,29.5897627 Z M161.47792,10.4765219 C162.110605,10.3507131 162.711737,10.2552439 163.281315,10.1925418 C163.851703,10.1282215 164.473061,10.0970727 165.148627,10.0970727 C165.781716,10.0970727 166.404288,10.1399529 167.015129,10.2232861 C167.627587,10.3078329 168.228719,10.4138198 168.818524,10.5404377 C168.945951,10.7516024 169.062051,11.0570227 169.167229,11.4579121 C169.272811,11.8588015 169.367472,12.2807264 169.452018,12.7240915 C169.536565,13.167052 169.609785,13.6092035 169.673296,14.052973 C169.736808,14.4963381 169.788992,14.864056 169.831872,15.1609811 C170.759864,13.8523261 171.89983,12.6812113 173.249343,11.6480413 C174.599665,10.6140622 176.287364,10.0970727 178.312038,10.0970727 C178.734772,10.0970727 179.219803,10.1181082 179.767942,10.1605839 C180.31608,10.202655 180.71697,10.2657617 180.970205,10.3507131 C181.054752,10.771829 181.118263,11.2572651 181.15993,11.805808 C181.203215,12.3543509 181.223846,12.9239294 181.223846,13.5149479 C181.223846,14.2321799 181.191483,15.0125186 181.128781,15.8563685 C181.06527,16.7002184 180.94917,17.5015926 180.780076,18.2613002 C180.31608,18.1763489 179.799495,18.1346823 179.230321,18.1346823 C178.660743,18.1346823 178.312038,18.1346823 178.186229,18.1346823 C177.468188,18.1346823 176.667218,18.2087113 175.780488,18.3559603 C174.894972,18.5040183 174.051122,18.8939854 173.249343,19.5274796 C172.44716,20.1601648 171.783326,21.1095971 171.255414,22.3757764 C170.728311,23.6407422 170.463748,25.4129888 170.463748,27.6917072 L170.463748,43.2604547 C169.705254,43.3862636 168.945951,43.4708104 168.185839,43.5128815 C167.42694,43.5553572 166.688673,43.5759883 165.971036,43.5759883 C165.2534,43.5759883 164.526055,43.5553572 163.787383,43.5128815 C163.049115,43.4708104 162.279294,43.3862636 161.47792,43.2604547 L161.47792,10.4765219 Z M185.436623,10.4765219 C186.026832,10.3507131 186.617851,10.2552439 187.20806,10.1925418 C187.799079,10.1282215 188.4528,10.0970727 189.170436,10.0970727 C189.887668,10.0970727 190.520353,10.1282215 191.068896,10.1925418 C191.617439,10.2552439 192.187018,10.3507131 192.777632,10.4765219 C192.903845,10.6876867 193.020754,10.993916 193.125932,11.3948054 C193.23111,11.7952902 193.326579,12.2180243 193.410721,12.6601757 C193.495268,13.1035408 193.568488,13.535579 193.631999,13.9575039 C193.69632,14.3794289 193.748504,14.7382471 193.790575,15.0335541 C194.127144,14.4012735 194.570914,13.7681838 195.119861,13.1346896 C195.668,12.5028135 196.32172,11.9336396 197.081023,11.4263587 C197.840326,10.919887 198.694694,10.5084798 199.644531,10.1925418 C200.593559,9.87539013 201.659496,9.71721884 202.840724,9.71721884 C207.94549,9.71721884 211.215307,11.6585591 212.650175,15.5404304 C213.493621,13.978944 214.685771,12.6189136 216.225413,11.4579121 C217.765864,10.2973151 219.717317,9.71721884 222.080582,9.71721884 C225.792956,9.71721884 228.524748,10.7414892 230.275554,12.7876027 C232.02717,14.8333117 232.902573,18.0295045 232.902573,22.3757764 L232.902573,43.1969435 C231.383967,43.4501794 229.885183,43.5759883 228.409052,43.5759883 C226.932113,43.5759883 225.434137,43.4501794 223.915531,43.1969435 L223.915531,24.7163879 C223.915531,22.4380741 223.630337,20.6876721 223.060354,19.4643729 C222.491585,18.2406692 221.34191,17.6286151 219.612139,17.6286151 C218.894098,17.6286151 218.188193,17.734602 217.492401,17.9449577 C216.795396,18.1553133 216.162711,18.5456849 215.593537,19.1156679 C215.023958,19.6852464 214.559962,20.4874297 214.20074,21.5210042 C213.841921,22.5537697 213.662714,23.8943826 213.662714,25.5396068 L213.662714,43.1969435 C212.143704,43.4501794 210.645729,43.5759883 209.169193,43.5759883 C207.692658,43.5759883 206.194279,43.4501794 204.675268,43.1969435 L204.675268,24.7163879 C204.675268,22.4380741 204.390883,20.6876721 203.8209,19.4643729 C203.251322,18.2406692 202.102052,17.6286151 200.372281,17.6286151 C199.655858,17.6286151 198.937817,17.734602 198.22018,17.9449577 C197.503757,18.1553133 196.859745,18.567125 196.290167,19.1791792 C195.720184,19.7904242 195.266706,20.6447919 194.929732,21.7422822 C194.591949,22.8389635 194.422856,24.2738319 194.422856,26.045674 L194.422856,43.1969435 C192.903845,43.4501794 191.407083,43.5759883 189.929739,43.5759883 C188.4528,43.5759883 186.955634,43.4501794 185.436623,43.1969435 L185.436623,10.4765219 Z M251.205135,37.1209006 C253.567996,37.1209006 255.266214,36.2459019 256.299384,34.4942863 C257.333363,32.7438843 257.850352,30.2224478 257.850352,26.9319996 C257.850352,23.6407422 257.333363,21.1201148 256.299384,19.3689038 C255.266214,17.6172882 253.567996,16.7422895 251.205135,16.7422895 C248.88475,16.7422895 247.207568,17.6172882 246.173994,19.3689038 C245.13961,21.1201148 244.622621,23.6407422 244.622621,26.9319996 C244.622621,30.2224478 245.13961,32.7438843 246.173994,34.4942863 C247.207568,36.2459019 248.88475,37.1209006 251.205135,37.1209006 Z M251.205135,43.9562466 C248.546968,43.9562466 246.236696,43.5233993 244.275129,42.6585139 C242.313158,41.7940329 240.688565,40.5913648 239.401755,39.0509139 C238.114944,37.5108676 237.144476,35.7074722 236.49116,33.6399186 C235.83663,31.572365 235.50977,29.3369313 235.50977,26.9319996 C235.50977,24.5270678 235.83663,22.269385 236.49116,20.1601648 C237.144476,18.05054 238.114944,16.2257045 239.401755,14.6856582 C240.688565,13.1452074 242.313158,11.9336396 244.275129,11.0465049 C246.236696,10.1605839 248.546968,9.71721884 251.205135,9.71721884 C253.863303,9.71721884 256.183283,10.1605839 258.166695,11.0465049 C260.149297,11.9336396 261.794521,13.1452074 263.103581,14.6856582 C264.411427,16.2257045 265.38149,18.05054 266.014984,20.1601648 C266.64767,22.269385 266.963608,24.5270678 266.963608,26.9319996 C266.963608,29.3369313 266.64767,31.572365 266.014984,33.6399186 C265.38149,35.7074722 264.411427,37.5108676 263.103581,39.0509139 C261.794521,40.5913648 260.149297,41.7940329 258.166695,42.6585139 C256.183283,43.5233993 253.863303,43.9562466 251.205135,43.9562466 Z M278.501617,28.9570775 C276.138351,28.2815122 274.29248,27.2798955 272.964003,25.9506094 C271.634717,24.6221324 270.970074,22.6282033 270.970074,19.9696311 C270.970074,16.7629205 272.120153,14.25362 274.419907,12.4393023 C276.718852,10.62458 279.852343,9.71721884 283.817952,9.71721884 C285.463581,9.71721884 287.087365,9.86527688 288.690922,10.1605839 C290.29448,10.4558909 291.918668,10.8984469 293.563892,11.48987 C293.479346,12.5861467 293.268585,13.7253036 292.930398,14.9073407 C292.593829,16.0881642 292.19294,17.1217388 291.728944,18.0088734 C290.716,17.5865439 289.598283,17.2172079 288.374175,16.9004608 C287.15128,16.5845227 285.864065,16.4263515 284.514148,16.4263515 C283.07928,16.4263515 281.961968,16.6476295 281.15938,17.09059 C280.358006,17.533955 279.957116,18.2406692 279.957116,19.210328 C279.957116,20.1387247 280.241905,20.7928499 280.811484,21.1727038 C281.381062,21.552153 282.193763,21.9117804 283.247969,22.2483494 L286.855569,23.3252087 C288.037201,23.6621823 289.102329,24.073185 290.051762,24.5586212 C291.000789,25.0440573 291.81349,25.6451892 292.488247,26.3620166 C293.163408,27.0792485 293.69051,27.9655741 294.06996,29.0201842 C294.450218,30.0751989 294.640347,31.3616048 294.640347,32.880211 C294.640347,34.4421019 294.313082,35.8976014 293.658957,37.2475185 C293.005236,38.5978402 292.055399,39.7685504 290.811065,40.7596493 C289.566325,41.7519618 288.057832,42.5323005 286.285586,43.1014744 C284.514148,43.6714574 282.509701,43.9562466 280.273459,43.9562466 C279.260515,43.9562466 278.333332,43.9242887 277.489482,43.861182 C276.645228,43.7972662 275.833336,43.6920884 275.052593,43.5448394 C274.272254,43.3967814 273.502028,43.2179791 272.742725,43.0068143 C271.983018,42.7960541 271.160203,42.5217827 270.274282,42.184 C270.359234,41.0444385 270.559476,39.8947638 270.875414,38.7349759 C271.191757,37.5751879 271.603568,36.4457397 272.109636,35.348654 C273.502028,35.8976014 274.820797,36.308604 276.065536,36.5828755 C277.310275,36.8575514 278.607604,36.9950917 279.957116,36.9950917 C280.548539,36.9950917 281.191742,36.9416937 281.88713,36.8361113 C282.58373,36.730529 283.227338,36.5408043 283.817952,36.2665329 C284.40897,35.9922614 284.904924,35.6334432 285.305409,35.1908872 C285.706299,34.7479267 285.905732,34.1678304 285.905732,33.4497894 C285.905732,32.4380595 285.600312,31.7099052 284.988662,31.2669447 C284.376608,30.8243887 283.52224,30.4328035 282.425964,30.0958299 L278.501617,28.9570775 Z M300.391552,17.311868 L296.278694,17.311868 L295.961138,16.0460931 L307.796072,0.920306102 L309.251572,0.920306102 L309.251572,10.4765219 L316.909732,10.4765219 C317.03635,11.1100162 317.120492,11.6791901 317.163373,12.1852573 C317.205039,12.6921336 317.226479,13.2192364 317.226479,13.7681838 C317.226479,14.3583933 317.205039,14.9279718 317.163373,15.4765147 C317.120492,16.0254621 317.03635,16.6371117 316.909732,17.311868 L309.251572,17.311868 L309.251572,30.1597457 C309.251572,31.4671871 309.357963,32.5217972 309.568319,33.3239805 C309.779888,34.1245457 310.085308,34.7580399 310.485793,35.2224406 C310.887492,35.6864366 311.383041,36.0027792 311.973251,36.1714683 C312.56346,36.3409664 313.26087,36.4251087 314.06184,36.4251087 C314.69493,36.4251087 315.316692,36.3721153 315.929151,36.2665329 C316.540396,36.161355 317.078421,36.0662905 317.542417,35.9821482 C317.838129,36.7827134 318.049294,37.61645 318.175102,38.48174 C318.302529,39.3466255 318.365232,40.1172554 318.365232,40.7920117 C318.365232,41.2560078 318.354714,41.6459749 318.333678,41.962722 C318.312643,42.27866 318.281494,42.5856984 318.238614,42.8801964 C316.298487,43.3450015 314.294445,43.5759883 312.226891,43.5759883 C308.387091,43.5759883 305.454652,42.679954 303.429169,40.8874808 C301.404496,39.0937941 300.391552,36.1714683 300.391552,32.1213124 L300.391552,17.311868 Z M2.05015882,0.458332665 C3.87903965,0.203883198 5.63834129,0.0760516691 7.32927734,0.0760516691 C9.11204173,0.0760516691 10.8721524,0.203883198 12.6088004,0.458332665 L23.9214862,23.9384764 L35.576809,0.458332665 C36.9938781,0.203883198 38.5699276,0.0760516691 40.3073846,0.0760516691 C42.0444371,0.0760516691 43.7119104,0.203883198 45.3122317,0.458332665 L47.6431344,43.5743701 C45.906891,43.8292241 44.2612623,43.9562466 42.707462,43.9562466 C41.1524481,43.9562466 39.6221105,43.8292241 38.1140221,43.5743701 L36.8793961,12.4008719 L26.8692974,33.9465525 C26.2289262,34.0315038 25.5667103,34.1067464 24.8806272,34.1694486 C24.1949485,34.2333643 23.510079,34.2649177 22.8239959,34.2649177 C22.2293365,34.2649177 21.6358908,34.2438821 21.0420405,34.2014065 C20.4477857,34.1589308 19.8308772,34.0735749 19.190506,33.9465525 L9.86649047,11.9542706 L8.90654041,43.5743701 C7.4441639,43.8292241 6.02709477,43.9562466 4.65533302,43.9562466 C3.19255198,43.9562466 1.6836545,43.8292241 0.13066324,43.5743701 L2.05015882,0.458332665 Z" id="Shape"></path>
                </g>
                <g id="Group" transform="translate(0.000051, 0.097036)">
                    <path d="M52.7547775,6.39291771 L53.104696,13.4454964 C58.8223252,19.7622348 61.079199,28.7080146 58.2329248,37.1157694 C53.9841446,49.6663174 39.9740518,56.2637997 26.9408992,51.8515893 C13.9073422,47.4397834 6.78599334,33.6885899 11.0347736,21.1380418 C13.8903519,12.7023745 21.1557135,6.95602368 29.5703452,5.43458577 L34.1168596,0.0628298463 C19.9328188,-0.32106927 6.55096132,8.48312501 1.76294241,22.6267128 C-4.11973509,40.0045192 5.19861702,58.8608833 22.5764234,64.7439653 C39.9542298,70.6266428 58.8109984,61.3078862 64.6940804,43.9300798 C69.4740087,29.8095502 64.2171394,14.7120803 52.7547775,6.39291771 Z" id="Shape"></path>
                </g>
                <path d="M44.6087537,27.3006541 L44.3680583,17.4410407 L44.1750974,11.7675053 L44.0444342,6.85246388 C44.0444342,6.85246388 44.0715377,4.48232171 43.9890135,3.92528368 C43.9716187,3.80796994 43.9348065,3.71290535 43.8907127,3.62957214 L43.874127,3.59478255 L43.8551141,3.56444279 C43.7644993,3.40788962 43.6212956,3.28086715 43.4364253,3.21816497 C43.2475098,3.15424921 43.0517172,3.17002589 42.8818145,3.24324584 L42.8712967,3.24729115 L42.8126399,3.27722638 C42.7321384,3.3164658 42.6500187,3.3674366 42.5699218,3.44510639 C42.1657961,3.83709611 40.7479179,5.73636519 40.7479179,5.73636519 L37.6581166,9.56160233 L34.0586073,13.951159 L27.8781956,21.6368274 C27.8781956,21.6368274 25.0420347,25.1764663 25.6686519,29.5336606 C26.2956736,33.8904504 29.5347466,36.0130201 32.0476879,36.863747 C34.5602247,37.7144739 38.4226786,37.9960269 41.567496,34.9155298 C44.7119089,31.8350326 44.6087537,27.3006541 44.6087537,27.3006541 Z" id="Shape"></path>
            </g>
            <path d="M84.9775391,97.932523 L87.7410352,97.932523 L87.7410352,87.6818804 C87.7410352,84.645248 89.5244542,82.7975616 92.2879504,82.7975616 C95.0514465,82.7975616 96.3689272,84.2757107 96.3689272,87.3926773 L96.3689272,97.932523 L99.1324234,97.932523 L99.1324234,86.7178701 C99.1324234,82.6047595 96.9634002,80.3072017 93.0752254,80.3072017 C90.4241972,80.3072017 88.7371792,81.4318804 87.8695699,83.3438341 L87.6125005,83.3438341 L87.6125005,80.6124716 L84.9775391,80.6124716 L84.9775391,97.932523 Z M111.29502,95.7474331 C114.572655,95.7474331 116.420341,93.369541 116.420341,89.2724973 C116.420341,85.1593868 114.572655,82.7975616 111.29502,82.7975616 C108.017385,82.7975616 106.169698,85.1593868 106.169698,89.2724973 C106.169698,93.369541 108.017385,95.7474331 111.29502,95.7474331 Z M111.29502,98.237793 C106.362501,98.237793 103.309801,94.8316233 103.309801,89.2724973 C103.309801,83.6973045 106.362501,80.3072017 111.29502,80.3072017 C116.227539,80.3072017 119.280238,83.6973045 119.280238,89.2724973 C119.280238,94.8316233 116.227539,98.237793 111.29502,98.237793 Z M124.775097,76.1298238 L124.775097,80.6124716 L121.979467,80.6124716 L121.979467,82.9260963 L124.775097,82.9260963 L124.775097,93.4338084 C124.775097,96.743577 126.205045,98.0610578 129.771884,98.0610578 C130.318156,98.0610578 130.848362,97.9967904 131.394634,97.9003894 L131.394634,95.5706979 C130.880495,95.6188984 130.607359,95.6349652 130.109287,95.6349652 C128.309801,95.6349652 127.538593,94.767356 127.538593,92.7268675 L127.538593,82.9260963 L131.394634,82.9260963 L131.394634,80.6124716 L127.538593,80.6124716 L127.538593,76.1298238 L124.775097,76.1298238 Z M135.636279,97.932523 L138.399776,97.932523 L138.399776,80.6124716 L135.636279,80.6124716 L135.636279,97.932523 Z M137.018027,77.0938341 C138.078439,77.0938341 138.946048,76.2262248 138.946048,75.1658135 C138.946048,74.1054022 138.078439,73.237793 137.018027,73.237793 C135.957616,73.237793 135.090007,74.1054022 135.090007,75.1658135 C135.090007,76.2262248 135.957616,77.0938341 137.018027,77.0938341 Z M144.826511,97.932523 L147.590007,97.932523 L147.590007,82.9260963 L151.558516,82.9260963 L151.558516,80.6124716 L147.590007,80.6124716 L147.590007,79.0057878 C147.590007,77.0617004 148.521884,76.2262248 150.176768,76.2262248 C150.72304,76.2262248 151.349647,76.2904922 151.719184,76.3708264 L151.719184,74.0572017 C151.044377,73.9447338 150.562372,73.8965333 150.016099,73.8965333 C146.674197,73.8965333 144.826511,75.3746824 144.826511,78.9254536 L144.826511,80.6124716 L141.950547,80.6124716 L141.950547,82.9260963 L144.826511,82.9260963 L144.826511,97.932523 Z M155.639493,97.932523 L158.402989,97.932523 L158.402989,80.6124716 L155.639493,80.6124716 L155.639493,97.932523 Z M157.021241,77.0938341 C158.081652,77.0938341 158.949261,76.2262248 158.949261,75.1658135 C158.949261,74.1054022 158.081652,73.237793 157.021241,73.237793 C155.96083,73.237793 155.09322,74.1054022 155.09322,75.1658135 C155.09322,76.2262248 155.96083,77.0938341 157.021241,77.0938341 Z M178.004531,85.9145282 C177.522526,82.8296953 174.951832,80.3072017 170.742321,80.3072017 C165.890135,80.3072017 162.805303,83.8097724 162.805303,89.20823 C162.805303,94.7191554 165.906202,98.237793 170.758387,98.237793 C174.919698,98.237793 177.506459,95.8920346 178.004531,92.7108007 L175.208902,92.7108007 C174.694763,94.6709549 173.072012,95.7474331 170.742321,95.7474331 C167.657488,95.7474331 165.6652,93.2088727 165.6652,89.20823 C165.6652,85.2879215 167.625354,82.7975616 170.742321,82.7975616 C173.23268,82.7975616 174.75903,84.1953765 175.208902,85.9145282 L178.004531,85.9145282 Z M187.419698,95.8117004 C190.263529,95.8117004 192.368285,93.9479472 192.368285,91.4736542 L192.368285,89.8830372 L187.708902,90.1883071 C185.07394,90.3650423 183.917128,91.2808521 183.917128,93.0160706 C183.917128,94.7834228 185.411344,95.8117004 187.419698,95.8117004 Z M186.90556,98.237793 C183.54759,98.237793 181.057231,96.2455051 181.057231,93.080338 C181.057231,89.9794382 183.338722,88.1960192 187.371498,87.9550166 L192.368285,87.6497467 L192.368285,86.0751966 C192.368285,83.9383071 191.034737,82.7654279 188.447976,82.7654279 C186.375354,82.7654279 184.929339,83.552703 184.543734,84.9183842 L181.748105,84.9183842 C182.117642,82.1388212 184.849004,80.3072017 188.544377,80.3072017 C192.769956,80.3072017 195.131781,82.4762248 195.131781,86.0751966 L195.131781,97.932523 L192.496819,97.932523 L192.496819,95.3778958 L192.23975,95.3778958 C191.115071,97.2255822 189.219184,98.237793 186.90556,98.237793 Z M201.397848,76.1298238 L201.397848,80.6124716 L198.602218,80.6124716 L198.602218,82.9260963 L201.397848,82.9260963 L201.397848,93.4338084 C201.397848,96.743577 202.827796,98.0610578 206.394634,98.0610578 C206.940907,98.0610578 207.471112,97.9967904 208.017385,97.9003894 L208.017385,95.5706979 C207.503246,95.6188984 207.23011,95.6349652 206.732038,95.6349652 C204.932552,95.6349652 204.161344,94.767356 204.161344,92.7268675 L204.161344,82.9260963 L208.017385,82.9260963 L208.017385,80.6124716 L204.161344,80.6124716 L204.161344,76.1298238 L201.397848,76.1298238 Z M212.25903,97.932523 L215.022526,97.932523 L215.022526,80.6124716 L212.25903,80.6124716 L212.25903,97.932523 Z M213.640778,77.0938341 C214.701189,77.0938341 215.568799,76.2262248 215.568799,75.1658135 C215.568799,74.1054022 214.701189,73.237793 213.640778,73.237793 C212.580367,73.237793 211.712758,74.1054022 211.712758,75.1658135 C211.712758,76.2262248 212.580367,77.0938341 213.640778,77.0938341 Z M227.410058,95.7474331 C230.687693,95.7474331 232.53538,93.369541 232.53538,89.2724973 C232.53538,85.1593868 230.687693,82.7975616 227.410058,82.7975616 C224.132423,82.7975616 222.284737,85.1593868 222.284737,89.2724973 C222.284737,93.369541 224.132423,95.7474331 227.410058,95.7474331 Z M227.410058,98.237793 C222.477539,98.237793 219.42484,94.8316233 219.42484,89.2724973 C219.42484,83.6973045 222.477539,80.3072017 227.410058,80.3072017 C232.342578,80.3072017 235.395277,83.6973045 235.395277,89.2724973 C235.395277,94.8316233 232.342578,98.237793 227.410058,98.237793 Z M239.733323,97.932523 L242.496819,97.932523 L242.496819,87.6818804 C242.496819,84.645248 244.280238,82.7975616 247.043734,82.7975616 C249.807231,82.7975616 251.124711,84.2757107 251.124711,87.3926773 L251.124711,97.932523 L253.888207,97.932523 L253.888207,86.7178701 C253.888207,82.6047595 251.719184,80.3072017 247.831009,80.3072017 C245.179981,80.3072017 243.492963,81.4318804 242.625354,83.3438341 L242.368285,83.3438341 L242.368285,80.6124716 L239.733323,80.6124716 L239.733323,97.932523 Z M258.531524,85.3521889 C258.531524,87.8586156 260.009673,89.2564305 263.255174,90.0437056 L266.227539,90.7667133 C268.075225,91.2165847 268.974968,92.0199266 268.974968,93.2088727 C268.974968,94.7994896 267.304017,95.9081015 264.974326,95.9081015 C262.757102,95.9081015 261.375354,94.9762248 260.909416,93.5141426 L258.065585,93.5141426 C258.370855,96.3901066 261.021884,98.237793 264.877925,98.237793 C268.8143,98.237793 271.818799,96.1009035 271.818799,93.0000038 C271.818799,90.5096439 270.244249,89.0957621 266.98268,88.3084871 L264.315585,87.6658135 C262.275097,87.1677416 261.311087,86.428667 261.311087,85.239721 C261.311087,83.6973045 262.91777,82.6529601 264.974326,82.6529601 C267.063015,82.6529601 268.412629,83.5687698 268.782166,84.9505179 L271.513529,84.9505179 C271.143992,82.1066876 268.621498,80.3072017 264.990393,80.3072017 C261.311087,80.3072017 258.531524,82.4762248 258.531524,85.3521889 Z" id="notifications" fill="#333333"></path>
        </g>
    </g>
</svg>