<?xml version="1.0" encoding="UTF-8" standalone="no"?>
<svg width="405px" height="99px" viewBox="0 0 405 99" version="1.1" xmlns="http://www.w3.org/2000/svg" xmlns:xlink="http://www.w3.org/1999/xlink">
    <!-- Generator: Sketch 45.2 (43514) - http://www.bohemiancoding.com/sketch -->
    <title>Group 2</title>
    <desc>Created with Sketch.</desc>
    <defs></defs>
    <g id="Page-1" stroke="none" stroke-width="1" fill="none" fill-rule="evenodd">
        <g id="Group-2">
            <g id="logo-mattermost" fill="#222222">
                <g id="Group" transform="translate(86.164974, 12.801433)">
                    <path d="M69.5233614,21.678771 C69.5233614,20.6670411 69.3542678,19.8438222 69.0164851,19.210328 C68.6795115,18.5784519 68.2151109,18.0816888 67.6244969,17.7240842 C67.0338829,17.3648614 66.3057286,17.1217388 65.4412476,16.9959299 C64.5759576,16.869312 63.6160076,16.8062053 62.5609929,16.8062053 C60.2826791,16.8062053 57.8571163,17.2487613 55.2830909,18.1346823 C54.6920724,17.0375965 54.2495164,16.0036174 53.9546139,15.0335541 C53.6593069,14.0634908 53.5108443,12.9032983 53.5108443,11.5525722 C55.3676377,10.919887 57.2236221,10.4558909 59.0804155,10.1605839 C60.9363998,9.86527688 62.6673844,9.71721884 64.2697283,9.71721884 C68.6580714,9.71721884 72.08606,10.771829 74.554503,12.8822628 C77.0225414,14.9918875 78.2567629,18.3664781 78.2567629,23.0076525 L78.2567629,41.9938708 C76.7798233,42.4578669 74.9865412,42.901232 72.8769164,43.3231569 C70.7681007,43.7450819 68.3838,43.9562466 65.7256323,43.9562466 C63.5739364,43.9562466 61.6010429,43.7661174 59.8077607,43.3862636 C58.0148831,43.0068143 56.4744322,42.3733201 55.1888354,41.4873991 C53.9012159,40.6022871 52.910117,39.4627256 52.2131116,38.0703328 C51.5177242,36.6775355 51.1694238,34.9692047 51.1694238,32.9437222 C51.1694238,30.9190488 51.6018665,29.2208312 52.466752,27.849474 C53.3316375,26.4785213 54.4501633,25.381031 55.8207115,24.5586212 C57.1924733,23.7358068 58.7215972,23.1451928 60.4097016,22.7863745 C62.0974014,22.4275563 63.7846967,22.2483494 65.4723965,22.2483494 C66.6961002,22.2483494 68.0460173,22.3122652 69.5233614,22.4380741 L69.5233614,21.678771 Z M69.5233614,28.1977744 C69.0164851,28.1132276 68.4683468,28.0387941 67.8769237,27.9760919 C67.2863097,27.9129852 66.7600159,27.8814318 66.2952108,27.8814318 C64.2276572,27.8814318 62.5925463,28.2499588 61.3898781,28.9886309 C60.1876145,29.7268984 59.5864827,30.9190488 59.5864827,32.5642729 C59.5864827,33.6617632 59.818683,34.5048041 60.2826791,35.0962272 C60.7466752,35.6864366 61.3061404,36.1188794 61.9598611,36.3927463 C62.6139864,36.6674223 63.3093737,36.8361113 64.0480458,36.8996226 C64.7871224,36.9623248 65.4303253,36.9950917 65.9780592,36.9950917 C66.6115534,36.9950917 67.2446431,36.9416937 67.8769237,36.8361113 C68.5104179,36.730529 69.0585563,36.6362735 69.5233614,36.5513221 L69.5233614,28.1977744 Z M84.2482591,17.311868 L80.1341874,17.311868 L79.8170357,16.0460931 L91.652779,0.920306102 L93.1082785,0.920306102 L93.1082785,10.4765219 L100.766034,10.4765219 C100.891843,11.1100162 100.976795,11.6791901 101.019675,12.1852573 C101.060937,12.6921336 101.081972,13.2192364 101.081972,13.7681838 C101.081972,14.3583933 101.060937,14.9279718 101.019675,15.4765147 C100.976795,16.0254621 100.891843,16.6371117 100.766034,17.311868 L93.1082785,17.311868 L93.1082785,30.1597457 C93.1082785,31.4671871 93.2142654,32.5217972 93.4254301,33.3239805 C93.6353813,34.1245457 93.9416106,34.7580399 94.3420955,35.2224406 C94.7437939,35.6864366 95.2389388,36.0027792 95.8295529,36.1714683 C96.4201669,36.3409664 97.1171723,36.4251087 97.9177375,36.4251087 C98.5512317,36.4251087 99.1729946,36.3721153 99.7854532,36.2665329 C100.396698,36.161355 100.934723,36.0662905 101.398719,35.9821482 C101.694836,36.7827134 101.904787,37.61645 102.031809,38.48174 C102.158832,39.3466255 102.221534,40.1172554 102.221534,40.7920117 C102.221534,41.2560078 102.211421,41.6459749 102.18998,41.962722 C102.168945,42.27866 102.137796,42.5856984 102.094916,42.8801964 C100.154385,43.3450015 98.1507469,43.5759883 96.0831933,43.5759883 C92.243393,43.5759883 89.3105494,42.679954 87.285876,40.8874808 C85.260798,39.0937941 84.2482591,36.1714683 84.2482591,32.1213124 L84.2482591,17.311868 Z M107.992561,17.311868 L103.879298,17.311868 L103.562147,16.0460931 L115.397485,0.920306102 L116.852985,0.920306102 L116.852985,10.4765219 L124.510741,10.4765219 C124.636954,11.1100162 124.721906,11.6791901 124.764381,12.1852573 C124.805643,12.6921336 124.827083,13.2192364 124.827083,13.7681838 C124.827083,14.3583933 124.805643,14.9279718 124.764381,15.4765147 C124.721906,16.0254621 124.636954,16.6371117 124.510741,17.311868 L116.852985,17.311868 L116.852985,30.1597457 C116.852985,31.4671871 116.959376,32.5217972 117.169732,33.3239805 C117.380897,34.1245457 117.686722,34.7580399 118.087206,35.2224406 C118.4885,35.6864366 118.983241,36.0027792 119.574664,36.1714683 C120.164873,36.3409664 120.861879,36.4251087 121.662444,36.4251087 C122.295534,36.4251087 122.917701,36.3721153 123.53016,36.2665329 C124.141809,36.161355 124.679834,36.0662905 125.143831,35.9821482 C125.439138,36.7827134 125.649898,37.61645 125.776111,38.48174 C125.903538,39.3466255 125.966645,40.1172554 125.966645,40.7920117 C125.966645,41.2560078 125.956127,41.6459749 125.934687,41.962722 C125.914056,42.27866 125.882503,42.5856984 125.840027,42.8801964 C123.899091,43.3450015 121.895858,43.5759883 119.827495,43.5759883 C115.988504,43.5759883 113.05566,42.679954 111.030582,40.8874808 C109.005505,39.0937941 107.992561,36.1714683 107.992561,32.1213124 L107.992561,17.311868 Z M149.564911,23.3252087 C149.480769,21.2989172 148.921304,19.6646153 147.887729,18.4198761 C146.854155,17.1751368 145.409173,16.5521603 143.55238,16.5521603 C141.442755,16.5521603 139.839602,17.1431789 138.742516,18.3244069 C137.645835,19.5060395 136.992114,21.1727038 136.781354,23.3252087 L149.564911,23.3252087 Z M136.717438,29.5897627 C136.886532,32.1213124 137.772453,33.9566657 139.375606,35.0962272 C140.978759,36.2353841 143.088384,36.8049625 145.704885,36.8049625 C147.139349,36.8049625 148.604557,36.6674223 150.102937,36.3927463 C151.600912,36.1188794 153.024453,35.7285078 154.375179,35.2224406 C154.839176,36.0662905 155.23966,37.0788294 155.577443,38.260462 C155.914821,39.440881 156.104546,40.7074649 156.147022,42.0573821 C152.855764,43.3231569 149.142582,43.9562466 145.007475,43.9562466 C141.970262,43.9562466 139.365493,43.5343216 137.191548,42.6900672 C135.019221,41.8466218 133.246974,40.6751025 131.876021,39.1783409 C130.504664,37.6803658 129.491721,35.8976014 128.838,33.8296432 C128.184279,31.7624941 127.857823,29.5056204 127.857823,27.059022 C127.857823,24.6536857 128.194797,22.3964075 128.869958,20.2867827 C129.54431,18.1763489 130.546735,16.3418047 131.876021,14.7811273 C133.204903,13.2192364 134.850127,11.9854194 136.812503,11.0780583 C138.774474,10.1711017 141.063306,9.71721884 143.678998,9.71721884 C145.957311,9.71721884 147.982794,10.1181082 149.754636,10.919887 C151.526883,11.7212612 153.034971,12.8187515 154.27971,14.2115489 C155.52445,15.6027281 156.463769,17.2596836 157.096454,19.1791792 C157.729544,21.0986747 158.045886,23.1561151 158.045886,25.3494776 C158.045886,26.1512564 158.014333,26.9429219 157.950822,27.722856 C157.887715,28.5027902 157.812877,29.1257666 157.729544,29.5897627 L136.717438,29.5897627 Z M161.47792,10.4765219 C162.110605,10.3507131 162.711737,10.2552439 163.281315,10.1925418 C163.851703,10.1282215 164.473061,10.0970727 165.148627,10.0970727 C165.781716,10.0970727 166.404288,10.1399529 167.015129,10.2232861 C167.627587,10.3078329 168.228719,10.4138198 168.818524,10.5404377 C168.945951,10.7516024 169.062051,11.0570227 169.167229,11.4579121 C169.272811,11.8588015 169.367472,12.2807264 169.452018,12.7240915 C169.536565,13.167052 169.609785,13.6092035 169.673296,14.052973 C169.736808,14.4963381 169.788992,14.864056 169.831872,15.1609811 C170.759864,13.8523261 171.89983,12.6812113 173.249343,11.6480413 C174.599665,10.6140622 176.287364,10.0970727 178.312038,10.0970727 C178.734772,10.0970727 179.219803,10.1181082 179.767942,10.1605839 C180.31608,10.202655 180.71697,10.2657617 180.970205,10.3507131 C181.054752,10.771829 181.118263,11.2572651 181.15993,11.805808 C181.203215,12.3543509 181.223846,12.9239294 181.223846,13.5149479 C181.223846,14.2321799 181.191483,15.0125186 181.128781,15.8563685 C181.06527,16.7002184 180.94917,17.5015926 180.780076,18.2613002 C180.31608,18.1763489 179.799495,18.1346823 179.230321,18.1346823 C178.660743,18.1346823 178.312038,18.1346823 178.186229,18.1346823 C177.468188,18.1346823 176.667218,18.2087113 175.780488,18.3559603 C174.894972,18.5040183 174.051122,18.8939854 173.249343,19.5274796 C172.44716,20.1601648 171.783326,21.1095971 171.255414,22.3757764 C170.728311,23.6407422 170.463748,25.4129888 170.463748,27.6917072 L170.463748,43.2604547 C169.705254,43.3862636 168.945951,43.4708104 168.185839,43.5128815 C167.42694,43.5553572 166.688673,43.5759883 165.971036,43.5759883 C165.2534,43.5759883 164.526055,43.5553572 163.787383,43.5128815 C163.049115,43.4708104 162.279294,43.3862636 161.47792,43.2604547 L161.47792,10.4765219 Z M185.436623,10.4765219 C186.026832,10.3507131 186.617851,10.2552439 187.20806,10.1925418 C187.799079,10.1282215 188.4528,10.0970727 189.170436,10.0970727 C189.887668,10.0970727 190.520353,10.1282215 191.068896,10.1925418 C191.617439,10.2552439 192.187018,10.3507131 192.777632,10.4765219 C192.903845,10.6876867 193.020754,10.993916 193.125932,11.3948054 C193.23111,11.7952902 193.326579,12.2180243 193.410721,12.6601757 C193.495268,13.1035408 193.568488,13.535579 193.631999,13.9575039 C193.69632,14.3794289 193.748504,14.7382471 193.790575,15.0335541 C194.127144,14.4012735 194.570914,13.7681838 195.119861,13.1346896 C195.668,12.5028135 196.32172,11.9336396 197.081023,11.4263587 C197.840326,10.919887 198.694694,10.5084798 199.644531,10.1925418 C200.593559,9.87539013 201.659496,9.71721884 202.840724,9.71721884 C207.94549,9.71721884 211.215307,11.6585591 212.650175,15.5404304 C213.493621,13.978944 214.685771,12.6189136 216.225413,11.4579121 C217.765864,10.2973151 219.717317,9.71721884 222.080582,9.71721884 C225.792956,9.71721884 228.524748,10.7414892 230.275554,12.7876027 C232.02717,14.8333117 232.902573,18.0295045 232.902573,22.3757764 L232.902573,43.1969435 C231.383967,43.4501794 229.885183,43.5759883 228.409052,43.5759883 C226.932113,43.5759883 225.434137,43.4501794 223.915531,43.1969435 L223.915531,24.7163879 C223.915531,22.4380741 223.630337,20.6876721 223.060354,19.4643729 C222.491585,18.2406692 221.34191,17.6286151 219.612139,17.6286151 C218.894098,17.6286151 218.188193,17.734602 217.492401,17.9449577 C216.795396,18.1553133 216.162711,18.5456849 215.593537,19.1156679 C215.023958,19.6852464 214.559962,20.4874297 214.20074,21.5210042 C213.841921,22.5537697 213.662714,23.8943826 213.662714,25.5396068 L213.662714,43.1969435 C212.143704,43.4501794 210.645729,43.5759883 209.169193,43.5759883 C207.692658,43.5759883 206.194279,43.4501794 204.675268,43.1969435 L204.675268,24.7163879 C204.675268,22.4380741 204.390883,20.6876721 203.8209,19.4643729 C203.251322,18.2406692 202.102052,17.6286151 200.372281,17.6286151 C199.655858,17.6286151 198.937817,17.734602 198.22018,17.9449577 C197.503757,18.1553133 196.859745,18.567125 196.290167,19.1791792 C195.720184,19.7904242 195.266706,20.6447919 194.929732,21.7422822 C194.591949,22.8389635 194.422856,24.2738319 194.422856,26.045674 L194.422856,43.1969435 C192.903845,43.4501794 191.407083,43.5759883 189.929739,43.5759883 C188.4528,43.5759883 186.955634,43.4501794 185.436623,43.1969435 L185.436623,10.4765219 Z M251.205135,37.1209006 C253.567996,37.1209006 255.266214,36.2459019 256.299384,34.4942863 C257.333363,32.7438843 257.850352,30.2224478 257.850352,26.9319996 C257.850352,23.6407422 257.333363,21.1201148 256.299384,19.3689038 C255.266214,17.6172882 253.567996,16.7422895 251.205135,16.7422895 C248.88475,16.7422895 247.207568,17.6172882 246.173994,19.3689038 C245.13961,21.1201148 244.622621,23.6407422 244.622621,26.9319996 C244.622621,30.2224478 245.13961,32.7438843 246.173994,34.4942863 C247.207568,36.2459019 248.88475,37.1209006 251.205135,37.1209006 Z M251.205135,43.9562466 C248.546968,43.9562466 246.236696,43.5233993 244.275129,42.6585139 C242.313158,41.7940329 240.688565,40.5913648 239.401755,39.0509139 C238.114944,37.5108676 237.144476,35.7074722 236.49116,33.6399186 C235.83663,31.572365 235.50977,29.3369313 235.50977,26.9319996 C235.50977,24.5270678 235.83663,22.269385 236.49116,20.1601648 C237.144476,18.05054 238.114944,16.2257045 239.401755,14.6856582 C240.688565,13.1452074 242.313158,11.9336396 244.275129,11.0465049 C246.236696,10.1605839 248.546968,9.71721884 251.205135,9.71721884 C253.863303,9.71721884 256.183283,10.1605839 258.166695,11.0465049 C260.149297,11.9336396 261.794521,13.1452074 263.103581,14.6856582 C264.411427,16.2257045 265.38149,18.05054 266.014984,20.1601648 C266.64767,22.269385 266.963608,24.5270678 266.963608,26.9319996 C266.963608,29.3369313 266.64767,31.572365 266.014984,33.6399186 C265.38149,35.7074722 264.411427,37.5108676 263.103581,39.0509139 C261.794521,40.5913648 260.149297,41.7940329 258.166695,42.6585139 C256.183283,43.5233993 253.863303,43.9562466 251.205135,43.9562466 Z M278.501617,28.9570775 C276.138351,28.2815122 274.29248,27.2798955 272.964003,25.9506094 C271.634717,24.6221324 270.970074,22.6282033 270.970074,19.9696311 C270.970074,16.7629205 272.120153,14.25362 274.419907,12.4393023 C276.718852,10.62458 279.852343,9.71721884 283.817952,9.71721884 C285.463581,9.71721884 287.087365,9.86527688 288.690922,10.1605839 C290.29448,10.4558909 291.918668,10.8984469 293.563892,11.48987 C293.479346,12.5861467 293.268585,13.7253036 292.930398,14.9073407 C292.593829,16.0881642 292.19294,17.1217388 291.728944,18.0088734 C290.716,17.5865439 289.598283,17.2172079 288.374175,16.9004608 C287.15128,16.5845227 285.864065,16.4263515 284.514148,16.4263515 C283.07928,16.4263515 281.961968,16.6476295 281.15938,17.09059 C280.358006,17.533955 279.957116,18.2406692 279.957116,19.210328 C279.957116,20.1387247 280.241905,20.7928499 280.811484,21.1727038 C281.381062,21.552153 282.193763,21.9117804 283.247969,22.2483494 L286.855569,23.3252087 C288.037201,23.6621823 289.102329,24.073185 290.051762,24.5586212 C291.000789,25.0440573 291.81349,25.6451892 292.488247,26.3620166 C293.163408,27.0792485 293.69051,27.9655741 294.06996,29.0201842 C294.450218,30.0751989 294.640347,31.3616048 294.640347,32.880211 C294.640347,34.4421019 294.313082,35.8976014 293.658957,37.2475185 C293.005236,38.5978402 292.055399,39.7685504 290.811065,40.7596493 C289.566325,41.7519618 288.057832,42.5323005 286.285586,43.1014744 C284.514148,43.6714574 282.509701,43.9562466 280.273459,43.9562466 C279.260515,43.9562466 278.333332,43.9242887 277.489482,43.861182 C276.645228,43.7972662 275.833336,43.6920884 275.052593,43.5448394 C274.272254,43.3967814 273.502028,43.2179791 272.742725,43.0068143 C271.983018,42.7960541 271.160203,42.5217827 270.274282,42.184 C270.359234,41.0444385 270.559476,39.8947638 270.875414,38.7349759 C271.191757,37.5751879 271.603568,36.4457397 272.109636,35.348654 C273.502028,35.8976014 274.820797,36.308604 276.065536,36.5828755 C277.310275,36.8575514 278.607604,36.9950917 279.957116,36.9950917 C280.548539,36.9950917 281.191742,36.9416937 281.88713,36.8361113 C282.58373,36.730529 283.227338,36.5408043 283.817952,36.2665329 C284.40897,35.9922614 284.904924,35.6334432 285.305409,35.1908872 C285.706299,34.7479267 285.905732,34.1678304 285.905732,33.4497894 C285.905732,32.4380595 285.600312,31.7099052 284.988662,31.2669447 C284.376608,30.8243887 283.52224,30.4328035 282.425964,30.0958299 L278.501617,28.9570775 Z M300.391552,17.311868 L296.278694,17.311868 L295.961138,16.0460931 L307.796072,0.920306102 L309.251572,0.920306102 L309.251572,10.4765219 L316.909732,10.4765219 C317.03635,11.1100162 317.120492,11.6791901 317.163373,12.1852573 C317.205039,12.6921336 317.226479,13.2192364 317.226479,13.7681838 C317.226479,14.3583933 317.205039,14.9279718 317.163373,15.4765147 C317.120492,16.0254621 317.03635,16.6371117 316.909732,17.311868 L309.251572,17.311868 L309.251572,30.1597457 C309.251572,31.4671871 309.357963,32.5217972 309.568319,33.3239805 C309.779888,34.1245457 310.085308,34.7580399 310.485793,35.2224406 C310.887492,35.6864366 311.383041,36.0027792 311.973251,36.1714683 C312.56346,36.3409664 313.26087,36.4251087 314.06184,36.4251087 C314.69493,36.4251087 315.316692,36.3721153 315.929151,36.2665329 C316.540396,36.161355 317.078421,36.0662905 317.542417,35.9821482 C317.838129,36.7827134 318.049294,37.61645 318.175102,38.48174 C318.302529,39.3466255 318.365232,40.1172554 318.365232,40.7920117 C318.365232,41.2560078 318.354714,41.6459749 318.333678,41.962722 C318.312643,42.27866 318.281494,42.5856984 318.238614,42.8801964 C316.298487,43.3450015 314.294445,43.5759883 312.226891,43.5759883 C308.387091,43.5759883 305.454652,42.679954 303.429169,40.8874808 C301.404496,39.0937941 300.391552,36.1714683 300.391552,32.1213124 L300.391552,17.311868 Z M2.05015882,0.458332665 C3.87903965,0.203883198 5.63834129,0.0760516691 7.32927734,0.0760516691 C9.11204173,0.0760516691 10.8721524,0.203883198 12.6088004,0.458332665 L23.9214862,23.9384764 L35.576809,0.458332665 C36.9938781,0.203883198 38.5699276,0.0760516691 40.3073846,0.0760516691 C42.0444371,0.0760516691 43.7119104,0.203883198 45.3122317,0.458332665 L47.6431344,43.5743701 C45.906891,43.8292241 44.2612623,43.9562466 42.707462,43.9562466 C41.1524481,43.9562466 39.6221105,43.8292241 38.1140221,43.5743701 L36.8793961,12.4008719 L26.8692974,33.9465525 C26.2289262,34.0315038 25.5667103,34.1067464 24.8806272,34.1694486 C24.1949485,34.2333643 23.510079,34.2649177 22.8239959,34.2649177 C22.2293365,34.2649177 21.6358908,34.2438821 21.0420405,34.2014065 C20.4477857,34.1589308 19.8308772,34.0735749 19.190506,33.9465525 L9.86649047,11.9542706 L8.90654041,43.5743701 C7.4441639,43.8292241 6.02709477,43.9562466 4.65533302,43.9562466 C3.19255198,43.9562466 1.6836545,43.8292241 0.13066324,43.5743701 L2.05015882,0.458332665 Z" id="Shape"></path>
                </g>
                <g id="Group" transform="translate(0.000051, 0.097036)">
                    <path d="M52.7547775,6.39291771 L53.104696,13.4454964 C58.8223252,19.7622348 61.079199,28.7080146 58.2329248,37.1157694 C53.9841446,49.6663174 39.9740518,56.2637997 26.9408992,51.8515893 C13.9073422,47.4397834 6.78599334,33.6885899 11.0347736,21.1380418 C13.8903519,12.7023745 21.1557135,6.95602368 29.5703452,5.43458577 L34.1168596,0.0628298463 C19.9328188,-0.32106927 6.55096132,8.48312501 1.76294241,22.6267128 C-4.11973509,40.0045192 5.19861702,58.8608833 22.5764234,64.7439653 C39.9542298,70.6266428 58.8109984,61.3078862 64.6940804,43.9300798 C69.4740087,29.8095502 64.2171394,14.7120803 52.7547775,6.39291771 Z" id="Shape"></path>
                </g>
                <path d="M44.6087537,27.3006541 L44.3680583,17.4410407 L44.1750974,11.7675053 L44.0444342,6.85246388 C44.0444342,6.85246388 44.0715377,4.48232171 43.9890135,3.92528368 C43.9716187,3.80796994 43.9348065,3.71290535 43.8907127,3.62957214 L43.874127,3.59478255 L43.8551141,3.56444279 C43.7644993,3.40788962 43.6212956,3.28086715 43.4364253,3.21816497 C43.2475098,3.15424921 43.0517172,3.17002589 42.8818145,3.24324584 L42.8712967,3.24729115 L42.8126399,3.27722638 C42.7321384,3.3164658 42.6500187,3.3674366 42.5699218,3.44510639 C42.1657961,3.83709611 40.7479179,5.73636519 40.7479179,5.73636519 L37.6581166,9.56160233 L34.0586073,13.951159 L27.8781956,21.6368274 C27.8781956,21.6368274 25.0420347,25.1764663 25.6686519,29.5336606 C26.2956736,33.8904504 29.5347466,36.0130201 32.0476879,36.863747 C34.5602247,37.7144739 38.4226786,37.9960269 41.567496,34.9155298 C44.7119089,31.8350326 44.6087537,27.3006541 44.6087537,27.3006541 Z" id="Shape"></path>
            </g>
            <path d="M84.7937692,85.46867 C84.7937692,88.026047 86.3019659,89.4522765 89.6134413,90.2555552 L92.6462282,90.9932601 C94.5314741,91.4522765 95.4495069,92.2719486 95.4495069,93.4850634 C95.4495069,95.1080142 93.7445889,96.2391618 91.3675397,96.2391618 C89.1052446,96.2391618 87.6954086,95.2883421 87.2199987,93.7965388 L84.3183594,93.7965388 C84.6298348,96.730965 87.3347528,98.6162109 91.269179,98.6162109 C95.2855725,98.6162109 98.3511463,96.4358831 98.3511463,93.2719486 C98.3511463,90.730965 96.7445889,89.2883421 93.41672,88.4850634 L90.6954086,87.8293257 C88.6134413,87.321129 87.6298348,86.5670306 87.6298348,85.3539159 C87.6298348,83.7801454 89.269179,82.7145716 91.3675397,82.7145716 C93.4986872,82.7145716 94.8757364,83.6489978 95.2527856,85.0588339 L98.0396709,85.0588339 C97.6626217,82.1571945 95.0888512,80.321129 91.3839331,80.321129 C87.6298348,80.321129 84.7937692,82.5342437 84.7937692,85.46867 Z M102.94131,98.3047355 L105.760982,98.3047355 L105.760982,73.6162109 L102.94131,73.6162109 L102.94131,98.3047355 Z M116.679015,96.1408011 C119.580654,96.1408011 121.728195,94.2391618 121.728195,91.7145716 L121.728195,90.0916208 L116.974097,90.4030962 C114.285572,90.5834241 113.105245,91.5178503 113.105245,93.2883421 C113.105245,95.0916208 114.629835,96.1408011 116.679015,96.1408011 Z M116.154425,98.6162109 C112.728195,98.6162109 110.187212,96.5834241 110.187212,93.3539159 C110.187212,90.1899814 112.515081,88.3703093 116.629835,88.1244077 L121.728195,87.8129322 L121.728195,86.2063749 C121.728195,84.026047 120.36754,82.8293257 117.728195,82.8293257 C115.613441,82.8293257 114.138032,83.6326044 113.744589,85.026047 L110.89213,85.026047 C111.269179,82.1899814 114.056064,80.321129 117.826556,80.321129 C122.138032,80.321129 124.547868,82.5342437 124.547868,86.2063749 L124.547868,98.3047355 L121.859343,98.3047355 L121.859343,95.6981782 L121.597048,95.6981782 C120.449507,97.5834241 118.515081,98.6162109 116.154425,98.6162109 Z M129.351146,85.46867 C129.351146,88.026047 130.859343,89.4522765 134.170818,90.2555552 L137.203605,90.9932601 C139.088851,91.4522765 140.006884,92.2719486 140.006884,93.4850634 C140.006884,95.1080142 138.301966,96.2391618 135.924917,96.2391618 C133.662622,96.2391618 132.252786,95.2883421 131.777376,93.7965388 L128.875736,93.7965388 C129.187212,96.730965 131.89213,98.6162109 135.826556,98.6162109 C139.84295,98.6162109 142.908523,96.4358831 142.908523,93.2719486 C142.908523,90.730965 141.301966,89.2883421 137.974097,88.4850634 L135.252786,87.8293257 C133.170818,87.321129 132.187212,86.5670306 132.187212,85.3539159 C132.187212,83.7801454 133.826556,82.7145716 135.924917,82.7145716 C138.056064,82.7145716 139.433113,83.6489978 139.810163,85.0588339 L142.597048,85.0588339 C142.219999,82.1571945 139.646228,80.321129 135.94131,80.321129 C132.187212,80.321129 129.351146,82.5342437 129.351146,85.46867 Z M147.498687,98.3047355 L150.318359,98.3047355 L150.318359,87.8457191 C150.318359,84.8621126 152.056064,82.8621126 155.219999,82.8621126 C157.89213,82.8621126 159.301966,84.4194896 159.301966,87.5506372 L159.301966,98.3047355 L162.121638,98.3047355 L162.121638,86.8621126 C162.121638,82.7145716 159.760982,80.321129 156.023277,80.321129 C153.318359,80.321129 151.4659,81.46867 150.580654,83.4194896 L150.318359,83.4194896 L150.318359,73.6162109 L147.498687,73.6162109 L147.498687,98.3047355 Z M191.36754,86.0424404 C190.875736,82.8948995 188.252786,80.321129 183.957704,80.321129 C179.006884,80.321129 175.859343,83.8948995 175.859343,89.4030962 C175.859343,95.026047 179.023277,98.6162109 183.974097,98.6162109 C188.219999,98.6162109 190.859343,96.2227683 191.36754,92.9768667 L188.515081,92.9768667 C187.990491,94.9768667 186.334753,96.0752273 183.957704,96.0752273 C180.810163,96.0752273 178.777376,93.4850634 178.777376,89.4030962 C178.777376,85.4030962 180.777376,82.8621126 183.957704,82.8621126 C186.498687,82.8621126 188.056064,84.2883421 188.515081,86.0424404 L191.36754,86.0424404 Z M202.793769,96.0752273 C206.138032,96.0752273 208.023277,93.6489978 208.023277,89.46867 C208.023277,85.2719486 206.138032,82.8621126 202.793769,82.8621126 C199.449507,82.8621126 197.564261,85.2719486 197.564261,89.46867 C197.564261,93.6489978 199.449507,96.0752273 202.793769,96.0752273 Z M202.793769,98.6162109 C197.760982,98.6162109 194.646228,95.1408011 194.646228,89.46867 C194.646228,83.7801454 197.760982,80.321129 202.793769,80.321129 C207.826556,80.321129 210.94131,83.7801454 210.94131,89.46867 C210.94131,95.1408011 207.826556,98.6162109 202.793769,98.6162109 Z M215.36754,98.3047355 L218.187212,98.3047355 L218.187212,87.3539159 C218.187212,84.8621126 219.974097,82.8621126 222.285572,82.8621126 C224.515081,82.8621126 225.974097,84.2063749 225.974097,86.3047355 L225.974097,98.3047355 L228.793769,98.3047355 L228.793769,86.9440798 C228.793769,84.6981782 230.433113,82.8621126 232.89213,82.8621126 C235.383933,82.8621126 236.613441,84.1408011 236.613441,86.7473585 L236.613441,98.3047355 L239.433113,98.3047355 L239.433113,86.0916208 C239.433113,82.3867027 237.41672,80.321129 233.810163,80.321129 C231.36754,80.321129 229.351146,81.5506372 228.400327,83.4194896 L228.138032,83.4194896 C227.318359,81.5834241 225.646228,80.321129 223.252786,80.321129 C220.89213,80.321129 219.121638,81.4522765 218.318359,83.4194896 L218.056064,83.4194896 L218.056064,80.6326044 L215.36754,80.6326044 L215.36754,98.3047355 Z M244.580654,98.3047355 L247.400327,98.3047355 L247.400327,87.3539159 C247.400327,84.8621126 249.187212,82.8621126 251.498687,82.8621126 C253.728195,82.8621126 255.187212,84.2063749 255.187212,86.3047355 L255.187212,98.3047355 L258.006884,98.3047355 L258.006884,86.9440798 C258.006884,84.6981782 259.646228,82.8621126 262.105245,82.8621126 C264.597048,82.8621126 265.826556,84.1408011 265.826556,86.7473585 L265.826556,98.3047355 L268.646228,98.3047355 L268.646228,86.0916208 C268.646228,82.3867027 266.629835,80.321129 263.023277,80.321129 C260.580654,80.321129 258.564261,81.5506372 257.613441,83.4194896 L257.351146,83.4194896 C256.531474,81.5834241 254.859343,80.321129 252.4659,80.321129 C250.105245,80.321129 248.334753,81.4522765 247.531474,83.4194896 L247.269179,83.4194896 L247.269179,80.6326044 L244.580654,80.6326044 L244.580654,98.3047355 Z M279.236392,96.1408011 C282.138032,96.1408011 284.285572,94.2391618 284.285572,91.7145716 L284.285572,90.0916208 L279.531474,90.4030962 C276.84295,90.5834241 275.662622,91.5178503 275.662622,93.2883421 C275.662622,95.0916208 277.187212,96.1408011 279.236392,96.1408011 Z M278.711802,98.6162109 C275.285572,98.6162109 272.744589,96.5834241 272.744589,93.3539159 C272.744589,90.1899814 275.072458,88.3703093 279.187212,88.1244077 L284.285572,87.8129322 L284.285572,86.2063749 C284.285572,84.026047 282.924917,82.8293257 280.285572,82.8293257 C278.170818,82.8293257 276.695409,83.6326044 276.301966,85.026047 L273.449507,85.026047 C273.826556,82.1899814 276.613441,80.321129 280.383933,80.321129 C284.695409,80.321129 287.105245,82.5342437 287.105245,86.2063749 L287.105245,98.3047355 L284.41672,98.3047355 L284.41672,95.6981782 L284.154425,95.6981782 C283.006884,97.5834241 281.072458,98.6162109 278.711802,98.6162109 Z M292.318359,98.3047355 L295.138032,98.3047355 L295.138032,87.8457191 C295.138032,84.7473585 296.957704,82.8621126 299.777376,82.8621126 C302.597048,82.8621126 303.94131,84.3703093 303.94131,87.5506372 L303.94131,98.3047355 L306.760982,98.3047355 L306.760982,86.8621126 C306.760982,82.6653913 304.547868,80.321129 300.580654,80.321129 C297.875736,80.321129 296.154425,81.46867 295.269179,83.4194896 L295.006884,83.4194896 L295.006884,80.6326044 L292.318359,80.6326044 L292.318359,98.3047355 Z M318.449507,98.6162109 C313.924917,98.6162109 311.023277,95.026047 311.023277,89.46867 C311.023277,83.9276863 313.957704,80.321129 318.449507,80.321129 C320.908523,80.321129 322.990491,81.4850634 323.990491,83.4194896 L324.236392,83.4194896 L324.236392,73.6162109 L327.056064,73.6162109 L327.056064,98.3047355 L324.36754,98.3047355 L324.36754,95.4850634 L324.105245,95.4850634 C322.990491,97.4522765 320.89213,98.6162109 318.449507,98.6162109 Z M319.105245,82.8621126 C315.89213,82.8621126 313.94131,85.3539159 313.94131,89.46867 C313.94131,93.5998175 315.875736,96.0752273 319.105245,96.0752273 C322.318359,96.0752273 324.301966,93.5506372 324.301966,89.46867 C324.301966,85.4194896 322.301966,82.8621126 319.105245,82.8621126 Z M332.121638,85.46867 C332.121638,88.026047 333.629835,89.4522765 336.94131,90.2555552 L339.974097,90.9932601 C341.859343,91.4522765 342.777376,92.2719486 342.777376,93.4850634 C342.777376,95.1080142 341.072458,96.2391618 338.695409,96.2391618 C336.433113,96.2391618 335.023277,95.2883421 334.547868,93.7965388 L331.646228,93.7965388 C331.957704,96.730965 334.662622,98.6162109 338.597048,98.6162109 C342.613441,98.6162109 345.679015,96.4358831 345.679015,93.2719486 C345.679015,90.730965 344.072458,89.2883421 340.744589,88.4850634 L338.023277,87.8293257 C335.94131,87.321129 334.957704,86.5670306 334.957704,85.3539159 C334.957704,83.7801454 336.597048,82.7145716 338.695409,82.7145716 C340.826556,82.7145716 342.203605,83.6489978 342.580654,85.0588339 L345.36754,85.0588339 C344.990491,82.1571945 342.41672,80.321129 338.711802,80.321129 C334.957704,80.321129 332.121638,82.5342437 332.121638,85.46867 Z" id="slash-commands" fill="#333333"></path>
        </g>
    </g>
</svg>