<?xml version="1.0" encoding="UTF-8" standalone="no"?>
<svg width="415px" height="64px" viewBox="0 0 415 64" version="1.1" xmlns="http://www.w3.org/2000/svg" xmlns:xlink="http://www.w3.org/1999/xlink">
    <!-- Generator: Sketch 45.2 (43514) - http://www.bohemiancoding.com/sketch -->
    <title>redmine</title>
    <desc>Created with Sketch.</desc>
    <defs></defs>
    <g id="Page-1" stroke="none" stroke-width="1" fill="none" fill-rule="evenodd">
        <g id="redmine">
            <path d="M27.665,6.313 L36.629,16.752 C37.014,17.248 36.504,17.616 36.504,17.616 C32.912,19.553 30.313,22.481 28.089,25.833 C27.648,26.499 27.172,26.016 27.172,26.016 L15.813,17.509 C15.813,17.509 15.325,17.222 15.752,16.655 C19.078,12.238 22.1,9.123 26.931,6.183 C26.931,6.183 27.297,5.837 27.665,6.313" id="Fill-1" fill="#C1372B"></path>
            <g id="Group-5" transform="translate(0.000000, 23.000000)">
                <path d="M11.763,0.319 L25.188,6.809 C25.826,7.056 25.507,7.637 25.507,7.637 C23.652,12.05 22.522,15.776 21.65,20.291 C21.504,21.047 20.991,20.805 20.991,20.805 L5.891,14.248 C5.891,14.248 5.438,14.079 5.627,13.497 C6.297,11.432 9.713,3.186 11.084,0.491 C11.084,0.491 11.324,0.082 11.763,0.319" id="Fill-2" fill="#B52F2B"></path>
                <path d="M4.252,21.165 C7.323,22.111 20.208,25.079 20.208,25.079 C20.979,25.317 20.749,25.896 20.749,25.896 C19.86,32.896 20.054,38.238 20.054,40.084 C20.054,40.902 19.458,40.782 19.458,40.782 C16.113,40.782 0.655,40.782 0.655,40.782 C-0.163,40.782 0.017,40.046 0.017,40.046 C0.17,37.714 0.843,31.079 3.435,21.566 C3.435,21.566 3.564,20.954 4.252,21.165" id="Fill-4" fill="#9A2728"></path>
            </g>
            <path d="M65.778,6.313 L56.814,16.752 C56.429,17.248 56.939,17.616 56.939,17.616 C60.531,19.553 63.13,22.481 65.354,25.833 C65.795,26.499 66.271,26.016 66.271,26.016 L77.63,17.509 C77.63,17.509 78.118,17.222 77.691,16.655 C74.365,12.238 71.343,9.123 66.512,6.183 C66.512,6.183 66.146,5.837 65.778,6.313" id="Fill-6" fill="#C1372B"></path>
            <path d="M46.722,15.248 C48.23,15.248 51.024,15.392 52.343,15.611 C53.032,15.725 53.202,15.27 53.202,15.27 L58.845,3.479 C58.845,3.479 59.222,3.035 58.432,2.746 C54.22,1.205 51.98,0.496 46.722,0.496 C41.526,0.496 39.223,1.205 35.011,2.746 C34.221,3.035 34.598,3.479 34.598,3.479 L40.241,15.27 C40.241,15.27 40.411,15.725 41.1,15.611 C42.419,15.392 45.212,15.248 46.722,15.248" id="Fill-7" fill="#CD4E43"></path>
            <path d="M81.68,23.319 L68.255,29.809 C67.617,30.056 67.936,30.637 67.936,30.637 C69.791,35.05 70.921,38.776 71.793,43.291 C71.939,44.047 72.452,43.805 72.452,43.805 L87.552,37.248 C87.552,37.248 88.005,37.079 87.816,36.497 C87.146,34.432 83.73,26.186 82.359,23.491 C82.359,23.491 82.119,23.082 81.68,23.319" id="Fill-8" fill="#B52F2B"></path>
            <path d="M89.191,44.165 C86.12,45.111 73.235,48.079 73.235,48.079 C72.463,48.317 72.693,48.896 72.693,48.896 C73.583,55.896 73.389,61.238 73.389,63.084 C73.389,63.902 73.985,63.782 73.985,63.782 C77.33,63.782 92.788,63.782 92.788,63.782 C93.605,63.782 93.426,63.046 93.426,63.046 C93.273,60.714 92.6,54.079 90.008,44.566 C90.008,44.566 89.879,43.954 89.191,44.165" id="Fill-9" fill="#9A2728"></path>
            <path d="M295.022,63.782 L295.022,32.554 L295.742,25.984 L282.602,63.782 L274.502,63.782 L261.363,25.984 L262.083,32.554 L262.083,63.782 L252.273,63.782 L252.273,7.084 L263.792,7.084 L277.292,45.513 C278.192,48.213 278.552,50.553 278.552,50.553 C278.552,50.553 278.913,48.123 279.812,45.513 L293.312,7.084 L304.832,7.084 L304.832,63.782 L295.022,63.782" id="Fill-37" fill="#CD4E43"></path>
            <polygon id="Fill-38" fill="#CD4E43" points="315.408 63.782 325.127 63.782 325.127 7.084 315.408 7.084"></polygon>
            <path d="M362.477,63.782 L344.568,24.094 C344.568,24.094 345.198,27.784 345.198,31.563 L345.198,63.782 L335.388,63.782 L335.388,7.084 L346.908,7.084 L359.506,35.703 C360.947,38.943 362.117,43.893 362.117,43.893 C362.117,36.603 362.117,43.443 362.117,7.084 L371.926,7.084 L371.926,63.782 L362.477,63.782" id="Fill-39" fill="#CD4E43"></path>
            <polyline id="Fill-40" fill="#CD4E43" points="382.817 63.782 382.817 7.084 413.416 7.084 413.416 15.814 392.626 15.814 392.626 29.854 408.556 29.854 408.556 38.673 392.626 38.673 392.626 54.873 414.316 54.873 414.316 63.782 382.817 63.782"></polyline>
            <path d="M223.269,15.544 L216.339,15.544 L216.339,55.323 L222.82,55.323 C233.259,55.323 234.878,43.803 234.878,35.703 C234.878,27.873 233.708,15.544 223.269,15.544 Z M222.82,63.782 L206.62,63.782 L206.62,7.084 L223.629,7.084 C239.918,7.084 244.779,21.664 244.779,35.523 C244.779,49.563 238.838,63.782 222.82,63.782 L222.82,63.782 Z" id="Fill-41" fill="#9A2728"></path>
            <polyline id="Fill-42" fill="#9A2728" points="167.92 63.782 167.92 7.084 198.519 7.084 198.519 15.814 177.73 15.814 177.73 29.854 193.66 29.854 193.66 38.673 177.73 38.673 177.73 54.873 199.419 54.873 199.419 63.782 167.92 63.782"></polyline>
            <path d="M137.951,15.544 L134.711,15.544 L134.711,34.983 C134.711,34.983 137.501,36.153 139.841,36.153 C146.23,36.153 149.561,30.934 149.561,24.994 C149.561,19.144 146.141,15.544 137.951,15.544 Z M153.16,63.782 L134.711,43.533 L134.711,63.782 L124.901,63.782 L124.901,7.084 L137.951,7.084 C153.61,7.084 159.55,15.004 159.55,25.084 C159.55,33.633 154.15,42.363 145.871,43.083 L161.98,59.822 L161.98,63.782 L153.16,63.782 L153.16,63.782 Z" id="Fill-43" fill="#9A2728"></path>
        </g>
    </g>
</svg>