<?xml version="1.0" encoding="UTF-8" standalone="no"?>
<svg width="716px" height="162px" viewBox="0 0 716 162" version="1.1" xmlns="http://www.w3.org/2000/svg" xmlns:xlink="http://www.w3.org/1999/xlink">
    <!-- Generator: Sketch 45.2 (43514) - http://www.bohemiancoding.com/sketch -->
    <title>Group</title>
    <desc>Created with Sketch.</desc>
    <defs></defs>
    <g id="Page-1" stroke="none" stroke-width="1" fill="none" fill-rule="evenodd">
        <g id="Group">
            <g id="logo-drone" fill-rule="nonzero" fill="#252728">
                <path d="M95.0412588,0.535521834 C23.7924487,0.535521834 0.292356336,62.6814912 0.292356336,85.4034938 L58.0535335,85.4034938 C58.0535335,85.4034938 66.2378878,55.7954314 95.0412588,55.7954314 C123.844629,55.7954314 132.031939,85.4034938 132.031939,85.4034938 L189.457643,85.4034938 C189.457643,62.6785355 166.289329,0.535521834 95.0412588,0.535521834" id="Shape"></path>
                <path d="M168.287388,100.193854 L132.031939,100.193854 C132.031939,100.193854 125.694163,129.802655 95.0412588,129.802655 C64.3883538,129.802655 58.0535335,100.193854 58.0535335,100.193854 L22.4269118,100.193854 C22.4269118,107.791501 50.3908615,161.498186 95.3937268,161.498186 C140.395853,161.498186 168.287388,117.319224 168.287388,100.193854" id="Shape"></path>
                <circle id="Oval" cx="94.875" cy="93.4493037" r="24.287881"></circle>
            </g>
            <path d="M232,145.695473 L232,13 L272.829376,13 C284.494971,13 294.930053,15.6277572 304.134936,20.8833506 C313.339819,26.1389439 320.524381,33.6121032 325.688837,43.3030527 C330.853293,52.9940022 333.435482,64.0062797 333.435482,76.3402155 L333.435482,82.4463945 C333.435482,94.7803303 330.898861,105.74704 325.825542,115.346852 C320.752224,124.946664 313.598041,132.389444 304.362779,137.675417 C295.127516,142.961389 284.707623,145.634715 273.102787,145.695473 L232,145.695473 Z M259.3411,35.1462912 L259.3411,123.731456 L272.555965,123.731456 C283.249427,123.731456 291.421296,120.237906 297.071818,113.250701 C302.722341,106.263496 305.608317,96.2689046 305.729834,83.2666275 L305.729834,76.2490785 C305.729834,62.7607349 302.934993,52.5383036 297.345229,45.5814777 C291.755465,38.6246519 283.583596,35.1462912 272.829376,35.1462912 L259.3411,35.1462912 Z M406.983041,71.7833654 C403.398301,71.297299 400.238917,71.0542694 397.504793,71.0542694 C387.540431,71.0542694 381.009012,74.4263047 377.910338,81.1704765 L377.910338,145.695473 L351.571745,145.695473 L351.571745,47.0852382 L376.452146,47.0852382 L377.181242,58.8419113 C382.467215,49.788924 389.78848,45.2624982 399.145259,45.2624982 C402.061658,45.2624982 404.79574,45.6574213 407.347589,46.4472792 L406.983041,71.7833654 Z M415.549919,95.4789856 C415.549919,85.6968986 417.433399,76.9782127 421.200413,69.3226664 C424.967428,61.6671201 430.390026,55.7432743 437.468368,51.5509513 C444.54671,47.3586283 452.764148,45.2624982 462.120927,45.2624982 C475.426995,45.2624982 486.287379,49.3332436 494.702404,57.4748563 C503.11743,65.6164691 507.810938,76.6743146 508.783071,90.6487246 L508.965345,97.3928626 C508.965345,112.52168 504.742706,124.65797 496.297302,133.802094 C487.851898,142.946219 476.520644,147.518213 462.303201,147.518213 C448.085757,147.518213 436.739314,142.961409 428.263531,133.847663 C419.787747,124.733917 415.549919,112.339409 415.549919,96.6637666 L415.549919,95.4789856 Z M441.888513,97.3928626 C441.888513,106.749641 443.650477,113.903824 447.174459,118.855626 C450.69844,123.807428 455.741304,126.283292 462.303201,126.283292 C468.682823,126.283292 473.664929,123.837807 477.249669,118.946763 C480.834409,114.05572 482.626752,106.233205 482.626752,95.4789856 C482.626752,86.3044817 480.834409,79.1958667 477.249669,74.1529274 C473.664929,69.1099882 468.622065,66.5885564 462.120927,66.5885564 C455.680546,66.5885564 450.69844,69.0947988 447.174459,74.1073589 C443.650477,79.119919 441.888513,86.881676 441.888513,97.3928626 Z M549.430173,47.0852382 L550.250406,58.4773633 C557.29837,49.6674092 566.746144,45.2624982 578.594014,45.2624982 C589.044442,45.2624982 596.821388,48.3307466 601.925086,54.4673353 C607.028783,60.603924 609.641351,69.7782903 609.762868,81.9907095 L609.762868,145.695473 L583.424275,145.695473 L583.424275,82.6286685 C583.424275,77.0389045 582.209127,72.9833485 579.778795,70.4618789 C577.348462,67.9404093 573.308096,66.6796934 567.657573,66.6796934 C560.24506,66.6796934 554.685759,69.8390778 550.979502,76.1579415 L550.979502,145.695473 L524.640909,145.695473 L524.640909,47.0852382 L549.430173,47.0852382 Z M675.108097,147.518213 C660.647621,147.518213 648.875876,143.082923 639.792509,134.212211 C630.709143,125.341498 626.167528,113.524186 626.167528,98.7599176 L626.167528,96.2080816 C626.167528,86.304478 628.081386,77.449088 631.909159,69.6416459 C635.736932,61.8342038 641.159529,55.8192219 648.177114,51.5965198 C655.194698,47.3738176 663.199484,45.2624982 672.191713,45.2624982 C685.680057,45.2624982 696.297411,49.5155157 704.044095,58.0216783 C711.790779,66.5278409 715.664062,78.5881834 715.664062,94.2030676 L715.664062,104.957234 L652.870669,104.957234 C653.721285,111.397614 656.288285,116.561992 660.571746,120.450524 C664.855206,124.339055 670.277803,126.283292 676.8397,126.283292 C686.986337,126.283292 694.915177,122.60747 700.626457,115.255715 L713.567911,129.746498 C709.618622,135.336262 704.271971,139.695605 697.527799,142.824657 C690.783628,145.95371 683.310468,147.518213 675.108097,147.518213 Z M672.100576,66.5885564 C666.875362,66.5885564 662.637534,68.3505208 659.386965,71.8745024 C656.136395,75.3984841 654.055455,80.4413477 653.14408,87.0032445 L689.781154,87.0032445 L689.781154,84.9070935 C689.659638,79.0742963 688.079945,74.5630599 685.04203,71.3732489 C682.004115,68.183438 677.69034,66.5885564 672.100576,66.5885564 Z" id="Drone" fill="#000000"></path>
        </g>
    </g>
</svg>