<?xml version="1.0" encoding="UTF-8" standalone="no"?>
<svg width="1115px" height="175px" viewBox="0 0 1115 175" version="1.1" xmlns="http://www.w3.org/2000/svg" xmlns:xlink="http://www.w3.org/1999/xlink">
    <!-- Generator: Sketch 45.2 (43514) - http://www.bohemiancoding.com/sketch -->
    <title>jira-software_rgb_slate</title>
    <desc>Created with Sketch.</desc>
    <defs></defs>
    <g id="Page-1" stroke="none" stroke-width="1" fill="none" fill-rule="evenodd">
        <g id="jira-software_rgb_slate" fill-rule="nonzero" fill="#172B4D">
            <path d="M411.386,44.99 C410.972,43.678 409.757,42.787 408.382,42.787 L378.987,42.787 C377.612,42.787 376.395,43.678 375.983,44.99 L341.965,152.881 L321.029,122.684 C332.619,117.875 338.494,107.799 338.494,92.731 L338.494,76.897 C338.494,53.307 326.176,42.787 298.556,42.787 L250.669,42.787 C248.929,42.787 247.519,44.197 247.519,45.937 L247.519,163.561 C247.519,165.301 248.929,166.711 250.669,166.711 L270.001,166.711 C271.741,166.711 273.151,165.301 273.151,163.561 L273.151,126.67 L292.936,126.67 L319.844,165.359 C320.432,166.205 321.399,166.711 322.43,166.711 L362.135,166.711 C363.531,166.711 364.76,165.793 365.156,164.453 L390.695,77.943 C390.695,77.943 391.363,75.783 393.675,75.783 C396.027,75.783 396.599,78.029 396.599,78.031 L408.449,119.054 L392.17,119.054 C390.758,119.054 389.52,119.993 389.137,121.351 L384.571,137.59 C384.303,138.54 384.497,139.56 385.092,140.345 C385.688,141.131 386.615,141.593 387.602,141.593 L415.075,141.593 L422.212,164.496 C422.622,165.813 423.841,166.71 425.22,166.71 L445.466,166.71 C446.47,166.71 447.413,166.233 448.005,165.423 C448.599,164.613 448.771,163.569 448.47,162.612 L411.386,44.99 Z M312.861,90.729 C312.861,100.743 309.023,104.12 297.65,104.12 L273.154,104.12 L273.154,65.69 L297.65,65.69 C310.318,65.69 312.861,70.674 312.861,78.718 L312.861,90.729 Z" id="Shape"></path>
            <g id="Group" transform="translate(201.000000, 42.000000)">
                <path d="M22.962,0.72 L3.629,0.72 C1.89,0.72 0.479,2.13 0.479,3.87 L0.479,121.496 C0.479,123.236 1.89,124.646 3.629,124.646 L22.962,124.646 C24.701,124.646 26.112,123.236 26.112,121.496 L26.112,3.87 C26.112,2.13 24.701,0.72 22.962,0.72 Z" id="Shape"></path>
                <path d="M146.877,119.446 L119.96,80.619 C131.55,75.81 137.424,65.735 137.424,50.666 L137.424,34.831 C137.424,11.24 125.107,0.72 97.488,0.72 L49.6,0.72 C47.861,0.72 46.45,2.13 46.45,3.87 L46.45,121.496 C46.45,123.236 47.861,124.646 49.6,124.646 L68.933,124.646 C70.672,124.646 72.083,123.236 72.083,121.496 L72.083,84.605 L91.867,84.605 L118.775,123.294 C119.364,124.14 120.33,124.646 121.361,124.646 L144.465,124.646 C144.471,124.646 144.479,124.646 144.485,124.646 C146.225,124.646 147.635,123.236 147.635,121.496 C147.635,120.713 147.35,119.997 146.877,119.446 Z M72.083,23.623 L96.578,23.623 C109.246,23.623 111.79,28.608 111.79,36.652 L111.79,48.665 C111.79,58.678 107.952,62.056 96.578,62.056 L72.083,62.056 L72.083,23.623 Z" id="Shape"></path>
            </g>
            <path d="M411.314,44.923 C410.901,43.611 409.685,42.72 408.31,42.72 L378.915,42.72 C377.54,42.72 376.324,43.612 375.911,44.923 L338.825,162.549 C338.523,163.506 338.695,164.55 339.289,165.36 C339.882,166.171 340.825,166.647 341.829,166.647 L362.065,166.647 C363.462,166.647 364.691,165.729 365.087,164.389 L390.626,77.88 C390.626,77.88 391.294,75.72 393.606,75.72 C395.958,75.72 396.53,77.965 396.53,77.968 L408.38,118.991 L392.101,118.991 C390.69,118.991 389.451,119.93 389.069,121.288 L384.502,137.527 C384.234,138.477 384.428,139.497 385.023,140.282 C385.619,141.068 386.548,141.53 387.534,141.53 L415.006,141.53 L422.143,164.433 C422.553,165.75 423.772,166.647 425.151,166.647 L445.397,166.647 C446.401,166.647 447.344,166.17 447.937,165.36 C448.531,164.55 448.703,163.506 448.401,162.549 L411.314,44.923 Z" id="Shape"></path>
            <path d="M178.685,42.72 L159.117,42.72 C157.461,42.72 156.109,44.064 156.109,45.72 L156.109,137.762 C156.109,149.329 147.295,153.131 141.33,153.435 C140.526,153.474 139.591,153.981 139.076,154.732 C138.56,155.486 138.417,156.432 138.684,157.304 L143.442,172.781 C143.83,174.048 145.195,174.861 147.417,174.861 C166.14,174.861 181.685,160.162 181.685,140.458 L181.685,45.722 C181.685,44.926 181.37,44.162 180.806,43.599 C180.244,43.036 179.481,42.72 178.685,42.72 Z" id="Shape"></path>
            <g id="Group" transform="translate(16.000000, 0.000000)">
                <g transform="translate(0.000000, 10.000000)" id="Shape">
                    <path d="M11.154,0.631 C5.142,0.631 0.274,5.494 0.274,11.521 C0.274,17.532 5.142,22.412 11.154,22.412 C17.172,22.412 22.034,17.533 22.034,11.521 C22.034,5.494 17.172,0.631 11.154,0.631 L11.154,0.631 L11.154,0.631 Z"></path>
                    <path d="M82.635,0.631 C76.619,0.631 71.758,5.494 71.758,11.521 C71.758,17.532 76.619,22.412 82.635,22.412 C88.633,22.412 93.513,17.533 93.513,11.521 C93.513,5.494 88.633,0.64 82.635,0.631 L82.635,0.631 L82.635,0.631 Z"></path>
                </g>
                <path d="M46.894,0.696 C40.882,0.696 36.014,5.557 36.014,11.586 C36.014,17.599 40.882,22.479 46.894,22.479 C52.91,22.479 57.772,17.599 57.772,11.586 C57.772,5.557 52.91,0.696 46.894,0.696 L46.894,0.696 L46.894,0.696 Z" id="Shape"></path>
            </g>
            <g id="Group" transform="translate(0.000000, 40.000000)">
                <path d="M124.355,0.975 C123.75,0.515 123.022,0.276 122.284,0.276 C121.875,0.276 121.461,0.351 121.068,0.502 C113.701,3.319 106.22,5.459 99.392,7.049 C97.999,7.374 96.874,8.408 96.408,9.651 C91.433,23.278 78.73,36.254 65.402,49.845 C64.867,50.353 64.118,51.022 62.898,51.022 C61.681,51.022 60.939,50.374 60.394,49.845 C47.068,36.253 34.365,23.323 29.388,9.695 C28.921,8.454 27.796,7.42 26.406,7.094 C19.574,5.503 12.074,3.297 4.717,0.481 C4.323,0.331 3.908,0.256 3.498,0.256 C2.76,0.256 2.046,0.488 1.441,0.949 C0.498,1.669 0.007,2.837 0.119,3.959 C1.248,15.291 5.725,26.369 13.806,37.978 C21.402,48.892 31.31,58.995 40.889,68.764 C58.538,86.767 75.212,103.769 76.675,123.486 C76.807,125.264 78.288,126.643 80.075,126.643 L100.811,126.643 C101.745,126.643 102.637,126.259 103.282,125.583 C103.925,124.906 104.264,123.999 104.218,123.064 C103.566,109.882 98.605,96.681 89.052,82.711 C87.05,79.781 84.906,76.932 82.663,74.143 C81.753,73.007 82.134,71.596 82.831,70.884 C83.519,70.179 84.212,69.476 84.907,68.763 C94.487,58.993 104.393,48.891 111.991,37.977 C120.071,26.367 124.548,15.354 125.677,4.023 C125.791,2.885 125.273,1.677 124.355,0.975 Z" id="Shape"></path>
                <path d="M40.646,84.1 C40.156,83.587 39.435,83.063 38.225,83.063 C36.677,83.063 35.759,84.133 35.412,84.664 C26.69,97.936 22.185,110.464 21.562,123.053 C21.517,123.981 21.859,124.903 22.502,125.581 C23.146,126.255 24.051,126.643 24.982,126.643 L45.683,126.643 C47.464,126.643 48.964,125.25 49.095,123.473 C49.546,117.406 51.435,111.324 54.874,104.933 C56.065,102.722 55.14,100.645 54.453,99.757 C51.042,95.319 46.863,90.587 40.646,84.1 Z" id="Shape"></path>
                <path d="M62.918,11.134 C69.416,11.134 73.185,10.743 74.51,10.743 C76.114,10.743 77.647,12.057 77.647,13.897 C77.647,14.434 77.52,14.817 77.394,15.156 C76.532,17.461 72.604,25.751 65.291,32.861 C64.471,33.659 63.541,33.808 62.9,33.808 L62.892,33.808 C62.253,33.808 61.324,33.659 60.504,32.861 C53.19,25.75 49.262,17.46 48.401,15.156 C48.274,14.817 48.147,14.434 48.147,13.897 C48.147,12.057 49.682,10.743 51.286,10.743 C52.61,10.743 56.378,11.134 62.874,11.134 L62.918,11.134 Z" id="Shape"></path>
            </g>
            <path d="M488.581,162.747 C498.374,166.491 512.009,168.817 524.162,168.817 C558.078,168.817 564.714,156.292 564.714,134.656 C564.714,123.01 564.472,115.59 559.708,110.006 C555.383,104.935 547.614,101.586 530.02,97.207 C518.714,94.376 512.171,92.631 509.196,89.684 C506.552,87.066 506.276,82.934 506.276,74.129 C506.276,60.753 509.452,56.588 529.305,56.588 C538.864,56.588 549.737,57.741 559.135,59.752 C559.274,59.782 559.414,59.796 559.554,59.796 C559.975,59.796 560.39,59.663 560.736,59.41 C561.196,59.073 561.491,58.556 561.546,57.988 L562.585,47.17 C562.681,46.185 562.04,45.279 561.081,45.039 C551.759,42.704 539.444,41.253 528.944,41.253 C495.893,41.253 489.121,54.175 489.121,73.577 C489.121,85.071 489.511,93.677 494.547,99.76 C499.549,105.801 508.667,108.805 522.728,111.954 C535.153,114.769 541.594,116.63 544.582,119.581 C547.291,122.258 547.56,126.142 547.56,135.027 C547.56,149.518 542.609,153.486 524.527,153.486 C513.915,153.486 502.643,151.798 491.931,148.604 C491.743,148.548 491.551,148.521 491.36,148.521 C491,148.521 490.642,148.619 490.328,148.808 C489.846,149.098 489.509,149.578 489.398,150.13 L487.333,160.487 C487.143,161.444 487.67,162.398 488.581,162.747 Z" id="Shape"></path>
            <path d="M652.716,108.535 C652.716,102.474 651.59,93.754 646.225,86.628 C640.01,78.373 629.725,74.188 615.656,74.188 C601.586,74.188 591.302,78.374 585.088,86.628 C579.724,93.754 578.598,102.474 578.598,108.535 L578.598,134.475 C578.598,140.535 579.724,149.254 585.088,156.378 C591.303,164.632 601.586,168.816 615.656,168.816 C629.725,168.816 640.01,164.631 646.225,156.378 C651.59,149.253 652.716,140.534 652.716,134.475 L652.716,108.535 Z M595.378,107.982 C595.378,95.367 602.2,88.971 615.655,88.971 C629.108,88.971 635.928,95.367 635.928,107.982 L635.928,135.027 C635.928,147.637 629.108,154.032 615.655,154.032 C602.2,154.032 595.378,147.638 595.378,135.027 L595.378,107.982 Z" id="Shape"></path>
            <path d="M942.833,74.206 C934.104,74.206 923.481,75.549 914.418,77.8 C913.429,78.046 912.782,78.996 912.918,80.007 L914.228,89.761 C914.301,90.307 914.597,90.799 915.045,91.12 C915.387,91.365 915.795,91.494 916.21,91.494 C916.338,91.494 916.467,91.482 916.594,91.457 C923.346,90.137 933.794,88.805 941.913,88.805 C957.721,88.805 960.717,93.87 960.717,103.217 L960.717,116.523 L937.502,116.523 C917.836,116.523 909.444,124.263 909.444,142.403 C909.444,159.695 917.877,168.836 933.829,168.836 C944.464,168.836 954.54,166.014 962.344,160.869 L962.957,165.275 C963.094,166.264 963.939,167 964.937,167 L975.503,167 C976.608,167 977.503,166.105 977.503,165 L977.503,103.954 C977.504,83.102 967.135,74.206 942.833,74.206 Z M960.717,130.752 L960.717,147.19 C953.783,151.608 945.406,154.24 938.24,154.24 C927.891,154.24 926.236,151.342 926.236,142.034 C926.236,133.494 929.242,130.753 938.606,130.753 L960.717,130.753 L960.717,130.752 Z" id="Shape"></path>
            <path d="M1080.078,74.188 C1068.393,74.188 1059.42,77.092 1053.406,82.818 C1047.366,88.57 1044.303,97.16 1044.303,108.35 L1044.303,135.212 C1044.303,158.139 1055.788,168.817 1080.447,168.817 C1091.06,168.817 1102.567,167.018 1111.227,164.005 C1112.146,163.686 1112.701,162.752 1112.543,161.793 L1110.936,151.988 C1110.845,151.434 1110.527,150.944 1110.056,150.638 C1109.728,150.423 1109.347,150.312 1108.962,150.312 C1108.796,150.312 1108.63,150.332 1108.468,150.374 C1098.462,152.927 1089.468,154.222 1081.736,154.222 C1065.723,154.222 1061.093,149.916 1061.093,135.028 L1061.093,128.161 L1112.38,128.161 C1113.484,128.161 1114.38,127.265 1114.38,126.161 L1114.38,108.72 C1114.381,85.483 1103.16,74.188 1080.078,74.188 Z M1080.078,88.421 C1093.082,88.421 1098.147,93.699 1098.147,107.247 L1098.147,113.934 L1061.093,113.934 L1061.093,107.247 C1061.094,94.227 1066.949,88.421 1080.078,88.421 Z" id="Shape"></path>
            <path d="M716.635,88.473 L717.656,78.243 C717.713,77.681 717.529,77.121 717.15,76.702 C716.77,76.283 716.232,76.044 715.667,76.044 L692.264,76.044 L692.264,61.632 C692.264,52.486 694.686,49.981 703.53,49.981 C706.794,49.981 712.169,50.539 716.905,51.37 C717.02,51.39 717.136,51.4 717.251,51.4 C717.682,51.4 718.105,51.261 718.453,50.998 C718.895,50.665 719.18,50.164 719.239,49.614 L720.258,40.176 C720.362,39.205 719.751,38.3 718.812,38.036 C713.418,36.519 707.597,35.75 701.511,35.75 C684.479,35.75 675.476,44.191 675.476,60.162 L675.476,76.044 L661.67,76.044 C660.566,76.044 659.67,76.939 659.67,78.044 L659.67,88.274 C659.67,89.378 660.566,90.274 661.67,90.274 L675.476,90.274 L675.476,164.997 C675.476,166.102 676.371,166.997 677.476,166.997 L690.265,166.997 C691.369,166.997 692.265,166.102 692.265,164.997 L692.265,90.274 L714.646,90.274 C715.672,90.274 716.532,89.495 716.635,88.473 Z" id="Shape"></path>
            <path d="M1034.809,75.029 C1034.507,74.862 1034.173,74.777 1033.837,74.777 C1033.564,74.777 1033.29,74.833 1033.032,74.946 C1025.372,78.315 1017.362,83.011 1010.864,87.93 L1010.126,77.896 C1010.05,76.851 1009.18,76.042 1008.132,76.042 L997.267,76.042 C996.163,76.042 995.267,76.937 995.267,78.042 L995.267,164.995 C995.267,166.1 996.163,166.995 997.267,166.995 L1010.06,166.995 C1011.165,166.995 1012.06,166.1 1012.06,164.995 L1012.06,104.85 C1017.31,101.183 1027.189,94.576 1036.359,90.069 C1037.136,89.687 1037.58,88.849 1037.457,87.992 L1035.818,76.496 C1035.729,75.875 1035.356,75.333 1034.809,75.029 Z" id="Shape"></path>
            <path d="M770.808,154.177 C770.714,153.629 770.398,153.145 769.933,152.839 C769.605,152.623 769.222,152.511 768.835,152.511 C768.675,152.511 768.516,152.53 768.358,152.569 C763.182,153.839 759.239,154.405 755.573,154.405 C747.46,154.405 747.065,151.059 747.065,145.146 L747.065,90.259 L769.255,90.259 C770.359,90.259 771.255,89.363 771.255,88.259 L771.255,78.029 C771.255,76.924 770.359,76.029 769.255,76.029 L747.065,76.029 L747.065,53.947 C747.065,53.368 746.813,52.816 746.376,52.436 C746.01,52.119 745.544,51.947 745.065,51.947 C744.971,51.947 744.877,51.954 744.782,51.967 L731.987,53.795 C731.001,53.936 730.269,54.78 730.269,55.775 L730.269,76.029 L706.469,76.029 C705.365,76.029 704.469,76.924 704.469,78.029 L704.469,88.259 C704.469,89.363 705.365,90.259 706.469,90.259 L730.269,90.259 L730.269,147.724 C730.269,155.163 732.08,160.433 735.805,163.834 C739.528,167.234 745.049,168.817 753.182,168.817 C759.118,168.817 765.474,167.763 771.08,165.85 C772.008,165.534 772.569,164.59 772.406,163.623 L770.808,154.177 Z" id="Shape"></path>
            <path d="M900.645,76.044 L888.663,76.044 C887.71,76.044 886.889,76.717 886.702,77.651 L872.572,148.218 L851.934,77.483 C851.685,76.629 850.903,76.043 850.014,76.043 L833.26,76.043 C832.371,76.043 831.589,76.629 831.34,77.483 L810.701,148.23 L796.576,77.651 C796.388,76.716 795.568,76.044 794.615,76.044 L782.63,76.044 C782.026,76.044 781.455,76.316 781.074,76.786 C780.695,77.255 780.548,77.871 780.674,78.461 L799.219,165.414 C799.416,166.337 800.233,166.997 801.176,166.997 L818.947,166.997 C819.84,166.997 820.625,166.405 820.871,165.546 L841.633,92.797 L862.403,165.546 C862.649,166.405 863.434,166.997 864.327,166.997 L882.102,166.997 C883.045,166.997 883.862,166.337 884.057,165.414 L902.601,78.461 C902.727,77.871 902.58,77.255 902.2,76.786 C901.819,76.316 901.248,76.044 900.645,76.044 Z" id="Shape"></path>
        </g>
    </g>
</svg>