<?xml version="1.0" encoding="UTF-8" standalone="no"?>
<svg width="499px" height="161px" viewBox="0 0 499 161" version="1.1" xmlns="http://www.w3.org/2000/svg" xmlns:xlink="http://www.w3.org/1999/xlink">
    <!-- Generator: Sketch 45.2 (43514) - http://www.bohemiancoding.com/sketch -->
    <title>logo-slack</title>
    <desc>Created with Sketch.</desc>
    <defs></defs>
    <g id="Page-1" stroke="none" stroke-width="1" fill="none" fill-rule="evenodd">
        <g id="logo-slack">
            <path d="M177.029762,58.5432464 C177.029762,43.7252464 187.833762,33.3782464 207.467762,33.3782464 C219.447762,33.3782464 229.250762,37.2032464 234.561762,40.9502464 C235.321762,41.4852464 236.677762,42.7832464 235.864762,45.1972464 C234.822762,47.7972464 232.911762,51.7072464 231.540762,54.2472464 C230.742762,55.7272464 228.704762,55.5322464 227.660762,55.0032464 C223.877762,53.0862464 217.672762,49.8432464 211.972762,49.2452464 C210.529393,49.0881021 209.077309,49.025302 207.625762,49.0572464 C202.605762,49.1692464 198.411762,50.9122464 196.934762,54.7422464 C196.645323,55.4669183 196.483925,56.2363488 196.457762,57.0162464 C196.319762,62.0632464 203.343762,63.8882464 211.852762,65.3502464 C227.671762,68.0602464 239.639762,72.6982464 239.639762,88.9802464 C239.639762,102.807246 228.650762,115.303246 207.119762,114.920246 C192.925762,114.633246 182.855762,109.837246 177.459762,105.183246 C177.275762,105.025246 175.221762,102.933246 176.322762,100.417246 C177.582762,97.1782464 179.709762,93.4662464 181.378762,91.4952464 C182.306762,90.2292464 184.755762,90.0282464 186.028762,90.8172464 C190.476762,93.5812464 197.796762,98.0132464 206.234762,98.3072464 C206.900762,98.3302464 207.560762,98.3342464 208.208762,98.3172464 C215.798762,98.1332464 220.390762,95.2552464 220.294762,90.4072464 C220.212762,86.1362464 214.194762,83.6412464 204.611762,81.8352464 C189.327762,78.9562464 177.031762,73.9182464 177.031762,58.5432464 L177.029762,58.5432464 Z M315.882762,79.6422464 C305.104762,79.7832464 295.222762,82.7292464 294.937762,91.1522464 C294.934762,97.8362464 300.356762,101.119246 307.966762,100.689246 C315.266762,99.9862464 320.833762,96.8202464 323.286762,92.6192464 C324.193762,91.0622464 324.331762,85.2362464 324.276762,82.7462464 C324.262762,82.2162464 323.214762,81.2132464 322.755762,81.0202464 C320.465762,80.0552464 318.770762,79.7572464 315.881762,79.6402464 L315.882762,79.6422464 Z M280.019762,45.7022464 C285.059762,41.1922464 295.052762,34.1722464 310.978762,34.5422464 C331.995762,34.9792464 343.098762,44.8322464 344.132762,68.4022464 C344.558762,78.1222464 343.852762,105.234246 343.684762,111.989246 C343.659762,112.958246 343.331762,113.628246 342.025762,113.653246 C338.564762,113.792246 330.568762,113.737246 326.894762,113.689246 C325.040762,113.599246 324.825762,112.679246 324.801762,111.716246 C324.785762,111.086246 324.731762,109.218246 324.692762,107.695246 C324.671762,106.887246 323.912762,106.910246 323.718762,107.117246 C318.788762,112.381246 310.714762,114.923246 302.128762,114.923246 C289.078762,114.923246 276.068762,107.246246 276.108762,92.0432464 C276.148762,76.4732464 287.188762,68.7932464 299.316762,66.9822464 C307.082762,65.8262464 315.836762,66.8542464 322.465762,69.4882464 C322.889762,69.6582464 323.755762,69.4122464 323.762762,68.8112464 C323.789762,66.8272464 323.693762,63.0462464 323.312762,61.2542464 C322.339762,56.6882464 318.530762,53.0142464 310.528762,52.0242464 C308.880762,51.8212464 307.221762,51.7542464 305.560762,51.8862464 C299.199762,52.3862464 291.544762,57.3462464 288.374762,59.2032464 C287.628762,59.6392464 286.460762,59.3202464 286.082762,58.8332464 C284.232762,56.4432464 279.582762,49.4532464 279.216762,48.3362464 C278.850762,47.2222464 279.366762,46.2842464 280.017762,45.6982464 L280.019762,45.7022464 L280.019762,45.7022464 Z M351.062762,74.6862464 C350.937762,52.9712464 366.067762,34.6522464 390.635762,34.4912464 C405.965762,34.3912464 417.102762,41.3412464 419.066762,44.6192464 C419.465762,45.3892464 419.260762,46.0322464 418.984762,46.8072464 C417.686762,49.5472464 414.408762,54.8412464 412.072762,57.8412464 C411.077762,59.1192464 409.997762,58.0242464 408.742762,57.1892464 C405.259762,54.8692464 398.641762,52.0322464 392.128762,52.0322464 C380.312762,52.0342464 371.513762,60.1362464 371.611762,75.0422464 C371.703762,89.3462464 380.131762,97.2072464 392.169762,97.4922464 C398.462762,97.6502464 404.559762,94.0332464 407.839762,91.0702464 C408.869762,90.1712464 409.935762,90.6212464 411.112762,91.5412464 C413.422762,93.9022464 416.735762,97.5472464 418.572762,100.056246 C419.775762,101.450246 418.875762,102.814246 418.442762,103.362246 C413.458762,109.669246 403.832762,114.977246 391.093762,115.049246 C364.419762,115.236246 351.187762,96.4812464 351.064762,74.6892464 L351.062762,74.6862464 Z M478.389762,114.070246 C479.641762,113.976246 493.002762,112.132246 497.103762,111.193246 C498.121762,110.961246 498.483762,110.105246 497.914762,109.257246 C495.624762,105.823246 489.603762,96.0712464 483.297762,87.3412464 C477.497762,79.3142464 471.384762,72.2542464 469.407762,69.5382464 C468.925762,68.8782464 468.951762,68.2282464 469.476762,67.7162464 C473.237762,64.0362464 488.969762,48.6112464 494.884762,42.2412464 C497.174762,39.7632464 495.799762,38.6972464 493.854762,38.1182464 C490.097762,36.9982464 484.020762,35.6022464 480.564762,34.8732464 C479.107762,34.5652464 477.352762,34.6732464 476.078762,35.9832464 C470.164762,41.4982464 452.115762,59.6132464 446.727762,65.0282464 C445.757762,66.0052464 445.192762,65.7882464 445.187762,64.3922464 C445.143762,53.9522464 444.937762,9.25424638 444.564762,1.90224638 C444.538762,0.930246379 443.369762,0.192246379 442.710762,0.157246379 C439.322762,-0.019753621 430.763762,-0.070753621 427.390762,0.127246379 C426.445762,0.234246379 425.542762,1.19724638 425.460762,2.01124638 C424.682762,13.7672464 425.790762,100.065246 426.252762,112.137246 C426.285762,113.010246 426.935762,113.687246 427.764762,113.736246 C431.129762,113.931246 439.452762,113.918246 443.338762,113.845246 C445.250762,113.845246 445.484762,112.501246 445.484762,112.501246 L445.772762,89.3442464 C445.772762,89.3442464 445.969762,88.3142464 446.288762,87.9742464 C447.658762,86.4992464 451.448762,82.4372464 453.064762,80.8672464 C453.452762,80.4902464 454.064762,80.5172464 454.460762,81.0502464 C456.380762,83.6402464 461.855762,92.0602464 466.930762,99.5802464 C471.593762,106.488246 475.946762,112.619246 476.250762,113.052246 C476.952762,114.052246 477.772762,114.092246 478.390762,114.073246 L478.390762,114.070246 L478.389762,114.070246 Z M251.156762,113.990246 C252.331762,114.029246 261.246762,114.019246 265.196762,114.014246 C266.526762,114.040246 267.217762,113.033246 267.261762,112.144246 C268.100762,95.2182464 267.741762,14.6322464 267.211762,1.90724638 C267.167762,0.807246379 266.696762,0.394246379 265.945762,0.294246379 C262.555762,-0.159753621 252.921762,-0.053753621 249.833762,0.754246379 C249.229762,0.911246379 248.873762,1.37024638 248.854762,1.96024638 C248.098762,34.7602464 248.608762,110.380246 248.768762,111.812246 C248.927762,113.246246 249.677762,113.940246 251.158762,113.990246 L251.156762,113.990246 L251.156762,113.990246 Z" id="Shape" fill="#443642" fill-rule="nonzero"></path>
            <path d="M12.997,80.78 C7.503,80.822 2.849,77.548 1.133,72.438 C1.06934068,72.2450139 1.0099926,72.0506322 0.955,71.855 C-0.915,65.311 2.711,58.465 9.21,56.273 L113.45,21.35 C114.68771,20.9919361 115.968584,20.8048686 117.257,20.794 C122.897,20.75 127.679,24.096 129.437,29.314 L129.593,29.818 C131.543,36.634 126.698,42.718 120.893,44.668 C120.889,44.671 119.833,45.028 17.231,80.059 C15.8672273,80.5239032 14.4377811,80.7673209 12.997,80.78 Z" id="Shape" fill="#70CADB" fill-rule="nonzero"></path>
            <path d="M30.372,132.045 C24.835,132.085 20.165,128.857 18.469,123.82 C18.404621,123.628389 18.3446055,123.435339 18.289,123.241 C16.393,116.619 20.015,109.701 26.536,107.506 L130.78,72.263 C132.127,71.813 133.518,71.583 134.917,71.57 C140.469,71.528 145.347,74.92 147.068,80.014 L147.228,80.544 C148.235,84.065 147.64,88.022 145.638,91.145 C144.146,93.467 139.44,95.511 139.44,95.511 L34.8,131.29 C33.3728695,131.773134 31.8785792,132.028594 30.372,132.047 L30.372,132.045 Z" id="Shape" fill="#E01765" fill-rule="nonzero"></path>
            <path d="M117.148,132.268 C111.604958,132.32123 106.657781,128.799873 104.893,123.545 L70.103,20.205 L69.929,19.625 C68.044,13.035 71.669,6.161 78.166,3.971 C79.466,3.534 80.81,3.306 82.163,3.294 C84.173,3.279 86.118,3.732 87.95,4.637 C90.9979467,6.14430489 93.3190236,8.80477948 94.399,12.029 L129.186,115.36 L129.287,115.692 C131.241,122.534 127.624,129.412 121.127,131.602 C119.843664,132.030745 118.501003,132.255477 117.148,132.268 L117.148,132.268 Z" id="Shape" fill="#E8A723" fill-rule="nonzero"></path>
            <path d="M65.435,149.674 C59.8887611,149.726832 54.9392454,146.202421 53.175,140.944 L18.394,37.608 C17.3055726,34.3882455 17.542685,30.8677652 19.0530391,27.8230446 C20.5633931,24.7783239 23.2229098,22.4594935 26.445,21.378 C27.7302395,20.9483589 29.0749118,20.7229533 30.43,20.71 C35.9739738,20.6552676 40.9225229,24.1770261 42.687,29.433 L77.469,132.773 C78.5579488,135.994311 78.3200577,139.516567 76.8078434,142.562196 C75.2956292,145.607826 72.6334472,147.926374 69.409,149.006 C68.1262581,149.435869 66.7838005,149.660962 65.431,149.673 L65.435,149.673 L65.435,149.674 Z" id="Shape" fill="#3EB890" fill-rule="nonzero"></path>
            <polygon id="Shape" fill="#CC2027" fill-rule="nonzero" points="99.997 108.996 124.255 100.702 116.325 77.152 92.039 85.359 99.997 108.996"></polygon>
            <polygon id="Shape" fill="#361238" fill-rule="nonzero" points="48.364 126.65 72.62 118.357 64.63 94.627 40.35 102.837 48.364 126.65"></polygon>
            <polygon id="Shape" fill="#65863A" fill-rule="nonzero" points="82.727 57.7 106.987 49.417 99.15 26.142 74.845 34.285"></polygon>
            <polygon id="Shape" fill="#1A937D" fill-rule="nonzero" points="31.088 75.33 55.348 67.047 47.415 43.475 23.11 51.617 31.088 75.33"></polygon>
            <path d="M178.597656,160 L182.835938,160 L182.835938,149.11377 C182.835938,146.362305 184.425293,144.619141 186.95459,144.619141 C189.535156,144.619141 190.731445,146.054688 190.731445,148.908691 L190.731445,160 L194.969727,160 L194.969727,147.900391 C194.969727,143.439941 192.696777,140.927734 188.526855,140.927734 C185.741211,140.927734 183.861328,142.209473 182.972656,144.294434 L182.682129,144.294434 L182.682129,141.303711 L178.597656,141.303711 L178.597656,160 Z M208.060547,156.821289 C211.01709,156.821289 212.691895,154.56543 212.691895,150.651855 C212.691895,146.755371 211,144.482422 208.060547,144.482422 C205.104004,144.482422 203.412109,146.755371 203.412109,150.651855 C203.412109,154.56543 205.104004,156.821289 208.060547,156.821289 Z M208.060547,160.375977 C202.455078,160.375977 199.071289,156.71875 199.071289,150.651855 C199.071289,144.619141 202.506348,140.927734 208.060547,140.927734 C213.631836,140.927734 217.049805,144.602051 217.049805,150.651855 C217.049805,156.71875 213.648926,160.375977 208.060547,160.375977 Z M222.672363,136.723633 L222.672363,141.42334 L219.71582,141.42334 L219.71582,144.807129 L222.672363,144.807129 L222.672363,155.009766 C222.672363,158.632812 224.381348,160.085449 228.670898,160.085449 C229.491211,160.085449 230.277344,160 230.892578,159.880371 L230.892578,156.564941 C230.379883,156.616211 230.055176,156.650391 229.457031,156.650391 C227.679688,156.650391 226.893555,155.830078 226.893555,153.984375 L226.893555,144.807129 L230.892578,144.807129 L230.892578,141.42334 L226.893555,141.42334 L226.893555,136.723633 L222.672363,136.723633 Z M235.182129,160 L239.40332,160 L239.40332,141.303711 L235.182129,141.303711 L235.182129,160 Z M237.28418,138.261719 C238.839355,138.261719 239.898926,137.270508 239.898926,135.92041 C239.898926,134.570312 238.839355,133.579102 237.28418,133.579102 C235.746094,133.579102 234.669434,134.570312 234.669434,135.92041 C234.669434,137.270508 235.746094,138.261719 237.28418,138.261719 Z M246.01709,160 L250.238281,160 L250.238281,144.807129 L254.254395,144.807129 L254.254395,141.42334 L250.187012,141.42334 L250.187012,139.919434 C250.187012,138.193359 251.041504,137.441406 252.801758,137.441406 C253.434082,137.441406 254.066406,137.509766 254.425293,137.578125 L254.425293,134.416504 C253.69043,134.296875 253.126465,134.228516 252.289062,134.228516 C248.17041,134.228516 246.01709,135.800781 246.01709,139.594727 L246.01709,141.42334 L242.958008,141.42334 L242.958008,144.807129 L246.01709,144.807129 L246.01709,160 Z M258.390137,160 L262.611328,160 L262.611328,141.303711 L258.390137,141.303711 L258.390137,160 Z M260.492188,138.261719 C262.047363,138.261719 263.106934,137.270508 263.106934,135.92041 C263.106934,134.570312 262.047363,133.579102 260.492188,133.579102 C258.954102,133.579102 257.877441,134.570312 257.877441,135.92041 C257.877441,137.270508 258.954102,138.261719 260.492188,138.261719 Z M284.007812,147.592773 C283.563477,143.662109 280.658203,140.927734 275.855957,140.927734 C270.233398,140.927734 266.935059,144.533691 266.935059,150.600586 C266.935059,156.75293 270.250488,160.375977 275.873047,160.375977 C280.606934,160.375977 283.546387,157.744141 284.007812,153.830566 L279.974609,153.830566 C279.530273,155.778809 278.060547,156.821289 275.855957,156.821289 C272.967773,156.821289 271.224609,154.53125 271.224609,150.600586 C271.224609,146.721191 272.950684,144.482422 275.855957,144.482422 C278.180176,144.482422 279.581543,145.78125 279.974609,147.592773 L284.007812,147.592773 Z M294.449707,156.975098 C297.013184,156.975098 298.927246,155.317383 298.927246,153.146973 L298.927246,151.660156 L294.706055,151.933594 C292.330566,152.087402 291.219727,152.941895 291.219727,154.462891 C291.219727,156.035156 292.569824,156.975098 294.449707,156.975098 Z M293.202148,160.307617 C289.596191,160.307617 287.015625,158.120117 287.015625,154.702148 C287.015625,151.318359 289.562012,149.370117 294.10791,149.09668 L298.927246,148.806152 L298.927246,147.233887 C298.927246,145.405273 297.696777,144.379883 295.406738,144.379883 C293.458496,144.379883 292.125488,145.063477 291.732422,146.328125 L287.733398,146.328125 C288.075195,143.029785 291.168457,140.927734 295.611816,140.927734 C300.414062,140.927734 303.114258,143.269043 303.114258,147.233887 L303.114258,160 L299.029785,160 L299.029785,157.436523 L298.739258,157.436523 C297.696777,159.248047 295.645996,160.307617 293.202148,160.307617 Z M309.557129,136.723633 L309.557129,141.42334 L306.600586,141.42334 L306.600586,144.807129 L309.557129,144.807129 L309.557129,155.009766 C309.557129,158.632812 311.266113,160.085449 315.555664,160.085449 C316.375977,160.085449 317.162109,160 317.777344,159.880371 L317.777344,156.564941 C317.264648,156.616211 316.939941,156.650391 316.341797,156.650391 C314.564453,156.650391 313.77832,155.830078 313.77832,153.984375 L313.77832,144.807129 L317.777344,144.807129 L317.777344,141.42334 L313.77832,141.42334 L313.77832,136.723633 L309.557129,136.723633 Z M322.066895,160 L326.288086,160 L326.288086,141.303711 L322.066895,141.303711 L322.066895,160 Z M324.168945,138.261719 C325.724121,138.261719 326.783691,137.270508 326.783691,135.92041 C326.783691,134.570312 325.724121,133.579102 324.168945,133.579102 C322.630859,133.579102 321.554199,134.570312 321.554199,135.92041 C321.554199,137.270508 322.630859,138.261719 324.168945,138.261719 Z M339.601074,156.821289 C342.557617,156.821289 344.232422,154.56543 344.232422,150.651855 C344.232422,146.755371 342.540527,144.482422 339.601074,144.482422 C336.644531,144.482422 334.952637,146.755371 334.952637,150.651855 C334.952637,154.56543 336.644531,156.821289 339.601074,156.821289 Z M339.601074,160.375977 C333.995605,160.375977 330.611816,156.71875 330.611816,150.651855 C330.611816,144.619141 334.046875,140.927734 339.601074,140.927734 C345.172363,140.927734 348.590332,144.602051 348.590332,150.651855 C348.590332,156.71875 345.189453,160.375977 339.601074,160.375977 Z M352.862793,160 L357.101074,160 L357.101074,149.11377 C357.101074,146.362305 358.69043,144.619141 361.219727,144.619141 C363.800293,144.619141 364.996582,146.054688 364.996582,148.908691 L364.996582,160 L369.234863,160 L369.234863,147.900391 C369.234863,143.439941 366.961914,140.927734 362.791992,140.927734 C360.006348,140.927734 358.126465,142.209473 357.237793,144.294434 L356.947266,144.294434 L356.947266,141.303711 L352.862793,141.303711 L352.862793,160 Z M373.832031,146.652832 C373.832031,149.472656 375.523926,151.130371 379.112793,151.950684 L382.428223,152.719727 C384.205566,153.112793 385.008789,153.779297 385.008789,154.838867 C385.008789,156.223145 383.521973,157.163086 381.385742,157.163086 C379.266602,157.163086 377.950684,156.342773 377.540527,154.958496 L373.353516,154.958496 C373.678223,158.359375 376.617676,160.375977 381.283203,160.375977 C385.94873,160.375977 389.24707,157.983398 389.24707,154.394531 C389.24707,151.643066 387.589355,150.10498 384.017578,149.301758 L380.719238,148.549805 C378.839355,148.122559 377.950684,147.473145 377.950684,146.413574 C377.950684,145.063477 379.40332,144.140625 381.334473,144.140625 C383.316895,144.140625 384.564453,144.978027 384.87207,146.293945 L388.854004,146.293945 C388.546387,142.893066 385.760742,140.927734 381.317383,140.927734 C376.908203,140.927734 373.832031,143.269043 373.832031,146.652832 Z" id="notifications" fill="#333333"></path>
        </g>
    </g>
</svg>