<?xml version="1.0" encoding="UTF-8" standalone="no"?>
<svg width="936px" height="162px" viewBox="0 0 936 162" version="1.1" xmlns="http://www.w3.org/2000/svg" xmlns:xlink="http://www.w3.org/1999/xlink">
    <!-- Generator: Sketch 45.2 (43514) - http://www.bohemiancoding.com/sketch -->
    <title>Group</title>
    <desc>Created with Sketch.</desc>
    <defs></defs>
    <g id="Page-1" stroke="none" stroke-width="1" fill="none" fill-rule="evenodd">
        <g id="Group" transform="translate(1.000000, 1.000000)" fill-rule="nonzero">
            <g id="logo-kubernetes" transform="translate(216.000000, 27.000000)" fill="#326DE5">
                <path d="M20.1150002,59.4 C22.0949682,57.24005 24.1199662,54.99005 26.1900002,52.65 C28.3499622,50.31005 30.4199602,48.01506 32.4000002,45.765 C34.3799562,43.42506 36.2249542,41.22006 37.9350002,39.15 C39.7349512,37.08007 41.2649492,35.28007 42.5250002,33.75 L66.4200002,33.75 C61.6499292,39.24006 56.9699332,44.50506 52.3800002,49.545 C47.8799432,54.49505 42.9299472,59.62504 37.5300002,64.935 C40.2299502,67.36504 43.0199472,70.29003 45.9000002,73.71 C48.7799422,77.04003 51.5699392,80.50502 54.2700002,84.105 C56.9699332,87.70502 59.4449312,91.30501 61.6950002,94.905 C63.9449262,98.50501 65.8349252,101.79 67.3650002,104.76 L44.2800002,104.76 C42.8399482,102.42 41.1749492,99.855 39.2850002,97.065 C37.4849532,94.18501 35.5499552,91.35001 33.4800002,88.56 C31.4099592,85.68002 29.2049612,82.93502 26.8650002,80.325 C24.6149662,77.71503 22.3649682,75.51003 20.1150002,73.71 L20.1150002,104.76 L1.99999981e-07,104.76 L1.99999981e-07,3.24 L20.1150002,0 L20.1150002,59.4" id="path2985"></path>
                <path d="M137.343519,102.33 C133.923449,103.32 129.513449,104.22 124.113519,105.03 C118.713469,105.93 113.043469,106.38 107.103519,106.38 C101.073479,106.38 96.0334892,105.57 91.9835192,103.95 C88.0234992,102.33 84.8734992,100.08 82.5335152,97.2 C80.1935032,94.23001 78.5285042,90.72001 77.5385152,86.67 C76.5485062,82.62002 76.0535072,78.16503 76.0535152,73.305 L76.0535152,33.75 L96.1685192,33.75 L96.1685192,70.875 C96.1684892,77.35503 97.0234892,82.03502 98.7335192,84.915 C100.443479,87.79502 103.638479,89.23501 108.318519,89.235 C109.758469,89.23501 111.288469,89.19 112.908519,89.1 C114.528469,88.92001 115.968469,88.74001 117.228519,88.56 L117.228519,33.75 L137.343519,33.75 L137.343519,102.33" id="path2987"></path>
                <path d="M201.852419,68.715 C201.852369,55.75505 197.082369,49.27505 187.542419,49.275 C185.472379,49.27505 183.402389,49.54505 181.332419,50.085 C179.352389,50.62505 177.732389,51.30005 176.472419,52.11 L176.472419,88.695 C177.462389,88.87501 178.722389,89.05501 180.252419,89.235 C181.782389,89.325 183.447389,89.37001 185.247419,89.37 C190.737379,89.37001 194.877369,87.48002 197.667419,83.7 C200.457369,79.92002 201.852369,74.92503 201.852419,68.715 M222.372419,69.255 C222.372349,74.92503 221.517349,80.05502 219.807419,84.645 C218.187349,89.23501 215.802349,93.15001 212.652419,96.39 C209.502359,99.63 205.632359,102.15 201.042419,103.95 C196.452369,105.66 191.232379,106.515 185.382419,106.515 C182.952389,106.515 180.387389,106.38 177.687419,106.11 C175.077389,105.93 172.467399,105.66 169.857419,105.3 C167.337399,104.94 164.907399,104.535 162.567419,104.085 C160.227409,103.545 158.157409,103.005 156.357419,102.465 L156.357419,3.24 L176.472419,-5.68434189e-14 L176.472419,35.37 C178.722389,34.38007 181.062389,33.61507 183.492419,33.075 C185.922379,32.53507 188.532379,32.26507 191.322419,32.265 C196.362369,32.26507 200.817369,33.16507 204.687419,34.965 C208.557359,36.67507 211.797359,39.15006 214.407419,42.39 C217.017349,45.63006 218.997349,49.54505 220.347419,54.135 C221.697349,58.63504 222.372349,63.67504 222.372419,69.255" id="path2989"></path>
                <path d="M234.457029,69.795 C234.457029,63.49504 235.402029,58.00505 237.292029,53.325 C239.272019,48.55506 241.837019,44.59506 244.987029,41.445 C248.137009,38.29507 251.737009,35.91007 255.787029,34.29 C259.926999,32.67007 264.156999,31.86007 268.477029,31.86 C278.556979,31.86007 286.521969,34.96507 292.372029,41.175 C298.221959,47.29506 301.146959,56.34005 301.147029,68.31 C301.146959,69.48003 301.101929,70.78503 301.012029,72.225 C300.921929,73.57503 300.831959,74.79003 300.742029,75.87 L255.112029,75.87 C255.561999,80.01002 257.496999,83.29502 260.917029,85.725 C264.336999,88.15502 268.926989,89.37001 274.687029,89.37 C278.376979,89.37001 281.976979,89.05501 285.487029,88.425 C289.086969,87.70502 292.011969,86.85002 294.262029,85.86 L296.962029,102.195 C295.881959,102.735 294.441969,103.275 292.642029,103.815 C290.841969,104.355 288.816969,104.805 286.567029,105.165 C284.406979,105.615 282.066979,105.975 279.547029,106.245 C277.026979,106.515 274.506989,106.65 271.987029,106.65 C265.596989,106.65 260.016999,105.705 255.247029,103.815 C250.567009,101.925 246.652009,99.36 243.502029,96.12 C240.442019,92.79001 238.147019,88.87501 236.617029,84.375 C235.177029,79.87502 234.457029,75.01503 234.457029,69.795 M281.707029,62.1 C281.617029,60.39004 281.301979,58.72504 280.762029,57.105 C280.311979,55.48505 279.546979,54.04505 278.467029,52.785 C277.476979,51.52505 276.171979,50.49005 274.552029,49.68 C273.021989,48.87005 271.086989,48.46506 268.747029,48.465 C266.496989,48.46506 264.561999,48.87005 262.942029,49.68 C261.321999,50.40005 259.971999,51.39005 258.892029,52.65 C257.811999,53.91005 256.956999,55.39505 256.327029,57.105 C255.786999,58.72504 255.382009,60.39004 255.112029,62.1 L281.707029,62.1" id="path2991"></path>
                <path d="M359.464919,51.57 C357.664869,51.12005 355.549869,50.67005 353.119919,50.22 C350.689879,49.68005 348.079879,49.41005 345.289919,49.41 C344.029889,49.41005 342.499889,49.54505 340.699919,49.815 C338.989889,49.99505 337.684889,50.22005 336.784919,50.49 L336.784919,104.76 L316.669919,104.76 L316.669919,37.53 C320.269909,36.27007 324.499909,35.10007 329.359919,34.02 C334.309899,32.85007 339.799889,32.26507 345.829919,32.265 C346.909879,32.26507 348.214879,32.3551 349.744919,32.535 C351.274879,32.6251 352.804879,32.80507 354.334919,33.075 C355.864869,33.25507 357.394869,33.52507 358.924919,33.885 C360.454869,34.15507 361.759869,34.51507 362.839919,34.965 L359.464919,51.57" id="path2993"></path>
                <path d="M373.623049,36.18 C377.043029,35.19007 381.453029,34.29007 386.853049,33.48 C392.253019,32.58007 397.923009,32.13007 403.863049,32.13 C409.892999,32.13007 414.887999,32.94007 418.848049,34.56 C422.897989,36.09007 426.092989,38.29507 428.433049,41.175 C430.772979,44.05506 432.437979,47.47506 433.428049,51.435 C434.417979,55.39505 434.912979,59.80504 434.913049,64.665 L434.913049,104.76 L414.798049,104.76 L414.798049,67.095 C414.797999,60.61504 413.942999,56.02505 412.233049,53.325 C410.522999,50.62505 407.327999,49.27505 402.648049,49.275 C401.208009,49.27505 399.678009,49.3651 398.058049,49.545 C396.438019,49.635 394.998019,49.77005 393.738049,49.95 L393.738049,104.76 L373.623049,104.76 L373.623049,36.18" id="path2995"></path>
                <path d="M449.876949,69.795 C449.876949,63.49504 450.821949,58.00505 452.711949,53.325 C454.691939,48.55506 457.256939,44.59506 460.406949,41.445 C463.556929,38.29507 467.156929,35.91007 471.206949,34.29 C475.346919,32.67007 479.576919,31.86007 483.896949,31.86 C493.976899,31.86007 501.941899,34.96507 507.791949,41.175 C513.641879,47.29506 516.566879,56.34005 516.566949,68.31 C516.566879,69.48003 516.521849,70.78503 516.431949,72.225 C516.341849,73.57503 516.251879,74.79003 516.161949,75.87 L470.531949,75.87 C470.981929,80.01002 472.916919,83.29502 476.336949,85.725 C479.756919,88.15502 484.346909,89.37001 490.106949,89.37 C493.796899,89.37001 497.396899,89.05501 500.906949,88.425 C504.506889,87.70502 507.431889,86.85002 509.681949,85.86 L512.381949,102.195 C511.301889,102.735 509.861889,103.275 508.061949,103.815 C506.261889,104.355 504.236889,104.805 501.986949,105.165 C499.826899,105.615 497.486899,105.975 494.966949,106.245 C492.446909,106.515 489.926909,106.65 487.406949,106.65 C481.016919,106.65 475.436919,105.705 470.666949,103.815 C465.986929,101.925 462.071939,99.36 458.921949,96.12 C455.861939,92.79001 453.566939,88.87501 452.036949,84.375 C450.596949,79.87502 449.876949,75.01503 449.876949,69.795 M497.126949,62.1 C497.036849,60.39004 496.721899,58.72504 496.181949,57.105 C495.731899,55.48505 494.966899,54.04505 493.886949,52.785 C492.896899,51.52505 491.591909,50.49005 489.971949,49.68 C488.441909,48.87005 486.506909,48.46506 484.166949,48.465 C481.916919,48.46506 479.981919,48.87005 478.361949,49.68 C476.741919,50.40005 475.391919,51.39005 474.311949,52.65 C473.231919,53.91005 472.376929,55.39505 471.746949,57.105 C471.206929,58.72504 470.801929,60.39004 470.531949,62.1 L497.126949,62.1" id="path2997"></path>
                <path d="M531.414839,16.065 L551.529839,12.825 L551.529839,33.75 L575.694839,33.75 L575.694839,50.49 L551.529839,50.49 L551.529839,75.465 C551.529819,79.69502 552.249809,83.07002 553.689839,85.59 C555.219809,88.11002 558.234809,89.37001 562.734839,89.37 C564.894799,89.37001 567.099799,89.19001 569.349839,88.83 C571.689799,88.38002 573.804789,87.79502 575.694839,87.075 L578.529839,102.735 C576.099789,103.725 573.399789,104.58 570.429839,105.3 C567.459799,106.02 563.814799,106.38 559.494839,106.38 C554.004809,106.38 549.459819,105.66 545.859839,104.22 C542.259819,102.69 539.379829,100.62 537.219839,98.01 C535.059829,95.31001 533.529829,92.07001 532.629839,88.29 C531.819839,84.51002 531.414839,80.32502 531.414839,75.735 L531.414839,16.065" id="path2999"></path>
                <path d="M585.931639,69.795 C585.931639,63.49504 586.876629,58.00505 588.766639,53.325 C590.746629,48.55506 593.311629,44.59506 596.461639,41.445 C599.611619,38.29507 603.211619,35.91007 607.261639,34.29 C611.401609,32.67007 615.631609,31.86007 619.951639,31.86 C630.031589,31.86007 637.996579,34.96507 643.846639,41.175 C649.696569,47.29506 652.621569,56.34005 652.621639,68.31 C652.621569,69.48003 652.576539,70.78503 652.486639,72.225 C652.396539,73.57503 652.306569,74.79003 652.216639,75.87 L606.586639,75.87 C607.036609,80.01002 608.971609,83.29502 612.391639,85.725 C615.811609,88.15502 620.401599,89.37001 626.161639,89.37 C629.851589,89.37001 633.451589,89.05501 636.961639,88.425 C640.561579,87.70502 643.486579,86.85002 645.736639,85.86 L648.436639,102.195 C647.356569,102.735 645.916579,103.275 644.116639,103.815 C642.316579,104.355 640.291579,104.805 638.041639,105.165 C635.881589,105.615 633.541589,105.975 631.021639,106.245 C628.501589,106.515 625.981599,106.65 623.461639,106.65 C617.071599,106.65 611.491609,105.705 606.721639,103.815 C602.041619,101.925 598.126619,99.36 594.976639,96.12 C591.916629,92.79001 589.621629,88.87501 588.091639,84.375 C586.651629,79.87502 585.931639,75.01503 585.931639,69.795 M633.181639,62.1 C633.091639,60.39004 632.776589,58.72504 632.236639,57.105 C631.786589,55.48505 631.021589,54.04505 629.941639,52.785 C628.951589,51.52505 627.646589,50.49005 626.026639,49.68 C624.496599,48.87005 622.561599,48.46506 620.221639,48.465 C617.971599,48.46506 616.036609,48.87005 614.416639,49.68 C612.796609,50.40005 611.446609,51.39005 610.366639,52.65 C609.286609,53.91005 608.431609,55.39505 607.801639,57.105 C607.261609,58.72504 606.856609,60.39004 606.586639,62.1 L633.181639,62.1" id="path3001"></path>
                <path d="M688.529529,90.315 C692.219499,90.31501 694.829499,89.95501 696.359529,89.235 C697.889489,88.51502 698.654489,87.12002 698.654529,85.05 C698.654489,83.43002 697.664489,82.03502 695.684529,80.865 C693.704499,79.60502 690.689499,78.21003 686.639529,76.68 C683.489509,75.51003 680.609509,74.29503 677.999529,73.035 C675.479519,71.77503 673.319519,70.29003 671.519529,68.58 C669.719519,66.78004 668.324519,64.66504 667.334529,62.235 C666.344519,59.80504 665.849519,56.88005 665.849529,53.46 C665.849519,46.80006 668.324519,41.53506 673.274529,37.665 C678.224509,33.79507 685.019509,31.86007 693.659529,31.86 C697.979489,31.86007 702.119489,32.26507 706.079529,33.075 C710.039479,33.79507 713.189479,34.60507 715.529529,35.505 L712.019529,51.165 C709.679479,50.35505 707.114479,49.63505 704.324529,49.005 C701.624489,48.37506 698.564489,48.06006 695.144529,48.06 C688.844499,48.06006 685.694509,49.81505 685.694529,53.325 C685.694509,54.13505 685.829499,54.85505 686.099529,55.485 C686.369499,56.11505 686.909499,56.74505 687.719529,57.375 C688.529499,57.91505 689.609499,58.54505 690.959529,59.265 C692.399499,59.89504 694.199499,60.61504 696.359529,61.425 C700.769489,63.04504 704.414489,64.66504 707.294529,66.285 C710.174479,67.81504 712.424479,69.52503 714.044529,71.415 C715.754479,73.21503 716.924469,75.24003 717.554529,77.49 C718.274469,79.74002 718.634469,82.35002 718.634529,85.32 C718.634469,92.34001 715.979469,97.65001 710.669529,101.25 C705.449489,104.85 698.024489,106.65 688.394529,106.65 C682.094509,106.65 676.829509,106.11 672.599529,105.03 C668.459519,103.95 665.579529,103.05 663.959529,102.33 L667.334529,85.995 C670.754519,87.34502 674.264519,88.42502 677.864529,89.235 C681.464509,89.95501 685.019509,90.31501 688.529529,90.315" id="path3003"></path>
            </g>
            <g id="kubernetes" stroke="#FFFFFF">
                <path d="M82.0612927,0.0141320224 C80.6002664,0.0877312282 79.1687708,0.44997707 77.8507848,1.07961832 L20.3953548,28.5324238 C17.3829664,29.9710526 15.194969,32.6918504 14.4506761,35.9246942 L0.276034326,97.5906321 C-0.385245807,100.461099 0.152822431,103.474811 1.76771514,105.945514 C1.96153148,106.244473 2.16997914,106.533847 2.39231055,106.8126 L42.160668,156.258512 C44.2458959,158.850317 47.4074989,160.359448 50.750692,160.358797 L114.525558,160.344101 C117.867501,160.346536 121.028881,158.840216 123.115582,156.251164 L162.869243,106.797903 C164.955587,104.204799 165.737273,100.810276 164.992867,97.5759357 L150.796181,35.9099979 C150.051888,32.677154 147.863891,29.9563563 144.851502,28.5177275 L87.3887242,1.07961832 C85.7308963,0.287579571 83.8990456,-0.0787905601 82.0612927,0.0141320224 Z" id="path3055" fill="#326CE5"></path>
                <path d="M82.6306086,20.9998607 C80.7313777,21.0000535 79.191434,22.7107313 79.1916597,24.820915 C79.1916621,24.8533011 79.1982907,24.8842481 79.1989962,24.9164414 C79.196198,25.2031639 79.1823481,25.5485872 79.1916597,25.7982231 C79.2369528,27.0153171 79.5022585,27.946829 79.6619433,29.0681638 C79.9512336,31.4681763 80.1936389,33.4576405 80.0440488,35.3067698 C79.8985689,36.0040593 79.3849745,36.6417662 78.9271252,37.0850297 L78.8462952,38.5399696 C76.7824979,38.7109577 74.7048955,39.0240654 72.6297338,39.4952332 C63.7003155,41.5226681 56.0122438,46.1222511 50.1589952,52.332506 C49.7791895,52.0733962 49.1147234,51.5967144 48.9171408,51.4507242 C48.3031456,51.5336399 47.682597,51.7230866 46.8743464,51.2523233 C45.3353645,50.2163755 43.9336936,48.7864077 42.237644,47.06386 C41.460505,46.2398784 40.8977308,45.4552525 39.9744042,44.6610047 C39.7647235,44.4806344 39.4447284,44.2366795 39.2101933,44.0511056 C38.4883362,43.4755796 37.63693,43.1754328 36.8146862,43.1472793 C35.7575145,43.1110816 34.739809,43.5244115 34.0738145,44.3597292 C32.8898262,45.8447391 33.2688959,48.1144853 34.9188554,49.4299743 C34.9355975,49.4433069 34.9534259,49.4536719 34.9702927,49.4667153 C35.1970211,49.6505068 35.4746624,49.8860037 35.6830662,50.0398734 C36.6628716,50.7632989 37.5578989,51.1336237 38.5341606,51.7079106 C40.590946,52.9781019 42.2960462,54.0313138 43.6484948,55.3011712 C44.176628,55.8641407 44.2689353,56.8561452 44.3392239,57.2851802 L45.4414511,58.2698365 C39.540939,67.1496563 36.8101338,78.1180291 38.4239496,89.2938581 L36.9837061,89.7127045 C36.6041167,90.2028834 36.0677324,90.9741791 35.5067099,91.2043853 C33.7372373,91.7617207 31.7457955,91.9663835 29.3415857,92.2184343 C28.2128322,92.3122912 27.2389054,92.2562804 26.0422523,92.4829688 C25.7788747,92.5328612 25.411903,92.6284675 25.1237297,92.6960661 C25.1137126,92.6981824 25.104354,92.7011452 25.0943369,92.7034025 C25.0786295,92.7070472 25.0579934,92.7146658 25.0428997,92.7180989 C23.0159444,93.2078499 21.7138232,95.0709278 22.1330198,96.9065623 C22.5523153,98.742627 24.5322046,99.8591838 26.5713214,99.4196403 C26.5860413,99.4162777 26.6074156,99.4157134 26.6227586,99.4123038 C26.645779,99.4070367 26.6660459,99.3958674 26.6888923,99.3902711 C26.9731435,99.3278738 27.3293645,99.2584506 27.5780222,99.1918702 C28.7545166,98.8768671 29.6065764,98.4140305 30.6642584,98.008813 C32.9397115,97.1926899 34.8243237,96.5109079 36.6603744,96.2452494 C37.4272141,96.1851895 38.2351449,96.7183924 38.6370351,96.9433267 L40.1360641,96.6861403 C43.5856367,107.381053 50.8148316,116.025383 59.9688056,121.449511 L59.3442102,122.94854 C59.5693396,123.530615 59.817647,124.318171 59.6499462,124.893003 C58.9824539,126.623929 57.8391263,128.450927 56.5372049,130.487775 C55.906825,131.428793 55.2616711,132.159071 54.6928114,133.235994 C54.5566878,133.493684 54.3833224,133.889529 54.2519205,134.161865 C53.3680601,136.05296 54.0163931,138.231041 55.7142086,139.048406 C57.4226901,139.870904 59.5433682,139.003414 60.4611337,137.108486 C60.4625446,137.105805 60.4671769,137.10383 60.4684702,137.101149 C60.4694107,137.099033 60.4675296,137.095859 60.4684702,137.093813 C60.5991925,136.825152 60.7843902,136.472011 60.8946647,136.219379 C61.3819091,135.103157 61.5440346,134.14659 61.8866692,133.06701 C62.7965786,130.781398 63.2965018,128.383213 64.549081,126.888868 C64.8920777,126.479667 65.4512755,126.322294 66.0310434,126.167067 L66.8099507,124.756217 C74.7902496,127.819362 83.7229152,128.641338 92.6461563,126.615306 C94.6817718,126.153119 96.6469624,125.554946 98.5467459,124.837047 C98.7656582,125.225343 99.1724888,125.97177 99.281564,126.159719 C99.870733,126.351402 100.513811,126.450387 101.037779,127.225206 C101.974911,128.826281 102.615792,130.720391 103.396546,133.008224 C103.739237,134.087786 103.908595,135.044395 104.395898,136.160594 C104.506965,136.415006 104.691236,136.773105 104.822093,137.042376 C105.737928,138.94346 107.865326,139.813915 109.576366,138.989644 C111.273972,138.171844 111.92302,135.993961 111.038654,134.103103 C110.907236,133.830776 110.72655,133.434915 110.590415,133.177232 C110.021499,132.100339 109.376449,131.377344 108.746022,130.436361 C107.443992,128.399581 106.36411,126.707553 105.696526,124.976662 C105.417387,124.08393 105.743621,123.52872 105.961061,122.948564 C105.830844,122.799303 105.552194,121.956244 105.387903,121.559758 C114.901129,115.942653 121.918033,106.97596 125.213296,96.6200302 C125.658278,96.6899661 126.431693,96.8268045 126.682932,96.8772166 C127.200136,96.5360963 127.675687,96.0910152 128.608156,96.164443 C130.444218,96.4300051 132.328776,97.1120009 134.604272,97.9280065 C135.661975,98.3331699 136.513999,98.80347 137.690508,99.1184119 C137.939168,99.1849782 138.295382,99.2470815 138.579638,99.3094646 C138.602494,99.315061 138.622739,99.3262537 138.645771,99.3314974 C138.661126,99.3349304 138.682489,99.3354713 138.697209,99.3388338 C140.736443,99.7778318 142.716685,98.6619287 143.13551,96.8257558 C143.554237,94.9900131 142.252717,93.1265026 140.22563,92.6372924 C139.930779,92.5702464 139.512622,92.456379 139.226278,92.4021506 C138.029613,92.1755256 137.055703,92.2314141 135.926944,92.1376161 C133.522723,91.8856898 131.531321,91.6808084 129.76182,91.123567 C129.040344,90.8436825 128.527084,89.9851891 128.277476,89.6318862 L126.88867,89.2277363 C127.608735,84.018306 127.414576,78.5966603 126.168548,73.17196 C124.910918,67.6967513 122.688362,62.6891409 119.724193,58.2771964 C120.080444,57.953338 120.753218,57.357578 120.943991,57.1823174 C120.999757,56.5652654 120.951845,55.9183056 121.590631,55.2350494 C122.943011,53.9651214 124.648248,52.9120882 126.704965,51.6417887 C127.681196,51.0674501 128.58364,50.6972288 129.563408,49.9737515 C129.78497,49.8101493 130.087515,49.551063 130.32027,49.3638525 C131.969879,48.0479213 132.34968,45.7783115 131.165311,44.2936073 C129.980942,42.8089032 127.68589,42.6690526 126.036281,43.9849837 C125.801477,44.1709456 125.482867,44.4135344 125.27207,44.5948828 C124.348785,45.3891824 123.778578,46.1737166 123.001482,46.9977381 C121.305524,48.7203752 119.903707,50.1575195 118.364779,51.1935496 C117.697915,51.5817829 116.721147,51.447451 116.277884,51.4213432 L114.969908,52.3545623 C107.511492,44.5336119 97.3566909,39.5333473 86.4222702,38.5620141 C86.3916876,38.1037886 86.3516218,37.2755134 86.3414402,37.0262442 C85.8937984,36.5978982 85.3530404,36.2322033 85.2171684,35.3067698 C85.0675783,33.4576405 85.3173318,31.4681763 85.606622,29.0681638 C85.7663068,27.946829 86.0316126,27.0153171 86.0769057,25.7982231 C86.0872049,25.5215482 86.0706744,25.1200718 86.0695692,24.820915 C86.0693435,22.7107313 84.5298513,20.9996679 82.6306204,20.9998607 L82.6306086,20.9998607 Z M78.3245743,47.673759 L77.3031771,65.7135442 L77.2296953,65.7502851 C77.1611891,67.3641456 75.8329624,68.6528167 74.2022446,68.6528167 C73.5342514,68.6528167 72.917679,68.4382992 72.4166365,68.0723104 L72.3872438,68.0870068 L57.5953548,57.601152 C62.1415041,53.1308359 67.9563869,49.8272723 74.6578318,48.3057026 C75.8819777,48.0277579 77.1055781,47.8215221 78.3245743,47.673759 Z M86.9439911,47.673759 C94.7679748,48.6360345 102.00365,52.1787985 107.548292,57.6085002 L92.8519289,68.0282213 L92.8004916,68.0061885 C91.4960542,68.9589102 89.6581906,68.7225222 88.6414209,67.4477268 C88.2249096,66.9254862 88.0063688,66.3114299 87.9800846,65.6915114 L87.9653883,65.684175 L86.9439911,47.673759 Z M52.2311824,64.3394343 L65.7371397,76.4198444 L65.7224433,76.4933262 C66.9415054,77.5531033 67.1212737,79.3921403 66.1045488,80.6670932 C65.6880656,81.1893549 65.1305726,81.5396433 64.532038,81.7031868 L64.5173416,81.7619723 L47.2050263,86.7587356 C46.3238842,78.7015617 48.2228494,70.869348 52.2311824,64.3394343 Z M112.934508,64.3467707 C114.941232,67.5993838 116.460824,71.2322259 117.365462,75.1706418 C118.25925,79.0618342 118.483559,82.9460688 118.114976,86.6999384 L100.714483,81.6884787 L100.699787,81.6149969 C99.1416194,81.1891457 98.1840208,79.6041535 98.5467694,78.014388 C98.6953861,77.3631346 99.0410892,76.8121926 99.5093812,76.4051363 L99.5020447,76.3683954 L112.93452,64.3467707 L112.934508,64.3467707 Z M79.8603442,77.3530517 L85.3935248,77.3530517 L88.8324737,81.6517378 L87.5979792,87.0159102 L82.6306086,89.4040691 L77.6485417,87.008562 L76.4140472,81.6443896 L79.8603442,77.3530517 Z M97.598854,92.0641107 C97.8339888,92.0522361 98.0680983,92.0734224 98.2969312,92.115548 L98.326324,92.0788071 L116.233842,95.1062578 C113.613069,102.469277 108.598127,108.847987 101.89754,113.11665 L94.9461605,96.3260559 L94.9681933,96.2966632 C94.3296399,94.8129208 94.9686636,93.0729725 96.4378296,92.3653862 C96.8139742,92.1842306 97.2069526,92.0839191 97.5988422,92.0641107 L97.598854,92.0641107 Z M67.5227478,92.1375926 C68.8893308,92.1567566 70.1150968,93.1052599 70.4326276,94.4963588 C70.5812819,95.1476028 70.5089311,95.7928719 70.2636194,96.3627968 L70.3150567,96.4289305 L63.4371589,113.050517 C57.0066984,108.924107 51.8848138,102.745655 49.1449462,95.165055 L66.8981523,92.1523007 L66.9275451,92.1890416 C67.1261247,92.1524982 67.3275213,92.1348649 67.5227478,92.1376043 L67.5227478,92.1375926 Z M82.5203859,99.419652 C82.9964187,99.4021575 83.479447,99.4998307 83.9385849,99.7209275 C84.5404327,100.010747 85.0053598,100.467077 85.2979984,101.014207 L85.3641321,101.014207 L94.115816,116.827494 C92.9800129,117.208242 91.8123458,117.533643 90.6180817,117.804802 C83.9248808,119.3245 77.2529461,118.864038 71.2115348,116.805449 L79.9411742,101.021556 L79.9558706,101.021556 C80.4796889,100.042329 81.473116,99.4581283 82.5203859,99.419652 Z" id="path3059" stroke-width="0.25" fill="#FFFFFF"></path>
            </g>
        </g>
    </g>
</svg>