<svg xmlns="http://www.w3.org/2000/svg" xmlns:xlink="http://www.w3.org/1999/xlink" version="1.1" id="Layer_1" x="0px" y="0px" width="182px" height="58.8px" viewBox="1.4 665.8 182 58.8" enable-background="new 1.4 665.8 182 58.8" xml:space="preserve">
<g>
	<path fill="#205281" d="M117.1,690.7c1.8,0,4.4,0.3,6.8,0.7c0.2,0,0.4,0,0.6-0.1c0.2-0.1,0.3-0.3,0.3-0.5l0.5-4.1   c0.1-0.4-0.2-0.7-0.6-0.8c-2.4-0.6-5.2-0.9-7.8-0.9c-7.3,0-10.9,3-10.9,8.9v13.4c0,6,3.6,8.9,10.9,8.9c2.6,0,5.4-0.3,7.8-0.9   c0.4-0.1,0.6-0.5,0.6-0.8l-0.5-4.1c0-0.2-0.1-0.4-0.3-0.5c-0.2-0.1-0.4-0.2-0.6-0.1c-2.4,0.4-5,0.7-6.8,0.7c-3.5,0-4.8-1-4.8-4.2   v-11.5C112.3,691.7,113.6,690.7,117.1,690.7"/>
	<path fill="#205281" d="M69.7,685.3H65c-0.4,0-0.8,0.3-0.8,0.8v11.4H53.8v-11.4c0-0.4-0.3-0.8-0.8-0.8h-4.8c-0.4,0-0.8,0.3-0.8,0.8   V715c0,0.4,0.3,0.8,0.8,0.8H53c0.4,0,0.8-0.3,0.8-0.8v-11.7h10.3V715c0,0.4,0.3,0.8,0.8,0.8h4.8c0.4,0,0.8-0.3,0.8-0.8v-28.8   C70.4,685.8,70.1,685.3,69.7,685.3"/>
	<g>
		<path fill="#205281" d="M160.8,707.5v2.7c-0.7,0.4-2.1,1-3.8,1c-1.4,0-1.8-0.4-1.8-1.8s0.3-1.8,1.9-1.8L160.8,707.5L160.8,707.5    L160.8,707.5z M157.8,692.9c-2.3,0-5.2,0.4-7.2,0.9c-0.4,0.1-0.6,0.5-0.6,0.9l0.5,3.3c0,0.2,0.1,0.4,0.3,0.5    c0.2,0.1,0.4,0.2,0.6,0.1c1.9-0.4,3.8-0.6,5.5-0.6c3.3,0,3.8,0.7,3.8,2.9v1.9h-4.9c-4.7,0-6.7,1.9-6.7,6.5c0,4.4,2.2,6.8,6,6.8    c2.2,0,4.5-0.6,6.3-1.7l0.2,0.7c0.1,0.3,0.4,0.6,0.7,0.6h3.6c0.4,0,0.8-0.3,0.8-0.8v-13.9C167,695.2,164.5,692.9,157.8,692.9"/>
		<path fill="#205281" d="M182.8,711.3c0-0.2-0.2-0.4-0.3-0.5c-0.2-0.1-0.4-0.2-0.6-0.1c-0.8,0.2-1.6,0.3-2.1,0.3    c-1.1,0-1.6-0.5-1.6-1.6v-11h4.5c0.4,0,0.8-0.3,0.8-0.8v-3.4c0-0.4-0.3-0.8-0.8-0.8h-4.5v-5.3c0-0.2-0.1-0.4-0.3-0.6    c-0.2-0.1-0.4-0.2-0.6-0.2l-4.5,0.6c-0.4,0.1-0.7,0.4-0.7,0.8v4.7h-2.5c-0.4,0-0.8,0.3-0.8,0.8v3.4c0,0.4,0.3,0.8,0.8,0.8h2.5    v11.7c0,4.1,2.1,6.1,6.3,6.1c1.2,0,3.2-0.3,4.5-0.7c0.3-0.1,0.6-0.5,0.5-0.8L182.8,711.3L182.8,711.3z"/>
	</g>
	<path fill="#205281" d="M79.6,693.3h-4.5c-0.4,0-0.8,0.3-0.8,0.8V715c0,0.4,0.3,0.8,0.8,0.8h4.5c0.4,0,0.8-0.3,0.8-0.8v-20.8   C80.3,693.8,80,693.3,79.6,693.3"/>
	<path fill="#205281" d="M79.6,684.5h-4.5c-0.4,0-0.8,0.3-0.8,0.8v4.5c0,0.4,0.3,0.8,0.8,0.8h4.5c0.4,0,0.8-0.3,0.8-0.8v-4.5   C80.3,684.8,80,684.5,79.6,684.5"/>
	<path fill="#205281" d="M79.6,693.3h-4.5c-0.4,0-0.8,0.3-0.8,0.8V715c0,0.4,0.3,0.8,0.8,0.8h4.5c0.4,0,0.8-0.3,0.8-0.8v-20.8   C80.3,693.8,80,693.3,79.6,693.3"/>
	<path fill="#205281" d="M96.9,700.6v7.7c0,1.8-0.7,2.5-2.4,2.5s-3.5-0.3-4.5-0.5V700c1-0.9,2.8-1.8,4.5-1.8   C96.2,698.2,96.9,698.9,96.9,700.6 M95.8,692.9c-2.4,0-4.7,0.7-6.7,2l-0.3-1.1c-0.1-0.3-0.4-0.5-0.7-0.5h-3.5   c-0.4,0-0.8,0.3-0.8,0.8v29.7c0,0.4,0.3,0.8,0.8,0.8h4.5c0.4,0,0.8-0.3,0.8-0.8v-8.2c1.8,0.3,3.8,0.5,5.5,0.5c5,0,7.5-2.7,7.5-8   v-7.4C102.9,694.2,99.1,692.9,95.8,692.9"/>
	<path fill="#205281" d="M141.7,692.9c-2.2,0-5.3,0.7-7.6,1.9v-9.5c0-0.4-0.3-0.8-0.8-0.8h-4.5c-0.4,0-0.8,0.3-0.8,0.8v29.8   c0,0.4,0.3,0.8,0.8,0.8h4.5c0.4,0,0.8-0.3,0.8-0.8v-14.6c1.6-0.8,3.9-1.7,5.4-1.7c1,0,1.4,0.4,1.4,1.4V715c0,0.4,0.3,0.8,0.8,0.8   h4.5c0.4,0,0.8-0.3,0.8-0.8v-15.3C146.9,695.2,145.1,692.9,141.7,692.9"/>
	<path fill="#205281" d="M54.1,666.2c0-0.1-0.1-0.2-0.3-0.2h-2.7c-0.1,0-0.2,0.1-0.3,0.2l-3.4,10.7c0,0.1,0,0.2,0,0.3   c0.1,0.1,0.1,0.1,0.2,0.1h1.8c0.1,0,0.2-0.1,0.3-0.2l2.3-7.9c0,0,0.1-0.2,0.3-0.2c0.2,0,0.3,0.2,0.3,0.2l1.1,3.8h-1.4   c-0.1,0-0.2,0.1-0.3,0.2l-0.4,1.5c0,0.1,0,0.2,0,0.2c0.1,0.1,0.1,0.1,0.2,0.1h2.5l0.6,2.1c0,0.1,0.1,0.2,0.3,0.2h1.8   c0.1,0,0.2,0,0.2-0.1c0.1-0.1,0.1-0.2,0-0.3L54.1,666.2L54.1,666.2z"/>
	<path fill="#205281" d="M62.2,675.7c0-0.1-0.1-0.1-0.1-0.2c-0.1,0-0.1-0.1-0.2,0c-0.3,0.1-0.6,0.1-0.8,0.1c-0.4,0-0.6-0.2-0.6-0.6   v-4.2h1.6c0.2,0,0.3-0.1,0.3-0.3v-1.2c0-0.2-0.1-0.3-0.3-0.3h-1.6v-2c0-0.1,0-0.2-0.1-0.2c-0.1-0.1-0.1-0.1-0.2-0.1l-1.7,0.2   c-0.1,0-0.2,0.1-0.2,0.3v1.7h-0.9c-0.2,0-0.3,0.1-0.3,0.3v1.3c-0.1,0.2,0,0.3,0.2,0.3h0.9v4.4c0,1.5,0.8,2.2,2.3,2.2   c0.4,0,1.2-0.1,1.7-0.3c0.1,0,0.2-0.2,0.2-0.3L62.2,675.7L62.2,675.7z"/>
	<path fill="#205281" d="M65.4,665.8h-1.7c-0.2,0-0.3,0.1-0.3,0.3v11c0,0.2,0.1,0.3,0.3,0.3h1.7c0.2,0,0.3-0.1,0.3-0.3v-11   C65.7,665.9,65.6,665.8,65.4,665.8"/>
	<path fill="#205281" d="M70.9,674.3v1c-0.3,0.1-0.8,0.4-1.4,0.4c-0.5,0-0.7-0.2-0.7-0.7s0.1-0.7,0.7-0.7L70.9,674.3L70.9,674.3z    M69.8,668.8c-0.9,0-1.9,0.1-2.6,0.3c-0.1,0-0.2,0.2-0.2,0.3l0.2,1.2c-0.1,0.2,0,0.2,0,0.3c0.1,0,0.1,0.1,0.2,0   c0.7-0.1,1.4-0.2,2-0.2c1.2,0,1.4,0.3,1.4,1.1v0.7H69c-1.7,0-2.5,0.7-2.5,2.4c0,1.6,0.8,2.5,2.2,2.5c0.8,0,1.6-0.2,2.3-0.6l0.1,0.3   c0,0.1,0.1,0.2,0.3,0.2h1.4c0.2,0,0.3-0.1,0.3-0.3v-5.3C73.2,669.6,72.3,668.8,69.8,668.8"/>
	<path fill="#205281" d="M77.5,672.2c-1-0.3-1-0.3-1-0.9c0-0.4,0-0.6,0.9-0.6c0.6,0,1.5,0.1,2,0.2c0.1,0,0.2,0,0.2-0.1   c0.1,0,0.1-0.1,0.1-0.2l0.2-1.3c0-0.1-0.1-0.3-0.2-0.3c-0.7,0-1.6-0.1-2.4-0.1c-2.6,0-3.1,1-3.1,2.4c0,1.6,0.3,2.2,2.3,2.6   c1.3,0.3,1.3,0.5,1.3,0.9c0,0.5,0,0.7-0.9,0.7c-0.7,0-1.5-0.1-2.2-0.3c-0.1,0-0.2,0-0.2,0c-0.1,0-0.1,0.1-0.1,0.2l-0.2,1.2   c0,0.1,0.1,0.3,0.2,0.3c0.8,0.2,1.9,0.4,2.7,0.4c2.5,0,3-1,3-2.6C80,673.1,79.7,672.8,77.5,672.2"/>
	<path fill="#205281" d="M84.1,672.2c-1-0.3-1-0.3-1-0.9c0-0.4,0-0.6,0.9-0.6c0.6,0,1.5,0.1,2,0.2c0.1,0,0.2,0,0.2-0.1   c0.1,0,0.1-0.1,0.1-0.2l0.1-1.1c0-0.1-0.1-0.3-0.2-0.3c-0.6-0.2-1.5-0.3-2.3-0.3c-2.6,0-3.1,1-3.1,2.4c0,1.6,0.3,2.2,2.3,2.6   c1.3,0.4,1.3,0.6,1.3,1c0,0.5,0,0.7-0.9,0.7c-0.7,0-1.5-0.1-2.2-0.3c-0.1,0-0.2,0-0.2,0c-0.1,0-0.1,0.1-0.1,0.2l-0.2,1.2   c0,0.1,0.1,0.3,0.2,0.3c0.8,0.2,1.9,0.4,2.7,0.4c2.5,0,3-1,3-2.6C86.6,673.1,86.3,672.8,84.1,672.2"/>
	<path fill="#205281" d="M89.6,665.8h-1.7c-0.2,0-0.3,0.1-0.3,0.3v1.5c0,0.2,0.1,0.3,0.3,0.3h1.7c0.2,0,0.3-0.1,0.3-0.3v-1.5   C89.9,665.9,89.8,665.8,89.6,665.8"/>
	<path fill="#205281" d="M89.6,669h-1.7c-0.2,0-0.3,0.1-0.3,0.3v7.8c0,0.2,0.1,0.3,0.3,0.3h1.7c0.2,0,0.3-0.1,0.3-0.3v-7.8   C89.9,669.1,89.8,669,89.6,669"/>
	<path fill="#205281" d="M95.1,674.3v1c-0.3,0.1-0.8,0.4-1.4,0.4c-0.5,0-0.7-0.2-0.7-0.7s0.1-0.7,0.7-0.7L95.1,674.3L95.1,674.3z    M94,668.8c-0.9,0-1.9,0.1-2.6,0.3c-0.1,0-0.2,0.2-0.2,0.3l0.2,1.2c-0.1,0.2,0,0.2,0.1,0.3c0.1,0,0.1,0.1,0.2,0   c0.7-0.1,1.4-0.2,2-0.2c1.2,0,1.4,0.3,1.4,1.1v0.7h-1.8c-1.7,0-2.5,0.7-2.5,2.4c0,1.6,0.8,2.5,2.2,2.5c0.8,0,1.6-0.2,2.3-0.6   l0.1,0.3c0,0.1,0.1,0.2,0.3,0.2h1.4c0.2,0,0.3-0.1,0.3-0.3v-5.3C97.5,669.6,96.5,668.8,94,668.8"/>
	<path fill="#205281" d="M103.7,668.8c-0.9,0-2.1,0.3-3.1,0.8l-0.1-0.4c0-0.1-0.1-0.2-0.3-0.2H99c-0.2,0-0.3,0.1-0.3,0.3v7.8   c0,0.2,0.1,0.3,0.3,0.3h1.6c0.2,0,0.3-0.1,0.3-0.3v-5.5c0.6-0.3,1.5-0.6,2-0.6c0.4,0,0.5,0.1,0.5,0.5v5.5c0,0.2,0.1,0.3,0.3,0.3   h1.7c0.2,0,0.3-0.1,0.3-0.3v-5.7C105.7,669.6,105.1,668.8,103.7,668.8"/>
	<path fill="#205281" d="M32.6,704.5c0-0.4-0.3-0.8-0.8-0.8c-0.2,0-0.4,0.1-0.5,0.2c-2,1.8-5.5,3.4-9.7,3.4l0,0   c-4.2,0-7.5-1.7-9.7-3.4c-0.1-0.1-0.4-0.2-0.5-0.2c-0.5,0-0.8,0.4-0.8,0.9c0,0.4,0.2,0.7,0.5,1c1.2,1.7,4.9,4.8,10.5,4.8h0.1   c5.6,0,9.3-3,10.5-4.9C32.3,705.2,32.6,704.8,32.6,704.5L32.6,704.5z"/>
	<path fill="#205281" d="M32.7,716.8c0.1,0.1,0.1,0.2,0.1,0.2c0,0.1-0.1,0.2-0.2,0.2c-1,0-4.2-1.7-5.8-3c-0.2-0.2-0.5-0.3-1-0.2   c-1.3,0.3-2.8,0.5-4.2,0.5c-9.3,0-16.8-6.2-16.8-13.9s7.5-13.9,16.8-13.9s16.8,6.2,16.8,13.9c0,4.5-2.6,8.6-6.8,11.1   c-0.3,0.2-0.6,0.5-0.6,0.9C31,713.5,31.8,715.5,32.7,716.8L32.7,716.8z M38.1,718.4c-1.4-0.8-2.7-2.2-3.4-4.1   c-0.1-0.4,0-0.7,0.3-0.9c4.2-3.1,6.7-7.8,6.7-13c0-9.6-9-17.4-20.1-17.4c-11.1,0.1-20.1,7.9-20.1,17.4c0,9.6,9,17.4,20.1,17.4   c1.4,0,2.8-0.1,4.2-0.4c0.3-0.1,0.6,0,0.8,0.2c2.7,1.7,6.9,3.1,10.4,3.1c1.1,0,1.6-0.7,1.6-1.4C38.8,719,38.4,718.7,38.1,718.4   L38.1,718.4z"/>
</g>
</svg>