<svg xmlns="http://www.w3.org/2000/svg" viewBox="0 0 16 16" enable-background="new 0 0 16 16"><path d="M3,8c0-2,1.2-3.8,3-4.6V0H1C0.4,0,0,0.4,0,1v14c0,0.6,0.4,1,1,1h5v-3.4C4.2,11.8,3,10,3,8"/><path d="m7 12.9v3.1h2v-3.1c-.3.1-.7.1-1 .1s-.7 0-1-.1"/><path d="m15 0h-5v3.4c1.8.8 3 2.6 3 4.6s-1.2 3.8-3 4.6v3.4h5c.6 0 1-.4 1-1v-14c0-.6-.4-1-1-1"/><path d="m8 4c-2.2 0-4 1.8-4 4s1.8 4 4 4 4-1.8 4-4-1.8-4-4-4m0 6c-1.1 0-2-.9-2-2s.9-2 2-2 2 .9 2 2-.9 2-2 2"/><path d="M9,3.1V0H7v3.1C7.3,3,7.7,3,8,3S8.7,3,9,3.1"/></svg>