<svg width="19" height="14" viewBox="0 0 19 14" xmlns="http://www.w3.org/2000/svg" xmlns:xlink="http://www.w3.org/1999/xlink"><title>Icon</title><defs><rect id="a" width="19" height="14" rx="2.5"/><mask id="b" x="0" y="0" width="19" height="14" fill="#fff"><use xlink:href="#a"/></mask></defs><g stroke="#848484" fill="none" fill-rule="evenodd"><path d="M7.265 7.17l-2.6 2.697a.174.174 0 0 1-.13.058.174.174 0 0 1-.128-.058l-.279-.29a.186.186 0 0 1 0-.266l2.193-2.274-2.193-2.274a.186.186 0 0 1 0-.266l.28-.29a.174.174 0 0 1 .128-.058c.048 0 .09.02.128.058l2.6 2.697a.186.186 0 0 1 0 .266zM13.286 9.815v.37a.184.184 0 0 1-.05.133.17.17 0 0 1-.129.052H7.75a.17.17 0 0 1-.128-.052.184.184 0 0 1-.05-.133v-.37c0-.054.016-.099.05-.133a.17.17 0 0 1 .128-.052h5.357a.17.17 0 0 1 .128.052c.034.034.05.079.05.133z" stroke-width=".75" fill="#848484"/><use mask="url(#b)" stroke-width="2.5" xlink:href="#a"/></g></svg>