<svg xmlns="http://www.w3.org/2000/svg" xmlns:xlink="http://www.w3.org/1999/xlink" viewBox="0 0 14 14" enable-background="new 0 0 14 14"><defs><path id="0" d="m4.1 6.2c-.1 0-.3.2-.3.3v.9c0 .2.1.3.3.3h5.7c.2 0 .3-.1.3-.3v-.9c0-.2-.1-.3-.3-.3h-5.7"/><path id="1" d="m0 3c0-1.7 1.3-3 3-3h8c1.7 0 3 1.3 3 3v8c0 1.7-1.3 3-3 3h-8c-1.7 0-3-1.3-3-3v-8m1 0v8c0 1.1.9 2 2 2h8c1.1 0 2-.9 2-2v-8c0-1.1-.9-2-2-2h-8c-1.1 0-2 .9-2 2"/><clipPath><use xlink:href="#0"/></clipPath><clipPath><use xlink:href="#1"/></clipPath></defs><use xlink:href="#0"/><use xlink:href="#1"/></svg>