<svg xmlns="http://www.w3.org/2000/svg" width="14" height="14" viewBox="0 0 14 14">
  <g fill="#E75E40" fill-rule="evenodd">
    <path d="M13,7 C13,3.6862915 10.3137085,1 7,1 C3.6862915,1 1,3.6862915 1,7 C1,10.3137085 3.6862915,13 7,13 C10.3137085,13 13,10.3137085 13,7 Z M0,7 C0,3.13400675 3.13400675,0 7,0 C10.8659932,0 14,3.13400675 14,7 C14,10.8659932 10.8659932,14 7,14 C3.13400675,14 0,10.8659932 0,7 Z"/>
    <path d="M4.69999981,5.30065012 C4.69999981,5.13460564 4.83842754,5 5.00354719,5 L5.89645243,5 C6.06409702,5 6.19999981,5.13308716 6.19999981,5.30065012 L6.19999981,8.69934988 C6.19999981,8.86539436 6.06157207,9 5.89645243,9 L5.00354719,9 C4.8359026,9 4.69999981,8.86691284 4.69999981,8.69934988 L4.69999981,5.30065012 Z M7.69999981,5.30065012 C7.69999981,5.13460564 7.83842754,5 8.00354719,5 L8.89645243,5 C9.06409702,5 9.19999981,5.13308716 9.19999981,5.30065012 L9.19999981,8.69934988 C9.19999981,8.86539436 9.06157207,9 8.89645243,9 L8.00354719,9 C7.8359026,9 7.69999981,8.86691284 7.69999981,8.69934988 L7.69999981,5.30065012 Z"/>
  </g>
</svg>
