<svg xmlns="http://www.w3.org/2000/svg" viewBox="0 0 19 16" enable-background="new 0 0 19 16"><path d="m15 6.1h-3.5c-.3 0-.5.2-.5.5v1c0 .3.2.5.5.5h3.5v1.7c0 .4.2.5.5.2l3.2-2.6c.3-.2.3-.6 0-.9l-3.2-2.6c-.2 0-.5.1-.5.5v1.7"/><path d="m15.6 2.1c-1.6-1.3-4-2.1-6.6-2.1-5 0-9 3-9 6.7 0 2.1 1.3 4 3.4 5.2-.5 1.7-1.2 2.4-1.8 3.1-.2.2-.3.3-.3.6 0 .2.2.4.4.4h.1c.4-.1.8-.1 1.1-.2 1.7-.5 3.3-1.3 4.6-2.5.5.1 1 .1 1.5.1 2.2 0 4.2-.6 5.8-1.6-.4-.2-.8-.5-1.2-.9-1.3.7-2.9 1.1-4.6 1.1-.4 0-.9 0-1.3-.1l-.6-.1-.4.4c-.8.8-1.8 1.4-2.8 1.8.3-.5.5-1.1.7-1.8l.3-1-.9-.5c-1.7-1-2.7-2.5-2.7-4.1 0-2.9 3.5-5.3 7.7-5.3 2 0 3.8.6 5.2 1.5.5-.3.9-.5 1.4-.7"/></svg>