<svg xmlns="http://www.w3.org/2000/svg" viewBox="0 0 16 16"><path fill-rule="evenodd" d="m5.5 3.5c0-1.105-.895-2-2-2-1.105 0-2 .895-2 2 0 1.105.895 2 2 2 1.105 0 2-.895 2-2m2.531 5.744c-.143.527-.463 1.083-1.134 1.47-1.674.966-4.897.518-4.897.518 0 0 1.223-3.02 2.897-3.982 1.533-.885 2.912.255 3.134.453.222-.199 1.601-1.338 3.134-.453 1.674.966 2.897 3.982 2.897 3.982 0 0-3.223.449-4.897-.518-.671-.387-.991-.943-1.134-1.47m.977-5.984c-.232-.317-.603-.51-1.01-.51-.405 0-.775.193-1.01.511.005.079.008.159.008.239 0 1.933-1.567 3.5-3.5 3.5-1.933 0-3.5-1.567-3.5-3.5 0-1.933 1.567-3.5 3.5-3.5 1.273 0 2.387.679 2.999 1.695.437-.285.955-.445 1.501-.445.546 0 1.064.161 1.501.445.613-1.016 1.727-1.695 2.999-1.695 1.933 0 3.5 1.567 3.5 3.5 0 1.933-1.567 3.5-3.5 3.5-1.933 0-3.5-1.567-3.5-3.5 0-.081.003-.16.008-.24m5.492.24c0-1.105-.895-2-2-2-1.105 0-2 .895-2 2 0 1.105.895 2 2 2 1.105 0 2-.895 2-2" transform="translate(0 2)"/></svg>