<svg xmlns="http://www.w3.org/2000/svg" width="14" height="14" viewBox="0 0 14 14">
  <g fill="#E75E40" fill-rule="evenodd">
    <path d="M13,7 C13,3.6862915 10.3137085,1 7,1 C3.6862915,1 1,3.6862915 1,7 C1,10.3137085 3.6862915,13 7,13 C10.3137085,13 13,10.3137085 13,7 Z M0,7 C0,3.13400675 3.13400675,0 7,0 C10.8659932,0 14,3.13400675 14,7 C14,10.8659932 10.8659932,14 7,14 C3.13400675,14 0,10.8659932 0,7 Z"/>
    <g transform="translate(4.7 5)">
      <rect width="1.5" height="4" rx=".3"/>
      <rect width="1.5" height="4" x="3" rx=".3"/>
    </g>
  </g>
</svg>
