<svg xmlns="http://www.w3.org/2000/svg" width="34" height="34" viewBox="0 0 34 34">
  <path fill="#7E7E7E" fill-rule="evenodd" d="M23,16 L19.4976988,16 C19.2148438,16 19,16.2259549 19,16.5046844 L19,17.4953156 C19,17.785965 19.2228273,18 19.4976988,18 L23,18 L23,19.6369573 C23,20.0099464 23.2452719,20.1063207 23.5478302,19.8757294 L26.7776904,17.4141285 C27.0678934,17.1929537 27.0802487,16.8096749 26.7776904,16.5790836 L23.5478302,14.1174826 C23.2576272,13.8963078 23,13.9937933 23,14.3562548 L23,16 Z M23.6003917,12.1985322 C21.9569237,10.9334532 19.6083929,10.1428418 17.0000107,10.1428418 C12.0279066,10.1428418 8,13.0156131 8,16.5714209 C8,18.6104858 9.32589444,20.4285684 11.3950933,21.603793 C10.9229946,23.2812503 10.1997794,23.8839296 9.56696615,24.5971001 C9.41629633,24.7779039 9.2455372,24.9285737 9.29576047,25.1796901 C9.29576047,25.1796901 9.29576047,25.1796901 9.29576047,25.1897348 C9.34598375,25.4107172 9.52678753,25.5714316 9.72768063,25.5714316 L9.77790391,25.5714316 C10.1696454,25.5212084 10.561387,25.4508958 10.9229946,25.3504492 C12.6607198,24.9084844 14.227686,24.0848227 15.5435358,22.9196428 C16.0156346,22.969866 16.5078226,23 17.0000107,23 C19.2094006,23 21.2323557,22.432762 22.7983119,21.4904127 C22.3593681,21.2747877 21.9566576,20.9966975 21.6017738,20.6677356 C20.3065845,21.3220712 18.7069336,21.7142842 17.0000107,21.7142842 C16.5680906,21.7142842 16.1261258,21.6841502 15.6942056,21.6339269 L15.1216603,21.573659 L14.6897401,21.9553559 C13.8660784,22.678571 12.9419702,23.2511164 11.92746,23.6729919 C12.1886211,23.2109378 12.4397374,22.6584817 12.6305859,21.9453112 L12.9017916,20.9810244 L12.0279066,20.4787916 C10.2901813,19.4944155 9.28571582,18.0680745 9.28571582,16.5714209 C9.28571582,13.7790069 12.8214343,11.4285576 17.0000107,11.4285576 C18.9980685,11.4285576 20.8491408,11.9659732 22.2369514,12.8321499 C22.6520472,12.5564132 23.1107022,12.3410324 23.6003917,12.1985322 Z"/>
</svg>
