<svg xmlns="http://www.w3.org/2000/svg" viewBox="0 0 16 16"><g fill-rule="evenodd"><path d="m3 2c0-1.107.887-2 2-2h6c1.104 0 2 .894 2 2v2.995h-10v-2.995m-3 4.995c0-.552.445-1 1-1h13.998c.553 0 1 .444 1 1 0 .552-.445 1-1 1h-13.998c-.553 0-1-.444-1-1m9.01 5.26c-.232-.317-.603-.51-1.01-.51-.405 0-.775.193-1.01.511.005.079.008.159.008.239 0 1.933-1.567 3.5-3.5 3.5-1.933 0-3.5-1.567-3.5-3.5 0-1.933 1.567-3.5 3.5-3.5 1.273 0 2.387.679 2.999 1.695.437-.285.955-.445 1.501-.445.546 0 1.064.161 1.501.445.613-1.016 1.727-1.695 2.999-1.695 1.933 0 3.5 1.567 3.5 3.5 0 1.933-1.567 3.5-3.5 3.5-1.933 0-3.5-1.567-3.5-3.5 0-.081.003-.16.008-.24m-3.508.24c0-1.105-.895-2-2-2-1.105 0-2 .895-2 2 0 1.105.895 2 2 2 1.105 0 2-.895 2-2m9 0c0-1.105-.895-2-2-2-1.105 0-2 .895-2 2 0 1.105.895 2 2 2 1.105 0 2-.895 2-2"/></g></svg>