<svg xmlns="http://www.w3.org/2000/svg" width="16" height="16" viewBox="0 0 16 16">
  <path fill="#000000" fill-rule="evenodd" d="M9,12 L9,11 L10.504611,11 C10.7842474,11 11,10.7761424 11,10.5 C11,10.2319336 10.7782068,10 10.504611,10 L9,10 L9,7.82929429 C10.1651924,7.41745788 11,6.30621883 11,5 C11,3.34314575 9.65685425,2 8,2 C6.34314575,2 5,3.34314575 5,5 C5,6.30621883 5.83480763,7.41745788 7,7.82929429 L7,13.0029699 C7,13.5469637 7.44771525,14 8,14 C8.55613518,14 9,13.5536144 9,13.0029699 L9,13 L10.504611,13 C10.7842474,13 11,12.7761424 11,12.5 C11,12.2319336 10.7782068,12 10.504611,12 L9,12 Z M8,5 C8.55228475,5 9,4.55228475 9,4 C9,3.44771525 8.55228475,3 8,3 C7.44771525,3 7,3.44771525 7,4 C7,4.55228475 7.44771525,5 8,5 Z" transform="scale(-1 1) rotate(45 0 -11.314)"/>
</svg>
