<svg xmlns="http://www.w3.org/2000/svg" viewBox="0 0 22 16" enable-background="new 0 0 22 16"><path d="m6.4 11.9c.7-.6 1.4-1.1 2.1-1.5 0-.1.1-.1.1-.2v-1.4c.3-.3.5-.7.5-1.1v-2.3c0-1.4-1.2-2.6-2.6-2.6h-.5c-1.4 0-2.6 1.2-2.6 2.6v2.3c0 .4.2.8.5 1.1v1.8c-.6.3-1.9 1-3.2 2.1-.5.3-.7.7-.7 1.2v1.6c0 0 .1.3.3.3 1 0 3.5.1 5.6.1-.1-.1-.2-.2-.2-.4v-2c0-.5.3-1.3.7-1.6"/><path d="m21.3 12.1c-1.6-1.3-3.4-2.2-4-2.6v-2.3c.4-.3.6-.8.6-1.3v-2.8c0-1.7-1.4-3.1-3.1-3.1h-.6c-1.7 0-3.1 1.4-3.1 3.1v2.9c0 .5.2 1 .6 1.3v2.3c-.7.3-2.4 1.3-4 2.6-.4.4-.7.9-.7 1.4v2c0 .3.2.5.5.5h6.7v-4.3c-1.4-.1-2.6-.9-2.6-1.8 0-.1 0-.3.1-.4.3.8 1.4 1.4 2.8 1.4 1.4 0 2.5-.6 2.8-1.4.1.1.1.3.1.4 0 .8-1 1.6-2.3 1.7v4.3h6.4c.3 0 .5-.2.5-.5v-2c0-.5-.3-1-.7-1.4"/></svg>