<svg xmlns="http://www.w3.org/2000/svg" viewBox="0 0 12 14" enable-background="new 0 0 12 14"><g fill-rule="evenodd"><path d="m11.2 5c-.5-.9-1.3-1.6-2.2-2.2-.7-.4-1.4-.6-2.3-.7v-.6h.5v-1.5h-2.5v1.5h.5v.5c-.8.2-1.5.4-2.2.8-.9.6-1.7 1.3-2.2 2.2s-.8 1.9-.8 3 .3 2.1.8 3 1.3 1.6 2.2 2.2c.9.5 1.9.8 3 .8 1.1 0 2.1-.3 3-.8.9-.5 1.6-1.3 2.2-2.2s.8-1.9.8-3-.3-2.1-.8-3m-1.5 5.1c-.4.6-.9 1.2-1.5 1.5-.7.4-1.4.6-2.1.6-.8 0-1.5-.2-2.1-.6-.7-.4-1.2-.9-1.5-1.5-.6-.6-.7-1.3-.7-2.1s.2-1.5.6-2.1c.4-.6.9-1.2 1.5-1.5.6-.4 1.3-.6 2.1-.6.8 0 1.5.2 2.1.6.7.4 1.2.9 1.5 1.5.4.6.6 1.4.6 2.1s-.1 1.5-.5 2.1"/><path d="m6.3 8.8c.1 0 .1 0 0 0 .1-.1.2-.2.2-.2v-3.5c0-.1 0-.1-.1-.2 0 0-.1-.1-.2-.1h-.4c0 0-.1 0-.1 0 0 0-.1 0-.1.1 0 0-.1.1-.1.2v3.5c0 .1 0 .1.1.2 0 0 .1.1.2.1l.5-.1c0 0 0 0 0 0"/><path d="m11.5 2.5l-1.3-1.1-.9 1.1 1.4 1.1z"/></g></svg>