<?xml version="1.0" encoding="UTF-8"?>
<svg width="246px" height="145px" viewBox="0 0 246 145" version="1.1" xmlns="http://www.w3.org/2000/svg" xmlns:xlink="http://www.w3.org/1999/xlink">
    <!-- Generator: Sketch 58 (84663) - https://sketch.com -->
    <title>Group</title>
    <desc>Created with Sketch.</desc>
    <defs>
        <path d="M10,17 L119,17 C124.522847,17 129,21.4771525 129,27 L129,78 C129,83.5228475 124.522847,88 119,88 L10,88 C4.4771525,88 6.76353751e-16,83.5228475 0,78 L0,27 C-6.76353751e-16,21.4771525 4.4771525,17 10,17 Z" id="path-1"></path>
        <filter x="-2.3%" y="-4.2%" width="107.8%" height="114.1%" filterUnits="objectBoundingBox" id="filter-2">
            <feMorphology radius="1" operator="dilate" in="SourceAlpha" result="shadowSpreadOuter1"></feMorphology>
            <feOffset dx="4" dy="4" in="shadowSpreadOuter1" result="shadowOffsetOuter1"></feOffset>
            <feComposite in="shadowOffsetOuter1" in2="SourceAlpha" operator="out" result="shadowOffsetOuter1"></feComposite>
            <feColorMatrix values="0 0 0 0 0.977226828   0 0 0 0 0.977226828   0 0 0 0 0.977226828  0 0 0 1 0" type="matrix" in="shadowOffsetOuter1"></feColorMatrix>
        </filter>
        <path d="M41,98 L184,98 C189.522847,98 194,102.477153 194,108 L194,130 C194,135.522847 189.522847,140 184,140 L41,140 C35.4771525,140 31,135.522847 31,130 L31,108 C31,102.477153 35.4771525,98 41,98 Z" id="path-3"></path>
        <filter x="-1.8%" y="-7.1%" width="106.1%" height="123.8%" filterUnits="objectBoundingBox" id="filter-4">
            <feMorphology radius="1" operator="dilate" in="SourceAlpha" result="shadowSpreadOuter1"></feMorphology>
            <feOffset dx="4" dy="4" in="shadowSpreadOuter1" result="shadowOffsetOuter1"></feOffset>
            <feComposite in="shadowOffsetOuter1" in2="SourceAlpha" operator="out" result="shadowOffsetOuter1"></feComposite>
            <feColorMatrix values="0 0 0 0 0.976470588   0 0 0 0 0.976470588   0 0 0 0 0.976470588  0 0 0 1 0" type="matrix" in="shadowOffsetOuter1"></feColorMatrix>
        </filter>
        <path d="M148,12 L224,12 C229.522847,12 234,16.4771525 234,22 L234,79 C234,84.5228475 229.522847,89 224,89 L148,89 C142.477153,89 138,84.5228475 138,79 L138,22 C138,16.4771525 142.477153,12 148,12 Z" id="path-5"></path>
        <filter x="-3.1%" y="-3.9%" width="110.4%" height="113.0%" filterUnits="objectBoundingBox" id="filter-6">
            <feMorphology radius="1" operator="dilate" in="SourceAlpha" result="shadowSpreadOuter1"></feMorphology>
            <feOffset dx="4" dy="4" in="shadowSpreadOuter1" result="shadowOffsetOuter1"></feOffset>
            <feComposite in="shadowOffsetOuter1" in2="SourceAlpha" operator="out" result="shadowOffsetOuter1"></feComposite>
            <feColorMatrix values="0 0 0 0 0.980392157   0 0 0 0 0.980392157   0 0 0 0 0.980392157  0 0 0 1 0" type="matrix" in="shadowOffsetOuter1"></feColorMatrix>
        </filter>
    </defs>
    <g id="Page-1" stroke="none" stroke-width="1" fill="none" fill-rule="evenodd">
        <g id="Security-Project-empty-state" transform="translate(-177.000000, -149.000000)" fill-rule="nonzero">
            <g id="Group" transform="translate(178.000000, 149.000000)">
                <path d="M187.665765,15 L186,17.6556015" id="Line-2" stroke="#EEEEEE" stroke-width="2" stroke-linecap="round" stroke-linejoin="round"></path>
                <path d="" id="Path-3" stroke="#979797"></path>
                <g id="Rectangle-5" stroke-linecap="round" stroke-linejoin="round" stroke-dasharray="1">
                    <use fill="black" fill-opacity="1" filter="url(#filter-2)" xlink:href="#path-1"></use>
                    <use stroke="#E5E5E5" stroke-width="2" fill="#FFFFFF" xlink:href="#path-1"></use>
                </g>
                <path d="M9.5,27.2931034 L9.5,77.7068966" id="Line" stroke="#FEF0E8" stroke-width="3" stroke-linecap="round"></path>
                <path d="M120,78.5 L9,78.5" id="Line" stroke="#FEF0E8" stroke-width="3" stroke-linecap="round"></path>
                <path d="M14,72 C18.0510432,61.6984567 22.2987664,51.403098 26.7431694,41.1139241 C36.3970856,47.8649789 41.2240437,51.2405063 41.2240437,51.2405063 C41.2240437,51.2405063 46.0510018,44.8270042 55.704918,32 L83.5081967,57.8227848 L91.6174863,51.2405063 L106.098361,62.3797468 L120,47.6962025" id="Path-4" stroke="#C3B8E3" stroke-width="2" stroke-linecap="round" stroke-linejoin="round" stroke-dasharray="1"></path>
                <path d="M88,38 L96.4646595,38 C97.569229,38 98.4646595,38.8954305 98.4646595,40 L98.4646595,42.5291074 C98.4646595,43.6336769 97.569229,44.5291074 96.4646595,44.5291074 L88,44.5291074 C86.8954305,44.5291074 86,43.6336769 86,42.5291074 L86,40 C86,38.8954305 86.8954305,38 88,38 Z" id="Rectangle-8-Copy" stroke="#FC6D26" stroke-width="2" fill="#FFFFFF"></path>
                <path d="M91.0127804,47.865099 L89,45 L89,45 L94.6620872,45 L92.6493068,47.865099 C92.3318294,48.3170133 91.7081142,48.4259959 91.2561999,48.1085185 C91.161599,48.0420598 91.0792391,47.9596998 91.0127804,47.865099 Z" id="Triangle" fill="#FC6D26"></path>
                <path d="M210.43694,115.41905 L209.341682,115.816745 C209.009322,115.937428 208.642058,115.765829 208.521376,115.433468 C208.467792,115.285898 208.470298,115.123783 208.528419,114.977939 L208.909309,114.022158 C209.004039,113.784449 209.004039,113.51947 208.909309,113.281761 L208.528419,112.32598 C208.397519,111.997509 208.557682,111.625116 208.886153,111.494217 C209.031996,111.436097 209.194111,111.43359 209.341682,111.487174 L210.43694,111.88487 C210.657433,111.964932 210.899054,111.964932 211.119547,111.88487 L212.214805,111.487174 C212.547165,111.366492 212.914429,111.538091 213.035111,111.870451 C213.088695,112.018021 213.086189,112.180136 213.028068,112.32598 L212.647178,113.281761 C212.552448,113.51947 212.552448,113.784449 212.647178,114.022158 L213.028068,114.977939 C213.158968,115.30641 212.998805,115.678803 212.670334,115.809702 C212.524491,115.867823 212.362376,115.870329 212.214805,115.816745 L211.119547,115.41905 C210.899054,115.338987 210.657433,115.338987 210.43694,115.41905 Z" id="Star" fill="#EEEEEE"></path>
                <path d="M238.227956,3.92287662 L237.994272,5.24228214 C237.934243,5.58120933 237.610826,5.80730136 237.271899,5.74727282 C237.121412,5.72061969 236.985965,5.63960182 236.891303,5.51961966 L236.137538,4.5642321 C236.038757,4.439029 235.895739,4.35645707 235.737919,4.3335121 L234.533647,4.1584259 C234.193026,4.10890387 233.957043,3.79263049 234.006565,3.45200954 C234.028554,3.3007712 234.105346,3.16288403 234.222344,3.06455859 L235.24814,2.20247923 C235.360062,2.10842021 235.435355,1.97800857 235.460852,1.83405198 L235.694536,0.514646458 C235.754565,0.17571927 236.077982,-0.0503727595 236.41691,0.0096557767 C236.567396,0.0363089116 236.702843,0.117326784 236.797505,0.237308945 L237.55127,1.1926965 C237.650051,1.3178996 237.793069,1.40047153 237.950889,1.4234165 L239.155161,1.5985027 C239.495782,1.64802473 239.731765,1.96429811 239.682243,2.30491906 C239.660254,2.4561574 239.583463,2.59404457 239.466464,2.69237001 L238.440668,3.55444937 C238.328746,3.6485084 238.253453,3.77892003 238.227956,3.92287662 Z" id="Star" fill="#FEE1D3"></path>
                <circle id="Oval-3" fill="#FEE1D3" cx="243.623337" cy="8.62333704" r="1"></circle>
                <circle id="Oval-3" fill="#FEE1D3" cx="228.623337" cy="0.623337041" r="1"></circle>
                <circle id="Oval-4" fill="#EEEEEE" cx="206.623269" cy="118.623269" r="1"></circle>
                <path d="M20.9590639,107.340007 L20.3498336,108.533438 C20.1933353,108.840005 19.8179467,108.96166 19.5113796,108.805162 C19.3752615,108.735675 19.26942,108.618597 19.2139741,108.476181 L18.772473,107.342159 C18.7146145,107.193546 18.6019866,107.072768 18.4577717,107.004683 L17.3573103,106.485152 C17.0460517,106.338206 16.9128501,105.966758 17.0597962,105.6555 C17.1250414,105.517298 17.2387921,105.407888 17.3794258,105.348066 L18.6124475,104.823569 C18.746979,104.766343 18.8571109,104.663643 18.9235823,104.533431 L19.5328126,103.34 C19.6893109,103.033433 20.0646995,102.911778 20.3712666,103.068277 C20.5073847,103.137763 20.6132262,103.254842 20.6686721,103.397258 L21.1101732,104.531279 C21.1680317,104.679892 21.2806596,104.800671 21.4248745,104.868755 L22.5253359,105.388286 C22.8365945,105.535232 22.9697961,105.90668 22.82285,106.217939 C22.7576048,106.35614 22.6438541,106.46555 22.5032204,106.525373 L21.2701987,107.049869 C21.1356672,107.107096 21.0255353,107.209795 20.9590639,107.340007 L20.9590639,107.340007 Z" id="Star" fill="#E1DBF1"></path>
                <circle id="Oval-4" fill="#E1DBF1" cx="16.6232686" cy="113.623269" r="1"></circle>
                <g id="Rectangle-5" stroke-linecap="round" stroke-linejoin="round" stroke-dasharray="1">
                    <use fill="black" fill-opacity="1" filter="url(#filter-4)" xlink:href="#path-3"></use>
                    <use stroke="#E5E5E5" stroke-width="2" fill="#FFFFFF" xlink:href="#path-3"></use>
                </g>
                <circle id="Oval" stroke="#6B4FBB" stroke-width="2" cx="50" cy="118" r="10"></circle>
                <path d="M66.3125,115 L126,115" id="Line-5" stroke="#E0E0E0" stroke-width="2" stroke-linecap="round" stroke-linejoin="round"></path>
                <path d="M66.3117647,121.833333 L119,121.833333" id="Line-5" stroke="#E0E0E0" stroke-width="2" stroke-linecap="round" stroke-linejoin="round"></path>
                <path d="M50,113 C50.5522847,113 51,113.447715 51,114 L51,120 C51,120.552285 50.5522847,121 50,121 C49.4477153,121 49,120.552285 49,120 L49,114 C49,113.447715 49.4477153,113 50,113 Z" id="Rectangle" fill="#FC6D26"></path>
                <path d="M140,113 L146,113 C147.656854,113 149,114.343146 149,116 L149,122 C149,123.656854 147.656854,125 146,125 L140,125 C138.343146,125 137,123.656854 137,122 L137,116 C137,114.343146 138.343146,113 140,113 Z" id="Rectangle-8" stroke="#E0E0E0" stroke-width="2"></path>
                <path d="M157,113 L163,113 C164.656854,113 166,114.343146 166,116 L166,122 C166,123.656854 164.656854,125 163,125 L157,125 C155.343146,125 154,123.656854 154,122 L154,116 C154,114.343146 155.343146,113 157,113 Z" id="Rectangle-8-Copy" stroke="#FDC4A8" stroke-width="2"></path>
                <path d="M174,113 L180,113 C181.656854,113 183,114.343146 183,116 L183,122 C183,123.656854 181.656854,125 180,125 L174,125 C172.343146,125 171,123.656854 171,122 L171,116 C171,114.343146 172.343146,113 174,113 Z" id="Rectangle-8-Copy-2" stroke="#C3B8E3" stroke-width="2"></path>
                <circle id="Oval-5" fill="#FC6D26" cx="50" cy="123" r="1"></circle>
                <g id="Rectangle-5" stroke-linecap="round" stroke-linejoin="round" stroke-dasharray="1">
                    <use fill="black" fill-opacity="1" filter="url(#filter-6)" xlink:href="#path-5"></use>
                    <use stroke="#E5E5E5" stroke-width="2" fill="#FFFFFF" xlink:href="#path-5"></use>
                </g>
                <path d="M176,46.552552 L200.913738,46.552552 C200.487862,38.0350347 197.719669,31.6468967 192.609159,27.388138 C187.498648,23.1293793 181.962262,21 176,21 L176,46.552552 Z" id="Path-5" stroke="#6B4FBB" stroke-width="2" fill="#FFFFFF" stroke-linecap="round" stroke-linejoin="round"></path>
                <path d="M188.681818,34.3181818 L182.318182,40.6818182" id="Line-4" stroke="#E1DBF1" stroke-width="3" stroke-linecap="round" stroke-linejoin="round"></path>
                <path d="M186.558082,31 L185,32.5580824" id="Line-4" stroke="#F0EDF8" stroke-width="3" stroke-linecap="round" stroke-linejoin="round"></path>
                <path d="M212.208187,48.2083333 L221.576614,48.2083333" id="Line-5" stroke="#6B4FBB" stroke-width="3" stroke-linecap="round" stroke-linejoin="round"></path>
                <path d="M211.18609,54.2685185 L222,54.2685185" id="Line-5" stroke="#FEE1D3" stroke-width="3" stroke-linecap="round" stroke-linejoin="round"></path>
                <path d="M168.812926,26.0000232 L168.813154,50.0495045 C168.813154,51.154074 169.708585,52.0495045 170.813154,52.0495045 L195.541317,52.0496762 C194.58652,64.599851 184.100807,74.4858917 171.306086,74.4858917 C157.882205,74.4858917 147,63.6036863 147,50.1798056 C147,37.597657 156.560275,27.2484302 168.812926,26.0000232 Z" id="Combined-Shape" stroke="#FEE1D3" stroke-width="2" stroke-linecap="round" stroke-linejoin="round"></path>
            </g>
        </g>
    </g>
</svg>