<svg xmlns="http://www.w3.org/2000/svg" width="78" height="82" viewBox="0 0 78 82"><g fill="none" fill-rule="evenodd"><path fill="#F9F9F9" d="M2.12 42c-.08.99-.12 1.99-.12 3 0 20.435 16.565 37 37 37s37-16.565 37-37c0-1.01-.04-2.01-.12-3C74.353 61.032 58.425 76 39 76 19.575 76 3.647 61.032 2.12 42z"/><path fill="#EEE" fill-rule="nonzero" d="M39 78C17.46 78 0 60.54 0 39S17.46 0 39 0s39 17.46 39 39-17.46 39-39 39zm0-4c19.33 0 35-15.67 35-35S58.33 4 39 4 4 19.67 4 39s15.67 35 35 35z"/><path fill="#E1DBF2" d="M36.464 41.875a8 8 0 1 0 0-16v16z"/><path fill="#6B4FBB" d="M46.448 45.168l5.65 9.786a3 3 0 0 1-5.196 3l-5.65-9.786c-6.624 2.22-14.114-.446-17.742-6.73-4.142-7.175-1.684-16.349 5.49-20.49 7.175-4.143 16.348-1.685 20.49 5.49 3.629 6.284 2.193 14.103-3.042 18.73zm-4.948-2.57c4.783-2.762 6.422-8.878 3.66-13.66-2.761-4.783-8.877-6.422-13.66-3.66-4.783 2.76-6.422 8.877-3.66 13.66 2.761 4.782 8.877 6.421 13.66 3.66z"/></g></svg>