<svg xmlns="http://www.w3.org/2000/svg" width="78" height="82" viewBox="0 0 78 82">
  <g fill="none" fill-rule="evenodd">
    <path fill="#F9F9F9" d="M2.11986346,42 C2.04046544,42.9895269 2,43.9900378 2,45 C2,65.4345357 18.5654643,82 39,82 C59.4345357,82 76,65.4345357 76,45 C76,43.9900378 75.9595346,42.9895269 75.8801365,42 C74.3530766,61.0315425 58.4245736,76 39,76 C19.5754264,76 3.64692341,61.0315425 2.11986346,42 Z"/>
    <path fill="#EEEEEE" fill-rule="nonzero" d="M39,78 C17.4608948,78 0,60.5391052 0,39 C0,17.4608948 17.4608948,0 39,0 C60.5391052,0 78,17.4608948 78,39 C78,60.5391052 60.5391052,78 39,78 Z M39,74 C58.3299662,74 74,58.3299662 74,39 C74,19.6700338 58.3299662,4 39,4 C19.6700338,4 4,19.6700338 4,39 C4,58.3299662 19.6700338,74 39,74 Z"/>
    <path fill="#E1DBF2" d="M31.2898787,38 C32.1504279,35.1085111 34.8289794,33 38,33 C41.1710206,33 43.8495721,35.1085111 44.7101213,38 L52,38 L52,42 L44.7101213,42 C43.8495721,44.8914889 41.1710206,47 38,47 C34.8289794,47 32.1504279,44.8914889 31.2898787,42 L25.7101213,42 C24.8495721,44.8914889 22.1710206,47 19,47 C15.1340068,47 12,43.8659932 12,40 C12,36.1340068 15.1340068,33 19,33 C22.1710206,33 24.8495721,35.1085111 25.7101213,38 L31.2898787,38 Z M19,43 C20.6568542,43 22,41.6568542 22,40 C22,38.3431458 20.6568542,37 19,37 C17.3431458,37 16,38.3431458 16,40 C16,41.6568542 17.3431458,43 19,43 Z M38,43 C39.6568542,43 41,41.6568542 41,40 C41,38.3431458 39.6568542,37 38,37 C36.3431458,37 35,38.3431458 35,40 C35,41.6568542 36.3431458,43 38,43 Z"/>
    <path fill="#6B4FBB" fill-rule="nonzero" d="M58,48 C53.581722,48 50,44.418278 50,40 C50,35.581722 53.581722,32 58,32 C62.418278,32 66,35.581722 66,40 C66,44.418278 62.418278,48 58,48 Z M58,44 C60.209139,44 62,42.209139 62,40 C62,37.790861 60.209139,36 58,36 C55.790861,36 54,37.790861 54,40 C54,42.209139 55.790861,44 58,44 Z"/>
  </g>
</svg>
